<svg height="60" viewBox="0 0 60 60" width="60" xmlns="http://www.w3.org/2000/svg"><g id="Page-1" fill="none" fill-rule="evenodd"><g id="002---Corn-Farm"><path id="Shape" d="m59 43.053v14.947c0 .5522847-.4477153 1-1 1h-56c-.55228475 0-1-.4477153-1-1v-14.947c-.00282459-.2808364.11328653-.5497611.31962729-.7402881.20634075-.1905271.48365145-.2848727.76337271-.2597119 3.779.413 4.138 2.947 8.577 2.947 4.83 0 4.83-3 9.67-3s4.83 3 9.66 3 4.84-3 9.67-3 4.83 3 9.67 3c4.44 0 4.8-2.535 8.587-2.944.2792702-.0254255.5562711.068416.7625839.2583457s.3227007.4582384.3204161.7386543z" fill="#a0522d" fill-rule="nonzero"/><path id="Shape" d="m57.917 42.056c-.705724.0709752-1.3969595.2465645-2.051.521.0845802.1446211.1307125.308494.134.476v14.947c0 .5522847-.4477153 1-1 1h3c.5522847 0 1-.4477153 1-1v-14.947c.0022846-.2804159-.1141033-.5487246-.3204161-.7386543s-.4833137-.2837712-.7625839-.2583457z" fill="#783e22" fill-rule="nonzero"/><path id="Shape" d="m11 45v-10" stroke="#000" stroke-linejoin="round" stroke-width="2"/><path id="Shape" d="m18.84 21.98c-1.1819137 1.2518444-1.8402278 2.9083628-1.84 4.63v2.39c-.0049563 3.3116533-2.6883467 5.9950437-6 6v-9c0-2.7614237 2.2385763-5 5-5h2.41c.2325076-.0012223.4435116.1358265.5369342.3487431.0934227.2129167.0513997.4609875-.1069342.6312569z" fill="#008a00" fill-rule="nonzero"/><path id="Shape" d="m18.41 21h-2.41c-.132 0-.256.029-.386.039.1826986.0668712.3198012.220748.3652348.4099208.0454336.1891727-.0068326.3885303-.1392348.5310792-1.1819137 1.2518444-1.8402278 2.9083628-1.84 4.63v2.39c-.0018397 2.1417525-1.1451868 4.1201241-3 5.191v.809c3.3116533-.0049563 5.9950437-2.6883467 6-6v-2.39c-.0002278-1.7216372.6580863-3.3781556 1.84-4.63.1583339-.1702694.2003569-.4183402.1069342-.6312569-.0934226-.2129166-.3044266-.3499654-.5369342-.3487431z" fill="#007900" fill-rule="nonzero"/><path id="Shape" d="m11 26v9c-3.31165334-.0049563-5.99504366-2.6883467-6-6v-2.39c.00022776-1.7216372-.65808626-3.3781556-1.84-4.63-.15833392-.1702694-.20035685-.4183402-.10693424-.6312569.09342262-.2129166.30442662-.3499654.53693424-.3487431h2.41c1.32608245 0 2.59785201.5267842 3.53553391 1.4644661.93768189.9376819 1.46446609 2.2094515 1.46446609 3.5355339z" fill="#60a917" fill-rule="nonzero"/><path id="Shape" d="m6 21h-2.41c-.06843049.001241-.13611675.0144398-.2.039 2.59627451.196341 4.60435848 2.3573181 4.61 4.961v8.191c.91073155.5305328 1.94600926.8097127 3 .8090014v-9.0000014c0-2.7614237-2.23857625-5-5-5z" fill="#549414" fill-rule="nonzero"/><path id="Shape" d="m37.84 14.98c-1.1819137 1.2518444-1.8402278 2.9083628-1.84 4.63v2.39c-.0049563 3.3116533-2.6883467 5.9950437-6 6v-9c0-2.7614237 2.2385763-5 5-5h2.41c.2325076-.0012223.4435116.1358265.5369342.3487431.0934227.2129167.0513997.4609875-.1069342.6312569z" fill="#008a00" fill-rule="nonzero"/><path id="Shape" d="m37.41 14h-2.41c-.132 0-.256.029-.386.039.1826986.0668712.3198012.220748.3652348.4099208.0454336.1891727-.0068326.3885303-.1392348.5310792-1.1819137 1.2518444-1.8402278 2.9083628-1.84 4.63v2.39c-.0018397 2.1417525-1.1451868 4.1201241-3 5.191v.809c3.3116533-.0049563 5.9950437-2.6883467 6-6v-2.39c-.0002278-1.7216372.6580863-3.3781556 1.84-4.63.1583339-.1702694.2003569-.4183402.1069342-.6312569-.0934226-.2129166-.3044266-.3499654-.5369342-.3487431z" fill="#007900" fill-rule="nonzero"/><path id="Shape" d="m30 19v9c-3.3116533-.0049563-5.9950437-2.6883467-6-6v-2.39c.0002278-1.7216372-.6580863-3.3781556-1.84-4.63-.1583339-.1702694-.2003569-.4183402-.1069342-.6312569.0934226-.2129166.3044266-.3499654.5369342-.3487431h2.41c2.7614237 0 5 2.2385763 5 5z" fill="#60a917" fill-rule="nonzero"/><path id="Shape" d="m25 14h-2.41c-.0684305.001241-.1361167.0144398-.2.039 2.5962745.196341 4.6043585 2.3573181 4.61 4.961v8.191c.9107315.5305328 1.9460093.8097127 3 .8090014v-9.0000014c0-2.7614237-2.2385763-5-5-5z" fill="#549414" fill-rule="nonzero"/><path id="Shape" d="m56.84 21.98c-1.1819137 1.2518444-1.8402278 2.9083628-1.84 4.63v2.39c-.0049563 3.3116533-2.6883467 5.9950437-6 6v-9c0-2.7614237 2.2385763-5 5-5h2.41c.2325076-.0012223.4435116.1358265.5369342.3487431.0934227.2129167.0513997.4609875-.1069342.6312569z" fill="#008a00" fill-rule="nonzero"/><path id="Shape" d="m56.41 21h-2.41c-.132 0-.256.029-.386.039.1826986.0668712.3198012.220748.3652348.4099208.0454336.1891727-.0068326.3885303-.1392348.5310792-1.1819137 1.2518444-1.8402278 2.9083628-1.84 4.63v2.39c-.0018397 2.1417525-1.1451868 4.1201241-3 5.191v.809c3.3116533-.0049563 5.9950437-2.6883467 6-6v-2.39c-.0002278-1.7216372.6580863-3.3781556 1.84-4.63.1583339-.1702694.2003569-.4183402.1069342-.6312569-.0934226-.2129166-.3044266-.3499654-.5369342-.3487431z" fill="#007900" fill-rule="nonzero"/><path id="Shape" d="m49 26v9c-3.3116533-.0049563-5.9950437-2.6883467-6-6v-2.39c.0002278-1.7216372-.6580863-3.3781556-1.84-4.63-.1583339-.1702694-.2003569-.4183402-.1069342-.6312569.0934226-.2129166.3044266-.3499654.5369342-.3487431h2.41c1.3260824 0 2.597852.5267842 3.5355339 1.4644661s1.4644661 2.2094515 1.4644661 3.5355339z" fill="#60a917" fill-rule="nonzero"/><path id="Shape" d="m44 21h-2.41c-.0684305.001241-.1361167.0144398-.2.039 2.5962745.196341 4.6043585 2.3573181 4.61 4.961v8.191c.9107315.5305328 1.9460093.8097127 3 .8090014v-9.0000014c0-2.7614237-2.2385763-5-5-5z" fill="#549414" fill-rule="nonzero"/><path id="Shape" d="m16 14.5v6.5c-2.7614237 0-5 2.2385763-5 5 0-2.7614237-2.23857625-5-5-5v-6.5c0-3.59 2.24-6.5 5-6.5s5 2.91 5 6.5z" fill="#ffdc00" fill-rule="nonzero"/><path id="Shape" d="m11 8c-.5147975.00104506-1.0244004.10296565-1.5.3 2.028.828 3.5 3.291 3.5 6.2v6.5c-1.3101383-.0003584-2.5676445.5155784-3.5 1.436.9594457.9375959 1.5002303 2.2225001 1.5 3.564 0-2.7614237 2.2385763-5 5-5v-6.5c0-3.59-2.24-6.5-5-6.5z" fill="#fec108" fill-rule="nonzero"/><path id="Shape" d="m29.99 45 .01-17" stroke="#000" stroke-linejoin="round" stroke-width="2"/><path id="Shape" d="m49 45v-10" stroke="#000" stroke-linejoin="round" stroke-width="2"/><g fill-rule="nonzero"><path id="Shape" d="m54 14.5v6.5c-2.7614237 0-5 2.2385763-5 5 0-2.7614237-2.2385763-5-5-5v-6.5c0-3.59 2.24-6.5 5-6.5s5 2.91 5 6.5z" fill="#ffdc00"/><path id="Shape" d="m49 8c-.5147975.00104506-1.0244004.10296565-1.5.3 2.028.828 3.5 3.291 3.5 6.2v6.5c-1.3101383-.0003584-2.5676445.5155784-3.5 1.436.9594457.9375959 1.5002303 2.2225001 1.5 3.564 0-2.7614237 2.2385763-5 5-5v-6.5c0-3.59-2.24-6.5-5-6.5z" fill="#fec108"/><path id="Shape" d="m35 7.5v6.5c-2.7614237 0-5 2.2385763-5 5 0-2.7614237-2.2385763-5-5-5v-6.5c0-3.59 2.24-6.5 5-6.5s5 2.91 5 6.5z" fill="#ffdc00"/><path id="Shape" d="m30 1c-.5147975.00104506-1.0244004.10296565-1.5.3 2.028.827 3.5 3.29 3.5 6.2v6.5c-1.3101383-.0003584-2.5676445.5155784-3.5 1.436.9594457.9375959 1.5002303 2.2225001 1.5 3.564 0-2.7614237 2.2385763-5 5-5v-6.5c0-3.59-2.24-6.5-5-6.5z" fill="#fec108"/><path id="Shape" d="m2 60h56c1.1045695 0 2-.8954305 2-2v-14.947c.0021973-.564201-.234845-1.1028968-.6523145-1.4824318-.4174695-.3795351-.9762437-.5643419-1.5376855-.5085682-3.793.409-4.427 2.674-7.81 2.913v-8.055c3.4409267-.4966526 5.9959255-3.4434178 6-6.92v-2.4c-.0021324-1.4639925.5585255-2.8727976 1.566-3.935.4285838-.4617026.5432815-1.133291.2922256-1.7110663-.2510558-.5777754-.820265-.9521915-1.4502256-.9539337h-1.408v-5.5c0-4.136-2.691-7.5-6-7.5s-6 3.364-6 7.5v5.5h-1.408c-.6324105-.0009055-1.2049173.3739829-1.4569173.9540172-.2519999.5800344-.135324 1.254343.2969173 1.7159828 1.83 1.936 1.568 3.866 1.568 6.33.0040745 3.4765822 2.5590733 6.4233474 6 6.92v7.98c-3.144-.5-3.719-2.9-8.34-2.9-4.812 0-5.172 2.549-8.669 2.941l.009-15.021c3.4409267-.4966526 5.9959255-3.4434178 6-6.92v-2.4c-.0021324-1.4639925.5585255-2.8727976 1.566-3.935.4285838-.4617026.5432815-1.133291.2922256-1.7110663-.2510558-.5777754-.820265-.9521915-1.4502256-.9539337h-1.408v-5.5c0-4.136-2.691-7.5-6-7.5s-6 3.364-6 7.5v5.5h-1.408c-.6324105-.0009055-1.2049173.3739829-1.4569173.9540172-.2519999.5800344-.135324 1.254343.2969173 1.7159828 1.83 1.936 1.568 3.866 1.568 6.33.0040745 3.4765822 2.5590733 6.4233474 6 6.92l-.008 15.021c-3.463-.39-3.906-2.941-8.662-2.941-4.67 0-5.178 2.4-8.33 2.9v-7.98c3.4409267-.4966526 5.9959255-3.4434178 6-6.92v-2.4c-.0021324-1.4639925.5585255-2.8727976 1.566-3.935.4285838-.4617026.5432815-1.133291.2922256-1.7110663-.2510558-.5777754-.820265-.9521915-1.4502256-.9539337h-1.408v-5.5c0-4.136-2.691-7.5-6-7.5s-6 3.364-6 7.5v5.5h-1.408c-.63241045-.0009055-1.20491733.3739829-1.45691727.9540172-.25199994.5800344-.13532401 1.254343.29691727 1.7159828 1.83 1.936 1.568 3.866 1.568 6.33.00407452 3.4765822 2.55907331 6.4233474 6 6.92v8.055c-3.414-.237-3.978-2.5-7.809-2.913-.56153362-.0557535-1.12039741.1290285-1.53801925.5085288s-.6548928.9181798-.65298075 1.4824712v14.947c0 1.1045695.8954305 2 2 2zm52-31c-.0026123 2.3752386-1.6733709 4.421918-4 4.9v-7.9c0-2.209139 1.790861-4 4-4h1.523c-1.746 2.349-1.523 4.378-1.523 7zm-5-20c2.206 0 4 2.467 4 5.5v5.59c-1.6350304.2774565-3.0826548 1.2184124-4 2.6-.9173452-1.3815876-2.3649696-2.3225435-4-2.6v-5.59c0-3.033 1.794-5.5 4-5.5zm-5 20c0-2.651.23-4.64-1.523-7h1.523c2.209139 0 4 1.790861 4 4v7.9c-2.3266291-.478082-3.9973877-2.5247614-4-4.9zm-9-7c-.0026123 2.3752386-1.6733709 4.421918-4 4.9v-7.9c0-2.209139 1.790861-4 4-4h1.523c-1.746 2.349-1.523 4.378-1.523 7zm-5-20c2.206 0 4 2.467 4 5.5v5.59c-1.6350304.2774565-3.0826548 1.2184124-4 2.6-.9173452-1.3815876-2.3649696-2.3225435-4-2.6v-5.59c0-3.033 1.794-5.5 4-5.5zm-5 20c0-2.651.23-4.64-1.523-7h1.523c2.209139 0 4 1.790861 4 4v7.9c-2.3266291-.478082-3.9973877-2.5247614-4-4.9zm-9 7c-.0026123 2.3752386-1.6733709 4.421918-4 4.9v-7.9c0-2.209139 1.790861-4 4-4h1.523c-1.746 2.349-1.523 4.378-1.523 7zm-5-20c2.206 0 4 2.467 4 5.5v5.59c-1.6350304.2774565-3.0826548 1.2184124-4 2.6-.9173452-1.3815876-2.36496965-2.3225435-4-2.6v-5.59c0-3.033 1.794-5.5 4-5.5zm-5 20c0-2.651.23-4.64-1.523-7h1.523c2.209139 0 4 1.790861 4 4v7.9c-2.32662911-.478082-3.99738774-2.5247614-4-4.9zm5 17c.0292979-.0044574.0583387-.0104659.087-.018 1.7676308-.048948 3.4819383-.6160951 4.93-1.631 1.2498692-.9125961 2.7658493-1.3874603 4.313-1.351 4.332 0 4.583 3 9.66 3s5.33-3 9.67-3c4.244 0 4.5 2.812 9.256 2.983.0276677.0071998.05571.0128751.084.017 5.407 0 5.382-2.543 9-2.956.0011676.0028864.0011676.0061136 0 .009v14.947h-56l-.025-14.95c3.617.393 3.625 2.95 9.025 2.95z" fill="#000"/><path id="Shape" d="m10 14h1c.5522847 0 1-.4477153 1-1s-.4477153-1-1-1h-1c-.55228475 0-1 .4477153-1 1s.44771525 1 1 1z" fill="#000"/><path id="Shape" d="m11 16c-.5522847 0-1 .4477153-1 1s.4477153 1 1 1h1c.5522847 0 1-.4477153 1-1s-.4477153-1-1-1z" fill="#000"/><path id="Shape" d="m48 14h1c.5522847 0 1-.4477153 1-1s-.4477153-1-1-1h-1c-.5522847 0-1 .4477153-1 1s.4477153 1 1 1z" fill="#000"/><path id="Shape" d="m49 16c-.5522847 0-1 .4477153-1 1s.4477153 1 1 1h1c.5522847 0 1-.4477153 1-1s-.4477153-1-1-1z" fill="#000"/><path id="Shape" d="m30 7h1c.5522847 0 1-.44771525 1-1s-.4477153-1-1-1h-1c-.5522847 0-1 .44771525-1 1s.4477153 1 1 1z" fill="#000"/><path id="Shape" d="m29 11h1c.5522847 0 1-.4477153 1-1 0-.55228475-.4477153-1-1-1h-1c-.5522847 0-1 .44771525-1 1 0 .5522847.4477153 1 1 1z" fill="#000"/><path id="Shape" d="m18 48.292c.0912591-.0000665.1820874-.0125133.27-.037.6716441-.1794752 1.3648659-.2652867 2.06-.255.4994396-.0038643.9981852.0379768 1.49.125.3515493.0643078.7107021-.0638187.942169-.3361154.2314669-.2722968.3000825-.6473955.18-.984-.1200825-.3366046-.4106197-.5835768-.762169-.6478846-.6105759-.108737-1.2298321-.1612901-1.85-.157-.877699-.0108862-1.7526771.0998322-2.6.329-.4813264.1347019-.7892782.604104-.7211719 1.0992618.0681062.4951578.4913523.8639876.9911719.8637382z" fill="#000"/><path id="Shape" d="m32 51.292c.0912591-.0000665.1820874-.0125133.27-.037.6716441-.1794752 1.3648659-.2652867 2.06-.255.4994396-.0038643.9981852.0379768 1.49.125.3515493.0643078.7107021-.0638187.942169-.3361154.2314669-.2722968.3000825-.6473955.18-.984-.1200825-.3366046-.4106197-.5835768-.762169-.6478846-.6105759-.108737-1.2298321-.1612901-1.85-.157-.877699-.0108862-1.7526771.0998322-2.6.329-.4813264.1347019-.7892782.604104-.7211719 1.0992618.0681062.4951578.4913523.8639876.9911719.8637382z" fill="#000"/><path id="Shape" d="m43 50.292c.0912591-.0000665.1820874-.0125133.27-.037.6716564-.1794123 1.3648694-.2652227 2.06-.255.4994396-.0038643.9981852.0379768 1.49.125.3515493.0643078.7107021-.0638187.942169-.3361154.2314669-.2722968.3000825-.6473955.18-.984-.1200825-.3366046-.4106197-.5835768-.762169-.6478846-.6105759-.108737-1.2298321-.1612901-1.85-.157-.8776917-.0107577-1.7526522.0999584-2.6.329-.4813264.1347019-.7892782.604104-.7211719 1.0992618.0681062.4951578.4913523.8639876.9911719.8637382z" fill="#000"/><path id="Shape" d="m7 51.292c.09125911-.0000665.18208736-.0125133.27-.037.67164413-.1794752 1.36486593-.2652867 2.06-.255.49943957-.0038643.9981852.0379768 1.49.125.5434482.0994112 1.0645887-.2605518 1.164-.804.0994112-.5434482-.2605518-1.0645887-.804-1.164-.6105759-.108737-1.22983209-.1612901-1.85-.157-.87769898-.0108862-1.75267708.0998322-2.6.329-.48132644.1347019-.78927821.604104-.72117193 1.0992618.06810627.4951578.49135228.8639876.99117193.8637382z" fill="#000"/><path id="Shape" d="m40 55.292c.0912591-.0000665.1820874-.0125133.27-.037.6716441-.1794752 1.3648659-.2652867 2.06-.255.4994396-.0038643.9981852.0379768 1.49.125.3515493.0643078.7107021-.0638187.942169-.3361154.2314669-.2722968.3000825-.6473955.18-.984-.1200825-.3366046-.4106197-.5835768-.762169-.6478846-.6105759-.108737-1.2298321-.1612901-1.85-.157-.877699-.0108862-1.7526771.0998322-2.6.329-.4813264.1347019-.7892782.604104-.7211719 1.0992618.0681062.4951578.4913523.8639876.9911719.8637382z" fill="#000"/><path id="Shape" d="m50 54c.0912591-.0000665.1820874-.0125133.27-.037.6717511-.1789248 1.3648964-.2647267 2.06-.255.4994347-.003736.9981687.0381041 1.49.125.3515493.0643078.7107021-.0638187.942169-.3361154.2314669-.2722968.3000825-.6473955.18-.984-.1200825-.3366046-.4106197-.5835768-.762169-.6478846-.6105984-.1085649-1.2298389-.1611166-1.85-.157-.8776917-.0107577-1.7526522.0999584-2.6.329-.4813264.1347019-.7892782.604104-.7211719 1.0992618.0681062.4951578.4913523.8639876.9911719.8637382z" fill="#000"/><path id="Shape" d="m22.037 53.562c.0715771.2554236.2417058.4719432.4729477.6019112.2312419.1299681.5046479.1627346.7600523.0910888.6716441-.1794752 1.3648659-.2652867 2.06-.255.4994396-.0038643.9981852.0379768 1.49.125.3515493.0643078.7107021-.0638187.942169-.3361154.2314669-.2722968.3000825-.6473955.18-.984-.1200825-.3366046-.4106197-.5835768-.762169-.6478846-.6105759-.108737-1.2298321-.1612901-1.85-.157-.877699-.0108862-1.7526771.0998322-2.6.329-.2554236.0715771-.4719432.2417058-.6019112.4729477-.1299681.2312419-.1627346.5046479-.0910888.7600523z" fill="#000"/><path id="Shape" d="m11.037 54.562c.0715771.2554236.2417058.4719432.4729477.6019112.2312419.1299681.5046479.1627346.7600523.0910888.6716441-.1794752 1.3648659-.2652867 2.06-.255.4994396-.0038643.9981852.0379768 1.49.125.3515493.0643078.7107021-.0638187.942169-.3361154.2314669-.2722968.3000825-.6473955.18-.984-.1200825-.3366046-.4106197-.5835768-.762169-.6478846-.6105759-.108737-1.2298321-.1612901-1.85-.157-.877699-.0108862-1.7526771.0998322-2.6.329-.2554236.0715771-.4719432.2417058-.6019112.4729477-.1299681.2312419-.1627346.5046479-.0910888.7600523z" fill="#000"/></g></g></g></svg>