<svg height="512" viewBox="0 0 60 60" width="512" xmlns="http://www.w3.org/2000/svg"><g id="Page-1" fill="none" fill-rule="evenodd"><g id="004---Small-Tractor"><path id="Shape" d="m22.95 32c-.5686159-5.9249475-5.7644441-10.3115662-11.7008406-9.8785265-5.93639651.4330397-10.44063124 5.5272446-10.14339406 11.4719882.29723719 5.9447437 5.28715702 10.5642409 11.23714156 10.4029615 5.9499845-.1612794 10.6823304-5.0443068 10.6570931-10.9964232 0-.34-.02-.67-.05-1zm-10.95 8c-2.83123571 0-5.38368973-1.7054952-6.46715673-4.321216-1.083467-2.6157207-.48457671-5.6265455 1.51740926-7.6285315 2.00198597-2.0019859 5.01281077-2.6008762 7.62853147-1.5174092 2.6157208 1.083467 4.321216 3.635921 4.321216 6.4671567-.0044086 3.8641657-3.1358343 6.9955914-7 7z" fill="#37474f" fill-rule="nonzero"/><path id="Shape" d="m26.96 32h-4.01c-.3748536-4.0945149-3.0019298-7.6381561-6.8107204-9.186924s-8.16336629-.8440747-11.2892796 1.826924l-2.11-3.43c1.52887124-1.2119834 3.28259674-2.1092383 5.16-2.64 7.2212034-2.0527744 14.8479033 1.5490789 17.85 8.43.6946111 1.5824131 1.1042378 3.2750855 1.21 5z" fill="#7f8e94" fill-rule="nonzero"/><path id="Shape" d="m59 17v13c.0046834 1.3961108-.958966 2.6089797-2.32 2.92-1.3222391-1.8467248-3.4595102-2.9356318-5.7307336-2.9197213s-4.3930293 1.1346534-5.6892664 2.9997213h-17.29c-.5213836.0084521-.9593878-.3901318-1-.91.0016261-.0303454-.0017524-.0607516-.01-.09-.1057622-1.7249145-.5153889-3.4175869-1.21-5h5.25v-10c0-1.6568542 1.3431458-3 3-3h22c1.6568542 0 3 1.3431458 3 3z" fill="#f44335" fill-rule="nonzero"/><path id="Shape" d="m56 14h-3c1.6568542 0 3 1.3431458 3 3v13c-.0014716.5858534-.1753657 1.1583127-.5 1.646.4449974.3737181.8414181.801718 1.18 1.274 1.361034-.3110203 2.3246834-1.5238892 2.32-2.92v-13c0-1.6568542-1.3431458-3-3-3z" fill="#c81e1e" fill-rule="nonzero"/><path id="Shape" d="m12 26c-3.86599325 0-7 3.1340068-7 7s3.13400675 7 7 7c3.8659932 0 7-3.1340068 7-7-.0044086-3.8641657-3.1358343-6.9955914-7-7zm0 9c-1.1045695 0-2-.8954305-2-2s.8954305-2 2-2 2 .8954305 2 2c-.0032948 1.1032019-.8967981 1.9967052-2 2z" fill="#ffdc00" fill-rule="nonzero"/><circle id="Oval" cx="12" cy="33" fill="#cfd8dc" fill-rule="nonzero" r="2"/><path id="Shape" d="m56.68 32.92c-2.0130705-2.7926828-5.7594219-3.7044841-8.8307049-2.1492508-3.0712829 1.5552334-4.5534936 5.114669-3.4937899 8.3901168 1.0597037 3.2754477 4.3459573 5.2921449 7.7461863 4.7536538s5.9025362-3.4719173 5.8983085-6.9145198c.0072976-1.4661135-.4553126-2.8959993-1.32-4.08zm-5.68 7.08c-1.6568542 0-3-1.3431458-3-3s1.3431458-3 3-3 3 1.3431458 3 3c-.0049422 1.6548028-1.3451972 2.9950578-3 3z" fill="#37474f" fill-rule="nonzero"/><circle id="Oval" cx="51" cy="37" fill="#ffdc00" fill-rule="nonzero" r="3"/><path id="Shape" d="m31 27v2" stroke="#000" stroke-linecap="round" stroke-linejoin="round" stroke-width="2"/><g fill-rule="nonzero"><path id="Shape" d="m44 7v7h-4v-7c.0032948-1.10320187.8967981-1.9967052 2-2 1.1011688.00816722 1.9918328.89883122 2 2z" fill="#c81e1e"/><path id="Shape" d="m20 16v4.31c-3.6039837-2.2699329-8.0024358-2.9024376-12.1-1.74l-2.53-10.97 1.87-.31c1.00369464-.16084454 1.96948753.4529705 2.25 1.43l1.1 3.83c.2428598.8589063 1.0274201 1.4514128 1.92 1.45h5.49c1.1032019.0032948 1.9967052.8967981 2 2z" fill="#37474f"/><path id="Shape" d="m1 44h58v13c0 1.1045695-.8954305 2-2 2h-54c-1.1045695 0-2-.8954305-2-2z" fill="#a0522d"/><path id="Shape" d="m56 44v15h1c1.1045695 0 2-.8954305 2-2v-13z" fill="#783e22"/><path id="Shape" d="m56 13h-11v-6c-.0052514-1.26678543-.8056491-2.39374545-2-2.816v-1.566l1.447-.718c.3197527-.15969771.5300187-.47785053.5515928-.83461336.021574-.35676283-.1488214-.69793492-.447-.89500002-.2981787-.19706511-.6788401-.22008436-.9985928-.06038662l-1.448.719c-.6790438.33715864-1.1075203 1.03086405-1.105 1.789v1.566c-1.1943509.42225455-1.9947486 1.54921457-2 2.816v6h-5c-1.8184116.0068148-3.4034067 1.2393149-3.858 3h-3.142v-1c0-.5522847-.4477153-1-1-1s-1 .4477153-1 1v4c0 .5522847.4477153 1 1 1s1-.4477153 1-1v-1h3v8h-3.623c-1.2203586-2.5052173-3.0738558-4.6482695-5.377-6.217v-3.783c0-1.6568542-1.3431458-3-3-3h-5.49c-.4457459-.0012172-.8368668-.2973108-.959-.726l-1.1-3.829c-.4195748-1.46597041-1.86851409-2.38712478-3.374-2.145l-.945.156-.158-.686c-.13180677-.53000074-.66445782-.85622429-1.19646854-.73278033-.53201071.12344397-.866582.65089159-.75153146 1.18478033l2.7 11.685c-2.07739805.721597-3.98373737 1.8636985-5.6 3.355-.39600908.3769469-.41588198 1.0020541-.04461556 1.4033937.37126642.4013395.99602702.4301168 1.40261556.0646063l.016-.01 1.077 1.75c-2.57532591 2.5354969-3.86806582 6.098299-3.51787749 9.6953.35018834 3.597001 2.30585718 6.8435522 5.32187749 8.8347h-4.381c-.55228475 0-1 .4477153-1 1s.44771525 1 1 1h11.523l-5.452 13.628c-.09854514.2462521-.09522227.5215667.00923748.7653686.10445976.243802.30149818.4361169.54776252.5346314.1183814.0471373.24457988.0715628.372.072.40894499.0003137.77687254-.2484037.929-.628l5.748-14.372h8.323c.5522847 0 1-.4477153 1-1s-.4477153-1-1-1h-4.381c3.3571696-2.2200136 5.3778338-5.9751972 5.381-10h2.236c.3576136.6194056 1.0187725 1.0006969 1.734 1h15.619c-1.2837237 3.1484537-.4250644 6.7647073 2.137 9h-18.726c-.5522847 0-1 .4477153-1 1s.4477153 1 1 1h2v14c0 .5522847.4477153 1 1 1s1-.4477153 1-1v-14h14.323l5.748 14.372c.1521275.3795963.520055.6283137.929.628.1273562-.0001189.2535525-.0242047.372-.071.2462643-.0985145.4433028-.2908294.5477625-.5346314.1044598-.2438019.1077826-.5191165.0092375-.7653686l-5.452-13.629h11.523c.5522847 0 1-.4477153 1-1s-.4477153-1-1-1h-2.726c2.7504351-2.3975703 3.5157101-6.3596002 1.856-9.609 1.1694349-.7293484 1.8771988-2.0127855 1.87-3.391v-13c0-2.209139-1.790861-4-4-4zm-15-6c0-.55228475.4477153-1 1-1s1 .44771525 1 1v6h-2zm-34.417 1.413.817-.136c.50430401-.07580777.98688487.23323206 1.129.723l1.1 3.823c.36717843 1.2870936 1.542558 2.1752579 2.881 2.177h5.49c.5522847 0 1 .4477153 1 1v2.622c-3.2085734-1.5786673-6.8579844-2.0214902-10.351-1.256zm5.417 34.587c-5.5228475 0-10-4.4771525-10-10s4.4771525-10 10-10 10 4.4771525 10 10c-.0060624 5.5203344-4.4796656 9.9939376-10 10zm11.819-12c-.677441-4.0583875-3.3916419-7.4844716-7.1873796-9.0724926s-8.14103186-1.1154145-11.5066204 1.2514926l-1.048-1.7c3.43801948-2.3742552 7.7579674-3.0858086 11.7758479-1.9396402 4.0178805 1.1461683 7.3122326 4.0298296 8.9801521 7.8606402.500666 1.148482.8434492 2.3594924 1.019 3.6zm27.181 12c-3.3137085 0-6-2.6862915-6-6s2.6862915-6 6-6 6 2.6862915 6 6c-.0033074 3.3123376-2.6876624 5.9966926-6 6zm0-14c-2.4265181.0005434-4.7211355 1.1044325-6.236 3l-16.8.028c-.0816804-1.3697746-.3384353-2.7234507-.764-4.028h2.8v1c0 .5522847.4477153 1 1 1s1-.4477153 1-1v-12c0-1.1045695.8954305-2 2-2h22c1.1045695 0 2 .8954305 2 2h-5c-.5522847 0-1 .4477153-1 1s.4477153 1 1 1h5v2h-5c-.5522847 0-1 .4477153-1 1s.4477153 1 1 1h5v2h-5c-.5522847 0-1 .4477153-1 1s.4477153 1 1 1h5v3c.0028655.7144995-.3792514 1.3751796-1 1.729-1.5128376-1.7324003-3.700025-2.727206-6-2.729z" fill="#000"/><path id="Shape" d="m12 25c-4.418278 0-8 3.581722-8 8s3.581722 8 8 8 8-3.581722 8-8c-.0049599-4.4162219-3.5837781-7.9950401-8-8zm0 14c-3.3137085 0-6-2.6862915-6-6s2.6862915-6 6-6 6 2.6862915 6 6c-.0033074 3.3123376-2.6876624 5.9966926-6 6z" fill="#000"/><path id="Shape" d="m12 30c-1.6568542 0-3 1.3431458-3 3s1.3431458 3 3 3 3-1.3431458 3-3-1.3431458-3-3-3zm0 4c-.5522847 0-1-.4477153-1-1s.4477153-1 1-1 1 .4477153 1 1-.4477153 1-1 1z" fill="#000"/><path id="Shape" d="m51 33c-2.209139 0-4 1.790861-4 4s1.790861 4 4 4 4-1.790861 4-4-1.790861-4-4-4zm0 6c-1.1045695 0-2-.8954305-2-2s.8954305-2 2-2 2 .8954305 2 2-.8954305 2-2 2z" fill="#000"/><path id="Shape" d="m48 17h-13c-.5522847 0-1 .4477153-1 1s.4477153 1 1 1h13c.5522847 0 1-.4477153 1-1s-.4477153-1-1-1z" fill="#000"/><path id="Shape" d="m48 25h-13c-.5522847 0-1 .4477153-1 1s.4477153 1 1 1h13c.5522847 0 1-.4477153 1-1s-.4477153-1-1-1z" fill="#000"/></g></g></g></svg>