<svg height="512" viewBox="0 0 60 60" width="512" xmlns="http://www.w3.org/2000/svg"><g id="Page-1" fill="none" fill-rule="evenodd"><g id="005---Farm" transform="translate(-1 -1)"><g fill-rule="nonzero"><path id="Shape" d="m39 22.41v23.59h-7v-13c0-.5522847-.4477153-1-1-1h-18c-.5522847 0-1 .4477153-1 1v13h-7v-23.59c.29202756-.159921.53951026-.3902174.72-.67l5.22-8c.1552404-.2402436.3597564-.4447596.6-.6l9.39-5.98c.6543938-.41009029 1.4856062-.41009029 2.14 0l9.39 5.98c.2402436.1552404.4447596.3597564.6.6l5.22 8c.1804897.2797826.4279724.510079.72.67z" fill="#f44335"/><path id="Shape" d="m38.28 21.74-5.22-8c-.1552404-.2402436-.3597564-.4447596-.6-.6l-9.39-5.98c-.6543938-.41009029-1.4856062-.41009029-2.14 0l-.43.274 8.96 5.706c.2402436.1552404.4447596.3597564.6.6l5.22 8c.1804897.2797826.4279724.510079.72.67v23.59h3v-23.59c-.2920276-.159921-.5395103-.3902174-.72-.67z" fill="#c81e1e"/><path id="Shape" d="m32 33v13h-4v-14h3c.5522847 0 1 .4477153 1 1z" fill="#624421"/><path id="Rectangle-path" d="m16 32h12v14h-12z" fill="#825a2c"/><path id="Rectangle-path" d="m25 32h3v14h-3z" fill="#624421"/><path id="Shape" d="m16 32v14h-4v-13c0-.5522847.4477153-1 1-1z" fill="#624421"/><path id="Shape" d="m41.41 22.08c-.3826922.3725701-.8959015.5807249-1.43.58-.68628.0025163-1.3267502-.344091-1.7-.92l-5.22-8c-.1552404-.2402436-.3597564-.4447596-.6-.6l-9.39-5.98c-.6543938-.41009029-1.4856062-.41009029-2.14 0l-9.39 5.98c-.2402436.1552404-.4447596.3597564-.6.6l-5.22 8c-.18048974.2797826-.42797244.510079-.72.67-.78727256.4384949-1.76958193.3039878-2.41-.33-.37746004-.3679773-.59022933-.8728536-.59-1.4-.00134886-.3927379.11727509-.7765213.34-1.1l6.68-9.85c.16024505-.24030464.37204946-.44186045.62-.59l11.32-6.85c.6388013-.38888997 1.4411987-.38888997 2.08 0l11.32 6.85c.2479505.14813955.459755.34969536.62.59l6.68 9.85c.0889532.1312461.1627568.2721439.22.42.2640396.7255572.0803538 1.5384644-.47 2.08z" fill="#cfd8dc"/><path id="Shape" d="m41.88 20c-.0572432-.1478561-.1310468-.2887539-.22-.42l-6.68-9.85c-.160245-.24030464-.3720495-.44186045-.62-.59l-11.32-6.85c-.6388013-.38888997-1.4411987-.38888997-2.08 0l-.46.278 10.86 6.572c.2479505.14813955.459755.34969536.62.59l6.68 9.85c.0889532.1312461.1627568.2721439.22.42.2428824.6838428.0890906 1.4458814-.4 1.982.1469819.1719665.3229805.3168269.52.428.2996012.1665521.637227.2526811.98.25.5340985.0007249 1.0473078-.2074299 1.43-.58.5503538-.5415356.7340396-1.3544428.47-2.08z" fill="#9e9e9e"/><path id="Shape" d="m28.564 15.7-6-4.1c-.3401201-.2323003-.7878799-.2323003-1.128 0l-6 4.1c-.2728862.1863799-.4360744.4955392-.436.826v6.474c0 .5522847.4477153 1 1 1h12c.5522847 0 1-.4477153 1-1v-6.472c.0007364-.3311681-.1625285-.6412215-.436-.828z" fill="#02a9f4"/><path id="Shape" d="m28.564 15.7-6-4.1c-.3401201-.2323003-.7878799-.2323003-1.128 0l-.936.639 5.064 3.461c.2728862.1863799.4360744.4955392.436.826v6.474c0 .5522847-.4477153 1-1 1h3c.5522847 0 1-.4477153 1-1v-6.472c.0007364-.3311681-.1625285-.6412215-.436-.828z" fill="#0377bc"/><path id="Shape" d="m58 22v6h-19v-5.59c.2996012.1665521.637227.2526811.98.25.5340985.0007249 1.0473078-.2074299 1.43-.58.5503538-.5415356.7340396-1.3544428.47-2.08h14.12c1.1032019.0032948 1.9967052.8967981 2 2z" fill="#ff5722"/><path id="Shape" d="m56 20h-3c1.1032019.0032948 1.9967052.8967981 2 2v6h3v-6c-.0032948-1.1032019-.8967981-1.9967052-2-2z" fill="#d84315"/><path id="Rectangle-path" d="m39 28h19v18h-19z" fill="#ff9801"/><rect id="Rectangle-path" fill="#02a9f4" height="8" rx="1" width="10" x="43" y="32"/><path id="Shape" d="m52 32h-3c.5522847 0 1 .4477153 1 1v6c0 .5522847-.4477153 1-1 1h3c.5522847 0 1-.4477153 1-1v-6c0-.5522847-.4477153-1-1-1z" fill="#0377bc"/></g><path id="Shape" d="m60 46h-58" stroke="#000" stroke-linecap="round" stroke-linejoin="round" stroke-width="2"/><path id="Shape" d="m2 45h58v13c0 1.1045695-.8954305 2-2 2h-54c-1.1045695 0-2-.8954305-2-2z" fill="#a0522d" fill-rule="nonzero"/><path id="Shape" d="m57 45v15h1c1.1045695 0 2-.8954305 2-2v-13z" fill="#783e22" fill-rule="nonzero"/><path id="Shape" d="m15 29h14c.5522847 0 1-.4477153 1-1s-.4477153-1-1-1h-14c-.5522847 0-1 .4477153-1 1s.4477153 1 1 1z" fill="#000" fill-rule="nonzero"/><path id="Shape" d="m16 25h12c1.1045695 0 2-.8954305 2-2v-6.472c.0001488-.6609215-.3262276-1.2792403-.872-1.652l-6-4.095c-.3294916-.2252891-.7188569-.3468352-1.118-.349l-.01-.002h-.01c-.3991431.0021648-.7885084.1237109-1.118.349l-6 4.095c-.5463573.3731585-.8728103.992371-.872 1.654v6.472c0 1.1045695.8954305 2 2 2zm0-5h5v3h-5zm7 3v-3h5v3zm5-6.472v1.472h-5v-4.884zm-7-3.412v4.884h-5v-1.472z" fill="#000" fill-rule="nonzero"/><path id="Shape" d="m52 31h-8c-1.1045695 0-2 .8954305-2 2v6c0 1.1045695.8954305 2 2 2h8c1.1045695 0 2-.8954305 2-2v-6c0-1.1045695-.8954305-2-2-2zm-8 2h3v6h-3zm5 6v-6h3v6z" fill="#000" fill-rule="nonzero"/><path id="Shape" d="m53 25h1c.5522847 0 1-.4477153 1-1s-.4477153-1-1-1h-1c-.5522847 0-1 .4477153-1 1s.4477153 1 1 1z" fill="#000" fill-rule="nonzero"/><path id="Shape" d="m44 25h5c.5522847 0 1-.4477153 1-1s-.4477153-1-1-1h-5c-.5522847 0-1 .4477153-1 1s.4477153 1 1 1z" fill="#000" fill-rule="nonzero"/><path id="Shape" d="m20 38c-.5522847 0-1 .4477153-1 1v1c0 .5522847.4477153 1 1 1s1-.4477153 1-1v-1c0-.5522847-.4477153-1-1-1z" fill="#000" fill-rule="nonzero"/><path id="Shape" d="m60 45h-1v-23c0-1.6568542-1.3431458-3-3-3h-13.524l-6.664-9.829c-.243083-.35735842-.5602732-.65817757-.93-.882l-11.329-6.855c-.9541229-.57993059-2.1518771-.57993059-3.106 0l-11.327 6.854c-.37055349.22388232-.68845053.52506588-.932.883l-6.674 9.844c-.80689174 1.186308-.64898762 2.7800869.375 3.785.56384798.5526073 1.32150795.8627059 2.111.864v21.336h-2c-.55228475 0-1 .4477153-1 1s.44771525 1 1 1h6.277l-7.145 12.5c-.13307207.2301014-.16905794.5037153-.10000828.7603999s.23745256.4753167.46800828.6076001c.15199153.0876108.32456993.1331715.5.132.35832785.001065.68983686-.1896767.869-.5l7.711-13.5h5l-4.522 12.664c-.1200412.3365442-.0514197.7115651.1800155.9837959.2314352.2722309.5905235.4003134.942.336.3514764-.0643133.6419433-.3112517.7619845-.6477959l4.758-13.336h5.058l-2.736 12.791c-.1154275.5401345.2288655 1.0715725.769 1.187s1.0715725-.2288655 1.187-.769l2.831-13.209h5.191v13c0 .5522847.4477153 1 1 1s1-.4477153 1-1v-13h5.191l2.831 13.209c.1154275.5401345.6468655.8844275 1.187.769s.8844275-.6468655.769-1.187l-2.741-12.791h5.063l4.764 13.336c.1413142.3961494.5154076.6615319.936.664.114476-.0001712.2280914-.0197834.336-.058.5199068-.1859203.7907407-.758029.605-1.278l-4.522-12.664h5l7.712 13.5c.2805182.4650043.8808858.6211324 1.3523981.3516968.4715124-.2694357.6418041-.8659405.3836019-1.3436968l-7.144-12.508h6.277c.5522847 0 1-.4477153 1-1s-.4477153-1-1-1zm-3-23v5h-17v-3.353c.7884165.0041083 1.5467596-.3023183 2.111-.853.4879764-.479594.7944067-1.1136607.867-1.794h13.022c.5522847 0 1 .4477153 1 1zm-53.831-1.863 6.674-9.843c.08094744-.1191876.1866939-.2194762.31-.294l11.33-6.855c.3181693-.19242239.7168307-.19242239 1.035 0l11.33 6.855c.1225406.074743.2278533.1746027.309.293l6.674 9.844c.2615917.3862108.2098365.9041837-.123 1.231-.2199381.2177515-.5260642.3251795-.8338438.2926184s-.5846502-.2016662-.7541562-.4606184l-5.218-8c-.2326062-.3612458-.5402387-.6681963-.902-.9l-9.389-5.98c-.9833789-.62394565-2.2386211-.62394565-3.222 0l-9.389 5.98c-.3602048.2297165-.6670766.5338606-.9.892l-5.217 8c-.16911875.2594037-.4456897.4292557-.75353398.4627717-.30784428.0335161-.61448689-.0728393-.83546602-.2897717-.33109156-.3262334-.38356621-.8417444-.125-1.228zm2.831 21.863h2c.55228475 0 1-.4477153 1-1s-.44771525-1-1-1h-2v-2h2c.55228475 0 1-.4477153 1-1s-.44771525-1-1-1h-2v-2h2c.55228475 0 1-.4477153 1-1s-.44771525-1-1-1h-2v-3h5c.5522847 0 1-.4477153 1-1s-.4477153-1-1-1h-5v-3h5c.5522847 0 1-.4477153 1-1s-.4477153-1-1-1h-4.256l1.956-3h2.3c.5522847 0 1-.4477153 1-1s-.4477153-1-1-1h-1l1.77-2.715c.0775365-.1201894.1798106-.2224635.3-.3l9.389-5.98c.3276257-.20855701.7463743-.20855701 1.074 0l9.388 5.98c.1203063.0773916.2226084.1796937.3.3l1.779 2.715h-1c-.5522847 0-1 .4477153-1 1s.4477153 1 1 1h2.3l1.956 3h-4.256c-.5522847 0-1 .4477153-1 1s.4477153 1 1 1h5v3h-5c-.5522847 0-1 .4477153-1 1s.4477153 1 1 1h5v3h-2c-.5522847 0-1 .4477153-1 1s.4477153 1 1 1h2v2h-2c-.5522847 0-1 .4477153-1 1s.4477153 1 1 1h2v2h-2c-.5522847 0-1 .4477153-1 1s.4477153 1 1 1h2v3h-5v-12c0-1.1045695-.8954305-2-2-2h-18c-1.1045695 0-2 .8954305-2 2v12h-5zm23 3v-12h2v12zm-16-12h2v12h-2zm4 12v-12h10v12zm23 0v-16h17v16z" fill="#000" fill-rule="nonzero"/></g></g></svg>