<svg height="512" viewBox="0 0 42 60" width="512" xmlns="http://www.w3.org/2000/svg"><g id="Page-1" fill="none" fill-rule="evenodd"><g id="007---Farmer-Female" fill-rule="nonzero"><path id="Shape" d="m34 23.03c0 1.6568542-1.3431458 3-3 3-.1882886.0003363-.3760566-.0197817-.56-.06-.6283074 1.6083776-1.6911756 3.0105328-3.07 4.05-1.0229373.8266121-2.1408364 1.5282365-3.33 2.09-.9447196.4993615-1.9769213.8117383-3.04.92-1.0630787-.1082617-2.0952804-.4206385-3.04-.92-1.1891636-.5617635-2.3070627-1.2633879-3.33-2.09-1.3788244-1.0394672-2.4416926-2.4416224-3.07-4.05-.1839434.0402183-.3717114.0603363-.56.06-1.65685425 0-3-1.3431458-3-3s1.34314575-3 3-3v-3.94l-.01-.1c4.37-.26 10.01-1.31 10.01-4.99 0 3.68 5.64 4.73 10.01 4.99l-.01.1v3.94c1.6568542 0 3 1.3431458 3 3z" fill="#ffe0b2"/><path id="Shape" d="m31 20.03v-3.94l.01-.1c-4.37-.26-10.01-1.31-10.01-4.99-.0133279 1.1156343-.5741141 2.1534626-1.5 2.776 1.971 1.491 5.534 2.037 8.51 2.214l-.01.1v3.94c1.6568542 0 3 1.3431458 3 3s-1.3431458 3-3 3c-.1882886.0003363-.3760566-.0197817-.56-.06-.6283074 1.6083776-1.6911756 3.0105328-3.07 4.05-1.0229373.8266121-2.1408364 1.5282365-3.33 2.09-.4997253.236989-1.0141107.4417411-1.54.613.4826537.1738681.9878472.2772643 1.5.307 1.0630787-.1082617 2.0952804-.4206385 3.04-.92 1.1891636-.5617635 2.3070627-1.2633879 3.33-2.09 1.3788244-1.0394672 2.4416926-2.4416224 3.07-4.05.1839434.0402183.3717114.0603363.56.06 1.6568542 0 3-1.3431458 3-3s-1.3431458-3-3-3z" fill="#dfc49c"/><path id="Shape" d="m26 39s-1 4-5 4-5-4-5-4c1.7540588-1.8303496 2.488025-4.4104655 1.96-6.89.9447196.4993615 1.9769213.8117383 3.04.92 1.0630787-.1082617 2.0952804-.4206385 3.04-.92-.528025 2.4795345.2059412 5.0596504 1.96 6.89z" fill="#dfc49c"/><path id="Shape" d="m37.88 33.76c.1547296.2949335.1524679.6475444-.0060323.9404688-.1585002.2929245-.452434.4877128-.7839677.5195312-2.68.17-7.89-1.1-9.72-5.2 1.3788244-1.0394672 2.4416926-2.4416224 3.07-4.05.1839434.0402183.3717114.0603363.56.06 1.6568542 0 2.9999999-1.3431458 2.9999999-3s-1.3431457-3-2.9999999-3v-3.94l.01-.1c1.53.09 2.89.08 3.81.06.7671264-.0122761 1.4754414.4096165 1.83 1.09.2901293.5543334.5472442 1.1253288.77 1.71 2.46 6.58-1.14 11.59.46 14.91z" fill="#ffdc00"/><path id="Shape" d="m37.42 18.85c-.2227558-.5846712-.4798707-1.1556666-.77-1.71-.3545586-.6803835-1.0628736-1.1022761-1.83-1.09-.92.02-2.28.03-3.81-.06l-.01.072c.3 0 .575-.007.817-.012.7671264-.0122761 1.4754414.4096165 1.83 1.09.2901293.5543334.5472442 1.1253288.77 1.71 2.46 6.58-1.14 11.59.46 14.91.2242076.4387966.1015892.9751993-.291 1.273.8227811.1626414 1.6621788.2254283 2.5.187.3315337-.0318184.6254675-.2266067.7839677-.5195312.1585002-.2929244.1607619-.6455353.0060323-.9404688-1.596-3.32 2.004-8.33-.456-14.91z" fill="#fec108"/><path id="Shape" d="m14.63 30.02c-1.83 4.1-7.04 5.37-9.72 5.2-.33153375-.0318184-.62546754-.2266067-.78396774-.5195312-.15850021-.2929244-.16076189-.6455353-.00603226-.9404688 1.6-3.32-2-8.33.46-14.91.22275576-.5846712.47987066-1.1556666.77-1.71.35455863-.6803835 1.06287365-1.1022761 1.83-1.09.92.02 2.28.03 3.81-.06l.01.1v3.94c-1.65685425 0-3 1.3431458-3 3s1.34314575 3 3 3c.1882886.0003363.3760566-.0197817.56-.06.6283074 1.6083776 1.6911756 3.0105328 3.07 4.05z" fill="#ffdc00"/><path id="Shape" d="m11.56 25.97c-.1839434.0402183-.3717114.0603363-.56.06-1.65685425 0-3-1.3431458-3-3s1.34314575-3 3-3v-3.94l-.01-.1c-1.127.066-2.158.078-2.993.072v.028 3.94c-1.65685421 0-2.99999991 1.3431458-2.99999991 3s1.3431457 3 2.99999991 3c.18828856.0003363.37605657-.0197817.56-.06.62830736 1.6083776 1.6911756 3.0105328 3.07 4.05-1.354 3.034-4.558 4.516-7.219 5.013.14520382.1091409.318813.1740708.5.187 2.68.17 7.89-1.1 9.72-5.2-1.3780877-1.0397356-2.440244-2.441865-3.068-4.05z" fill="#fec108"/><path id="Shape" d="m36 46v11c-.0032948 1.1032019-.8967981 1.9967052-2 2h-3v-19.71c2.9672665.8846678 5.0007944 3.6136623 5 6.71z" fill="#ef314c"/><path id="Shape" d="m31 39.29v1.829c1.2815366 1.301386 1.9998968 3.054544 2 4.881v11c-.0032948 1.1032019-.8967981 1.9967052-2 2h3c1.1032019-.0032948 1.9967052-.8967981 2-2v-11c.0007944-3.0963377-2.0327335-5.8253322-5-6.71z" fill="#bb193b"/><path id="Shape" d="m31 39.29v19.71h-4v-6c0-.5522847-.4477153-1-1-1h-10c-.5522847 0-1 .4477153-1 1v6h-4v-19.71c.6488458-.194187 1.3227218-.291899 2-.29h3v7c.0032948 1.1032019.8967981 1.9967052 2 2h6c1.1032019-.0032948 1.9967052-.8967981 2-2v-7h3c.6772782-.001899 1.3511542.095813 2 .29z" fill="#02a9f4"/><path id="Shape" d="m29 39-3-.0000272c.6772782-.0018718 1.3511542.0958402 2 .2900272v19.71h3v-19.71c-.6488458-.194187-1.3227218-.291899-2-.29z" fill="#0377bc"/><path id="Shape" d="m11 39.29v19.71h-3c-1.10320187-.0032948-1.9967052-.8967981-2-2v-11c-.00079443-3.0963377 2.0327335-5.8253322 5-6.71z" fill="#ef314c"/><path id="Shape" d="m26 39v7c-.0032948 1.1032019-.8967981 1.9967052-2 2h-6c-1.1032019-.0032948-1.9967052-.8967981-2-2v-7s1 4 5 4 5-4 5-4z" fill="#ef314c"/><path id="Shape" d="m23 42.605v3.395c-.0032948 1.1032019-.8967981 1.9967052-2 2h3c1.1032019-.0032948 1.9967052-.8967981 2-2v-7c-.444273 1.5723314-1.5345442 2.8824739-3 3.605z" fill="#bb193b"/><path id="Shape" d="m21 11c0 3.68-5.64 4.73-10.01 4.99-1.53.09-2.89.08-3.81.06-.76712635-.0122761-1.47544137.4096165-1.83 1.09-.29012934.5543334-.54724424 1.1253288-.77 1.71-2.26-.81-3.58-1.79-3.58-2.85 0-1.7 3.4-3.21 8.61-4.11 3.7651146-.6145222 7.5751303-.912232 11.39-.89z" fill="#ff5722"/><path id="Shape" d="m41 16c0 1.06-1.32 2.04-3.58 2.85-.2227558-.5846712-.4798707-1.1556666-.77-1.71-.3545586-.6803835-1.0628736-1.1022761-1.83-1.09-.92.02-2.28.03-3.81-.06-4.37-.26-10.01-1.31-10.01-4.99 3.8148697-.022232 7.6248854.2754778 11.39.89 5.21.9 8.61 2.41 8.61 4.11z" fill="#ff5722"/><path id="Shape" d="m32.39 11.89c-3.7651146-.6145222-7.5751303-.912232-11.39-.89-3.8148697-.022232-7.6248854.2754778-11.39.89l4.99-9.16c.2666787-.47846935.7128587-.83109547 1.24-.98 1.6829113-.45981508 3.4158232-.71169182 5.16-.75 1.7441768.03830818 3.4770887.29018492 5.16.75.5271413.14890453.9733213.50153065 1.24.98z" fill="#ff9801"/><path id="Shape" d="m27 53v6h-12v-6c0-.5522847.4477153-1 1-1h10c.5522847 0 1 .4477153 1 1z" fill="#00bcd4"/><path id="Shape" d="m26 52h-3c.5522847 0 1 .4477153 1 1v6h3v-6c0-.5522847-.4477153-1-1-1z" fill="#00838f"/><path id="Shape" d="m3.333 19.433c-.79402995 3.0004598-.84243529 6.1495531-.141 9.173.33 1.985.591 3.553.034 4.707-.30632389.6069063-.28868248 1.3268259.047 1.918.32644891.5716604.91722762.9421169 1.574.987.179.011.368.017.564.017 2.853 0 7.309-1.247 9.537-4.726.6629236.4613657 1.356532.8769962 2.076 1.244.3117218 1.8792618-.2238732 3.8001551-1.463 5.247h-2.561c-4.41622192.0049599-7.99504012 3.5837781-8 8v11c0 1.6568542 1.34314575 3 3 3h26c1.6568542 0 3-1.3431458 3-3v-11c-.0049599-4.4162219-3.5837781-7.9950401-8-8h-2.561c-1.2391268-1.4468449-1.7747218-3.3677382-1.463-5.247.719468-.3670038 1.4130764-.7826343 2.076-1.244 2.228 3.479 6.682 4.726 9.542 4.726.2 0 .386-.006.566-.017.6543408-.0468035 1.2421678-.4170557 1.567-.987.3340365-.5868455.3539088-1.3014986.053-1.906-.563-1.166-.3-2.734.028-4.719.7005815-3.0235844.6518349-6.1725495-.142-9.173 2.21-.947 3.334-2.099 3.334-3.433 0-2.432-3.789-4.082-8.971-5.026l-4.758-8.735c-.3995602-.71460105-1.0687385-1.23935498-1.858-1.457-1.7642113-.48753485-3.5829383-.75028093-5.413-.782-1.8370038.03225861-3.6625272.29703174-5.433.788-.785676.22175085-1.4500173.74854293-1.845 1.463l-4.751 8.723c-5.182.944-8.971 2.594-8.971 5.026 0 1.334 1.124 2.486 3.333 3.433zm1.688 14.767c.839-1.738.517-3.675.144-5.918-.511-3.065-1.089-6.538 1.068-10.669.18849302-.3342118.53751664-.5460513.921-.559.828.022 1.8.024 2.846-.011v2.117c-1.93236137.4984317-3.20173405 2.3448911-2.97505423 4.3275839.22667982 1.9826929 1.8800574 3.4949964 3.87505423 3.5444161.602628 1.2295543 1.444371 2.3266079 2.476 3.227-1.933 3.257-6.417 4.087-8.355 3.941zm15.979-20.5c.1075939.1398364.2231168.2733889.346.4 1.854 1.812 5.368 2.551 8.654 2.824v3.109c0 .5522847.4477153 1 1 1 1.1045695 0 2 .8954305 2 2s-.8954305 2-2 2c-.1148606.0014648-.2295385-.0096006-.342-.033-.5012807-.1117514-1.0057133.1743964-1.167.662-1.234 3.729-6.949 6.374-8.491 6.374s-7.257-2.645-8.491-6.374c-.1612867-.4876036-.6657193-.7737514-1.167-.662-.1123507.0244074-.2270297.0364788-.342.036-1.1045695 0-2-.8954305-2-2s.8954305-2 2-2c.5522847 0 1-.4477153 1-1v-3.112c3.284-.273 6.8-1.012 8.654-2.818.1230631-.1285505.2385893-.2641102.346-.406zm-4 28.778c2.2805445 2.0294425 5.7194555 2.0294425 8 0v3.522c0 .5522847-.4477153 1-1 1h-6c-.5522847 0-1-.4477153-1-1zm-10 14.522v-11c.00290977-2.1406804 1.14611355-4.1176608 3-5.188v17.188h-2c-.55228475 0-1-.4477153-1-1zm9 1v-5h10v5zm19-12v11c0 .5522847-.4477153 1-1 1h-2v-17.188c1.8538865 1.0703392 2.9970902 3.0473196 3 5.188zm-5-5.91v17.91h-2v-5c0-1.1045695-.8954305-2-2-2h-10c-1.1045695 0-2 .8954305-2 2v5h-2v-17.91c.3302334-.0578863.6647376-.0879917 1-.09h2v6c0 1.6568542 1.3431458 3 3 3h6c1.6568542 0 3-1.3431458 3-3v-6h2c.3352624.0020083.6697666.0321137 1 .09zm-5.138-.856c-.5627148 1.6536689-2.1157119 2.7656584-3.8625 2.7656584s-3.2997852-1.1119895-3.8625-2.7656584c1.32704-1.5596214 2.0179072-3.5618865 1.935-5.608.6186498.2314818 1.2685737.3686805 1.928.407.6593748-.0379985 1.3092971-.1748597 1.928-.406-.0829302 2.0456409.6075588 4.0474879 1.934 5.607zm11.973-10.957c-.373 2.243-.7 4.18.191 5.945-1.989.129-6.47-.708-8.405-3.963 1.0324745-.9003285 1.8752135-1.9973509 2.479-3.227 1.9949968-.0494197 3.6483744-1.5617232 3.8750542-3.5444161.2266798-1.9826928-1.0426928-3.8291522-2.9750542-4.3275839v-2.122c1.042.035 2.017.032 2.847.011.3810182.013277.7279929.2228996.917.554 2.16 4.136 1.582 7.609 1.071 10.674zm3.165-12.277c0 .256-.456.868-2.035 1.558-.1333333-.2926667-.277-.588-.431-.886-.5264322-1.0187597-1.5875662-1.6482985-2.734-1.622-2.191.055-9.564.052-12.054-2.376-.196952-.191321-.3617371-.4131732-.488-.657 11.481.174 17.742 2.673 17.742 3.983zm-24.529-12.779c.1336993-.24182136.3570943-.42139936.622-.5 1.5987611-.44609415 3.2474908-.68834687 4.907-.721 1.6527604.03121921 3.2950119.27043425 4.888.712.2690715.07639915.4969906.25614612.634.5l4.019 7.379c-3.1644591-.4004415-6.3513123-.59784536-9.541-.591-3.1896022-.00817205-6.3764551.1878957-9.541.587zm4.276 8.8c-.1262629.2438268-.291048.465679-.488.657-2.489 2.422-9.859 2.43-12.053 2.372-1.14981047-.0252213-2.21381694.6058901-2.743 1.627-.15466667.2973333-.29733333.5906667-.428.88-1.579-.69-2.035-1.301-2.035-1.557 0-1.31 6.261-3.809 17.747-3.983z" fill="#000"/></g></g></svg>