<svg height="36" viewBox="0 0 60 36" width="60" xmlns="http://www.w3.org/2000/svg"><g id="Page-1" fill="none" fill-rule="evenodd"><g id="008---Farm-Warehouse" fill-rule="nonzero"><path id="Rectangle-path" d="m3 28h16v7h-16z" fill="#008a00"/><path id="Rectangle-path" d="m16 28h3v7h-3z" fill="#007900"/><path id="Rectangle-path" d="m41 28h16v7h-16z" fill="#008a00"/><path id="Rectangle-path" d="m54 28h3v7h-3z" fill="#007900"/><path id="Shape" d="m57 12.01v15.99h-16v-14h-22v14h-16v-15.99l26.24-10.85c.4848969-.21004797 1.0351031-.21004797 1.52 0z" fill="#60a917"/><path id="Rectangle-path" d="m16 14h3v14h-3z" fill="#549414"/><path id="Shape" d="m30.76 1.16c-.4848969-.21004797-1.0351031-.21004797-1.52 0l-.74.306 25.5 10.544v15.99h3v-15.99z" fill="#549414"/><path id="Rectangle-path" d="m19 22h22v13h-22z" fill="#37474f"/><path id="Rectangle-path" d="m19 14h22v8h-22z" fill="#7f8e94"/><path id="Rectangle-path" d="m38 14h3v8h-3z" fill="#545c60"/><g fill="#000"><path id="Shape" d="m58 13.508.617.256c.3301134.1368327.7081502.087158.9917075-.1303123.2835573-.2174702.4295561-.569697.383-.924-.0465561-.3543029-.2785941-.656855-.6087075-.7936877l-28.236-11.685c-.7359595-.29632036-1.5580405-.29632036-2.294 0l-28.236 11.685c-.51031111.2115251-.75252506.7966889-.541 1.307s.79668889.7525251 1.307.541l.617-.256v20.492h-1c-.55228475 0-1 .4477153-1 1s.44771525 1 1 1h58c.5522847 0 1-.4477153 1-1s-.4477153-1-1-1h-1zm-52-1.655v12.147c0 .5522847.44771525 1 1 1s1-.4477153 1-1v-12.975l2-.827v13.802c0 .5522847.4477153 1 1 1s1-.4477153 1-1v-14.63l2-.828v1.458c0 .5522847.4477153 1 1 1s1-.4477153 1-1v-2.285l3-1.242v3.527c0 .5522847.4477153 1 1 1s1-.4477153 1-1v-4.354l3-1.246v5.6c0 .5522847.4477153 1 1 1s1-.4477153 1-1v-6.424l3-1.241v7.665c0 .5522847.4477153 1 1 1s1-.4477153 1-1v-7.665l3 1.241v6.424c0 .5522847.4477153 1 1 1s1-.4477153 1-1v-5.6l3 1.242v4.358c0 .5522847.4477153 1 1 1s1-.4477153 1-1v-3.527l3 1.242v2.285c0 .5522847.4477153 1 1 1s1-.4477153 1-1v-1.458l2 .828v14.63c0 .5522847.4477153 1 1 1s1-.4477153 1-1v-13.8l2 .827v12.973c0 .5522847.4477153 1 1 1s1-.4477153 1-1v-12.147l2 .828v14.319h-14v-12h1c.5522847 0 1-.4477153 1-1s-.4477153-1-1-1h-26c-.5522847 0-1 .4477153-1 1s.4477153 1 1 1h1v12h-14v-14.319zm4 17.147v5h-2v-5zm2 0h2v5h-2zm4 0h2v5h-2zm4-14h20v6h-20zm22 14h2v5h-2zm4 0h2v5h-2zm4 0h2v5h-2zm-46 0h2v5h-2zm16 5v-11h20v11zm34 0v-5h2v5z"/><path id="Shape" d="m15 25c.5522847 0 1-.4477153 1-1v-6c0-.5522847-.4477153-1-1-1s-1 .4477153-1 1v6c0 .5522847.4477153 1 1 1z"/><path id="Shape" d="m44 24c0 .5522847.4477153 1 1 1s1-.4477153 1-1v-6c0-.5522847-.4477153-1-1-1s-1 .4477153-1 1z"/></g><path id="Shape" d="m36 19h-12c-.5522847 0-1-.4477153-1-1s.4477153-1 1-1h12c.5522847 0 1 .4477153 1 1s-.4477153 1-1 1z" fill="#f5f5f5"/></g></g></svg>