<svg height="512" viewBox="0 0 60 44" width="512" xmlns="http://www.w3.org/2000/svg"><g id="Page-1" fill="none" fill-rule="evenodd"><g id="009---Pig" fill-rule="nonzero" transform="translate(-1)"><g fill="#ef314c"><path id="Shape" d="m19.0000045 14-.0000045 3.29c.0028696 3.1638278-1.3781491 6.170649-3.78 8.23"/><path id="Shape" d="m44 22c-.0435062 1.0371839-.2880333 2.0560466-.72 3"/><path id="Shape" d="m34 20c-.0592405 2.0056919.4728463 3.9844985 1.53 5.69"/></g><path id="Shape" d="m45.81 27.79c-.5997791.9404835-.886795 2.0465448-.82 3.16.01.07.01.14.02.2.1014438.8002688.2857669 1.5878309.55 2.35.1203286.3458337.0654625.7285458-.147181 1.0266442s-.5566517.4745559-.922819.4733558l-4 .0000061c.3661673.001194.7101755-.1752635.922819-.4733619s.2675096-.6808105.147181-1.0266442c-.2642331-.7621691-.4485562-1.5497312-.55-2.35-.01-.06-.01-.13-.02-.2-.066795-1.1134552.2202209-2.2195165.82-3.16.567441-.8870916 1.0591781-1.8203886 1.47-2.79h2.72c.45 0 .88-.01 1.29-.03-.4121833.9804048-.9073145 1.9238304-1.48 2.82z" fill="#bb193b"/><path id="Shape" d="m17.05 28.24c.03.56.09 1.26.2 2.01.1223678.9742006.3469384 1.9328151.67 2.86.15761.4312237.0949091.9122236-.16798 1.288633-.2628891.3764095-.6928963.6008779-1.15202.601367h-4c.4591237-.0004891.8891309-.2249575 1.15202-.601367.2628891-.3764094.32559-.8574093.16798-1.288633-.3230616-.9271849-.5476322-1.8857994-.67-2.86-.11-.75-.17-1.45-.2-2.01-.0446891-.7202099.3083603-1.4071211.92-1.79.4393549-.2782789.857196-.5891527 1.25-.93.95.29 1.94.53 2.97.74l-.01.05c-.07.05-.14.09-.21.14-.6116397.3828789-.9646891 1.0697901-.92 1.79z" fill="#bb193b"/><path id="Shape" d="m56 7s-2.11 2-2.13 4.01c.0182532.8274181-.3034123 1.6261604-.89 2.21-.1703191.1666177-.3661089.3050208-.58.41-.0277508.0204275-.0579951.0372299-.09.05-1.3130771.6856635-2.9309408.2927807-3.7833048-.9187396s-.6756215-2.86699676.4133048-3.8712604c.8643413-.78986846 1.9130091-1.35030405 3.05-1.63 1.3087173-.33622471 2.6688225-.42441108 4.01-.26z" fill="#ef314c"/><path id="Shape" d="m54 4.08c-.914975.88375452-1.6043076 1.97434045-2.01 3.18-1.1369909.27969595-2.1856587.84013154-3.05 1.63-.1654821.15281282-.3130927.32390695-.44.51-.85-.53-1.69-1.02-2.5-1.46v-.01c.04284-.75166865.3806527-1.45604404.94-1.96 2.72-2.57 7.06-1.89 7.06-1.89z" fill="#bb193b"/><path id="Shape" d="m59.97 18-.62 3.13c-.1056368.5136363-.5900978.8584329-1.11.79-.5227527-.0701505-1.0404781-.1736956-1.55-.31-.7 1.06-2.89 3.12-9.4 3.36-.41.02-.84.03-1.29.03h-2.72c-.4108219.9696114-.902559 1.9029084-1.47 2.79-.5997791.9404835-.886795 2.0465448-.82 3.16.01.07.01.14.02.2.1014438.8002688.2857669 1.5878309.55 2.35.1203286.3458337.0654625.7285458-.147181 1.0266442s-.5566517.4745559-.922819.4733558h-2.43c-.421919-2.0978734-.6926154-4.2233416-.81-6.36-.0107002-.5515345-.2202168-1.0806527-.59-1.49-.416795-.4542418-.7947847-.9426178-1.13-1.46-3.1501835.8840354-6.4081578 1.3249389-9.68 1.31-2.5715201.0072114-5.1374148-.2406688-7.66-.74-1.03-.21-2.02-.45-2.97-.74-.392804.3408473-.8106451.6517211-1.25.93-.6116397.3828789-.9646891 1.0697901-.92 1.79.03.56.09 1.26.2 2.01.1223678.9742006.3469384 1.9328151.67 2.86.15761.4312237.0949091.9122236-.16798 1.288633-.2628891.3764095-.6928963.6008779-1.15202.601367h-2.59c-.51452284-2.5934434-.84534492-5.2199702-.99-7.86-.02001001-.6818172-.2823736-1.3341807-.74-1.84-2.21142751-2.584464-3.38079308-5.9000432-3.28-9.3 0-8 8.95-14 20-14 5.12 0 11.71.73 21 5.93v.01c.81.44 1.65.93 2.5 1.46-.7246146 1.1226977-.6111795 2.5908988.2772884 3.5889676.8884678.9980689 2.3336552 1.2807614 3.5327116.6910324.0320049-.0127701.0622492-.0295725.09-.05.2138911-.1049792.4096809-.2433823.58-.41 1.0958161 1.2788477 2.4713393 2.288249 4.02 2.95.7264513.2734692 1.4717285.4940445 2.23.66.5203841.128627.8467889.6446995.74 1.17z" fill="#ef314c"/><path id="Shape" d="m43 7.93v.01c.81.44 1.65.93 2.5 1.46-.7246146 1.1226977-.6111795 2.5908988.2772884 3.5889676.8884678.9980689 2.3336552 1.2807614 3.5327116.6910324.0320049-.0127701.0622492-.0295725.09-.05.031-.015.057-.036.087-.052-.7033145-.4067306-1.2078287-1.0854321-1.3946193-1.8761219-.1867905-.7906898-.0393311-1.6234119.4076193-2.3018781-.85-.53-1.69-1.02-2.5-1.46v-.01c-9.29-5.2-15.88-5.93-21-5.93-.378 0-.747.024-1.12.038 4.836.198 10.927 1.306 19.12 5.892z" fill="#bb193b"/><path id="Shape" d="m43.28 25h2.72c.45 0 .88-.01 1.29-.03 6.51-.24 8.7-2.3 9.4-3.36.5095219.1363044 1.0272473.2398495 1.55.31.5199022.0684329 1.0043632-.2763637 1.11-.79l.62-3.13c.1067889-.5253005-.2196159-1.041373-.74-1.17-.7582715-.1659555-1.5035487-.3865308-2.23-.66-1.5486607-.661751-2.9241839-1.6711523-4.02-2.95-.1703191.1666177-.3661089.3050208-.58.41-.0277508.0204275-.0579951.0372299-.09.05-.4934031.2446974-1.0439969.3508069-1.593.307.9425993.9334523 2.0575946 1.674858 3.283 2.183.7264513.2734692 1.4717285.4940445 2.23.66.5203841.128627.8467889.6446995.74 1.17l-.62 3.13c-.1056368.5136363-.5900978.8584329-1.11.79-.5227527-.0701505-1.0404781-.1736956-1.55-.31-.7 1.06-2.89 3.12-9.4 3.36-.41.02-.84.03-1.29.03" fill="#bb193b"/><path id="Shape" d="m53 20c1.1319722.7380172 2.3790689 1.2821434 3.69 1.61" fill="#ef314c"/><path id="Shape" d="m60 34h-13.389c.021482-.286787-.0170018-.5749048-.113-.846-.2428619-.7056927-.4104594-1.4350772-.5-2.176 0-.05-.008-.1-.009-.1-.0529798-.9008635.1808806-1.7953444.668-2.555.4820314-.7660866.9116792-1.5639085 1.286-2.388 5.5-.312 8.013-1.942 9.139-3.2.394.083.744.141 1.026.179.0871597.0119317.1750275.0179455.263.018.9481745-.0069781 1.7638752-.6725167 1.961-1.6l.618-3.12c.2183024-1.0601782-.4464586-2.1016371-1.5-2.35-.7097504-.1541931-1.4072767-.3600753-2.087-.616-1.1478304-.4841123-2.1882385-1.1910868-3.061-2.08.3744938-.6493605.5701397-1.3863969.567-2.136.012-1.29 1.319-2.817 1.82-3.3.2761536-.26210927.3795058-.65829462.2665816-1.02190188-.1129241-.36360726-.4225295-.63154194-.7985816-.69109812-.8060354-.10494223-1.6209319-.12404922-2.431-.057.2862095-.41086245.6084857-.79538515.963-1.149.277411-.26209288.3814563-.65922963.2681913-1.02367521-.113265-.36444557-.4240887-.63264635-.8011913-.69132479-.2-.029-4.86-.723-7.9 2.154-.3666134.3441914-.6666278.75302457-.885 1.206-8.943-4.781-15.307-5.456-20.371-5.456-8.663 0-15.93 3.573-19.175 8.807-1.89042635-.57903685-3.07196478-2.45488579-2.77771081-4.40998427.29425396-1.95509849 1.97559519-3.40006698 3.95271081-3.39701573.55228473-.00000002.99999996-.44771527.99999996-1s-.44771523-.99999998-.99999996-1c-2.89882452-.00797828-5.38664207 2.06263783-5.90500668 4.91475027-.5183646 2.85211245 1.0817602 5.66570233 3.79800668 6.67824973-.58655872 1.3953725-.89009911 2.8933596-.893 4.407-.09530425 3.6462069 1.1649465 7.1982113 3.537 9.969.30086054.3344485.47248742.7652887.484 1.215.12484323 2.2853895.38496554 4.5613763.779 6.816h-6.8c-.55228475 0-1 .4477153-1 1s.44771525 1 1 1h58c.5522847 0 1-.4477153 1-1s-.4477153-1-1-1zm-7.132-22.995c.0284825.7047457-.3250465 1.3701448-.925 1.741l-.057.028h-.006c-.8824505.4651543-1.9740452.1791261-2.515-.659-.5722228-.7760844-.4577027-1.8605542.264-2.5 1.2032526-1.03043468 2.7216726-1.62016714 4.305-1.672-.6357071.90037126-1.005129 1.96150616-1.066 3.062zm-.929-5.978c-.2960925.44682212-.5431849.92424353-.737 1.424-1.0721731.34116958-2.0582256.90940322-2.891 1.666-.4-.23933333-.795-.46966667-1.185-.691.1117525-.27642479.2823739-.52519085.5-.729 1.2066007-1.02980591 2.7275176-1.61870716 4.313-1.67zm-36.981 28.973c.0739151-.4107379.0394478-.8336511-.1-1.227-.2945342-.8667577-.501239-1.7609148-.617-2.669-.114-.774-.167-1.47-.191-1.933-.0195984-.3536601.1557281-.6897345.457-.876.331-.21.638-.447.943-.684.293.083.595.155.895.23-.2221984.450643-.3228529.9515029-.292 1.453.038.7.111 1.429.209 2.093.1298873 1.0430425.3709239 2.069208.719 3.061.0484625.1279913.0296964.2717396-.05.383-.0750435.1082396-.1993182.1716911-.331.169zm20.954-6.183c.2138438.2377976.3355145.5442801.343.864.0975142 1.7830657.2978472 3.5590181.6 5.319h-17.896c.0746106-.414355.0401488-.8409923-.1-1.238-.2981694-.8620124-.5052977-1.7528654-.618-2.658-.114-.774-.167-1.47-.191-1.933-.0175652-.3436953.1488573-.6708278.437-.859 2.4280266.4547514 4.8927564.6850562 7.363.688 3.1185601.0081144 6.2251581-.385798 9.243-1.172.312.42.607.745.819.989zm4.088 6.183h-1.118c-.3171304-1.7827984-.5268417-3.5830429-.628-5.391-.0232141-.7876976-.3255259-1.541528-.853-2.127-1.6445431-1.7467172-2.5108319-4.0854441-2.401-6.482 0-.5522847-.4477153-1-1-1s-1 .4477153-1 1c-.0292231 1.7324938.3245344 3.4500615 1.036 5.03-2.6801107.6492355-5.4283786.9748915-8.186.97-2.9298026.0045944-5.8499397-.3360882-8.7-1.015 1.8412341-2.140711 2.8525963-4.8713889 2.85-7.695v-3.29c0-.5522847-.4477153-1-1-1s-1 .4477153-1 1v3.29c.0117615 3.3746602-1.7146604 6.5176624-4.569 8.318-.9156312.576472-1.4445451 1.6059378-1.38 2.686.038.7.111 1.429.209 2.1.1345955 1.0428897.3744867 2.0694631.716 3.064.0488197.1255631.0311538.2672665-.047.377-.0750646.1066839-.1986049.1686418-.329.165h-1.766c-.4114624-2.2776003-.6833028-4.5782247-.814-6.889-.0275588-.9173231-.37980005-1.7950913-.994-2.477-2.04298532-2.4040128-3.12124833-5.4805901-3.026-8.634 0-7.29 8.346-13 19-13 5 0 11.326.684 20.4 5.742.0380129.02834261.0781289.05374939.12.076.556.3 1.124.633 1.693.974-.392761 1.166589-.2071252 2.450446.5 3.458.7251828 1.0861616 1.9440021 1.7394487 3.25 1.742.6145888-.0019775 1.2208704-.142099 1.774-.41l.1-.052c1.0780787 1.1083185 2.3725544 1.9831023 3.803 2.57.7657573.2877096 1.5506652.5216114 2.349.7l-.616 3.123c-1.7149038-.2317264-3.3590821-.8328972-4.819-1.762-.2976022-.1979252-.6781899-.2220466-.9983992-.0632781s-.5313929.4763063-.554.833.1467969.698353.4443992.8962781c.7508803.4951983 1.5528213.9082381 2.392 1.232-1.156.826-3.378 1.75-7.6 1.906-.392.0233333-.8046667.035-1.238.035h-1.315c.1950241-.6493398.3009917-1.3221502.315-2 0-.5522847-.4477153-1-1-1s-1 .4477153-1 1c-.046961.9013698-.2634063 1.7858104-.638 2.607v.008c-.3893903.9194137-.8546645 1.8048061-1.391 2.647-.7202563 1.1161136-1.061792 2.4345675-.974 3.76.008.1.018.2.028.275.1267212.8935969.3229837 1.7759421.587 2.639-.0268402.0405056-.0724127.06461-.121.064zm2.612 0c.0216055-.2846666-.016194-.5707164-.111-.84-.2387797-.6976192-.4063009-1.4176255-.5-2.149l-.014-.139c-.0543311-.8993155.1819661-1.7922664.674-2.547.4716353-.7481467.8967725-1.5246149 1.273-2.325h1.758c-.22.411-.46.831-.732 1.263-.7134171 1.1184828-1.0521147 2.4350955-.967 3.759l.009.1c0 .065.012.129.018.167.1241829.8961789.3198059 1.780997.585 2.646-.0249309.0396612-.0681626.0640964-.115.065z" fill="#000"/><path id="Shape" d="m52 39c0-.5522847-.4477153-1-1-1h-40c-.5522847 0-1 .4477153-1 1s.4477153 1 1 1h40c.5522847 0 1-.4477153 1-1z" fill="#000"/><path id="Shape" d="m20 42c-.5522847 0-1 .4477153-1 1s.4477153 1 1 1h22c.5522847 0 1-.4477153 1-1s-.4477153-1-1-1z" fill="#000"/><path id="Shape" d="m18 8.009c-.4960171.00095144-.9177696-.36183678-.9909691-.85242387s.224279-.96069031.6989691-1.10457613c2.3652302-.70951578 4.8226719-1.06404522 7.292-1.052 1.3721517-.00666018 2.7436093.06311456 4.108.209.5492472.05964676.9461467.55325282.8865 1.1025-.0596468.54924718-.5532528.94614674-1.1025.8865-1.2926529-.13818444-2.5919973-.20428674-3.892-.198-2.2714181-.01183017-4.5320251.31337641-6.708.965-.0945863.02918208-.1930143.0440137-.292.044z" fill="#f5f5f5"/><circle id="Oval" cx="33" cy="7" fill="#f5f5f5" r="1"/></g></g></svg>