<svg height="512" viewBox="0 0 60 60" width="512" xmlns="http://www.w3.org/2000/svg"><g id="Page-1" fill="none" fill-rule="evenodd"><g id="010---Cow" fill-rule="nonzero"><path id="Shape" d="m29.02 30.28c-1.6311794.4747337-3.3211445.7171191-5.02.72-1.8453016.0383835-3.6858835-.2009596-5.46-.71-.5227545-.1565633-1.0312523-.3572861-1.52-.6.15-1.93 1.68-4.69 4.48-4.69 1.0366379-.0011456 2.0195616.4609753 2.68 1.26.4186898-.1723992.8672064-.2607434 1.32-.26 1.9329966 0 3.5 1.5670034 3.5 3.5 0 .12.01.45.02.78z" fill="#ff9801"/><path id="Shape" d="m33 26c.0137616.8371045.0839205 1.6723302.21 2.5" fill="#cfd8dc"/><path id="Shape" d="m18.54 30.29c-.9219357 2.2469312-3.1112852 3.713084-5.54 3.71-.5855948-.0010016-1.168079-.0851756-1.73-.25l-.23-2.32c-.024797-.2757052.0698761-.5488007.26-.75 1.0189132-1.2618824 1.7370713-2.7392362 2.1-4.32.8508501 1.4435277 2.1106075 2.6023653 3.62 3.33.4887477.2427139.9972455.4434367 1.52.6z" fill="#ef314c"/><path id="Shape" d="m16 29c-.706 1.73-2.672 4.326-4.511 4.8.493387.1292571 1.000975.1964428 1.511.2 2.4287148.003084 4.6180643-1.4630688 5.54-3.71-.5227545-.1565633-1.0312523-.3572861-1.52-.6z" fill="#bb193b"/><path id="Shape" d="m58.84 13.76-.4.97c-.3215986.7789081-1.0983278 1.2713705-1.94 1.23-2.27-.12-6.72-.54-9.46-2.04l-.04.08c-1.4843764 1.7187491-2.5156266 3.7812494-3 6-.6236752 3.3175569-.9483111 6.6843987-.97 10.06-.0324466 1.0810694-.9184439 1.9404868-2 1.94h-2.03v8.79c.0134203.0960737.0788263.1768694.17.21.8271088.2770722 1.540323.8181313 2.03 1.54.4978902.7234944.7630412 1.5817463.76 2.46h-6.96v-10.97c-.0083484-.606029-.1924673-1.1965991-.53-1.7-.6725678-1.1792632-1.1010657-2.4817608-1.26-3.83-1.3191503.7613839-2.7261941 1.3591256-4.19 1.78-.01-.33-.02-.66-.02-.78 0-1.9329966-1.5670034-3.5-3.5-3.5-.4527936-.0007434-.9013102.0876008-1.32.26-.6604384-.7990247-1.6433621-1.2611456-2.68-1.26-2.8 0-4.33 2.76-4.48 4.69-1.5093925-.7276347-2.7691499-1.8864723-3.62-3.33-.3629287 1.5807638-1.0810868 3.0581176-2.1 4.32-.1901239.2011993-.284797.4742948-.26.75l.23 2.32.72 7.09c.0029844.1002683.0725508.1862033.17.21.8244509.2817704 1.5408664.8129662 2.05 1.52.5137061.706063.7902942 1.556834.79 2.43h-7c.08405071-3.6325477-.54094208-7.2466365-1.84-10.64-.10915909-.2521054-.16041576-.5254743-.15-.8.01-1.16.05-4.35-.01-5.56-.2564436-4.3604118-.77403854-8.7015307-1.55-13h2.67c1.72259346.0013079 3.2512308-1.1038283 3.79-2.74l1.01-3.01c2.37.29 4.95.58 7.57.84l-1.91 1.53c-1.0008627.7939306-1.5830325 2.0024857-1.58 3.28-.0001858.4524053.0741423.9017523.22 1.33.6241963 1.8770318 2.4735233 3.0640998 4.44 2.85l4.26-.48c.0730029-.0085521.1465223-.0118939.22-.01.7506418.0021047 1.4357522.4278796 1.77 1.1.7120165 1.4130152 2.1577348 2.3059589 3.74 2.31.2312978-.0001126.4621544-.0201871.69-.06 1.7655962-.2905557 3.1494443-1.6744038 3.44-3.44l.16-.96c.1984053-1.2086814 1.2451505-2.094389 2.47-2.09 1.1133343-.00296 2.0911137-.7403686 2.4-1.81l1.26-4.42c2.2243573-1.23493887 4.0862125-3.03128433 5.4-5.21.358559-.62269838 1.0214518-1.00748096 1.74-1.01h1.52c.745118.00217659 1.4272474.41839116 1.77 1.08 1.7141079 2.86610333 3.9937262 5.35326897 6.7 7.31.73356.5484183.997784 1.5268727.64 2.37z" fill="#a0522d"/><path id="Shape" d="m58.2 11.39c-2.7062738-1.95673103-4.9858921-4.44389667-6.7-7.31-.3427526-.66160884-1.024882-1.07782341-1.77-1.08h-1.52c-.2555027.00533586-.5075234.06035923-.742.162.441592.17456391.8071688.49975723 1.032.918 1.7141079 2.86610333 3.9937262 5.35326897 6.7 7.31.73356.5484183.997784 1.5268727.64 2.37l-.4.97c-.205863.4852796-.598342.8673069-1.089 1.06.817.085 1.559.139 2.149.17.8416722.0413705 1.6184014-.4510919 1.94-1.23l.4-.97c.357784-.8431273.09356-1.8215817-.64-2.37z" fill="#783e22"/><path id="Shape" d="m45 13s-3 2-4 7c-.5567869 3.3236847-.8809078 6.6821791-.97 10.051-.0276663 1.0846027-.9150446 1.9493528-2 1.949-1.121138 0-2.03.908862-2.03 2.03v6.76c.0134203.0960737.0788263.1768694.17.21.8271088.2770722 1.540323.8181313 2.03 1.54.4978902.7234944.7630412 1.5817463.76 2.46h3c.0030412-.8782537-.2621098-1.7365056-.76-2.46-.489677-.7218687-1.2028912-1.2629278-2.03-1.54-.0911737-.0331306-.1565797-.1139263-.17-.21v-8.79h2.03c1.0849554.0003528 1.9723337-.8643973 2-1.949.0220066-3.3726048.3466421-6.7364302.97-10.051.4414328-1.8497604 1.227112-3.5998979 2.316-5.159" fill="#783e22"/><path id="Shape" d="m13.4 26.36c.364687-1.4258788.5659812-2.8886165.6-4.36" fill="#cfd8dc"/><path id="Shape" d="m11.92 9.25-1.01 3.01c-.5387692 1.6361717-2.06740654 2.7413079-3.79 2.74h-2.67c-.29-1.63-.58-3.06-.81-4.19-.13634124-.6379088.04910577-1.30210764.49618035-1.77712438.44707458-.47501673 1.0988258-.70034102 1.74381965-.60287562 1.7.25 3.77.54 6.04.82z" fill="#ff9801"/><path id="Shape" d="m41.07 9.22-1.26 4.42c-.3088863 1.0696314-1.2866657 1.80704-2.4 1.81-1.2248495-.004389-2.2715947.8813186-2.47 2.09l-.16.96c-.2905557 1.7655962-1.6744038 3.1494443-3.44 3.44-.2278456.0398129-.4587022.0598874-.69.06-1.5822652-.0040411-3.0279835-.8969848-3.74-2.31-.3342478-.6721204-1.0193582-1.0978953-1.77-1.1-.0734777-.0018939-.1469971.0014479-.22.01l-4.26.48c-1.9664767.2140998-3.8158037-.9729682-4.44-2.85-.1458577-.4282477-.2201858-.8775947-.22-1.33-.0030325-1.2775143.5791373-2.4860694 1.58-3.28l1.91-1.53c5.18.52 10.49.91 14.51.91 2.4702251.0220071 4.9046896-.5909132 7.07-1.78z" fill="#ff9801"/><path id="Shape" d="m47.04 13.92c-.8570224-.4211348-1.5677448-1.09005-2.04-1.92" fill="#cfd8dc"/><g fill="#000"><path id="Shape" d="m52 49c0-.5522847-.4477153-1-1-1h-44c-.55228475 0-1 .4477153-1 1s.44771525 1 1 1h44c.5522847 0 1-.4477153 1-1z"/><path id="Shape" d="m39 54c0-.5522847-.4477153-1-1-1h-24c-.5522847 0-1 .4477153-1 1s.4477153 1 1 1h24c.5522847 0 1-.4477153 1-1z"/><path id="Shape" d="m18 58c-.5522847 0-1 .4477153-1 1s.4477153 1 1 1h10c.5522847 0 1-.4477153 1-1s-.4477153-1-1-1z"/><path id="Shape" d="m0 45c0 .5522847.44771525 1 1 1h58c.5522847 0 1-.4477153 1-1s-.4477153-1-1-1h-16.143c-.2895516-1.6376346-1.3542583-3.0336415-2.857-3.746v-7.254h1.03c1.6274941.00971 2.9623826-1.2869118 3-2.914.0019928-3.3033131.3167305-6.5990184.94-9.843.4322756-1.8388456 1.2364542-3.5697185 2.363-5.086 2.9148791 1.1140743 5.9984291 1.7228032 9.118 1.8 1.2616849.0552627 2.424363-.6808873 2.914-1.845l.4-.969c.5267273-1.2665232.1273491-2.7289886-.97-3.552-1.372-1.034-4.744-3.784-6.414-6.975-.0536438-.10004564-.1130781-.19687678-.178-.29.9338984-.36480153 1.784303-.91484324 2.5-1.617.3639761-.3937337.3526366-1.00446605-.0257045-1.38441714-.3783411-.37995108-.9890198-.39388378-1.3842955-.03158286-1.1897608 1.04960176-2.7073512 1.65303219-4.293 1.707h-.79c-1.0738489.00589439-2.0637948.58158604-2.6 1.512-2.4454444 4.06868241-6.8632192 6.5374613-11.61 6.488-3.956 0-9.221-.382-14.361-.892-.0271505-.00448035-.0545241-.00748476-.082-.009-5.112-.509-10.093-1.144-13.53-1.655-.97168556-.14545766-1.95301572.19410424-2.627.909-.25790278.28376148-.45827488.61488486-.59.975-2.805 3.282-2.81 8.135-2.81 19.672 0 .5522847.44771525 1 1 1s1-.4477153 1-1c0-8.428 0-13.115 1.045-16.076.9979126 4.9911779 1.65112271 10.0451197 1.955 15.126.061 1.216.02 4.517.006 5.5-.00728565.4118097.0717436.8205817.232 1.2 1.12915716 2.9545186 1.72080505 6.0871706 1.747 9.25h-5.985c-.55228475 0-1 .4477153-1 1zm12.936-4.717-.528-5.326c.2.017.4.043.592.043.2840135-.0038146.5675341-.0248532.849-.063l.258.513c.2507784.4889357.8490836.6839257 1.3397978.4366453.4907141-.2472803.6899718-.8441778.4462022-1.3366453l-.076-.149c.4849471-.2137602.9439164-.4821632 1.368-.8l.108.108c.3923789.3789722 1.0160848.3735524 1.4018186-.0121814s.3911536-1.0094397.0121814-1.4018186l-.112-.112c.1754668-.2328038.335797-.4766392.48-.73 1.6134353.3812339 3.2672329.5649145 4.925.547 2.9437522-.0118106 5.8463933-.6919087 8.489-1.989.2189154 1.0121101.6041399 1.980916 1.14 2.867.2323787.3404602.3612314.7409108.371 1.153v9.969h-18.109c-.3199991-1.6467108-1.4228464-3.0339471-2.955-3.717zm-.886-8.943c.7267238-.8571056 1.3047234-1.8299025 1.71-2.878.9425343 1.0103077 2.0855766 1.8127534 3.356 2.356-1.1003809 1.5813896-3.0064079 2.3965947-4.91 2.1zm6.087-2.255c.363-1.43 1.495-3.085 3.363-3.085.7392744.0003024 1.4399026.3302686 1.911.9.2800377.3372101.7470387.4527442 1.152.285.2971955-.1224627.6155623-.1853206.937-.185 1.3807119 0 2.5 1.1192881 2.5 2.5v.014c-1.309244.320592-2.6520779.4837463-4 .486-1.9942379.0623958-3.9826072-.247916-5.863-.915zm21.375-18.049-.663 2.326c-.1859344.6412257-.7713737 1.083865-1.439 1.088-1.7138034-.0054913-3.1781464 1.2338615-3.456 2.925l-.161.963c-.2295518 1.3581005-1.3058379 2.4149134-2.6679029 2.6196326s-2.7014595-.4890155-3.3200971-1.7196326c-.5019974-1.0120307-1.5353105-1.6510176-2.665-1.648-.1108969-.0018954-.2217993.0034493-.332.016l-4.254.48c-1.4997861.1569596-2.9075227-.7482811-3.387-2.178-.1108393-.3245-.1672668-.6650925-.167-1.008-.004594-.9732727.437746-1.8948144 1.2-2.5l1.585-1.27c5.092.5 10.281.87 14.21.87 1.8819009.0117717 3.750601-.3147512 5.517-.964zm-33.78-1.613c1.394.207 3.046.434 4.851.666l-.623 1.858c-.40255941 1.2268719-1.5487747 2.0554564-2.84 2.053h-1.835c-.243-1.323-.476-2.477-.67-3.394-.06937655-.3166044.0227761-.6470053.246-.882.2230905-.23758307.54882074-.35014886.871-.301zm1.35 24.546c-.05281999-.123074-.07840453-.2561136-.075-.39.014-1 .056-4.353-.008-5.629-.22646634-4.0060331-.68154065-7.9958628-1.363-11.95h1.484c2.15330879.0043928 4.0652293-1.3764835 4.738-3.422l.751-2.237c1.395.169 2.853.337 4.347.5-1.2400788.9813545-1.9611077 2.4776-1.956 4.059-.0005443.5588358.0910159 1.113941.271 1.643.7778418 2.3216185 3.0652959 3.790164 5.5 3.531l4.26-.48h.108c.3725335.0037153.7114398.2162563.877.55.8767849 1.7549291 2.6722412 2.8614943 4.634 2.856.2858935.0000055.5712647-.0244167.853-.073 2.1882908-.3591633 3.9038101-2.0738779 4.264-4.262l.16-.961c.0558508-.3510063.235742-.6703398.507-.9.2733801-.2296899.6189369-.3557332.976-.356 1.558088-.0074788 2.9256518-1.0389499 3.361-2.535l1.15-4.03c2.2184187-1.31978501 4.0778005-3.1654292 5.414-5.374.1773838-.31472454.5107294-.50930355.872-.509h1.523c.3719156.00259034.7116675.21137215.882.542 1.0982091 1.95457732 2.5007854 3.72172218 4.155 5.235l-1.025 1.708c-.2844266.4735842-.1310842 1.0880734.3425 1.3725s1.0880734.1310842 1.3725-.3425l.826-1.377c.515.433.974.8 1.312 1.049.3676925.2738598.5020558.7626782.326 1.186l-.4.969c-.1608067.3877209-.5466301.6337532-.966.616-5.668-.287-9.752-1.592-10.658-3.4-.2468713-.4942948-.8477051-.6948712-1.342-.4479999-.4942948.2468712-.6948712.8477051-.448 1.3419999.3555174.6749535.8619899 1.2587658 1.48 1.706-1.207502 1.6828864-2.0753546 3.5850291-2.555 5.6-.6488862 3.3869192-.9836406 6.826521-1 10.275-.0172807.5397491-.4599745.9682766-1 .968h-1.032v-4.001c0-.5522847-.4477153-1-1-1s-1 .4477153-1 1v5.007 8.867c.0451578.4951582.3786029.9168682.85 1.075.9478769.3250887 1.6792541 1.0896426 1.962 2.051h-4.812v-9.969c-.0092643-.7983234-.2499992-1.5768039-.693-2.241-1.286-1.99-1.307-5.753-1.307-5.79 0-.5522847-.4477153-1-1-1s-1 .4477153-1 1c.0092756.6534852.052668 1.3060403.13 1.955-.7067796.3711247-1.4377695.6941902-2.188.967-.159937-1.2615582-.848011-2.3958767-1.8929452-3.1205983-1.0449342-.7247217-2.3484432-.9716801-3.5860548-.6794017-.8174998-.7233038-1.8714533-1.1224047-2.963-1.122-2.4413311.0904759-4.5374777 1.7642283-5.166 4.125-.7358794-.5257667-1.3670428-1.1844015-1.861-1.942.3216881-1.3720271.4983245-2.7740574.527-4.183 0-.5522847-.4477153-1-1-1s-1 .4477153-1 1c0 .052-.037 5.264-2.453 8.022-.3693215.4135433-.55039827.9618439-.5 1.514l.233 2.318v.024l.709 7.049c.043897.4952125.3779757.9169377.85 1.073.9446361.3141679 1.6858321 1.0553639 2 2h-4.853c-.02077441-3.4314958-.66595546-6.8305562-1.904-10.031z"/></g></g></g></svg>