<svg height="512" viewBox="0 0 60 60" width="512" xmlns="http://www.w3.org/2000/svg"><g id="Page-1" fill="none" fill-rule="evenodd"><g id="011---Carrots" fill-rule="nonzero"><path id="Shape" d="m17 23.01c0 5.24-2.7 14.87-4.96 22.02-.41-.02-.86-.03-1.37-.03-1.53568159-.0290328-3.06947508.1219972-4.57.45-2.29-7.18-5.1-17.09-5.1-22.44-.05215914-2.9915382 1.33539097-5.826158 3.73-7.62.69063267-.4920528 1.45755156-.867066 2.27-1.11 1.30720107-.3733257 2.69279893-.3733257 4 0 .8124484.242934 1.5793673.6179472 2.27 1.11 2.394609 1.793842 3.7821591 4.6284618 3.73 7.62z" fill="#ff9801"/><path id="Shape" d="m13 8.58c-.0882191 2.0375926-.78483 4.0020354-2 5.64v.06c-1.30720107-.3733257-2.69279893-.3733257-4 0v-.06c-1.21517003-1.6379646-1.91178093-3.6024074-2-5.64.01268014-1.0414708.21603633-2.07180884.6-3.04.63240279-1.54873089 1.53284547-2.9738676 2.66-4.21.18952447-.20851424.458224-.32739313.74-.32739313s.55047553.11887889.74.32739313c1.1271545 1.2361324 2.0275972 2.66126911 2.66 4.21.3839637.96819116.5873199 1.9985292.6 3.04z" fill="#60a917"/><path id="Shape" d="m7.5 14.174c-.2-.042-.4-.084-.6-.11.034.051.068.106.1.156v.06c.163-.046.333-.071.5-.106z" fill="#549414"/><path id="Shape" d="m12.4 5.54c-.6324028-1.54873089-1.5328455-2.9738676-2.66-4.21-.18952447-.20851424-.458224-.32739313-.74-.32739313s-.55047553.11887889-.74.32739313c-.223.25-.485.563-.76.918.78790688 1.00055261 1.42779281 2.10923918 1.9 3.292.38396367.96819116.58731986 1.9985292.6 3.04-.08135323 1.9748623-.74214161 3.8821063-1.9 5.484.29837124-.0400865.59895868-.0614616.9-.064.67635197.0011829 1.3493265.0953993 2 .28v-.06c1.21517-1.6379646 1.9117809-3.6024074 2-5.64-.0126801-1.0414708-.2160363-2.07180884-.6-3.04z" fill="#549414"/><path id="Shape" d="m7 14.22v.06c-.81244844.242934-1.57936733.6179472-2.27 1.11-.9525061-.644502-1.76535462-1.4743557-2.39-2.44-1.71-2.71-1.41-6.18-1.11-7.87.04579251-.27885004.2086804-.52479316.44755748-.67576348.23887709-.15097031.53092486-.19254653.80244252-.11423652 1.08295346.30021886 2.12933048.71944042 3.12 1.25-.38396367.96819116-.58731986 1.9985292-.6 3.04.08821907 2.0375926.78482997 4.0020354 2 5.64z" fill="#007900"/><path id="Shape" d="m15.66 12.95c-.6246454.9656443-1.4374939 1.795498-2.39 2.44-.6906327-.4920528-1.4575516-.867066-2.27-1.11v-.06c1.21517-1.6379646 1.9117809-3.6024074 2-5.64-.0126801-1.0414708-.2160363-2.07180884-.6-3.04.9906695-.53055958 2.0370465-.94978114 3.12-1.25.2715177-.07831001.5635654-.03673379.8024425.11423652.2388771.15097032.401765.39691344.4475575.67576348.3 1.69.6 5.16-1.11 7.87z" fill="#007900"/><path id="Shape" d="m38 23.01c0 5.28-2.73 15-5 22.16-.9919403-.1212821-1.9907054-.1780681-2.99-.17-1.0026257-.0083378-2.0047347.0484483-3 .17-2.27-7.16-5.01-16.88-5.01-22.16-.0521591-2.9915382 1.335391-5.826158 3.73-7.62.6906327-.4920528 1.4575516-.867066 2.27-1.11 1.3072011-.3733257 2.6927989-.3733257 4 0 .8124484.242934 1.5793673.6179472 2.27 1.11 2.394609 1.793842 3.7821591 4.6284618 3.73 7.62z" fill="#ff9801"/><path id="Shape" d="m34 8.58c-.0882191 2.0375926-.78483 4.0020354-2 5.64v.06c-1.3072011-.3733257-2.6927989-.3733257-4 0v-.06c-1.21517-1.6379646-1.9117809-3.6024074-2-5.64.0126801-1.0414708.2160363-2.07180884.6-3.04.6324028-1.54873089 1.5328455-2.9738676 2.66-4.21.1895245-.20851424.458224-.32739313.74-.32739313s.5504755.11887889.74.32739313c1.1271545 1.2361324 2.0275972 2.66126911 2.66 4.21.3839637.96819116.5873199 1.9985292.6 3.04z" fill="#60a917"/><path id="Shape" d="m28.5 14.174c-.2-.042-.4-.084-.6-.11.034.051.068.106.1.156v.06c.163-.046.333-.071.5-.106z" fill="#549414"/><path id="Shape" d="m33.4 5.54c-.6324028-1.54873089-1.5328455-2.9738676-2.66-4.21-.1895245-.20851424-.458224-.32739313-.74-.32739313s-.5504755.11887889-.74.32739313c-.223.25-.485.563-.76.918.7879069 1.00055261 1.4277928 2.10923918 1.9 3.292.3839637.96819116.5873199 1.9985292.6 3.04-.0813532 1.9748623-.7421416 3.8821063-1.9 5.484.2983712-.0400865.5989587-.0614616.9-.064.676352.0011829 1.3493265.0953993 2 .28v-.06c1.21517-1.6379646 1.9117809-3.6024074 2-5.64-.0126801-1.0414708-.2160363-2.07180884-.6-3.04z" fill="#549414"/><path id="Shape" d="m28 14.22v.06c-.8124484.242934-1.5793673.6179472-2.27 1.11-.9525061-.644502-1.7653546-1.4743557-2.39-2.44-1.71-2.71-1.41-6.18-1.11-7.87.0457925-.27885004.2086804-.52479316.4475575-.67576348.2388771-.15097031.5309248-.19254653.8024425-.11423652 1.0829535.30021886 2.1293305.71944042 3.12 1.25-.3839637.96819116-.5873199 1.9985292-.6 3.04.0882191 2.0375926.78483 4.0020354 2 5.64z" fill="#007900"/><path id="Shape" d="m36.66 12.95c-.6246454.9656443-1.4374939 1.795498-2.39 2.44-.6906327-.4920528-1.4575516-.867066-2.27-1.11v-.06c1.21517-1.6379646 1.9117809-3.6024074 2-5.64-.0126801-1.0414708-.2160363-2.07180884-.6-3.04.9906695-.53055958 2.0370465-.94978114 3.12-1.25.2715177-.07831001.5635654-.03673379.8024425.11423652.2388771.15097032.401765.39691344.4475575.67576348.3 1.69.6 5.16-1.11 7.87z" fill="#007900"/><path id="Shape" d="m59 23.01c0 5.35-2.81 15.26-5.09 22.44-1.5011321-.3241435-3.0344756-.4751292-4.57-.45-.51 0-.96.01-1.37.03-2.27-7.15-4.97-16.78-4.97-22.02-.0521591-2.9915382 1.335391-5.826158 3.73-7.62.6906327-.4920528 1.4575516-.867066 2.27-1.11 1.3072011-.3733257 2.6927989-.3733257 4 0 .8124484.242934 1.5793673.6179472 2.27 1.11 2.394609 1.793842 3.7821591 4.6284618 3.73 7.62z" fill="#ff9801"/><path id="Shape" d="m55 8.58c-.0882191 2.0375926-.78483 4.0020354-2 5.64v.06c-1.3072011-.3733257-2.6927989-.3733257-4 0v-.06c-1.21517-1.6379646-1.9117809-3.6024074-2-5.64.0126801-1.0414708.2160363-2.07180884.6-3.04.6324028-1.54873089 1.5328455-2.9738676 2.66-4.21.1895245-.20851424.458224-.32739313.74-.32739313s.5504755.11887889.74.32739313c1.1271545 1.2361324 2.0275972 2.66126911 2.66 4.21.3839637.96819116.5873199 1.9985292.6 3.04z" fill="#60a917"/><path id="Shape" d="m54.4 5.54c-.6324028-1.54873089-1.5328455-2.9738676-2.66-4.21-.1895245-.20851424-.458224-.32739313-.74-.32739313s-.5504755.11887889-.74.32739313c-.223.25-.485.563-.76.918.7879069 1.00055261 1.4277928 2.10923918 1.9 3.292.3839637.96819116.5873199 1.9985292.6 3.04-.0813532 1.9748623-.7421416 3.8821063-1.9 5.484.2983712-.0400865.5989587-.0614616.9-.064.676352.0011829 1.3493265.0953993 2 .28v-.06c1.21517-1.6379646 1.9117809-3.6024074 2-5.64-.0126801-1.0414708-.2160363-2.07180884-.6-3.04z" fill="#549414"/><path id="Shape" d="m49.5 14.174c-.2-.042-.4-.084-.6-.11.034.051.068.106.1.156v.06c.163-.046.333-.071.5-.106z" fill="#549414"/><path id="Shape" d="m49 14.22v.06c-.8124484.242934-1.5793673.6179472-2.27 1.11-.9525061-.644502-1.7653546-1.4743557-2.39-2.44-1.71-2.71-1.41-6.18-1.11-7.87.0457925-.27885004.2086804-.52479316.4475575-.67576348.2388771-.15097031.5309248-.19254653.8024425-.11423652 1.0829535.30021886 2.1293305.71944042 3.12 1.25-.3839637.96819116-.5873199 1.9985292-.6 3.04.0882191 2.0375926.78483 4.0020354 2 5.64z" fill="#007900"/><path id="Shape" d="m57.66 12.95c-.6246454.9656443-1.4374939 1.795498-2.39 2.44-.6906327-.4920528-1.4575516-.867066-2.27-1.11v-.06c1.21517-1.6379646 1.9117809-3.6024074 2-5.64-.0126801-1.0414708-.2160363-2.07180884-.6-3.04.9906695-.53055958 2.0370465-.94978114 3.12-1.25.2715177-.07831001.5635654-.03673379.8024425.11423652.2388771.15097032.401765.39691344.4475575.67576348.3 1.69.6 5.16-1.11 7.87z" fill="#007900"/><path id="Shape" d="m59 50v7c-.0032948 1.1032019-.8967981 1.9967052-2 2h-54c-1.10320187-.0032948-1.9967052-.8967981-2-2v-7c4.84 0 4.84-1 9.67-1s4.84 1 9.67 1 4.83-1 9.67-1 4.83 1 9.66 1 4.84-1 9.67-1 4.83 1 9.66 1z" fill="#624421"/><path id="Shape" d="m59 47.93v2.07c-4.83 0-4.83-1-9.66-1s-4.83 1-9.67 1-4.83-1-9.66-1-4.84 1-9.67 1-4.83-1-9.67-1-4.83 1-9.67 1v-2.06c.00353771-1.0571942.82504495-1.9311381 1.88-2 1.08399296-.083313 2.16029237-.2470977 3.22-.49 1.50052492-.3280028 3.03431841-.4790328 4.57-.45.51 0 .96.01 1.37.03 3.52.17 3.98.97 8.3.97 3.55 0 4.49-.54 6.67-.83.9952653-.1215517 1.9973743-.1783378 3-.17.9992946-.0080681 1.9980597.0487179 2.99.17 2.18.29 3.11.83 6.67.83 4.33 0 4.79-.8 8.3-.97.41-.02.86-.03 1.37-.03 1.5355244-.0251292 3.0688679.1258565 4.57.45 1.0566121.2414312 2.1294782.4052021 3.21.49 1.0536.0633247 1.8766238.9345041 1.88 1.99z" fill="#a0522d"/><path id="Shape" d="m57.12 45.94c-1.0805218-.0847979-2.1533879-.2485688-3.21-.49-1.5011321-.3241435-3.0344756-.4751292-4.57-.45-.51 0-.96.01-1.37.03l-.127.008c1.0318736.0532983 2.0576418.1910931 3.067.412 1.0566121.2414312 2.1294782.4052021 3.21.49 1.0536.0633247 1.8766238.9345041 1.88 1.99v1.9c.9950507.1239396 1.9973178.1807347 3 .17v-2.07c-.0033762-1.0554959-.8264-1.9266753-1.88-1.99z" fill="#783e22"/><g fill="#000"><path id="Shape" d="m58.5 13.484c1.883-2.984 1.59-6.656 1.25-8.57-.0928188-.55741878-.4184738-1.04899627-.8955593-1.35185014-.4770855-.30285386-1.0605133-.38836214-1.6044407-.23514986-.808534.22548736-1.5988007.51197574-2.364.857-.6402024-1.27800426-1.4490949-2.46426792-2.405-3.527-.388386-.40157122-.9234015-.62789819-1.4820626-.62695515-.558661.00094305-1.0929094.22907499-1.4799374.63195515-.9542299 1.06150069-1.7614564 2.24644194-2.4 3.523-.7656629-.34499839-1.5562344-.63181038-2.365-.858-.542603-.15328311-1.1247727-.0689485-1.6015733.23200806s-.8033775.7902228-.8984267 1.34599194c-.342 1.923-.635 5.6 1.245 8.574.4596581.7203798 1.0203807 1.3710201 1.665 1.932-1.2041041 1.1590553-2.1025007 2.5982076-2.615 4.189-.005.013-.008.027-.013.04-.3539186 1.0883629-.534787 2.2255391-.536 3.37 0 5.1 2.44 14.066 4.64 21.123-.7835635.0886077-1.561959.2181178-2.332.388-1.5213684.3440396-3.0784306.5048487-4.638.479-1.5562606.0257406-3.1100002-.1350721-4.628-.479-.242-.05-.489-.1-.744-.149 2.223-7.125 4.702-16.221 4.702-21.362-.0014374-1.1352317-.179224-2.2633498-.527-3.344-.009-.025-.014-.051-.025-.076-.511474-1.5862551-1.4066207-3.0217186-2.606-4.179.6422335-.5594832 1.2006218-1.2084664 1.658-1.927 1.883-2.984 1.59-6.656 1.25-8.57-.0928188-.55741878-.4184738-1.04899627-.8955593-1.35185014-.4770855-.30285386-1.0605133-.38836214-1.6044407-.23514986-.808534.22548736-1.5988007.51197574-2.364.857-.6402024-1.27800426-1.4490949-2.46426792-2.405-3.527-.388386-.40157122-.9234015-.62789819-1.4820626-.62695515-.558661.00094305-1.0929094.22907499-1.4799374.63195515-.9542299 1.06150069-1.7614564 2.24644194-2.4 3.523-.7656629-.34499839-1.5562344-.63181038-2.365-.858-.542603-.15328311-1.1247727-.0689485-1.6015733.23200806s-.8033775.7902228-.8984267 1.34599194c-.342 1.923-.635 5.6 1.245 8.574.4596581.7203798 1.0203807 1.3710201 1.665 1.932-1.2041041 1.1590553-2.1025007 2.5982076-2.615 4.189 0 .013-.008.027-.013.04-.3539186 1.0883629-.534787 2.2255391-.536 3.37 0 5.115 2.484 14.223 4.711 21.362-.254.0486667-.502.0983333-.744.149-1.5175959.3443241-3.0710524.5051423-4.627.479-1.5559505.0262099-3.1094151-.1346091-4.627-.479-.774209-.1694471-1.5565594-.2992826-2.344-.389 2.196-7.073 4.631-16.056 4.631-21.122-.0014374-1.1352317-.179224-2.2633498-.527-3.344-.009-.025-.014-.051-.025-.076-.511474-1.5862551-1.4066207-3.0217186-2.606-4.179.6422335-.5594832 1.2006218-1.2084664 1.658-1.927 1.883-2.984 1.59-6.656 1.25-8.57-.0928188-.55741878-.4184738-1.04899627-.8955593-1.35185014-.4770855-.30285386-1.0605133-.38836214-1.6044407-.23514986-.808534.22548736-1.5988007.51197574-2.364.857-.638653-1.27771607-1.4458543-2.46396563-2.4-3.527-.388549-.40315386-.9246522-.63049688-1.48456514-.62955331-.55991293.00094356-1.09524682.23009218-1.48243486.63455331-.95422989 1.06150069-1.7614564 2.24644194-2.4 3.523-.76566288-.34499839-1.5562344-.63181038-2.365-.858-.54260296-.15328311-1.12477268-.0689485-1.60157331.23200806s-.80337751.7902228-.89842669 1.34599194c-.342 1.923-.635 5.6 1.245 8.574.45965806.7203798 1.02038065 1.3710201 1.665 1.932-1.20410412 1.1590553-2.10250074 2.5982076-2.615 4.189-.005.013-.008.027-.013.04-.35391859 1.0883629-.53478697 2.2255391-.536 3.37 0 5.2 2.539 14.445 4.81 21.674-.66098223.1254487-1.32882052.2115998-2 .258-1.57436043.1111616-2.79825682 1.4147637-2.81 2.993v9.065c0 1.6568542 1.34314575 3 3 3h54c1.6568542 0 3-1.3431458 3-3v-9.069c-.0123371-1.5769137-1.2358883-2.8788698-2.809-2.989-.6685159-.0465512-1.3336832-.1327024-1.992-.258 2.266-7.247 4.8-16.5 4.8-21.674-.0014374-1.1352317-.179224-2.2633498-.527-3.344-.009-.025-.014-.051-.025-.076-.511474-1.5862551-1.4066207-3.0217186-2.606-4.179.6425876-.5594129 1.2013156-1.2083995 1.659-1.927zm-.72-8.229c.234 1.319.609 4.658-.974 7.166-.4302624.6682484-.9689899 1.2600376-1.594 1.751-.245-.145-.5-.279-.754-.4.9659654-1.5630154 1.4982073-3.3551036 1.542-5.192-.004736-.85787976-.1313344-1.71073553-.376-2.533.6979415-.32066007 1.4202037-.58548954 2.16-.792zm-6.78-3.255c1.122 1.248 3 3.763 3 6.581-.0589063 1.6346389-.5789184 3.2192889-1.5 4.571-.9899214-.2007842-2.0100786-.2007842-3 0-.9214086-1.3519232-1.4414433-2.9369889-1.5-4.572 0-2.818 1.884-5.333 3-6.58zm-6.787 3.253c.7414816.20962544 1.4653702.47711315 2.165.8-.2444921.82030297-.3717521 1.67105938-.378 2.527.042572 1.8362137.5734333 3.6279567 1.538 5.191-.2593333.1206667-.5116667.254-.757.4-.6270291-.4921568-1.1677533-1.0852637-1.6-1.755-1.574-2.503-1.199-5.842-.968-7.163zm3.561 35.747h1.226c.5522847 0 1-.4477153 1-1s-.4477153-1-1-1h-1.814c-.286-.993-.565-2-.834-3h2.648c.5522847 0 1-.4477153 1-1s-.4477153-1-1-1h-3.166c-.255-1.018-.493-2.021-.708-3h3.874c.5522847 0 1-.4477153 1-1s-.4477153-1-1-1h-4.29c-.2-1.056-.365-2.06-.486-3h4.776c.5522847 0 1-.4477153 1-1s-.4477153-1-1-1h-4.97c-.019-.345-.03-.676-.03-.99.0021336-.6765553.0799509-1.3507484.232-2.01h4.768c.5522847 0 1-.4477153 1-1s-.4477153-1-1-1h-4.05c1.0322772-2.4258077 3.4136883-4.0004855 6.05-4.0004855s5.0177228 1.5746778 6.05 4.0004855h-4.05c-.5522847 0-1 .4477153-1 1s.4477153 1 1 1h4.767c.1523856.6592136.2305384 1.3334071.233 2.01 0 .313-.011.645-.03.99h-4.97c-.5522847 0-1 .4477153-1 1s.4477153 1 1 1h4.773c-.12.94-.2816667 1.94-.485 3h-4.288c-.5522847 0-1 .4477153-1 1s.4477153 1 1 1h3.872c-.215.978-.452 1.981-.707 3h-3.165c-.5522847 0-1 .4477153-1 1s.4477153 1 1 1h2.648c-.268 1-.546 2-.831 3h-1.817c-.5522847 0-1 .4477153-1 1s.4477153 1 1 1h1.233c-.337 1.133-.677 2.236-1.01 3.3-1.2827699-.215818-2.5823029-.3162198-3.883-.3-.228 0-.434 0-.643.009-.304-.97-.614-1.976-.923-3.009zm-10.99-35.745c.234 1.319.609 4.658-.974 7.166-.4302624.6682484-.9689899 1.2600376-1.594 1.751-.245-.145-.5-.279-.754-.4.9645593-1.5634137 1.4954127-3.3554752 1.538-5.192-.004736-.85787976-.1313344-1.71073553-.376-2.533.6979415-.32066007 1.4202037-.58548954 2.16-.792zm-6.784-3.255c1.122 1.248 3 3.763 3 6.581-.0589063 1.6346389-.5789184 3.2192889-1.5 4.571-.9899214-.2007842-2.0100786-.2007842-3 0-.9214086-1.3519232-1.4414433-2.9369889-1.5-4.572 0-2.818 1.884-5.333 3-6.58zm-6.787 3.253c.7414816.20962544 1.4653702.47711315 2.165.8-.2444921.82030297-.3717521 1.67105938-.378 2.527.042572 1.8362137.5734333 3.6279567 1.538 5.191-.2593333.1206667-.5116667.254-.757.4-.6270291-.4921568-1.1677533-1.0852637-1.6-1.755-1.574-2.503-1.199-5.842-.968-7.163zm3.56 35.747h1.227c.5522847 0 1-.4477153 1-1s-.4477153-1-1-1h-1.813c-.285-.994-.565-2-.832-3h2.645c.5522847 0 1-.4477153 1-1s-.4477153-1-1-1h-3.163c-.256-1.018-.493-2.022-.708-3h3.871c.5522847 0 1-.4477153 1-1s-.4477153-1-1-1h-4.287c-.2-1.058-.366-2.061-.487-3h4.774c.5522847 0 1-.4477153 1-1s-.4477153-1-1-1h-4.97c-.019-.345-.03-.677-.03-.99.0021336-.6765553.0799509-1.3507484.232-2.01h4.768c.5522847 0 1-.4477153 1-1s-.4477153-1-1-1h-4.05c1.0967848-2.3711661 3.4386992-3.9195393 6.05-4 2.6113008.0804607 4.9532152 1.6288339 6.05 4h-4.05c-.5522847 0-1 .4477153-1 1s.4477153 1 1 1h4.767c.1523856.6592136.2305384 1.3334071.233 2.01 0 .314-.011.645-.03.99h-4.97c-.5522847 0-1 .4477153-1 1s.4477153 1 1 1h4.775c-.12.94-.282 1.943-.484 3h-4.291c-.5522847 0-1 .4477153-1 1s.4477153 1 1 1h3.876c-.214.979-.451 1.982-.707 3h-3.169c-.5522847 0-1 .4477153-1 1s.4477153 1 1 1h2.653c-.268 1-.546 2.006-.832 3h-1.821c-.5522847 0-1 .4477153-1 1s.4477153 1 1 1h1.236c-.317 1.061-.634 2.094-.946 3.09-.639-.055-1.378-.09-2.281-.09s-1.649.035-2.291.091c-.311-.991-.629-2.03-.945-3.091zm-16.1 3c-1.3013817-.0168794-2.60163784.0835264-3.885.3-.338-1.064-.678-2.167-1.017-3.3h1.229c.55228475 0 1-.4477153 1-1s-.44771525-1-1-1h-1.815c-.286-.995-.565-2-.833-3h2.648c.55228475 0 1-.4477153 1-1s-.44771525-1-1-1h-3.167c-.255-1.019-.493-2.022-.708-3h3.875c.55228475 0 1-.4477153 1-1s-.44771525-1-1-1h-4.291c-.2-1.058-.36133333-2.058-.484-3h4.775c.55228475 0 1-.4477153 1-1s-.44771525-1-1-1h-4.97c-.019-.345-.03-.677-.03-.99.00213363-.6765553.07995093-1.3507484.232-2.01h4.768c.55228475 0 1-.4477153 1-1s-.44771525-1-1-1h-4.05c1.09678478-2.3711661 3.43869925-3.9195393 6.05-4 2.6113008.0804607 4.9532152 1.6288339 6.05 4h-4.05c-.5522847 0-1 .4477153-1 1s.4477153 1 1 1h4.767c.1523856.6592136.2305384 1.3334071.233 2.01 0 .313-.011.645-.03.99h-4.97c-.5522847 0-1 .4477153-1 1s.4477153 1 1 1h4.774c-.121.939-.285 1.943-.487 3h-4.287c-.5522847 0-1 .4477153-1 1s.4477153 1 1 1h3.872c-.215.979-.453 1.982-.708 3h-3.164c-.5522847 0-1 .4477153-1 1s.4477153 1 1 1h2.647c-.267 1-.546 2.006-.831 3h-1.816c-.5522847 0-1 .4477153-1 1s.4477153 1 1 1h1.23c-.308 1.032-.616 2.039-.919 3.009-.211-.004-.411-.009-.641-.009zm5.111-38.745c.234 1.319.609 4.658-.974 7.166-.4302624.6682484-.9689899 1.2600376-1.594 1.751-.245-.145-.5-.279-.754-.4.9645593-1.5634137 1.4954127-3.3554752 1.538-5.192-.004736-.85787976-.1313344-1.71073553-.376-2.533.6979415-.32066007 1.4202037-.58548954 2.16-.792zm-6.784-3.255c1.122 1.248 3 3.763 3 6.581-.0589063 1.6346389-.5789184 3.2192889-1.5 4.571-.4942151-.0970019-.99637217-.1478872-1.5-.152-.50361011.0035343-1.00579001.054087-1.5.151-.92122971-1.3516382-1.44125617-2.9363321-1.5-4.571 0-2.818 1.884-5.333 3-6.58zm-6.787 3.253c.74148158.20962544 1.46537021.47711315 2.165.8-.24449214.82030297-.37175211 1.67105938-.378 2.527.04257204 1.8362137.5734333 3.6279567 1.538 5.191-.25933333.1206667-.51166667.254-.757.4-.62702911-.4921568-1.16775333-1.0852637-1.6-1.755-1.574-2.503-1.199-5.842-.968-7.163zm54.787 52.747h-54c-.55228475 0-1-.4477153-1-1v-6.017c1.36071382-.0348735 2.71478607-.2023323 4.043-.5 1.51742196-.3457359 3.07088855-.5078981 4.627-.483 1.5595694-.0258487 3.1166316.1349604 4.638.479 1.6508342.3720116 3.3399671.5469 5.032.521 1.6920329.0259 3.3811658-.1489884 5.032-.521 1.5213575-.3441059 3.0784277-.5049159 4.638-.479 1.5559309-.0257567 3.1093415.1350567 4.627.479 1.65116.3720903 3.3406332.5469791 5.033.521 1.6956724.0260084 3.3884593-.148876 5.043-.521 1.5175849-.3443909 3.0710495-.5052099 4.627-.479 1.5559309-.0257567 3.1093415.1350567 4.627.479 1.3247713.2980165 2.6755607.4654836 4.033.5v6.021c0 .5522847-.4477153 1-1 1zm1-10.069v1.051c-1.221024-.0365158-2.4356652-.1908995-3.627-.461-1.6511722-.3720159-3.3406365-.5469038-5.033-.521-1.6920329-.0259-3.3811658.1489884-5.032.521-1.5213684.3440396-3.0784306.5048487-4.638.479-1.5562606.0257406-3.1100002-.1350721-4.628-.479-1.6508205-.3720954-3.3399633-.5469848-5.032-.521-1.6956753-.0260741-3.3884699.1488111-5.043.521-1.5175959.3443241-3.0710524.5051423-4.627.479-1.5559505.0262099-3.1094151-.1346091-4.627-.479-1.6545407-.372124-3.3473276-.5470084-5.043-.521-1.69203294-.0259-3.38116577.1489884-5.032.521-1.19504087.2701824-2.41333942.4245628-3.638.461v-1.047c-.00054213-.535178.42036386-.9759173.955-1 1.03921667-.0763307 2.07136511-.2294149 3.088-.458 1.51766632-.3437185 3.07112993-.5038659 4.627-.477 1.5595694-.0258487 3.1166316.1349604 4.638.479 1.6508342.3720116 3.3399671.5469 5.032.521 1.6920329.0259 3.3811658-.1489884 5.032-.521 1.5213575-.3441059 3.0784277-.5049159 4.638-.479 1.5559309-.0257567 3.1093415.1350567 4.627.479 1.65116.3720903 3.3406332.5469791 5.033.521 1.6956724.0260084 3.3884593-.148876 5.043-.521 1.5175849-.3443909 3.0710495-.5052099 4.627-.479 1.5559309-.0257567 3.1093415.1350567 4.627.479 1.014627.2284941 2.0447742.3815789 3.082.458.5307488.0260318.9484497.4626193.951.994z"/><path id="Shape" d="m11 52h-2c-.55228475 0-1 .4477153-1 1s.44771525 1 1 1h2c.5522847 0 1-.4477153 1-1s-.4477153-1-1-1z"/><path id="Shape" d="m19 54h-2c-.5522847 0-1 .4477153-1 1s.4477153 1 1 1h2c.5522847 0 1-.4477153 1-1s-.4477153-1-1-1z"/><path id="Shape" d="m31 52h-2c-.5522847 0-1 .4477153-1 1s.4477153 1 1 1h2c.5522847 0 1-.4477153 1-1s-.4477153-1-1-1z"/><path id="Shape" d="m39 54h-2c-.5522847 0-1 .4477153-1 1s.4477153 1 1 1h2c.5522847 0 1-.4477153 1-1s-.4477153-1-1-1z"/><path id="Shape" d="m51 52h-2c-.5522847 0-1 .4477153-1 1s.4477153 1 1 1h2c.5522847 0 1-.4477153 1-1s-.4477153-1-1-1z"/></g></g></g></svg>