<svg height="512" viewBox="0 0 60 60" width="512" xmlns="http://www.w3.org/2000/svg"><g id="Page-1" fill="none" fill-rule="evenodd"><g id="015---Farm-Plane" fill-rule="nonzero" transform="translate(-1)"><path id="Rectangle-path" d="m9 5h44v13h-44z" fill="#ffdc00"/><path id="Rectangle-path" d="m50 5h3v13h-3z" fill="#fec108"/><path id="Shape" d="m37 16c.0029856 2.9125338-2.0861277 5.4065664-4.9540687 5.9142835s-5.6862995-1.1175363-6.6833815-3.8540833c-.997082-2.7365471.1151215-5.793931 2.6374502-7.2502002 1.8542252-1.07990681 4.1457748-1.07990681 6 0 1.8567699 1.0684285 3.0009001 3.0477738 3 5.19z" fill="#f44335"/><path id="Shape" d="m34 10.81c-.9088291-.5351884-1.9453097-.81503816-3-.81-.5061328.0009047-1.0101235.0657515-1.5.193.5264308.1343952 1.0313667.3420922 1.5.617 2.1076842 1.2166771 3.2699363 3.5874618 2.9408248 5.9987522-.3291116 2.4112905-2.0841831 4.3838963-4.4408248 4.9912478 2.9010048.7494476 5.9097386-.7587769 7.0451005-3.5315831 1.1353619-2.7728061.0484321-5.9580539-2.5451005-7.4584169z" fill="#c81e1e"/><circle id="Oval" cx="31" cy="16" fill="#9e9e9e" r="2"/><rect id="Rectangle-path" fill="#9e9e9e" height="5" rx="1" width="4" x="14" y="24"/><rect id="Rectangle-path" fill="#9e9e9e" height="5" rx="1" transform="matrix(-1 0 0 -1 92 53)" width="4" x="44" y="24"/><path id="Shape" d="m34 8v2.81c-1.8542252-1.07990681-4.1457748-1.07990681-6 0v-2.81c0-1.65685425 1.3431458-3 3-3s3 1.34314575 3 3z" fill="#c81e1e"/><path id="Shape" d="m2 44h58v13c0 1.1045695-.8954305 2-2 2h-54c-1.1045695 0-2-.8954305-2-2z" fill="#a0522d"/><path id="Shape" d="m57 44v13c0 1.1045695-.8954305 2-2 2h3c1.1045695 0 2-.8954305 2-2v-13z" fill="#783e22"/><g fill="#000"><path id="Shape" d="m60 6c.5522847 0 1-.44771525 1-1s-.4477153-1-1-1h-28v-3c0-.55228475-.4477153-1-1-1s-1 .44771525-1 1v3h-28c-.55228475 0-1 .44771525-1 1s.44771525 1 1 1h6v11h-6c-.55228475 0-1 .4477153-1 1s.44771525 1 1 1h13v4c-1.1045695 0-2 .8954305-2 2v3c0 1.1045695.8954305 2 2 2h2c1.1045695 0 2-.8954305 2-2v-3c-.0014112-.6763073-.3445184-1.3060895-.912-1.674l4.326-4.326h2.271c.8936591 1.8983776 2.5948588 3.2932524 4.6315525 3.7975765 2.0366937.5043242 4.192213.0644465 5.8684475-1.1975765l2.109 2.109c.3923789.3789722 1.0160848.3735524 1.4018186-.0121814s.3911536-1.0094397.0121814-1.4018186l-2.108-2.111c.2773881-.3697226.5169246-.7663816.715-1.184h2.271l4.326 4.326c-.5674816.3679105-.9105888.9976927-.912 1.674v3c0 1.1045695.8954305 2 2 2h2c1.1045695 0 2-.8954305 2-2v-3c0-1.1045695-.8954305-2-2-2v-4h13c.5522847 0 1-.4477153 1-1s-.4477153-1-1-1h-6v-11zm-27.587.587c.3768159.37350651.5882405.88243821.587 1.413l.0000054 1.3c-1.304329-.39334288-2.6956818-.39334288-4.0000054 0v-1.3c.0009798-.80817082.4882522-1.53632945 1.2349602-1.8454705s1.6060869-.1385032 2.1780398.4324705zm-17.413 21.413v-3h2v3zm2-6.414v-2.586h2.586zm-7-4.586v-11h17.556c-.3599241.60534654-.5518554 1.29574677-.556 2v2.264c-.063.044-.123.092-.184.138l-2.109-2.109c-.3923789-.37897221-1.0160848-.37355237-1.4018186.01218142-.3857338.3857338-.3911536 1.00943969-.0121814 1.40181858l2.107 2.109c-.9085171 1.2056953-1.399934 2.6743297-1.4 4.184.002805.3348137.0295398.6689987.08 1zm21 4c-1.8407312.0029665-3.5337324-1.0072863-4.4051765-2.62867s-.7799079-3.5907707.2381765-5.12433l1.467 1.468c-.1957114.4001981-.2982753.8395132-.3 1.285 0 1.6568542 1.3431458 3 3 3 .4454868-.0017247.8848019-.1042886 1.285-.3l1.468 1.468c-.8155917.5426412-1.7733831.8321009-2.753.832zm-.7-5.7.007-.011c.3967603-.3397768.9881942-.3169323 1.3575632.0524368.3693691.369369.3922136.9608029.0524368 1.3575632l-.017.001-.007.011c-.3967603.3397768-.9881942.3169323-1.3575632-.0524368-.3693691-.369369-.3922136-.9608029-.0524368-1.3575632zm3.4 1.988c.1961529-.4011088.2987284-.8414996.3-1.288 0-1.6568542-1.3431458-3-3-3-.4454868.0017247-.8848019.1042886-1.285.3l-1.468-1.468c1.9794715-1.3141906 4.610908-1.0510879 6.2909979.6290021 1.68009 1.6800899 1.9431927 4.3115264.6290021 6.2909979zm13.3 10.712h-2v-3h2zm-2-6.414-2.586-2.586h2.586zm7-4.586h-14.08c.403099-2.6200448-.7322291-5.2390758-2.92-6.736v-2.264c-.0038419-.70416086-.1954262-1.39455475-.555-2h17.555z"/><path id="Shape" d="m60 43h-32c-.5522847 0-1 .4477153-1 1s.4477153 1 1 1h2v14c0 .5522847.4477153 1 1 1s1-.4477153 1-1v-14h8.279l4.772 14.316c.1128959.3394023.398285.5927937.748664.6647242.350379.0719304.712517-.0485281.95-.316.2374831-.2674719.3142319-.6413219.201336-.9807242l-4.563-13.684h9.975l6.731 14.423c.1476556.3293336.4613177.5535485.8207141.5866705s.7087544-.1299889.9141145-.4267886.2348536-.6812295.0771714-1.0058819l-6.336-13.577h5.43c.5522847 0 1-.4477153 1-1s-.4477153-1-1-1z"/><path id="Shape" d="m2 45h5.43l-6.336 13.577c-.15768221.3246524-.1281887.7090822.07717141 1.0058819.2053601.2967997.55471812.4599106.91411452.4267886.35939639-.033122.67305845-.2573369.82071407-.5866705l6.731-14.423h9.975l-4.561 13.684c-.1128959.3394023-.0361471.7132522.201336.9807241.237483.2674719.599621.3879304.95.316s.6357681-.3253218.748664-.6647241l4.77-14.316h2.279c.5522847 0 1-.4477153 1-1s-.4477153-1-1-1h-22c-.55228475 0-1 .4477153-1 1s.44771525 1 1 1z"/><path id="Shape" d="m10.572 55.072c-.5125188-.2053208-1.09445776.04357-1.3.556l-1.2 3c-.14173428.3333398-.09212966.7172649.12967346 1.0036343s.58112474.4304078.93931735.3765367.65925105-.2972287.78700919-.636171l1.2-3c.2053208-.5125188-.04357-1.0944578-.556-1.3z"/><path id="Shape" d="m11.8 53c.408945.0003137.7768725-.2484037.929-.628l1.6-4c.2054499-.5130725-.0439275-1.0955501-.557-1.301s-1.0955501.0439275-1.301.557l-1.6 4c-.2053208.5125188.04357 1.0944578.556 1.3.1186805.047307.2452388.0717365.373.072z"/><path id="Shape" d="m24.6 55.02c-.5415148-.1085218-1.0684742.2424861-1.177.784l-.6 3c-.1082389.5389286.2388029 1.064181.777 1.176.0657696.0137352.132813.0204396.2.02.4748929-.000378.8840215-.3347017.979-.8l.6-3c.1106217-.5409414-.2381006-1.069173-.779-1.18z"/><path id="Shape" d="m25.02 47.8-.8 4c-.0530985.2599175-.0007425.5302825.1455449.751589.1462873.2213065.3745164.3754164.6344551.428411.0657696.0137352.132813.0204396.2.02.4752686.000097.8849463-.3343337.98-.8l.8-4c.0839647-.3556996-.0328053-.7288731-.3045463-.9732685s-.6551639-.32108-1-.2-.5961521.4206363-.6554537.7812685z"/><path id="Shape" d="m50.871 56.372 1.2 3c.1521275.3795963.520055.6283137.929.628.1271499.000121.2531255-.0243271.371-.072.2464454-.0983216.4437124-.2905559.5483687-.5343787.1046562-.2438228.1081209-.519243.0096313-.7656213l-1.2-3c-.2054499-.5130725-.7879275-.7624499-1.301-.557-.5130725.20545-.7624499.7879275-.557 1.301z"/><path id="Shape" d="m49.528 47.628c-.2054499-.5127964-.7877036-.7619499-1.3005-.5564999-.5127963.2054499-.7619499.7877035-.5565 1.3004999l1.6 4c.1521275.3795963.520055.6283137.929.628.1271499.000121.2531255-.0243271.371-.072.2464454-.0983216.4437124-.2905559.5483687-.5343787.1046562-.2438228.1081209-.519243.0096313-.7656213z"/><path id="Shape" d="m36.62 56.2.6 3c.0949785.4652983.5041071.799622.979.8.067187.0004396.1342304-.0062648.2-.02.5414488-.1080709.8928546-.634508.785-1.176l-.6-3c-.1148093-.5345276-.63761-.8777704-1.173722-.7706027s-.8867823.6250156-.787278 1.1626027z"/><path id="Shape" d="m35.8 47.02c-.2599387.0529946-.4881678.2071045-.6344551.428411-.1462874.2213065-.1986434.4916715-.1455449.751589l.8 4c.0950537.4656663.5047314.800097.98.8.067187.0004396.1342304-.0062648.2-.02.2599387-.0529946.4881678-.2071045.6344551-.428411.1462874-.2213065.1986434-.4916715.1455449-.751589l-.8-4c-.0529946-.2599387-.2071045-.4881678-.428411-.6344551-.2213065-.1462874-.4916715-.1986434-.751589-.1455449z"/><path id="Shape" d="m2 25c.55228475 0 1-.4477153 1-1v-2c0-.5522847-.44771525-1-1-1s-1 .4477153-1 1v2c0 .5522847.44771525 1 1 1z"/><path id="Shape" d="m6 21c-.55228475 0-1 .4477153-1 1v2c0 .5522847.44771525 1 1 1s1-.4477153 1-1v-2c0-.5522847-.44771525-1-1-1z"/><path id="Shape" d="m10 21c-.55228475 0-1 .4477153-1 1v2c0 .5522847.44771525 1 1 1 .5522847 0 1-.4477153 1-1v-2c0-.5522847-.4477153-1-1-1z"/><path id="Shape" d="m2 31c.55228475 0 1-.4477153 1-1v-2c0-.5522847-.44771525-1-1-1s-1 .4477153-1 1v2c0 .5522847.44771525 1 1 1z"/><path id="Shape" d="m5 30c0 .5522847.44771525 1 1 1s1-.4477153 1-1v-2c0-.5522847-.44771525-1-1-1s-1 .4477153-1 1z"/><path id="Shape" d="m9 30c0 .5522847.44771525 1 1 1 .5522847 0 1-.4477153 1-1v-2c0-.5522847-.4477153-1-1-1-.55228475 0-1 .4477153-1 1z"/><path id="Shape" d="m52 25c.5522847 0 1-.4477153 1-1v-2c0-.5522847-.4477153-1-1-1s-1 .4477153-1 1v2c0 .5522847.4477153 1 1 1z"/><path id="Shape" d="m56 25c.5522847 0 1-.4477153 1-1v-2c0-.5522847-.4477153-1-1-1s-1 .4477153-1 1v2c0 .5522847.4477153 1 1 1z"/><path id="Shape" d="m60 21c-.5522847 0-1 .4477153-1 1v2c0 .5522847.4477153 1 1 1s1-.4477153 1-1v-2c0-.5522847-.4477153-1-1-1z"/><path id="Shape" d="m51 30c0 .5522847.4477153 1 1 1s1-.4477153 1-1v-2c0-.5522847-.4477153-1-1-1s-1 .4477153-1 1z"/><path id="Shape" d="m55 30c0 .5522847.4477153 1 1 1s1-.4477153 1-1v-2c0-.5522847-.4477153-1-1-1s-1 .4477153-1 1z"/><path id="Shape" d="m60 27c-.5522847 0-1 .4477153-1 1v2c0 .5522847.4477153 1 1 1s1-.4477153 1-1v-2c0-.5522847-.4477153-1-1-1z"/><path id="Shape" d="m23 30c.5522847 0 1-.4477153 1-1v-2c0-.5522847-.4477153-1-1-1s-1 .4477153-1 1v2c0 .5522847.4477153 1 1 1z"/><path id="Shape" d="m27 30c.5522847 0 1-.4477153 1-1v-2c0-.5522847-.4477153-1-1-1s-1 .4477153-1 1v2c0 .5522847.4477153 1 1 1z"/><path id="Shape" d="m31 30c.5522847 0 1-.4477153 1-1v-2c0-.5522847-.4477153-1-1-1s-1 .4477153-1 1v2c0 .5522847.4477153 1 1 1z"/><path id="Shape" d="m39 30c.5522847 0 1-.4477153 1-1v-2c0-.5522847-.4477153-1-1-1s-1 .4477153-1 1v2c0 .5522847.4477153 1 1 1z"/><path id="Shape" d="m35 30c.5522847 0 1-.4477153 1-1v-2c0-.5522847-.4477153-1-1-1s-1 .4477153-1 1v2c0 .5522847.4477153 1 1 1z"/><path id="Shape" d="m2 34v2c0 .5522847.44771525 1 1 1s1-.4477153 1-1v-2c0-.5522847-.44771525-1-1-1s-1 .4477153-1 1z"/><path id="Shape" d="m6 34v2c0 .5522847.44771525 1 1 1s1-.4477153 1-1v-2c0-.5522847-.44771525-1-1-1s-1 .4477153-1 1z"/><path id="Shape" d="m10 34v2c0 .5522847.4477153 1 1 1s1-.4477153 1-1v-2c0-.5522847-.4477153-1-1-1s-1 .4477153-1 1z"/><path id="Shape" d="m16 36v-2c0-.5522847-.4477153-1-1-1s-1 .4477153-1 1v2c0 .5522847.4477153 1 1 1s1-.4477153 1-1z"/><path id="Shape" d="m20 36v-2c0-.5522847-.4477153-1-1-1s-1 .4477153-1 1v2c0 .5522847.4477153 1 1 1s1-.4477153 1-1z"/><path id="Shape" d="m50 34v2c0 .5522847.4477153 1 1 1s1-.4477153 1-1v-2c0-.5522847-.4477153-1-1-1s-1 .4477153-1 1z"/><path id="Shape" d="m54 34v2c0 .5522847.4477153 1 1 1s1-.4477153 1-1v-2c0-.5522847-.4477153-1-1-1s-1 .4477153-1 1z"/><path id="Shape" d="m44 36v-2c0-.5522847-.4477153-1-1-1s-1 .4477153-1 1v2c0 .5522847.4477153 1 1 1s1-.4477153 1-1z"/><path id="Shape" d="m48 36v-2c0-.5522847-.4477153-1-1-1s-1 .4477153-1 1v2c0 .5522847.4477153 1 1 1s1-.4477153 1-1z"/><path id="Shape" d="m60 36v-2c0-.5522847-.4477153-1-1-1s-1 .4477153-1 1v2c0 .5522847.4477153 1 1 1s1-.4477153 1-1z"/><path id="Shape" d="m22 36c0 .5522847.4477153 1 1 1s1-.4477153 1-1v-2c0-.5522847-.4477153-1-1-1s-1 .4477153-1 1z"/><path id="Shape" d="m26 36c0 .5522847.4477153 1 1 1s1-.4477153 1-1v-2c0-.5522847-.4477153-1-1-1s-1 .4477153-1 1z"/><path id="Shape" d="m30 36c0 .5522847.4477153 1 1 1s1-.4477153 1-1v-2c0-.5522847-.4477153-1-1-1s-1 .4477153-1 1z"/><path id="Shape" d="m38 36c0 .5522847.4477153 1 1 1s1-.4477153 1-1v-2c0-.5522847-.4477153-1-1-1s-1 .4477153-1 1z"/><path id="Shape" d="m34 36c0 .5522847.4477153 1 1 1s1-.4477153 1-1v-2c0-.5522847-.4477153-1-1-1s-1 .4477153-1 1z"/></g></g></g></svg>