<svg height="512" viewBox="0 0 60 60" width="512" xmlns="http://www.w3.org/2000/svg"><g id="Page-1" fill="none" fill-rule="evenodd"><g id="016---Sheep" fill-rule="nonzero"><path id="Shape" d="m34 45v-10h4v6.785c.0093303.098912.0759058.1831105.17.215 1.2589636.4167267 2.0215248 1.6940487 1.791 3" fill="#37474f"/><path id="Shape" d="m7 45v-10h4v6.785c.0093303.098912.0759058.1831105.17.215 1.2589636.4167267 2.0215248 1.6940487 1.791 3" fill="#37474f"/><path id="Shape" d="m59 9.88c-.0005518 1.170615-.949385 2.1194482-2.12 2.12h-2.88c-.3204249.0038743-.638901-.0503344-.94-.16-1.2304209-.3990352-2.0627327-1.5464943-2.06-2.84v-1.93c-.0021877-.66799801.3324286-1.29211376.89-1.66l2.11-1.41 4.38 4.38c.3975569.39789649.6206053.93752978.62 1.5z" fill="#ffe0b2"/><path id="Shape" d="m58.38 8.38-4.38-4.38-1.8 1.2 3.18 3.18c.6026788.59878732.7892417 1.49975177.4739074 2.2886322-.3153342.7888804-1.0715367 1.3129992-1.9209074 1.3313678.023 0 .044.005.067.005h2.88c.8575659-.000221 1.6306189-.5168304 1.9588973-1.3090757.3282785-.7922453.1471807-1.70422106-.4588973-2.3109243z" fill="#dfc49c"/><path id="Shape" d="m53.06 11.84-.06.16c-.0032948 1.1032019-.8967981 1.9967052-2 2-.0936381-.0013274-.1871239-.0080049-.28-.02.1842425.3082584.2810404.6608796.28 1.02-.0032948 1.1032019-.8967981 1.9967052-2 2-.0936381-.0013274-.1871239-.0080049-.28-.02.1842425.3082584.2810404.6608796.28 1.02-.0032948 1.1032019-.8967981 1.9967052-2 2-.0936381-.0013274-.1871239-.0080049-.28-.02.1842425.3082584.2810404.6608796.28 1.02-.0032948 1.1032019-.8967981 1.9967052-2 2-.0936381-.0013274-.1871239-.0080049-.28-.02.1842425.3082584.2810404.6608796.28 1.02-.0032948 1.1032019-.8967981 1.9967052-2 2-.3591204.0010404-.7117416-.0957575-1.02-.28.0119951.0928761.0186726.1863619.02.28-.0032948 1.1032019-.8967981 1.9967052-2 2v2.17c-.0003045 1.811413-.719648 3.5486274-2 4.83h-4c-1.280352-1.2813726-1.9996955-3.018587-2-4.83v-.8c-2.8707278 1.1047374-5.9241663 1.657749-9 1.63-3.4075271.017267-6.7918279-.5614485-10-1.71v.88c-.0003045 1.811413-.719648 3.5486274-2 4.83h-4c-1.28035204-1.2813726-1.99969548-3.018587-2-4.83v-13.17c.00066596-.8481051.53851128-1.6026941 1.34-1.88-.22395512-.3303753-.3425009-.7208791-.34-1.12.0032948-1.1032019.89679813-1.9967052 2-2 .35912037-.0010404.7117416.0957575 1.02.28-.01199509-.0928761-.01867265-.1863619-.02-.28.0032948-1.1032019.89679813-1.9967052 2-2h23.27c.356899-.61816808 1.0162016-.99926785 1.73-1 .3991209-.0025009.7896247.11604488 1.12.34.2773059-.80148872 1.0318949-1.33933404 1.88-1.34.0032948-1.10320187.8967981-1.9967052 2-2 .3591204-.00104045.7117416.09575754 1.02.28-.0119951-.09287614-.0186726-.18636188-.02-.28.0032948-1.10320187.8967981-1.9967052 2-2 .3591204-.00104045.7117416.09575754 1.02.28-.0119951-.09287614-.0186726-.18636188-.02-.28.0032948-1.10320187.8967981-1.9967052 2-2 .5112213-.00394123 1.0034186.19365623 1.37.55.6596651-1.20206949 2.0503908-1.8038982 3.3782369-1.46191297 1.3278461.34198522 2.254834 1.5407384 2.2517631 2.91191297l-2.11 1.41c-.5575714.36788624-.8921877.99200199-.89 1.66v1.93c-.0027327 1.2935057.8295791 2.4409648 2.06 2.84z" fill="#cfd8dc"/><path id="Shape" d="m51 9v-1.93c-.0021877-.66799801.3324286-1.29211376.89-1.66l2.11-1.41c.0003184-1.07443454-.5739783-2.0670036-1.5056265-2.60220575-.9316482-.53520214-2.0783805-.53130933-3.0063735.01020575.9333673.52931114 1.510682 1.51899342 1.512 2.592l-2.11 1.41c-.5575714.36788624-.8921877.99200199-.89 1.66v1.93c-.0027327 1.2935057.8295791 2.4409648 2.06 2.84l-.06.16c-.0032948 1.1032019-.8967981 1.9967052-2 2-.0936381-.0013274-.1871239-.0080049-.28-.02.1842425.3082584.2810404.6608796.28 1.02-.0032948 1.1032019-.8967981 1.9967052-2 2-.0936381-.0013274-.1871239-.0080049-.28-.02.1842425.3082584.2810404.6608796.28 1.02-.0032948 1.1032019-.8967981 1.9967052-2 2-.0936381-.0013274-.1871239-.0080049-.28-.02.1842425.3082584.2810404.6608796.28 1.02-.0032948 1.1032019-.8967981 1.9967052-2 2-.0936381-.0013274-.1871239-.0080049-.28-.02.1842425.3082584.2810404.6608796.28 1.02-.0032948 1.1032019-.8967981 1.9967052-2 2-.3591204.0010404-.7117416-.0957575-1.02-.28.0119951.0928761.0186726.1863619.02.28-.0032948 1.1032019-.8967981 1.9967052-2 2v2.17c-.0003045 1.811413-.719648 3.5486274-2 4.83h3c1.280352-1.2813726 1.9996955-3.018587 2-4.83v-2.17c1.1032019-.0032948 1.9967052-.8967981 2-2-.0013274-.0936381-.0080049-.1871239-.02-.28.3082584.1842425.6608796.2810404 1.02.28 1.1032019-.0032948 1.9967052-.8967981 2-2 .0010404-.3591204-.0957575-.7117416-.28-1.02.0928761.0119951.1863619.0186726.28.02 1.1032019-.0032948 1.9967052-.8967981 2-2 .0010404-.3591204-.0957575-.7117416-.28-1.02.0928761.0119951.1863619.0186726.28.02 1.1032019-.0032948 1.9967052-.8967981 2-2 .0010404-.3591204-.0957575-.7117416-.28-1.02.0928761.0119951.1863619.0186726.28.02 1.1032019-.0032948 1.9967052-.8967981 2-2 .0010404-.3591204-.0957575-.7117416-.28-1.02.0928761.0119951.1863619.0186726.28.02 1.1032019-.0032948 1.9967052-.8967981 2-2l.06-.16c-1.2304209-.3990352-2.0627327-1.5464943-2.06-2.84z" fill="#9e9e9e"/><path id="Shape" d="m5 17v11c-2.21 0-4-2.46-4-5.5s1.79-5.5 4-5.5z" fill="#9e9e9e"/><g fill="#000"><path id="Shape" d="m51 48h-44c-.55228475 0-1 .4477153-1 1s.44771525 1 1 1h44c.5522847 0 1-.4477153 1-1s-.4477153-1-1-1z"/><path id="Shape" d="m39 54c0-.5522847-.4477153-1-1-1h-24c-.5522847 0-1 .4477153-1 1s.4477153 1 1 1h24c.5522847 0 1-.4477153 1-1z"/><path id="Shape" d="m18 58c-.5522847 0-1 .4477153-1 1s.4477153 1 1 1h10c.5522847 0 1-.4477153 1-1s-.4477153-1-1-1z"/><path id="Shape" d="m53.824 13h3.056c1.2622191-.0003075 2.3999889-.7608641 2.8828455-1.9270745.4828566-1.16621033.2157267-2.50845027-.6768455-3.4009255l-4.133-4.133c-.1741628-1.53386475-1.2177112-2.82954334-2.679234-3.32655949-1.4615227-.49701615-3.0786152-.10613465-4.151766 1.00355949-.7599463-.30623986-1.6120799-.28833678-2.3584932.04955125-.7464134.33788804-1.3221541.96635821-1.5935068 1.73944875-1.3337615-.07564591-2.5568418.73974093-3 2-1.3801323-.06970061-2.6319387.80504079-3.041 2.125-.5590438.1705194-1.0558533.50114626-1.429.951-1.0724783-.24545015-2.1940267.10572632-2.935.919h-22.765c-1.27322527.00008061-2.40771362.80384355-2.83 2.005-.82380469-.0467574-1.63049875.2478564-2.23027456.8145216-.59977581.5666651-.93967608 1.3553479-.93972544 2.1804784-.00031173.2356317.02653202.4705145.08.7-.43473915.3692221-.7549674.8549421-.923 1.4-2.357.523-4.157 3.19-4.157 6.4 0 3.139 1.721 5.765 4 6.369v1.3c.00824715 1.9234941.71957993 3.777583 2 5.213v8.618h-5c-.55228475 0-1 .4477153-1 1s.44771525 1 1 1h58c.5522847 0 1-.4477153 1-1s-.4477153-1-1-1h-18.092c-.0988698-1.1900506-.8266601-2.2363445-1.908-2.743v-5.874c1.2804201-1.435417 1.9917528-3.2895059 2-5.213v-1.341c.8538837-.3036457 1.5258876-.9752824 1.83-1.829.8242148.0450343 1.6306827-.2508435 2.2302143-.8182236.5995316-.56738.9393675-1.3563323.9397857-2.1817764 0-.057 0-.113-.005-.169 1.2003647-.4239157 2.003544-1.5579809 2.005-2.831 0-.057 0-.113-.005-.169 1.2003647-.4239157 2.003544-1.5579809 2.005-2.831 0-.057 0-.113-.005-.169 1.2003647-.4239157 2.003544-1.5579809 2.005-2.831 0-.057 0-.113-.005-.169.8540108-.304203 1.5257306-.9766573 1.829-1.831zm-51.824 9.5c-.10208386-1.6550828.65324025-3.2465507 2-4.214v8.428c-1.34675975-.9674493-2.10208386-2.5589172-2-4.214zm6 13.5h2v5.874c.0451578.4951582.3786029.9168682.85 1.075.5173978.1239361.9190151.5317619 1.035 1.051h-3.885zm5.982-5.318c2.9265692.8725647 5.9641215 1.3165095 9.018 1.318 2.7206377.0030199 5.426022-.4062942 8.024-1.214.1425403 1.7070103.8360451 3.3214444 1.976 4.6v8.614h-19.092c-.0988698-1.1900506-.8266601-2.2363445-1.908-2.743v-5.871c1.1635132-1.3051503 1.8606621-2.9597359 1.982-4.704zm21.018 13.318v-8h2v5.874c.0451578.4951582.3786029.9168682.85 1.075.5173978.1239361.9190151.5317619 1.035 1.051zm16-31c-.0559167-.0009346-.1117081-.0056117-.167-.014-.3786772-.0433382-.7490615.1323554-.9550634.4530387-.2060019.3206834-.2117945.7305849-.0149366 1.0569613.0907927.1523549.1381699.3266474.137.504-.0045192.2937908-.1362535.571176-.3610935.7603331-.2248399.1891572-.5206753.2714851-.8109065.2256669-.3778135-.0411758-.7463119.1353737-.9509689.4556142-.2046571.3202406-.2100941.7288127-.0140311 1.0543858.0907927.1523549.1381699.3266474.137.504 0 .5522847-.4477153 1-1 1-.0559167-.0009346-.1117081-.0056117-.167-.014-.3786772-.0433382-.7490615.1323554-.9550634.4530387-.2060019.3206834-.2117945.7305849-.0149366 1.0569613.0907927.1523549.1381699.3266474.137.504 0 .5522847-.4477153 1-1 1-.0559167-.0009346-.1117081-.0056117-.167-.014-.3786772-.0433382-.7490615.1323554-.9550634.4530387-.2060019.3206834-.2117945.7305849-.0149366 1.0569613.0907927.1523549.1381699.3266474.137.504.0000194.3587229-.1921065.6899744-.5034889.8680843s-.6943113.1757882-1.0035111-.0060843c-.3271996-.1960689-.737443-.1889173-1.0576099.0184369-.3201668.2073542-.4944838.5787899-.4493901.9575631.0083956.0536127.0130735.1077418.014.162 0 .5522847-.4477153 1-1 1s-1 .4477153-1 1v2.17c-.0042497 1.4073175-.513451 2.7663704-1.435 3.83h-3.13c-.921549-1.0636296-1.4307503-2.4226825-1.435-3.83v-3.17c0-.5522847-.4477153-1-1-1s-1 .4477153-1 1v1.681c-2.5757708.877475-5.2788715 1.3231487-8 1.319-3.0551651-.0028746-6.0913496-.4802303-9-1.415v-1.585c0-.5522847-.4477153-1-1-1s-1 .4477153-1 1v3.17c-.0042497 1.4073175-.513451 2.7663704-1.435 3.83h-3.13c-.921549-1.0636296-1.43075027-2.4226825-1.435-3.83v-13.17c.00065526-.4218672.26831616-.797074.667-.935.29535558-.1014709.526347-.3351007.62445716-.6315896s.05207251-.6217895-.12445716-.8794104c-.11038535-.163541-.16861142-.3566982-.167-.554 0-.5522847.44771525-1 1-1 .17809859-.0010293.35308381.0466939.506.138.3256366.1950554.73363522.1889257 1.05326524-.015824.31963001-.2047498.49577856-.5728152.45473476-.950176-.0079287-.057021-.0126029-.1144474-.014-.172 0-.5522847.4477153-1 1-1h23.27c.3561842-.0010785.6849087-.191533.863-.5.3002168-.4846895.9354034-.63611584 1.422-.339.2575666.1761214.5825804.2219231.8787884.123841s.5296573-.32880539.6312116-.623841c.1399598-.39631612.5146963-.66123683.935-.661.5522847 0 1-.44771525 1-1s.4477153-1 1-1c.1780986-.00102934.3530838.0466939.506.138.3256366.19505538.7336352.18892569 1.0532652-.01582404s.4957786-.57281512.4547348-.95017596c-.0079287-.057021-.0126029-.11444735-.014-.172 0-.55228475.4477153-1 1-1 .1780986-.00102934.3530838.0466939.506.138.3256366.19505538.7336352.18892569 1.0532652-.01582404s.4957786-.57281512.4547348-.95017596c-.0079287-.057021-.0126029-.11444735-.014-.172 0-.55228475.4477153-1 1-1 .2513914-.00398709.4939871.0924753.674.268.2253195.21562688.5373302.31557359.846.271.3082784-.04673364.5771163-.23458731.727-.508.3985631-.71529403 1.192888-1.11538185 2.0048962-1.00983181.8120082.10555005 1.4776528.69541409 1.6801038 1.48883181l-1.6 1.064c-.8340256.5563925-1.3340738 1.49341986-1.332 2.496v.93c0 .55228475.4477153 1 1 1s1-.44771525 1-1v-.93c-.00005-.33427853.1669303-.64647542.445-.832l1.428-.951 3.8 3.8c.3201702.32070892.415754.80264235.2422195 1.2212698-.1735345.4186274-.5820494.6915957-1.0352195.6917302h-4.88c-.5522847 0-1 .4477153-1 1 .0038969.3512402.1943599.6738845.5.847-.149734.0953424-.3225525.1482248-.5.153z"/><path id="Shape" d="m21 14c0-.5522847-.4477153-1-1-1s-1 .4477153-1 1-.4477153 1-1 1c-.2848756-.0003211-.5554523-.1248375-.741-.341-.1955514-.2118158-.4707184-.3322804-.759-.3322804s-.5634486.1204646-.759.3322804c-.1855477.2161625-.4561244.3406789-.741.341-.5522847 0-1-.4477153-1-1s-.4477153-1-1-1-1 .4477153-1 1c0 1.6568542 1.3431458 3 3 3 .5271521.0000449 1.0448371-.1400751 1.5-.406.4551629.2659249.9728479.4060449 1.5.406.7956495 0 1.5587112-.3160705 2.1213203-.8786797.5626092-.5626091.8786797-1.3256708.8786797-2.1213203z"/><path id="Shape" d="m28 18c-.5522847 0-1 .4477153-1 1s-.4477153 1-1 1c-.2848756-.0003211-.5554523-.1248375-.741-.341-.1955514-.2118158-.4707184-.3322804-.759-.3322804s-.5634486.1204646-.759.3322804c-.1855477.2161625-.4561244.3406789-.741.341-.5522847 0-1-.4477153-1-1s-.4477153-1-1-1-1 .4477153-1 1c0 1.6568542 1.3431458 3 3 3 .5271521.0000449 1.0448371-.1400751 1.5-.406.4551629.2659249.9728479.4060449 1.5.406 1.6568542 0 3-1.3431458 3-3 0-.5522847-.4477153-1-1-1z"/><path id="Shape" d="m27 24c-.5522847 0-1 .4477153-1 1s-.4477153 1-1 1c-.2848756-.0003211-.5554523-.1248375-.741-.341-.1955514-.2118158-.4707184-.3322804-.759-.3322804s-.5634486.1204646-.759.3322804c-.1855477.2161625-.4561244.3406789-.741.341-.5522847 0-1-.4477153-1-1s-.4477153-1-1-1-1 .4477153-1 1c0 1.6568542 1.3431458 3 3 3 .5271521.0000449 1.0448371-.1400751 1.5-.406.4551629.2659249.9728479.4060449 1.5.406 1.6568542 0 3-1.3431458 3-3 0-.2652165-.1053568-.5195704-.2928932-.7071068s-.4418903-.2928932-.7071068-.2928932z"/><path id="Shape" d="m37 14c0-.5522847-.4477153-1-1-1s-1 .4477153-1 1-.4477153 1-1 1c-.2848756-.0003211-.5554523-.1248375-.741-.341-.1955514-.2118158-.4707184-.3322804-.759-.3322804s-.5634486.1204646-.759.3322804c-.1855477.2161625-.4561244.3406789-.741.341-.5522847 0-1-.4477153-1-1s-.4477153-1-1-1-1 .4477153-1 1c0 1.6568542 1.3431458 3 3 3 .5271521.0000449 1.0448371-.1400751 1.5-.406.4551629.2659249.9728479.4060449 1.5.406 1.6568542 0 3-1.3431458 3-3z"/><path id="Shape" d="m47 11c-.5522847 0-1 .4477153-1 1s-.4477153 1-1 1c-.2848756-.0003211-.5554523-.1248375-.741-.341-.1955514-.2118158-.4707184-.3322804-.759-.3322804s-.5634486.1204646-.759.3322804c-.1855477.2161625-.4561244.3406789-.741.341-.5522847 0-1-.4477153-1-1s-.4477153-1-1-1-1 .4477153-1 1c0 1.6568542 1.3431458 3 3 3 .5271521.0000449 1.0448371-.1400751 1.5-.406.4551629.2659249.9728479.4060449 1.5.406 1.6568542 0 3-1.3431458 3-3 0-.5522847-.4477153-1-1-1z"/><path id="Shape" d="m16 20c-.5522847 0-1 .4477153-1 1s-.4477153 1-1 1c-.2848756-.0003211-.5554523-.1248375-.741-.341-.1955514-.2118158-.4707184-.3322804-.759-.3322804s-.5634486.1204646-.759.3322804c-.1855477.2161625-.4561244.3406789-.741.341-.5522847 0-1-.4477153-1-1s-.44771525-1-1-1-1 .4477153-1 1c0 1.6568542 1.34314575 3 3 3 .5271521.0000449 1.0448371-.1400751 1.5-.406.4551629.2659249.9728479.4060449 1.5.406 1.6568542 0 3-1.3431458 3-3 0-.2652165-.1053568-.5195704-.2928932-.7071068s-.4418903-.2928932-.7071068-.2928932z"/><path id="Shape" d="m41 20c-.5522847 0-1 .4477153-1 1s-.4477153 1-1 1c-.2848756-.0003211-.5554523-.1248375-.741-.341-.1955514-.2118158-.4707184-.3322804-.759-.3322804s-.5634486.1204646-.759.3322804c-.1855477.2161625-.4561244.3406789-.741.341-.5522847 0-1-.4477153-1-1s-.4477153-1-1-1-1 .4477153-1 1c0 1.6568542 1.3431458 3 3 3 .5271521.0000449 1.0448371-.1400751 1.5-.406.4551629.2659249.9728479.4060449 1.5.406 1.6568542 0 3-1.3431458 3-3 0-.2652165-.1053568-.5195704-.2928932-.7071068s-.4418903-.2928932-.7071068-.2928932z"/></g></g></g></svg>