<svg height="60" viewBox="0 0 60 60" width="60" xmlns="http://www.w3.org/2000/svg"><g id="Page-1" fill="none" fill-rule="evenodd"><g id="018---Horse" fill-rule="nonzero"><path id="Shape" d="m42 49v1c0 .5522847-.4477153 1-1 1h-2c-1.1032019-.0032948-1.9967052-.8967981-2-2v-2h3c1.1045695 0 2 .8954305 2 2z" fill="#37474f"/><path id="Shape" d="m15.64 31.99c-.3877056 1.3606824-1.1215837 2.5975944-2.13 3.59-.9494605.8858103-1.4950751 2.1215731-1.51 3.42v8.27c-.3038396-.1762535-.6487402-.2693767-1-.27h-3v-10c.01492489-1.2984269.56053947-2.5341897 1.51-3.42.7292341-.7107314 1.313396-1.5564076 1.72-2.49 1.3881474.6137278 2.8923749.920713 4.41.9z" fill="#783e22"/><path id="Shape" d="m13 49v1c0 .5522847-.4477153 1-1 1h-2c-.43260047-.0008598-.85340377-.1411275-1.2-.4.12657289-.1747813.19638951-.3842312.2-.6v-1c-.0032948-1.1032019-.89679813-1.9967052-2-2h4c1.1045695 0 2 .8954305 2 2z" fill="#37474f"/><path id="Shape" d="m9 49v1c-.00361049.2157688-.07342711.4252187-.2.6-.18885438.2518058-.4852427.4-.8.4h-2c-1.10320187-.0032948-1.9967052-.8967981-2-2v-2h3c1.10320187.0032948 1.9967052.8967981 2 2z" fill="#37474f"/><path id="Shape" d="m37 36.07v10.93h-4v-8.93c-.0313097-1.6704658-.9289872-3.2044716-2.37-4.05-.8259244-.5288127-1.5395233-1.2152269-2.1-2.02h6.07c.01.01.02.01.03.02 1.4410128.8455284 2.3386903 2.3795342 2.37 4.05z" fill="#783e22"/><path id="Shape" d="m39 51h-4c-1.1032019-.0032948-1.9967052-.8967981-2-2v-2h4v2c.0032948 1.1032019.8967981 1.9967052 2 2z" fill="#37474f"/><path id="Shape" d="m58.32 15.86c-.9007067 1.109404-2.4502846 1.4459076-3.73.81l-5.59-2.68c0 .1.055-.09-4 7.21v3.8c.0281221 2.2920978-.8696269 4.4986135-2.49 6.12-.9494605.8858103-1.4950751 2.1215731-1.51 3.42v12.73c-.606-.355-.834-.27-4-.27v-10.93c-.0524795-1.6774948-.9574626-3.2121953-2.4-4.07-19.93 0-18.772.006-18.96-.01-1.5176251.020713-3.0218526-.2862722-4.41-.9-.406604.9335924-.9907659 1.7792686-1.72 2.49-.94946053.8858103-1.49507511 2.1215731-1.51 3.42v10h-4v-11.37c-.00627652-.8747479.1851556-1.7396109.56-2.53.58-1.21 1.42-3.83 1.44-8.91-.04534215-3.6736919 1.91972974-7.078711 5.1232642-8.8774425 3.2035345-1.7987315 7.1337578-1.7038228 10.2467358.2474425.933.571.871.43 9.98.43.9981419.0025684 1.9319221-.4924476 2.49-1.32 3.289754-4.85228917 7.8203983-8.73372522 13.12-11.24 1.5141856-.53777581 2.9423812-1.29229423 4.24-2.24.3551892-.23416689.8100079-.2553106 1.1853902-.05510668.3753824.20020392.6112001.58968701.6146098 1.01510668 0 1.7-.095 2.141.37 2.8.5.742-1.858-2.663 5.07 7.23.7894656 1.1148718.7404202 2.6189288-.12 3.68z" fill="#a0522d"/><path id="Shape" d="m58.44 12.18c-6.933-9.9-4.577-6.49-5.07-7.23-.481-.682-.37-1.237-.37-2.8-.0034097-.42541967-.2392274-.81490276-.6146098-1.01510668-.3753823-.20020392-.830201-.17906021-1.1853902.05510668-.414.267-.818.546-1.232.806.014308.05050884.0250017.10197228.032.154 0 1.7-.095 2.141.37 2.8.5.742-1.858-2.663 5.07 7.23.5036063.7041062.6807308 1.5905194.486384 2.4340916-.1943468.8435723-.7414639 1.5631308-1.502384 1.9759084 1.2426313.7140417 2.8146255.4679494 3.7795913-.5916869.9649659-1.0596363 1.0632921-2.6477355.2364087-3.8183131z" fill="#783e22"/><path id="Shape" d="m46 13.99c0 .1.055-.09-4 7.21v3.8c.0281221 2.2920978-.8696269 4.4986135-2.49 6.12-.9494605.8858103-1.4950751 2.1215731-1.51 3.42v12.46c1.781 0 2.372-.1 3 .27v-12.73c.0149249-1.2984269.5605395-2.5341897 1.51-3.42 1.6203731-1.6213865 2.5181221-3.8279022 2.49-6.12v-3.8l3.373-6.072z" fill="#783e22"/><path id="Shape" d="m8.94 17c-1.8744365 1.9253-2.9284468 4.5029647-2.94 7.19-.02 5.08-.86 7.7-1.44 8.91-.28516962.5979345-.4644928 1.2407912-.53 1.9h-2.03c-.55228475 0-1-.4477153-1-1v-9c-.00012361-4.3949522 3.5451714-7.9670379 7.94-8z" fill="#624421"/><g fill="#000"><path id="Shape" d="m59 50h-16c0-1.155.117-2.212-1-3.22v-12.24c.0118818-1.0266827.4458883-2.0031973 1.2-2.7 1.8166019-1.8097454 2.8261445-4.275914 2.8-6.84v-3.541l3.42-6.159c5.115 2.453 5.312 2.691 6.53 2.691 1.5111305-.0039742 2.894757-.8476876 3.590236-2.1892688.6954791-1.3415812.5874801-2.958557-.280236-4.1957312-5.466-7.797-5.26-7.368-5.26-7.815v-1.641c-.0044091-1.18948599-.9705064-2.15111058-2.16-2.15-.6258663.03359638-1.2223633.27620939-1.694.689-1.1150592.76438494-2.325329 1.37960541-3.6 1.83-5.4587296 2.59603945-10.1299818 6.59538505-13.536 11.589-.3723017.5515512-.9935579.8829628-1.659.885-9.072 0-8.835.1-9.442-.282-4.2294046-2.7193875-9.773191-2.1759359-13.394 1.313-4.76755368.2648124-8.50169199 4.2011161-8.515 8.976v9c0 1.1045695.8954305 2 2 2h1c0 14.077-.079 13.261.184 14h-2.184c-.55228475 0-1 .4477153-1 1s.44771525 1 1 1h58c.5522847 0 1-.4477153 1-1s-.4477153-1-1-1zm-38.161-33.6c.6494108.3988562 1.3989715.6045431 2.161.593h8.355c1.3277195-.0015533 2.5684569-.6606833 3.313-1.76 3.1951433-4.6890768 7.5777047-8.4460017 12.7-10.887 1.5891538-.57785603 3.0933184-1.366937 4.472-2.346 0 0 .16.006.16.15 0 1.515-.13 2.412.536 3.353.509.76 5.008 7.143 5.087 7.256.5269326.7480757.4963673 1.754287-.075 2.469-.6134682.746075-1.6601323.9710705-2.526.543l-5.436-2.606-2.879-2.88c-.3907415-.3904653-1.0240347-.39024144-1.4145.0005-.3904653.3907415-.3902414 1.0240347.0005 1.4145l2.469 2.47c-3.457 6.222-3.762 6.666-3.762 7.03v3.8c.0286665 2.0202313-.7578906 3.9667978-2.182 5.4-1.1493581 1.0714014-1.8068929 2.5687579-1.818 4.14v11.46h-2v-9.932c-.0342091-2.0133887-1.1058805-3.8663138-2.834-4.9-2.0348596-1.3844516-3.2273154-3.7075935-3.166-6.168 0-.5522847-.4477153-1-1-1s-1 .4477153-1 1c-.0091204 2.1745024.7156257 4.2884922 2.057 6-17.167 0-17.583.156-19.543-.475.320346-.9901904.4843161-2.0242811.486-3.065 0-.5522847-.4477153-1-1-1s-1 .4477153-1 1c.0286665 2.0202313-.7578906 3.9667978-2.182 5.4-1.14935813 1.0714014-1.80689293 2.5687579-1.818 4.14v9h-2c0-10.89-.17-11.158.46-12.467.69-1.433 1.519-4.209 1.54-9.341-.04549732-3.3102137 1.72125222-6.380762 4.6059522-8.0049821 2.8846999-1.6242201 6.4263092-1.5425245 9.2330478.2129821zm10.078 16.6h3.375c1.0367968.6818146 1.6746465 1.827554 1.708 3.068v9.932h-2v-7.93c0-2.406-1.343-3.844-3.083-5.07zm-19.917 6v7h-2v-9c.01317377-1.0274367.44903985-2.0040661 1.205-2.7.5881793-.5745323 1.0930743-1.2285396 1.5-1.943.8119668.2764897 1.652673.4599958 2.506.547-.3458846.7274259-.8159192 1.3889938-1.389 1.955-1.151087 1.070947-1.8101313 2.5688079-1.822 4.141zm-9-14c.00832984-2.9358313 1.84371095-5.5560373 4.6-6.567-1.03837159 1.7392772-1.59092456 3.7253598-1.6 5.751-.03 6.91-1.4 8.075-1.81 9.816h-1.19zm4 25c-.55228475 0-1-.4477153-1-1v-1h2c.55228475 0 1 .4477153 1 1v1zm4 0c.070334-.6722828.0078153-1.3518349-.184-2h1.184c.5522847 0 1 .4477153 1 1v1zm3-3.22v-7.78c.0136462-1.0273329.4494326-2.0037838 1.205-2.7.9445047-.9299875 1.6724365-2.0567111 2.132-3.3h11.706c.5764695.7335123 1.2717607 1.3652573 2.057 1.869 1.1452321.6651808 1.8642087 1.8760887 1.9 3.2 0 11.729-.077 11.2.184 11.93h-18.184c0-1.154.117-2.211-1-3.219zm21 2.22v-1h2c-.0704911.6722818-.0079695 1.3518645.184 2h-1.184c-.5522847 0-1-.4477153-1-1zm5 1c-.5522847 0-1-.4477153-1-1v-1h2c.5522847 0 1 .4477153 1 1v1z"/><path id="Shape" d="m50 54h-40c-.55228475 0-1 .4477153-1 1s.44771525 1 1 1h40c.5522847 0 1-.4477153 1-1s-.4477153-1-1-1z"/><path id="Shape" d="m42 59c0-.5522847-.4477153-1-1-1h-22c-.5522847 0-1 .4477153-1 1s.4477153 1 1 1h22c.5522847 0 1-.4477153 1-1z"/></g><path id="Shape" d="m10.875 21.994c-.3565462-.0014336-.6853584-.1925988-.8630104-.501738-.17765202-.3091392-.17726704-.6894831.0010104-.998262.9106454-1.6059205 2.4258036-2.7808792 4.2078661-3.2630711 1.7820624-.4821918 3.6829602-.2315523 5.2791339.6960711.4793832.2744855.6454855.8856168.371 1.365s-.8856168.6454855-1.365.371c-1.1379831-.6667226-2.4963143-.8476909-3.7691584-.5021589-1.2728441.3455319-2.3532078 1.1885192-2.9978416 2.3391589-.1797866.3064672-.5086901.4945208-.864.494z" fill="#ffe0b2"/></g></g></svg>