<svg height="512" viewBox="0 0 60 60" width="512" xmlns="http://www.w3.org/2000/svg"><g id="Page-1" fill="none" fill-rule="evenodd"><g id="019---Tractor-Back-View"><path id="Shape" d="m28 48h31" stroke="#000" stroke-linecap="round" stroke-linejoin="round" stroke-width="2"/><path id="Shape" d="m1 48h23" stroke="#000" stroke-linecap="round" stroke-linejoin="round" stroke-width="2"/><g fill-rule="nonzero"><rect id="Rectangle-path" fill="#60a917" height="4" rx="1" width="30" x="15" y="1"/><path id="Shape" d="m44 1h-3c.5522847 0 1 .44771525 1 1v2c0 .55228475-.4477153 1-1 1h3c.5522847 0 1-.44771525 1-1v-2c0-.55228475-.4477153-1-1-1z" fill="#549414"/><path id="Shape" d="m22 19v4c0 .5522847-.4477153 1-1 1h-12c-.55228475 0-1-.4477153-1-1v-3c.0032948-1.1032019.89679813-1.9967052 2-2h11c.5522847 0 1 .4477153 1 1z" fill="#60a917"/><path id="Shape" d="m21 18h-3c.5522847 0 1 .4477153 1 1v4c0 .5522847-.4477153 1-1 1h3c.5522847 0 1-.4477153 1-1v-4c0-.5522847-.4477153-1-1-1z" fill="#549414"/><path id="Shape" d="m21 24v22c-.0032948 1.1032019-.8967981 1.9967052-2 2h-8c-1.10320187-.0032948-1.9967052-.8967981-2-2v-22z" fill="#607d8b"/><path id="Shape" d="m18 24v22c-.0032948 1.1032019-.8967981 1.9967052-2 2h3c1.1032019-.0032948 1.9967052-.8967981 2-2v-22z" fill="#37474f"/><path id="Shape" d="m44 18h-5c-.5522847 0-1 .4477153-1 1v2h-16v-2c0-.5522847-.4477153-1-1-1h-5l2-13h24z" fill="#02a9f4"/><path id="Shape" d="m35 19v2h3v-2c0-.5522847.4477153-1 1-1h-3c-.5522847 0-1 .4477153-1 1z" fill="#0377bc"/><path id="Shape" d="m42 5h-3l2 13h3z" fill="#0377bc"/><path id="Shape" d="m52 20v3c0 .5522847-.4477153 1-1 1h-12c-.5522847 0-1-.4477153-1-1v-4c0-.5522847.4477153-1 1-1h11c1.1032019.0032948 1.9967052.8967981 2 2z" fill="#60a917"/><path id="Shape" d="m50 18h-3c1.1032019.0032948 1.9967052.8967981 2 2v3c0 .5522847-.4477153 1-1 1h3c.5522847 0 1-.4477153 1-1v-3c-.0032948-1.1032019-.8967981-1.9967052-2-2z" fill="#549414"/><path id="Shape" d="m51 24v22c-.0032948 1.1032019-.8967981 1.9967052-2 2h-8c-1.1032019-.0032948-1.9967052-.8967981-2-2v-22z" fill="#607d8b"/><path id="Shape" d="m48 24v22c-.0032948 1.1032019-.8967981 1.9967052-2 2h3c1.1032019-.0032948 1.9967052-.8967981 2-2v-22z" fill="#37474f"/><path id="Shape" d="m28 16h4c1.1045695 0 2 .8954305 2 2v3h-8v-3c0-1.1045695.8954305-2 2-2z" fill="#37474f"/><rect id="Rectangle-path" fill="#607d8b" height="4" rx="1" width="6" x="27" y="12"/><rect id="Rectangle-path" fill="#9e9e9e" height="6" rx="1" width="4" x="9" y="8"/><path id="Shape" d="m16.77 13h-3.77v-4h4.38z" fill="#707070"/><rect id="Rectangle-path" fill="#9e9e9e" height="6" rx="1" transform="matrix(-1 0 0 -1 98 22)" width="4" x="47" y="8"/><path id="Shape" d="m43.23 13h3.77v-4h-4.38z" fill="#707070"/><path id="Shape" d="m39 24v14h-18v-14c.5522847 0 1-.4477153 1-1v-2h16v2c0 .5522847.4477153 1 1 1z" fill="#008a00"/><path id="Shape" d="m38 23v-2h-3v2c0 .5522847.4477153 1 1 1v14h3v-14c-.5522847 0-1-.4477153-1-1z" fill="#007900"/><path id="Rectangle-path" d="m21 29h4v4h-4z" fill="#ffeb3a"/><path id="Rectangle-path" d="m35 29h4v4h-4z" fill="#ffeb3a"/><path id="Shape" d="m1 48h58v9c0 1.1045695-.8954305 2-2 2h-54c-1.1045695 0-2-.8954305-2-2z" fill="#a0522d"/><path id="Shape" d="m56 48v9c0 1.1045695-.8954305 2-2 2h3c1.1045695 0 2-.8954305 2-2v-9z" fill="#783e22"/><path id="Shape" d="m59 47h-7.184c.1184378-.320257.1806856-.6585603.184-1v-21.278c.6167513-.3544126.997855-1.0106732 1-1.722v-3c0-1.6568542-1.3431458-3-3-3h-5.142l-.458-3h1.882c.3536967.6155187 1.0081043.9964312 1.718 1h2c1.1045695 0 2-.8954305 2-2v-4c0-1.1045695-.8954305-2-2-2h-2c-.7113268.002145-1.3675874.38324874-1.722 1h-2.8l-.307-2h.829c1.1045695 0 2-.8954305 2-2v-2c0-1.1045695-.8954305-2-2-2h-28c-1.1045695 0-2 .8954305-2 2v2c0 1.1045695.8954305 2 2 2h.834l-.307 2h-2.805c-.3544126-.61675126-1.0106732-.997855-1.722-1h-2c-1.1045695 0-2 .8954305-2 2v4c0 1.1045695.8954305 2 2 2h2c.7113268-.002145 1.3675874-.3832487 1.722-1h1.878l-.462 3h-5.138c-1.65685425 0-3 1.3431458-3 3v3c.002145.7113268.38324874 1.3675874 1 1.722v21.278c.00331443.3414397.06556225.679743.184 1h-7.184c-.55228475 0-1 .4477153-1 1s.44771525 1 1 1h5.178l-6.022 9.463c-.19185162.3015322-.20826434.682511-.04305564.9994254.1652087.3169145.48693968.5216177.844.537s.69520402-.1608932.88705564-.4624254l6.705-10.537h15.451c.5522847 0 1-.4477153 1-1s-.4477153-1-1-1h-2.184c.1184378-.320257.1806856-.6585603.184-1v-7h16v7c.0033144.3414397.0655622.679743.184 1h-10.184c-.5522847 0-1 .4477153-1 1s.4477153 1 1 1h1v10c0 .5522847.4477153 1 1 1s1-.4477153 1-1v-10h20.451l6.7 10.537c.2965769.4661283.9148717.6035769 1.381.307s.6035769-.9148717.307-1.381l-6.017-9.463h5.178c.5522847 0 1-.4477153 1-1s-.4477153-1-1-1zm-8-27v3h-12v-4h11c.5522847 0 1 .4477153 1 1zm-13 10v2h-2v-2zm12-21v4h-2v-4zm-4 1v2h-1.911l-.308-2zm-30-8h28v2h-28zm-6 11v-4h2v4zm4-1v-2h2.219l-.308 2zm4.858-6h22.284l1.692 11h-3.834c-1.1045695 0-2 .8954305-2 2v1h-2v-2c-.0033338-.9053727-.4175387-1.7602682-1.126-2.324.0812262-.2162262.1238731-.4450304.126-.676v-2c0-1.1045695-.8954305-2-2-2h-4c-1.1045695 0-2 .8954305-2 2v2c.0021269.2309696.0447738.4597738.126.676-.7084613.5637318-1.1226662 1.4186273-1.126 2.324v2h-2v-1c0-1.1045695-.8954305-2-2-2h-3.834zm13.142 9h-4v-2h4zm-5 3c0-.5522847.4477153-1 1-1h4c.5522847 0 1 .4477153 1 1v2h-6zm-5 14v-2h2v2zm-13-12c0-.5522847.44771525-1 1-1h11v4h-12zm2 27c-.5522847 0-1-.4477153-1-1v-.3c1.3537623-.4173241 2.6129961-1.0950072 3.707-1.995.3854708-.3870661.3854708-1.0129339 0-1.4-.3826278-.3936902-1.0110983-.4052954-1.408-.026-.6971988.5397011-1.4723865.970286-2.299 1.277v-2.856c1.3537623-.4173241 2.6129961-1.0950072 3.707-1.995.3854708-.3870661.3854708-1.0129339 0-1.4-.3826278-.3936902-1.0110983-.4052954-1.408-.026-.6971988.5397011-1.4723865.970286-2.299 1.277v-2.856c1.3537623-.4173241 2.6129961-1.0950072 3.707-1.995.3854708-.3870661.3854708-1.0129339 0-1.4-.3826278-.3936902-1.0110983-.4052954-1.408-.026-.6971988.5397011-1.4723865.970286-2.299 1.277v-2.856c1.354149-.4188289 2.6134099-1.0982252 3.707-2 .3854708-.3870661.3854708-1.0129339 0-1.4-.3826278-.3936902-1.0110983-.4052954-1.408-.026-.6968764.5414625-1.4720806.9737425-2.299 1.282v-3.556h10v3.556c-.8264909-.3054445-1.601952-.7343082-2.3-1.272-.3946679-.3772682-1.0189849-.3682457-1.4025859.0202697-.383601.3885155-.3846756 1.0128968-.0024141 1.4027303 1.0935744.8990524 2.3520979 1.5760395 3.705 1.993v2.854c-.8264909-.3054445-1.601952-.7343082-2.3-1.272-.3946679-.3772682-1.0189849-.3682457-1.4025859.0202697-.383601.3885155-.3846756 1.0128968-.0024141 1.4027303 1.093409.8997651 2.3519434 1.5774375 3.705 1.995v2.854c-.8264909-.3054445-1.601952-.7343082-2.3-1.272-.3946679-.3772682-1.0189849-.3682457-1.4025859.0202697-.383601.3885155-.3846756 1.0128968-.0024141 1.4027303 1.093409.8997651 2.3519434 1.5774375 3.705 1.995v2.854c-.8264909-.3054445-1.601952-.7343082-2.3-1.272-.3946679-.3772682-1.0189849-.3682457-1.4025859.0202697-.383601.3885155-.3846756 1.0128968-.0024141 1.4027303 1.093409.8997651 2.3519434 1.5774375 3.705 1.995v.3c0 .5522847-.4477153 1-1 1zm11-10v-3h6c.5522847 0 1-.4477153 1-1s-.4477153-1-1-1h-2v-2h2c.5522847 0 1-.4477153 1-1s-.4477153-1-1-1h-6v-3.278c.6167513-.3544126.997855-1.0106732 1-1.722v-1h14v1c.002145.7113268.3832487 1.3675874 1 1.722v3.278h-6c-.5522847 0-1 .4477153-1 1s.4477153 1 1 1h2v2h-2c-.5522847 0-1 .4477153-1 1s.4477153 1 1 1h6v3zm19 10c-.5522847 0-1-.4477153-1-1v-.3c1.3537623-.4173241 2.6129961-1.0950072 3.707-1.995.3868567-.3856879.3890919-1.0115587.005-1.4-.3826278-.3936902-1.0110983-.4052954-1.408-.026-.6987321.5401425-1.4756355.970744-2.304 1.277v-2.856c1.3537623-.4173241 2.6129961-1.0950072 3.707-1.995.3868567-.3856879.3890919-1.0115587.005-1.4-.3826278-.3936902-1.0110983-.4052954-1.408-.026-.6987321.5401425-1.4756355.970744-2.304 1.277v-2.856c1.3537623-.4173241 2.6129961-1.0950072 3.707-1.995.3868567-.3856879.3890919-1.0115587.005-1.4-.3826278-.3936902-1.0110983-.4052954-1.408-.026-.6987321.5401425-1.4756355.970744-2.304 1.277v-2.856c1.354149-.4188289 2.6134099-1.0982252 3.707-2 .3868567-.3856879.3890919-1.0115587.005-1.4-.3826278-.3936902-1.0110983-.4052954-1.408-.026-.6984093.5419039-1.4753294.9742006-2.304 1.282v-3.556h10v3.556c-.8264909-.3054445-1.601952-.7343082-2.3-1.272-.3946679-.3772682-1.0189849-.3682457-1.4025859.0202697-.383601.3885155-.3846756 1.0128968-.0024141 1.4027303 1.0935744.8990524 2.3520979 1.5760395 3.705 1.993v2.854c-.8264909-.3054445-1.601952-.7343082-2.3-1.272-.3946679-.3772682-1.0189849-.3682457-1.4025859.0202697-.383601.3885155-.3846756 1.0128968-.0024141 1.4027303 1.093409.8997651 2.3519434 1.5774375 3.705 1.995v2.854c-.8264909-.3054445-1.601952-.7343082-2.3-1.272-.3946679-.3772682-1.0189849-.3682457-1.4025859.0202697-.383601.3885155-.3846756 1.0128968-.0024141 1.4027303 1.093409.8997651 2.3519434 1.5774375 3.705 1.995v2.854c-.8264909-.3054445-1.601952-.7343082-2.3-1.272-.3946679-.3772682-1.0189849-.3682457-1.4025859.0202697-.383601.3885155-.3846756 1.0128968-.0024141 1.4027303 1.093409.8997651 2.3519434 1.5774375 3.705 1.995v.3c0 .5522847-.4477153 1-1 1z" fill="#000"/><path id="Shape" d="m15.285 52.862c.4760694-.2802845.6347845-.8934305.3545-1.3695-.2802845-.4760694-.8934305-.6347845-1.3695-.3545-1.3468866.5843865-2.8018885.8781129-4.27.862-.55228475 0-1 .4477153-1 1s.44771525 1 1 1c1.824367.0183375 3.6298591-.3704326 5.285-1.138z" fill="#000"/><path id="Shape" d="m18.51 52.872c1.7317638.7533159 3.6015083 1.137482 5.49 1.128.5522847 0 1-.4477153 1-1s-.4477153-1-1-1c-1.5470912.016578-3.0815425-.2800395-4.511-.872-.4815923-.2706195-1.0913804-.0995922-1.3619999.382-.2706195.4815923-.0995924 1.0913805.3819999 1.362z" fill="#000"/><path id="Shape" d="m8 58c0 .5522847.44771525 1 1 1 1.8884917.009482 3.7582362-.3746841 5.49-1.128.4815923-.2706195.6526194-.8804077.3819999-1.362-.2706195-.4815922-.8804076-.6526195-1.3619999-.382-1.4291471.591828-2.9632449.8884429-4.51.872-.55228475 0-1 .4477153-1 1z" fill="#000"/><path id="Shape" d="m17.138 56.494c-.279355.475846-.1204892 1.0880383.355 1.368 1.883 1.106 5.142 1.138 5.507 1.138.5522847 0 1-.4477153 1-1s-.4477153-1-1-1c-1.5412621.0238866-3.0709626-.2695272-4.494-.862-.4761073-.2791839-1.0883782-.1198502-1.368.356z" fill="#000"/><path id="Shape" d="m50 52c-1.4682251.017319-2.9234766-.2764577-4.27-.862-.4760695-.2802845-1.0892155-.1215694-1.3695.3545-.2802845.4760695-.1215694 1.0892155.3545 1.3695 1.6551409.7675674 3.460633 1.1563375 5.285 1.138.5522847 0 1-.4477153 1-1s-.4477153-1-1-1z" fill="#000"/><path id="Shape" d="m40.51 51.128c-1.4291471.591828-2.9632449.8884429-4.51.872-.5522847 0-1 .4477153-1 1s.4477153 1 1 1c1.8884917.009482 3.7582362-.3746841 5.49-1.128.4815923-.2706195.6526195-.8804077.382-1.362s-.8804077-.6526195-1.362-.382z" fill="#000"/><path id="Shape" d="m45.129 56.51c-.1301026.2311331-.1630524.5044848-.0915999.7599134s.2414534.4720077.4725999.6020866c1.7317638.7533159 3.6015083 1.137482 5.49 1.128.5522847 0 1-.4477153 1-1s-.4477153-1-1-1c-1.5470912.016578-3.0815425-.2800395-4.511-.872-.481119-.269404-1.0895199-.0985149-1.36.382z" fill="#000"/><path id="Shape" d="m37 57c-.5522847 0-1 .4477153-1 1s.4477153 1 1 1c.365 0 3.624-.032 5.507-1.138.4760695-.2800084.6350084-.8929305.355-1.369s-.8929305-.6350084-1.369-.355c-1.4227275.592338-2.9520737.8857492-4.493.862z" fill="#000"/></g></g></g></svg>