<svg height="512" viewBox="0 0 60 60" width="512" xmlns="http://www.w3.org/2000/svg"><g id="Page-1" fill="none" fill-rule="evenodd"><g id="020---Farming-Drone" fill-rule="nonzero" transform="translate(-1)"><path id="Shape" d="m2 44h58v13c0 1.1045695-.8954305 2-2 2h-54c-1.1045695 0-2-.8954305-2-2z" fill="#a0522d"/><path id="Shape" d="m57 44v13c0 1.1045695-.8954305 2-2 2h3c1.1045695 0 2-.8954305 2-2v-13z" fill="#783e22"/><rect id="Rectangle-path" fill="#7f8e94" height="14" rx="2" width="10" x="26" y="7"/><path id="Shape" d="m34 7h-3c1.1032019.0032948 1.9967052.89679813 2 2v10c-.0032948 1.1032019-.8967981 1.9967052-2 2h3c1.1032019-.0032948 1.9967052-.8967981 2-2v-10c-.0032948-1.10320187-.8967981-1.9967052-2-2z" fill="#545c60"/><path id="Shape" d="m60 10v2c0 .5522847-.4477153 1-1 1h-3.18c-7.0533393.0047668-13.9482568 2.0920274-19.82 6v-10h23c.5522847 0 1 .44771525 1 1z" fill="#02a9f4"/><path id="Shape" d="m59 9h-3c.5522847 0 1 .44771525 1 1v2c0 .5522847-.4477153 1-1 1h3c.5522847 0 1-.4477153 1-1v-2c0-.55228475-.4477153-1-1-1z" fill="#0377bc"/><path id="Shape" d="m26 9v10c-5.8717432-3.9079726-12.7666607-5.9952332-19.82-6h-3.18c-.55228475 0-1-.4477153-1-1v-2c0-.55228475.44771525-1 1-1z" fill="#02a9f4"/><path id="Shape" d="m16 9h-8l1.52-6.06c.28245716-1.13991874 1.3056079-1.940488 2.48-1.940488s2.1975428.80056926 2.48 1.940488z" fill="#9e9e9e"/><path id="Shape" d="m14.48 2.94c-.2034153-.82538959-.8047622-1.49513761-1.6035558-1.78595467s-1.6899802-.16445623-2.3764442.33695467c.4881823.35148319.8355267.86505665.98 1.449l1.52 6.06h3z" fill="#707070"/><path id="Shape" d="m54 9h-8l1.52-6.06c.2824572-1.13991874 1.3056079-1.940488 2.48-1.940488s2.1975428.80056926 2.48 1.940488z" fill="#9e9e9e"/><path id="Shape" d="m52.48 2.94c-.2034153-.82538959-.8047622-1.49513761-1.6035558-1.78595467s-1.6899802-.16445623-2.3764442.33695467c.4881823.35148319.8355267.86505665.98 1.449l1.52 6.06h3z" fill="#707070"/><path id="Shape" d="m12 13.48v2.52c0 .5522847-.4477153 1-1 1h-6c-.55228475 0-1-.4477153-1-1v-3.0000032l2.18.0000032c1.94991986-.0008316 3.8965639.1597163 5.82.48z" fill="#37474f"/><path id="Shape" d="m58 12.9999968v3.0000032c0 .5522847-.4477153 1-1 1h-6c-.5522847 0-1-.4477153-1-1v-2.52c1.9234361-.3202837 3.8700801-.4808316 5.82-.48z" fill="#37474f"/><path id="Shape" d="m37.02 25h-12.04c-.375169-.0074494-.7145919-.2243037-.8790242-.5616007s-.1261955-.7382604.0990242-1.0383993c.8713528-1.3426625 2.2991307-2.2235538 3.89-2.4h5.82c1.5908693.1764462 3.0186472 1.0573375 3.89 2.4.2252197.3001389.2634565.7011023.0990242 1.0383993s-.5038552.5541513-.8790242.5616007z" fill="#545c60"/><g fill="#000"><circle id="Oval" cx="31" cy="12" r="1"/><path id="Shape" d="m60 4c.5522847 0 1-.44771525 1-1s-.4477153-1-1-1h-6.808c-.5927847-1.22334223-1.8326031-2.00027928-3.192-2.00027928s-2.5992153.77693705-3.192 2.00027928h-6.808c-.5522847 0-1 .44771525-1 1s.4477153 1 1 1h6.22l-1 4h-8.4c-.4227483-1.1957287-1.5517451-1.99643563-2.82-2h-6c-1.2667854.00525139-2.3937454.80564913-2.816 2h-8.4l-1-4h6.216c.5522847 0 1-.44771525 1-1s-.4477153-1-1-1h-6.808c-.5927847-1.22334223-1.8326031-2.00027928-3.192-2.00027928s-2.59921529.77693705-3.192 2.00027928h-6.808c-.55228474.00000001-.99999999.44771526-.99999999 1s.44771525.99999999.99999999 1h6.22l-1 4h-4.22c-1.1045695 0-2 .8954305-2 2v2c0 1.1045695.8954305 2 2 2v2c0 1.1045695.8954305 2 2 2h2v8h-1c-.55228475 0-1 .4477153-1 1s.44771525 1 1 1h4c.5522847 0 1-.4477153 1-1s-.4477153-1-1-1h-1v-8h2c1.1045695 0 2-.8954305 2-2v-1.308c4.2938119.8555962 8.3862259 2.5183515 12.06 4.9.0914182.4360541.2793525.8460926.55 1.2-.8616824.5135737-1.6125886 1.1934345-2.209 2-.4594125.6064027-.5320362 1.421963-.187 2.1.3279089.6765852 1.0131422 1.1067486 1.765 1.108h12.041c.7539413-.0075117 1.4395846-.4383906 1.7733896-1.1144514.333805-.6760607.2590351-1.4823937-.1933896-2.0855486-.5968429-.8065399-1.348069-1.4863825-2.21-2 .2713269-.3536217.4596409-.7637431.551-1.2 3.6728074-2.3844772 7.7649314-4.0499672 12.059-4.908v1.308c0 1.1045695.8954305 2 2 2h2v8h-1c-.5522847 0-1 .4477153-1 1s.4477153 1 1 1h4c.5522847 0 1-.4477153 1-1s-.4477153-1-1-1h-1v-8h2c1.1045695 0 2-.8954305 2-2v-2c1.1045695 0 2-.8954305 2-2v-2c0-1.1045695-.8954305-2-2-2h-4.219l-1-4zm-49.514-.819c.173569-.69511555.7980422-1.18283238 1.5145-1.18283238s1.340931.48771683 1.5145 1.18283238l1.204 4.819h-5.438zm.514 12.819h-6v-2h1.185c1.61101026.0025865 3.21989079.1171962 4.815.343zm-4.815-4h-3.185v-2h22v7.186c-5.6864695-3.4002455-12.1894766-5.1926768-18.815-5.186zm30.835 12h-12.02c.6919245-1.0820726 1.8185244-1.8114995 3.089-2h5.827c1.2731389.191916 2.4030934.9199795 3.104 2zm-9.02-4c-.5522847 0-1-.4477153-1-1v-10c0-.55228475.4477153-1 1-1h6c.5522847 0 1 .44771525 1 1v10c0 .5522847-.4477153 1-1 1zm29-4h-6v-1.657c1.5951092-.2258038 3.2039897-.3404135 4.815-.343h1.185zm2-4h-3.185c-6.6254964-.0064764-13.128451 1.7859405-18.815 5.186v-7.186h22zm-11.719-4 1.2-4.819c.173569-.69511555.7980422-1.18283238 1.5145-1.18283238s1.340931.48771683 1.5145 1.18283238l1.209 4.819z"/><path id="Shape" d="m60 43h-32c-.5522847 0-1 .4477153-1 1s.4477153 1 1 1h2v14c0 .5522847.4477153 1 1 1s1-.4477153 1-1v-14h8.28l4.772 14.316c.1128959.3394023.398285.5927937.748664.6647242.350379.0719304.712517-.0485281.95-.316.2374831-.2674719.3142319-.6413219.201336-.9807242l-4.565-13.684h9.976l6.731 14.423c.1476556.3293336.4613177.5535485.8207141.5866705s.7087544-.1299889.9141145-.4267886.2348536-.6812295.0771714-1.0058819l-6.336-13.577h5.43c.5522847 0 1-.4477153 1-1s-.4477153-1-1-1z"/><path id="Shape" d="m1 44c0 .5522847.44771525 1 1 1h5.43l-6.336 13.577c-.15768221.3246524-.1281887.7090822.07717141 1.0058819.2053601.2967997.55471812.4599106.91411452.4267886.35939639-.033122.67305845-.2573369.82071407-.5866705l6.731-14.423h9.976l-4.561 13.684c-.174522.5246705.1093295 1.091478.634 1.266s1.091478-.1093295 1.266-.634l4.768-14.316h2.28c.5522847 0 1-.4477153 1-1s-.4477153-1-1-1h-22c-.55228475 0-1 .4477153-1 1z"/><path id="Shape" d="m9.271 55.628-1.2 3c-.09848963.2463783-.09502491.5217985.00963134.7656213.10465624.2438228.30192323.4360571.54836866.5343787.11787453.0476729.24385009.072121.371.072.40894499.0003137.77687254-.2484037.929-.628l1.2-3c.1329028-.3318997.0786437-.7094905-.1423385-.9905376-.2209823-.2810471-.575115-.4228527-.929-.372-.35388505.0508527-.6537587.2866379-.7866615.6185376z"/><path id="Shape" d="m11.429 52.928c.1178745.0476729.2438501.072121.371.072.408945.0003137.7768725-.2484037.929-.628l1.6-4c.2054499-.5127964-.0437036-1.09505-.5565-1.3005-.5127964-.2054499-1.0950501.0437036-1.3005.5565l-1.6 4c-.0985451.2462521-.0952223.5215667.0092375.7653686.1044597.243802.3014982.4361169.5477625.5346314z"/><path id="Shape" d="m23.42 55.8-.6 3c-.0530985.2599175-.0007425.5302825.1455449.751589.1462873.2213065.3745164.3754164.6344551.428411.0657614.013788.1328105.0204929.2.02.4748929-.000378.8840215-.3347017.979-.8l.6-3c.095773-.5343897-.2523302-1.0475805-.784259-1.1561928s-1.0533524.2270334-1.174741.7561928z"/><path id="Shape" d="m25 52.98c.0657776.0136833.1328154.020387.2.02.4752686.000097.8849463-.3343337.98-.8l.8-4c.0839647-.3556996-.0328053-.7288731-.3045463-.9732685s-.6551639-.32108-1-.2-.5961521.4206363-.6554537.7812685l-.8 4c-.1056223.5385096.2424637 1.0615311.78 1.172z"/><path id="Shape" d="m50.871 56.372 1.2 3c.1521275.3795963.520055.6283137.929.628.1271499.000121.2531255-.0243271.371-.072.2464454-.0983216.4437124-.2905559.5483687-.5343787.1046562-.2438228.1081209-.519243.0096313-.7656213l-1.2-3c-.2054499-.5130725-.7879275-.7624499-1.301-.557-.5130725.20545-.7624499.7879275-.557 1.301z"/><path id="Shape" d="m49.528 47.628c-.2054499-.5127964-.7877036-.7619499-1.3005-.5564999-.5127963.2054499-.7619499.7877035-.5565 1.3004999l1.6 4c.1521275.3795963.520055.6283137.929.628.1271499.000121.2531255-.0243271.371-.072.2464454-.0983216.4437124-.2905559.5483687-.5343787.1046562-.2438228.1081209-.519243.0096313-.7656213z"/><path id="Shape" d="m36.619 56.2.6 3c.0949785.4652983.5041071.799622.979.8.0671895.0004929.1342386-.006212.2-.02.5414488-.1080709.8928546-.634508.785-1.176l-.6-3c-.1148093-.5345276-.63761-.8777704-1.173722-.7706027s-.8867823.6250156-.787278 1.1626027z"/><path id="Shape" d="m35.8 47.02c-.2599387.0529946-.4881678.2071045-.6344551.428411-.1462874.2213065-.1986434.4916715-.1455449.751589l.8 4c.0950537.4656663.5047314.800097.98.8.0671846.000387.1342224-.0063167.2-.02.2599387-.0529946.4881678-.2071045.6344551-.428411.1462874-.2213065.1986434-.4916715.1455449-.751589l-.8-4c-.0529946-.2599387-.2071045-.4881678-.428411-.6344551-.2213065-.1462874-.4916715-.1986434-.751589-.1455449z"/><path id="Shape" d="m15.809 40.588.888-1.222c.2205533-.2883484.2675147-.6735778.1226933-1.0064672s-.4586767-.5611478-.8199922-.5963579c-.3613154-.0352101-.7133347.1281589-.9197011.4268251l-.889 1.222c-.3247434.4467984-.2257983 1.0722565.221 1.3969999.4467984.3247435 1.0722566.2257984 1.397-.2209999z"/><path id="Shape" d="m19.364 35.7.889-1.222c.3252957-.4465222.2270222-1.0722043-.2195-1.3975s-1.0722043-.2270222-1.3975.2195l-.889 1.222c-.2104294.2888492-.250775.6680197-.105839.9946815.1449361.3266619.4531346.5511874.8085.589.3553655.0378127.7039096-.1168323.914339-.4056815z"/><path id="Shape" d="m22.191 28.412-1 1.375c-.3247434.4467984-.2257983 1.0722565.221 1.397.4467984.3247434 1.0722566.2257983 1.397-.221l1-1.375c.3247434-.4467984.2257984-1.0722566-.221-1.397s-1.0722566-.2257984-1.397.221z"/><path id="Shape" d="m23.912 38.784-.222 1c-.1190676.53899.2211016 1.0725185.76 1.192.0715171.016267.1446569.0243191.218.024.4689083-.0001845.8747158-.326161.976-.784l.221-1c.0771694-.3488698-.037643-.7124082-.3011885-.9536738s-.6357852-.3236043-.9765-.216-.5981421.388804-.6753115.7376738z"/><path id="Shape" d="m25.023 33.783-.222 1c-.1197472.5390126.2200276 1.0730722.759 1.193.0715904.0158271.1446811.0238738.218.024.4686077-.0000804.8743121-.3255585.976-.783l.223-1c.1198458-.5395822-.2204178-1.0741542-.76-1.1939999-.5395822-.1198458-1.0741542.2204177-1.194.7599999z"/><path id="Shape" d="m26.56 30.976c.0715904.0158271.1446811.0238738.218.024.4686077-.0000804.8743121-.3255585.976-.783l.223-1c.0775266-.3490485-.037051-.7129425-.3005725-.9546068s-.6359518-.3243842-.977-.217-.5989009.3885583-.6764275.7376068l-.222 1c-.1197472.5390126.2200276 1.0730722.759 1.193z"/><path id="Shape" d="m47 41c.3759317-.0003235.7199207-.2114573.8904015-.5465111s.1386466-.7374124-.0824015-1.0414889l-.888-1.222c-.2100722-.2893852-.558572-.4447159-.914223-.4074806-.3556509.0372352-.6644212.2613796-.81.588s-.1058492.7060955.104223.9954806l.888 1.222c.1888165.2597419.4908824.4130069.812.412z"/><path id="Shape" d="m43.445 36.111c.3759317-.0003235.7199207-.2114573.8904015-.5465111s.1386466-.7374124-.0824015-1.0414889l-.889-1.223c-.2063664-.2986662-.5583857-.4620352-.9197011-.4268251-.3613155.0352101-.6751708.2634685-.8199922.5963579s-.09786.7181188.1226933 1.0064672l.889 1.222c.1879809.2592623.4887599.412812.809.413z"/><path id="Shape" d="m39.191 30.963c.3247434.4467983.9502016.5457434 1.397.221.4467983-.3247435.5457434-.9502016.221-1.397l-1-1.375c-.2100722-.2890279-.5583814-.4440285-.9137229-.4066146-.3553416.037414-.6637306.2615583-.809.588-.1452694.3264418-.1053493.7055867.1047229.9946146z"/><path id="Shape" d="m36.9 38.024c-.5388984.1194815-.8790676.65301-.76 1.192l.221 1c.1012842.457839.5070917.7838155.976.784.0733431.0003191.1464829-.007733.218-.024.5388984-.1194815.8790676-.65301.76-1.192l-.222-1c-.0559024-.2598399-.2135383-.4864689-.4377015-.6292719-.2241631-.142803-.49618-.1898841-.7552985-.1307281z"/><path id="Shape" d="m36.977 33.783c-.1198458-.5395822-.6544178-.8798457-1.194-.76-.5395822.1198458-.8798458.6544178-.76 1.194l.223 1c.1016879.4574415.5073923.7829196.976.783.0733189-.0001262.1464096-.0081729.218-.024.5389724-.1199278.8787472-.6539874.759-1.193z"/><path id="Shape" d="m35.977 28.783c-.1198458-.5395822-.6544178-.8798458-1.194-.76s-.8798458.6544178-.76 1.194l.223 1c.1016879.4574415.5073923.7829196.976.783.0733189-.0001262.1464096-.0081729.218-.024.5389724-.1199278.8787472-.6539874.759-1.193z"/><path id="Shape" d="m30 40c0 .5522847.4477153 1 1 1s1-.4477153 1-1v-1c0-.5522847-.4477153-1-1-1s-1 .4477153-1 1z"/><path id="Shape" d="m30 35c0 .5522847.4477153 1 1 1s1-.4477153 1-1v-1c0-.5522847-.4477153-1-1-1s-1 .4477153-1 1z"/><path id="Shape" d="m31 31c.5522847 0 1-.4477153 1-1v-1c0-.5522847-.4477153-1-1-1s-1 .4477153-1 1v1c0 .5522847.4477153 1 1 1z"/><circle id="Oval" cx="31" cy="12" r="1"/></g></g></g></svg>