<svg height="512" viewBox="0 0 60 60" width="512" xmlns="http://www.w3.org/2000/svg"><g id="Page-1" fill="none" fill-rule="evenodd"><g id="021---Well" fill-rule="nonzero"><path id="Shape" d="m45 1 3 16h4.08c.6052731-.0173673 1.1694408-.3103307 1.5318183-.795449.3623776-.4851182.4832466-1.1092203.3281817-1.694551l-2.88-12c-.193757-.87441606-.9644295-1.50006948-1.86-1.51z" fill="#f57c00"/><path id="Shape" d="m40 1 2 16h6l-3-16z" fill="#ff9801"/><path id="Shape" d="m35 1 1 16h6l-2-16z" fill="#f57c00"/><path id="Shape" d="m30 1v16h6l-1-16z" fill="#ff9801"/><path id="Shape" d="m24 17h6v-16h-5z" fill="#f57c00"/><path id="Shape" d="m18 17h6l1-16h-5z" fill="#ff9801"/><path id="Shape" d="m12 17h6l2-16h-5z" fill="#f57c00"/><path id="Shape" d="m7.92 17h4.08l3-16h-4.2c-.89557055.00993052-1.66624298.63558394-1.86 1.51l-2.88 12c-.15506494.5853307-.03419585 1.2094328.32818166 1.694551.36237751.4851183.9265452.7780817 1.53181834.795449z" fill="#ff9801"/><path id="Rectangle-path" d="m8 17h4v17h-4z" fill="#a0522d"/><path id="Rectangle-path" d="m48 17h4v17h-4z" fill="#a0522d"/><path id="Shape" d="m59 36.5c.0021341.6636932-.2605727 1.3008186-.729877 1.770123-.4693044.4693043-1.1064298.7320111-1.770123.729877h-53c-1.38071187 0-2.5-1.1192881-2.5-2.5s1.11928813-2.5 2.5-2.5h53c1.3807119 0 2.5 1.1192881 2.5 2.5z" fill="#9e9e9e"/><path id="Shape" d="m56.5 34h-3c1.3807119 0 2.5 1.1192881 2.5 2.5s-1.1192881 2.5-2.5 2.5h3c1.3807119 0 2.5-1.1192881 2.5-2.5s-1.1192881-2.5-2.5-2.5z" fill="#707070"/><path id="Shape" d="m54 39v18c-.0032948 1.1032019-.8967981 1.9967052-2 2h-44c-1.10320187-.0032948-1.9967052-.8967981-2-2v-18z" fill="#ff5722"/><path id="Shape" d="m51 39v18c-.0032948 1.1032019-.8967981 1.9967052-2 2h3c1.1032019-.0032948 1.9967052-.8967981 2-2v-18z" fill="#d84315"/><path id="Shape" d="m25.11 34-1.05-4.51c-.1596246-.5759837-.0487021-1.1932998.3014547-1.6776834.3501568-.4843835.9015577-.7832815 1.4985453-.8123166h8.28c.5969876.0290351 1.1483885.3279331 1.4985453.8123166.3501568.4843836.4610793 1.1016997.3014547 1.6776834l-1.05 4.51" fill="#cfd8dc"/><path id="Shape" d="m34.14 27h-3c.5969876.0290351 1.1483885.3279331 1.4985453.8123166.3501568.4843836.4610793 1.1016997.3014547 1.6776834l-1.05 4.51h3l1.05-4.51c.1596246-.5759837.0487021-1.1932998-.3014547-1.6776834-.3501568-.4843835-.9015577-.7832815-1.4985453-.8123166z" fill="#9e9e9e"/><g fill="#000"><path id="Shape" d="m19 47c0-.5522847-.4477153-1-1-1h-7c-.5522847 0-1 .4477153-1 1s.4477153 1 1 1h7c.5522847 0 1-.4477153 1-1z"/><path id="Shape" d="m18 44h7c.5522847 0 1-.4477153 1-1s-.4477153-1-1-1h-7c-.5522847 0-1 .4477153-1 1s.4477153 1 1 1z"/><path id="Shape" d="m30 46h-7c-.5522847 0-1 .4477153-1 1s.4477153 1 1 1h7c.5522847 0 1-.4477153 1-1s-.4477153-1-1-1z"/><path id="Shape" d="m30 44h7c.5522847 0 1-.4477153 1-1s-.4477153-1-1-1h-7c-.5522847 0-1 .4477153-1 1s.4477153 1 1 1z"/><path id="Shape" d="m42 48c.5522847 0 1-.4477153 1-1s-.4477153-1-1-1h-7c-.5522847 0-1 .4477153-1 1s.4477153 1 1 1z"/><path id="Shape" d="m42 44h7c.5522847 0 1-.4477153 1-1s-.4477153-1-1-1h-7c-.5522847 0-1 .4477153-1 1s.4477153 1 1 1z"/><path id="Shape" d="m18 54h-7c-.5522847 0-1 .4477153-1 1s.4477153 1 1 1h7c.5522847 0 1-.4477153 1-1s-.4477153-1-1-1z"/><path id="Shape" d="m17 51c0 .5522847.4477153 1 1 1h7c.5522847 0 1-.4477153 1-1s-.4477153-1-1-1h-7c-.5522847 0-1 .4477153-1 1z"/><path id="Shape" d="m30 54h-7c-.5522847 0-1 .4477153-1 1s.4477153 1 1 1h7c.5522847 0 1-.4477153 1-1s-.4477153-1-1-1z"/><path id="Shape" d="m29 51c0 .5522847.4477153 1 1 1h7c.5522847 0 1-.4477153 1-1s-.4477153-1-1-1h-7c-.5522847 0-1 .4477153-1 1z"/><path id="Shape" d="m42 54h-7c-.5522847 0-1 .4477153-1 1s.4477153 1 1 1h7c.5522847 0 1-.4477153 1-1s-.4477153-1-1-1z"/><path id="Shape" d="m41 51c0 .5522847.4477153 1 1 1h7c.5522847 0 1-.4477153 1-1s-.4477153-1-1-1h-7c-.5522847 0-1 .4477153-1 1z"/><path id="Shape" d="m55.608 10.453c.4775395.9490926 1.4495405 1.5476935 2.512 1.547h.88c.5522847 0 1-.4477153 1-1s-.4477153-1-1-1h-.88c-.3087723-.0012985-.5904334-.17656291-.728-.453-.4775395-.94909258-1.4495405-1.5476935-2.512-1.547h-1.474l-1.372-5.718c-.3006884-1.32612935-1.4742522-2.27110913-2.834-2.282h-38.4c-1.35974776.01089087-2.5333116.95587065-2.834 2.282l-2.881 12c-.22248022.9099484-.0133177 1.8716533.567 2.607.34901984.4370517.8172475.7635606 1.348.94v15.171h-3.5c-1.93299657.0000001-3.49999985 1.5670034-3.49999985 3.5s1.56700328 3.4999999 3.49999985 3.5h1.5v17c0 1.6568542 1.34314575 3 3 3h44c1.6568542 0 3-1.3431458 3-3v-17h1.5c1.9329966-.0000001 3.4999999-1.5670034 3.4999999-3.5s-1.5670033-3.4999999-3.4999999-3.5h-3.5v-15.171c.5307525-.1764394.9989802-.5029483 1.348-.94.580527-.735253.7893761-1.6972134.566-2.607l-1.028-4.282h.994c.3087723.0012985.5904334.1765629.728.453zm-5.519-7.7 2.88 12c.0781832.3135568.0073372.6456475-.192.9-.1665739.2186069-.4251661.3475336-.7.349h-3.247l-2.625-14.002h2.995c.4341083.01345972.8020671.32347224.889.749zm-13.939 30.247.763-3.28c.2253589-.9206543.0139831-1.8937945-.573-2.638-.5280685-.6796144-1.3393487-1.0786168-2.2-1.082h-1.14v-2c-.0052514-1.2667854-.8056491-2.3937454-2-2.816v-3.184h16v15zm-10.25 0-.871-3.74c-.0816908-.3264583-.007862-.6723459.2-.937.1492575-.1992263.3821066-.3184185.631-.323h1.14v1c0 .5522847.4477153 1 1 1s1-.4477153 1-1v-1h2v1c0 .5522847.4477153 1 1 1s1-.4477153 1-1v-1h1.14c.2488934.0045815.4817425.1237737.631.323.2086841.2658205.2825339.6132841.2.941l-.871 3.736zm16.983-17-1.75-14h3.037l2.63 14zm-2.016 0h-3.928l-.875-14h3.053zm-5.931 0h-3.936v-14h3.061zm-4.936 7c.5522847 0 1 .4477153 1 1v2h-2v-2c0-.5522847.4477153-1 1-1zm-1-7h-3.936l.875-14h3.061zm-5.939 0h-3.928l1.75-14h3.053zm-5.944 0h-3.912l2.625-14h3.037zm-4.117 2h16v3.184c-1.1943509.4222546-1.9947486 1.5492146-2 2.816v2h-1.14c-.8606513.0033832-1.6719315.4023856-2.2 1.082-.586405.7433089-.798104 1.7151324-.574 2.635l.764 3.283h-10.85zm-5.97-3.251 2.881-12c.08693289-.42552776.4548917-.73554028.889-.749h3l-2.63 14h-3.249c-.27483389-.0014664-.53342615-.1303931-.7-.349-.19904903-.2552685-.26949714-.5879606-.191-.902zm1.97 3.251h2v15h-2zm44 28h-6c-.5522847 0-1 .4477153-1 1s.4477153 1 1 1h6v6h-6c-.5522847 0-1 .4477153-1 1s.4477153 1 1 1h6v1c0 .5522847-.4477153 1-1 1h-44c-.55228475 0-1-.4477153-1-1v-5h6c.5522847 0 1-.4477153 1-1s-.4477153-1-1-1h-6v-6h6c.5522847 0 1-.4477153 1-1s-.4477153-1-1-1h-6v-2h46zm5-9.5c0 .8284271-.6715729 1.5-1.5 1.5h-53c-.82842712 0-1.5-.6715729-1.5-1.5s.67157288-1.5 1.5-1.5h53c.8284271 0 1.5.6715729 1.5 1.5zm-9-3.5v-15h2v15z"/></g></g></g></svg>