<svg height="512" viewBox="0 0 60 52" width="512" xmlns="http://www.w3.org/2000/svg"><g id="Page-1" fill="none" fill-rule="evenodd"><g id="023---Eggs" fill-rule="nonzero"><rect id="Rectangle-path" fill="#ff9801" height="6" rx="1" width="58" x="1" y="30"/><path id="Shape" d="m58 30h-3c.5522847 0 1 .4477153 1 1v4c0 .5522847-.4477153 1-1 1h3c.5522847 0 1-.4477153 1-1v-4c0-.5522847-.4477153-1-1-1z" fill="#f57c00"/><path id="Shape" d="m28 20c.0484406 3.5223746-.8940617 6.9874565-2.72 10h-20.58c-1.81038239-3.0182605-2.74524639-6.4807197-2.7-10 0-9.94 5.82-19 13-19s13 9.06 13 19z" fill="#ffe0b2"/><path id="Shape" d="m15 1c-.5032465.00408994-1.0051665.05227427-1.5.144 6.472 1.156 11.5 9.619 11.5 18.856.0484406 3.5223746-.8940617 6.9874565-2.72 10h3c1.8259383-3.0125435 2.7684406-6.4776254 2.72-10 0-9.94-5.82-19-13-19z" fill="#dfc49c"/><path id="Shape" d="m26 36-3.21 12.03c-.4662159 1.7494985-2.0494484 2.9676852-3.86 2.97h-7.86c-1.81055158-.0023148-3.39378407-1.2205015-3.86-2.97l-3.21-12.03z" fill="#ff5722"/><path id="Shape" d="m23 36-3.21 12.03c-.4662159 1.7494985-2.0494484 2.9676852-3.86 2.97h3c1.8105516-.0023148 3.3937841-1.2205015 3.86-2.97l3.21-12.03z" fill="#d84315"/><path id="Shape" d="m58 20c.0468449 3.5208247-.8918362 6.9845927-2.71 10h-20.58c-1.8181638-3.0154073-2.7568449-6.4791753-2.71-10 0-9.94 5.82-19 13-19s13 9.06 13 19z" fill="#ffe0b2"/><path id="Shape" d="m45 1c-.5032465.00408994-1.0051665.05227427-1.5.144 6.472 1.156 11.5 9.619 11.5 18.856.0468449 3.5208247-.8918362 6.9845927-2.71 10h3c1.8181638-3.0154073 2.7568449-6.4791753 2.71-10 0-9.94-5.82-19-13-19z" fill="#dfc49c"/><path id="Shape" d="m56 36-3.21 12.03c-.4662159 1.7494985-2.0494484 2.9676852-3.86 2.97h-7.86c-1.8105516-.0023148-3.3937841-1.2205015-3.86-2.97l-3.21-12.03z" fill="#ff5722"/><path id="Shape" d="m53 36-3.21 12.03c-.4662159 1.7494985-2.0494484 2.9676852-3.86 2.97h3c1.8105516-.0023148 3.3937841-1.2205015 3.86-2.97l3.21-12.03z" fill="#d84315"/><path id="Shape" d="m58 29h-1.06c1.4079183-2.7879919 2.1149954-5.8771634 2.06-9 0-10.841-6.411-20-14-20s-14 9.159-14 20c-.0549954 3.1228366.6520817 6.2120081 2.06 9h-6.127c1.4033574-2.7898996 2.1124439-5.877359 2.067-9 0-10.841-6.411-20-14-20s-14 9.159-14 20c-.05436342 3.1220792.65051352 6.2106345 2.054 9h-1.054c-1.1045695 0-2 .8954305-2 2v4c0 1.1045695.8954305 2 2 2h1.232l3.01 11.289c.58605036 2.1870066 2.56683412 3.7085733 4.831 3.711h7.854c2.2641659-.0024267 4.2449496-1.5239934 4.831-3.711l3.01-11.289h6.464l3.01 11.289c.5860504 2.1870066 2.5668341 3.7085733 4.831 3.711h7.854c2.2641659-.0024267 4.2449496-1.5239934 4.831-3.711l3.01-11.289h1.232c1.1045695 0 2-.8954305 2-2v-4c0-1.1045695-.8954305-2-2-2zm-25-9c0-9.589 5.607-18 12-18s12 8.411 12 18c.0466594 3.1520975-.7501814 6.259362-2.308 9h-19.384c-1.5578186-2.740638-2.3546594-5.8479025-2.308-9zm-30 0c0-9.589 5.607-18 12-18s12 8.411 12 18c.0492586 3.1535606-.7510596 6.2622634-2.317 9h-19.383c-1.5522685-2.7425316-2.34614023-5.8489862-2.3-9zm18.826 27.773c-.3502356 1.3133615-1.5397416 2.2271352-2.899 2.227h-7.854c-1.3596302.0005884-2.54966871-.9132791-2.9-2.227l-2.873-10.773h1.93l1.67 6.258c.11683968.4375352.513133.7419344.966.742.0874389-.0001078.1744959-.0115361.259-.034.5334562-.1425559.8504065-.6905039.708-1.224l-1.533-5.742h15.4zm30 0c-.3502356 1.3133615-1.5397416 2.2271352-2.899 2.227h-7.854c-1.3596302.0005884-2.5496687-.9132791-2.9-2.227l-2.873-10.773h1.93l1.67 6.258c.1168397.4375352.513133.7419344.966.742.0874389-.0001078.1744959-.0115361.259-.034.5334562-.1425559.8504065-.6905039.708-1.224l-1.533-5.742h15.4zm-49.826-12.773v-4h56v4z" fill="#000"/><g fill="#f5f5f5"><path id="Shape" d="m6.1 19c-.032 0-.064 0-.1 0-.26575423-.025234-.51038752-.1556769-.67943007-.3622845-.16904255-.2066075-.24846021-.4722269-.22056993-.7377155.647-6.683 4.615-13.9 9.9-13.9.5522847 0 1 .44771525 1 1s-.4477153 1-1 1c-3.653 0-7.275 5.54-7.908 12.1-.0512396.5098505-.47958345.898469-.992.9z"/><circle id="Oval" cx="6.24" cy="22" r="1"/><path id="Shape" d="m35.992 19c-.033 0-.065 0-.1 0-.2642212-.0253028-.507543-.1546131-.6763577-.3594415-.1688146-.2048284-.2492706-.4683687-.2236423-.7325585.649-6.691 4.618-13.908 9.908-13.908.5522847 0 1 .44771525 1 1s-.4477153 1-1 1c-3.654 0-7.275 5.54-7.909 12.1-.0515058.5125183-.4839043.9020665-.999.9z"/><circle id="Oval" cx="36.135" cy="22" r="1"/></g></g></g></svg>