<svg height="512" viewBox="0 0 60 60" width="512" xmlns="http://www.w3.org/2000/svg"><g id="Page-1" fill="none" fill-rule="evenodd"><g id="024---Smart-Tractor" transform="translate(0 -1)"><g fill-rule="nonzero"><path id="Shape" d="m13 28c-6.49723804.0009417-11.81361528 5.1727383-11.99365283 11.6674816-.18003755 6.4947432 4.84166602 11.9531166 11.32887423 12.3139937 6.4872083.3608771 12.083342-4.5068364 12.6247786-10.9814753.03-.33.04-.66.04-1 0-3.1825979-1.2642821-6.2348448-3.5147186-8.4852814-2.2504366-2.2504365-5.3026835-3.5147186-8.4852814-3.5147186zm0 20c-4.418278 0-8-3.581722-8-8s3.581722-8 8-8 8 3.581722 8 8c-.0060592 4.4157658-3.5842342 7.9939408-8 8z" fill="#37474f"/><circle id="Oval" cx="13" cy="40" fill="#ffdc00" r="8"/><path id="Shape" d="m13 32c-.5034862.0012374-1.0057254.050122-1.5.146 3.7617378.7286911 6.4785914 4.0223343 6.4785914 7.854s-2.7168536 7.1253089-6.4785914 7.854c2.9882143.5787933 6.0459964-.5882722 7.8886671-3.0108722 1.8426707-2.4225999 2.1509569-5.6809788.7953368-8.4061798s-4.1402627-4.4450378-7.1840039-4.436948z" fill="#fec108"/><circle id="Oval" cx="13" cy="40" fill="#cfd8dc" r="2"/><path id="Shape" d="m58 38.89c-1.5380492-3.0018112-4.6270983-4.8899925-8-4.89-.6726367.0012264-1.3431799.0749861-2 .22-3.7314942.8551827-6.5148637 3.9754441-6.94 7.78-.0402091.3318128-.060246.6657599-.06 1 0 4.9705627 4.0294373 9 9 9s9-4.0294373 9-9c.0024315-1.4305305-.340625-2.8404929-1-4.11zm-8 9.11c-2.7614237 0-5-2.2385763-5-5s2.2385763-5 5-5 5 2.2385763 5 5-2.2385763 5-5 5z" fill="#37474f"/><circle id="Oval" cx="50" cy="43" fill="#ffdc00" r="5"/><path id="Shape" d="m50 38c-.5101742.0069635-1.0161845.0929853-1.5.255 2.0814019.6426105 3.5010321 2.5666561 3.5010321 4.745s-1.4196302 4.1023895-3.5010321 4.745c.4838155.1620147.9898258.2480365 1.5.255 2.7614237 0 5-2.2385763 5-5s-2.2385763-5-5-5z" fill="#fec108"/><path id="Shape" d="m29 40v1h-4.04c.03-.33.04-.66.04-1-.004841-4.1698987-2.1715675-8.0390616-5.7243677-10.2221075s-7.983491-2.3677177-11.7056323-.4878925l-2.05-3.43c2.30183883-1.2272446 4.8714462-1.8662112 7.48-1.86 8.836556 0 16 7.163444 16 16z" fill="#545c60"/><path id="Shape" d="m5.52 25.86c-.52469464.2721517-1.03230353.5760491-1.52.91" fill="#60a917"/></g><path id="Shape" d="m27 52h32" stroke="#000" stroke-linecap="round" stroke-linejoin="round" stroke-width="2"/><path id="Shape" d="m1 52h22" stroke="#000" stroke-linecap="round" stroke-linejoin="round" stroke-width="2"/><path id="Shape" d="m30 52v8" stroke="#000" stroke-linecap="round" stroke-linejoin="round" stroke-width="2"/><path id="Shape" d="m14 52-5 8" stroke="#000" stroke-linecap="round" stroke-linejoin="round" stroke-width="2"/><path id="Shape" d="m46 52 5 8" stroke="#000" stroke-linecap="round" stroke-linejoin="round" stroke-width="2"/><path id="Shape" d="m48 20v14.22c-3.7314942.8551827-6.5148637 3.9754441-6.94 7.78h-11.06c-.5522847 0-1-.4477153-1-1v-1c0-8.836556-7.163444-16-16-16v-1c0-1.6568542 1.3431458-3 3-3z" fill="#008a00" fill-rule="nonzero"/><path id="Shape" d="m45 20v14.22c-3.7314942.8551827-6.5148637 3.9754441-6.94 7.78h3c.4251363-3.8045559 3.2085058-6.9248173 6.94-7.78v-14.22z" fill="#007900" fill-rule="nonzero"/><path id="Shape" d="m58 29v9.89c-1.5380492-3.0018112-4.6270983-4.8899925-8-4.89-.6726367.0012264-1.3431799.0749861-2 .22v-5.22z" fill="#7f8e94" fill-rule="nonzero"/><path id="Shape" d="m55 29v6.538c1.2667246.8464057 2.2987397 1.9995106 3 3.352v-9.89z" fill="#545c60" fill-rule="nonzero"/><path id="Shape" d="m48 34.071v.149c.163-.036.332-.055.5-.083-.166-.027-.332-.047-.5-.066z" fill="#545c60" fill-rule="nonzero"/><path id="Shape" d="m58 27v2h-10v-9h3c3.8659932 0 7 3.1340068 7 7z" fill="#60a917" fill-rule="nonzero"/><path id="Shape" d="m51 20h-3c3.8659932 0 7 3.1340068 7 7v2h3v-2c0-3.8659932-3.1340068-7-7-7z" fill="#549414" fill-rule="nonzero"/><path id="Shape" d="m53 29v-3" stroke="#000" stroke-linecap="round" stroke-linejoin="round" stroke-width="2"/><path id="Shape" d="m23 19v1h-6v-1c0-1.6568542 1.3431458-3 3-3s3 1.3431458 3 3z" fill="#02a9f4" fill-rule="nonzero"/><path id="Shape" d="m13 31c-4.97056275 0-9 4.0294373-9 9s4.02943725 9 9 9c4.9705627 0 9-4.0294373 9-9-.006061-4.9680501-4.0319499-8.993939-9-9zm0 16c-3.86599325 0-7-3.1340068-7-7s3.13400675-7 7-7c3.8659932 0 7 3.1340068 7 7-.0044086 3.8641657-3.1358343 6.9955914-7 7z" fill="#000" fill-rule="nonzero"/><path id="Shape" d="m13 37c-1.6568542 0-3 1.3431458-3 3s1.3431458 3 3 3 3-1.3431458 3-3-1.3431458-3-3-3zm0 4c-.5522847 0-1-.4477153-1-1s.4477153-1 1-1 1 .4477153 1 1-.4477153 1-1 1z" fill="#000" fill-rule="nonzero"/><path id="Shape" d="m60 43c-.0015909-1.5003851-.3435028-2.9808635-1-4.33v-11.67c-.0049599-4.4162219-3.5837781-7.9950401-8-8h-27c0-2.209139-1.790861-4-4-4s-4 1.790861-4 4c-2.209139 0-4 1.790861-4 4v.037c-2.4405531.1403229-4.82132182.8101594-6.977 1.963h-.016l-.007.008c-.53790307.2834395-1.06000616.5959002-1.564.936-.45729177.3114886-.5754886.9347082-.264 1.392s.93470823.5754886 1.392.264c.2-.135.4-.255.6-.379l1.036 1.722c-3.83338653 2.3446124-6.17924257 6.507108-6.19961484 11.0006194s2.28764503 8.6771064 6.09961484 11.0563806h-5.1c-.55228475 0-1 .4477153-1 1s.44771525 1 1 1h11.2l-4.048 6.47c-.29271089.469442-.14944201 1.0872891.32000002 1.38.46944202.2927109 1.08728905.149442 1.37999998-.32l4.702-7.53h8.446c.5522847 0 1-.4477153 1-1s-.4477153-1-1-1h-3.1c3.1861376-2.0008374 5.3499225-5.2831675 5.933-9h2.448c.3538758.6158265 1.0087465.9967868 1.719 1h10c.0030485 3.1526562 1.4952773 6.1185767 4.025 8h-17.025c-.5522847 0-1 .4477153-1 1s.4477153 1 1 1h2v7c0 .5522847.4477153 1 1 1s1-.4477153 1-1v-7h14.446l4.706 7.53c.1893508.3036758.5263272.4832663.8839935.4711216s.6816844-.2141796.85-.53c.1683155-.3158205.1553573-.6974458-.0339935-1.0011216l-4.052-6.47h11.2c.5522847 0 1-.4477153 1-1s-.4477153-1-1-1h-3.025c2.5297227-1.8814233 4.0219515-4.8473438 4.025-8zm-11-13h8v5.871c-2.1126564-2.0860431-5.0462197-3.1201241-8-2.82zm8-3v1h-3v-2c0-.5522847-.4477153-1-1-1s-1 .4477153-1 1v2h-3v-7h2c3.3123376.0033074 5.9966926 2.6876624 6 6zm-37-10c1.1045695 0 2 .8954305 2 2h-4c0-1.1045695.8954305-2 2-2zm-7 34c-6.07513225 0-11-4.9248678-11-11s4.92486775-11 11-11c6.0751322 0 11 4.9248678 11 11-.0071635 6.0721626-4.9278374 10.9928365-11 11zm0-24c-1.7268157-.0013362-3.43641931.3431006-5.028 1.013l-1.033-1.729c4.6381331-2.0539311 10.0003407-1.6230276 14.2509684 1.1451985s6.8130362 7.4982378 6.8100342 12.5708015h-2.0000026c-.008266-7.1762751-5.8237249-12.991734-13-13zm17 14v-1c0-.338-.031-.667-.051-1h3.051c.5522847 0 1-.4477153 1-1s-.4477153-1-1-1h-3.281c-.1164167-.675665-.2740443-1.3435782-.472-2h2.753c.5522847 0 1-.4477153 1-1s-.4477153-1-1-1h-3.526c-.3128582-.6899408-.6716643-1.3581086-1.074-2h2.6c.5522847 0 1-.4477153 1-1s-.4477153-1-1-1h-4.062c-2.9992466-3.530968-7.312941-5.6805884-11.938-5.949v-.051c0-1.1045695.8954305-2 2-2h31v3h-19c-.5522847 0-1 .4477153-1 1s.4477153 1 1 1h19v7.461c-3.4647144 1.0960754-6.065913 3.9799631-6.8 7.539zm12 2c0-4.418278 3.581722-8 8-8s8 3.581722 8 8-3.581722 8-8 8c-4.4162219-.0049599-7.9950401-3.5837781-8-8z" fill="#000" fill-rule="nonzero"/><path id="Shape" d="m50 37c-3.3137085 0-6 2.6862915-6 6s2.6862915 6 6 6 6-2.6862915 6-6c-.0033074-3.3123376-2.6876624-5.9966926-6-6zm0 10c-2.209139 0-4-1.790861-4-4s1.790861-4 4-4 4 1.790861 4 4-1.790861 4-4 4z" fill="#000" fill-rule="nonzero"/><circle id="Oval" cx="50" cy="43" fill="#000" fill-rule="nonzero" r="1"/><path id="Shape" d="m11 6c-.424813.00019929-.8033866-.26802335-.9440546-.6688708-.14066795-.40084745-.0127245-.84682031.3190546-1.1121292 2.7526317-2.12938262 6.1451684-3.26398789 9.625-3.219 3.4804283-.04488842 6.8735656 1.08968197 9.627 3.219.4313344.34517797.501178.97466561.156 1.406s-.9746656.50117797-1.406.156c-2.3984727-1.84580698-5.3508381-2.8259345-8.377-2.781-3.0262712-.04564476-5.9788644.93455837-8.377 2.781-.1768763.14144068-.3965258.21865293-.623.219z" fill="#ef314c" fill-rule="nonzero"/><path id="Shape" d="m26 10c-.2268173-.00012049-.4468557-.0773455-.624-.219-1.5395253-1.1836029-3.4343166-1.81132301-5.376-1.781-1.9420246-.03054973-3.8372049.59718248-5.377 1.781-.4315746.3407114-1.0572621.2690699-1.4006534-.16037546-.3433912-.42944531-.275646-1.05556663.1516534-1.40162454 1.894674-1.46676136 4.2301107-2.24888241 6.626-2.219 2.3958893-.02988241 4.731326.75223864 6.626 2.219.3319233.26542335.4598195.71165099.3188902 1.11260176-.1409294.40095078-.5198935.66902314-.9448902.66839824z" fill="#ef314c" fill-rule="nonzero"/><path id="Shape" d="m17 14c-.424813.0001993-.8033866-.2680233-.9440546-.6688708-.1406679-.4008474-.0127245-.8468203.3190546-1.1121292 2.1434528-1.6251362 5.1065472-1.6251362 7.25 0 .4272994.3460579.4950446.9721792.1516534 1.4016245-.3433913.4294454-.9690788.5010869-1.4006534.1603755-1.4235421-1.0071422-3.3274579-1.0071422-4.751 0-.1774122.1418687-.3978397.2191065-.625.219z" fill="#ef314c" fill-rule="nonzero"/></g></g></svg>