<svg height="512" viewBox="0 0 60 60" width="512" xmlns="http://www.w3.org/2000/svg"><g id="Page-1" fill="none" fill-rule="evenodd"><g id="025---Chainsaw" fill-rule="nonzero"><path id="Shape" d="m58.331 5.575c-.0048614 1.02370789-.4155567 2.00369449-1.142 2.725l-21.925 21.79-5.459-5.476 21.925-21.788c1.109728-1.1017321 2.7732315-1.42780259 4.2167695-.82654715 1.443538.60125543 2.3837156 2.01179854 2.3832305 3.57554715z" fill="#9e9e9e"/><path id="Shape" d="m57.205 2.842c-1.1157393-1.11324953-2.7934018-1.44230364-4.247-.833 1.1893225.49491205 2.0524236 1.55171073 2.2997999 2.81592232.2473763 1.2642116-.1537378 2.56838731-1.0687999 3.47507768l-20.418 20.293 1.493 1.5 21.925-21.793c.7280818-.72089202 1.1390508-1.70208934 1.1420532-2.72667677.0030025-1.02458743-.4022089-2.00817648-1.1260532-2.73332323z" fill="#707070"/><path id="Shape" d="m35.26 30.1-5.45-5.48-2.73-2.74c-.7208863-.727631-1.7015914-1.1386398-2.725852-1.1423917-1.0242607-.0037519-2.0079504.4000614-2.734148 1.1223917l-13.75 13.66c-1.17210048 1.16845-2.08224153 2.5728624-2.67 4.12l-4.03 10.66c-.3586938.94181-.13167896 2.0064313.58 2.72l5.19 5.22c1.00242482 1.0078526 2.6320527 1.0123296 3.64.01l24.67-24.51c1.0078526-1.0024248 1.0123296-2.6320527.01-3.64zm-19.18 15.42-6.39 6.35c-.24083176.2423156-.5683616.3785726-.91.3785726s-.66916824-.136257-.91-.3785726l-.68-.68c-.37061513-.3742679-.47739092-.9358295-.27-1.42l3.87-8.9c.1716681-.3917393.5262072-.6730297.9467197-.7511249.4205125-.0780951.8524069.0571433 1.1532803.3611249l3.2 3.22c.2409972.2421606.3754578.5704401.3735807.9120801-.0018772.34164-.139937.6684221-.3835807.9079199z" fill="#ff9801"/><path id="Shape" d="m35.26 30.1-5.45-5.48-2.73-2.74c-1.1079433-1.1184512-2.7854366-1.4491967-4.235-.835.4625347.1944782.8822.4782195 1.235.835l2.73 2.74 5.45 5.48c1.0023296 1.0079473.9978526 2.6375752-.01 3.64l-24.67 24.51c-.0984268.0939285-.20445502.1795538-.317.256 1.01932068.7379306 2.42298035.6295987 3.317-.256l24.67-24.51c1.0078526-1.0024248 1.0123296-2.6320527.01-3.64z" fill="#f57c00"/><path id="Shape" d="m21.62 21.86-13.75 13.66-1.68-2.88c-.58500653-1.0129736-.41685581-2.2925596.41-3.12l9.56-9.5c1.0099749-.9973837 2.6355204-.9929179 3.64.01z" fill="#ff5722"/><rect id="Rectangle-path" fill="#ff5722" height="7.728" rx="1" transform="matrix(.709 -.705 .705 .709 -17.216 25.653)" width="12.88" x="16.055" y="29.836"/><path id="Shape" d="m29.082 31.191-4.039-4.061c-.3904999-.3903819-1.0235001-.3903819-1.414 0l-.8.795 3.253 3.27c.187777.1875683.2932867.4420908.2932867.7075s-.1055097.5199317-.2932867.7075l-6.922 6.87.787.791c.3904999.3903819 1.0235001.3903819 1.414 0l7.717-7.669c.389495-.3890519.3912829-1.019746.004-1.411z" fill="#d84315"/><g fill="#000"><path id="Shape" d="m13.6 39.772c-.5347037-.537391-1.300787-.7751897-2.0458063-.6350355-.7450194.1401541-1.3723212.6400785-1.6751937 1.3350355l-3.869 8.9c-.37787038.8590463-.18919849 1.8619864.475 2.525l.678.682c.89198163.8939952 2.33905943.8980198 3.236.009l6.394-6.355c.4309874-.4275047.6742379-1.0088784.6761138-1.6159261s-.2377768-1.1899137-.6661138-1.6200739zm1.783 5.038-6.4 6.356c-.11266342.1117278-.29433658.1117278-.407 0l-.676-.684c-.08286255-.0831337-.10628207-.2085671-.059-.316l3.869-8.895c.0367954-.0885344.1164726-.1519741.211-.168.0938354-.0191883.1909958.0105623.258.079l3.2 3.221c.053641.0527361.0838983.1247774.084.2.0011898.077725-.0295315.1525405-.085.207z"/><path id="Shape" d="m58.525 8.237c1.269403-1.92126141 1.0128316-4.47026122-.614-6.1-1.6301665-1.61914858-4.1664531-1.88816127-6.1-.647l-1.184-1.19c-.3912818-.3802342-1.0151263-.3766503-1.4020136.00805436-.3868874.38470466-.3940008 1.00851882-.0159864 1.40194564l1.108 1.11-2.236 2.222-1.109-1.115c-.2503602-.26056791-.6218199-.36579985-.9716463-.27526065-.3498264.09053921-.6235957.36276405-.7161127.71207261-.092517.34930857.0106117.72135765.269759.97318804l1.109 1.114-2.236 2.222-1.109-1.115c-.2503602-.26056791-.6218199-.36579985-.9716463-.27526065-.3498264.09053921-.6235957.36276405-.7161127.71207261-.092517.34930857.0106117.72135765.269759.97318804l1.109 1.115-2.236 2.222-1.109-1.115c-.2503602-.2605679-.6218199-.3657999-.9716463-.2752606-.3498264.0905392-.6235957.362764-.7161127.7120726-.092517.3493085.0106117.7213576.269759.973188l1.108 1.114-2.235 2.222-1.109-1.115c-.2503602-.2605679-.6218199-.3657999-.9716463-.2752606-.3498264.0905392-.6235957.362764-.7161127.7120726-.092517.3493085.0106117.7213576.269759.973188l1.108 1.115-2.236 2.222-1.109-1.115c-.3912818-.3802342-1.0151263-.3766503-1.4020136.0080544-.3868874.3847046-.3940008 1.0085188-.0159864 1.4019456l1.109 1.114-2.236 2.223-2.017-2.028c-1.6249134-1.6295551-4.1681891-1.9005599-6.1-.65l-1.186-1.192c-1.3938344-1.3978783-3.6558991-1.4045867-5.058-.015l-1.371 1.365-1.461-1.468c-.5626643-.563025-1.3260174-.8793595-2.122-.8793595s-1.5593357.3163345-2.122.8793595l-.71.71c-1.16305296 1.1752291-1.16305296 3.0677709 0 4.243l1.445 1.455-3.208 3.188c-1.15231962 1.1457287-1.38727817 2.9243485-.572 4.33l1.31 2.262c-1.02369086 1.1408662-1.82845375 2.4605553-2.374 3.893l-4.032 10.649c-.4949835 1.311855-.1788066 2.7919068.809 3.787l5.188 5.216c1.39280341 1.399412 3.65591934 1.4061248 5.057.015l15.582-15.485 1.525 1.532c1.1697757 1.1705304 3.0664662 1.1727676 4.239.005l.725-.715c1.1635958-1.1750059 1.1635958-3.0679941 0-4.243l-1.515-1.523 4.109-4.084c1.1331653-1.1137107 1.3820741-2.8474755.608-4.235l2.349-2.333 1.112 1.121c.2505347.2604338.6220895.3654361.9718784.2746553s.6233862-.3632197.7156505-.7126202c.0922642-.3494005-.0111606-.7213975-.2705289-.9730351l-1.11-1.116 2.236-2.222 1.111 1.117c.3912818.3802342 1.0151263.3766503 1.4020136-.0080544.3868874-.3847046.3940008-1.0085188.0159864-1.4019456l-1.11-1.117 2.235-2.222 1.111 1.117c.2503602.2605679.6218199.3657999.9716463.2752606.3498264-.0905392.6235957-.362764.7161127-.7120726.092517-.3493085-.0106117-.7213576-.269759-.973188l-1.11-1.116 2.236-2.222 1.11 1.117c.3907415.3915699 1.0249301.3922414 1.4165.0015.3915698-.3907415.3922414-1.0249301.0015-1.4165l-1.11-1.116 2.236-2.222 1.111 1.117c.3912818.3802342 1.0151263.3766503 1.4020136-.0080544.3868874-.3847046.3940008-1.0085188.0159864-1.4019456l-1.111-1.117 2.236-2.222 1.111 1.117c.3912818.3802342 1.0151263.3766503 1.4020136-.0080544.3868874-.3847046.3940008-1.00851878.0159864-1.4019456zm-24.371 13.463.014-.01.009-.013 3.631-3.608s.01-.006.014-.01.006-.01.01-.015l3.631-3.608.014-.009.009-.014 3.63-3.608c.005 0 .011 0 .015-.009s.005-.01.01-.015l3.63-3.608.014-.009.009-.014 3.631-3.608s.01 0 .014-.009l.006-.009c1.1284524-1.10221047 2.9329362-1.09374708 4.051.019.537129.5370429.8373898 1.26645333.834 2.026-.0006903.75924572-.3057886 1.48651077-.847 2.019l-3.653 3.63-3.651 3.628-3.65 3.628-3.649 3.627-3.67 3.652-2.937 2.919-1.273-1.262 18.7-18.7c.2599566-.25107447.3642126-.62287789.2726972-.97250732-.0915155-.34962944-.3645604-.6226744-.7141899-.71418984-.3496294-.09151544-.7214328.01274058-.9725073.27269716l-18.7 18.7-1.371-1.376zm-17.291-.97c.6177144-.6135077 1.6155959-.6108228 2.23.006l1.107 1.12-2.492 2.476-2.219-2.232zm-7.781 2.027c-.18997534-.1870992-.29736206-.4423204-.29830093-.7089584-.00093886-.2666381.10464789-.5226092.29330093-.7110416l.71-.71c.3904999-.3903819 1.0235001-.3903819 1.414 0l1.458 1.466-2.132 2.117zm-1.772 7.47 6.76-6.719 2.224 2.234-8.211 8.158-1.025-1.766c-.35974101-.618949-.25616709-1.4027405.252-1.907zm2.566 27.315c-.61821567.6126816-1.6156429.6095506-2.23-.007l-5.188-5.216c-.43521221-.4385826-.57504989-1.0905074-.358-1.669l4.034-10.65c.53308965-1.4152924 1.365373-2.6988506 2.44-3.763l9.126-9.077 2.223 2.234-4.722 4.692c-.3761776.3741667-.5882626.882476-.5895755 1.4130498-.0013128.5305739.2082541 1.0399265.5825755 1.4159502l4.039 4.062c.778952.7820346 2.0441847.7851675 2.827.007l4.725-4.695 2.223 2.234-2.842 2.824h-.006v.006zm15.5-22.67-4.723 4.694-4.036-4.066 4.722-4.692zm-2.619-5.472 1.576-1.567 4.04 4.061-1.573 1.568zm9.181 12.06c.1894144.1862769.2969218.4402686.2987979.7059252.0018761.2656565-.1020333.5211412-.2887979.7100748l-.725.715c-.3964953.3756256-1.0175047.3756256-1.414 0l-1.523-1.529 2.138-2.124zm2.6-8.434-4.11 4.085-2.219-2.231 1.574-1.565c.3763107-.3740338.5885759-.8822686.5900762-1.4128427.0015004-.530574-.2078869-1.0400012-.5820762-1.4161573l-4.039-4.061c-.3730736-.3778225-.8820258-.5903361-1.413-.59-.5286911-.0012069-1.036087.2082288-1.41.582l-1.578 1.567-2.228-2.234 3.2-3.18c1.1227586-1.1134089 2.9348574-1.108041 4.051.012l2.719 2.734 2.781 2.79v.007h.007l2.637 2.645c.009.01.012.023.022.033.2946314.2963223.4594298.6975833.4581169 1.1154503-.0013128.417867-.1686294.8180846-.4651169 1.1125497z"/></g></g></g></svg>