<svg height="512" viewBox="0 0 37 60" width="512" xmlns="http://www.w3.org/2000/svg"><g id="Page-1" fill="none" fill-rule="evenodd"><g id="027---Sickle" fill-rule="nonzero" transform="translate(-1)"><path id="Shape" d="m25 39c-.0081672 1.1011688-.8988312 1.9918328-2 2h-6c-1.1032019-.0032948-1.9967052-.8967981-2-2 .0081672-1.1011688.8988312-1.9918328 2-2h6c1.1032019.0032948 1.9967052.8967981 2 2z" fill="#ffdc00"/><path id="Shape" d="m24 56v2c0 .5522847-.4477153 1-1 1h-6c-.5522847 0-1-.4477153-1-1v-2c0-.5522847.4477153-1 1-1v-14h6v14c.5522847 0 1 .4477153 1 1z" fill="#02a9f4"/><path id="Shape" d="m23 55v-14h-3v14c.5522847 0 1 .4477153 1 1v2c0 .5522847-.4477153 1-1 1h3c.5522847 0 1-.4477153 1-1v-2c0-.5522847-.4477153-1-1-1z" fill="#0377bc"/><path id="Shape" d="m34.1 18.95c-.1408264.0199775-.283496-.0209686-.3922942-.1125881s-.1734263-.2252399-.1777058-.3674119c-.1648417-7.3970493-6.1421956-13.34350109-13.54-13.47-.5345884.00035156-1.0687445.03039785-1.6.09-7.0401331.80929856-12.36529481 6.7514945-12.40098175 13.8379015s5.22935675 13.081935 12.26098175 13.9620985c1.0079597.1502372 1.7506357 1.0209609 1.74 2.04v2.07c-9.5670668.0340672-17.48922867-7.4218586-18.03480392-16.9734174-.54557524-9.5515589 6.47608157-17.86106027 15.98480392-18.9165826.6806331-.07625512 1.365115-.11298341 2.05-.11 8.1104946-.01734852 15.1371471 5.61895917 16.88 13.54.72 3.44-1.65 4.23-2.77 4.41z" fill="#9e9e9e"/><path id="Shape" d="m19.989 0c-.7213071-.00322942-1.4421914.03550266-2.159.116-8.77099659 1.03233178-15.68548911 7.95220329-16.711 16.724-1.06031938 9.1690814 4.64125555 17.767901 13.5 20.36-.5821949.7565963-.7650572 1.7469929-.4914265 2.661605.2736307.914612.97037 1.6418522 1.8724265 1.954395v12.453c-.6184772.3570778-.9996247 1.0168443-1 1.731v2c0 1.1045695.8954305 2 2 2h6c1.1045695 0 2-.8954305 2-2v-2c-.0003753-.7141557-.3815228-1.3739222-1-1.731v-12.453c1.3765475-.4848523 2.2026937-1.8918441 1.9553873-3.330178s-1.49595-2.4885874-2.9553873-2.485822h-2.011v-1.07c.0103771-1.5224428-1.1074078-2.8176199-2.615-3.03-6.5344961-.8111151-11.43060465-6.3798714-11.39846864-12.9644378.03213601-6.5845663 4.98236674-12.10526755 11.52446864-12.8525622 3.5433093-.37362927 7.0806088.75834484 9.7486971 3.11968861 2.6680884 2.36134379 4.2215524 5.73485859 4.2813029 9.29731139.0134456.4243364.2060783.8231009.5301229 1.0973951.3240445.2742942.7491471.3984245 1.1698771.3416049h.027c1.2112928-.1590269 2.3078217-.7982784 3.043-1.774.7081807-1.1447215.9050813-2.5335416.543-3.83-1.8350754-8.38527345-9.2702997-14.35502479-17.854-14.335zm3.011 58h-6v-2h1c.5522847 0 1-.4477153 1-1s-.4477153-1-1-1v-12h4v12c-.5522847 0-1 .4477153-1 1s.4477153 1 1 1h.986.014zm1-19c0 .5522847-.4477153 1-1 1h-6c-.5522847 0-1-.4477153-1-1s.4477153-1 1-1h6c.5522847 0 1 .4477153 1 1zm11.654-21.969c-.2890157.3856509-.6959238.6665193-1.159.8-.2384461-4.0066848-2.1064086-7.7411873-5.1694794-10.33502177-3.0630709-2.59383444-7.0543081-3.82095223-11.0455206-3.39597823-7.5438314.86444949-13.25183284 7.2298192-13.29211044 14.822911s5.59987424 14.0186578 13.13411044 14.963089c.5072283.0888801.8747282.5331014.867 1.048v1.04c-8.8385018-.4787243-15.8306926-7.6594534-16.07413705-16.507562s6.34332976-16.40244557 15.14213705-17.366438c.6415335-.0705535 1.2866106-.10394259 1.932-.1 7.6392971-.02399546 14.2607844 5.28360554 15.9 12.745.2351695.7623132.1503431 1.5874753-.235 2.286z" fill="#000"/></g></g></svg>