<svg height="512" viewBox="0 0 60 60" width="512" xmlns="http://www.w3.org/2000/svg"><g id="Page-1" fill="none" fill-rule="evenodd"><g id="028---Wireless-Farm-House" fill-rule="nonzero" transform="translate(0 -1)"><circle id="Oval" cx="40" cy="21" fill="#ef314c" r="2"/><path id="Shape" d="m38 36.413v23.587h-7v-13c0-.5522847-.4477153-1-1-1h-18c-.5522847 0-1 .4477153-1 1v13h-7v-23.587c.29202756-.159921.53951026-.3902174.72-.67l5.22-8c.1552404-.2402436.3597564-.4447596.6-.6l9.39-5.98c.6543938-.4100903 1.4856062-.4100903 2.14 0l9.39 5.98c.2402436.1552404.4447596.3597564.6.6l5.22 8c.1804897.2797826.4279724.510079.72.67z" fill="#f44335"/><path id="Shape" d="m37.281 35.743-5.22-8c-.1552404-.2402436-.3597564-.4447596-.6-.6l-9.39-5.98c-.6543938-.4100903-1.4856062-.4100903-2.14 0l-.43.273 8.96 5.707c.2402436.1552404.4447596.3597564.6.6l5.22 8c.1804897.2797826.4279724.510079.72.67v23.587h3v-23.587c-.2920276-.159921-.5395103-.3902174-.72-.67z" fill="#c81e1e"/><path id="Shape" d="m31 47v13h-4v-14h3c.5522847 0 1 .4477153 1 1z" fill="#624421"/><path id="Rectangle-path" d="m15.001 46.003h12v14h-12z" fill="#825a2c"/><path id="Rectangle-path" d="m24.001 46.003h3v14h-3z" fill="#624421"/><path id="Shape" d="m15 46v14h-4v-13c0-.5522847.4477153-1 1-1z" fill="#624421"/><path id="Shape" d="m40.411 36.082c-.3822942.3732994-.8956775.5818838-1.43.581-.68628.0025163-1.3267502-.344091-1.7-.92l-5.22-8c-.1552404-.2402436-.3597564-.4447596-.6-.6l-9.39-5.98c-.6543938-.4100903-1.4856062-.4100903-2.14 0l-9.39 5.98c-.2402436.1552404-.4447596.3597564-.6.6l-5.22 8c-.18048974.2797826-.42797244.510079-.72.67-.78748771.4382379-1.76982208.3033198-2.41-.331-.67944001-.6620215-.78489239-1.7165453-.25-2.5l6.68-9.849c.16024505-.2403046.37204946-.4418605.62-.59l11.32-6.85c.6382219-.3909505 1.4417781-.3909505 2.08 0l11.32 6.85c.2479505.1481395.459755.3496954.62.59l6.68 9.849c.08902.131561.1628254.2727977.22.421.2641314.7252343.0804098 1.5379092-.47 2.079z" fill="#cfd8dc"/><path id="Shape" d="m40.881 34c-.0571746-.1482023-.13098-.289439-.22-.421l-6.68-9.849c-.160245-.2403046-.3720495-.4418605-.62-.59l-11.32-6.85c-.6382219-.3909505-1.4417781-.3909505-2.08 0l-.46.278 10.86 6.572c.2479505.1481395.459755.3496954.62.59l6.68 9.849c.08902.131561.1628254.2727977.22.421.2428824.6838428.0890906 1.4458814-.4 1.982.1460589.1713276.3206277.316125.516.428.2998532.1659176.6373098.2520035.98.25.5343225.0008838 1.0477058-.2077006 1.43-.581.5518158-.5402022.7371279-1.3529953.474-2.079z" fill="#9e9e9e"/><path id="Shape" d="m27.565 29.705-6-4.1c-.3401201-.2323003-.7878799-.2323003-1.128 0l-6 4.1c-.2728862.1863799-.4360744.4955392-.436.826v6.469c0 .5522847.4477153 1 1 1h11.999c.5522847 0 1-.4477153 1-1v-6.469c.0003002-.330274-.1624937-.6393952-.435-.826z" fill="#02a9f4"/><path id="Shape" d="m27.565 29.705-6-4.1c-.3401201-.2323003-.7878799-.2323003-1.128 0l-.936.64 5.064 3.456c.2728862.1863799.4360744.4955392.436.826v6.473c0 .5522847-.4477153 1-1 1h3c.5522847 0 1-.4477153 1-1v-6.469c.0000744-.3304608-.1631138-.6396201-.436-.826z" fill="#0377bc"/><g fill="#000"><path id="Shape" d="m28 41h-14c-.5522847 0-1 .4477153-1 1s.4477153 1 1 1h14c.5522847 0 1-.4477153 1-1s-.4477153-1-1-1z"/><path id="Shape" d="m3 59h-2c-.55228475 0-1 .4477153-1 1s.44771525 1 1 1h40c.5522847 0 1-.4477153 1-1s-.4477153-1-1-1h-2v-21.336c.7897184-.0020838 1.5470505-.3141377 2.109-.869 1.0234636-1.002931 1.1822179-2.5946846.377-3.78l-6.674-9.845c-.2429532-.3572004-.5601847-.6577176-.93-.881l-11.329-6.855c-.9541229-.5799306-2.1518771-.5799306-3.106 0l-11.328 6.854c-.37059178.223832-.68849867.5250249-.932.883l-6.672 9.844c-.80600099 1.1844286-.64805791 2.7760736.375 3.779.56415434.5500722 1.32207069.8561123 2.11.852zm9 0v-12h2v12zm4 0v-12h10v12zm12 0v-12h2v12zm4 0v-12c0-1.1045695-.8954305-2-2-2h-18c-1.1045695 0-2 .8954305-2 2v12h-5v-3h2c.55228475 0 1-.4477153 1-1s-.44771525-1-1-1h-2v-2h2c.55228475 0 1-.4477153 1-1s-.44771525-1-1-1h-2v-2h2c.55228475 0 1-.4477153 1-1s-.44771525-1-1-1h-2v-3h5c.5522847 0 1-.4477153 1-1s-.4477153-1-1-1h-5v-3h5c.5522847 0 1-.4477153 1-1s-.4477153-1-1-1h-4.257l1.957-3h2.3c.5522847 0 1-.4477153 1-1s-.4477153-1-1-1h-1l1.769-2.714c.0777032-.1200547.1799453-.2222968.3-.3l9.389-5.98c.3276257-.208557.7463743-.208557 1.074 0l9.39 5.981c.1203063.0773916.2226084.1796937.3.3l1.778 2.713h-1c-.5522847 0-1 .4477153-1 1s.4477153 1 1 1h2.3l1.956 3h-4.256c-.5522847 0-1 .4477153-1 1s.4477153 1 1 1h5v3h-5c-.5522847 0-1 .4477153-1 1s.4477153 1 1 1h5v3h-2c-.5522847 0-1 .4477153-1 1s.4477153 1 1 1h2v2h-2c-.5522847 0-1 .4477153-1 1s.4477153 1 1 1h2v2h-2c-.5522847 0-1 .4477153-1 1s.4477153 1 1 1h2v3zm-29.83-24.863 6.673-9.837c.08007535-.1215297.18591092-.2239512.31-.3l11.329-6.855c.318416-.1928258.717584-.1928258 1.036 0l11.33 6.855c.1224793.0744637.227519.1743879.308.293l6.675 9.845c.2620074.3861055.2102232.9043692-.123 1.231-.221796.2146583-.5268735.3207405-.834.29-.3082911-.0327418-.5853407-.2028665-.754-.463l-5.219-8c-.2327109-.35777-.5396523-.661301-.9-.89l-9.389-5.98c-.9833789-.6239456-2.2386211-.6239456-3.222 0l-9.39 5.974c-.36056215.2296884-.66750336.5342423-.9.893l-5.218 8c-.16865925.2601335-.44570894.4302582-.754.463-.30768161.0313406-.61344149-.0752176-.835-.291-.33159945-.3261932-.3833161-.8425188-.123-1.228z"/><path id="Shape" d="m28.127 28.876-6-4.1c-.3292749-.2257358-.7187809-.3473258-1.118-.349h-.009-.009c-.3992191.0016742-.7887251.1232642-1.118.349l-6 4.1c-.5461523.3725346-.8729233.9908916-.873 1.652v6.472c0 1.1045695.8954305 2 2 2h12c1.1045695 0 2-.8954305 2-2v-6.472c-.0000767-.6611084-.3268477-1.2794654-.873-1.652zm-1.127 1.652v1.472h-5v-4.884zm-7-3.412v4.884h-5v-1.472zm-5 6.884h5v3h-5zm7 3v-3h5v3z"/><path id="Shape" d="m19 52c-.5522847 0-1 .4477153-1 1v1c0 .5522847.4477153 1 1 1s1-.4477153 1-1v-1c0-.5522847-.4477153-1-1-1z"/><path id="Shape" d="m40 24c1.6568542 0 3-1.3431458 3-3s-1.3431458-3-3-3-3 1.3431458-3 3 1.3431458 3 3 3zm0-4c.5522847 0 1 .4477153 1 1s-.4477153 1-1 1-1-.4477153-1-1 .4477153-1 1-1z"/></g><path id="Shape" d="m59 19.81c-.5235604.0015542-.959688-.4009915-1-.923-.3702397-4.0896944-2.1896122-7.9125044-5.13-10.779-2.8810012-2.93262269-6.71218-4.74345468-10.807-5.108-.5522847-.04224978-.9657498-.52421525-.9235-1.0765s.5242153-.96574978 1.0765-.9235c4.571757.40096939 8.8510185 2.41793035 12.07 5.689 3.2800041 3.20479451 5.3065613 7.4763826 5.714 12.044.0425083.5506221-.3693805 1.0314576-.92 1.074-.029.002-.056.003-.08.003z" fill="#ef314c"/><path id="Shape" d="m52.872 20.905c-.5460962.0000699-.9912625-.4379737-1-.984-.1113779-6.0035401-4.9514599-10.84362211-10.955-10.955-.2652274-.00420968-.5179155-.1136256-.7024586-.30417004-.184543-.19054443-.285819-.44660361-.2815414-.71182996.0203363-.54683983.4677925-.98062994 1.015-.984 7.0836436.12800051 12.7954514 5.8393664 12.924 12.923.0089106.5519287-.4310779 1.0066879-.983 1.016z" fill="#ef314c"/><path id="Shape" d="m46.85 20.905c-.5476322.0000394-.9934284-.4404072-1-.988-.032923-2.7082935-2.2206999-4.8956265-4.929-4.928-.5519067-.0065895-.9941107-.4590878-.988-1.011-.0023013-.2668448.1042048-.5231118.2949637-.7097197.1907588-.1866078.4493067-.2874509.7160363-.2792803 3.7926155.0457981 6.8569054 3.1074257 6.906 6.9.0029335.2652212-.0996202.5207433-.2850971.7103461s-.4386813.2977525-.7039029.3006539z" fill="#ef314c"/></g></g></svg>