<svg height="512" viewBox="0 0 60 60" width="512" xmlns="http://www.w3.org/2000/svg"><g id="Page-1" fill="none" fill-rule="evenodd"><g id="029---Spade" fill-rule="nonzero" transform="translate(-1 -1)"><path id="Shape" d="m59.12 10.89-8.01-8.01c-1.1751514-1.16986609-3.0748486-1.16986609-4.25 0l-2.7 2.71c-.2006301.19451004-.3278183.45241951-.36.73l-.76 6.86c-.041881.3722507.0867638.7434829.35 1.01l4.42 4.42c.2665171.2632362.6377493.391881 1.01.35l6.86-.76c.2775805-.0321817.53549-.1593699.73-.36l2.71-2.7c1.1698661-1.1751514 1.1698661-3.0748486 0-4.25zm-4.25 2.83-.35.36c-.162383.1604206-.3734118.2624179-.6.29l-3.74.41c-.3019748.0389789-.6049308-.0644695-.82-.28l-1.86-1.86c-.2138848-.2119755-.3173167-.5111894-.28-.81l.41-3.75c.0275821-.22658824.1295794-.43761703.29-.6l.36-.36c.1869842-.18816159.4418383-.29313583.7071011-.29125454.2652628.0018813.5186023.11045976.7028989.30125454l5.18 5.18c.191781.1843911.3001659.4389549.3001659.705s-.1083849.5206089-.3001659.705z" fill="#ff9801"/><path id="Shape" d="m59.12 10.89-8.01-8.01c-.9635845-.95806519-2.4507988-1.14883888-3.625-.465.2279089.1267891.4380617.2831428.625.465l8.01 8.01c1.1698661 1.1751514 1.1698661 3.0748486 0 4.25l-2.71 2.7c-.19451.2006301-.4524195.3278183-.73.36l-4.727.524c.2495891.1837609.5587064.2679036.867.236l6.86-.76c.2775805-.0321817.53549-.1593699.73-.36l2.71-2.7c1.1698661-1.1751514 1.1698661-3.0748486 0-4.25z" fill="#f57c00"/><path id="Rectangle-path" d="m22.436 23.52h27.139v4.95h-27.139z" fill="#a0522d" transform="matrix(.707 -.707 .707 .707 -7.835 33.074)"/><path id="Shape" d="m28.16 37.34-4.38 4.38-2.95 2.95c-.3751365.3755541-.8841815.5865733-1.415.5865733s-1.0398635-.2110192-1.415-.5865733l-.67-.67c-.3755541-.3751365-.5865733-.8841815-.5865733-1.415s.2110192-1.0398635.5865733-1.415l2.95-2.95 4.38-4.38z" fill="#cfd8dc"/><path id="Shape" d="m28.16 51.35-4.29 4.29c-3.2541085 3.2566774-7.8331678 4.8224203-12.4 4.24l-6.39-.82c-1.11914706-.1392661-2.0007339-1.0208529-2.14-2.14l-.82-6.39c-.5824203-4.5668322.98332256-9.1458915 4.24-12.4l4.29-4.29c.6961529-.6962694 1.6404088-1.0874393 2.625-1.0874393s1.9288471.3911699 2.625 1.0874393l4.38 4.38-2.95 2.95c-.3755541.3751365-.5865733.8841815-.5865733 1.415s.2110192 1.0398635.5865733 1.415l.67.67c.3751365.3755541.8841815.5865733 1.415.5865733s1.0398635-.2110192 1.415-.5865733l2.95-2.95 4.38 4.38c.6962694.6961529 1.0874393 1.6404088 1.0874393 2.625s-.3911699 1.9288471-1.0874393 2.625z" fill="#7f8e94"/><path id="Shape" d="m28.16 46.1-4.38-4.38-1.5 1.5 2.88 2.88c.6962694.6961529 1.0874393 1.6404088 1.0874393 2.625s-.3911699 1.9288471-1.0874393 2.625l-4.29 4.29c-2.4033597 2.4044766-5.5584286 3.9123023-8.939 4.272 4.4180095.4309437 8.7972936-1.136047 11.939-4.272l4.29-4.29c.6962694-.6961529 1.0874393-1.6404088 1.0874393-2.625s-.3911699-1.9288471-1.0874393-2.625z" fill="#545c60"/><path id="Shape" d="m12.9 33.84 4.38 4.38-2.95 2.95c-.3755541.3751365-.5865733.8841815-.5865733 1.415s.2110192 1.0398635.5865733 1.415l.67.67c.3751365.3755541.8841815.5865733 1.415.5865733s1.0398635-.2110192 1.415-.5865733l.085-.085-.585-.585c-.3755541-.3751365-.5865733-.8841815-.5865733-1.415s.2110192-1.0398635.5865733-1.415l2.95-2.95-4.38-4.38c-1.0851983-1.0825343-2.7249635-1.3850462-4.125-.761.4189577.181688.8004505.4397467 1.125.761z" fill="#545c60"/><path id="Shape" d="m48.651 15.205c.3742229.3748947.8822938.5853915 1.412.585.0741947.0001563.1483306-.004185.222-.013l3.745-.416c.4535981-.0494363.8768337-.251884 1.2-.574l.358-.358c.7807639-.7809997.7807639-2.0470003 0-2.828l-5.188-5.184c-.7809997-.78076388-2.0470003-.78076388-2.828 0l-.357.358c-.3216373.32171706-.5246908.74298258-.576 1.195l-.415 3.745c-.0681511.6040323.1432259 1.2061255.574 1.635zm-.44-3.27.416-3.745.359-.358 5.182 5.183-.357.358-3.748.417-1.852-1.853z" fill="#000"/><path id="Shape" d="m1.126 50.658.823 6.387c.19631381 1.5683692 1.4316308 2.8036862 3 3l6.4.824c.6732557.086134 1.3512577.1298869 2.03.131 4.2042109.0054037 8.2363551-1.6690162 11.2-4.651l4.291-4.291c1.8378892-1.8423457 1.8378892-4.8246543 0-6.667l-3.67-3.67 22.18-22.18c.3773178.2762624.8323613.4260767 1.3.428.0838698.0002954.1676833-.0043795.251-.014l6.857-.762c.5046258-.0567504.9751714-.2826828 1.335-.641l2.707-2.707c1.5597839-1.5642825 1.5597839-4.0957175 0-5.66l-8.015-8.013c-.750273-.75110817-1.768363-1.17314663-2.83-1.17314663s-2.079727.42203846-2.83 1.17314663l-2.708 2.708c-.358206.35938766-.5838436.82970104-.64 1.334l-.763 6.859c-.0583938.5502066.0910594 1.1023632.419 1.548l-22.185 22.184-3.671-3.671c-1.8426885-1.8380042-4.8253115-1.8380042-6.668 0l-4.29 4.29c-3.48572615 3.466632-5.15782475 8.3590824-4.523 13.234zm19.858-11.731 3.67-3.67 2.089 2.088-6.62 6.62c-.3951446.3780366-1.0178554.3780366-1.413 0l-.674-.673c-.187777-.1875683-.2932867-.4420908-.2932867-.7075s.1055097-.5199317.2932867-.7075zm7.175-3-2.088-2.088 17.778-17.775 1.044 1.044 1.044 1.044zm16.641-29.494c.0062109-.05279934.0297771-.1020421.067-.14l2.707-2.707c.3752171-.3761668.884691-.58757513 1.416-.58757513s1.0407829.21140833 1.416.58757513l8.008 8.014c.7801225.7828265.7801225 2.0491735 0 2.832l-2.706 2.706c-.0390367.0383088-.0896844.0625775-.144.069l-6.857.762c-.0718196.0079103-.1433055-.0175151-.194-.069l-4.413-4.413c-.053268-.0520455-.0788446-.1261807-.069-.2zm-33.446 28.115c1.0608899-1.0582274 2.7781101-1.0582274 3.839 0l3.671 3.671-2.243 2.242c-1.168509 1.1729805-1.168509 3.0700195 0 4.243l.675.674c1.1714996 1.1711458 3.0705004 1.1711458 4.242 0l2.242-2.242 3.671 3.672c1.0587777 1.0606623 1.0587777 2.7783377 0 3.839l-4.291 4.291c-3.0281032 3.044925-7.3015751 4.5058905-11.56 3.952l-6.4-.824c-.66448397-.0827819-1.1873114-.6072586-1.268-1.272l-.822-6.389c-.55495467-4.2608157.90642332-8.5370007 3.953-11.567z" fill="#000"/><g fill="#f5f5f5"><path id="Shape" d="m7.032 50.909c-.50317623-.0005184-.92760003-.3748337-.991-.874-.43833394-3.3546605.71147408-6.7220082 3.11-9.108l3.415-3.415c.3923789-.3789722 1.0160848-.3735524 1.4018186.0121814s.3911536 1.0094397.0121814 1.4018186l-3.415 3.415c-1.95887144 1.950087-2.89784437 4.7012038-2.54 7.442.06897251.5474976-.31858403 1.0473829-.866 1.117-.04212407.0054495-.08452841.0084545-.127.009z"/><path id="Shape" d="m13.37 56.048c-.4680785-.0000518-.935683-.029778-1.4-.089-.3565888-.0424885-.6630151-.2729185-.8028071-.603704-.1397919-.3307855-.0914821-.711129.1265669-.996463.2180491-.2853339.5723524-.4318405.9282402-.383833 2.7405785.356792 5.4910742-.5824647 7.441-2.541l3.415-3.414c.3923789-.3789722 1.0160848-.3735524 1.4018186.0121814s.3911536 1.0094397.0121814 1.4018186l-3.415 3.414c-2.0392949 2.052015-4.813996 3.2040902-7.707 3.2z"/></g></g></g></svg>