<svg height="512" viewBox="0 0 60 60" width="512" xmlns="http://www.w3.org/2000/svg"><g id="Page-1" fill="none" fill-rule="evenodd"><g id="030---Axe" fill-rule="nonzero"><path id="Shape" d="m39.17 5.54-1.35 2.21-5.9-3.57 1.35-2.22c.5763325-.94172922 1.8050876-1.24109863 2.75-.67l2.47 1.5c.4554904.27392167.7832119.71788592.9107975 1.23385733.1275857.51597141.0445406 1.06150705-.2307975 1.51614267z" fill="#a0522d"/><path id="Shape" d="m38.49 2.79-2.47-1.5c-.7988017-.48052436-1.8232174-.34843519-2.474.319l1.944 1.181c.4554904.27392167.7832119.71788592.9107975 1.23385733.1275857.51597141.0445406 1.06150705-.2307975 1.51614267l-.54.885 2.19 1.325 1.35-2.21c.2753381-.45463562.3583832-1.00017126.2307975-1.51614267-.1275856-.51597141-.4553071-.95993566-.9107975-1.23385733z" fill="#783e22"/><path id="Shape" d="m31.84 17.56-24.65 40.48c-.57633254.9417292-1.80508758 1.2410986-2.75.67l-2.48-1.5c-.94077457-.5770287-1.23993077-1.8049086-.67-2.75l24.65-40.47z" fill="#a0522d"/><path id="Shape" d="m29.846 15.907-25.656 42.133c-.07854841.1272845-.17112726.2453561-.276.352l.526.318c.94491242.5710986 2.17366746.2717292 2.75-.67l24.65-40.48z" fill="#783e22"/><path id="Shape" d="m59 14.32c-.1862909 3.9229101-1.2781221 7.7494532-3.19 11.18-2.1762189 3.2795691-5.0820683 6.0108622-8.49 7.98-.1454096.0750233-.3166412.0815402-.4673326.0177862s-.2652533-.1911836-.3126674-.3477862c-.4181811-1.2048245-.9228271-2.3778756-1.51-3.51h.01c2.745568-1.6220894 5.0822181-3.8526837 6.83-6.52 1.5670139-2.777195 2.4769566-5.8764737 2.66-9.06v-.02c1.2748683.0025468 2.5482317-.0876915 3.81-.27.1624949-.0253596.3280433.0204504.4543864.1257363.1263431.105286.2012551.2598596.2056136.4242637z" fill="#cfd8dc"/><path id="Shape" d="m54.53 14.04v.02c-.1830434 3.1835263-1.0929861 6.282805-2.66 9.06-1.7477819 2.6673163-4.084432 4.8979106-6.83 6.52h-.01c-2.4099334-4.4842347-5.7925401-8.3725239-9.9-11.38-.4464975-.316578-1.0089373-.422492-1.54-.29-.1471538.0363539-.2984552.0531652-.45.05-.3454486.0031124-.6848887-.0904069-.98-.27l-.32-.19-5.9-3.57-.34-.21c-.4319504-.2889506-.7362771-.7329096-.85-1.24-.1383265-.4803333-.4525224-.8909302-.88-1.15l-3.23-1.96c-1.0851609-.66003783-1.429884-2.07474555-.77-3.16l2.38-3.92c.6621434-1.08227922 2.0742016-1.42635669 3.16-.77l3.3 2c.4586964.24926039.9953533.31365921 1.5.18.4878505-.10355935.9968512-.01394654 1.42.25l.29.17 5.9 3.57.31.19c.4281552.26089841.734208.68217108.85 1.17.1259974.53304506.4810108.9832167.97 1.23 4.5229685 2.3059736 9.5047743 3.5702179 14.58 3.7z" fill="#7f8e94"/><g fill="#000"><path id="Shape" d="m32.412 1.44-.875 1.437c-.4943834-.16948569-1.0252315-.20298748-1.537-.097-.256706.07780885-.5331259.05786102-.776-.056l-3.289-1.995c-1.557552-.94512698-3.5860883-.45341477-4.538 1.1l-2.378 3.92c-.9456549 1.55523606-.453495 3.58248761 1.1 4.531l3.235 1.969c.2099665.1258823.3648938.3261455.434.561.141951.5434577.4232104 1.040487.816 1.442l-24.167 39.692c-.85787768 1.4151812-.40774751 3.2577617 1.006 4.118l2.48 1.5c1.41541441.8576472 3.25777819.4107969 4.123-1l24.176-39.7c.2949801.1029074.6046157.1576086.917.162.2317781.0033977.4630244-.0231553.688-.079.2485846-.0618838.5117835-.0133998.722.133 1.347.962 8.211 6.176 11.045 14.392.2086906.6400071.8048293 1.0735992 1.478 1.075.240602.000626.4778659-.0562899.692-.166 3.5776764-2.055808 6.6253895-4.9192886 8.9-8.362 2.0091117-3.5926554 3.1514464-7.6048664 3.336-11.717v-.009c-.012957-.4502448-.2183088-.8733333-.564026-1.1620682-.3457171-.288735-.798626-.4154108-1.243974-.3479318-7.829 1.166-15.045-1.941-17.8-3.339-.2223134-.11607469-.382712-.32360637-.439-.568-.1297808-.52969278-.4071899-1.01169097-.8-1.39l.867-1.423c.4139367-.67933086.5405024-1.49546767.3517598-2.26826145-.1887425-.77279378-.6772743-1.43870284-1.3577598-1.85073855l-2.48-1.5c-1.4145897-.85791179-3.2564966-.41195764-4.122.998zm-26.074 56.08c-.13796054.2275682-.36093851.3907598-.61957087.4534471-.25863236.0626874-.53158417.0196995-.75842913-.1194471l-2.48-1.5c-.22647749-.1364225-.38912525-.3576095-.45183508-.6144569-.06270984-.2568475-.02029256-.5281015.11783508-.7535431l24.13-39.626 4.19 2.54zm48.616-32.546c-1.9862457 2.977809-4.591929 5.4917357-7.639 7.37-.293-.8-.63-1.56-.984-2.3 2.5459924-1.6768239 4.7219528-3.8568681 6.394-6.406 1.4972994-2.6537643 2.4339607-5.586617 2.752-8.617.825-.027 1.661-.084 2.509-.194-.267966 3.5612465-1.30223 7.0225516-3.032 10.147zm-1.485-9.958c-.3086992 2.6639474-1.1424356 5.240271-2.453 7.58-1.4800675 2.2394046-3.3887433 4.1637142-5.616 5.662-2.4623253-4.2273914-5.7633106-7.9064587-9.7-10.811-.4856152-.3444298-1.0666419-.5286664-1.662-.527-.2406243.0003183-.4803399.0295274-.714.087-.2243749.0352581-.454136-.002977-.655-.109l-6.559-3.975c-.2081183-.1658116-.3500101-.4006425-.4-.662-.2087619-.7188552-.6803313-1.3328593-1.321-1.72l-3.237-1.97c-.6065989-.37451128-.7984237-1.16768462-.43-1.778l2.378-3.919c.1807674-.2966363.4720302-.50925597.809643-.5910333.3376129-.08177733.6938861-.02600529.990357.1550333l3.3 2c.6744896.37888459 1.468116.48617973 2.219.3.2408153-.05218533.4924969-.00688264.7.126l3.636 2.2 2.545 1.545c.007 0 .015.005.023.01l.294.178c.2014176.12257524.3454463.3206147.4.55.191272.8159782.7343792 1.505208 1.483 1.882 4.3401554 2.2256051 9.0990224 3.5157353 13.969 3.787zm-19.348-12.537c.1381293-.22767772.361366-.39085655.6202277-.4533663.2588617-.06250974.5319644-.01918664.7587723.1203663l2.48 1.5c.2262272.13663149.3887289.35773025.4515906.61443104.0628616.25670079.0209073.52786737-.1165906.75356896l-.83 1.363-1.909-1.15-2.285-1.385z"/><path id="Shape" d="m30.143 7.09c-.2265901-.13819184-.4988214-.18063906-.756727-.11799144-.2579057.06264763-.4803283.2252508-.618273.45199144l-1.387 2.276c-.1857781.3052834-.1945774.6864884-.0230832 1.0000187s.4972277.5117532.8545.52.6918051-.1747353.8775832-.4800187l1.387-2.277c.2864229-.47145088.1369755-1.08579607-.334-1.373z"/><path id="Shape" d="m36.042 10.667c-.2264688-.1382796-.498611-.1808811-.7565035-.1184243-.2578924.0624569-.4803884.2248508-.6184965.4514243l-1.387 2.277c-.287188.4719273-.1374273 1.0873119.3345 1.3744999.4719273.2871881 1.0873119.1374274 1.3745-.3344999l1.387-2.276c.2871042-.4716642.1375827-1.0867619-.334-1.374z"/></g><path id="Shape" d="m49.425 19.291c-.0488652-.0002188-.0976537-.0038947-.146-.011-2.6450896-.3185485-5.2241818-1.0483466-7.644-2.163-.3310252-.1529141-.5525777-.4738863-.5781738-.8376242s.1488222-.7125744.4551702-.9103403c.306348-.1977658.6960571-.2131072 1.0170036-.0400355 2.2302866 1.0170614 4.6048569 1.6819681 7.039 1.971.5199716.0740848.8940191.5378043.856374 1.0616764-.0376451.523872-.4741521.9293456-.999374.9283236z" fill="#f5f5f5"/></g></g></svg>