<svg height="512" viewBox="0 0 60 60" width="512" xmlns="http://www.w3.org/2000/svg"><g id="Page-1" fill="none" fill-rule="evenodd"><g id="031---Scarecrow" fill-rule="nonzero"><path id="Shape" d="m26 18.57v25.43c0 .5522847-.4477153 1-1 1h-4c-.5522847 0-1-.4477153-1-1v-19h-12c-.69528894-.8405796-1.05188338-1.9103629-1-3-.05188338-1.0896371.30471106-2.1594204 1-3l12.41-.89c1.0478649-.0705394 2.071147-.3493073 3.01-.82l1.04-.52c.378796.7031623.9039273 1.3169522 1.54 1.8z" fill="#02a9f4"/><path id="Shape" d="m24.46 16.77-1.04.52c-.4039525.1993311-.8241351.3639249-1.256.492.2542133.2874561.5340314.5512081.836.788v25.43c0 .5522847-.4477153 1-1 1h3c.5522847 0 1-.4477153 1-1v-25.43c-.6360727-.4830478-1.161204-1.0968377-1.54-1.8z" fill="#0377bc"/><path id="Shape" d="m53 22c.0518834 1.0896371-.3047111 2.1594204-1 3h-12v19c0 .5522847-.4477153 1-1 1h-4c-.5522847 0-1-.4477153-1-1v-25.43c.6360727-.4830478 1.161204-1.0968377 1.54-1.8l1.04.52c.938853.4706927 1.9621351.7494606 3.01.82l12.41.89c.6952889.8405796 1.0518834 1.9103629 1 3z" fill="#02a9f4"/><path id="Shape" d="m37 44c0 .5522847-.4477153 1-1 1h3c.5522847 0 1-.4477153 1-1v-19c-1.6568542 0-3 1.3431458-3 3z" fill="#0377bc"/><path id="Shape" d="m52 19-12.41-.89c-1.0478649-.0705394-2.071147-.3493073-3.01-.82l-1.04-.52c-.1905205.3650222-.4256548.7049593-.7 1.012.5702701.1757636 1.1587514.2858103 1.754.328l12.406.89c.6952889.8405796 1.0518834 1.9103629 1 3 .0518834 1.0896371-.3047111 2.1594204-1 3h3c.6952889-.8405796 1.0518834-1.9103629 1-3 .0518834-1.0896371-.3047111-2.1594204-1-3z" fill="#0377bc"/><path id="Shape" d="m36 15c-.0018667.6193188-.1600911 1.2281385-.46 1.77-.378796.7031623-.9039273 1.3169522-1.54 1.8-1.1482809.8881858-2.5488852 1.3889019-4 1.43-1.4511148-.0410981-2.8517191-.5418142-4-1.43-.6360727-.4830478-1.161204-1.0968377-1.54-1.8-.599435-1.0682959-.6145051-2.3680932-.04-3.45 1.8278165.4396357 3.7000947.6677986 5.58.68 1.8799053-.0122014 3.7521835-.2403643 5.58-.68.2721158.5184383.4161312 1.0945.42 1.68z" fill="#ffe0b2"/><path id="Shape" d="m35.58 13.32c-.926988.2171051-1.8650192.3840146-2.81.5.1438419.3772122.2216457.7763792.23 1.18-.0018667.6193188-.1600911 1.2281385-.46 1.77-.378796.7031623-.9039273 1.3169522-1.54 1.8-.7471432.5591401-1.596411.9667886-2.5 1.2.4879977.1409938.992177.2183013 1.5.23 1.4511148-.0410981 2.8517191-.5418142 4-1.43.6360727-.4830478 1.161204-1.0968377 1.54-1.8.599435-1.0682959.6145051-2.3680932.04-3.45z" fill="#dfc49c"/><path id="Shape" d="m34 18.57v21.43h-8v-21.43c1.1482809.8881858 2.5488852 1.3889019 4 1.43 1.4511148-.0410981 2.8517191-.5418142 4-1.43z" fill="#37474f"/><path id="Shape" d="m38.67 12.39c-1.0107343.3707383-2.0425412.6812821-3.09.93-1.8278165.4396357-3.7000947.6677986-5.58.68-1.8799053-.0122014-3.7521835-.2403643-5.58-.68-1.0474588-.2487179-2.0792657-.5592617-3.09-.93-.1852154-.0610532-.3156957-.227302-.330987-.4217201-.0152913-.1944182.0875939-.3790215.260987-.4682799l4.74-2.5h8l4.74 2.5c.1733931.0892584.2762783.2738617.260987.4682799-.0152913.1944181-.1457716.3606669-.330987.4217201z" fill="#ff5722"/><path id="Shape" d="m38.74 11.5-4.74-2.5h-3l4.74 2.5c.1733931.0892584.2762783.2738617.260987.4682799-.0152913.1944181-.1457716.3606669-.330987.4217201-1.0107343.3707383-2.0425412.6812821-3.09.93-1.3409051.3184853-2.7053396.5281667-4.08.627.489.033.99.053 1.5.053 1.8799053-.0122014 3.7521835-.2403643 5.58-.68 1.0474588-.2487179 2.0792657-.5592617 3.09-.93.1852154-.0610532.3156957-.227302.330987-.4217201.0152913-.1944182-.0875939-.3790215-.260987-.4682799z" fill="#d84315"/><path id="Shape" d="m34 9h-8s0-8 4-8 4 8 4 8z" fill="#ff9801"/><path id="Shape" d="m30 1c-.5371663-.00009476-1.0611764.1661911-1.5.476 2.491 1.704 2.5 7.524 2.5 7.524h3s0-8.00000004-4-8z" fill="#f57c00"/><g fill="#000"><path id="Shape" d="m59 54h-18c-.5522847 0-1 .4477153-1 1s.4477153 1 1 1h18c.5522847 0 1-.4477153 1-1s-.4477153-1-1-1z"/><path id="Shape" d="m51 60c.5522847 0 1-.4477153 1-1s-.4477153-1-1-1h-42c-.55228475 0-1 .4477153-1 1s.44771525 1 1 1z"/><path id="Shape" d="m59 21h-5.082c-.1231192-1.0033438-.5450472-1.9464975-1.211-2.707-.1695039-.1709091-.3949679-.274942-.635-.293l-12.416-.89c-.915272-.0611998-1.8090958-.3046299-2.629-.716l-.216-.108c.1238707-.4174897.1875125-.8505239.189-1.286-.001862-.3312413-.0404308-.661256-.115-.984.861-.24 1.6-.486 2.135-.688.5493857-.1985101.9313573-.7006669.9760111-1.2831075.0446537-.5824405-.2563063-1.1369554-.7690111-1.4168925l-.022-.012-4.224-2.229c-.096-2.028-.734-8.387-4.981-8.387s-4.885 6.359-4.981 8.387l-4.246 2.241c-.5126489.2801098-.813442.8347625-.7685712 1.4172203s.4270682 1.0844949.9765712 1.2827797c.539.2 1.273.448 2.134.688-.0745692.322744-.113138.6527587-.115.984.001297.4361464.0649409.8698675.189 1.288l-.216.108c-.8217429.4121398-1.7176826.6555906-2.635.716l-12.41.888c-.23976429.0175185-.46519311.1208253-.635.291-.6663165.7610496-1.08826802 1.7049527-1.211 2.709h-5.082c-.55228475 0-1 .4477153-1 1s.44771525 1 1 1h5.082c.12311924 1.0033438.54504723 1.9464975 1.211 2.707.18749273.1875494.44180519.2929434.707.293h11v18c0 1.1045695.8954305 2 2 2h4c1.1045695 0 2-.8954305 2-2v-3h2v13h-28c-.55228475 0-1 .4477153-1 1s.44771525 1 1 1h36c.5522847 0 1-.4477153 1-1s-.4477153-1-1-1h-6v-13h2v3c0 1.1045695.8954305 2 2 2h4c1.1045695 0 2-.8954305 2-2v-18h11c.2651948-.0000566.5195073-.1054506.707-.293.6659528-.7605025 1.0878808-1.7036562 1.211-2.707h5.082c.5522847 0 1-.4477153 1-1s-.4477153-1-1-1zm-29-19c2.082 0 2.791 3.763 2.957 6h-5.914c.166-2.237.875-6 2.957-6zm-3.752 8h7.5l3.473 1.833c-2.3340618.7522319-4.7688082 1.145716-7.221 1.167-2.4535345-.0208794-4.8896599-.4143684-7.225-1.167zm3.752 5c1.6581311-.0072148 3.3113747-.1804117 4.935-.517.0399384.1695408.0617277.3428493.065.517-.0071447.4577287-.1251845.9068975-.344 1.309 0 0-.008.008-.01.014v.012c-1.0016922 1.6133891-2.7476064 2.614866-4.646 2.665-1.8969602-.0514648-3.6410814-1.0527752-4.642-2.665v-.012c0-.006-.007-.009-.01-.014-.2202089-.4017472-.3396265-.850936-.348-1.309.0032723-.1741507.0250616-.3474592.065-.517 1.6236253.3365883 3.2768689.5097852 4.935.517zm-5 29h-4v-21c0-.5522847-.4477153-1-1-1s-1 .4477153-1 1v1h-10.5c-.67409574-1.2624307-.66619941-2.7796541.021-4.035l11.956-.858c1.1802503-.0777599 2.3329478-.3912664 3.39-.922l.242-.121c.265957.3453302.5643138.6644481.891.953zm2-5v-18.687c1.8951275.9159584 4.1048725.9159584 6 0v18.687zm24.5-15h-10.5v-1c0-.5522847-.4477153-1-1-1s-1 .4477153-1 1v21h-4v-24.983c.3266862-.2885519.625043-.6076698.891-.953l.242.121c1.05553.530066 2.2064586.8435538 3.385.922l11.96.858c.6880594 1.2550353.6963332 2.7725365.022 4.035z"/></g></g></g></svg>