<svg height="512" viewBox="0 0 60 60" width="512" xmlns="http://www.w3.org/2000/svg"><g id="Page-1" fill="none" fill-rule="evenodd"><g id="032---Bee-Farming" fill-rule="nonzero"><rect id="Rectangle-path" fill="#ffe0b2" height="7" rx="1" width="56" x="1" y="5"/><path id="Shape" d="m56 5h-3c.5522847 0 1 .44771525 1 1v5c0 .5522847-.4477153 1-1 1h3c.5522847 0 1-.4477153 1-1v-5c0-.55228475-.4477153-1-1-1z" fill="#dfc49c"/><path id="Shape" d="m55.0000025 12-.0000025 28c.0010105.6320847-.2999763 1.2266264-.81 1.6-2.67-2.79-5.97-5.77-7.92-6.3.9094918-1.2908842.9744159-2.996022.1657175-4.3523273-.8086985-1.3563053-2.3396461-2.109903-3.9077107-1.9235416-1.5680647.1863613-2.8797337 1.2777981-3.3480068 2.7858689v.01c-.1205216.3816906-.1812403.7797356-.18 1.18-.0003471.8237068.2546941 1.6272613.73 2.3-2.04.56-5.57 3.81-8.3 6.7h-26.43c-1.10320187-.0032948-1.9967052-.8967981-2-2v-28z" fill="#ff9801"/><path id="Shape" d="m39.18 31.81c.3589405-1.1415821 1.2101415-2.0624935 2.32-2.51-1.0346354-.4280354-2.2018135-.3998636-3.2145934.0775898-1.0127798.4774533-1.7772263 1.3599045-2.1054066 2.4304102v.01c-.1207258.3823298-.1814469.7810652-.18 1.182-.0003471.8237068.2546941 1.6272613.73 2.3-2.04.56-5.57 3.81-8.3 6.7h3c2.73-2.89 6.26-6.14 8.3-6.7-.4753059-.6727387-.7303471-1.4762932-.73-2.3-.0012403-.4002644.0594784-.7983094.18-1.18z" fill="#f57c00"/><path id="Shape" d="m52 12v27.419c.749.709 1.491 1.451 2.19 2.181.5100237-.3733736.8110105-.9679153.81-1.6l.0000025-28z" fill="#f57c00"/><path id="Shape" d="m47 33c.0003471.8237068-.2546941 1.6272613-.73 2.3-.4216787.6016326-1.0037523 1.072835-1.68 1.36-1.011536.453307-2.168464.453307-3.18 0-.6762477-.287165-1.2583213-.7583674-1.68-1.36-.4753059-.6727387-.7303471-1.4762932-.73-2.3-.0012403-.4002644.0594784-.7983094.18-1.18v-.01c.5196896-1.6732767 2.0678778-2.8135768 3.82-2.8135768s3.3003104 1.1403001 3.82 2.8135768c.1205257.3851222.1812324.7864606.18 1.19z" fill="#ffdc00"/><path id="Shape" d="m46.82 31.81c-.3277449-1.07087-1.092012-1.9538049-2.1048447-2.4316639-1.0128326-.477859-2.1802525-.5063028-3.2151553-.0783361 1.1094181.4470783 1.9605451 1.3671759 2.32 2.508.6092525 1.9492479-.3537122 4.0435881-2.23 4.85-.029.013-.061.017-.09.03.9886788.4235319 2.1097307.4126479 3.09-.03.6762477-.287165 1.2583213-.7583674 1.68-1.36.7150064-1.0149413.9182086-2.3043514.55-3.49z" fill="#fec108"/><path id="Shape" d="m48.99 50.24c-.1313086 3.2130392-2.7742788 5.7502042-5.99 5.7502042s-5.8586914-2.537165-5.99-5.7502042c.19-.37.39-.79.59-1.24h10.8c.2.45.4.87.59 1.24z" fill="#ffdc00"/><path id="Shape" d="m48.4 49h-3c.2.45.4.87.59 1.24-.1067199 2.6407215-1.9309443 4.899672-4.49 5.56 1.7551791.4625149 3.6254433.1016905 5.0825936-.9805695 1.4571504-1.08226 2.3430142-2.768477 2.4074064-4.5824305-.19-.367-.39-.787-.59-1.237z" fill="#fec108"/><path id="Shape" d="m41.41 36.66c.11 1.67-.69 4.53-1.72 7.34-.66 1.8-1.42 3.57-2.09 5-.2.45-.4.87-.59 1.24-.33.65-.61 1.16-.82 1.48-.93372 1.5822896-2.659998 2.5250444-4.4959203 2.4553116s-3.4857135-1.140719-4.296718-2.7892775c-.8110044-1.6485586-.6525656-3.6090992.4126383-5.1060341 1.1017824-1.5121694 2.3116124-2.9425761 3.62-4.28 2.73-2.89 6.26-6.14 8.3-6.7.4216787.6016326 1.0037523 1.072835 1.68 1.36z" fill="#02a9f4"/><path id="Shape" d="m39.73 35.3c-.7006766.2317661-1.3619361.5689714-1.961 1 .202317.1380409.4168849.2572081.641.356.11 1.67-.69 4.53-1.72 7.34-.66 1.8-1.42 3.57-2.09 5-.2.45-.4.87-.59 1.24-.33.65-.61 1.16-.82 1.48-.6312588.9708166-1.5832664 1.6892461-2.69 2.03 2.1365426.6860677 4.4678438-.144023 5.69-2.026.21-.32.49-.83.82-1.48.19-.37.39-.79.59-1.24.67-1.43 1.43-3.2 2.09-5 1.03-2.81 1.83-5.67 1.72-7.34-.6762477-.287165-1.2583213-.7583674-1.68-1.36z" fill="#0377bc"/><path id="Shape" d="m56.72 53.19c-1.110379.7244537-2.4636458.9766374-3.7604375.7007642s-2.4302232-1.0570651-3.1495625-2.1707642c-.21-.32-.49-.83-.82-1.48-.19-.37-.39-.79-.59-1.24-.67-1.43-1.43-3.2-2.09-5-1.03-2.81-1.83-5.67-1.72-7.34.6762477-.287165 1.2583213-.7583674 1.68-1.36 1.95.53 5.25 3.51 7.92 6.3 1.4471687 1.4589944 2.7841672 3.0232826 4 4.68.7244537 1.110379.9766374 2.4636458.7007642 3.7604375s-1.0570651 2.4302232-2.1707642 3.1495625z" fill="#02a9f4"/><path id="Shape" d="m58.19 46.28c-1.2158328-1.6567174-2.5528313-3.2210056-4-4.68-2.67-2.79-5.97-5.77-7.92-6.3-.2802727.3947458-.6315926.7338577-1.036 1 2.1543056 1.5671103 4.1492432 3.3423235 5.956 5.3 1.4471687 1.4589944 2.7841672 3.0232826 4 4.68.7244537 1.110379.9766374 2.4636458.7007642 3.7604375s-1.0570651 2.4302232-2.1707642 3.1495625c-.3786475.2401904-.7884725.4272698-1.218.556 2.0077951.6440763 4.2035867-.0464068 5.4814183-1.723673 1.2778315-1.6772663 1.3605857-3.9775748.2065817-5.742327z" fill="#0377bc"/><path id="Shape" d="m48.4 49h-10.8c.67-1.43 1.43-3.2 2.09-5h6.62c.66 1.8 1.42 3.57 2.09 5z" fill="#37474f"/><path id="Shape" d="m46.31 44h-6.62c1.03-2.81 1.83-5.67 1.72-7.34 1.011536.453307 2.168464.453307 3.18 0-.11 1.67.69 4.53 1.72 7.34z" fill="#fec108"/><path id="Shape" d="m55.536 41.561c.2971347-.4669166.4578474-1.0075904.464-1.561v-27c1.1045695 0 2-.8954305 2-2v-5c0-1.1045695-.8954305-2-2-2h-15v-1c0-1.65685425-1.3431458-3-3-3h-18c-1.6568542 0-3 1.34314575-3 3v1h-15c-1.1045695 0-2 .8954305-2 2v5c0 1.1045695.8954305 2 2 2v27c0 1.6568542 1.34314575 3 3 3h24.166c-.7836369.8671339-1.5158872 1.7793582-2.193 2.732-1.1966412 1.8425161-1.2905661 4.1917162-.2448429 6.1238856 1.0457231 1.9321695 3.0638491 3.1382916 5.2608429 3.1441144.4210833-.0000225.8410179-.0439263 1.253-.131 1.3173397-.2840396 2.4983762-1.008959 3.348-2.055.9669828 2.2163818 3.0153481 3.7717764 5.41 4.108v2.078c0 .5522847.4477153 1 1 1s1-.4477153 1-1v-2.078c2.3926609-.3346105 4.4403435-1.8867456 5.409-4.1.8503135 1.0450597 2.0310995 1.7694727 3.348 2.054.4122366.084672.8321634.126229 1.253.124 2.1966923-.0055656 4.2147323-1.2111241 5.2608085-3.1427588 1.0460763-1.9316346.9529352-4.2805028-.2428085-6.1232412-1.0679617-1.4686258-2.2346587-2.8628487-3.492-4.173zm-7.886-6.761c.3350845-.7800907.4331595-1.6415517.282-2.477l2.068-1.174 4 2.291v6.525c-1.8676717-2.0069894-4.0047014-3.745219-6.35-5.165zm-7.271 10.2h5.241c.4 1.048.82 2.063 1.231 3h-7.7c.407-.937.827-1.952 1.228-3zm.723-2c.5890709-1.6411225 1.0082643-3.3383365 1.251-5.065.4266443.0866556.8663557.0866556 1.293 0 .2437087 1.7267708.663908 3.4239873 1.254 5.065zm-10.108-2h-.994v-6.417l6-3.432 2.067 1.176c-.0374974.222564-.0598819.4474116-.067.673.0033565.6165803.1220662 1.2270875.35 1.8-2.181 1.127-5.027 3.749-7.356 6.2zm14.488-6.318c-.8341606 1.228616-2.4416741 1.6620559-3.7804125 1.0193269s-2.0057844-2.1681861-1.5687017-3.5874393c.4370828-1.4192533 1.8467464-2.305153 3.3151262-2.083383 1.4683798.2217699 2.5535405 1.4844639 2.551988 2.9694954-.0006271.5998448-.1810597 1.1857285-.518 1.682zm-1.374-6.549c.4421468-1.3337366 1.3005503-2.4904257 2.449-3.3.4592248-.3070703.5825703-.9282752.2755-1.3875s-.9282752-.5825703-1.3875-.2755c-.9712674.6902728-1.8012384 1.5602997-2.445 2.563-.6435594-1.0034193-1.4735428-1.8741382-2.445-2.565-.2970663-.1986397-.67754-.2237073-.9981001-.0657601-.3205602.1579471-.5325062.4749131-.556.8315-.0234939.3565868.1450338.6986204.4421001.8972601 1.1484497.8095743 2.0068532 1.9662634 2.449 3.3-1.3135437.3038546-2.44871 1.1252996-3.148 2.278l-1.744-.991v-6.837l6-3.429 5.99 3.428v6.839l-1.735.991c-.6992583-1.1521046-1.8339971-1.9731406-3.147-2.277zm-2.108-15.133v4.417l-6 3.431-6-3.429v-4.419zm-13 19.848-5.99-3.428v-6.84l5.995-3.428 6 3.428v6.84zm-1-19.848v4.42l-6 3.433-6-3.431v-4.422zm-13 6.152 5.99 3.428v6.84l-5.99 3.428-6-3.428v-6.84zm1 15.428 6-3.433 6 3.431v6.422h-12zm38-3.444-3.01-1.722v-6.828l3.01-1.722zm0-12.576-4 2.291-6-3.429v-4.422h10zm-35-15.56c0-.55228475.4477153-1 1-1h18c.5522847 0 1 .44771525 1 1v1h-20zm-17 3h54v5h-54zm12 7v4.417l-6 3.431-4-2.288v-5.56zm-10 7.864 3 1.716v6.84l-3 1.716zm0 19.136v-6.56l4-2.288 6 3.429v6.419h-9c-.55228475 0-1-.4477153-1-1zm28.828 12.914c-1.5812472.3324724-3.2072354-.3190649-4.1213728-1.6514438-.9141375-1.3323788-.9368729-3.0838985-.0576272-4.4395562 1.0592851-1.4515942 2.2219732-2.8248294 3.479-4.109l.017-.019c2.395-2.535 5.4-5.329 7.279-6.212.2949968.2968284.6254941.556121.984.772-.117 2.683-2.14 7.958-3.694 11.3-.015.031-.031.059-.043.091-.388475.8687654-.8296291 1.7130026-1.321 2.528-.5732207.8948269-1.4819603 1.5217924-2.522 1.74zm10.172 2.086c-2.6056521.0075033-4.7734294-2.0013153-4.964-4.6l.194-.4h9.539c.065.136.132.275.2.4-.190703 2.6006115-2.3614254 4.6101352-4.969 4.6zm14.913-5.172c-.3373047 1.5819083-1.5941135 2.8049871-3.1846106 3.0991426-1.590497.2941555-3.2016149-.3985128-4.0823894-1.7551426-.4899165-.8115361-.9294142-1.6524595-1.316-2.518-.0142203-.0343278-.0305859-.0677271-.049-.1-1.552-3.343-3.573-8.614-3.69-11.3.3594416-.2149603.690379-.4743346.985-.772 3.161 1.485 9.5 8.378 10.776 10.344.5819182.884982.7840442 1.9665903.561 3.002z" fill="#000"/></g></g></svg>