<svg height="61" viewBox="0 0 61 61" width="61" xmlns="http://www.w3.org/2000/svg"><g id="Page-1" fill="none" fill-rule="evenodd"><g id="034---Farm-Hoe" fill-rule="nonzero"><path id="Shape" d="m27 56v3c0 .5522847-.4477153 1-1 1h-24c-.55228475 0-1-.4477153-1-1v-3z" fill="#cfd8dc"/><path id="Shape" d="m27 48v8h-26v-8c0-2.209139 1.790861-4 4-4h18c2.209139 0 4 1.790861 4 4z" fill="#9e9e9e"/><path id="Shape" d="m23 44h-3c2.209139 0 4 1.790861 4 4v8h3v-8c0-2.209139-1.790861-4-4-4z" fill="#707070"/><path id="Shape" d="m57.89 7.33-29.62 24.11-3.8-4.65 29.64-24.12c1.2868235-1.04381812 3.1761818-.84682339 4.2199999.44000005 1.0438182 1.28682344.8468235 3.17618176-.4399999 4.21999995z" fill="#a0522d"/><path id="Shape" d="m58.33 3.11c-.9312007-1.14205204-2.5539656-1.43871838-3.829-.7.8608175.48743313 1.4234011 1.37050862 1.5013721 2.3566721.0779711.98616348-.3388491 1.94667557-1.1123721 2.5633279l-27.818 22.644 1.2 1.466 29.618-24.11c.6179928-.50123337 1.0115419-1.22744886 1.0940593-2.01886586.0825174-.79141699-.1527573-1.58319704-.6540593-2.20113414z" fill="#783e22"/><path id="Shape" d="m28.27 31.44-6.14 5c-1.2868235 1.0465796-3.1784204.8518235-4.225-.435s-.8518235-3.1784204.435-4.225l6.13-4.99z" fill="#9e9e9e"/><g fill="#f5f5f5"><path id="Rectangle-path" d="m1.515 49h16.971v2h-16.971z" transform="matrix(.707 -.707 .707 .707 -32.426 21.716)"/><path id="Shape" d="m17.293 50.707c-.3903819-.3904999-.3903819-1.0235001 0-1.414l5.9-5.9c.3923789-.3789722 1.0160848-.3735524 1.4018186.0121814s.3911536 1.0094397.0121814 1.4018186l-5.9 5.9c-.3904999.3903819-1.0235001.3903819-1.414 0z"/><path id="Shape" d="m12 57c-.4043959-.0000863-.7689341-.2437275-.923678-.6173454-.1547439-.373618-.0692299-.8036603.216678-1.0896546l3-3c.3923789-.3789722 1.0160848-.3735524 1.4018186.0121814s.3911536 1.0094397.0121814 1.4018186l-3 3c-.1874927.1875494-.4418052.2929434-.707.293z"/></g><path id="Shape" d="m2 61h24c1.1045695 0 2-.8954305 2-2v-11c-.0249664-2.751016-2.248984-4.9750336-5-5h-8v-3.04c.0004927-.303077.13841-.589577.375-.779l2.405-1.925c1.4656463 1.1547378 3.5369301 1.1356093 4.981-.046l35.764-29.11c1.1572806-.88627246 1.7408234-2.33191922 1.5230823-3.7732263-.2177412-1.44130709-1.2022893-2.65005923-2.5697307-3.15491688-1.3674415-.50485766-2.9012568-.22588212-4.0033516.72814318l-35.765 29.106c-1.3875163 1.1175229-1.8549375 3.0257157-1.141 4.658l-2.447 1.958c-.7089195.5690823-1.1215547 1.4289228-1.122 2.338v3.04h-8c-2.76005315.0033061-4.99669388 2.2399468-5 5v11c0 1.1045695.8954305 2 2 2zm52.737-57.551c.5510474-.47701265 1.3179551-.61650042 2.0016758-.36407159.6837207.25242882 1.1759948.8568049 1.2848653 1.57745844.1088706.72065354-.1829008 1.44347692-.7615411 1.88661315l-28.85 23.484-2.532-3.1zm-35.764 29.108 5.356-4.357 2.531 3.1-5.36 4.36c-.858418.6573965-2.083885.5135359-2.7667163-.3247916s-.5757674-2.0675559.2417163-2.7752084zm-16.973 22.443v-7c0-1.6568542 1.34314575-3 3-3h18c1.6568542 0 3 1.3431458 3 3v7h-2c-.5522847 0-1 .4477153-1 1s.4477153 1 1 1h2v2h-24v-2h18c.5522847 0 1-.4477153 1-1s-.4477153-1-1-1z" fill="#000"/></g></g></svg>