<svg height="512" viewBox="0 0 60 60" width="512" xmlns="http://www.w3.org/2000/svg"><g id="Page-1" fill="none" fill-rule="evenodd"><g id="038---Sheers" fill-rule="nonzero"><path id="Shape" d="m23.42 42.98c-.054126.0748285-.11433.1450664-.18.21l-14.48 14.48c-1.77793969 1.769927-4.65206031 1.769927-6.43 0l16.14-16.14c.4007518-.3992281.4394229-1.0351532.09-1.48-.778454-1.0172532-1.3091534-2.2019111-1.55-3.46-.0556137-.2704558-.0923689-.5444489-.11-.82-.1474679-1.8982892.3841334-3.7872458 1.5-5.33l.91-1.24 4.22 3.16-1.34 1.79c-.7809363 1.0412599-.678708 2.4980133.24 3.42l.81.8c1.2020011 1.2764384 1.2788149 3.243725.18 4.61z" fill="#9e9e9e"/><path id="Shape" d="m35.92 15.83-12.39 16.53-4.22-3.16 12.1-16.64z" fill="#ff9801"/><path id="Shape" d="m38.56 12.31-2.64 3.52-4.51-3.27 2.59-3.56z" fill="#9e9e9e"/><path id="Shape" d="m44.22 4.76-5.66 7.55-4.56-3.31 5.48-7.53c.3610731-.48894584 1.0406788-.61171333 1.55-.28l2.91 1.95c.2608363.17066232.4390899.44197694.492178.74912972.0530882.30715279-.023757.62255856-.212178.87087028z" fill="#37474f"/><path id="Shape" d="m30.8 40.7-1.24.9c-1.7667519 1.291529-3.99052 1.7913335-6.14 1.38 1.0988149-1.366275 1.0220011-3.3335616-.18-4.61l-.81-.8c.9235923.9239709 2.3867352 1.0263482 3.43.24l1.78-1.33z" fill="#707070"/><path id="Shape" d="m47.22 28.76-16.42 11.94-3.16-4.22 16.31-12.24z" fill="#ff9801"/><path id="Shape" d="m51 26-3.78 2.76-3.27-4.52 3.75-2.8z" fill="#707070"/><path id="Shape" d="m58.53 20.53-7.53 5.47-3.3-4.56 7.54-5.66c.2500433-.1885601.5668851-.2654265.8755361-.2124067s.5816789.2312135.7544639.4924067l1.94 2.91c.330287.5129497.2080592 1.193933-.28 1.56z" fill="#37474f"/><path id="Shape" d="m18.47 41.53-16.14 16.14c-1.76992698-1.7779397-1.76992698-4.6520603 0-6.43l14.47-14.47c.0626954-.0680314.1331803-.128447.21-.18.2408466 1.2580889.771546 2.4427468 1.55 3.46.3494229.4448468.3107518 1.0807719-.09 1.48z" fill="#707070"/><path id="Shape" d="m5.549 60c1.47196026.0047222 2.88461574-.5797131 3.923-1.623l14.328-14.332c2.2489697.3083004 4.528987-.2800216 6.348-1.638l1.252-.907h.005l16.381-11.92.02-.01c.005 0 .007-.01.012-.014l11.309-8.226c.9174582-.6796901 1.1451457-1.9571965.519-2.912l-1.94-2.9c-.3229001-.4941579-.8363105-.8322386-1.4178371-.9336456-.5815265-.101407-1.179064.0429458-1.6501629.3986456l-11.258 8.44-.016.007s-.008.011-.013.015l-18.094 13.567c-.6425024.4905261-1.5495405.4266863-2.117-.149l-.008-.006c-.5643269-.5705498-.625185-1.4685254-.143-2.11l22.032-29.384c.3550227-.47214209.499722-1.06975022.4-1.652-.1015563-.57287832-.4337723-1.07897457-.919-1.4l-2.909-1.955-.015-.01c-.9567394-.61836061-2.2294862-.38527927-2.905.532l-8.073 11.095-13.008 17.881c-1.2501068 1.7306104-1.8492993 3.8469071-1.692 5.976.008.122.041.248.055.371l-14.329 14.33c-1.58731513 1.5861929-2.06235019 3.9726066-1.20345334 6.0457379.85889685 2.0731314 2.8824444 3.424384 5.12645334 3.4232621zm38.19-34.346 2.084 2.881-14.811 10.773-1.971-2.633zm3.741-2.8 2.127 2.933-2.167 1.571-2.1-2.9zm8.36-6.269c.030413-.0233791.0691357-.0331502.107-.027.038769.0070699.0722383.0313443.091.066l1.939 2.9c.0427478.0648915.0288607.1516858-.032.2l-6.721 4.889-2.144-2.964zm-29.382 22.026.983-.736 1.953 2.61-.418.3c-1.1584326.8516534-2.5552683 1.3176151-3.993 1.332.3114533-.9313043.2916713-1.9416016-.056-2.86.5542111-.0913259 1.0788847-.3127101 1.531-.646zm5.174-24.655 2.88 2.089-11.184 14.917-2.634-1.972zm2.589-3.556 2.932 2.126-1.441 1.921-2.9-2.105zm6.066-8.338c.0468728-.06265241.1342222-.07837531.2-.036l2.9 1.947.064.087c.0068977.03742586-.0025672.0760137-.026.106l-5.068 6.759-2.957-2.145zm-21.076 28.966.306-.42 2.611 1.954-.738.985c-1.0890241 1.4413409-.9445997 3.4658462.338 4.738l.806.8c.889293.9588829.889293 2.4411171 0 3.4l-14.476 14.478c-1.12663959 1.0870569-2.82250382 1.3311646-4.21.606l15.333-15.332c.7516062-.7581612.8247606-1.956011.171-2.8-.832247-1.0822039-1.3374639-2.379945-1.456-3.74-.1260658-1.6627175.3397064-3.3164747 1.315-4.669zm-16.171 20.917 13.483-13.493c.3123879.7904485.7327118 1.5338396 1.249 2.209.0412798.0470457.0386468.1181368-.006.162l-15.32 15.32c-.7695438-1.3741831-.52643781-3.0931143.594-4.2z" fill="#000"/></g></g></svg>