<svg height="512" viewBox="0 0 60 60" width="512" xmlns="http://www.w3.org/2000/svg"><g id="Page-1" fill="none" fill-rule="evenodd"><g id="039---Greenhouse"><g fill-rule="nonzero"><path id="Rectangle-path" d="m46 29h12v22h-12z" fill="#0377bc"/><path id="Shape" d="m46 29v22h-13c.5522847 0 1-.4477153 1-1v-21z" fill="#0377bc"/><path id="Shape" d="m33.76 19.72-15.76-18.72-15.76 18.72c-.07512189.0807987-.13296831.1760751-.17.28h31.86c-.0370317-.1039249-.0948781-.1992013-.17-.28zm-10.72-3.72h-10.08c-.3755833-.006201-.7141268-.2278265-.8700481-.5695718s-.1014273-.7426941.1400481-1.0304282l5.04-6.05c.1767977-.22274521.4456184-.35258305.73-.35258305s.5532023.12983784.73.35258305l5.04 6.05c.2414754.2877341.2959694.6886829.1400481 1.0304282s-.4944648.5633708-.8700481.5695718z" fill="#00bcd4"/><path id="Shape" d="m33.76 19.72-15.76-18.72-1.5 1.782 14.26 16.938c.0751219.0807987.1329683.1760751.17.28h3c-.0370317-.1039249-.0948781-.1992013-.17-.28z" fill="#00838f"/><path id="Shape" d="m34 20.36.0000308 8.64h-5.0000308v-9h4.93c.0472048.1141018.071009.2365233.07.36z" fill="#02a9f4"/><path id="Shape" d="m34 29v21c0 .5522847-.4477153 1-1 1h-4v-22z" fill="#02a9f4"/><path id="Rectangle-path" d="m7 29h22v22h-22z" fill="#00bcd4"/><path id="Rectangle-path" d="m7 20h22v9h-22z" fill="#00bcd4"/><path id="Shape" d="m7 20v9h-5.00003078l.00003078-8.64c-.00100898-.1234767.02279519-.2458982.07-.36z" fill="#02a9f4"/><path id="Rectangle-path" d="m2 29h5v22h-5z" fill="#02a9f4"/><path id="Shape" d="m23.04 16h-10.08c-.3755833-.006201-.7141268-.2278265-.8700481-.5695718s-.1014273-.7426941.1400481-1.0304282l5.04-6.05c.1767977-.22274521.4456184-.35258305.73-.35258305s.5532023.12983784.73.35258305l5.04 6.05c.2414754.2877341.2959694.6886829.1400481 1.0304282s-.4944648.5633708-.8700481.5695718z" fill="#009688"/><path id="Shape" d="m58 20.36.0000308 8.64h-12.0000308v-8.64c.001009-.1234767-.0227952-.2458982-.07-.36h12c.0472048.1141018.071009.2365233.07.36z" fill="#0377bc"/><path id="Shape" d="m57.93 20h-12c-.0370317-.1039249-.0948781-.1992013-.17-.28l-15.76-18.72001457 11.53.00001457c.2976809-.00161159.58035.13054537.77.36l15.46 18.36c.0751219.0807987.1329683.1760751.17.28z" fill="#00838f"/><path id="Shape" d="m45.93 20h-12c-.0370317-.1039249-.0948781-.1992013-.17-.28l-15.76-18.72h12l15.76 18.72c.0751219.0807987.1329683.1760751.17.28z" fill="#00838f"/><path id="Shape" d="m46 20.36.0000308 8.64h-12.0000308v-8.64c.001009-.1234767-.0227952-.2458982-.07-.36h12c.0472048.1141018.071009.2365233.07.36z" fill="#0377bc"/><path id="Shape" d="m51 45-1 6h-8l-1-6z" fill="#ff9801"/></g><path id="Shape" d="m40 45h12" stroke="#000" stroke-linecap="round" stroke-linejoin="round" stroke-width="2"/><circle id="Oval" cx="46" cy="37" fill="#ffdc00" fill-rule="nonzero" r="4"/><rect id="Rectangle-path" fill="#a0522d" fill-rule="nonzero" height="8" rx="1" width="58" x="1" y="51"/><path id="Shape" d="m58 51h-3c.5522847 0 1 .4477153 1 1v6c0 .5522847-.4477153 1-1 1h3c.5522847 0 1-.4477153 1-1v-6c0-.5522847-.4477153-1-1-1z" fill="#783e22" fill-rule="nonzero"/><path id="Shape" d="m12.961 17h10.078c.7630729-.0052607 1.4546205-.4502977 1.7755393-1.1426264s.2136001-1.5076684-.2755393-2.0933736l-5.039-6.057c-.3820371-.42639719-.9274907-.67005208-1.5-.67005208s-1.1179629.24365489-1.5.67005208l-5.039 6.058c-.4885088.5857314-.5954507 1.4006479-.2746118 2.0925905s1.0119251 1.1368305 1.7746118 1.1424095zm5-8.015 5 6.015-9.961.043z" fill="#000" fill-rule="nonzero"/><path id="Shape" d="m59 50.278v-29.913c-.0060865-.4703797-.1722083-.9246577-.471-1.288l-15.466-18.366c-.3791394-.45128613-.9385888-.71160585-1.528-.711h-23.535c-.281384.00158726-.5487412.12308019-.735.334-.009.01-.022.012-.03.022l-15.764 18.721c-.29900281.3632216-.46515272.8175763-.471 1.288v29.913c-.61675126.3544126-.997855 1.0106732-1 1.722v6c0 1.1045695.8954305 2 2 2h56c1.1045695 0 2-.8954305 2-2v-6c-.002145-.7113268-.3832487-1.3675874-1-1.722zm-16.153-.278-.667-4h2.82v4zm-12.847 0v-20h3v20zm-4 0v-16c0-1.1045695-.8954305-2-2-2h-12c-1.1045695 0-2 .8954305-2 2v16h-2v-20h20v20zm-14 0v-3h5v3zm12-16v3h-5v-3zm-12 5h5v6h-5zm7 0h5v6h-5zm-2-2h-5v-3h5zm2 10h5v3h-5zm-16 3v-20h3v20zm26.535-48 14.316 17h-9.386l-14.316-17zm27.465 19v7h-10v-7zm-12 7h-10v-7h10zm-17-7v7h-20v-7zm2 0h3v7h-3zm-12-18.448 13.851 16.448h-27.702zm-12 18.448v7h-3v-7zm29 9h10v2.1c-2.330324.4731925-4.0050126 2.5221184-4.0050126 4.9s1.6746886 4.4268075 4.0050126 4.9v2.1h-5c-.5522847 0-1 .4477153-1 1s.4477153 1 1 1h.153l.667 4h-5.82zm10 9.816c-1.1981296-.4174114-2.0009455-1.5472421-2.0009455-2.816s.8028159-2.3985886 2.0009455-2.816zm2-5.632c1.1981296.4174114 2.0009455 1.5472421 2.0009455 2.816s-.8028159 2.3985886-2.0009455 2.816zm0 11.816h2.82l-.667 4h-2.153zm4.847 0h.153c.5522847 0 1-.4477153 1-1s-.4477153-1-1-1h-5v-2.1c2.330324-.4731925 4.0050126-2.5221184 4.0050126-4.9s-1.6746886-4.4268075-4.0050126-4.9v-2.1h10v20h-5.82zm4-27h-9.382l-14.316-17h9.386zm-53.847 39v-2h24c.5522847 0 1-.4477153 1-1s-.4477153-1-1-1h-24v-2h56v2h-8c-.5522847 0-1 .4477153-1 1s.4477153 1 1 1h8v2z" fill="#000" fill-rule="nonzero"/><path id="Shape" d="m46 54h-16c-.5522847 0-1 .4477153-1 1s.4477153 1 1 1h16c.5522847 0 1-.4477153 1-1s-.4477153-1-1-1z" fill="#000" fill-rule="nonzero"/><path id="Shape" d="m12 26h-1c-.5522847 0-1-.4477153-1-1s.4477153-1 1-1h1c.5522847 0 1 .4477153 1 1s-.4477153 1-1 1z" fill="#f5f5f5" fill-rule="nonzero"/><path id="Shape" d="m25 26h-9c-.5522847 0-1-.4477153-1-1s.4477153-1 1-1h9c.5522847 0 1 .4477153 1 1s-.4477153 1-1 1z" fill="#f5f5f5" fill-rule="nonzero"/></g></g></svg>