<svg height="512" viewBox="0 0 58 60" width="512" xmlns="http://www.w3.org/2000/svg"><g id="Page-1" fill="none" fill-rule="evenodd"><g id="040---Fruit-Production" fill-rule="nonzero"><path id="Shape" d="m23 57v1c0 .5522847-.4477153 1-1 1h-20c-.55228475 0-1-.4477153-1-1v-1c0-2.209139 1.790861-4 4-4h14c2.209139 0 4 1.790861 4 4z" fill="#9e9e9e"/><path id="Shape" d="m19 53h-3c2.209139 0 4 1.790861 4 4v1c0 .5522847-.4477153 1-1 1h3c.5522847 0 1-.4477153 1-1v-1c0-2.209139-1.790861-4-4-4z" fill="#707070"/><path id="Shape" d="m18 43 .0000037 10h-12.00000737l.00000367-10c-.00280317-2.5419973 1.60148341-4.8080521 4-5.65 1.2924958-.4666907 2.7075042-.4666907 4 0 2.3985166.8419479 4.0028032 3.1080027 4 5.65z" fill="#02a9f4"/><path id="Shape" d="m14 37.35c-1.1227573-.4155987-2.348753-.4625368-3.5-.134.167.044.338.075.5.134 2.3985166.8419479 4.0028032 3.1080027 4 5.65v10h3.0000037l-.0000037-10c.0028032-2.5419973-1.6014834-4.8080521-4-5.65z" fill="#0377bc"/><circle id="Oval" cx="12" cy="43" fill="#9e9e9e" r="2"/><rect id="Rectangle-path" fill="#02a9f4" height="8" rx="1" width="8" x="8" y="1"/><path id="Shape" d="m15 1h-3c.5522847 0 1 .44771525 1 1v6c0 .55228475-.4477153 1-1 1h3c.5522847 0 1-.44771525 1-1v-6c0-.55228475-.4477153-1-1-1z" fill="#0377bc"/><path id="Shape" d="m14 9v28.35c-1.2924958-.4666907-2.7075042-.4666907-4 0v-28.35z" fill="#707070"/><path id="Rectangle-path" d="m16 3h11.89v4h-11.89z" fill="#707070"/><path id="Shape" d="m57 4v2c0 .55228475-.4477153 1-1 1h-12v-4h12c.5522847 0 1 .44771525 1 1z" fill="#707070"/><rect id="Rectangle-path" fill="#02a9f4" height="8" rx="1" width="16.11" x="27.89" y="1"/><path id="Shape" d="m43 1h-3c.5522847 0 1 .44771525 1 1v6c0 .55228475-.4477153 1-1 1h3c.5522847 0 1-.44771525 1-1v-6c0-.55228475-.4477153-1-1-1z" fill="#0377bc"/><path id="Shape" d="m41.0000272 9-.0000272 3.33c.002275.4331065-.1383161.8548798-.4 1.2l-2 2.67c-.3790439.5020093-.9709662.7979705-1.6.8h-2c-.6290338-.0020295-1.2209561-.2979907-1.6-.8l-2-2.67c-.2616839-.3451202-.402275-.7668935-.4-1.2l-.0000272-3.33z" fill="#545c60"/><ellipse id="Oval" cx="36" cy="29" fill="#60a917" rx="10" ry="8"/><path id="Shape" d="m36 21c-.5015706.0027356-1.0025049.0361312-1.5.1 4.809.58 8.5 3.891 8.5 7.9s-3.691 7.32-8.5 7.9c.4974951.0638688.9984294.0972644 1.5.1 5.523 0 10-3.582 10-8s-4.477-8-10-8z" fill="#549414"/><path id="Shape" d="m40 49h-13c2.209139 0 4-1.790861 4-4s-1.790861-4-4-4h13c-2.209139 0-4 1.790861-4 4s1.790861 4 4 4z" fill="#37474f"/><path id="Shape" d="m53 49h-13c2.209139 0 4-1.790861 4-4s-1.790861-4-4-4h13c-2.209139 0-4 1.790861-4 4s1.790861 4 4 4z" fill="#37474f"/><circle id="Oval" cx="27" cy="45" fill="#9e9e9e" r="4"/><circle id="Oval" cx="40" cy="45" fill="#9e9e9e" r="4"/><circle id="Oval" cx="53" cy="45" fill="#9e9e9e" r="4"/><path id="Shape" d="m53 49v3c0 .5522847-.4477153 1-1 1h-24c-.5522847 0-1-.4477153-1-1v-3z" fill="#9e9e9e"/><path id="Shape" d="m50 49v3c0 .5522847-.4477153 1-1 1h3c.5522847 0 1-.4477153 1-1v-3z" fill="#707070"/><path id="Shape" d="m51 53v4c-.0032948 1.1032019-.8967981 1.9967052-2 2h-18c-1.1032019-.0032948-1.9967052-.8967981-2-2v-4z" fill="#607d8b"/><path id="Shape" d="m48 53v4c-.0032948 1.1032019-.8967981 1.9967052-2 2h3c1.1032019-.0032948 1.9967052-.8967981 2-2v-4z" fill="#37474f"/><g fill="#000"><path id="Shape" d="m9 43c0 1.6568542 1.3431458 3 3 3s3-1.3431458 3-3-1.3431458-3-3-3-3 1.3431458-3 3zm4 0c0 .5522847-.4477153 1-1 1s-1-.4477153-1-1 .4477153-1 1-1 1 .4477153 1 1z"/><circle id="Oval" cx="12" cy="5" r="1"/><path id="Shape" d="m53 40h-26c-2.5687655-.0025816-4.7215532 1.9417423-4.9797109 4.4975039-.2581578 2.5557617 1.4623181 4.8913243 3.9797109 5.4024961v2.1c0 1.1045695.8954305 2 2 2v3c0 1.6568542 1.3431458 3 3 3h18c1.6568542 0 3-1.3431458 3-3v-3c1.1045695 0 2-.8954305 2-2v-2.1c2.5173928-.5111718 4.2378687-2.8467344 3.9797109-5.4024961-.2581577-2.5557616-2.4109454-4.5000855-4.9797109-4.4975039zm-16 5c0-1.6568542 1.3431458-3 3-3s3 1.3431458 3 3-1.3431458 3-3 3-3-1.3431458-3-3zm-.974 3h-5.052c1.3676345-1.766197 1.3676345-4.233803 0-6h5.052c-1.3676345 1.766197-1.3676345 4.233803 0 6zm7.948-6h5.052c-1.3676345 1.766197-1.3676345 4.233803 0 6h-5.052c1.3676345-1.766197 1.3676345-4.233803 0-6zm-19.974 3c0-1.6568542 1.3431458-3 3-3s3 1.3431458 3 3-1.3431458 3-3 3-3-1.3431458-3-3zm26 12c0 .5522847-.4477153 1-1 1h-18c-.5522847 0-1-.4477153-1-1v-3h20zm1-5h-23v-2h24v2zm2-4c-1.6568542 0-3-1.3431458-3-3s1.3431458-3 3-3 3 1.3431458 3 3-1.3431458 3-3 3z"/><circle id="Oval" cx="27" cy="45" r="1"/><circle id="Oval" cx="40" cy="45" r="1"/><circle id="Oval" cx="53" cy="45" r="1"/></g><path id="Shape" d="m41 28c-1.1561225.0085645-2.2713239-.4274918-3.115-1.218-.4916186-.5063184-1.1693097-.7889607-1.875-.782-.7087479-.0036115-1.3890218.2786644-1.887.783-1.7704442 1.6265067-4.4927629 1.6221566-6.258-.01-.2958282-.268226-.633645-.4861179-1-.645l.694-1.876c.5711837.2297021 1.0990667.5550214 1.561.962.4958847.501865 1.1717223.7848159 1.8772496.7859427.7055274.0011267 1.3822652-.2796641 1.8797504-.7799427 1.7697707-1.6273383 4.4912293-1.6273383 6.261 0 .4955993.4997404 1.1706458.7802605 1.8744621.7789453.7038164-.0013152 1.3778097-.2843562 1.8715379-.7859453.4619333-.4069786.9898163-.7322979 1.561-.962l.694 1.876c-.366355.1588821-.7041718.376774-1 .645-.8491442.7983055-1.9735671 1.2381881-3.139 1.228z" fill="#ffe0b2"/><path id="Shape" d="m36.01 34c-1.1625941.0093703-2.2845562-.4272465-3.135-1.22-.4974852-.5002786-1.174223-.7810694-1.8797504-.7799427-.7055273.0011268-1.3813649.2840777-1.8772496.7859427-.4619333.4069786-.9898163.7322979-1.561.962l-.694-1.876c.366355-.1588821.7041718-.376774 1-.645 1.7652371-1.6321566 4.4875558-1.6365067 6.258-.01.4984639.5048334 1.1795595.787151 1.889.783.7056903.0069607 1.3833814-.2756816 1.875-.782 1.766782-1.6276401 4.4879129-1.6237217 6.25.009.2958282.268226.633645.4861179 1 .645l-.694 1.876c-.5711837-.2297021-1.0990667-.5550214-1.561-.962-.4937282-.5015891-1.1677215-.7846301-1.8715379-.7859453-.7038163-.0013152-1.3788628.2792049-1.8744621.7789453-.8463601.7923403-1.964665 1.2294243-3.124 1.221z" fill="#ffe0b2"/><path id="Shape" d="m56 2h-11c0-1.1045695-.8954305-2-2-2h-14.107c-1.1045695 0-2 .8954305-2 2h-9.893c0-1.1045695-.8954305-2-2-2h-6c-1.1045695 0-2 .8954305-2 2v6c0 1.1045695.8954305 2 2 2v26.685c-2.439763 1.1572781-3.99631274 3.614681-4 6.315v9c-2.76005315.0033061-4.99669388 2.2399468-5 5v1c0 1.1045695.8954305 2 2 2h20c1.1045695 0 2-.8954305 2-2v-1c-.0033061-2.7600532-2.2399468-4.9966939-5-5v-9c-.0036873-2.700319-1.560237-5.1577219-4-6.315v-26.685c1.1045695 0 2-.8954305 2-2h9.893c0 1.1045695.8954305 2 2 2h1.107v2.333c.0008617.6489705.211307 1.2803066.6 1.8l.559.747-4.959 3.72c-.7535656.5681068-1.1976539 1.4562835-1.2 2.4v14c0 .5522847.4477153 1 1 1s1-.4477153 1-1v-.842c2.3067428 2.516974 5.5867065 3.9171541 9 3.842 3.4132935.0751541 6.6932572-1.325026 9-3.842v.842c0 .5522847.4477153 1 1 1s1-.4477153 1-1v-14c-.0026567-.9436428-.4466798-1.831689-1.2-2.4l-4.96-3.72.559-.747c.388693-.5196934.5991383-1.1510295.6-1.8v-2.333h1c1.1045695 0 2-.8954305 2-2h11.001c1.1045695 0 2-.8954305 2-2v-2c0-1.1045695-.8954305-2-2-2zm-34 55v1h-20v-1c0-1.6568542 1.34314575-3 3-3h14c1.6568542 0 3 1.3431458 3 3zm-5-14v9h-10v-9c0-2.7614237 2.23857625-5 5-5 2.7614237 0 5 2.2385763 5 5zm-4-6.92c-.6624-.1066667-1.3376-.1066667-2 0v-26.08h2zm1-28.08h-5v-6h6v1 5zm3-2v-2h9.893v2zm19 16c5.9 0 9.625 4.275 8.9 8.013-.538 2.795-3.792 5.987-8.9 5.987-5.71 0-9.351-3.912-8.971-7.55.335-3.211 3.824-6.45 8.971-6.45zm8.6-1.8c.2509435.1895728.3989078.4855015.4.8v2.842c-2.3067428-2.516974-5.5867065-3.9171541-9-3.842-3.4132935-.0751541-6.6932572 1.325026-9 3.842v-2.842c.0009373-.3145353.1489341-.610529.4-.8l4.961-3.72.24.32c.5677923.7534085 1.4555986 1.1974966 2.399 1.2h2c.9439012-.0015673 1.8324054-.4458194 2.4-1.2l.241-.321zm-4.6-7.867c-.0004299.2163002-.0705638.4267019-.2.6l-2 2.668c-.1888544.2518058-.4852427.4-.8.4h-2c-.3147573 0-.6111456-.1481942-.8-.4l-2-2.667c-.1294362-.1732981-.1995701-.3836998-.2-.6v-2.334h8zm1-4.333h-12.107v-6h14.107v1 5zm15-2h-11v-2h11z" fill="#000"/></g></g></svg>