<svg height="512" viewBox="0 0 60 60" width="512" xmlns="http://www.w3.org/2000/svg"><g id="Page-1" fill="none" fill-rule="evenodd"><g id="041---Fruit-Crate" fill-rule="nonzero"><path id="Shape" d="m19 18.31c-.0387448 1.5758538-.2160956 3.145241-.53 4.69h-14.94c-.31390441-1.544759-.49125519-3.1141462-.53-4.69-.01100594-2.2839602.90564641-4.4745428 2.54-6.07 3.02881421-2.98309657 7.8911858-2.98309657 10.92 0 1.6343536 1.5954572 2.5510059 3.7860398 2.54 6.07z" fill="#ff9801"/><path id="Shape" d="m16.46 12.24c-1.8301532-1.8073568-4.43654-2.59114521-6.96-2.093.510807.0998262 1.0100695.2516154 1.49.453.9214767.3821027 1.7602478.9390195 2.47 1.64 1.6343536 1.5954572 2.5510059 3.7860398 2.54 6.07-.0387448 1.5758538-.2160956 3.145241-.53 4.69h3c.3139044-1.544759.4912552-3.1141462.53-4.69.0110059-2.2839602-.9056464-4.4745428-2.54-6.07z" fill="#f57c00"/><path id="Shape" d="m15 7.31c-.0331751 1.16778697-.3822134 2.30475336-1.01 3.29-1.9130639-.80000932-4.0669361-.80000932-5.98 0-.62778662-.98524664-.97682494-2.12221303-1.01-3.29.0051719-.69897205.14083059-1.39083138.4-2.04.64440273-1.5292079 1.6214026-2.89564129 2.86-4 .4276466-.36003034 1.0523534-.36003034 1.48 0 1.2385974 1.10435871 2.2155973 2.4707921 2.86 4 .2591694.64916862.3948281 1.34102795.4 2.04z" fill="#60a917"/><path id="Shape" d="m8 10c-.1 0-.2.011-.3.015.1.2.2.4.312.585.4799305-.2013846.979193-.3531738 1.49-.453-.49472537-.0975215-.99775445-.1467527-1.502-.147z" fill="#549414"/><path id="Shape" d="m14.6 5.27c-.6444027-1.5292079-1.6214026-2.89564129-2.86-4-.4276466-.36003034-1.0523534-.36003034-1.48 0-.224.208-.485.466-.76.763.8998586.9353372 1.6126473 2.03405003 2.1 3.237.2591694.64916862.3948281 1.34102795.4 2.04-.0200301.94380232-.2597 1.86995515-.7 2.705.9239332.0314138 1.834577.2296008 2.688.585.6284915-.98504257.9782254-2.12202324 1.012-3.29-.0051719-.69897205-.1408306-1.39083138-.4-2.04z" fill="#549414"/><path id="Shape" d="m8.01 10.6c-.92147672.3821027-1.76024776.9390195-2.47 1.64-.44925364-.3245385-.85286449-.7079688-1.2-1.14-1.27104506-1.76566972-1.67878736-4.01008904-1.11-6.11.18757555-.50391375.73735739-.77220728 1.25-.61.99696637.2127233 1.97387266.51047899 2.92.89-.25916941.64916862-.3948281 1.34102795-.4 2.04.03317506 1.16778697.38221338 2.30475336 1.01 3.29z" fill="#007900"/><path id="Shape" d="m18.57 9.51c-.2134639.5766086-.5209584 1.1138792-.91 1.59-.3471355.4320312-.7507464.8154615-1.2 1.14-.7097522-.7009805-1.5485233-1.2578973-2.47-1.64.6277866-.98524664.9768249-2.12221303 1.01-3.29-.0051719-.69897205-.1408306-1.39083138-.4-2.04.9461273-.37952101 1.9230336-.6772767 2.92-.89.5126426-.16220728 1.0624245.10608625 1.25.61.3696475 1.49452397.3002032 3.063965-.2 4.52z" fill="#007900"/><path id="Shape" d="m9 55v3c0 .5522847-.44771525 1-1 1h-4c-.55228475 0-1-.4477153-1-1v-3z" fill="#624421"/><path id="Rectangle-path" d="m3 43h6v4h-6z" fill="#624421"/><path id="Shape" d="m58 55v3c0 .5522847-.4477153 1-1 1h-4c-.5522847 0-1-.4477153-1-1v-3z" fill="#624421"/><path id="Rectangle-path" d="m52 43h6v4h-6z" fill="#624421"/><rect id="Rectangle-path" fill="#a0522d" height="8" rx="1" width="58" x="1" y="47"/><path id="Shape" d="m58 47h-3c.5522847 0 1 .4477153 1 1v6c0 .5522847-.4477153 1-1 1h3c.5522847 0 1-.4477153 1-1v-6c0-.5522847-.4477153-1-1-1z" fill="#783e22"/><path id="Rectangle-path" d="m3 31h6v4h-6z" fill="#624421"/><path id="Rectangle-path" d="m52 31h6v4h-6z" fill="#624421"/><path id="Rectangle-path" d="m27 43h6v4h-6z" fill="#624421"/><path id="Shape" d="m33 55v3c0 .5522847-.4477153 1-1 1h-4c-.5522847 0-1-.4477153-1-1v-3z" fill="#624421"/><path id="Rectangle-path" d="m27 31h6v4h-6z" fill="#624421"/><rect id="Rectangle-path" fill="#a0522d" height="8" rx="1" width="58" x="1" y="35"/><path id="Shape" d="m58 35h-3c.5522847 0 1 .4477153 1 1v6c0 .5522847-.4477153 1-1 1h3c.5522847 0 1-.4477153 1-1v-6c0-.5522847-.4477153-1-1-1z" fill="#783e22"/><rect id="Rectangle-path" fill="#a0522d" height="8" rx="1" width="58" x="1" y="23"/><path id="Shape" d="m58 23h-3c.5522847 0 1 .4477153 1 1v6c0 .5522847-.4477153 1-1 1h3c.5522847 0 1-.4477153 1-1v-6c0-.5522847-.4477153-1-1-1z" fill="#783e22"/><path id="Shape" d="m17 31c-.36 1.08-.98 2.56-1.64 4h-6.36v-4z" fill="#f57c00"/><path id="Shape" d="m56 21c-.0013666.6711069-.0649724 1.3406409-.19 2h-19.62c-.1250276-.6593591-.1886334-1.3288931-.19-2 0-4.29 2.54-7.79 5.71-7.99.0964299-.0083255.1932256-.0116633.29-.01.7596764.0007875 1.5077917.1861005 2.18.54 1.1366707.6099747 2.5033293.6099747 3.64 0 .6722083-.3538995 1.4203236-.5392125 2.18-.54 3.31 0 6 3.58 6 8z" fill="#f44335"/><path id="Shape" d="m44.5 13.685c-.107-.045-.215-.09-.32-.145" fill="#c81e1e"/><path id="Shape" d="m50 13c-.5141898.0022702-1.0244442.0897906-1.51.259 2.59.885 4.51 4.009 4.51 7.741-.0013666.6711069-.0649724 1.3406409-.19 2h3c.1250276-.6593591.1886334-1.3288931.19-2 0-4.42-2.69-8-6-8z" fill="#c81e1e"/><path id="Shape" d="m53 5h2v1c0 1.65685425-1.3431458 3-3 3h-2v-1c0-1.65685425 1.3431458-3 3-3z" fill="#60a917"/><path id="Shape" d="m36 21c.0013666.6711069.0649724 1.3406409.19 2h-17.72c.3139044-1.544759.4912552-3.1141462.53-4.69.0110059-2.2839602-.9056464-4.4745428-2.54-6.07.4492536-.3245385.8528645-.7079688 1.2-1.14.3890416-.4761208.6965361-1.0133914.91-1.59.8672524-.3370033 1.7895711-.50993806 2.72-.51.8991056.00365111 1.678486-.62152033 1.87-1.5.67203-3.06667896 3.3036266-5.31085132 6.4379517-5.49015521 3.1343252-.17930389 6.0046788 1.75012095 7.0220483 4.72015521.3226121.92057962.9696458 1.69204287 1.82 2.17 1.581571.89430783 2.7539955 2.3679056 3.27 4.11-3.17.2-5.71 3.7-5.71 7.99z" fill="#a4c400"/><path id="Shape" d="m41.71 13.01c-.5160045-1.7420944-1.688429-3.21569217-3.27-4.11-.8503542-.47795713-1.4973879-1.24942038-1.82-2.17-1.1221747-3.38878607-4.6438568-5.3621424-8.12-4.55 2.3857719.51526207 4.3280204 2.24128373 5.12 4.55.3226121.92057962.9696458 1.69204287 1.82 2.17 1.581571.89430783 2.7539955 2.3679056 3.27 4.11-3.17.2-5.71 3.7-5.71 7.99.0013666.6711069.0649724 1.3406409.19 2h3c-.1250276-.6593591-.1886334-1.3288931-.19-2 0-4.29 2.54-7.79 5.71-7.99z" fill="#90ac00"/><path id="Shape" d="m22 14.957c.0411381.0002616.0822424-.0024118.123-.008 2.9174516-.3510335 5.2934001-2.5095278 5.922-5.38.2067806-.91444792 1.0174725-1.56507484 1.955-1.569.8652529-.00747756 1.6349348.54831385 1.9 1.372.4917085 1.4098185 1.3264452 2.6751542 2.429 3.682.262588.2487058.6390037.3362426.9843868.2289228.3453831-.1073199.6059018-.3927696.6812977-.7464961.0753959-.3537266-.0460822-.7205979-.3176845-.9594267-.8545237-.7805477-1.5021802-1.76079378-1.885-2.853-.5727763-1.70555734-2.2137764-2.81883158-4.0102593-2.7206083-1.7964829.09822329-3.3063266 1.38377093-3.6897407 3.1416083-.4488012 2.0394747-2.1385147 3.5719309-4.212 3.82-.5223796.0663978-.9037629.5265209-.8720985 1.0521505.0316645.5256296.4655258.9366416.9920985.9398495z" fill="#000"/><path id="Shape" d="m32.665 15.136c-.4500526-1.3373633-1.7374044-2.2098603-3.1463368-2.1324156-1.4089323.0774446-2.5929005 1.0857823-2.8936632 2.4644156-.3035356 1.3280367-1.4028766 2.325986-2.754 2.5-.5223796.0663978-.9037629.5265209-.8720985 1.0521505.0316645.5256296.4655258.9366416.9920985.9398495.0411381.0002616.0822424-.0024118.123-.008 2.19964-.2649003 3.9911591-1.8919495 4.466-4.056.115858-.5217549.5775412-.8937586 1.112-.896.4926662-.0028231.9300637.3146951 1.08.784.2270911.6516281.5536188 1.2642049.968 1.816.2143593.2858125.5649147.4355548.9196153.3928204.3547005-.0427344.6596588-.2714532.8-.6000001.1403412-.3285468.0947441-.7070078-.1196153-.9928203-.2893412-.3836814-.5170775-.8101386-.675-1.264z" fill="#000"/><g fill="#cfd8dc"><circle id="Oval" cx="5" cy="51" r="1"/><circle id="Oval" cx="55" cy="51" r="1"/><circle id="Oval" cx="5" cy="39" r="1"/><circle id="Oval" cx="55" cy="39" r="1"/><circle id="Oval" cx="5" cy="27" r="1"/><circle id="Oval" cx="55" cy="27" r="1"/></g><path id="Shape" d="m40.312 24c-.4290769-.0003239-.8101246-.2743402-.947-.681-.2466648-.7480805-.3699428-1.5313176-.365-2.319-.0343269-1.4082101.3911503-2.7892556 1.212-3.934.3407597-.4349242.9695757-.5112596 1.4045-.1705.4349242.3407597.5112597.9695758.1705 1.4045-.5506422.7896695-.8271035 1.738139-.787 2.7-.0052507.5707387.0825675 1.1385169.26 1.681.1027188.3051793.0521979.6411496-.1357302.9026234s-.4902674.4164556-.8122698.4163766z" fill="#f5f5f5"/><path id="Shape" d="m58 22h-1.047c.028-.332.047-.665.047-1 0-4.963-3.14-9-7-9-.921626.0018903-1.8289899.2277018-2.644.658-.1156391.0526111-.2345529.0977048-.356.135v-.667c.3579519-1.338361 1.618641-2.23176935 3-2.126h2c2.209139 0 4-1.790861 4-4v-1c0-.55228475-.4477153-1-1-1h-2c-2.209139 0-4 1.790861-4 4v.086c-.7167799.11257639-1.399771.38235789-2 .79v-1.876c0-.55228475-.4477153-1-1-1s-1 .44771525-1 1v5.793c-.1214471-.0372952-.2403609-.0823889-.356-.135-.6893955-.3592579-1.4447563-.5742975-2.22-.632-.6792678-1.6891872-1.909969-3.09892508-3.492-4-.6363278-.35668757-1.1214124-.93239241-1.365-1.62-1.1618617-3.39540367-4.4426319-5.60163454-8.0254772-5.39692048-3.5828454.20471406-6.5909683 2.77027521-7.3585228 6.27592048-.0884258.4211901-.4626674.72083476-.893.715-.4566915.00243998-.9124643.04122915-1.363.116.1297585-1.11515501.0688905-2.24425733-.18-3.339-.1048974-.45761375-.3891678-.85393491-.789-1.1-.4906596-.30678591-1.0829798-.40640504-1.647-.277-.7393817.15733851-1.4689545.35767887-2.185.6-.702548-1.30397749-1.6216384-2.47904707-2.718-3.475-.8152707-.69871494-2.0196861-.69360608-2.829.012-1.09262932.99449455-2.00773616 2.16796857-2.706 3.47-.71137529-.24207326-1.43627493-.44241402-2.171-.6-.56738612-.13310291-1.16440293-.03563812-1.66.271-.39744577.24403686-.68081271.63686193-.787 1.091-.288 1.257-.736 4.453 1.3 6.953.17336703.2142234.35971728.4176057.558.609-.55468662.6823774-1.010497 1.4394805-1.354 2.249-.008.019-.018.035-.025.054-.48569548 1.1646326-.73519087 2.414149-.734 3.676 0 .213.012.448.022.679v.011.016c.05218799.9999369.16035749 1.9961647.324 2.984h-.346c-1.1045695 0-2 .8954305-2 2v6c0 1.1045695.8954305 2 2 2v2c-1.1045695 0-2 .8954305-2 2v6c0 1.1045695.8954305 2 2 2v2c-1.1045695 0-2 .8954305-2 2v6c0 1.1045695.8954305 2 2 2v2c0 1.1045695.8954305 2 2 2h4c1.1045695 0 2-.8954305 2-2v-2h16v2c0 1.1045695.8954305 2 2 2h4c1.1045695 0 2-.8954305 2-2v-2h17v2c0 1.1045695.8954305 2 2 2h4c1.1045695 0 2-.8954305 2-2v-2.278c.6167513-.3544126.997855-1.0106732 1-1.722v-6c-.002145-.7113268-.3832487-1.3675874-1-1.722v-2.556c.6167513-.3544126.997855-1.0106732 1-1.722v-6c-.002145-.7113268-.3832487-1.3675874-1-1.722v-2.556c.6167513-.3544126.997855-1.0106732 1-1.722v-6c0-1.1045695-.8954305-2-2-2zm-5-16h1c0 1.1045695-.8954305 2-2 2h-1c0-1.1045695.8954305-2 2-2zm-13.924 16h-2.021c-.0353789-.3321769-.0537362-.6659467-.055-1 0-3.859 2.243-7 5-7 .5998761.002439 1.190164.1506974 1.72.432.7001036.3688016 1.4787096.5636246 2.27.568h.01.01c.7908207-.0036443 1.5691198-.1977903 2.269-.566.5301174-.2817418 1.1206736-.4306677 1.721-.434 2.757 0 5 3.141 5 7-.0012638.3340533-.0196211.6678231-.055 1zm-17.786-12c1.3667366-.00268733 2.5491536-.9521096 2.847-2.286.5761397-2.6296642 2.8332322-4.55369455 5.520944-4.70625987s5.1480354 1.50368554 6.018056 4.05125987c.4017555 1.15084655 1.2100824 2.11529114 2.273 2.712 1.0215224.5835768 1.8507005 1.452372 2.386 2.5-3.057.961-5.335 4.505-5.335 8.729 0 .335.019.668.047 1h-15.393c.1633074-.9878543.2711431-1.9840819.323-2.984v-.016-.011c.01-.231.022-.466.022-.679.0011909-1.261851-.2483045-2.5113674-.734-3.676-.007-.019-.017-.035-.025-.054-.3433702-.8099868-.7988202-1.5677237-1.353-2.251.5913289-.5711511 1.0717641-1.2468796 1.417-1.993.6402789-.2154736 1.3104743-.3288601 1.986-.336zm-3.548-4.646c.0275965-.00278712.0554035-.00278712.083 0 .4489298 1.76663998.1017764 3.64126858-.95 5.13-.127046.1591042-.2646926.3094463-.412.45-.3522594-.2834381-.7256819-.5395183-1.117-.766.419834-.89494945.6428488-1.86953113.654-2.858-.0033062-.48096272-.0610063-.96000805-.172-1.428.6274187-.21232439 1.266461-.38861191 1.914-.528zm-6.817-3.338c.0421824-.01945169.0894393-.02505251.135-.016 1.1243881 1.005064 2.0146394 2.24452052 2.608 3.631.2150002.53388814.3276262 1.10346327.332 1.679-.012928.71578938-.1807778 1.4202812-.492 2.065-1.6346173-.50001537-3.3813827-.50001537-5.016 0-.31122217-.6447188-.47907204-1.34921062-.492-2.065.00524538-.57981779.11956851-1.15346885.337-1.691.59007821-1.37508664 1.4733193-2.60473024 2.588-3.603zm-6.75 3.334c.03348366-.00102249.06698533.00132263.1.007.64273231.13900827 1.27708038.31428866 1.9.525-.11231813.46781969-.17102925.94690245-.175 1.428.01186418.98677902.23486198 1.95958133.654 2.853-.39108104.2264845-.76447858.4822134-1.117.765-.1505435-.1439705-.29151095-.2976317-.422-.46-1.04541791-1.48698705-1.38879711-3.35657721-.94-5.118zm-.075 14.65h4.9c.55228475 0 1-.4477153 1-1s-.44771525-1-1-1h-4.985c.02553974-.679362.14293931-1.3521389.349-2h4.636c.55228475 0 1-.4477153 1-1s-.44771525-1-1-1h-3.641c1.26360233-1.8771421 3.37818021-3.0027485 5.641-3.0027485 2.2628198 0 4.3773977 1.1256064 5.641 3.0027485h-3.641c-.5522847 0-1 .4477153-1 1s.4477153 1 1 1h4.636c.2060607.6478611.3234603 1.320638.349 2h-4.985c-.5522847 0-1 .4477153-1 1s.4477153 1 1 1h4.9c-.0606667.604-.152 1.2706667-.274 2h-13.252c-.12066667-.7286667-.212-1.3953333-.274-2zm-2.1 4h56v6h-56zm55 10h-4v-2h4zm-23 0v-2h17v2zm-17.1 0c.317-.737.59-1.413.807-2h8.293v2zm-6.9 0v-2h5.561c-.24.6-.525 1.276-.849 2zm18-2h4v2h-4zm-24 0h4v2h-4zm-2 4h56v6h-56zm55 10h-4v-2h4zm-23 0v-2h17v2zm-24 0v-2h16v2zm18-2h4v2h-4zm-24 0h4v2h-4zm-2 4h56v6h-56zm6 10h-4v-2h4zm24 0h-4v-2h4zm21 0v-2h4v2z" fill="#000"/></g></g></svg>