<svg height="512" viewBox="0 0 60 60" width="512" xmlns="http://www.w3.org/2000/svg"><g id="Page-1" fill="none" fill-rule="evenodd"><g id="043---Hay-Bales" transform="translate(-1)"><g fill-rule="nonzero"><circle id="Oval" cx="31" cy="16" fill="#ffeb3a" r="15"/><path id="Shape" d="m31 1c-.506 0-1.007.027-1.5.076 7.6612948.77416504 13.491947 7.22369028 13.491947 14.924 0 7.7003097-5.8306522 14.149835-13.491947 14.924.493.049.994.076 1.5.076 8.2842712-.0000001 14.9999998-6.7157288 14.9999998-15 0-8.28427116-6.7157286-14.99999988-14.9999998-15z" fill="#fdd834"/><circle id="Oval" cx="31" cy="16" fill="#ffdc00" r="11"/><path id="Shape" d="m31 5c-.5020055.00396839-1.0031606.04205618-1.5.114 5.44307.74317391 9.5006713 5.3924293 9.5006713 10.886s-4.0576013 10.1428261-9.5006713 10.886c4.0710962.5639443 8.1168227-1.1897596 10.4884456-4.5464339 2.3716229-3.3566742 2.6731269-7.7558191.7816417-11.4046739-1.8914852-3.64885477-5.6601181-5.93813115-9.7700873-5.9348922z" fill="#fec108"/><circle id="Oval" cx="16.5" cy="40.5" fill="#ffeb3a" r="14.5"/><path id="Shape" d="m16.5 26c-.5010087.0001876-1.001674.0262222-1.5.078 7.3866867.7692821 12.9980293 6.9953631 12.9980293 14.422s-5.6113426 13.6527179-12.9980293 14.422c5.331362.5552311 10.5341425-1.8760226 13.5285112-6.3218586 2.9943688-4.445836 3.2918122-10.1809425.7734263-14.91269-2.5183859-4.7317476-7.4417415-7.6881794-12.8019375-7.6874514z" fill="#fdd834"/><circle id="Oval" cx="16.5" cy="40.5" fill="#ffdc00" r="10.5"/><path id="Shape" d="m16.5 30c-.5021893.0040462-1.0034545.0438132-1.5.119 5.164515.7399182 8.9997179 5.1637503 8.9997179 10.381s-3.8352029 9.6410818-8.9997179 10.381c3.8905827.5651296 7.7707391-1.0915438 10.053394-4.2924018 2.2826548-3.200858 2.5849523-7.4090402.7832456-10.9033009s-5.4052284-5.688529-9.3366396-5.6852973z" fill="#fec108"/><circle id="Oval" cx="45.5" cy="40.5" fill="#ffeb3a" r="14.5"/><path id="Shape" d="m45.5 26c-.5010087.0001876-1.001674.0262222-1.5.078 7.3866867.7692821 12.9980293 6.9953631 12.9980293 14.422s-5.6113426 13.6527179-12.9980293 14.422c5.331362.5552311 10.5341425-1.8760226 13.5285112-6.3218586 2.9943688-4.445836 3.2918122-10.1809425.7734263-14.91269-2.5183859-4.7317476-7.4417415-7.6881794-12.8019375-7.6874514z" fill="#fdd834"/><circle id="Oval" cx="45.5" cy="40.5" fill="#ffdc00" r="10.5"/><path id="Shape" d="m45.5 30c-.5021893.0040462-1.0034545.0438132-1.5.119 5.164515.7399182 8.9997179 5.1637503 8.9997179 10.381s-3.8352029 9.6410818-8.9997179 10.381c3.8905827.5651296 7.7707391-1.0915438 10.053394-4.2924018 2.2826548-3.200858 2.5849523-7.4090402.7832456-10.9033009s-5.4052284-5.688529-9.3366396-5.6852973z" fill="#fec108"/></g><path id="Shape" d="m35.08 30.43h-.01c-2.6601175.7599794-5.4798825.7599794-8.14 0" stroke="#000" stroke-linejoin="round" stroke-width="2"/><rect id="Rectangle-path" fill="#a0522d" fill-rule="nonzero" height="4" rx="1" width="58" x="2" y="55"/><path id="Shape" d="m59 55h-3c.5522847 0 1 .4477153 1 1v2c0 .5522847-.4477153 1-1 1h3c.5522847 0 1-.4477153 1-1v-2c0-.5522847-.4477153-1-1-1z" fill="#783e22" fill-rule="nonzero"/><path id="Shape" d="m16.5 31c5.2441922.0060617 9.4939383 4.2558078 9.5 9.5 0 .5522847.4477153 1 1 1s1-.4477153 1-1c0-4.6513158-2.801885-8.8446331-7.0991405-10.6246146s-9.2436105-.7960903-12.53258748 2.4928866c-3.28897696 3.288977-4.27286815 8.235332-2.49288664 12.5325875 1.7799815 4.2972555 5.97329882 7.0991405 10.62461462 7.0991405 4.1421356 0 7.5-3.3578644 7.5-7.5s-3.3578644-7.5-7.5-7.5c-3.0375661 0-5.5 2.4624339-5.5 5.5s2.4624339 5.5 5.5 5.5c.5522847 0 1-.4477153 1-1s-.4477153-1-1-1c-1.9329966 0-3.5-1.5670034-3.5-3.5s1.5670034-3.5 3.5-3.5c3.0375661.0000001 5.4999998 2.4624339 5.4999998 5.5s-2.4624337 5.4999999-5.4999998 5.5c-5.2467051 0-9.5-4.2532949-9.5-9.5s4.2532949-9.5 9.5-9.5z" fill="#000" fill-rule="nonzero"/><path id="Shape" d="m45.5 29c-6.3512745.0000001-11.4999998 5.1487255-11.4999998 11.5s5.1487253 11.4999999 11.4999998 11.5c4.1421356 0 7.5-3.3578644 7.5-7.5s-3.3578644-7.5-7.5-7.5c-3.0375661 0-5.5 2.4624339-5.5 5.5s2.4624339 5.5 5.5 5.5c.5522847 0 1-.4477153 1-1s-.4477153-1-1-1c-1.9329966 0-3.5-1.5670034-3.5-3.5s1.5670034-3.5 3.5-3.5c3.0375661 0 5.5 2.4624339 5.5 5.5s-2.4624339 5.5-5.5 5.5c-5.2467051 0-9.5-4.2532949-9.5-9.5s4.2532949-9.5 9.5-9.5 9.5 4.2532949 9.5 9.5c0 .5522847.4477153 1 1 1s1-.4477153 1-1c-.0071642-6.3483047-5.1516953-11.4928358-11.5-11.5z" fill="#000" fill-rule="nonzero"/><path id="Shape" d="m61 40.5c-.0000277-2.6723972-.6954827-5.298791-2.018-7.621l1-.666c.2976022-.1979251.4670062-.5395844.4443992-.8962781-.0226071-.3566936-.2337907-.6742314-.554-.833-.3202094-.1587685-.700797-.134647-.9983992.0632781l-1 .664c-1.3726265-1.830781-3.1316227-3.3367849-5.152-4.411l.174-.352c.1615869-.3204849.1390276-.7029869-.0591114-1.0022557s-.5414646-.469399-.8996032-.4457856c-.3581387.0236134-.6761547.2373482-.8332854.5600413l-.214.43c-1.7229184-.6499911-3.5485565-.9853124-5.39-.99-.451 0-.9.03-1.337.068.7857244-1.1332129 1.4191456-2.3647532 1.884-3.663l.635.213c.1025466.034189.2099045.0517444.318.052.4899971-.0001324.9077217-.3552923.986666-.8388882s-.2041487-.9531603-.668666-1.1091118l-.711-.239c1.3819056-6.0950916-.9395502-12.43398507-5.931-16.195l.49-.733c.306518-.4600532.1820532-1.08148193-.278-1.38799996-.4600532-.30651802-1.081482-.1820532-1.388.27799996l-.486.729c-4.7870882-2.79259764-10.6805109-2.90061446-15.5667171-.28531252-4.8862061 2.61530194-8.0649653 7.57912998-8.3962829 13.11131252h-1.051c-.5522847 0-1 .4477153-1 1s.4477153 1 1 1h1.048c.1703663 2.8945747 1.1353821 5.6861655 2.789 8.068-.437-.038-.886-.068-1.337-.068-1.8412.0034089-3.6668304.3373739-5.39.986l-.214-.43c-.1571307-.3226931-.4751467-.5364279-.8332854-.5600413-.3581386-.0236134-.70146422.1465168-.89960319.4457856s-.22069831.6817708-.05911141 1.0022557l.174.352c-2.02222884 1.0748856-3.78266178 2.582316-5.156 4.415l-1-.664c-.4600532-.3059658-1.08103425-.1810532-1.387.279s-.1810532 1.0810342.279 1.387l1 .666c-2.0336216 3.579448-2.55479321 7.8224254-1.44789305 11.7876287 1.10690017 3.9652033 3.75034722 7.3247665 7.34389305 9.3333713h-5.91c-1.1045695 0-2 .8954305-2 2v2c0 1.1045695.8954305 2 2 2h56c1.1045695 0 2-.8954305 2-2v-2c0-1.1045695-.8954305-2-2-2h-5.91c4.881146-2.7413397 7.904759-7.9017411 7.91-13.5zm-44-24.5c0-7.7319865 6.2680135-14 14-14s14 6.2680135 14 14c.0108482 3.5958929-1.3811056 7.0542525-3.88 9.64-2.4744319.7299616-4.7275294 2.0660089-6.555 3.887-2.3362419.6199231-4.7937581.6199231-7.13 0-1.8269854-1.8208896-4.0798228-3.1566428-6.554-3.886-2.4983278-2.5865979-3.8904669-6.0448853-3.881-9.641zm15.607 15.911c-.6549489.9886503-1.1941506 2.0492703-1.607 3.161-.4128494-1.1117297-.9520511-2.1723497-1.607-3.161 1.0680475.1186637 2.1459525.1186637 3.214 0zm-29.607 8.589c0-7.4558441 6.04415588-13.5 13.5-13.5 7.4558441 0 13.5 6.0441559 13.5 13.5s-6.0441559 13.5-13.5 13.5c-7.45241726-.0082667-13.49173331-6.0475827-13.5-13.5zm29.218 11.123c.3437515.42859.9688918.499588 1.4.159l.707-.563c1.0528944 1.0969695 2.2606988 2.0339023 3.585 2.781h-13.82c3.1787063-1.7970255 5.6245961-4.6542213 6.91-8.072.5037505 1.3413995 1.1916784 2.6061905 2.044 3.758l-.667.532c-.4317959.3441236-.5029737.9730847-.159 1.405zm26.782 4.377v2h-56v-2zm-13.5-2c-7.4558441 0-13.5-6.0441559-13.5-13.5s6.0441559-13.5 13.5-13.5 13.5 6.0441559 13.5 13.5c-.0082667 7.4524173-6.0475827 13.4917333-13.5 13.5z" fill="#000" fill-rule="nonzero"/><path id="Shape" d="m31 6c5.5203344.00606237 9.9939376 4.4796656 10 10 0 .5522847.4477153 1 1 1s1-.4477153 1-1c.0028399-5.2915438-3.4606878-9.96036525-8.5255825-11.49245074-5.0648947-1.5320855-10.5354957.43424159-13.4660565 4.84017598-2.9305608 4.40593436-2.6292691 10.21137506.741639 14.29027476.3523577.4258115.9831885.4853577 1.409.133s.4853577-.9831885.133-1.409c-2.4670393-2.984042-2.9885402-7.12455-1.3384986-10.6271422 1.6500417-3.50259224 5.1747051-5.73698639 9.0464986-5.7348578z" fill="#000" fill-rule="nonzero"/><path id="Shape" d="m31 23c.5522847 0 1-.4477153 1-1s-.4477153-1-1-1c-2.209139 0-4-1.790861-4-4s1.790861-4 4-4c3.3137084.0000001 5.9999999 2.6862916 5.9999999 6s-2.6862915 5.9999999-5.9999999 6c-.6097864.000051-1.2183068-.0555124-1.818-.166-.5431721-.1005158-1.0649842.2583279-1.1655.8015s.2583279 1.0649842.8015 1.1655c.7197802.132464 1.4501324.1990727 2.182.199 4.418278 0 8-3.581722 8-8s-3.581722-8-8-8c-3.3137085 0-5.9999999 2.6862915-5.9999999 6s2.6862914 6 5.9999999 6z" fill="#000" fill-rule="nonzero"/></g></g></svg>