<svg height="512" viewBox="0 0 60 60" width="512" xmlns="http://www.w3.org/2000/svg"><g id="Page-1" fill="none" fill-rule="evenodd"><g id="044---Farm-Review"><g fill-rule="nonzero"><path id="Shape" d="m43 37v14c-.0021685 1.1052968-.8947277 2.0023188-2 2.01h-13l-4-.01-4 .01-4-.01v.01h-13c-1.10527227-.0076812-1.99783146-.9047032-2-2.01v-14c.0032948-1.1032019.89679813-1.9967052 2-2h38c1.1045695 0 2 .8954305 2 2z" fill="#00bcd4"/><path id="Shape" d="m41 35h-3c1.1032019.0032948 1.9967052.8967981 2 2v14c-.0021685 1.1052968-.8947277 2.0023188-2 2.01h3c1.1052723-.0076812 1.9978315-.9047032 2-2.01v-14c-.0032948-1.1032019-.8967981-1.9967052-2-2z" fill="#00838f"/><path id="Shape" d="m28 53.01-4.58 5.34c-.3554516.4143016-.8741139.6527057-1.42.6527057s-1.0645484-.2384041-1.42-.6527057l-4.58-5.34v-.01l4 .01 4-.01z" fill="#00838f"/><path id="Shape" d="m22.481 40.312.945 2 2.114.321c.2064101.0382631.3747875.1874397.4376419.3877358s.0098984.4189288-.1376419.5682642l-1.529 1.557.361 2.2c.042105.2041699-.0368455.4143675-.20295.5403337-.1661045.1259661-.3898073.1452871-.57505.0496663l-1.894-1.036-1.891 1.037c-.1852427.0956208-.4089455.0762998-.57505-.0496663-.1661045-.1259662-.245055-.3361638-.20295-.5403337l.361-2.2-1.529-1.557c-.1475403-.1493354-.2004963-.3679681-.1376419-.5682642s.2312318-.3494727.4376419-.3877358l2.114-.321.945-2c.0854516-.1879131.2727487-.308633.4791785-.3088483.2064297-.0002152.3939782.1201138.4798215.3078483z" fill="#ffdc00"/><path id="Shape" d="m34.481 40.312.945 2 2.114.321c.2064101.0382631.3747875.1874397.4376419.3877358s.0098984.4189288-.1376419.5682642l-1.529 1.557.361 2.2c.042105.2041699-.0368455.4143675-.20295.5403337-.1661045.1259661-.3898073.1452871-.57505.0496663l-1.894-1.036-1.891 1.037c-.1852427.0956208-.4089455.0762998-.57505-.0496663-.1661045-.1259662-.245055-.3361638-.20295-.5403337l.361-2.2-1.529-1.557c-.1475403-.1493354-.2004963-.3679681-.1376419-.5682642s.2312318-.3494727.4376419-.3877358l2.114-.321.945-2c.0854516-.1879131.2727487-.308633.4791785-.3088483.2064297-.0002152.3939782.1201138.4798215.3078483z" fill="#ffdc00"/><path id="Shape" d="m10.481 40.312.945 2 2.114.321c.2064101.0382631.3747875.1874397.4376419.3877358s.0098984.4189288-.1376419.5682642l-1.529 1.557.361 2.2c.042105.2041699-.0368455.4143675-.20295.5403337-.1661045.1259661-.3898073.1452871-.57505.0496663l-1.894-1.036-1.891 1.034c-.18524268.0956208-.40894546.0762998-.57504998-.0496663-.16610451-.1259662-.24505501-.3361638-.20295002-.5403337l.361-2.2-1.529-1.555c-.1475403-.1493354-.20049635-.3679681-.13764192-.5682642.06285442-.2002961.23123179-.3494727.43764192-.3877358l2.114-.321.945-2c.08564759-.1878236.27307036-.3083479.4795-.3083479.2064296 0 .3938524.1205243.4795.3083479z" fill="#ffdc00"/><path id="Shape" d="m57 15.08v10.92h-6c0-.5522847-.4477153-1-1-1h-16c-.5522847 0-1 .4477153-1 1h-6v-10.92l2-2.91 2.76-4.03c.1596755-.23459627.367656-.43234819.61-.58l8.6-5.27c.6313068-.38994253 1.4286932-.38994253 2.06 0l8.6 5.27c.242344.14765181.4503245.34540373.61.58z" fill="#f44335"/><path id="Shape" d="m30 26h3c0-.5522847.4477153-1 1-1h-3c-.5522847 0-1 .4477153-1 1z" fill="#c81e1e"/><path id="Shape" d="m52.24 8.14c-.1596755-.23459627-.367656-.43234819-.61-.58l-8.6-5.27c-.6313068-.38994253-1.4286932-.38994253-2.06 0l-.47.288 8.13 4.982c.242344.14765181.4503245.34540373.61.58l4.76 6.94v10.92h3v-10.92z" fill="#c81e1e"/><path id="Rectangle-path" d="m51 31h6v5h-6z" fill="#c81e1e"/><path id="Rectangle-path" d="m51 26h6v5h-6z" fill="#c81e1e"/><path id="Shape" d="m37 25v10h-4v-9c0-.5522847.4477153-1 1-1z" fill="#a0522d"/><path id="Shape" d="m47 25v11h-4.27c-.356899-.6181681-1.0162016-.9992679-1.73-1h-4v-10z" fill="#ff9801"/><path id="Rectangle-path" d="m44 25h3v11h-3z" fill="#f57c00"/><path id="Shape" d="m51 26v10h-4v-11h3c.5522847 0 1 .4477153 1 1z" fill="#783e22"/><path id="Shape" d="m47 17h-10c-.5522847 0-1-.4477153-1-1v-4.667c-.00005-.3342785.1669303-.6464754.445-.832l5-3.333c.3360369-.22419954.7739631-.22419954 1.11 0l5 3.333c.2780697.1855246.44505.4977215.445.832v4.667c0 .5522847-.4477153 1-1 1z" fill="#02a9f4"/></g><path id="Shape" d="m42 17v-10" stroke="#000" stroke-linejoin="round" stroke-width="2"/><path id="Shape" d="m48 13h-12" stroke="#000" stroke-linejoin="round" stroke-width="2"/><path id="Rectangle-path" d="m27 31h6v4h-6z" fill="#c81e1e" fill-rule="nonzero"/><path id="Rectangle-path" d="m27 26h6v5h-6z" fill="#c81e1e" fill-rule="nonzero"/><path id="Shape" d="m29 9v3.17l-2 2.91v19.92h-14v-26z" fill="#009688" fill-rule="nonzero"/><path id="Shape" d="m26 9v3.17l-2 2.91v19.92h3v-19.92l2-2.91v-3.17z" fill="#00695c" fill-rule="nonzero"/><path id="Shape" d="m29 9h-16c0-4.418278 3.581722-8 8-8s8 3.581722 8 8z" fill="#9e9e9e" fill-rule="nonzero"/><path id="Shape" d="m21 1c-.5034949.00106324-1.0057505.04994946-1.5.146 3.7702485.71968498 6.4980247 4.01567788 6.5 7.854h3c0-4.418278-3.581722-8-8-8z" fill="#707070" fill-rule="nonzero"/><path id="Shape" d="m3 54.005h12.54l4.278 4.995c.5461956.6369783 1.3434106 1.0035517 2.1825 1.0035517s1.6363044-.3665734 2.1825-1.0035517l4.277-4.991h12.54c1.6568542 0 3-1.3431458 3-3v-14.009h13c.0373728-.0053076.074428-.0126519.111-.022h1.889c.5522847 0 1-.4477153 1-1s-.4477153-1-1-1h-1v-16.668l.175.255c.1998645.2996447.5454291.4686553.9046593.4424559s.6766158-.2435605.8308892-.5690332.1215953-.7087632-.0855485-1.0034227l-6.756-9.855c-.2388535-.35086348-.5497638-.64677371-.912-.868l-8.606-5.274c-.9507818-.58413423-2.1492182-.58413423-3.1 0l-8.608 5.274c-.3618734.22127718-.6727103.51677665-.912.867l-.931 1.363c-.0483013-4.75160815-3.7822935-8.64696713-8.5276099-8.89613592-4.7453164-.24916878-8.8667281 3.23371582-9.4123901 7.95413592h-2.06v-1c0-.55228475-.44771525-1-1-1s-1 .44771525-1 1v1c-.55228475 0-1 .44771525-1 1s.44771525 1 1 1v3c-.55228475 0-1 .4477153-1 1s.44771525 1 1 1v3c-.55228475 0-1 .4477153-1 1s.44771525 1 1 1v3c-.55228475 0-1 .4477153-1 1s.44771525 1 1 1v3c-.55228475 0-1 .4477153-1 1s.44771525 1 1 1v4h-5c-1.65685425 0-3 1.3431458-3 3v14c-.00132753.7965154.31415685 1.5608623.87690993 2.1245533.56275309.563691 1.32657354.8804478 2.12309007.8804467zm38-20.005h-3v-8h8v9h-2.781c-.5636999-.6338649-1.3707451-.9975626-2.219-1zm-7 0v-8h2v8zm-6 0v-2h4v2zm-14 0v-24h2v21c0 .5522847.4477153 1 1 1s1-.4477153 1-1v-21h3v5c0 .5522847.4477153 1 1 1s1-.4477153 1-1v-5h5v1.855l-3.825 5.58c-.2071438.2946595-.2398219.67795-.0855485 1.0034227s.471659.5428338.8308892.5690332.7047948-.1428112.9046593-.4424559l.175-.255v15.69zm18-4h-4v-3h4zm18-4v9h-2v-9zm6 1v3h-4v-3zm0 8h-4v-3h4zm-23.419-26.291c.0807216-.11778728.1853201-.21727504.307-.292l8.605-5.273c.3103887-.19194648.7026113-.19194648 1.013 0l8.606 5.273c.1219474.07479854.2265951.17467397.307.293l.881 1.29h-.3c-.5522847 0-1 .4477153-1 1s.4477153 1 1 1h1.675l2.056 3h-3.731c-.5522847 0-1 .4477153-1 1s.4477153 1 1 1h4v8h-4.278c-.3544126-.6167513-1.0106732-.997855-1.722-1h-16c-.7113268.002145-1.3675874.3832487-1.722 1h-4.278v-8h4c.5522847 0 1-.4477153 1-1s-.4477153-1-1-1h-3.731l2.056-3h1.675c.5522847 0 1-.4477153 1-1s-.4477153-1-1-1h-.3zm-16.537-4.659c1.8736863-1.87237232 4.64376-2.52674574 7.1572424-1.69075253s4.3397872 3.01913858 4.7187576 5.64075253h-13.841c.2113516-1.49428816.9007101-2.88002163 1.965-3.95zm-6.044 5.95h2v3h-2zm0 5h2v3h-2zm0 5h2v3h-2zm0 5h2v3h-2zm0 5h2v4h-2zm-8 7c0-.5522847.44771525-1 1-1h38c.5522847 0 1 .4477153 1 1v14c0 .5522847-.4477153 1-1 1h-13-4c-.5522847 0-1 .4477153-1 1s.4477153 1 1 1h1.83l-3.164 3.692c-.1662357.1940454-.4089849.3057331-.6645.3057331s-.4982643-.1116877-.6645-.3057331l-3.165-3.692h1.827c.5522847 0 1-.4477153 1-1s-.4477153-1-1-1h-3.999c-.009 0-.016.005-.024.005h-12.976c-.55228475 0-1-.4477153-1-1z" fill="#000" fill-rule="nonzero"/><path id="Shape" d="m18.623 45.484-.279 1.7c-.1013932.5922561.1463796 1.1901002.637 1.537.474213.3377886 1.1000468.3739393 1.61.093l1.409-.777 1.41.775c.5096441.2807624 1.1350978.2446112 1.609-.093.4906204-.3468998.7383932-.9447439.637-1.537l-.279-1.7 1.174-1.2c.4142487-.4214628.5561558-1.0401313.367-1.6-.1791127-.5519463-.6543416-.9555812-1.228-1.043l-1.59-.239-.718-1.517c-.249694-.5397931-.7902533-.8853355-1.385-.8853355s-1.135306.3455424-1.385.8853355l-.712 1.517-1.588.242c-.5732789.087768-1.0480476.4913407-1.227 1.043-.1884355.5599046-.0466161 1.178191.367 1.6zm2.1-2.183c.3290226-.0498915.6116691-.2601895.754-.561l.523-1.105.522 1.105c.1423309.3008105.4249774.5111085.754.561l1.255.19-.936.953c-.2241058.2276958-.3259267.5487661-.274.864l.212 1.29-1.052-.578c-.29936-.1653157-.66264-.1653157-.962 0l-1.052.578.212-1.29c.0519267-.3152339-.0498942-.6363042-.274-.864l-.936-.953z" fill="#000" fill-rule="nonzero"/><path id="Shape" d="m30.623 45.484-.279 1.7c-.1013932.5922561.1463796 1.1901002.637 1.537.4741294.338026 1.1001025.3741847 1.61.093l1.409-.777 1.41.775c.5096441.2807624 1.1350978.2446112 1.609-.093.4906204-.3468998.7383932-.9447439.637-1.537l-.279-1.7 1.174-1.2c.4142487-.4214628.5561558-1.0401313.367-1.6-.1791127-.5519463-.6543416-.9555812-1.228-1.043l-1.59-.239-.718-1.517c-.249694-.5397931-.7902533-.8853355-1.385-.8853355s-1.135306.3455424-1.385.8853355l-.712 1.517-1.588.242c-.5732789.087768-1.0480476.4913407-1.227 1.043-.1884355.5599046-.0466161 1.178191.367 1.6zm2.1-2.183c.3290226-.0498915.6116691-.2601895.754-.561l.523-1.105.522 1.105c.1423309.3008105.4249774.5111085.754.561l1.255.19-.936.953c-.2241058.2276958-.3259267.5487661-.274.864l.212 1.29-1.052-.578c-.29936-.1653157-.66264-.1653157-.962 0l-1.052.578.212-1.29c.0519267-.3152339-.0498942-.6363042-.274-.864l-.936-.953z" fill="#000" fill-rule="nonzero"/><path id="Shape" d="m6.623 45.484-.279 1.7c-.10139315.5922561.14637958 1.1901002.637 1.537.47412945.338026 1.10010248.3741847 1.61.093l1.409-.777 1.41.775c.5096441.2807624 1.1350978.2446112 1.609-.093.4906204-.3468998.7383932-.9447439.637-1.537l-.279-1.7 1.174-1.2c.4142487-.4214628.5561558-1.0401313.367-1.6-.1791127-.5519463-.6543416-.9555812-1.228-1.043l-1.59-.239-.718-1.517c-.249694-.5397931-.7902533-.8853355-1.385-.8853355-.59474672 0-1.13530596.3455424-1.385.8853355l-.712 1.517-1.588.242c-.57327889.087768-1.04804755.4913407-1.227 1.043-.18843554.5599046-.04661611 1.178191.367 1.6zm2.1-2.183c.3290226-.0498915.61166909-.2601895.754-.561l.523-1.105.522 1.105c.1423309.3008105.4249774.5111085.754.561l1.255.19-.936.953c-.2241058.2276958-.3259267.5487661-.274.864l.212 1.29-1.052-.578c-.29936-.1653157-.66263995-.1653157-.962 0l-1.052.58.212-1.29c.05192671-.3152339-.0498942-.6363042-.274-.864l-.936-.953z" fill="#000" fill-rule="nonzero"/><circle id="Oval" cx="41" cy="30" fill="#000" fill-rule="nonzero" r="1"/><path id="Shape" d="m37 18h10c1.1045695 0 2-.8954305 2-2v-4.667c-.0001229-.6687467-.3344799-1.29318-.891-1.664l-5-3.333c-.6711241-.44912976-1.5468759-.44912976-2.218 0l-5 3.333c-.5565201.37082-.8908771.9952533-.891 1.664v4.667c0 1.1045695.8954305 2 2 2zm0-4h4v2h-4zm6 2v-2h4v2zm4-4.667v.667h-4v-3.333zm-6-2.666v3.333h-4v-.667z" fill="#000" fill-rule="nonzero"/><path id="Shape" d="m30 21c0 .5522847.4477153 1 1 1h22c.5522847 0 1-.4477153 1-1s-.4477153-1-1-1h-22c-.5522847 0-1 .4477153-1 1z" fill="#000" fill-rule="nonzero"/><path id="Shape" d="m22 21c-.5522847 0-1 .4477153-1 1v9c0 .5522847.4477153 1 1 1s1-.4477153 1-1v-9c0-.5522847-.4477153-1-1-1z" fill="#000" fill-rule="nonzero"/></g></g></svg>