<svg height="512" viewBox="0 0 48 60" width="512" xmlns="http://www.w3.org/2000/svg"><g id="Page-1" fill="none" fill-rule="evenodd"><g id="045---Organic-Fertiliser" fill-rule="nonzero" transform="translate(-1)"><path id="Shape" d="m47.89 55.05c-.3492389 1.6289965-1.4869017 2.9770359-3.034032 3.5950854-1.5471304.6180494-3.3004654.4249093-4.675968-.5150854-1.7027753-1.1608513-3.8671137-1.4113015-5.79-.67-3.015946 1.0581583-6.1940528 1.5793814-9.39 1.54-3.1959472.0393814-6.374054-.4818417-9.39-1.54-1.9228863-.7413015-4.0872247-.4908513-5.79.67-2.0683676 1.4175507-4.86682105 1.083831-6.54383593-.780362s-1.71386271-4.6822336-.08616407-6.589638c1.00833153-1.1091299 1.80482552-2.3936883 2.35-3.79.98442248-2.8874252 1.47792569-5.9194278 1.46-8.97v-28c.0032948-1.10320187.89679813-1.9967052 2-2h32c1.1032019.0032948 1.9967052.89679813 2 2v28c-.0179257 3.0505722.4755775 6.0825748 1.46 8.97.5451745 1.3963117 1.3416685 2.6808701 2.35 3.79 1.0091245 1.1834271 1.4084984 2.7698287 1.08 4.29z" fill="#ffdc00"/><path id="Shape" d="m46.81 50.76c-1.0083315-1.1091299-1.8048255-2.3936883-2.35-3.79-.9844225-2.8874252-1.4779257-5.9194278-1.46-8.97v-28c-.0032948-1.10320187-.8967981-1.9967052-2-2h-3c1.1032019.0032948 1.9967052.89679813 2 2v28c-.0179257 3.0505722.4755775 6.0825748 1.46 8.97.5451745 1.3963117 1.3416685 2.6808701 2.35 3.79 1.0889678 1.2777688 1.4624112 3.0174875.9937789 4.6296066-.4686322 1.612119-1.7165182 2.8805281-3.3207789 3.3753934.8440886.265099 1.7428474.3047451 2.607.115 1.7103344-.381418 3.0961742-1.6303755 3.6527703-3.2919784.5565961-1.661603.2027084-3.4933263-.9327703-4.8280216z" fill="#fec108"/><path id="Shape" d="m38 30c.0034581 3.4384676-1.3599655 6.7373052-3.79 9.17-.8985119-.7563994-2.0354946-1.1708136-3.21-1.17-.3561338.0009195-.711266.0377728-1.06.11-.7998417.1790454-1.6379179.0429475-2.34-.38-1.5970033-.9722249-3.6029967-.9722249-5.2 0-.7020821.4229475-1.5401583.5590454-2.34.38-.348734-.0722272-.7038662-.1090805-1.06-.11-1.1745054-.0008136-2.3114881.4136006-3.21 1.17-4.1507745-4.1667263-4.9870321-10.6012034-2.0392174-15.6904986s8.9453217-7.5655284 14.6249454-6.0383048c5.6796237 1.5272237 9.6264172 6.6774317 9.624272 12.5588034z" fill="#02a9f4"/><path id="Shape" d="m25 17c-.5013727.0021196-1.0022053.0331712-1.5.093 4.701973.5408312 8.7371736 3.597354 10.5313071 7.9770952 1.7941334 4.3797412 1.0629419 9.3887866-1.9083071 13.0729048.7669558.172866 1.4821123.5247902 2.087 1.027 3.7042538-3.7223187 4.8051998-9.3077346 2.7905592-14.1573094-2.0146407-4.8495748-6.7491642-8.0107835-12.0005592-8.0126906z" fill="#0377bc"/><path id="Shape" d="m34.21 39.17c-2.4379447 2.4514799-5.7526415 3.8298504-9.21 3.8298504s-6.7720553-1.3783705-9.21-3.8298504c.8985119-.7563994 2.0354946-1.1708136 3.21-1.17.3561338.0009195.711266.0377728 1.06.11.7998417.1790454 1.6379179.0429475 2.34-.38 1.5970033-.9722249 3.6029967-.9722249 5.2 0 .7020821.4229475 1.5401583.5590454 2.34.38.348734-.0722272.7038662-.1090805 1.06-.11 1.1745054-.0008136 2.3114881.4136006 3.21 1.17z" fill="#a0522d"/><path id="Shape" d="m21.789 31.96c-1.2903155.6010616-2.8240824.0528101-3.441-1.23-.65-1.23-.24-3.25.03-4.27.0429787-.1691413.156233-.3118319.3112011-.3920867s.3368581-.0904131.4997989-.0279133c.99.35 2.891 1.15 3.541 2.38.7118589 1.2381684.2917136 2.8187364-.941 3.54z" fill="#60a917"/><path id="Shape" d="m30.652 27.73c-.3678449.8607958-1.188213 1.44184-2.1222998 1.5031668-.9340869.0613268-1.8233816-.4074707-2.3006136-1.2127836-.4772321-.8053128-.4614172-1.8104824.0409134-2.6003832.65-1.23 2.551-2.03 3.541-2.38.1629408-.0624998.3448308-.0523415.4997989.0279133s.2682224.2229454.3112011.3920867c.27 1.02.678 3.04.03 4.27z" fill="#60a917"/><path id="Shape" d="m41 8h-31.9c.47526858-2.32833127 2.5236569-4.00048501 4.9-4 .14 0 .27.03.4.04.6614-1.56041157 2.0701506-2.67800729 3.7401059-2.96711576 1.6699552-.28910847 3.3724214.28986253 4.5198941 1.53711576 1.4539786-.81337158 3.2260214-.81337158 4.68 0 1.0156872-1.10712264 2.477689-1.69535631 3.9771167-1.60018538s2.8753245.8635303 3.7428833 2.09018538c.3093128-.06396988.6241517-.09746338.94-.1 2.7614237 0 5 2.23857625 5 5z" fill="#ff9801"/><path id="Shape" d="m36 3c-.3158483.00253662-.6306872.03603012-.94.1-.9344247-1.31499985-2.4468147-2.09727055-4.06-2.1-.5120944.000034-1.0209908.08068801-1.508.239 1.0344452.32686404 1.9353301.97972492 2.568 1.861.3093128-.06396988.6241517-.09746338.94-.1 2.7614237 0 5 2.23857625 5 5h3c0-2.76142375-2.2385763-5-5-5z" fill="#f57c00"/><g fill="#000"><path id="Shape" d="m1.13 55.246c.4154788 1.95792 1.77990249 3.5797397 3.63784944 4.324123 1.85794696.7443832 3.96473378.5132982 5.61715056-.616123 1.4346292-.9694645 3.2519896-1.1781119 4.869-.559 3.1288397 1.1046072 6.4281769 1.6479518 9.746 1.605 3.3175251.0445569 6.6168538-.4970936 9.746-1.6 1.6173441-.6191148 3.4350014-.4104761 4.87.559 2.4819146 1.6959371 5.8357761 1.2935162 7.8460351-.9414248s2.0564096-5.6125436.1079649-7.9015752c-.9302761-1.0118973-1.6644058-2.1878612-2.165-3.468-.9478555-2.7840115-1.4227576-5.7071099-1.405-8.648v-28c-.0044142-1.29183653-.8369152-2.43516481-2.065-2.836-.4255783-3.16730086-3.2738803-5.43500096-6.456-5.14-1.1361119-1.28244443-2.7657028-2.0188347-4.479-2.024-1.4123281-.00387706-2.7792876.49848856-3.853 1.416-1.3779107-.55304843-2.9160893-.55304843-4.294 0-1.0737124-.91751144-2.4406719-1.41987706-3.853-1.416-2.1454658-.00323822-4.1288798 1.1410391-5.2 3-2.4928885.0925969-4.66951043 1.71531431-5.47 4.078-1.36258492.31219563-2.32896249 1.52410777-2.33 2.922v28c.01793338 2.9365764-.45525699 5.8554851-1.4 8.636-.50100083 1.2837679-1.23690156 2.4629047-2.17 3.477-1.20571744 1.4169099-1.68592374 3.312986-1.3 5.133zm12.87-50.246c.0369265.00174445.0736842.00608854.11.013.07.009.14.018.211.024.427521.03518454.8298588-.20621819 1-.6.6267765-1.47650996 2.0749648-2.43580185 3.679-2.437 1.1119415-.00042221 2.172642.4674912 2.922 1.289.3087857.33029083.800784.41229055 1.2.2 1.1635783-.65191106 2.5824217-.65191106 3.746 0 .4004484.21489349.8954445.13273646 1.205-.2.7505303-.8227969 1.8133182-1.29083023 2.927-1.289 1.2878033.00584447 2.4943574.63014226 3.243 1.678.2269269.31678257.6172029.47289296 1 .4 2.0719146-.41527764 4.1042847.87152309 4.615 2.922h-29.314c.7142818-1.23390193 2.0302749-1.995472 3.456-2zm-10.049 46.408c1.08543118-1.2053584 1.94391419-2.5970902 2.534-4.108 1.02064232-2.9936853 1.53272471-6.1371614 1.515-9.3v-28c0-.55228475.44771525-1 1-1h32c.5522847 0 1 .44771525 1 1v28c-.0168533 3.1630157.4962464 6.3065118 1.518 9.3.5786816 1.5130433 1.4365721 2.9038504 2.529 4.1.8130755.9473139 1.1327918 2.2221039.863 3.441v.007c-.319586 1.5259358-1.5064161 2.7213832-3.03 3.052-1.0830226.2412159-2.2175834.0240751-3.135-.6-1.9728833-1.3356463-4.4723041-1.6277427-6.7-.783-2.9059142 1.0161883-5.9667296 1.5180334-9.045 1.483-3.0773647.0360857-6.1374767-.4644015-9.043-1.479-.8352625-.3131202-1.7199755-.4736692-2.612-.474-1.4589036-.0030681-2.8846352.4351091-4.09 1.257-.91754152.6264936-2.05405433.8438001-3.138.6-1.36541651-.3083716-2.47029262-1.3080749-2.91325672-2.6359446-.4429641-1.3278698-.15956096-2.7906891.74725672-3.8570554z"/><path id="Shape" d="m11.951 53.11c.0560293.5062684.4836409.8895255.993.89.0370809-.0000044.0741347-.0020073.111-.006.5472541-.0607632.9424247-.5524913.884-1.1-.2703022-2.4457383-1.4357527-4.7050455-3.272-6.343-.2655855-.2422537-.6407618-.3233175-.98267274-.2123246-.34191092.1109929-.59793929.3969616-.6705969.7490175-.07265761.352056.04923691.7160207.31926964.9533071 1.4680157 1.3089206 2.4004248 3.1142611 2.618 5.069z"/><path id="Shape" d="m36.061 52.89c-.0584247.5475087.3367459 1.0392368.884 1.1.0371999.0039921.0745865.0059949.112.006.508977-.0009832.9360134-.3841107.992-.89.2170849-1.9560257 1.1494934-3.7627898 2.618-5.073.2700327-.2372864.3919273-.6012511.3192696-.9533071-.0726576-.3520559-.3286859-.6380246-.6705969-.7490175-.3419109-.1109929-.7170872-.0299291-.9826727.2123246-1.836054 1.6397743-3.0013596 3.9002251-3.272 6.347z"/><path id="Shape" d="m15.024 39.813c.006.007.016.01.023.018 2.6251557 2.6680823 6.2114924 4.170657 9.9545 4.170657s7.3293443-1.5025747 9.9545-4.170657c.006-.007.014-.009.02-.015s.005-.012.009-.018c5.3975551-5.4920251 5.3465448-14.3120976-.1141726-19.7413246s-14.2809374-5.429227-19.7416548 0c-5.46071738 5.429227-5.51172768 14.2492995-.1141726 19.7413246.004.002.005.009.009.015zm2.45-.48c.7504801-.3185484 1.5796147-.4032393 2.379-.243 1.0493678.2318679 2.147725.0506587 3.067-.506 1.2813212-.7631035 2.8776788-.7631035 4.159 0 .9190457.5582473 2.0182155.7398898 3.068.507.7993823-.1603021 1.6285355-.0756093 2.379.243-4.3872201 3.5561147-10.6647799 3.5561147-15.052 0zm7.526-21.333c4.6996439-.007111 8.9695278 2.7338781 10.9197564 7.009777 1.9502287 4.2758989 1.2206736 9.2971219-1.8657564 12.841223-1.3018663-.7698488-2.8444933-1.0252294-4.325-.716-.5498405.1225283-1.1257345.0294689-1.609-.26-.6395787-.382202-1.3456401-.640062-2.081-.76.2154964-2.0604385.7470614-4.0753936 1.576-5.974.2175478.047807.4392983.0739347.662.078 1.3757269-.019858 2.628613-.79604 3.259-2.019.758-1.433.447-3.507.054-4.986-.1128905-.4403819-.4065955-.8125651-.8086665-1.0247428s-.8750743-.2445956-1.3023335-.0892572c-1.449.511-3.334 1.422-4.095 2.86-.732224 1.3585079-.5398206 3.0294629.482 4.186-.5968031 1.3569412-1.0687532 2.765428-1.41 4.208-.391-.545-.792-1.032-1.129-1.414.8604307-1.1602541.97229-2.713423.287-3.985-.759-1.433-2.644-2.344-4.078-2.849-.4268877-.1604102-.9017772-.1322603-1.306725.0774584-.4049477.2097186-.7019615.5813304-.817275 1.0225416-.395 1.487-.706 3.561.051 4.992.629199 1.2252118 1.882823 2.0035354 3.26 2.024.3165553-.0053258.6307274-.0558358.933-.15.8561017.9169143 1.5712406 1.9559214 2.122 3.083-.6706491.1288939-1.3136394.3739071-1.9.724-.4831275.2888688-1.0586037.3815605-1.608.259-1.4805026-.3094263-3.0232011-.0540339-4.325.716-3.0885139-3.5441124-3.819186-8.5668796-1.8684515-12.8440616s6.2224327-7.0184713 10.9234515-7.0099384zm4.757 6.127c.3301725 1.0183362.3340182 2.1143719.011 3.135-.1991869.5450321-.6966849.9248399-1.2749438.9733378s-1.1320701-.2431379-1.4192582-.7473783c-.2871882-.5042403-.2555022-1.1293437.081202-1.6019595.6626558-.8433538 1.572442-1.4583861 2.602-1.759zm-7.913 4.756c.3399025.4724087.3738687 1.0994115.0869886 1.6057745-.28688.5063631-.8421658.799525-1.4221048.7507974-.5799391-.0487277-1.0785207-.4304377-1.2768838-.9775719-.3226935-1.0207322-.3184981-2.116768.012-3.135 1.0279511.3012171 1.9366511.9149391 2.6 1.756z"/><path id="Shape" d="m24 13h2c.5522847 0 1-.4477153 1-1s-.4477153-1-1-1h-2c-.5522847 0-1 .4477153-1 1s.4477153 1 1 1z"/><path id="Shape" d="m18 13h2c.5522847 0 1-.4477153 1-1s-.4477153-1-1-1h-2c-.5522847 0-1 .4477153-1 1s.4477153 1 1 1z"/><path id="Shape" d="m12 13h2c.5522847 0 1-.4477153 1-1s-.4477153-1-1-1h-2c-.5522847 0-1 .4477153-1 1s.4477153 1 1 1z"/><path id="Shape" d="m36 13h2c.5522847 0 1-.4477153 1-1s-.4477153-1-1-1h-2c-.5522847 0-1 .4477153-1 1s.4477153 1 1 1z"/><path id="Shape" d="m30 13h2c.5522847 0 1-.4477153 1-1s-.4477153-1-1-1h-2c-.5522847 0-1 .4477153-1 1s.4477153 1 1 1z"/></g></g></g></svg>