<svg height="512" viewBox="0 0 61 60" width="512" xmlns="http://www.w3.org/2000/svg"><g id="Page-1" fill="none" fill-rule="evenodd"><g id="047---Wheelbarrow"><path id="Shape" d="m53 31c-2.7561852-.0058643-5.256967 1.6129803-6.38 4.13-.4118939.9005368-.6234295 1.8797418-.62 2.87 0 3.8659932 3.1340068 7 7 7s7-3.1340068 7-7-3.1340068-7-7-7zm0 10c-1.6548028-.0049422-2.9950578-1.3451972-3-3 .0004841-.4246475.0925793-.8441922.27-1.23.6129416-1.3635405 2.1362603-2.0677121 3.5720432-1.6512182 1.435783.4164939 2.3458085 1.8265333 2.1339266 3.3064137-.2118818 1.4798805-1.4810015 2.5779208-2.9759698 2.5748045z" fill="#37474f" fill-rule="nonzero"/><path id="Shape" d="m56 38c0 1.6568542-1.3431458 3-3 3s-3-1.3431458-3-3c.0004841-.4246475.0925793-.8441922.27-1.23.5841733-1.2822547 1.9819959-1.9851573 3.3596675-1.6894268 1.3776716.2957306 2.3638717 1.5103867 2.3703325 2.9194268z" fill="#cfd8dc" fill-rule="nonzero"/><path id="Shape" d="m11.82 19.51c-.2119492.4876643-.6112262.8695209-1.1078545 1.0595189-.4966284.1899979-1.04882224.172151-1.5321455-.0495189l-6-2.7c-.93483357-.4926339-1.32513179-1.6274942-.89106178-2.5909179.43407002-.9634237 1.54271246-1.4229372 2.53106178-1.0490821l6 2.69c.4843883.2155432.8625483.6157303 1.0503525 1.1115332.1878041.4958029.1696756 1.0460992-.0503525 1.5284668z" fill="#37474f" fill-rule="nonzero"/><path id="Shape" d="m56 13-13.29 20.38-26.71-11.99v-8.39z" fill="#02a9f4" fill-rule="nonzero"/><path id="Shape" d="m53 13-12.611 19.338 2.321 1.042 13.29-20.38z" fill="#0377bc" fill-rule="nonzero"/><path id="Shape" d="m42.095 27 5.869-9" stroke="#000" stroke-linecap="round" stroke-linejoin="round" stroke-width="2"/><g fill-rule="nonzero"><path id="Shape" d="m59 11c-.0081672 1.1011688-.8988312 1.9918328-2 2h-42c-1.1032019-.0032948-1.9967052-.8967981-2-2 .0081672-1.10116878.8988312-1.99183278 2-2h42c1.1032019.0032948 1.9967052.89679813 2 2z" fill="#7f8e94"/><path id="Shape" d="m57 9h-3c1.1032019.0032948 1.9967052.89679813 2 2-.0081672 1.1011688-.8988312 1.9918328-2 2h3c1.1011688-.0081672 1.9918328-.8988312 2-2-.0032948-1.10320187-.8967981-1.9967052-2-2z" fill="#545c60"/><rect id="Rectangle-path" fill="#60a917" height="14" rx="1" width="58" x="2" y="45"/><path id="Shape" d="m59 45h-3c.5522847 0 1 .4477153 1 1v12c0 .5522847-.4477153 1-1 1h3c.5522847 0 1-.4477153 1-1v-12c0-.5522847-.4477153-1-1-1z" fill="#549414"/><path id="Shape" d="m54.93 9h-37.64c.8095275-2.69271324 3.1460716-4.64376685 5.94-4.96 1.0968216-1.60116496 2.8098935-2.67431783 4.7291763-2.96258954 1.9192827-.28827172 3.8720264.23428434 5.3908237 1.44258954.8417235-.34197025 1.7414628-.51852287 2.65-.52.6673339-.00045053 1.331105.09726197 1.97.29 2.7902473-1.98342935 6.6074894-1.64873221 9.01.79.3375086-.05224343.6784734-.07898578 1.02-.08 3.4795774.00125775 6.4307889 2.5564192 6.93 6z" fill="#a0522d"/><path id="Shape" d="m48 3c-.3415266.00101422-.6824914.02775657-1.02.08-1.3152502-1.33110736-3.108709-2.08018252-4.98-2.08-.4925367.00561713-.9830343.0642891-1.463.175 1.3059247.29347542 2.5006099.95449066 3.443 1.905.3375086-.05224343.6784734-.07898578 1.02-.08 3.4795774.00125775 6.4307889 2.5564192 6.93 6h3c-.4992111-3.4435808-3.4504226-5.99874225-6.93-6z" fill="#783e22"/><path id="Shape" d="m61 38c.0032656-3.5849616-2.3810856-6.7334752-5.832724-7.7020579s-7.1259434.479779-8.988276 3.5430579l-1.993-.9 12.356-18.941h.458c1.6568542 0 2.9999999-1.3431458 2.9999999-3 0-1.65685422-1.3431457-2.99999997-2.9999999-3h-1.258c-.9242941-3.52236322-4.1004205-5.98384072-7.742-6-.216 0-.437.011-.673.033-2.6435598-2.36417555-6.5296868-2.70142669-9.541-.828-1.4154804-.32804211-2.8938469-.26128387-4.274.193-1.326225-.91525755-2.9006207-1.40306898-4.512-1.398-2.4786312.00087274-4.8168662 1.15060036-6.331 3.113-2.7363604.46017576-5.0357761 2.31175663-6.069 4.887h-1.6c-1.6568542.00000003-2.9999999 1.34314578-2.9999999 3 0 1.6568542 1.3431457 3 2.9999999 3v5.842l-2.019-.907c.1149702-1.2653959-.5899276-2.4631589-1.752-2.977l-6-2.693c-.98232586-.470687-2.14260166-.3719329-3.03125109.2579977-.88864943.6299305-1.36603082 1.6920507-1.24717145 2.774817.11885937 1.0827662.81528203 2.0160335 1.81942254 2.4381853l6 2.7c1.15898515.5230296 2.522132.2536124 3.395-.671l3.429 1.54.031.014 2.375 1.061v12.62c-.0104944 1.1999183.7037666 2.2876957 1.809 2.755.3816066.1668754.7935021.2533394 1.21.254.7528991-.001442 1.4767144-.2908966 2.023-.809l9.258-8.4 13.053 5.861c-.9231398 3.004403.0063557 6.2707593 2.373 8.339h-44.726c-1.1045695 0-2 .8954305-2 2v12c0 1.1045695.8954305 2 2 2h56c1.1045695 0 2-.8954305 2-2v-12c0-1.1045695-.8954305-2-2-2h-.726c1.7310709-1.51355 2.724701-3.7005569 2.726-6zm-37.664-32.961h.011c.7957367-.08369008 1.6001595-.01099308 2.368.214.0928551.02533754.1887532.03778747.285.037.4972801.00079478.9195888-.36393162.9911808-.85603189.0715919-.49210028-.229288-.96203789-.7061808-1.10296811-.2602056-.0769619-.5242267-.14038037-.791-.19 1.0194483-.73985957 2.2463716-1.13915209 3.506-1.141.8126403.00297593 1.6159721.17317334 2.36.5-.4013635.34405669-.4628056.94224721-.139763 1.36071002.3230427.4184628.9172999.51047012 1.351763.20928998.356554-.24768114.7387605-.45621833 1.14-.622h.017c1.2579129-.51611647 2.654468-.5866852 3.958-.2h.017c.4863165.14373144.9523864.34870812 1.387.61.1553907.0936787.3335577.14280434.515.142.3509388.00070657.676565-.18260051.858-.483.243744-.41249951.1560297-.94047248-.208-1.252 1.5062348-.46543129 3.1356531-.31364001 4.53.422-.07.031-.145.05-.215.084-.3313122.14797953-.5564679.46381929-.5883223.82527611s.1345913.71180756.4349157.91545186c.3003244.20364431.6873978.22862443 1.0114066.06527203.5289023-.25060272 1.0920165-.42145784 1.671-.507h.029c2.8390975-.44473758 5.5880155 1.21194815 6.521 3.93h-34.832c.9476797-1.65097049 2.6260008-2.75090607 4.518-2.961zm-9.336 5.961c0-.5522847.4477153-1 1-1h42c.5522847 0 1 .4477153 1 1s-.4477153 1-1 1h-42c-.5522847 0-1-.4477153-1-1zm3 3h37.154l-11.814 18.117-9.807-4.4h-.005l-13.123-5.897-.03-.014-2.375-1.066zm-7.41 5.606-6-2.694c-.37018086-.1654184-.603838-.5379912-.59156364-.9432645.01227437-.4052733.26805052-.7630228.64756364-.9057355.11333288-.0418172.23319853-.0631492.354-.063.14209685.0000578.28254977.0303983.412.089l6 2.694c.4956153.2270958.7180083.8093207.5 1.309l-.007.01v.012c-.2336566.4920835-.8157219.70986-1.315.492zm12.1 17.124c-.2904195.2768687-.7182069.3533372-1.0865593.1942264-.3683525-.1591108-.6059321-.5229864-.6034407-.9242264l-.0000194-11.722 10.3070194 4.628zm37.31 9.27v2h-8c-.5522847 0-1 .4477153-1 1s.4477153 1 1 1h8v3h-24c-.5522847 0-1 .4477153-1 1s.4477153 1 1 1h24v3h-56v-3h8c.5522847 0 1-.4477153 1-1s-.4477153-1-1-1h-8v-3h24c.5522847 0 1-.4477153 1-1s-.4477153-1-1-1h-24v-2zm-12-8c.001928-.5094786.0691422-1.0166095.2-1.509l1.868.839c-.0419426.2209549-.0646941.4451238-.068.67-.026527 1.9763564 1.3780906 3.6828985 3.3226689 4.036881 1.9445784.3539825 3.8604674-.748109 4.5320981-2.6070336s-.0974008-3.9310798-1.8191691-4.9017509c-1.7217684-.970671-3.8927795-.5560061-5.1355979.9809035l-1.88-.843c1.6584488-2.4678937 4.8742111-3.3489032 7.5589124-2.0708849s4.0284405 4.3295212 3.1585689 7.1728072c-.8698715 2.843286-3.6909373 4.6206134-6.6311459 4.1777534-2.9402087-.4428599-5.1125795-2.9723084-5.1063354-5.9456757zm4.912-.489c.1578248-.3544715.094958-.7683766-.161-1.06.3518406-.289915.7931058-.449251 1.249-.451 1.0925323-.0040958 1.9861817.8692988 2.0071301 1.9616379s-.8385571 1.9993549-1.9304431 2.0371509c-1.0918859.037796-2.0120523-.8076158-2.066687-1.8987888.389762-.0037639.7418185-.2336544.902-.589z" fill="#000"/><path id="Shape" d="m41.549 27.838c.2222376.1448562.4929259.1954724.7524906.1407088.2595646-.0547637.4867332-.2104191.6315094-.4327088l5.869-9c.3015475-.4628146.1708146-1.0824525-.292-1.384s-1.0824525-.1708146-1.384.292l-5.869 9c-.1448562.2222376-.1954724.4929259-.1407088.7524906.0547637.2595646.2104191.4867332.4327088.6315094z" fill="#000"/><path id="Shape" d="m31 50h16c.5522847 0 1-.4477153 1-1s-.4477153-1-1-1h-16c-.5522847 0-1 .4477153-1 1s.4477153 1 1 1z" fill="#000"/><path id="Shape" d="m31 53h-16c-.5522847 0-1 .4477153-1 1s.4477153 1 1 1h16c.5522847 0 1-.4477153 1-1s-.4477153-1-1-1z" fill="#000"/></g></g></g></svg>