<svg height="60" viewBox="0 0 60 60" width="60" xmlns="http://www.w3.org/2000/svg"><g id="Page-1" fill="none" fill-rule="evenodd"><g id="048---Live-Produce-Data" transform="translate(-1)"><path id="Shape" d="m60 43v3.82c.0452102 1.152631-.8477494 2.1259569-2 2.18h-54c-1.15225064-.0540431-2.04521019-1.027369-2-2.18v-3.82z" fill="#7f8e94" fill-rule="nonzero"/><path id="Shape" d="m57 43v3.82c.0452102 1.152631-.8477494 2.1259569-2 2.18h3c1.1522506-.0540431 2.0452102-1.027369 2-2.18v-3.82z" fill="#545c60" fill-rule="nonzero"/><path id="Shape" d="m60 3.18v39.82h-58v-39.82c-.04521019-1.152631.84774936-2.12595691 2-2.18h54c1.1522506.05404309 2.0452102 1.027369 2 2.18z" fill="#02a9f4" fill-rule="nonzero"/><path id="Shape" d="m58 1h-3c1.1522506.05404309 2.0452102 1.027369 2 2.18v39.82h3v-39.82c.0452102-1.152631-.8477494-2.12595691-2-2.18z" fill="#0377bc" fill-rule="nonzero"/><path id="Shape" d="m39 49 3 6h-11-11l3-6z" fill="#37474f" fill-rule="nonzero"/><rect id="Rectangle-path" fill="#7f8e94" fill-rule="nonzero" height="4" rx="2" width="34" x="14" y="55"/><path id="Shape" d="m46 55h-3c1.1045695 0 2 .8954305 2 2s-.8954305 2-2 2h3c1.1045695 0 2-.8954305 2-2s-.8954305-2-2-2z" fill="#545c60" fill-rule="nonzero"/><rect id="Rectangle-path" fill="#cfd8dc" fill-rule="nonzero" height="12" rx="2" width="12" x="6" y="5"/><rect id="Rectangle-path" fill="#cfd8dc" fill-rule="nonzero" height="12" rx="2" width="12" x="44" y="5"/><path id="Shape" d="m34.9 35.98c-.01 0-.01 0-.02.01" stroke="#000" stroke-linejoin="round" stroke-width="2"/><g fill-rule="nonzero"><path id="Shape" d="m51.78 30.86-.57 2.31c-.1286974.498149-.6103759.8207016-1.12.75-.5310091-.0811429-1.0532777-.2117101-1.56-.39-2.005 1.77-5.899 1.47-8.82 1.47-.11651.2944689-.2747997.570634-.47.82-.32.405-.24.339-.24 3.94.0179097.8016233.3395984 1.5665275.9 2.14.1742177.1934542.2182164.4713415.1122822.709153s-.3419433.390968-.6022822.390847h-1.96c-.9367813.005585-1.7498139-.6448411-1.95-1.56-.3087413-1.6458324-.4727015-3.3155489-.49-4.99-.0124978-.1604196-.0566833-.3167684-.13-.46-2.229968.6786182-4.5490779 1.019069-6.88 1.01-2.8886297.0471518-5.7438603-.6228482-8.31-1.95-.1161138.2750251-.267373.5338463-.45.77-.32.405-.24.339-.24 3.94.0179097.8016233.3395984 1.5665275.9 2.14.1742177.1934542.2182164.4713415.1122822.709153s-.3419433.390968-.6022822.390847h-1.96c-.9491612-.0036564-1.7663956-.6707865-1.96-1.6-.659-3.047-.134-4.665-.9-6.14-1.0579078-1.9158485-1.6054368-4.0715288-1.59-6.26 0-4.97 6.72-10 15-10 5.0331177.2592964 9.9169832 1.7977656 14.19 4.47-.4765092 1.0900553-.1219991 2.3648952.8488369 3.0524698s2.2910708.5988383 3.1611631-.2124698l.01.01c1.4517538 1.4184155 3.1449565 2.5664069 5 3.39.4533581.1841613.6979802.6776971.57 1.15z" fill="#ef314c"/><path id="Shape" d="m39.19 23.47c-.4564076 1.0429772-.152423 2.2625506.7401119 2.9692972.8925348.7067467 2.1493164.7230537 3.0598881.0397028-.9191119-.7048988-1.247677-1.9407143-.8-3.009-4.518-2.809-10.856-4.819-15.9-4.392 4.5763333.4717887 8.9865208 1.9733037 12.9 4.392z" fill="#bb193b"/><path id="Shape" d="m39 39.76c0-3.413-.073-3.556.212-3.906.209064-.2576264.3776644-.5455959.5-.854h-1.832c-.832 0-1.88.655-1.88 1.506v3.254c-.0405853.781521.264383 1.5413821.834 2.078.1600397.1314002.2471327.3317406.2340555.538399-.0130771.2066585-.1247289.3944224-.3000555.504601.437.157.554.119 2.642.119.2762019-.0007367.5226396-.1736355.6173169-.4331047.0946772-.2594692.0175036-.5504499-.1933169-.7288953-.569617-.5366179-.8745853-1.296479-.834-2.078z" fill="#bb193b"/><path id="Shape" d="m51.21 29.71c-1.8556818-.8224429-3.5490783-1.9705658-5-3.39l-.01-.01c-.4065996.3928963-.9365337.6331331-1.5.68-.727.059-.955-.215-.7.01 1.2311945 1.1462669 2.6568152 2.0639468 4.21 2.71.4533581.1841613.6979802.6776971.57 1.15l-.57 2.31c-.1286974.498149-.6103759.8207016-1.12.75-.8389116-.2302483-1.732966-.1470639-2.515.234-1.4407136.6265967-3.0054823.9159506-4.575.846 2.706 0 6.552.275 8.53-1.47.5067223.1782899 1.0289909.3088571 1.56.39.5096241.0707016.9913026-.251851 1.12-.75l.57-2.31c.1279802-.4723029-.1166419-.9658387-.57-1.15z" fill="#bb193b"/><path id="Shape" d="m47.69 21.56c-.4348639.9026068-.6702012 1.8882946-.69 2.89-.0120167.7010096-.2993848 1.3691403-.8 1.86-.7220945.6847695-1.7827693.8733848-2.6966696.4795372-.9139003-.3938475-1.5052018-1.2943859-1.5033304-2.2895372 0-2.533 2.81-3.385 5.33-3.49.1348194-.006046.2628244.0594937.3367337.1724107.0739093.1129169.0827537.2564527.0232663.3775893z" fill="#ef314c"/><path id="Shape" d="m58 0h-54c-1.70524172.05441563-3.04599736 1.47651044-3 3.182v43.636c-.04599736 1.7054896 1.29475828 3.1275844 3 3.182h17.382l-2 4h-3.382c-1.6568542 0-3 1.3431458-3 3s1.3431458 3 3 3h30c1.6568542 0 3-1.3431458 3-3s-1.3431458-3-3-3h-3.382l-2-4h17.382c1.7052417-.0544156 3.0459974-1.4765104 3-3.182v-43.636c.0459974-1.70548956-1.2947583-3.12758437-3-3.182zm-11 57c0 .5522847-.4477153 1-1 1h-30c-.5522847 0-1-.4477153-1-1s.4477153-1 1-1h30c.5522847 0 1 .4477153 1 1zm-6.618-3h-18.764l2-4h14.764zm17.618-6h-54c-.59661794-.0616152-1.03807599-.5834187-1-1.182v-2.818h43c.5522847 0 1-.4477153 1-1s-.4477153-1-1-1h-4.968c-.0595303-.29256-.1978408-.5633028-.4-.783-.3863739-.3889232-.6120287-.9091431-.632-1.457l.029-3.324c.1017716-.1397379.1952653-.2853209.28-.436 2.885 0 6.116.2 8.41-1.361.4055321.1149761.8176085.2054726 1.234.271 1.0161047.1395437 1.9750217-.5060467 2.228-1.5l.568-2.3c.2516137-.9549495-.2438429-1.9484297-1.158-2.322-1.4944647-.6300488-2.8643258-1.5220671-4.045-2.634.8-1.457.1-2.182 1.044-4.152.2115147-.4373894.1780058-.9536885-.0882712-1.3600683-.266277-.4063797-.7262647-.6432321-1.2117288-.6239317-3.052.125-4.623 1.076-5.435 2.1-.7-.4-1.391-.771-2.074-1.1l3.874-4.169c.5635788.7232462 1.4281061 1.1475835 2.345 1.151h8c1.6568542 0 3-1.3431458 3-3v-8c0-1.65685425-1.3431458-3-3-3h-8c-1.6568542 0-3 1.34314575-3 3v7.607l-5.164 5.557c-3.1282446-1.2866614-6.4565969-2.018926-9.836-2.164-1.6789127.0017479-3.3516598.2031623-4.983.6l-4.017-4.014v-7.586c0-1.65685425-1.3431458-3-3-3h-8c-1.65685425 0-3 1.34314575-3 3v8c0 1.6568542 1.34314575 3 3 3h8c.9395509-.0023592 1.8231592-.446942 2.385-1.2l2.459 2.459c-4.729 1.721-8.225 5.025-8.765 8.742h-1.579c-1.38071187 0-2.5-1.1192881-2.5-2.5s1.11928813-2.5 2.5-2.5h.5c.5522847 0 1-.4477153 1-1s-.4477153-1-1-1h-.5c-2.48528137 0-4.5 2.0147186-4.5 4.5s2.01471863 4.5 4.5 4.5h1.535c.1334485 2.0042476.7016026 3.9554217 1.665 5.718.61 1.165.226 4.337.927 6.281h-11.627v-38.818c-.03807599-.59858134.40338206-1.12038476 1-1.182h54c.5966179.06161524 1.038076.58341866 1 1.182v38.818h-9c-.5522847 0-1 .4477153-1 1s.4477153 1 1 1h9v2.818c.038076.5985813-.4033821 1.1203848-1 1.182zm-41.533-6.806c-.647-3.027-.064-4.632-.992-6.4-.9848609-1.7711162-1.4931019-3.7675558-1.475-5.794 0-3.971 5.656-9 14-9 4.6011462.2627878 9.073238 1.6193281 13.045 3.957-.2098857 1.3104834.3427913 2.6264248 1.4254558 3.3940552 1.0826645.7676303 2.5073569.8536827 3.6745442.2219448 1.3579428 1.292543 2.941037 2.3255705 4.671 3.048l-.568 2.311c-1.3203239-.1646639-2.5562228-.7376874-3.535-1.639-.3923789-.3789722-1.0160848-.3735524-1.4018186.0121814s-.3911536 1.0094397-.0121814 1.4018186c.3240427.3208868.6787359.6092635 1.059.861-1.7671215.4162262-3.5871734.5618843-5.398.432.066974-.6645136.0803505-1.33334.04-2 0-.5522847-.4477153-1-1-1s-1 .4477153-1 1c0 1.622.1 2.366-.554 3.214-.2837755.3557284-.4407316.7959797-.446 1.251 0 3.279-.2 4.182.706 5.535h-1.256c-.4659183.0008723-.8707031-.3201353-.976-.774-.2933025-1.5836269-.4498793-3.1895429-.468-4.8-.0093997-.4198551-.1558423-.8251182-.417-1.154-.649-.883-.589-1.349-.589-3.272 0-.5522847-.4477153-1-1-1s-1 .4477153-1 1c-.1288442 1.1330371-.000318 2.2805435.376 3.357-1.7595518.430131-3.5646397.6460297-5.376.643-2.4541571.0501866-4.8871513-.462959-7.112-1.5.1381648-.8257516.1757722-1.6652017.112-2.5 0-.5522847-.4477153-1-1-1s-1 .4477153-1 1v1.5c0 1.633-1 1.737-1 2.965 0 3.279-.2 4.182.706 5.535h-1.256c-.4782437.0009556-.8902215-.3368411-.983-.806zm29.533-16.753c.0149235.6025151-.3301066 1.1561269-.8775943 1.4081278-.5474876.2520008-1.1924206.1540551-1.6404057-.2491278-.954-.883-.8-3.056 2.918-3.513-.2548125.7591223-.389765 1.5533182-.4 2.354zm-24.968 17.559c-.0595303-.29256-.1978408-.5633028-.4-.783-.3863739-.3889232-.6120287-.9091431-.632-1.457.034-3.6 0-3.3.095-3.425 2.4755857 1.1444424 5.1781145 1.7136657 7.905 1.665 2.0340868.0027055 4.0605109-.2492537 6.032-.75.0336493 1.5999362.2347459 3.1919507.6 4.75zm23.968-27v-8c0-.55228475.4477153-1 1-1h8c.5522847 0 1 .44771525 1 1v8c0 .5522847-.4477153 1-1 1h-8c-.5522847 0-1-.4477153-1-1zm-28 0c0 .5522847-.4477153 1-1 1h-8c-.55228475 0-1-.4477153-1-1v-8c0-.55228475.44771525-1 1-1h8c.5522847 0 1 .44771525 1 1z" fill="#000"/><path id="Shape" d="m14 8h-4c-.55228475 0-1 .44771525-1 1s.44771525 1 1 1h4c.5522847 0 1-.44771525 1-1s-.4477153-1-1-1z" fill="#000"/><path id="Shape" d="m12 12h-2c-.55228475 0-1 .4477153-1 1s.44771525 1 1 1h2c.5522847 0 1-.4477153 1-1s-.4477153-1-1-1z" fill="#000"/><path id="Shape" d="m48 10h4c.5522847 0 1-.44771525 1-1s-.4477153-1-1-1h-4c-.5522847 0-1 .44771525-1 1s.4477153 1 1 1z" fill="#000"/><path id="Shape" d="m48 14h2c.5522847 0 1-.4477153 1-1s-.4477153-1-1-1h-2c-.5522847 0-1 .4477153-1 1s.4477153 1 1 1z" fill="#000"/><path id="Shape" d="m24.249 24.461c1.2131445-.3085146 2.4602432-.463394 3.712-.461 2.6349663.1570656 5.2261867.7462557 7.67 1.744.3320784.131831.7092624.0764862.9894706-.1451866s.4208702-.5759962.369-.9295c-.0518701-.3535038-.2883922-.6524824-.6204706-.7843134-2.6740424-1.0852335-5.5087327-1.7221097-8.39-1.885-1.4256704-.0033493-2.8461179.1723588-4.228.523-.5351639.1380712-.8570712.6838361-.719 1.219s.6838361.8570712 1.219.719z" fill="#000"/></g></g></g></svg>