<svg height="512" viewBox="0 0 60 32" width="512" xmlns="http://www.w3.org/2000/svg"><g id="Page-1" fill="none" fill-rule="evenodd"><g id="049---Harvester" fill-rule="nonzero"><path id="Shape" d="m42 24.9v.1c-.0275322 3.2762196-2.6984838 5.9137137-5.9747901 5.8999475-3.2763064-.0137663-5.9249998-2.6736122-5.9249998-5.9499475s2.6486934-5.9361812 5.9249998-5.9499475c3.2763063-.0137662 5.9472579 2.6237279 5.9747901 5.8999475z" fill="#37474f"/><circle id="Oval" cx="36" cy="25" fill="#cfd8dc" r="2"/><path id="Shape" d="m15 27c.0049173 2.0127417-1.4829696 3.7172799-3.4779211 3.9843414-1.99495154.2670614-3.87878295-.9861094-4.40343755-2.9292746-.52465461-1.9431652.47244471-3.9741873 2.33070993-4.7474943 1.85826522-.7733071 4.00186722-.0492709 5.01064872 1.6924275.352507.6076793.5387533 1.2974804.54 2z" fill="#37474f"/><path id="Shape" d="m36 19c-3.3137085 0-6 2.6862915-6 6h-4c-.0081672-1.1011688-.8988312-1.9918328-2-2h-4c-1.1032019.0032948-1.9967052.8967981-2 2h-3.54c-.7127661-1.2373539-2.0320363-1.9998997-3.46-1.9998997-1.42796367 0-2.74723394.7625458-3.46 1.9998997h-3.66c-.34177604-.0026639-.65131994-.2023288-.79468401-.5125943s-.09479738-.6754021.12468401-.9374057l3.79-4.55z" fill="#c81e1e"/><path id="Shape" d="m47 5-1.68 8.39c-.1859544.9353078-1.0063863 1.609234-1.96 1.61h-7.36v-10z" fill="#02a9f4"/><path id="Shape" d="m44 5-1.68 8.39c-.1859544.9353078-1.0063863 1.609234-1.96 1.61h3c.9536137-.000766 1.7740456-.6746922 1.96-1.61l1.68-8.39z" fill="#0377bc"/><path id="Shape" d="m51 3c-.0032948 1.10320187-.8967981 1.9967052-2 2h-13v-2c.0032948-1.10320187.8967981-1.9967052 2-2h11c1.1011688.00816722 1.9918328.89883122 2 2z" fill="#f44335"/><path id="Shape" d="m50.41 1.59c-.3704612-.3798589-.8794095-.59282307-1.41-.59l-3-.00002771c1.1011688.00819493 1.9918328.89885893 2 2.00002771-.0032948 1.10320187-.8967981 1.9967052-2 2h3c1.1032019-.0032948 1.9967052-.89679813 2-2 .0028231-.53059053-.2101411-1.0395388-.59-1.41z" fill="#c81e1e"/><path id="Shape" d="m36 8v7h-22c-.5522847 0-1-.4477153-1-1v-6z" fill="#ff5722"/><path id="Rectangle-path" d="m33 8h3v7h-3z" fill="#d84315"/><path id="Shape" d="m36 4v4h-30l-2-4z" fill="#ffdc00"/><path id="Rectangle-path" d="m33 4h3v4h-3z" fill="#fec108"/><path id="Shape" d="m6 8-3.01 1.81c-.40671119.2417871-.91186771.2468198-1.32331535.01318367-.41144765-.2336361-.66594488-.67002995-.66668465-1.14318367v-3.68c0-.55228475.44771525-1 1-1h2z" fill="#fec108"/><path id="Shape" d="m26 25c-.0032948 1.1032019-.8967981 1.9967052-2 2h-4c-1.1011688-.0081672-1.9918328-.8988312-2-2 .0032948-1.1032019.8967981-1.9967052 2-2h4c1.1011688.0081672 1.9918328.8988312 2 2z" fill="#ffdc00"/><path id="Shape" d="m42 15-.27 1.09-.35 1.39c-.2173668.8943229-1.019645 1.5229121-1.94 1.52l-32.44.0000101v-5.0000101c.0032948-1.1032019.89679813-1.9967052 2-2h4v2c0 .5522847.4477153 1 1 1z" fill="#f44335"/><g fill="#c81e1e"><path id="Shape" d="m11 15h3c-.5522847 0-1-.4477153-1-1v-2h-3v2c0 .5522847.4477153 1 1 1z"/><path id="Shape" d="m39 15-.27 1.09-.35 1.39c-.2173668.8943229-1.019645 1.5229121-1.94 1.5200101l3-.0000101c.920355.0029121 1.7226332-.6256771 1.94-1.52l.35-1.39.27-1.09z"/><path id="Shape" d="m45.79 22.18-.91-.04c-.7528702-.0339103-1.4867851.2419661-2.0308995.7634092-.5441145.521443-.8509576 1.2429596-.8491005 1.9965908-.0598989-3.2723083-2.7271472-5.8951025-6-5.9h3.44c.920355.0029121 1.7226332-.6256771 1.94-1.52l.35-1.39z"/></g><path id="Shape" d="m53.99 24.54v.01c.047012 1.1257298-.7810883 2.0976581-1.9 2.23l-4.14.51-2.86.35c-.11.01-.22.02-.33.02-1.483591-.0052114-2.7000657-1.1776109-2.76-2.66v-.1c-.0018571-.7536312.304986-1.4751478.8491005-1.9965908.5441144-.5214431 1.2780293-.7973195 2.0308995-.7634092l.91.04 2.38.11 3.75.17c1.1277702.0453209 2.0301146.9520245 2.07 2.08z" fill="#f44335"/><path id="Shape" d="m51.92 22.46-3.75-.17-2.38-.11-.91-.04c-.2778872-.0102019-.555642.0235472-.823.1l1.113.051 3.75.17c1.1277702.0453209 2.0301146.9520245 2.07 2.08v.01c.047012 1.1257298-.7810883 2.0976581-1.9 2.23l-4.14.51-1.252.153c.3358887.1427466.6970376.2165407 1.062.217.11 0 .22-.01.33-.02l2.86-.35 4.14-.51c1.1189117-.1323419 1.947012-1.1042702 1.9-2.23v-.01c-.0393746-1.1283656-.9418589-2.0356457-2.07-2.081z" fill="#c81e1e"/><path id="Shape" d="m58.78 25.89-2.08 4c-.3701514.687296-1.0893784 1.1142169-1.87 1.11h-3.66c-.7806216.0042169-1.4998486-.422704-1.87-1.11l-1.35-2.6 4.14-.51c1.1189117-.1323419 1.947012-1.1042702 1.9-2.23v-.01c-.0398854-1.1279755-.9422298-2.0346791-2.07-2.08l-3.75-.17 1.13-2.18c.3701514-.687296 1.0893784-1.1142169 1.87-1.11h3.66c.7806216-.0042169 1.4998486.422704 1.87 1.11l2.08 4c.289944.5579116.289944 1.2220884 0 1.78z" fill="#9e9e9e"/><path id="Shape" d="m58.78 24.11-2.08-4c-.3701514-.687296-1.0893784-1.1142169-1.87-1.11l-3-.000031c.7806216-.0041859 1.4998486.422735 1.87 1.110031l2.08 4c.289944.5579116.289944 1.2220884 0 1.78l-2.08 4c-.3701514.687296-1.0893784 1.1142169-1.87 1.110031l3-.000031c.7806216.0042169 1.4998486-.422704 1.87-1.11l2.08-4c.289944-.5579116.289944-1.2220884 0-1.78z" fill="#707070"/><path id="Shape" d="m36 22c-1.6568542 0-3 1.3431458-3 3s1.3431458 3 3 3 3-1.3431458 3-3-1.3431458-3-3-3zm0 4c-.5522847 0-1-.4477153-1-1s.4477153-1 1-1 1 .4477153 1 1-.4477153 1-1 1z" fill="#000"/><circle id="Oval" cx="11" cy="27" fill="#000" r="1"/><path id="Shape" d="m59 30h-1.23l1.9-3.65c.4377019-.8467825.4377019-1.8532175 0-2.7l-2.084-4.006c-.5414802-1.0178568-1.6030983-1.6511297-2.756-1.644h-3.66c-1.1549181-.0067026-2.2178067.6291807-2.758 1.65l-.833 1.608-1.239-.058-3.468-5.2h.488c1.4280731-.0038757 2.6565735-1.0113296 2.94-2.411l1.52-7.589h1.18c1.6568542 0 3-1.34314575 3-3s-1.3431458-3-3-3h-11c-1.6568542 0-3 1.34314575-3 3h-33c-1.1045695 0-2 .8954305-2 2v3.685c-.00752531.83579983.44248634 1.6088377 1.173 2.015.7234848.4151962 1.61595439.4021563 2.327-.034l2.777-1.666h5.723v2h-3c-1.65685425 0-3 1.3431458-3 3v4.638l-3.561 4.275c-.46617653.5605569-.56686999 1.339848-.25848615 2.0004871.30838384.660639.97041982 1.0838909 1.69948615 1.0865129h2.22c-.2890133 1.4044182.04875718 2.8650473.925 4h-6.025c-.55228475 0-1 .4477153-1 1s.44771525 1 1 1h21c.5522847 0 1-.4477153 1-1s-.4477153-1-1-1h-7.026c.8762428-1.1349527 1.2140133-2.5955818.925-4h1.285c.4222546 1.1943509 1.5492146 1.9947486 2.816 2h4c1.2667854-.0052514 2.3937454-.8056491 2.816-2h2.264c.2182692 1.520538.9321781 2.9265626 2.031 4h-5.111c-.5522847 0-1 .4477153-1 1s.4477153 1 1 1h33c.5522847 0 1-.4477153 1-1s-.4477153-1-1-1zm-14.028-3.357c-.4897514.0645971-.9836473-.084373-1.356-.409-.5612689-.4779371-.7652089-1.2550252-.5109693-1.9469853.2542395-.6919602.9127815-1.1521557 1.6499693-1.1530147h.083l3.238.146h.034l3.765.17c.6094854.0281126 1.0958479.5184033 1.1190569 1.1280951.023209.6096919-.4244725 1.1355386-1.0300569 1.2099049zm-4.357-6.892c.6254864-.2672163 1.140695-.7404319 1.46-1.341l1.885 2.827c-.5988628.133608-1.1562259.4109167-1.624.808-.4096511-.8749748-.9955484-1.6559444-1.721-2.294zm3.726-6.551c-.0951286.4660347-.5053558.8005727-.981.8l-6.36.0000007v-8.0000007h8.78zm-30.341.8v-5h21v5zm23-11c0-.55228475.4477153-1 1-1h11c.5522847 0 1 .44771525 1 1s-.4477153 1-1 1h-12zm-2 4h-28.382l-1-2h29.382zm-32.529 1.951c-.09597273.05758-.21548265.05915106-.31293583.00411381-.09745317-.05503725-.15781774-.15819348-.15806417-.27011381v-3.685h1.382l1.309 2.619zm6.529 4.049h3v1c0 1.1045695.8954305 2 2 2h26.719l-.311 1.243c-.1113683.4445697-.5106935.7565296-.969.757h-31.439v-4c0-.5522847.44771525-1 1-1zm-1 14c0-1.6568542 1.34314575-3 3-3 1.6568542 0 3 1.3431458 3 3s-1.3431458 3-3 3c-1.65685425 0-3-1.3431458-3-3zm3-5c-1.56549082.0045607-3.03760199.7454319-3.974 2h-2.889l3.331-4h23.643c-1.0988219 1.0734374-1.8127308 2.479462-2.031 4h-2.264c-.4222546-1.1943509-1.5492146-1.9947486-2.816-2h-4c-1.2667854.0052514-2.3937454.8056491-2.816 2h-2.21c-.936398-1.2545681-2.4085092-1.9954393-3.974-2zm13 4h-4c-.5522847 0-1-.4477153-1-1s.4477153-1 1-1h4c.5522847 0 1 .4477153 1 1s-.4477153 1-1 1zm7-1c0-2.7614237 2.2385763-5 5-5s5 2.2385763 5 5-2.2385763 5-5 5c-2.7600532-.0033061-4.9966939-2.2399468-5-5zm11.4 2.817c.6680468.5396652 1.5002115.8352795 2.359.838.1503707-.0001588.3006116-.0088394.45-.026l2.168-.264.853 1.635h-7.341c.6381035-.624791 1.1509638-1.3657401 1.511-2.183zm8.77 2.183c-.4078891.0064812-.7858691-.2133015-.982-.571l-.688-1.323 2.705-.33c1.6346792-.2036253 2.8418851-1.6239766 2.779374-3.2701028-.0625112-1.6461263-1.3739597-2.9708324-3.019374-3.0498972l-2.186-.1.4-.779c.1968728-.362101.5789087-.5845377.991-.577h3.66c.4082457-.0068548.7867008.2129802.983.571l2.08 4c.1410129.2689719.1410129.5900281 0 .859l-2.077 3.993c-.196036.3604915-.5756926.5826638-.986.577z" fill="#000"/><path id="Shape" d="m42 12c-.2651948-.0000566-.5195073-.1054506-.707-.293l-2-2c-.3789722-.39237889-.3735524-1.01608478.0121814-1.40181858.3857338-.38573379 1.0094397-.39115363 1.4018186-.01218142l2 2c.2859079.2859943.3714219.7160366.216678 1.0896546-.1547439.3736179-.5192821.6172591-.923678.6173454z" fill="#f5f5f5"/></g></g></svg>