<svg height="512" viewBox="0 0 60 60" width="512" xmlns="http://www.w3.org/2000/svg"><g id="Page-1" fill="none" fill-rule="evenodd"><g id="050---Apple-Bucket"><path id="Shape" d="m40 17c-.0013666.6711069-.0649724 1.3406409-.19 2v1h-19.62v-1c-.1250276-.6593591-.1886334-1.3288931-.19-2-.0430834-2.1316821.645088-4.2138418 1.95-5.9h.01c.9557-1.27976592 2.4434525-2.05310263 4.04-2.1.7596764.0007875 1.5077917.18610046 2.18.54 1.1366707.6099747 2.5033293.6099747 3.64 0 .6722083-.35389954 1.4203236-.5392125 2.18-.54 1.5965475.04689737 3.0843.82023408 4.04 2.1h.01c1.304912 1.6861582 1.9930834 3.7683179 1.95 5.9z" fill="#f44335" fill-rule="nonzero"/><path id="Shape" d="m38.05 11.1h-.01c-.9557-1.27976592-2.4434525-2.05310263-4.04-2.1-.5135374.00226958-1.0231342.08979315-1.508.259 1.005972.36106282 1.889305.9992952 2.548 1.841h.01c1.304912 1.6861582 1.9930834 3.7683179 1.95 5.9-.0013666.6711069-.0649724 1.3406409-.19 2v1h3v-1c.1250276-.6593591.1886334-1.3288931.19-2 .0430834-2.1316821-.645088-4.2138418-1.95-5.9z" fill="#c81e1e" fill-rule="nonzero"/><path id="Shape" d="m30 10v-7" stroke="#000" stroke-linecap="round" stroke-linejoin="round" stroke-width="2"/><path id="Shape" d="m30 8c.4401022-1.83068352 2.1193152-3.09009331 4-3" stroke="#000" stroke-linejoin="round" stroke-width="2"/><path id="Shape" d="m37 1h2v1c0 1.65685425-1.3431458 3-3 3h-2v-1c0-1.65685425 1.3431458-3 3-3z" fill="#60a917" fill-rule="nonzero"/><path id="Shape" d="m53 19c0 .34-.02.67-.05 1h-13.14v-1c.1250276-.6593591.1886334-1.3288931.19-2 .0430834-2.1316821-.645088-4.2138418-1.95-5.9.3119937-.0683658.6306095-.1019043.95-.1.7596764.0007875 1.5077917.1861005 2.18.54 1.1366707.6099747 2.5033293.6099747 3.64 0 .6722083-.3538995 1.4203236-.5392125 2.18-.54 3.31 0 6 3.58 6 8z" fill="#60a917" fill-rule="nonzero"/><path id="Shape" d="m47 11c-.5141898.0022702-1.0244442.0897906-1.51.259 2.59.885 4.51 4.009 4.51 7.741 0 .34-.02.67-.05 1h3c.03-.33.05-.66.05-1 0-4.42-2.69-8-6-8z" fill="#549414" fill-rule="nonzero"/><path id="Shape" d="m43 12v-7" stroke="#000" stroke-linecap="round" stroke-linejoin="round" stroke-width="2"/><path id="Shape" d="m43 10c.4401022-1.83068352 2.1193152-3.09009331 4-3" stroke="#000" stroke-linejoin="round" stroke-width="2"/><path id="Shape" d="m50 3h2v1c0 1.65685425-1.3431458 3-3 3h-2v-1c0-1.65685425 1.3431458-3 3-3z" fill="#60a917" fill-rule="nonzero"/><path id="Shape" d="m20 17c.0013666.6711069.0649724 1.3406409.19 2v1h-13.14c-.03-.33-.05-.66-.05-1 0-4.42 2.69-8 6-8 .7596764.0007875 1.5077917.1861005 2.18.54 1.1366707.6099747 2.5033293.6099747 3.64 0 .6722083-.3538995 1.4203236-.5392125 2.18-.54.3193905-.0019043.6380063.0316342.95.1-1.304912 1.6861582-1.9930834 3.7683179-1.95 5.9z" fill="#60a917" fill-rule="nonzero"/><path id="Shape" d="m21.95 11.1c-.3119937-.0683658-.6306095-.1019043-.95-.1-.7596764.0007875-1.5077917.1861005-2.18.54-.1.051-.2.092-.3.134-1.0189185 1.5874447-1.5475921 3.4398892-1.52 5.326.0013666.6711069.0649724 1.3406409.19 2v1h3v-1c-.1250276-.6593591-.1886334-1.3288931-.19-2-.0430834-2.1316821.645088-4.2138418 1.95-5.9z" fill="#549414" fill-rule="nonzero"/><path id="Shape" d="m17 12v-7" stroke="#000" stroke-linecap="round" stroke-linejoin="round" stroke-width="2"/><path id="Shape" d="m17 10c-.4401022-1.83068352-2.1193152-3.09009331-4-3" stroke="#000" stroke-linejoin="round" stroke-width="2"/><g fill-rule="nonzero"><path id="Shape" d="m8 3h2c1.6568542 0 3 1.34314575 3 3v1h-2c-1.65685425 0-3-1.34314575-3-3z" fill="#60a917" transform="matrix(-1 0 0 -1 21 10)"/><rect id="Rectangle-path" fill="#9e9e9e" height="6" rx="2" width="52" x="4" y="20"/><path id="Shape" d="m54 20h-3c1.1032019.0032948 1.9967052.8967981 2 2v2c-.0032948 1.1032019-.8967981 1.9967052-2 2h3c1.1032019-.0032948 1.9967052-.8967981 2-2v-2c-.0032948-1.1032019-.8967981-1.9967052-2-2z" fill="#707070"/><path id="Shape" d="m53 26-6.38 30.54c-.4208922 1.5126105-1.8316365 2.5333255-3.4 2.46h-26.44c-1.5683635.0733255-2.9791078-.9473895-3.4-2.46l-6.38-30.54z" fill="#7f8e94"/><path id="Shape" d="m50 26-6.38 30.54c-.4208922 1.5126105-1.8316365 2.5333255-3.4 2.46h3c1.5683635.0733255 2.9791078-.9473895 3.4-2.46l6.38-30.54z" fill="#545c60"/><path id="Shape" d="m24.313 20c-.4294448.0001053-.8110071-.2739917-.948-.681-.2469777-.7480048-.3702637-1.5312936-.365-2.319-.0347675-1.408734.3911236-2.7903344 1.213-3.935.3410358-.4346481.9698519-.5105358 1.4045-.1695s.5105358.9698519.1695 1.4045c-.5511829.7894107-.8276985 1.7380668-.787 2.7-.0049129.5707142.0828969 1.1384382.26 1.681.1026626.3050121.0522561.640793-.1354384.9022175s-.4897356.4165396-.8115616.4167825z" fill="#f5f5f5"/><path id="Shape" d="m17.148 56c-.4741412-.001326-.8821732-.3354362-.977-.8l-4.182-20c-.082384-.3531836.0329083-.7232895.3012952-.9672039.2683868-.2439145.6477973-.3234026.9915197-.2077277s.5978765.4083802.6641851.7649316l4.182 20c.0544338.2596528.0034588.5302945-.1417048.7523535-.1451635.2220589-.372617.3773337-.6322952.4316465-.0676227.0155432-.1366359.0242536-.206.026z" fill="#f5f5f5"/><circle id="Oval" cx="12" cy="31" fill="#f5f5f5" r="1"/><path id="Shape" d="m57 22.142v-.142c0-1.6568542-1.3431458-3-3-3 0-4.963-3.141-9-7-9-.92216-.00024238-1.8304434.2245972-2.646.655-.1149897.0530935-.2332263.0988518-.354.137v-.668c.3597919-1.33683471 1.6195638-2.22875329 3-2.124h2c2.209139 0 4-1.790861 4-4v-1c0-.55228475-.4477153-1-1-1h-2c-2.209139 0-4 1.790861-4 4v.086c-.7167799.11257639-1.399771.38235789-2 .79v-1.876c0-.55228475-.4477153-1-1-1s-1 .44771525-1 1v5.792c-.1219405-.0383945-.2412019-.0848296-.357-.139-.9858319-.5066317-2.0971194-.71742904-3.2-.607-1.1318531-1.27042945-2.7418489-2.01183198-4.443-2.046-.9217299.00104784-1.829293.22690885-2.644.658-.1156391.0526111-.2345529.09770481-.356.135v-.669c.3597919-1.33683471 1.6195638-2.22875329 3-2.124h2c2.209139 0 4-1.790861 4-4v-1c0-.55228475-.4477153-1-1-1h-2c-2.209139 0-4 1.790861-4 4v.086c-.7167799.11257639-1.399771.38235789-2 .79v-1.876c0-.55228475-.4477153-1-1-1s-1 .44771525-1 1v5.793c-.1211202-.03729892-.2397011-.08239305-.355-.135-.8151075-.43098382-1.7229664-.65683303-2.645-.658-1.6993991.03554911-3.3073222.77683137-4.438 2.046-1.1057437-.11190664-2.2201928.099658-3.208.609-.1149897.0530935-.2332263.0988518-.354.137v-5.792c0-.55228475-.4477153-1-1-1s-1 .44771525-1 1v1.876c-.600229-.40764211-1.2832201-.67742361-2-.79v-.086c0-2.209139-1.790861-4-4-4h-2c-.55228475 0-1 .44771525-1 1v1c0 2.209139 1.790861 4 4 4h2c1.381651-.10566487 2.6424467.78823926 3 2.127v.665c-.1219405-.0383945-.2412019-.0848296-.357-.139-.8148505-.4291966-1.7220272-.6533307-2.643-.653-3.859 0-7 4.037-7 9-1.65685425 0-3 1.3431458-3 3v.142c-1.76068514.4545933-2.99318518 2.0395884-3 3.858v5c.00962641 5.4100306 3.94901993 10.0111473 9.293 10.854l3.113 14.888c.5132031 1.9771727 2.3316478 3.3319618 4.373 3.258h26.442c2.0413522.0739618 3.8597969-1.2808273 4.373-3.258l3.113-14.888c5.3439801-.8428527 9.2833736-5.4439694 9.293-10.854v-5c-.0068148-1.8184116-1.2393149-3.4034067-3-3.858zm-7-18.142h1c0 1.1045695-.8954305 2-2 2h-1c0-1.1045695.8954305-2 2-2zm-13-2h1c0 1.1045695-.8954305 2-2 2h-1c0-1.1045695.8954305-2 2-2zm-28 2h1c1.1045695 0 2 .8954305 2 2h-1c-1.1045695 0-2-.8954305-2-2zm33.99 9h.01.011c.7923613-.0038331 1.5719741-.1997657 2.272-.571.5288852-.2806188 1.1182804-.4278818 1.717-.429 2.757 0 5 3.141 5 7h-11.181c.11833-.6601412.1788926-1.3293406.181-2 .0096082-1.6914942-.3759652-3.3618559-1.126-4.878.2910541.0658265.5730952.1665554.84.3.7005163.374521 1.4816682.5728979 2.276.578zm-19.7 6h-2.121c.0070012-.0631398.0070012-.1268602 0-.19-.1135608-.596615-.1701487-1.2026745-.169-1.81-.0407215-1.8982172.563912-3.7540718 1.715-5.264.0295985-.0334286.0573083-.0684831.083-.105.7725182-.9917682 1.9455575-1.5892782 3.202-1.631.5999164.0021183 1.1902801.1503956 1.72.432.6971201.3672117 1.4721011.5619857 2.26.568h.02.021c.7874765-.0055143 1.5622684-.1988695 2.26-.564.5289636-.2831022 1.1190509-.4327695 1.719-.436 1.2559015.042551 2.4281219.6403834 3.2 1.632.0247393.0348305.0514496.0682183.08.1 1.1542355 1.5100914 1.7607583 3.3677436 1.72 5.268.0004895.6073891-.0567681 1.2134492-.171 1.81-.0070012.0631398-.0070012.1268602 0 .19h-15.542zm-10.29-7c.5973644.0004134 1.1856435.1462819 1.714.425.7007821.373478 1.4819195.5708216 2.276.575h.01.011c.7923613-.0038331 1.5719741-.1997657 2.272-.571.2679706-.1334019.5509989-.2341238.843-.3-.7489731 1.5140273-1.1345179 3.1818681-1.126 4.871.0021074.6706594.06267 1.3398588.181 2h-11.181c0-3.859 2.243-7 5-7zm-8 10c0-.5522847.44771525-1 1-1h48c.5522847 0 1 .4477153 1 1v2c0 .5522847-.4477153 1-1 1h-48c-.55228475 0-1-.4477153-1-1zm7.992 18h-1.992c-.018 0-.034 0-.052 0l-2.718-13h43.54l-2.718 13c-.018 0-.034 0-.052 0zm-10.992-9v-5c.00262613-.7219697.39549895-1.3860663 1.027-1.736.13308209 1.5442193 1.42306363 2.7313668 2.973 2.736h.188l2.661 12.729c-4.01666319-.991592-6.841446-4.5917569-6.849-8.729zm13.453 11h33.18l-3 14.332c-.3187544 1.0489087-1.3180939 1.7399941-2.412 1.668h-26.442c-1.0953524.0739219-2.0969103-.617551-2.416-1.668l-2.996-14.332zm42.547-11c-.007554 4.1372431-2.8323368 7.737408-6.849 8.729l2.661-12.729h.188c1.5499364-.0046332 2.8399179-1.1917807 2.973-2.736.631501.3499337 1.0243739 1.0140303 1.027 1.736z" fill="#000"/></g></g></g></svg>