<svg height="512" viewBox="0 0 60 60" width="512" xmlns="http://www.w3.org/2000/svg"><g id="Page-1" fill="none" fill-rule="evenodd"><g id="051---Digger" fill-rule="nonzero"><rect id="Rectangle-path" fill="#607d8b" height="8" rx="4" width="34" x="7" y="38"/><path id="Shape" d="m37 38h-3c2.209139 0 4 1.790861 4 4s-1.790861 4-4 4h3c2.209139 0 4-1.790861 4-4s-1.790861-4-4-4z" fill="#37474f"/><path id="Rectangle-path" d="m12 34h24v4h-24z" fill="#37474f"/><path id="Shape" d="m22 24v10h-16c-1.10320187-.0032948-1.9967052-.8967981-2-2v-6c.0032948-1.1032019.89679813-1.9967052 2-2z" fill="#ff9801"/><path id="Shape" d="m36 30v4h-14v-10l4.1 4.92c.2499565.2992582.5556049.547173.9.73.4307205.2301844.9116304.3504118 1.4.35z" fill="#d84315"/><path id="Shape" d="m27 14v15.65c-.3443951-.182827-.6500435-.4307418-.9-.73l-4.1-4.92v-9c0-.5522847.4477153-1 1-1z" fill="#ff5722"/><path id="Shape" d="m36 23v7.0000011l-7.6-.0000011c-.4883696.0004118-.9692795-.1198156-1.4-.35v-6.65z" fill="#ff9801"/><path id="Rectangle-path" d="m33 23h3v7h-3z" fill="#f57c00"/><path id="Shape" d="m36 19v4h-9v-9h4c2.7614237 0 5 2.2385763 5 5z" fill="#02a9f4"/><path id="Shape" d="m31 14h-3c2.7614237 0 5 2.2385763 5 5v4h3v-4c0-2.7614237-2.2385763-5-5-5z" fill="#0377bc"/><path id="Shape" d="m55.571 40h-5.566c-1.061732.0013272-2.0804326-.4195142-2.8316599-1.1698036s-1.1733409-1.7684636-1.1733401-2.8301964v-3c0-1.6568542 1.3431458-3 3-3h5v5.17c.1305028 1.5565949.8028668 3.0181019 1.9 4.13.1086763.1266891.1329119.3053518.0619127.456414-.0709992.1510621-.2240215.2464136-.3909127.243586z" fill="#7f8e94"/><path id="Shape" d="m55.9 39.3c-1.0971332-1.1118981-1.7694972-2.5734051-1.9-4.13v-5.17h-3v5.17c.1305028 1.5565949.8028668 3.0181019 1.9 4.13.1080507.1260038.1326388.3034698.0629166.4541042s-.220931.2467316-.3869166.2458958h3c.1659856.0008358.3171944-.0952614.3869166-.2458958s.0451341-.3281004-.0629166-.4541042z" fill="#545c60"/><path id="Shape" d="m49 26v-22.5c0-1.38071187 1.1192881-2.5 2.5-2.5s2.5 1.11928813 2.5 2.5v22.5z" fill="#ff5722"/><path id="Shape" d="m31.82 14.07 1.66-3.86c.3189876-.73263529 1.0409376-1.20739584 1.84-1.21h13.68v-5h-15.33c-1.6160931.00039605-3.0743377.9699316-3.7 2.46l-3.14 7.54z" fill="#ff9801"/><path id="Shape" d="m46 26h8v4h-8c-1.1045695 0-2-.8954305-2-2s.8954305-2 2-2z" fill="#ff9801"/><path id="Shape" d="m1 46h58v11c0 1.1045695-.8954305 2-2 2h-54c-1.1045695 0-2-.8954305-2-2z" fill="#a0522d"/><path id="Shape" d="m56 46v11c0 1.1045695-.8954305 2-2 2h3c1.1045695 0 2-.8954305 2-2v-11z" fill="#783e22"/><g fill="#000"><path id="Shape" d="m0 46c0 .5522847.44771525 1 1 1h11.437l-5.345 11.581c-.23140728.5014745-.01247452 1.0955927.48900002 1.327s1.09559266.0124745 1.32699998-.489l5.732-12.419h14.36v12c0 .5522847.4477153 1 1 1s1-.4477153 1-1v-12h14.36l5.732 12.419c.1496943.3243972.4610813.5442916.8168646.5768511.3557834.0325595.701911-.1271624.9080001-.419.206089-.2918376.2408296-.6714539.0911353-.9958511l-5.345-11.581h5.437c.5522847 0 1-.4477153 1-1s-.4477153-1-1-1h-12.026c.6618067-.8603889 1.0223232-1.9145307 1.026-3-.0033061-2.7600532-2.2399468-4.9966939-5-5v-18c-.0023972-2.4671314-1.5147583-4.6813201-3.812-5.581l1.212-2.808c.1589182-.3676272.5195133-.6071094.92-.611h12.68v8.5l-2.8 2.1c-.7517339.5696297-1.1953366 1.4568351-1.2 2.4v2.78c-.8704124.7730198-1.2105959 1.9823463-.8708444 3.0957853.3397516 1.1134389 1.2971407 1.9268278 2.4508444 2.0822147-.3760367.6149926-.5766135 1.3211616-.58 2.042v3c.0044048 2.7595972 2.2404028 4.9955952 5 5h5.567c.5590394-.0002031 1.066774-.3259344 1.3-.834.2351024-.5063854.1487978-1.103849-.22-1.523-.9237275-.9396583-1.5039337-2.1631289-1.647-3.473v-31.67c.0036129-1.83398195-1.4121255-3.3582546-3.2413819-3.48987472-1.8292565-.13162012-3.4486329 1.17426752-3.7076181 2.98987472h-14.381c-2.019834-.00017235-3.8423898 1.21210517-4.623 3.075l-2.884 6.925h-3.163c-1.1045695 0-2 .8954305-2 2v8h-15c-1.65685425 0-3 1.3431458-3 3v6c0 1.6568542 1.34314575 3 3 3h5v2c-2.76005315.0033061-4.99669388 2.2399468-5 5 .00367682 1.0854693.36419333 2.1396111 1.026 3h-6.026c-.55228475 0-1 .4477153-1 1zm23-19.238 2.331 2.8c.7658563.9019762 1.8857967 1.4267316 3.069 1.438h6.6v2h-12zm12 2.238h-6.6c-.1345304-.0011328-.2685807-.0162135-.4-.045v-4.955h7zm0-10v3h-7v-7h3c2.209139 0 4 1.790861 4 4zm11 4c.0023175-.3142057.1500259-.6096226.4-.8l1.6-1.2v4h-2zm-1 5c0-.5522847.4477153-1 1-1h7v2h-7c-.5522847 0-1-.4477153-1-1zm5 11c-1.655485-.0033011-2.9966989-1.344515-3-3v-3c0-1.1045695.8954305-2 2-2h4v4.17c.0539066 1.3901246.5397732 2.7288793 1.39 3.83zm0-35.5c0-.82842712.6715729-1.5 1.5-1.5s1.5.67157288 1.5 1.5v21.5h-3zm-19.109 3.35c.4692341-1.12005114 1.56463-1.84926395 2.779-1.85h14.33v3h-12.68c-1.1980974.00297001-2.2807501.71505561-2.758 1.814l-1.375 3.2c-.062 0-.124-.009-.187-.009h-2.67zm-4.891 8.15v12.238l-3-3.6v-8.638zm-21 17v-6c0-.5522847.44771525-1 1-1h15v8h-4v-5c0-.5522847-.4477153-1-1-1s-1 .4477153-1 1v5h-2v-5c0-.5522847-.4477153-1-1-1s-1 .4477153-1 1v5h-2v-5c0-.5522847-.44771525-1-1-1s-1 .4477153-1 1v5h-1c-.55228475 0-1-.4477153-1-1zm8 3h22v2h-22zm-5 7c0-1.6568542 1.34314575-3 3-3h26c1.6568542 0 3 1.3431458 3 3s-1.3431458 3-3 3h-26c-1.65685425 0-3-1.3431458-3-3z"/><path id="Shape" d="m59 45h-2c-.5522847 0-1 .4477153-1 1s.4477153 1 1 1h2c.5522847 0 1-.4477153 1-1s-.4477153-1-1-1z"/><path id="Shape" d="m50 33c-.5522847 0-1 .4477153-1 1v2c0 .5522847.4477153 1 1 1s1-.4477153 1-1v-2c0-.5522847-.4477153-1-1-1z"/><path id="Shape" d="m37 42c0-.5522847-.4477153-1-1-1h-24c-.5522847 0-1 .4477153-1 1s.4477153 1 1 1h24c.5522847 0 1-.4477153 1-1z"/></g><path id="Shape" d="m31 20c-.4043959-.0000863-.7689341-.2437275-.923678-.6173454-.1547439-.373618-.0692299-.8036603.216678-1.0896546l1-1c.3923789-.3789722 1.0160848-.3735524 1.4018186.0121814s.3911536 1.0094397.0121814 1.4018186l-1 1c-.1874927.1875494-.4418052.2929434-.707.293z" fill="#f5f5f5"/></g></g></svg>