<svg height="512" viewBox="0 0 49 60" width="512" xmlns="http://www.w3.org/2000/svg"><g id="Page-1" fill="none" fill-rule="evenodd"><g id="052---Weather-Vane" transform="translate(-1)"><g fill-rule="nonzero"><circle id="Oval" cx="27" cy="56" fill="#00bcd4" r="3"/><path id="Shape" d="m41.65 11.69-4.65 2.31v-4.83c.001657-.05685025-.0016893-.11373608-.01-.17h.01l4.56 1.51c.2457702.0810587.4186889.3019543.4383702.5599972.0196812.2580429-.1177363.5026081-.3483702.6200028z" fill="#ff9801"/><path id="Shape" d="m38 22c0 5.52-4.92 10-11 10-3.3820317.0407794-6.6069225-1.4250801-8.8-4h4.8c2.7614237 0 5-2.2385763 5-5v-1l2.89-10.61c.0715577-.2675095.1085257-.543089.11-.82v-1.57c.0005341-.83353759.347835-1.62927638.9586461-2.19645806.610811-.56718168 1.4300605-.85466821 2.2613539-.79354194.8510507.06122396 1.6294775.50184289 2.12 1.2.3904841.5184085.6168654 1.14182769.65 1.79.0083107.05626392.011657.11314975.01.17v7.93c-.0078544.5201769.0873068 1.0367661.28 1.52.4556524 1.0697156.7001408 2.2174528.72 3.38z" fill="#ffeb3a"/><path id="Shape" d="m37.28 18.62c-.1926932-.4832339-.2878544-.9998231-.28-1.52v-7.93c.001657-.05685025-.0016893-.11373608-.01-.17-.0331346-.64817231-.2595159-1.2715915-.65-1.79-.4905225-.69815711-1.2689493-1.13877604-2.12-1.2-.6060706-.04536986-1.2112736.09859299-1.732.412.3331666.20393686.6227196.47173948.852.788.3904841.5184085.6168654 1.14182769.65 1.79.0083107.05626392.011657.11314975.01.17v7.93c-.0078544.5201769.0873068 1.0367661.28 1.52.4556524 1.0697156.7001408 2.2174528.72 3.38 0 5.06-4.138 9.236-9.511 9.9.5010899.0647962 1.0057413.0981947 1.511.1 6.08 0 11-4.48 11-10-.0198592-1.1625472-.2643476-2.3102844-.72-3.38z" fill="#fec108"/><path id="Shape" d="m28 22v1c0 2.7614237-2.2385763 5-5 5h-4.8c-1.4127341-1.6810067-2.1912394-3.804203-2.2-6z" fill="#fec108"/><path id="Shape" d="m37.81 3.79-1.47 3.42c-.4905225-.69815711-1.2689493-1.13877604-2.12-1.2-.8312934-.06112627-1.6505429.22636026-2.2613539.79354194-.6108111.56718168-.958112 1.36292047-.9586461 2.19645806h-1.78c-.8543058.00042527-1.6329904-.48962166-2.0021894-1.26003113-.369199-.77040946-.26334-1.6843512.2721894-2.34996887l2.01-2.51c.9456273-1.18818491 2.38145-1.88032508 3.9-1.88h2.57c.671764.00266243 1.2976503.34123534 1.6674931.90202962.3698429.56079428.4345926 1.26943578.1725069 1.88797038z" fill="#f44335"/></g><path id="Shape" d="m27 32v5" stroke="#000" stroke-linecap="round" stroke-linejoin="round" stroke-width="2"/><path id="Shape" d="m20 22h-4c.0005807-2.197663-1.4339033-4.1380685-3.5351344-4.7819246-2.1012312-.6438561-4.3765459.1597983-5.60727319 1.9805217-1.23072728 1.8207233-1.12830554 4.2316209.25240759 5.9414029l-2.28 1.84c-.22179645.1818648-.51100719.259736-.79413356.2138236-.28312636-.0459124-.53290795-.2111877-.68586644-.4538236-.87709562-1.4075017-1.34458331-3.0315886-1.35-4.69.02271201-4.8653998 3.86856848-8.8522269 8.73-9.05 2.4329841-.0716291 4.7913411.8447034 6.5377108 2.5402079 1.7463696 1.6955045 2.7319919 4.0257538 2.7322892 6.4597921z" fill="#ff9801" fill-rule="nonzero"/><path id="Shape" d="m16 22c-3.2150463.1111569-6.31834712 1.2072609-8.89 3.14-1.38071313-1.709782-1.48313487-4.1206796-.25240759-5.9414029 1.23072729-1.8207234 3.50604199-2.6243778 5.60727319-1.9805217 2.1012311.6438561 3.5357151 2.5842616 3.5351344 4.7819246z" fill="#fec108" fill-rule="nonzero"/><path id="Shape" d="m29.925 11.127-2.689 9.873h-6.285c-.5229053-5.2267097-5.0005733-9.1579372-10.251-9-3.57438582.1064793-6.81987063 2.1135066-8.51192703 5.2638267-1.69205641 3.1503202-1.57312277 6.9643974.31192703 10.0031733.30406611.4871698.80225617.8207496 1.36851899.9163375s1.14634714-.0559739 1.59348101-.4163375l2.277-1.842c2.14458309-1.5866357 4.6699843-2.5790656 7.321-2.877.2214453 2.0387449 1.0400084 3.9666994 2.353 5.542.0350193.0534491.0755768.1030567.121.148 2.1473342 2.4774716 5.1948951 3.9951324 8.466 4.216v3.046h-11.465l-1.7-2.555c-.1982824-.297245-.5400812-.4661283-.8966441-.4430332s-.6737195.2346599-.832.555-.1336383.7007882.0646441.9980332l.961 1.445h-2.6l-1.7-2.555c-.1982824-.297245-.5400812-.4661282-.8966441-.4430331s-.6737195.2346599-.832.555c-.15828049.32034-.1336383.7007881.0646441.9980331l.964 1.445h-2.132c-.55228475 0-1 .4477153-1 1s.44771525 1 1 1h2.132l-.964 1.445c-.30651804.4595009-.18250091 1.080482.277 1.387s1.08048196.1825009 1.387-.277l1.703-2.555h2.6l-.964 1.445c-.1982824.297245-.2229246.6776931-.0646441.9980331.1582805.3203401.4754371.5319049.832.555s.6983617-.1457881.8966441-.4430331l1.7-2.555h11.465v6.461l-7.594-3.375c-.5047883-.2242276-1.0957724.0032117-1.32.508s.0032117 1.0957724.508 1.32l6.943 3.086-6.943 3.086c-.3265407.1450498-.5508937.4532888-.5885472.8086063-.0376536.3553175.1171128.7037323.406.914s.6680065.2504435.9945472.1053937l7.594-3.375v4.6c-1.9503067.503567-3.2219252 2.3787867-2.9681188 4.3770005s1.9538507 3.4959828 3.9681188 3.4959828 3.7143124-1.497769 3.9681188-3.4959828-1.0178121-3.8734335-2.9681188-4.3770005v-4.6l7.594 3.375c.1277468.0570002.2661137.0863095.406.086.4724216.0001351.8804906-.3303568.97852-.7924958.0980295-.4621389-.1407266-.9298361-.57252-1.1215042l-6.943-3.086 6.943-3.086c.5047883-.2242276.7322276-.8152117.508-1.32s-.8152117-.7322276-1.32-.508l-7.594 3.375v-6.461h18.586l-1.293 1.293c-.2599566.2510745-.3642126.6228779-.2726972.9725073.0915155.3496295.3645604.6226744.7141899.7141899.3496294.0915154.7214328-.0127406.9725073-.2726972l3-3c.093319-.0931333.1670955-.2039681.217-.326.1011169-.2446294.1011169-.5193706 0-.764-.0499045-.1220319-.123681-.2328667-.217-.326l-3-3c-.3923789-.3789722-1.0160848-.3735524-1.4018186.0121814s-.3911536 1.0094397-.0121814 1.4018186l1.293 1.295h-18.586v-3.046c6.149-.469 11-5.2 11-10.954-.0176312-1.2933324-.2894563-2.5705705-.8-3.759-.1401603-.3637282-.2080932-.7512852-.2-1.141v-2.48l4.092-2.036c.5946886-.2953254.9520811-.9206186.9047277-1.5829095-.0473535-.6622909-.4900721-1.23037661-1.1207277-1.4380905l-3.987-1.322c-.0875019-.39157744-.2295554-.76892819-.422-1.121l1.263-2.939c.3932682-.92733577.2961019-1.98998504-.2588257-2.83061987-.5549275-.84063483-1.4938989-1.34758403-2.5011743-1.35038013h-2.57c-1.8229656-.00323843-3.5473023.82743438-4.681 2.255l-2.01 2.51c-.775868.9658026-.9286454 2.29115013-.3928693 3.40815051.5357761 1.11700037 1.6650208 1.82741809 2.9038693 1.82684949h.78v.567c.0000617.1891745-.0251617.3775086-.075.56zm-24.157 13.813-1.568 1.272c-.77599562-1.2509338-1.19127436-2.691951-1.2-4.164.04698546-4.3133325 3.44832055-7.842267 7.757-8.048 4.1234675-.1274927 7.6657135 2.9059942 8.174 7h-2.023c-.2432958-1.4705833-1.0280931-2.7968907-2.2-3.718-2.2508909-1.7668823-5.43627492-1.698346-7.60908598.1637161-2.17281105 1.8620621-2.72829573 4.9993866-1.32691402 7.4942839zm1.617-1.218c-.51211867-1.0790913-.51666267-2.3302815-.01239535-3.4130641.50426731-1.0827826 1.46487423-1.8844882 2.62039535-2.1869359.3274138-.0794115.6630937-.1196931 1-.12 1.8463879-.0050568 3.457075 1.2525181 3.9 3.045-2.6812626.2753838-5.25665258 1.1929608-7.508 2.675zm19.615-.722c0 2.209139-1.790861 4-4 4h-4.3c-.8844994-1.1679364-1.4481505-2.5468993-1.635-4zm2 33c0 1.1045695-.8954305 2-2 2s-2-.8954305-2-2 .8954305-2 2-2 2 .8954305 2 2zm-2-25c-2.246721.010952-4.4393223-.6891123-6.264-2h2.264c3.3123376-.0033074 5.9966926-2.6876624 6-6v-.866l2.855-10.482c.0961911-.353645.1449514-.7185064.145-1.085v-1.567c-.0001345-.55623125.2313786-1.08739286.6389407-1.4659247s.9543531-.57023643 1.5090593-.5290753c1.0797702.14181171 1.8786564 1.07528342 1.852 2.164v7.931c-.0083361.6537158.1119453 1.3026917.354 1.91.4087726.9448378.628249 1.9606806.646 2.99 0 4.963-4.486 9-10 9zm11-18.614v-2l2.413.8zm-9.644-4.744c-.2290805-.22822148-.3572815-.53864064-.356-.862-.0012559-.27873502.0945606-.54921328.271-.765l2.01-2.515c.7560069-.9501205 1.9048053-1.5026045 3.119-1.5h2.57c.3354224-.001752.6486332.16747983.831.449.1881642.28009633.222383.63619744.091.947l-.928 2.157c-.5076924-.30882802-1.080661-.49445206-1.673-.542-1.1587648-.08385634-2.2967367.34023708-3.118 1.162-.5018203.50512087-.8580114 1.1363151-1.031 1.827h-.922c-.324253.00084069-.6353672-.12807005-.864-.358z" fill="#000" fill-rule="nonzero"/></g></g></svg>