<svg height="512" viewBox="0 0 60 60" width="512" xmlns="http://www.w3.org/2000/svg"><g id="Page-1" fill="none" fill-rule="evenodd"><g id="053---Small-Windmill" fill-rule="nonzero"><circle id="Oval" cx="30" cy="17" fill="#a0522d" r="3"/><g fill="#ffe0b2"><path id="Rectangle-path" d="m30 1h4v9h-4z"/><path id="Rectangle-path" d="m19.042 5.018h3.996v9.005h-3.996z" transform="matrix(.5 -.866 .866 .5 2.269 22.972)"/><path id="Rectangle-path" d="m14.538 19.022h9.005v3.996h-9.005z" transform="matrix(.866 -.5 .5 .866 -7.956 12.328)"/><path id="Rectangle-path" d="m26 24h4v9h-4z"/><path id="Rectangle-path" d="m36.962 19.977h3.996v9.005h-3.996z" transform="matrix(.5 -.866 .866 .5 -1.731 45.959)"/><path id="Rectangle-path" d="m36.457 10.982h9.005v3.996h-9.005z" transform="matrix(.866 -.5 .5 .866 -1.006 22.206)"/></g><path id="Shape" d="m33 37.2v17.8h-6v-17.8c.1695734-.1292619.3767782-.1995008.59-.2h4.82c.2132218.0004992.4204266.0707381.59.2z" fill="#ff9801"/><path id="Shape" d="m32.41 37h-3c.2132218.0004992.4204266.0707381.59.2v17.8h3v-17.8c-.1695734-.1292619-.3767782-.1995008-.59-.2z" fill="#f57c00"/><path id="Shape" d="m27 37.2v17.8h-10l5-9 4.71-8.49c.0693483-.125867.1690305-.2324238.29-.31z" fill="#d84315"/><path id="Shape" d="m43 55h-10v-17.8c.1209695.0775762.2206517.184133.29.31l4.71 8.49z" fill="#d84315"/><rect id="Rectangle-path" fill="#a0522d" height="4" rx="1" width="58" x="1" y="55"/><path id="Shape" d="m58 55h-3c.5522847 0 1 .4477153 1 1v2c0 .5522847-.4477153 1-1 1h3c.5522847 0 1-.4477153 1-1v-2c0-.5522847-.4477153-1-1-1z" fill="#783e22"/><path id="Shape" d="m58 54h-14.412l-9.428-16.971c-.368775-.618937-1.0278675-1.0069269-1.748-1.029h-1.412v-15.142c.7009972-.1788773 1.3403579-.5445225 1.85-1.058l1.85 1.066-1.5 2.6-.5.866c-.1814844.3095704-.1831833.6926495-.0044519 1.0038174.1787315.311168.5104885.5027136.8693336.5019247s.6897567-.1937913.8671183-.5057421l6.062 3.5c-.2761423.4785547-.1120547 1.0903576.3665 1.3665.4785547.2761423 1.0903576.1120547 1.3665-.3665l2.5-4.33c.1325192-.2298001.1683016-.5028382.0994724-.7590255-.0688293-.2561874-.2366296-.4745294-.4664724-.6069745l-10.521-6.075c.214637-.6910507.214637-1.4309493 0-2.122l1.861-1.073 2 3.464c.1773616.3119508.5082732.5049532.8671183.5057421s.6906021-.1907567.8693336-.5019247c.1787314-.3111679.1770325-.694247-.0044519-1.0038174l6.062-3.5c.2761424.4785547.8879453.6426423 1.3665.3665.4785547-.2761424.6426423-.8879453.3665-1.3665l-.5-.866-2-3.464c-.1326158-.22994444-.3512138-.39772752-.607628-.46637976s-.5296031-.03253998-.759372.10037976l-7.793 4.5-2.717 1.566c-.5096421-.5134775-1.1490028-.8791227-1.85-1.058v-2.142h4c.5522847 0 1-.4477153 1-1 0-.55228475-.4477153-1-1-1v-7c.5522847 0 1-.44771525 1-1s-.4477153-1-1-1h-5c-.5522847 0-1 .44771525-1 1v12.142c-.7009972.1788773-1.3403579.5445225-1.85 1.058l-1.85-1.066 1.5-2.6.5-.866c.1814844-.30957042.1831833-.69264947.0044519-1.00381742-.1787315-.31116795-.5104885-.50271357-.8693336-.50192468-.3588451.00078888-.6897567.19379132-.8671183.5057421l-6.058-3.498c.2761424-.47855473.1120547-1.09035761-.3665-1.36649998s-1.0903576-.11205474-1.3665.36649998l-2.5 4.33c-.1325192.22980008-.1683016.50283816-.0994724.75902552.0688293.25618736.2366296.47452935.4664724.60697448l10.517 6.073c-.214637.6910507-.214637 1.4309493 0 2.122l-1.861 1.073-2-3.464c-.2780058-.4742136-.886647-.6351286-1.3626943-.3602745-.4760473.274854-.640996.8824145-.3693057 1.3602745l-6.062 3.5c-.1786328-.3095706-.5088503-.5003262-.8662627-.500411s-.6877204.1905141-.8665.5c-.1787796.3094858-.1788701.6908404-.0002373 1.000411l.5.866 2 3.463c.1326158.2299444.3512138.3977275.607628.4663798.2564142.0686522.5296031.0325399.759372-.1003798l7.793-4.5 2.717-1.565c.5096421.5134775 1.1490028.8791227 1.85 1.058v2.142h-4c-.5522847 0-1 .4477153-1 1s.4477153 1 1 1v7c-.5522847 0-1 .4477153-1 1s.4477153 1 1 1h4v2h-1.412c-.7198648.0229983-1.378546.410746-1.748 1.029l-9.428 16.971h-14.412c-1.1045695 0-2 .8954305-2 2v2c0 1.1045695.8954305 2 2 2h56c1.1045695 0 2-.8954305 2-2v-2c0-1.1045695-.8954305-2-2-2zm-16.51-26.9-6.062-3.5 1-1.732 6.062 3.5zm2-16.732 1 1.732-6.062 3.5-1-1.732zm-24.98-3.468 6.062 3.5-1 1.732-6.062-3.5zm-2 16.732-1-1.732 6.062-3.5 1 1.732zm16.49-21.632v7h-2v-7zm-5 15c0-1.1045695.8954305-2 2-2s2 .8954305 2 2-.8954305 2-2 2-2-.8954305-2-2zm-1 8h2v7h-2zm1 29v-7h4v7zm0-16h4v7h-4zm6 9h3.412l3.888 7h-7.3zm2.3-2h-2.3v-4.141zm-10.3-4.141v4.141h-2.3zm-3.412 6.141h3.412v7h-7.3zm35.412 11h-56v-2h56z" fill="#000"/></g></g></svg>