<svg height="512" viewBox="0 0 60 46" width="512" xmlns="http://www.w3.org/2000/svg"><g id="Page-1" fill="none" fill-rule="evenodd"><g id="054---Farm-Truck" fill-rule="nonzero"><path id="Shape" d="m59 25v11.02c-.0011003.5407827-.4392173.9788997-.98.98h-1.45c-.4502892-.005119-.8405168-.3131934-.95-.75-.022111-.0847231-.0488172-.1681799-.08-.25-1.3095326-4.167-5.1720754-7.001934-9.54-7.001934s-8.2304674 2.834934-9.54 7.001934c-.0311828.0818201-.057889.1652769-.08.25-.1094832.4368066-.4997108.744881-.95.75h-7.43v-32c.0032948-1.10320187.8967981-1.9967052 2-2h8.59c.8461681-.00293692 1.601075.53111956 1.88 1.33l.95 2.67h-7.42c-.5522847 0-1 .44771525-1 1v8c0 .5522847.4477153 1 1 1h19c2.5419973-.0028032 4.8080521 1.6014834 5.65 4h-5.65c-.5522847 0-1 .4477153-1 1v1c.0032948 1.1032019.8967981 1.9967052 2 2z" fill="#f44335"/><path id="Shape" d="m55.65 21h3c-.8419479-2.3985166-3.1080027-4.0028032-5.65-4l-3-.0000037c2.5419973-.0027995 4.8080521 1.6014871 5.65 4.0000037z" fill="#c81e1e"/><path id="Shape" d="m37.47 4.33.95 2.67h3l-.95-2.67c-.278925-.79888044-1.0338319-1.33293692-1.88-1.33l-3-.00001205c.8461681-.00292487 1.601075.53113161 1.88 1.33001205z" fill="#c81e1e"/><path id="Shape" d="m56 25v11.02c-.0050282.2086997-.0776685.4101275-.207.574.1788111.252214.4678436.4032399.777.406h1.45c.5407827-.0011003.9788997-.4392173.98-.98v-11.02z" fill="#c81e1e"/><path id="Shape" d="m45 17h-11c-.5522847 0-1-.4477153-1-1v-8c0-.55228475.4477153-1 1-1h7.42z" fill="#02a9f4"/><path id="Shape" d="m52 39c0 3.3137085-2.6862915 6-6 6s-6-2.6862915-6-6c-.0050382-1.0546903.2748116-2.0911709.81-3 1.0689456-1.8562997 3.0479231-3.0003513 5.19-3.0003513s4.1210544 1.1440516 5.19 3.0003513c.5351884.9088291.8150382 1.9453097.81 3z" fill="#37474f"/><circle id="Oval" cx="46" cy="39" fill="#cfd8dc" r="2"/><path id="Shape" d="m20 39c0 3.3137085-2.6862915 5.9999999-6 5.9999999s-5.99999995-2.6862914-6-5.9999999c-.00503816-1.0546903.2748116-2.0911709.81-3 1.06894561-1.8562997 3.0479231-3.0003513 5.19-3.0003513s4.1210544 1.1440516 5.19 3.0003513c.5351884.9088291.8150382 1.9453097.81 3z" fill="#37474f"/><circle id="Oval" cx="14" cy="39" fill="#cfd8dc" r="2"/><path id="Shape" d="m28 21v16h-3.43c-.4502892-.005119-.8405168-.3131934-.95-.75-.022111-.0847231-.0488172-.1681799-.08-.25-1.3095326-4.167-5.1720754-7.001934-9.54-7.001934-4.36792456 0-8.23046737 2.834934-9.54 7.001934-.03118281.0818201-.05788898.1652769-.08.25-.10948323.4368066-.49971076.744881-.95.75h-1.45c-.54078265-.0011003-.97889973-.4392173-.98-.98v-14.02c0-.5522847.44771525-1 1-1z" fill="#ff5722"/><path id="Rectangle-path" d="m25 21h3v16h-3z" fill="#d84315"/><path id="Shape" d="m23.54 36h-4.35c-1.0689456-1.8562997-3.0479231-3.0003513-5.19-3.0003513s-4.12105439 1.1440516-5.19 3.0003513h-4.35c1.30953263-4.167 5.17207544-7.001934 9.54-7.001934 4.3679246 0 8.2304674 2.834934 9.54 7.001934z" fill="#d84315"/><path id="Shape" d="m55.54 36h-4.35c-1.0689456-1.8562997-3.0479231-3.0003513-5.19-3.0003513s-4.1210544 1.1440516-5.19 3.0003513h-4.35c1.3095326-4.167 5.1720754-7.001934 9.54-7.001934s8.2304674 2.834934 9.54 7.001934z" fill="#c81e1e"/><path id="Shape" d="m28 13v4h-26c-.55228475 0-1-.4477153-1-1v-2c0-.5522847.44771525-1 1-1z" fill="#a0522d"/><path id="Rectangle-path" d="m25 13h3v4h-3z" fill="#783e22"/><path id="Shape" d="m28 5v4h-26c-.55228475 0-1-.44771525-1-1v-2c0-.55228475.44771525-1 1-1z" fill="#a0522d"/><g fill="#783e22"><path id="Rectangle-path" d="m25 5h3v4h-3z"/><path id="Rectangle-path" d="m4 17h4v4h-4z"/><path id="Rectangle-path" d="m19 17h4v4h-4z"/><path id="Rectangle-path" d="m4 9h4v4h-4z"/><path id="Rectangle-path" d="m19 9h4v4h-4z"/><path id="Shape" d="m8 2v3h-4v-3c0-.55228475.44771525-1 1-1h2c.55228475 0 1 .44771525 1 1z"/><path id="Shape" d="m23 2v3h-4v-3c0-.55228475.4477153-1 1-1h2c.5522847 0 1 .44771525 1 1z"/></g><path id="Shape" d="m59 23 .0000211 2h-5.0000211c-1.1032019-.0032948-1.9967052-.8967981-2-2v-1c0-.5522847.4477153-1 1-1h5.65c.2333562.6409013.3518379 1.3179398.35 2z" fill="#ffdc00"/><path id="Shape" d="m46 36c-1.6568542 0-3 1.3431458-3 3s1.3431458 3 3 3 3-1.3431458 3-3-1.3431458-3-3-3zm0 4c-.5522847 0-1-.4477153-1-1s.4477153-1 1-1 1 .4477153 1 1-.4477153 1-1 1z" fill="#000"/><path id="Shape" d="m14 36c-1.6568542 0-3 1.3431458-3 3s1.3431458 3 3 3 3-1.3431458 3-3-1.3431458-3-3-3zm0 4c-.5522847 0-1-.4477153-1-1s.4477153-1 1-1 1 .4477153 1 1-.4477153 1-1 1z" fill="#000"/><path id="Shape" d="m39 20h-3c-.5522847 0-1 .4477153-1 1s.4477153 1 1 1h3c.5522847 0 1-.4477153 1-1s-.4477153-1-1-1z" fill="#000"/><path id="Shape" d="m23 24h-17c-1.1045695 0-2 .8954305-2 2v2c0 .5522847.44771525 1 1 1s1-.4477153 1-1v-2h17v2c0 .5522847.4477153 1 1 1s1-.4477153 1-1v-2c0-1.1045695-.8954305-2-2-2z" fill="#000"/><path id="Shape" d="m37 14c-.4645668.001367-.8688925-.3173868-.9760016-.7694397-.1071091-.452053.1112105-.9183359.5270016-1.1255603l5.57-2.79c.4940187-.24852811 1.0959718-.04951868 1.3445.44450002.2485281.49401868.0495187 1.09597178-.4445 1.34449998l-5.573 2.796c-.139679.0672758-.2929709.1014928-.448.1z" fill="#f5f5f5"/><path id="Shape" d="m59.571 20.609c-1.0062992-2.762887-3.6305658-4.6035878-6.571-4.609h-7.3l-4.284-12.009c-.4280019-1.19311762-1.5584381-1.98954315-2.826-1.991h-8.59c-1.2667854.00525139-2.3937454.80564913-2.816 2h-3.184v-2c0-1.1045695-.8954305-2-2-2h-2c-1.1045695 0-2 .8954305-2 2v2h-9v-2c0-1.1045695-.8954305-2-2-2h-2c-1.1045695 0-2 .8954305-2 2v2h-1c-1.1045695 0-2 .8954305-2 2v2c0 1.1045695.8954305 2 2 2h1v2h-1c-1.1045695 0-2 .8954305-2 2v2c0 1.1045695.8954305 2 2 2h1v2h-1c-1.1045695 0-2 .8954305-2 2v14.02c.00165206 1.0928388.88716123 1.9783479 1.98 1.98h1.45c.70351444-.00407 1.35052968-.3860153 1.694-1h2.176c-.74858393 2.4893906-.04836243 5.1884823 1.816 7h-8.116c-.55228475 0-1 .4477153-1 1s.44771525 1 1 1h23c.5522847 0 1-.4477153 1-1s-.4477153-1-1-1h-5.111c1.8643624-1.8115177 2.5645839-4.5106094 1.816-7h2.171c.3434703.6139847.9904856.99593 1.694 1h10.861c.7033988-.0044883 1.3502193-.3863186 1.694-1h2.175c-.7485839 2.4893906-.0483624 5.1884823 1.816 7h-13.116c-.5522847 0-1 .4477153-1 1s.4477153 1 1 1h31c.5522847 0 1-.4477153 1-1s-.4477153-1-1-1h-8.111c1.8643624-1.8115177 2.5645839-4.5106094 1.816-7h2.17c.3437807.6136814.9906012.9955117 1.694 1h1.451c1.0928388-.0016521 1.9783479-.8871612 1.98-1.98v-13.02c-.001696-.8145989-.146567-1.6225592-.428-2.387zm-1.571 2.391.0000025 1h-4.0000025c-.5522847 0-1-.4477153-1-1v-1h4.9c.0668333.3291289.1003359.6641542.1 1zm-15.988-11.392 1.569 4.392h-9.581v-8h6.724l.611 1.71zm-33.012 8.392v-2h9v2zm11-2h2v2h-2zm4 0h3v2h-3zm-15-6v-2h9v2zm11-2h2v2h-2zm4 0h3v2h-3zm-4-8h2v2h-2zm-15 0h2v2h-2zm-3 4h25v2h-25zm3 4h2v2h-2zm-3 4h25v2h-25zm3 4h2v2h-2zm9 26c-2.7614237 0-5-2.2385763-5-5s2.2385763-5 5-5 5 2.2385763 5 5c-.0033061 2.7600532-2.2399468 4.9966939-5 5zm0-12c-2.2876831.0012636-4.43001482 1.1217299-5.736 3h-2.322c1.51754791-3.0625906 4.6400455-5.0001708 8.058-5.0001708s6.5404521 1.9375802 8.058 5.0001708h-2.322c-1.3059852-1.8782701-3.4483169-2.9987364-5.736-3zm10.467 3.64c0-.014-.007-.027-.013-.041-1.4955387-4.6073775-5.829011-7.6941502-10.6721555-7.6018757-4.84314451.0922745-9.05589251 3.3418749-10.3748445 8.0028757l-1.407.02v-14.02h25v13.993l-2.421-.015c-.033-.115-.079-.225-.112-.338zm21.533 8.36c-2.7614237 0-5-2.2385763-5-5s2.2385763-5 5-5 5 2.2385763 5 5c-.0033061 2.7600532-2.2399468 4.9966939-5 5zm0-12c-2.2876831.0012636-4.4300148 1.1217299-5.736 3h-2.319c1.5161016-3.0625276 4.6377439-5.0003793 8.055-5.0003793s6.5388984 1.9378517 8.055 5.0003793h-2.319c-1.3059852-1.8782701-3.4483169-2.9987364-5.736-3zm10.578 3.978c-.032-.112-.073-.219-.109-.328-.0049442-.0183349-.0109544-.0363656-.018-.054-1.4850312-4.5179349-5.695295-7.5780405-10.451-7.596-.6711662.0020834-1.3406954.0663582-2 .192v-7.192c0-.5522847-.4477153-1-1-1s-1 .4477153-1 1v7.77c-3.0395996 1.1972271-5.391718 3.6808326-6.422 6.781-.0327802.070511-.0569541.1447113-.072.221-.024.077-.053.151-.075.228h-2.431v-15c0-.5522847-.4477153-1-1-1s-1 .4477153-1 1v15h-2v-31c0-.55228475.4477153-1 1-1h8.59c.4225368-.00020929.7996051.26517957.942.663l.478 1.337h-6.01c-1.1045695 0-2 .8954305-2 2v8c0 1.1045695.8954305 2 2 2h19c1.5654908.0045607 3.037602.7454319 3.974 2h-3.974c-1.1045695 0-2 .8954305-2 2v1c0 1.6568542 1.3431458 3 3 3h4v10z" fill="#000"/></g></g></svg>