<svg height="512" viewBox="0 0 60 60" width="512" xmlns="http://www.w3.org/2000/svg"><g id="Page-1" fill="none" fill-rule="evenodd"><g id="057---Wind-Farm" fill-rule="nonzero" transform="translate(-1)"><path id="Shape" d="m31 33v6h-4v-3.17c.0002413-.5329123.2125227-1.0438267.59-1.42l1.41-1.41z" fill="#7f8e94"/><path id="Shape" d="m35 35.83v3.17h-4v-6h2l1.41 1.41c.3774773.3761733.5897587.8870877.59 1.42z" fill="#545c60"/><circle id="Oval" cx="31" cy="12.001" fill="#cfd8dc" r="3"/><path id="Shape" d="m8 33v6h-4v-3.17c.00024132-.5329123.21252266-1.0438267.59-1.42l1.41-1.41z" fill="#7f8e94"/><path id="Shape" d="m12 35.83v3.17h-4v-6h2l1.41 1.41c.3774773.3761733.5897587.8870877.59 1.42z" fill="#545c60"/><circle id="Oval" cx="8" cy="12.001" fill="#cfd8dc" r="3"/><path id="Shape" d="m58 35.83v3.17h-4v-6h2l1.41 1.41c.3735529.3787912.5851346.8880217.59 1.42z" fill="#545c60"/><path id="Shape" d="m54 33v6h-4v-3.17c.0011398-.5307827.2092118-1.0402005.58-1.42l1.42-1.41z" fill="#7f8e94"/><circle id="Oval" cx="53.995" cy="12.001" fill="#cfd8dc" r="3"/><path id="Shape" d="m50 59h-46c-1.1045695 0-2-.8954305-2-2v-18c6.3151338.6660342 12.5406905 2.0070265 18.57 4 3.5535048 1.13532 7.0363234 2.4810303 10.43 4.03 1.58.71 3.17 1.5 4.77 2.35 1.47.77 2.95 1.61 4.42 2.52 1.36.83 2.73 1.71 4.07 2.66s2.69 1.94 4.01 3.01c.58.46 1.16.94 1.73 1.43z" fill="#a4c400"/><path id="Shape" d="m48.27 57.57c-1.32-1.0666667-2.6566667-2.07-4.01-3.01-1.34-.95-2.71-1.83-4.07-2.66-1.47-.91-2.95-1.75-4.42-2.52-1.6-.85-3.19-1.64-4.77-2.35-3.3936766-1.5489697-6.8764952-2.89468-10.43-4.03-6.0293095-1.9929735-12.2548662-3.3339658-18.57-4v.356c5.28143819.7841143 10.4891258 2.0029205 15.57 3.644 3.5535048 1.13532 7.0363234 2.4810303 10.43 4.03 1.58.71 3.17 1.5 4.77 2.35 1.47.77 2.95 1.61 4.42 2.52 1.36.83 2.73 1.71 4.07 2.66s2.69 1.94 4.01 3.01c.58.46 1.16.94 1.73 1.43h3c-.57-.49-1.15-.97-1.73-1.43z" fill="#90ac00"/><path id="Shape" d="m60 39c-6.3117715.6666324-12.5339502 2.0076192-18.56 4-3.5562066 1.1369056-7.0422599 2.4825756-10.44 4.03-3.3936766-1.5489697-6.8764952-2.89468-10.43-4.03-6.0293095-1.9929735-12.2548662-3.3339658-18.57-4z" fill="#008a00"/><path id="Shape" d="m60 39v18c0 1.1045695-.8954305 2-2 2h-8c-.57-.49-1.15-.97-1.73-1.43-1.32-1.0666667-2.6566667-2.07-4.01-3.01-1.34-.95-2.71-1.83-4.07-2.66-1.47-.91-2.95-1.75-4.42-2.52-1.6-.85-3.19-1.64-4.77-2.35 3.3977401-1.5474244 6.8837934-2.8930944 10.44-4.03 6.0260498-1.9923808 12.2482285-3.3333676 18.56-4z" fill="#60a917"/><path id="Shape" d="m57 39.357v19.643h1c1.1045695 0 2-.8954305 2-2v-18s-1.092.082-3 .357z" fill="#549414"/><g fill="#000"><path id="Shape" d="m43 60c.4268598.0001387.8067467-.2706899.9457877-.67427.139041-.4035802.0065779-.850923-.3297877-1.11373-17.964-14.021-41.296-16.188-41.53-16.212-.55228474-.0477726-1.03872735.3612153-1.08649998.9135s.36121524 1.0387274.91349998 1.0865c.229.021 22.987 2.146 40.472 15.792.1758297.136421.3924603.2096879.615.208z"/><path id="Shape" d="m36 60c.4402146.0005449.8290098-.2868494.9576137-.7078604.1286038-.4210109-.033235-.8766044-.3986137-1.1221396-14.912-10.024-33.659-12.082-34.459-12.164-.26498089-.0336483-.53221501.0423218-.73986787.2103318-.20765286.1680101-.33772959.4135006-.36013213.6796682-.02799078.2639182.05007912.5281387.21701338.7344619.16693425.2063232.40903914.3378245.67298662.3655381.189.021 19.059 2.1 33.546 11.836.1668937.1113026.3634049.1698378.564.168z"/><path id="Shape" d="m28 60c.4603722.0011116.8620177-.3122281.9729495-.7590367s-.0975176-.9116201-.5049495-1.1259633c-11.402-6.015-25.728-8.023-26.332-8.106-.54731419-.0751107-1.05188927.3076858-1.127.855s.30768581 1.0518893.855 1.127c.145.02 14.588 2.048 25.669 7.894.144079.0755276.3043249.1149886.467.115z"/><path id="Shape" d="m2.124 54.008c-.54031437-.054588-1.02543739.3320292-1.0927963.8709005-.0673589.5388712.30766994 1.0330074.8447963 1.1130995 5.37834341.77251 10.6633103 2.0944219 15.772 3.945.1128053.0412049.2319056.0625211.352.063.4843297.0012981.8999699-.3446733.9865664-.8212004.0865966-.476527-.1807461-.9466131-.6345664-1.1157996-5.2526744-1.9153481-10.69176577-3.2744506-16.228-4.055z"/><path id="Shape" d="m61 38.926c-.0099121-.0552859-.0249778-.1095225-.045-.162-.0104038-.0622158-.027158-.1232013-.05-.182-.0350102-.0690206-.0783319-.1334995-.129-.192-.0264224-.0386856-.0551406-.0757521-.086-.111-.0635832-.0566638-.1345647-.1044334-.211-.142-.0352974-.0233052-.0720379-.0443475-.11-.063-.0732721-.0241304-.1491253-.0395695-.226-.046-.0468685-.0130273-.0946794-.0223888-.143-.028h-1v-2.172c-.0028378-.6912663-.2464732-1.3599377-.689-1.891.4088417-.1294785.6872877-.5081489.689-.937 0-.5522847-.4477153-1-1-1h-3v-15.825l3.094 6.086c.2504611.4923619.8526381.6884611 1.345.438s.6884611-.8526381.438-1.345l-3.238-6.369c.8092249-.7006705 1.2988986-1.7001642 1.3566032-2.7690207.0577047-1.0688566-.3215165-2.1152595-1.0506032-2.8989793l3.9-5.992c.282977-.46197576.1466148-1.06527715-.3075413-1.36064116-.454156-.295364-1.0609237-.17536308-1.3684587.27064116l-3.9 5.99c-1.0128847-.3603916-2.1293604-.28873847-3.0878669.19817302-.9585066.48691148-1.674822 1.34629746-1.9811331 2.37682698l-7.136-.38c-.5488767-.0217802-1.0151006.3978657-1.051.946-.0141655.2649785.0775674.5247225.2549989.7220352.1774314.1973128.4260112.3160139.6910011.3299648l7.121.38v.035c.2172762 1.0387903.8404307 1.9477822 1.731 2.525.3662071.233064.7677366.4052928 1.189.51v16.132h-3c-.5522847 0-1 .4477153-1 1 .0021674.4290163.2809567.8076042.69.937-.4432559.5307122-.6873002 1.199535-.69 1.891v2.172h-13v-2.172c-.0026998-.691465-.2467441-1.3602878-.69-1.891.4090433-.1293958.6878326-.5079837.69-.937 0-.5522847-.4477153-1-1-1h-3v-16.141c.6909909-.1723987 1.3225739-.5282688 1.828-1.03.009-.008.014-.019.023-.027l6.176 3.565c.3095704.1814844.6926495.1831833 1.0038174.0044519.311168-.1787315.5027136-.5104885.5019247-.8693336s-.1937913-.6897567-.5057421-.8671183l-6.187-3.572c.409915-1.3840086.0204095-2.8812183-1.012-3.89-.5056168-.49531299-1.1382037-.8413671-1.828-1v-7.173c0-.55228475-.4477153-1-1-1s-1 .44771525-1 1v7.175c-.6897963.1586329-1.3223832.50468701-1.828 1-1.0324095 1.0087817-1.421915 2.5059914-1.012 3.89l-6.187 3.572c-.3119508.1773616-.5049532.5082732-.5057421.8671183s.1907567.6906021.5019247.8693336c.3111679.1787314.694247.1770325 1.0038174-.0044519l6.176-3.569c.009.008.014.019.023.027.50519.5024596 1.1367946.8590329 1.828 1.032v16.141h-3c-.5522847 0-1 .4477153-1 1 .0021674.4290163.2809567.8076042.69.937-.4432559.5307122-.6873002 1.199535-.69 1.891v2.172h-13v-2.172c-.0026998-.691465-.2467441-1.3602878-.69-1.891.4090433-.1293958.6878326-.5079837.69-.937 0-.5522847-.4477153-1-1-1h-3v-16.132c.41907563-.10666.81820216-.2802226 1.182-.514.8905693-.5772178 1.5137238-1.4862097 1.731-2.525 0-.012 0-.024 0-.035l7.122-.38c.5522847-.0292711.9762711-.5007153.947-1.053s-.5007153-.9762711-1.053-.947l-7.129.386c-.4094334-1.38641885-1.5540954-2.43132729-2.972-2.713-.69965803-.14390338-1.42519044-.09622554-2.1.138l-3.889-5.99c-.30099519-.46336691-.92063309-.59499519-1.384-.294-.4633669.30099519-.59499519.92063309-.294 1.384l3.9 5.993c-.73783802.7788769-1.12350948 1.8265429-1.06679314 2.8979147.05671635 1.0713717.55084504 2.0724629 1.36679314 2.7690853l-3.238 6.369c-.16201995.3185023-.14181362.6992471.05300747.9988117.19482109.2995645.53465897.4724377.89150001.4535.35684103-.0189378.67647258-.2268094.83849252-.5453117l3.094-6.086v15.825h-3c-.55228475 0-1 .4477153-1 1 .00216736.4290163.28095672.8076042.69.937-.44325588.5307122-.68730016 1.199535-.69 1.891v2.172h-1c-.04632371.0057663-.09212859.0151278-.137.028-.07858807.0058535-.15616458.0213016-.231.046-.03452635.0171991-.06792676.0365714-.1.058-.07941738.0390987-.15310273.0888952-.219.148-.03006462.0331335-.05748215.0685756-.082.106-.05238745.0607356-.09675093.127953-.132.2-.02283657.0584567-.03959164.1191101-.05.181-.02125133.0513576-.03765601.1045891-.049.159 0 .013.005.024.005.037s-.005.024-.005.037c.00612675.05447.01683127.1083271.032.161.00681523.0651022.01987534.1293981.039.192.0277817.0594389.06127234.116038.1.169.02859274.0539458.06206586.1051597.1.153.04690528.0452569.09815247.0857858.153.121.04812794.0380274.09968252.0715044.154.1.06470124.0246178.13170085.0427077.2.054.04777243.0209725.09729649.0377036.148.05.266.021 26.929 2.2 47.424 19.762.4212323.3340753 1.0312217.2753078 1.3809275-.133041.3497059-.4083488.3139582-1.020119-.0809275-1.384959-.091-.078-.185-.151-.277-.229 3.2050551-.875908 6.4617422-1.5505576 9.751-2.02.5371264-.0800921.9121552-.5742283.8447963-1.1130995-.0673589-.5388713-.5524819-.9254885-1.0927963-.8709005-3.8495993.5420542-7.6548863 1.3621995-11.386 2.454-.66-.522-1.324-1.0303333-1.992-1.525 4.4749043-1.2789216 9.0286085-2.2640209 13.632-2.949.3631119-.0358858.6778539-.2666971.8212231-.6022315.1433691-.3355344.0926039-.7225218-.1324564-1.0097254s-.5886847-.4290263-.9487667-.3700431c-5.2238219.7769771-10.3843742 1.9320103-15.441 3.456-.654-.45-1.3103333-.888-1.969-1.314 5.7246455-1.9774168 11.6347801-3.370185 17.64-4.157.5339611-.0742326.9129711-.5583643.8568728-1.094534-.0560982-.5361696-.5271103-.9313654-1.0648728-.893466-6.691982.8635858-13.2662552 2.4736119-19.6 4.8-.7333333-.4413333-1.4666667-.867-2.2-1.277 7.0698418-2.7664664 14.4622586-4.6243152 22-5.529.2647114-.0233486.5092435-.1510994.6796054-.3550458s.2525416-.4673144.2283946-.7319542c-.0155452-.2681832-.1409399-.5181022-.3466413-.6908762-.2057013-.172774-.4735202-.2531255-.7403587-.2221238-8.289479.9718278-16.4043138 3.0876145-24.113 6.287-.808-.4206667-1.6133333-.8246667-2.416-1.212 8.500631-3.6571626 17.4939862-6.0411262 26.69-7.075.0521803-.009742.1033844-.0241327.153-.043.0682991-.0112923.1352988-.0293822.2-.054.3054895-.1253427.5159289-.4101682.546-.739.0136468-.0537995.0226796-.1086651.027-.164 0-.013-.007-.024-.008-.037s.008-.024.008-.037zm-19.688 3.074h-20.7c-2.569-.818-4.982-1.475-7.162-2h35.038c-2.188.525-4.604 1.181-7.176 2zm13.688-4v-4h.586l1.114 1.121c.1875494.1874927.2929434.4418052.293.707v2.172zm-2.961-25.585c-.1968308-.9336174.2932438-1.8762634 1.1705181-2.2514615.8772742-.37519811 1.8974196-.0784524 2.4365648.7087618.5391451.7872143.4471334 1.8456511-.2197652 2.5280219-.6668987.6823708-1.7229472.7986295-2.5223177.2776778-.4455218-.2884965-.7570241-.7433259-.865-1.263zm-1.039 23.413c.0010349-.2649991.1062805-.5189537.293-.707l1.116-1.121h.591v4h-2zm-19 2.172v-4h.586l1.121 1.121c.1875494.1874927.2929434.4418052.293.707v2.172zm-3-26c-.0001933-.9053017.6077514-1.6978413 1.4821841-1.9322311.8744327-.23438975 1.7972684.1478275 2.2498961.9318551.4526278.7840276.3221614 1.7743277-.3180802 2.414376-.791167.755814-2.036833.755814-2.828 0-.3764121-.3741062-.5874371-.8833028-.586-1.414zm-1 23.828c.0000566-.2651948.1054506-.5195073.293-.707l1.121-1.121h.586v4h-2zm-19 2.172v-4h.586l1.121 1.121c.1875494.1874927.2929434.4418052.293.707v2.172zm-.586-27.956c1.04065442.2219757 1.7253033 1.2199129 1.55786009 2.270721-.16744322 1.0508081-1.12834591 1.7865314-2.18645201 1.6740757-1.05810611-.1124557-1.84290462-1.0337125-1.785742-2.0962412.05716262-1.0625288.93627007-1.89426968 2.00033392-1.8925555.13914558.0003968.27787934.0151415.414.044zm-3.414 25.784c.00005664-.2651948.10545063-.5195073.293-.707l1.121-1.121h.586v4h-2zm21.3 8.172h9.336c-1.5293333.592-3.0846667 1.242-4.666 1.95-1.583-.708-3.144-1.36-4.67-1.95z"/></g></g></g></svg>