<svg height="512" viewBox="0 0 60 60" width="512" xmlns="http://www.w3.org/2000/svg"><g id="Page-1" fill="none" fill-rule="evenodd"><g id="058---Coffee-Bean-Data" fill-rule="nonzero"><path id="Shape" d="m47 30c-1.8507051-1.8777035-4.3639354-2.9548022-7-3-3.5401534.0969922-6.9910689 1.1322669-10 3s-6.4598466 2.9030078-10 3c-2.6360646-.0451978-5.1492949-1.1222965-7-3 0-7.18 7.61-13 17-13s17 5.82 17 13z" fill="#a0522d"/><path id="Shape" d="m43.737 27.793c1.2139358.5291048 2.3200499 1.2772488 3.263 2.207 0-7.18-7.61-13-17-13-.506 0-1 .025-1.5.058 7.722.517 13.947 4.978 15.237 10.735z" fill="#783e22"/><path id="Shape" d="m47 30c0 7.18-7.61 13-17 13s-17-5.82-17-13c1.8507051 1.8777035 4.3639354 2.9548022 7 3 3.5401534-.0969922 6.9910689-1.1322669 10-3s6.4598466-2.9030078 10-3c2.6360646.0451978 5.1492949 1.1222965 7 3z" fill="#ff9801"/><path id="Shape" d="m40 27c-.5753875.0021213-1.1502347.0355039-1.722.1 2.1675557.3324558 4.1722835 1.3484835 5.722 2.9 0 6.793-6.814 12.36-15.5 12.942.5.033.994.058 1.5.058 9.39 0 17-5.82 17-13-1.8507051-1.8777035-4.3639354-2.9548022-7-3z" fill="#f57c00"/><rect id="Rectangle-path" fill="#ffdc00" height="12" rx="2" width="18" x="1" y="1"/><path id="Shape" d="m17 1h-3c1.1045695 0 2 .8954305 2 2v8c0 1.1045695-.8954305 2-2 2h3c1.1045695 0 2-.8954305 2-2v-8c0-1.1045695-.8954305-2-2-2z" fill="#fec108"/><rect id="Rectangle-path" fill="#02a9f4" height="12" rx="2" transform="matrix(-1 0 0 -1 100 14)" width="18" x="41" y="1"/><path id="Shape" d="m57 1h-3c1.1045695 0 2 .8954305 2 2v8c0 1.1045695-.8954305 2-2 2h3c1.1045695 0 2-.8954305 2-2v-8c0-1.1045695-.8954305-2-2-2z" fill="#0377bc"/><rect id="Rectangle-path" fill="#f44335" height="12" rx="2" width="18" x="1" y="47"/><path id="Shape" d="m17 47h-3c1.1045695 0 2 .8954305 2 2v8c0 1.1045695-.8954305 2-2 2h3c1.1045695 0 2-.8954305 2-2v-8c0-1.1045695-.8954305-2-2-2z" fill="#c81e1e"/><rect id="Rectangle-path" fill="#60a917" height="12" rx="2" transform="matrix(-1 0 0 -1 100 106)" width="18" x="41" y="47"/><path id="Shape" d="m57 47h-3c1.1045695 0 2 .8954305 2 2v8c0 1.1045695-.8954305 2-2 2h3c1.1045695 0 2-.8954305 2-2v-8c0-1.1045695-.8954305-2-2-2z" fill="#549414"/><path id="Shape" d="m57 0h-14c-1.6568542 0-3 1.34314575-3 3v3h-3c-2.209139 0-4 1.790861-4 4v6.211c-1.9901069-.2813269-4.0098931-.2813269-6 0v-6.211c0-2.209139-1.790861-4-4-4h-3v-3c0-1.65685425-1.3431458-3-3-3h-14c-1.65685425 0-3 1.34314575-3 3v8c0 1.6568542 1.34314575 3 3 3h14c1.6568542 0 3-1.3431458 3-3v-3h3c1.1045695 0 2 .8954305 2 2v6.561c-7.5 1.691-13 7.07-13 13.439s5.5 11.748 13 13.439v6.561c0 1.1045695-.8954305 2-2 2h-3v-3c0-1.6568542-1.3431458-3-3-3h-14c-1.65685425 0-3 1.3431458-3 3v8c0 1.6568542 1.34314575 3 3 3h14c1.6568542 0 3-1.3431458 3-3v-3h3c2.209139 0 4-1.790861 4-4v-6.211c1.9901069.2813269 4.0098931.2813269 6 0v6.211c0 2.209139 1.790861 4 4 4h3v3c0 1.6568542 1.3431458 3 3 3h14c1.6568542 0 3-1.3431458 3-3v-8c0-1.6568542-1.3431458-3-3-3h-14c-1.6568542 0-3 1.3431458-3 3v3h-3c-1.1045695 0-2-.8954305-2-2v-6.561c7.5-1.691 13-7.07 13-13.439s-5.5-11.748-13-13.439v-6.561c0-1.1045695.8954305-2 2-2h3v3c0 1.6568542 1.3431458 3 3 3h14c1.6568542 0 3-1.3431458 3-3v-8c0-1.65685425-1.3431458-3-3-3zm-39 11c0 .5522847-.4477153 1-1 1h-14c-.55228475 0-1-.4477153-1-1v-8c0-.55228475.44771525-1 1-1h14c.5522847 0 1 .44771525 1 1zm0 46c0 .5522847-.4477153 1-1 1h-14c-.55228475 0-1-.4477153-1-1v-8c0-.5522847.44771525-1 1-1h14c.5522847 0 1 .4477153 1 1zm24-8c0-.5522847.4477153-1 1-1h14c.5522847 0 1 .4477153 1 1v8c0 .5522847-.4477153 1-1 1h-14c-.5522847 0-1-.4477153-1-1zm-7-7.608v-1.392c0-.5522847-.4477153-1-1-1s-1 .4477153-1 1v1.781c-1.9893415.2920064-4.0106585.2920064-6 0v-1.781c0-.5522847-.4477153-1-1-1s-1 .4477153-1 1v1.392c-5.436-1.346-9.59-4.817-10.7-9.1 1.6988702 1.0998956 3.6762196 1.6924066 5.7 1.708 3.7392331-.0902861 7.3853146-1.1848704 10.556-3.169 2.8466184-1.7525117 6.1027359-2.7285885 9.444-2.831 2.2218698.0373387 4.3504722.8995438 5.972 2.419-.238 5.123-4.763 9.435-10.972 10.973zm10.7-13.684c-1.6988702-1.0998956-3.6762196-1.6924066-5.7-1.708-3.7392331.0902861-7.3853146 1.1848704-10.556 3.169-2.8466184 1.7525117-6.1027359 2.7285885-9.444 2.831-2.2218698-.0373387-4.3504722-.8995438-5.972-2.419.238-5.123 4.763-9.435 10.972-10.973v1.392c0 .5522847.4477153 1 1 1s1-.4477153 1-1v-1.781c1.9893415-.2920064 4.0106585-.2920064 6 0v1.781c0 .5522847.4477153 1 1 1s1-.4477153 1-1v-1.392c5.436 1.346 9.59 4.817 10.7 9.1zm12.3-16.708c0 .5522847-.4477153 1-1 1h-14c-.5522847 0-1-.4477153-1-1v-8c0-.55228475.4477153-1 1-1h14c.5522847 0 1 .44771525 1 1z" fill="#000"/><g fill="#f5f5f5"><path id="Shape" d="m14 6h-8c-.55228475 0-1-.44771525-1-1s.44771525-1 1-1h8c.5522847 0 1 .44771525 1 1s-.4477153 1-1 1z"/><path id="Shape" d="m10 10h-4c-.55228475 0-1-.44771525-1-1s.44771525-1 1-1h4c.5522847 0 1 .44771525 1 1s-.4477153 1-1 1z"/><path id="Shape" d="m54 6h-8c-.5522847 0-1-.44771525-1-1s.4477153-1 1-1h8c.5522847 0 1 .44771525 1 1s-.4477153 1-1 1z"/><path id="Shape" d="m50 10h-4c-.5522847 0-1-.44771525-1-1s.4477153-1 1-1h4c.5522847 0 1 .44771525 1 1s-.4477153 1-1 1z"/><path id="Shape" d="m14 52h-8c-.55228475 0-1-.4477153-1-1s.44771525-1 1-1h8c.5522847 0 1 .4477153 1 1s-.4477153 1-1 1z"/><path id="Shape" d="m10 56h-4c-.55228475 0-1-.4477153-1-1s.44771525-1 1-1h4c.5522847 0 1 .4477153 1 1s-.4477153 1-1 1z"/><path id="Shape" d="m54 52h-8c-.5522847 0-1-.4477153-1-1s.4477153-1 1-1h8c.5522847 0 1 .4477153 1 1s-.4477153 1-1 1z"/><path id="Shape" d="m50 56h-4c-.5522847 0-1-.4477153-1-1s.4477153-1 1-1h4c.5522847 0 1 .4477153 1 1s-.4477153 1-1 1z"/></g></g></g></svg>