<svg height="60" viewBox="0 0 48 60" width="48" xmlns="http://www.w3.org/2000/svg"><g id="Page-1" fill="none" fill-rule="evenodd"><g id="059---Seed-Bag" fill-rule="nonzero"><path id="Shape" d="m42.7 2.72c-2.4727084 2.44471112-3.8229582 5.80404574-3.73 9.28.1 0 .03-.478.03 12h-2c-.5522847 0-1 .4477153-1 1v12c0 .5522847.4477153 1 1 1v4h-4c-1.1032019.0032948-1.9967052.8967981-2 2v5h-28.99c-.40781136.0005318-.77559699-.245191-.93120184-.6221492-.15560486-.3769583-.06823942-.8105632.22120184-1.0978508 2.47270839-2.4447111 3.82295819-5.8040457 3.73-9.28-.1 0-.03 1.12-.03-26h.03c.09295819-3.47595426-1.25729161-6.83528888-3.73-9.28-.28944126-.28728756-.3768067-.72089252-.22120184-1.09785076.15560485-.37695824.52339048-.62268107.93120184-.62214924h39.98c.4078114-.00053183.775597.245191.9312018.62214924.1556049.37695824.0682395.8105632-.2212018 1.09785076z" fill="#ffdc00"/><path id="Shape" d="m28 44v5h3v-5c.0032948-1.1032019.8967981-1.9967052 2-2h-3c-1.1032019.0032948-1.9967052.8967981-2 2z" fill="#fec108"/><path id="Shape" d="m41.99 1h-3c.4078114-.00053183.775597.245191.9312018.62214924.1556049.37695824.0682395.8105632-.2212018 1.09785076-2.4727084 2.44471112-3.8229582 5.80404574-3.73 9.28.1 0 .03-.478.03 12h-2c-.5522847 0-1 .4477153-1 1v12c0 .5522847.4477153 1 1 1v4h3v-4c-.5522847 0-1-.4477153-1-1v-12c0-.5522847.4477153-1 1-1h2c0-12.528.07-12-.03-12-.0929582-3.47595426 1.2572916-6.83528888 3.73-9.28.2894413-.28728756.3768067-.72089252.2212018-1.09785076-.1556048-.37695824-.5233904-.62268107-.9312018-.62214924z" fill="#fec108"/><path id="Shape" d="m25 33.118c0 2.209139-1.790861 4-4 4s-4-1.790861-4-4c0-2.07 2.021-5.121 3.19-6.712.1908489-.2555181.4910755-.4060033.81-.4060033s.6191511.1504852.81.4060033c1.169 1.594 3.19 4.642 3.19 6.712z" fill="#ff9801"/><path id="Shape" d="m18.159 17.23c1.5621374 1.5626897 1.5616896 4.0958626-.001 5.658-1.5626897 1.5621374-4.0958626 1.5616897-5.658-.001-1.463-1.464-2.192-5.05-2.49-7-.04542095-.3155111.0604677-.6339821.2857693-.8594805s.54368-.331665.8592307-.2865195c1.954.297 5.545 1.025 7.004 2.489z" fill="#ff9801"/><path id="Shape" d="m25.841 17.23c-1.5621374 1.5626897-1.5616896 4.0958626.001 5.658 1.5626897 1.5621374 4.0958626 1.5616897 5.658-.001 1.463-1.464 2.192-5.05 2.49-7 .045421-.3155111-.0604677-.6339821-.2857693-.8594805s-.54368-.331665-.8592307-.2865195c-1.954.297-5.54 1.025-7.004 2.489z" fill="#ff9801"/><rect id="Rectangle-path" fill="#02a9f4" height="14" rx="1" width="6" x="36" y="24"/><path id="Shape" d="m41 24h-3c.5522847 0 1 .4477153 1 1v12c0 .5522847-.4477153 1-1 1h3c.5522847 0 1-.4477153 1-1v-12c0-.5522847-.4477153-1-1-1z" fill="#0377bc"/><path id="Shape" d="m41 38v12c0 1.1045695-.8954305 2-2 2s-2-.8954305-2-2v-12z" fill="#cfd8dc"/><path id="Shape" d="m47 44v5.19c-.0006822 3.1024026-1.5991698 5.9857267-4.23 7.63l-3.24 2.03c-.3250095.2000774-.7349905.2000774-1.06 0l-3.24-2.03c-2.6308302-1.6442733-4.2293178-4.5275974-4.23-7.63v-5.19c.0032948-1.1032019.8967981-1.9967052 2-2h4v8c0 1.1045695.8954305 2 2 2s2-.8954305 2-2v-8h4c1.1032019.0032948 1.9967052.8967981 2 2z" fill="#7f8e94"/><path id="Shape" d="m45 42h-3c1.1032019.0032948 1.9967052.8967981 2 2v5.19c-.0006822 3.1024026-1.5991698 5.9857267-4.23 7.63l-2.27 1.422.97.608c.3250095.2000774.7349905.2000774 1.06 0l3.24-2.03c2.6308302-1.6442733 4.2293178-4.5275974 4.23-7.63v-5.19c-.0032948-1.1032019-.8967981-1.9967052-2-2z" fill="#545c60"/><g fill="#000"><path id="Shape" d="m2.011 50h28.04c.2389671 3.1516615 1.9656543 6.0007511 4.649 7.671l3.238 2.029c.6500151.4039708 1.4729849.4039708 2.123 0l3.239-2.029c2.9321744-1.8194445 4.711176-5.0292175 4.7-8.48v-5.191c0-1.6568542-1.3431458-3-3-3h-3v-2.278c.6167513-.3544126.997855-1.0106732 1-1.722v-12c0-1.1045695-.8954305-2-2-2h-1c0-11.766 0-10.591 0-11.228-.0419768-3.12526442 1.1847731-6.13404886 3.4-8.339.5788849-.5719318.7548917-1.43691778.4455361-2.18958823-.3093557-.75267045-1.0427711-1.24387411-1.8565361-1.24341177h-39.978c-.81509758-.00170121-1.5501858.48997785-1.85981718 1.24397743-.30963138.75399959-.13223748 1.62039118.44881718 2.19202257 2.22210032 2.19903348 3.45786425 5.20491651 3.425 8.331v26.461c.03480772 3.1288052-1.20108875 6.1378974-3.425 8.339-.57888492.5719318-.75489173 1.4369178-.44553607 2.1895882.30935567.7526705 1.04277104 1.2438741 1.85653607 1.2434118zm42.989-7c.5522847 0 1 .4477153 1 1v5.191c.0091905 2.7612097-1.4144868 5.3295827-3.761 6.785l-3.239 2.024-3.239-2.024c-2.3465132-1.4554173-3.7701905-4.0237903-3.761-6.785v-5.191c0-.5522847.4477153-1 1-1h3v7c0 1.6568542 1.3431458 3 3 3s3-1.3431458 3-3v-7zm-5 7c0 .5522847-.4477153 1-1 1s-1-.4477153-1-1v-11h2zm1-13h-4v-12h4zm-34.97 1v-26c.09270557-3.74421834-1.36099623-7.36129175-4.019-10h39.989c-2.657831 2.63742455-4.1057227 6.25715397-4 10v11h-1c-1.1045695 0-2 .8954305-2 2v12c.002145.7113268.3832487 1.3675874 1 1.722v2.278h-3c-1.6568542 0-3 1.3431458-3 3v4h-28c2.66842595-2.6325968 4.12736375-6.2527899 4.03-10z"/><path id="Shape" d="m21 9h2c.5522847 0 1-.44771525 1-1s-.4477153-1-1-1h-2c-.5522847 0-1 .44771525-1 1s.4477153 1 1 1z"/><path id="Shape" d="m15 9h2c.5522847 0 1-.44771525 1-1s-.4477153-1-1-1h-2c-.5522847 0-1 .44771525-1 1s.4477153 1 1 1z"/><path id="Shape" d="m9 9h2c.5522847 0 1-.44771525 1-1s-.4477153-1-1-1h-2c-.55228475 0-1 .44771525-1 1s.44771525 1 1 1z"/><path id="Shape" d="m33 9h2c.5522847 0 1-.44771525 1-1s-.4477153-1-1-1h-2c-.5522847 0-1 .44771525-1 1s.4477153 1 1 1z"/><path id="Shape" d="m27 9h2c.5522847 0 1-.44771525 1-1s-.4477153-1-1-1h-2c-.5522847 0-1 .44771525-1 1s.4477153 1 1 1z"/><path id="Shape" d="m23 41h-2c-.5522847 0-1 .4477153-1 1s.4477153 1 1 1h2c.5522847 0 1-.4477153 1-1s-.4477153-1-1-1z"/><path id="Shape" d="m28 41h-1c-.5522847 0-1 .4477153-1 1s.4477153 1 1 1h1c.5522847 0 1-.4477153 1-1s-.4477153-1-1-1z"/><path id="Shape" d="m17 41h-2c-.5522847 0-1 .4477153-1 1s.4477153 1 1 1h2c.5522847 0 1-.4477153 1-1s-.4477153-1-1-1z"/><path id="Shape" d="m11 41h-2c-.55228475 0-1 .4477153-1 1s.44771525 1 1 1h2c.5522847 0 1-.4477153 1-1s-.4477153-1-1-1z"/><path id="Shape" d="m22.616 25.813c-.3797674-.5112935-.9790979-.812703-1.616-.812703s-1.2362326.3014095-1.616.812703c-1.544 2.102-3.384 5.076-3.384 7.304 0 2.7614237 2.2385763 5 5 5s5-2.2385763 5-5c0-2.228-1.84-5.202-3.384-7.304zm-1.616 10.187c-1.6234768.0295792-2.9650065-1.2596309-3-2.883 0-1.278 1.12-3.565 3-6.12 1.875 2.555 3 4.842 3 6.12-.0349935 1.6233691-1.3765232 2.9125792-3 2.883z"/><path id="Shape" d="m20 32v1c0 .5522847.4477153 1 1 1s1-.4477153 1-1v-1c0-.5522847-.4477153-1-1-1s-1 .4477153-1 1z"/><path id="Shape" d="m9.591 14.318c-.45054945.4505059-.66122134 1.0877142-.568 1.718.395 2.577 1.2 5.981 2.772 7.558.9064409.9054318 2.1368244 1.4115521 3.418 1.406 1.3403231-.0015561 2.6248904-.5366125 3.57-1.487 1.948122-1.9090737 1.9852354-5.0342002.083-6.989-1.577-1.576-4.98-2.376-7.557-2.771-.6301139-.0977941-1.2689296.1122937-1.718.565zm7.778 7.782c-1.1265142 1.1701138-2.9877088 1.2072482-4.16.083-.9-.905-1.73-3.315-2.2-6.452 3.132.479 5.542 1.305 6.446 2.209 1.1217809 1.1737564 1.083332 3.033608-.086 4.16z"/><path id="Shape" d="m14.54 20.683c.3923789.3789722 1.0160848.3735524 1.4018186-.0121814s.3911536-1.0094397.0121814-1.4018186l-.707-.707c-.2510745-.2599566-.6228779-.3642126-.9725073-.2726972-.3496295.0915155-.6226744.3645604-.7141899.7141899-.0915154.3496294.0127406.7214328.2726972.9725073z"/><path id="Shape" d="m25.217 23.511c.9447808.9511213 2.2293889 1.4869145 3.57 1.489 1.2801832.0064784 2.5101998-.4973318 3.418-1.4 1.576-1.577 2.377-4.981 2.772-7.558.0932213-.6302858-.1174506-1.2674941-.568-1.718-.448866-.4531472-1.0875839-.6639464-1.718-.567-2.577.4-5.98 1.2-7.557 2.771-1.8982417 1.9540755-1.8611511 5.0745953.083 6.983zm1.331-5.574c.9-.9 3.314-1.73 6.452-2.2-.479 3.132-1.306 5.542-2.209 6.447-1.1716721 1.171672-3.0713279 1.171672-4.2429999-.0000001-1.1716721-1.171672-1.1716721-3.0713278-.0000001-4.2429999z"/><path id="Shape" d="m28.753 20.976c.2651948-.0000566.5195073-.1054506.707-.293l.707-.707c.2599566-.2510745.3642126-.6228779.2726972-.9725073-.0915155-.3496295-.3645604-.6226744-.7141899-.7141899-.3496294-.0915154-.7214328.0127406-.9725073.2726972l-.707.707c-.2859079.2859943-.3714219.7160366-.216678 1.0896546.1547439.3736179.5192821.6172591.923678.6173454z"/></g></g></g></svg>