<svg height="512" viewBox="0 0 60 60" width="512" xmlns="http://www.w3.org/2000/svg"><g id="Page-1" fill="none" fill-rule="evenodd"><g id="061---Tractor-Rake"><g fill-rule="nonzero"><path id="Shape" d="m59 49v1c0 .5522847-.4477153 1-1 1h-56c-.55228475 0-1-.4477153-1-1v-1c0-2.209139 1.790861-4 4-4h50c2.209139 0 4 1.790861 4 4z" fill="#9e9e9e"/><path id="Shape" d="m55 45h-3c2.209139 0 4 1.790861 4 4v1c0 .5522847-.4477153 1-1 1h3c.5522847 0 1-.4477153 1-1v-1c0-2.209139-1.790861-4-4-4z" fill="#707070"/><path id="Shape" d="m46 33-12.67 4.53c-.7988804.278925-1.3329369 1.0338319-1.33 1.88v5.59h-4v-5.59c.0029369-.8461681-.5311196-1.601075-1.33-1.88l-12.67-4.53z" fill="#37474f"/><path id="Rectangle-path" d="m14 27h32v6h-32z" fill="#9e9e9e"/><path id="Rectangle-path" d="m43 27h3v6h-3z" fill="#707070"/><path id="Shape" d="m46 23.32.0000002 3.68h-32.0000004l.0000002-3.68c-.0003168-.8399778.3515331-1.641615.97-2.21l10.06-9.22c.6184669-.568385.9703168-1.3700222.97-2.21v-8.68h8v8.68c-.0003168.8399778.3515331 1.641615.97 2.21l10.06 9.22c.6184669.568385.9703168 1.3700222.97 2.21z" fill="#008a00"/><path id="Shape" d="m45.03 21.11-10.06-9.22c-.6184669-.568385-.9703168-1.3700222-.97-2.21v-8.68h-3.0000002l.0000002 8.68c-.0003168.8399778.3515331 1.641615.97 2.21l10.06 9.22c.6184669.568385.9703168 1.3700222.97 2.21v3.68h3.0000002l-.0000002-3.68c.0003168-.8399778-.3515331-1.641615-.97-2.21z" fill="#007900"/></g><path id="Shape" d="m30 7v20" stroke="#000" stroke-linecap="round" stroke-linejoin="round" stroke-width="2"/><path id="Shape" d="m55 44h-22v-4.591c.0003642-.4224284.2661305-.7990642.664-.941.1-.036 12.8-4.58 12.7-4.541.3644216-.1560949.6097124-.5042996.634-.9.002-.227.002-2.127.002-2.027h3c.5522847 0 1-.4477153 1-1s-.4477153-1-1-1h-3v-5.681c-.0023922-1.121143-.473795-2.1901395-1.3-2.948l-10.052-9.217c-.4127188-.3786094-.647775-.9129269-.648-1.473v-.681h2c.5522847 0 1-.44771525 1-1s-.4477153-1-1-1h-2v-3h2c.5522847 0 1-.44771525 1-1s-.4477153-1-1-1h-2v-1c0-.55228475-.4477153-1-1-1s-1 .44771525-1 1v1h-6v-1c0-.55228475-.4477153-1-1-1s-1 .44771525-1 1v1h-2c-.5522847 0-1 .44771525-1 1s.4477153 1 1 1h2v3h-2c-.5522847 0-1 .44771525-1 1s.4477153 1 1 1h2v.681c-.000225.5600731-.2352812 1.0943906-.648 1.473l-10.052 9.217c-.826205.7578605-1.2976078 1.826857-1.3 2.948v5.681h-3c-.55228475 0-1 .4477153-1 1s.44771525 1 1 1h3c0 .207 0-.751.006 2.027.0156537.3986769.2638689.7510328.634.9.121.047 12.6 4.513 12.7 4.541.3978695.1419358.6636358.5185716.664.941v4.591h-22.004c-2.76005315.0033061-4.99669388 2.2399468-5 5v1c.002145.7113268.38324874 1.3675874 1 1.722v7.278c.00000001.5522847.44771526 1 1 1s.99999999-.4477153 1-1v-7h2v7c0 .5522847.44771525 1 1 1s1-.4477153 1-1v-7h2v7c0 .5522847.44771525 1 1 1 .5522847 0 1-.4477153 1-1v-7h2v7c0 .5522847.4477153 1 1 1s1-.4477153 1-1v-7h2v7c0 .5522847.4477153 1 1 1s1-.4477153 1-1v-7h2v7c0 .5522847.4477153 1 1 1s1-.4477153 1-1v-7h2v7c0 .5522847.4477153 1 1 1s1-.4477153 1-1v-7h2v7c0 .5522847.4477153 1 1 1s1-.4477153 1-1v-7h2v7c0 .5522847.4477153 1 1 1s1-.4477153 1-1v-7h2v7c0 .5522847.4477153 1 1 1s1-.4477153 1-1v-7h2v7c0 .5522847.4477153 1 1 1s1-.4477153 1-1v-7h2v7c0 .5522847.4477153 1 1 1s1-.4477153 1-1v-7h2v7c0 .5522847.4477153 1 1 1s1-.4477153 1-1v-7h2v7c0 .5522847.4477153 1 1 1s1-.4477153 1-1v-7h2v7c0 .5522847.4477153 1 1 1s1-.4477153 1-1v-7.278c.6167513-.3544126.997855-1.0106732 1-1.722v-1c-.0033061-2.7600532-2.2399468-4.9966939-5-5zm-40-16h30v4h-30zm19.3-15.371 10.055 9.217c.4116097.3791388.6455466.9133854.645 1.473l.000001 2.681h-14.000001v-17h2v.681c.0023922 1.121143.473795 2.1901395 1.3 2.948zm-7.3-8.629h6v3h-2c0-.55228475-.4477153-1-1-1s-1 .44771525-1 1h-2zm-11.352 17.846 10.052-9.217c.826205-.7578605 1.2976078-1.826857 1.3-2.948v-.681h2v17h-14v-2.681c.000225-.5600731.2352812-1.0943906.648-1.473zm11.361 14.739-7.237-2.585h20.456l-7.237 2.585c-1.1935592.4262666-1.9904807 1.5566064-1.991 2.824v4.591h-2v-4.591c-.0005193-1.2673936-.7974408-2.3977334-1.991-2.824zm-25.009 12.415c0-1.6568542 1.34314575-3 3-3h50c1.6568542 0 3 1.3431458 3 3v1h-56z" fill="#000" fill-rule="nonzero"/></g></g></svg>