<svg height="512" viewBox="0 0 60 60" width="512" xmlns="http://www.w3.org/2000/svg"><g id="Page-1" fill="none" fill-rule="evenodd"><g id="062---Tractor-Simulator" fill-rule="nonzero" transform="translate(-1)"><path id="Shape" d="m60 43v3.82c.0452102 1.152631-.8477494 2.1259569-2 2.18h-54c-1.15225064-.0540431-2.04521019-1.027369-2-2.18v-3.82z" fill="#7f8e94"/><path id="Shape" d="m57 43v3.82c.0452102 1.152631-.8477494 2.1259569-2 2.18h3c1.1522506-.0540431 2.0452102-1.027369 2-2.18v-3.82z" fill="#545c60"/><path id="Shape" d="m60 3.18v39.82h-58v-39.82c-.04521019-1.152631.84774936-2.12595691 2-2.18h54c1.1522506.05404309 2.0452102 1.027369 2 2.18z" fill="#02a9f4"/><path id="Shape" d="m58 1h-3c1.1522506.05404309 2.0452102 1.027369 2 2.18v39.82h3v-39.82c.0452102-1.152631-.8477494-2.12595691-2-2.18z" fill="#0377bc"/><path id="Shape" d="m39 49 3 6h-11-11l3-6" fill="#37474f"/><rect id="Rectangle-path" fill="#7f8e94" height="4" rx="2" width="34" x="14" y="55"/><path id="Shape" d="m46 55h-3c1.1045695 0 2 .8954305 2 2s-.8954305 2-2 2h3c1.1045695 0 2-.8954305 2-2s-.8954305-2-2-2z" fill="#545c60"/><path id="Shape" d="m16 23c-1.5799187-.0050028-3.137583.3724048-4.54 1.1-4.27195987 2.1761724-6.39835824 7.078037-5.06854377 11.6842243 1.32981447 4.6061872 5.74161637 7.6204618 10.51609667 7.1849108 4.7744804-.4355511 8.5680443-4.1983585 9.0424471-8.9691351.03-.33.05-.66.05-1 0-2.6521649-1.0535684-5.195704-2.9289322-7.0710678s-4.4189029-2.9289322-7.0710678-2.9289322zm0 16c-3.3137085 0-6-2.6862915-6-6s2.6862915-6 6-6 6 2.6862915 6 6-2.6862915 6-6 6z" fill="#37474f"/><path id="Shape" d="m30 33 .000007 1h-4.050007c.03-.33.05-.66.05-1 0-5.5228475-4.4771525-10-10-10-1.5799187-.0050028-3.137583.3724048-4.54 1.1l-2.07-3.44c1.8140007-.9762688 3.8225784-1.5364844 5.88-1.64.24-.01.48-.02.73-.02 3.7141699-.0037198 7.2772864 1.4700815 9.9036025 4.0963975 2.626316 2.6263161 4.1001173 6.1894326 4.0963975 9.9036025z" fill="#607d8b"/><path id="Shape" d="m9.39 20.66c-.72071513.3866835-1.40660821.8350233-2.05 1.34" fill="#008a00"/><path id="Shape" d="m55 31.14c-.884293-1.6113283-2.2969651-2.8686065-4-3.56-1.925252-.7732941-4.074748-.7732941-6 0-3.7290441 1.5084731-5.7580545 5.5513319-4.7390685 9.4427235 1.0189861 3.8913916 4.7690309 6.4209673 8.7588114 5.9082164 3.9897804-.512751 6.9783454-3.9083465 6.9802571-7.9309399.0037306-1.3511994-.3406681-2.6805784-1-3.86zm-7 7.86c-2.209139 0-4-1.790861-4-4s1.790861-4 4-4 4 1.790861 4 4-1.790861 4-4 4z" fill="#37474f"/><circle id="Oval" cx="48" cy="35" fill="#ffdc00" r="4"/><path id="Shape" d="m48 31c-.5146869.0021442-1.0240797.1040228-1.5.3 1.5106493.6093694 2.4998715 2.0750763 2.4998715 3.704s-.9892222 3.0946306-2.4998715 3.704c1.4960688.6053048 3.209337.2522552 4.3442174-.8952038 1.1348805-1.147459 1.4690246-2.8645145.8472667-4.3538207-.621758-1.4893061-2.0776019-2.4590745-3.6914841-2.4589755z" fill="#fec108"/><path id="Shape" d="m16 27c-3.3137085 0-6 2.6862915-6 6s2.6862915 6 6 6 6-2.6862915 6-6-2.6862915-6-6-6zm0 8c-1.1045695 0-2-.8954305-2-2s.8954305-2 2-2 2 .8954305 2 2c-.0032948 1.1032019-.8967981 1.9967052-2 2z" fill="#ffdc00"/><path id="Shape" d="m16 27c-.5064496.0029108-1.0104803.0701149-1.5.2 2.6479943.6813094 4.498931 3.0687622 4.498931 5.803s-1.8509367 5.1216906-4.498931 5.803c2.2531797.5872914 4.6426897-.1820582 6.1299399-1.9736543 1.4872502-1.7915962 1.8036517-4.2818866.8116819-6.3884777s-3.1131667-3.4490442-5.4416218-3.443868z" fill="#fec108"/><circle id="Oval" cx="16" cy="33" fill="#cfd8dc" r="2"/><path id="Shape" d="m35 35v3c0 .5522847-.4477153 1-1 1h-3c-.5522847 0-1-.4477153-1-1v-3z" fill="#7f8e94"/><path id="Shape" d="m36 9v18c-.0032948 1.1032019-.8967981 1.9967052-2 2h-4.58c-.6521473-2.1794186-1.8260781-4.1668628-3.42-5.79v-14.21z" fill="#00bcd4"/><path id="Shape" d="m33 9v18c-.0032948 1.1032019-.8967981 1.9967052-2 2h3c1.1032019-.0032948 1.9967052-.8967981 2-2v-18z" fill="#00838f"/><path id="Shape" d="m26 9v14.21c-2.6274142-2.6970811-6.2346954-4.2157464-10-4.21-.25 0-.49.01-.73.02l2.73-10.02z" fill="#00bcd4"/><path id="Shape" d="m39 7c-.0032948 1.10320187-.8967981 1.9967052-2 2h-20c-1.1011688-.00816722-1.9918328-.89883122-2-2 .0032948-1.10320187.8967981-1.9967052 2-2h20c1.1011688.00816722 1.9918328.89883122 2 2z" fill="#008a00"/><path id="Shape" d="m38.41 5.59c-.3704612-.3798589-.8794095-.59282307-1.41-.59l-3-.00002771c1.1011688.00819493 1.9918328.89885893 2 2.00002771-.0032948 1.10320187-.8967981 1.9967052-2 2h3c1.1032019-.0032948 1.9967052-.89679813 2-2 .0028231-.53059053-.2101411-1.0395388-.59-1.41z" fill="#007900"/><path id="Shape" d="m55 23v8.14c-.884293-1.6113283-2.2969651-2.8686065-4-3.56v-4.58z" fill="#008a00"/><path id="Shape" d="m55 22v1h-10v4.58c-3.0218369 1.2247625-4.9993525 4.1593956-5 7.42h-10v-2c.0023301-1.3544523-.1930631-2.7019914-.58-4h4.58c1.1032019-.0032948 1.9967052-.8967981 2-2v-8h16c1.6568542 0 3 1.3431458 3 3z" fill="#008a00"/><path id="Shape" d="m42 27.58c-3.0218369 1.2247625-4.9993525 4.1593956-5 7.42h3c.0006475-3.2606044 1.9781631-6.1952375 5-7.42v-4.58c-1.6568542 0-3 1.3431458-3 3z" fill="#007900"/><path id="Shape" d="m52 19h-3c1.6568542 0 3 1.3431458 3 3v1h3v-1c0-1.6568542-1.3431458-3-3-3z" fill="#007900"/><path id="Shape" d="m51 23v4.58c-1.925252-.7732941-4.074748-.7732941-6 0v-4.58z" fill="#008a00"/><path id="Shape" d="m30 16c.1547895-.0000102.3074634-.0359537.446-.105l2-1c.4942948-.2468713.6948713-.8477051.448-1.342-.2468713-.4942948-.8477052-.6948713-1.342-.448l-2 1c-.415621.2071424-.6339515.6731489-.5271118 1.1250715.1068398.4519227.5107327.7708283.9751118.7699285z" fill="#f5f5f5"/><path id="Shape" d="m20 17c.2651948-.0000566.5195073-.1054506.707-.293l2-2c.3789722-.3923789.3735524-1.0160848-.0121814-1.4018186s-1.0094397-.3911536-1.4018186-.0121814l-2 2c-.2859079.2859943-.3714219.7160366-.216678 1.0896546.1547439.3736179.5192821.6172591.923678.6173454z" fill="#f5f5f5"/><path id="Shape" d="m31.553 18.105-2 1c-.4942948.2468713-.6948713.8477051-.448 1.342.2468713.4942948.8477052.6948713 1.342.448l2-1c.4942948-.2468713.6948713-.8477051.448-1.342-.2468713-.4942948-.8477052-.6948713-1.342-.448z" fill="#f5f5f5"/><g fill="#000"><path id="Shape" d="m58 0h-54c-1.70524172.05441563-3.04599736 1.47651044-3 3.182v43.636c-.04599736 1.7054896 1.29475828 3.1275844 3 3.182h17.382l-2 4h-3.382c-1.6568542 0-3 1.3431458-3 3s1.3431458 3 3 3h30c1.6568542 0 3-1.3431458 3-3s-1.3431458-3-3-3h-3.382l-2-4h17.382c1.7052417-.0544156 3.0459974-1.4765104 3-3.182v-43.636c.0459974-1.70548956-1.2947583-3.12758437-3-3.182zm-54 2h54c.5966179.06161524 1.038076.58341866 1 1.182v38.818h-5.356c3.3270498-2.6677067 4.3125641-7.3108343 2.356-11.1v-8.9c0-2.209139-1.790861-4-4-4h-15v-8c1.6568542-.00000002 3-1.34314577 3-3s-1.3431458-2.99999998-3-3h-20c-1.5983551-.00593539-2.9191213 1.24546522-2.99934 2.84181709-.0802187 1.59635186 1.1084418 2.97385431 2.69934 3.12818291l-2.21 8.112c-2.8378721.2734464-5.53618775 1.3614545-7.77 3.133-.43354353.3421404-.5076404.9709565-.1655 1.4045s.97095647.5076404 1.4045.1655c.35-.276.714-.525 1.084-.762l1.036 1.721c-3.09371688 1.9716538-4.99759374 5.3588089-5.07373822 9.0266018-.07614447 3.6677929 1.68551589 7.1310456 4.69473822 9.2293982h-6.7v-38.818c-.03807599-.59858134.40338206-1.12038476 1-1.182zm37 33c0-3.8659932 3.1340068-7 7-7s7 3.1340068 7 7-3.1340068 7-7 7c-3.8641657-.0044086-6.9955914-3.1358343-7-7zm-10-1v-1c.0006089-1.0075178-.0998947-2.0125536-.3-3h3.3c1.6568542 0 3-1.3431458 3-3v-7h15c1.1045695 0 2 .8954305 2 2h-10c-.5522847 0-1 .4477153-1 1s.4477153 1 1 1v2.95c-2.735926 1.3601033-4.5960416 4.0141845-4.941 7.05zm-15-10c4.9705627 0 9 4.0294373 9 9s-4.0294373 9-9 9-9-4.0294373-9-9c.00551113-4.9682782 4.0317218-8.9944889 9-9zm0-2c-1.4216264.0004302-2.8295408.2779371-4.145.817l-1.047-1.741c4.0199402-1.7450688 8.6482976-1.3492087 12.31351 1.0531656s5.8747979 6.4884639 5.87849 10.8708344h-2c-.0071635-6.0721626-4.9278374-10.9928365-11-11zm19 5c0 .5522847-.4477153 1-1 1h-3.875c-.6809997-1.9152976-1.7441878-3.6721947-3.125-5.164v-12.836h8zm1-19h-19c-.5522847 0-1-.44771525-1-1s.4477153-1 1-1h20c.5522847 0 1 .44771525 1 1s-.4477153 1-1 1zm-17.236 2h6.236v11.028c-2.4346184-1.8388996-5.3750758-2.886071-8.424-3zm12.236 26h3v2h-3zm19-12v2.232c-1.3153933-.309322-2.6846067-.309322-4 0v-2.232zm2 0h2v4.311c-.6022733-.5417411-1.275035-.9995554-2-1.361zm-5 33c0 .5522847-.4477153 1-1 1h-30c-.5522847 0-1-.4477153-1-1s.4477153-1 1-1h30c.5522847 0 1 .4477153 1 1zm-6.618-3h-18.764l2-4h14.764zm17.618-6h-54c-.59661794-.0616152-1.03807599-.5834187-1-1.182v-2.818h22c.5522847 0 1-.4477153 1-1s-.4477153-1-1-1h-2.695c2.3577577-1.6550096 3.973212-4.1679385 4.5-7h2.195v3c0 1.1045695.8954305 2 2 2h3c1.1045695 0 2-.8954305 2-2v-2h3.059c.2656201 2.3569556 1.4517227 4.5135058 3.3 6h-13.359c-.5522847 0-1 .4477153-1 1s.4477153 1 1 1h30v2.818c.038076.5985813-.4033821 1.1203848-1 1.182z"/><path id="Shape" d="m48 30c-2.7614237 0-5 2.2385763-5 5s2.2385763 5 5 5 5-2.2385763 5-5c-.0033061-2.7600532-2.2399468-4.9966939-5-5zm0 8c-1.2133867 0-2.3072956-.7309265-2.7716386-1.8519497s-.2076757-2.4113767.6503183-3.2693706c.8579939-.857994 2.1483474-1.1146613 3.2693706-.6503183s1.8519497 1.5582519 1.8519497 2.7716386c0 1.6568542-1.3431458 3-3 3z"/><circle id="Oval" cx="48" cy="35" r="1"/><path id="Shape" d="m16 40c2.8312357 0 5.3836897-1.7054952 6.4671567-4.321216 1.083467-2.6157207.4845767-5.6265455-1.5174092-7.6285315-2.001986-2.0019859-5.0128108-2.6008762-7.6285315-1.5174092-2.6157208 1.083467-4.321216 3.635921-4.321216 6.4671567.00440864 3.8641657 3.1358343 6.9955914 7 7zm0-12c2.7614237 0 5 2.2385763 5 5s-2.2385763 5-5 5-5-2.2385763-5-5c.0033061-2.7600532 2.2399468-4.9966939 5-5z"/><path id="Shape" d="m16 36c1.6568542 0 3-1.3431458 3-3s-1.3431458-3-3-3-3 1.3431458-3 3 1.3431458 3 3 3zm0-4c.5522847 0 1 .4477153 1 1s-.4477153 1-1 1-1-.4477153-1-1 .4477153-1 1-1z"/><circle id="Oval" cx="40" cy="23" r="1"/></g></g></g></svg>