<svg height="512" viewBox="0 0 60 60" width="512" xmlns="http://www.w3.org/2000/svg"><g id="Page-1" fill="none" fill-rule="evenodd"><g id="063---Hay-Baler"><g fill-rule="nonzero"><path id="Shape" d="m7 56c.00212561.3415766-.05889936.6806042-.18 1-.49528144 1.3649694-1.89703204 2.1792883-3.32810973 1.9333986-1.43107769-.2458896-2.48062502-1.4813937-2.49189027-2.9333986-.00611673-1.2713341.79816403-2.40537 2-2.82.31939584-.1211006.65842344-.1821256 1-.18 1.65685425 0 3 1.3431458 3 3z" fill="#607d8b"/><path id="Shape" d="m29 51c0 4.418278-3.581722 8-8 8s-8-3.581722-8-8c.0010895-1.0277565.1979305-2.0458997.58-3 .6674526-1.6536453 1.8721443-3.0344615 3.42-3.92 1.2125742-.7116748 2.5940145-1.0846637 4-1.08 2.1217319 0 4.1565632.8428547 5.6568542 2.3431458 1.5002911 1.500291 2.3431458 3.5351223 2.3431458 5.6568542z" fill="#607d8b"/><path id="Shape" d="m21 43c-.4919523.0049179-.9823874.0554678-1.465.151 3.7501022.7474468 6.4469337 4.0442495 6.4362172 7.8680995-.0107165 3.8238499-2.7259844 7.105485-6.4802172 7.8319005 2.9896635.5851235 6.0521739-.5785105 7.8989513-3.0012921 1.8467773-2.4227816 2.1572578-5.6841641.8008038-8.4118903-1.3564539-2.7277261-4.1443889-4.4483169-7.1907551-4.4378176z" fill="#37474f"/><circle id="Oval" cx="46" cy="46" fill="#ffeb3a" r="13"/><path id="Shape" d="m46 33c-.5013727.0021196-1.0022053.0331712-1.5.093 6.5547585.7579324 11.5005523 6.3085668 11.5005523 12.907s-4.9457938 12.1490676-11.5005523 12.907c4.8017364.577143 9.5269407-1.5589761 12.2658122-5.5449953 2.7388716-3.9860191 3.0386134-9.1629598.7780779-13.4384417-2.2605356-4.2754819-6.7076311-6.9426717-11.5438901-6.923563z" fill="#fdd834"/><circle id="Oval" cx="21" cy="51" fill="#cfd8dc" r="3"/><path id="Shape" d="m17 15v29.08c-1.5478557.8855385-2.7525474 2.2663547-3.42 3.92h-10.58c-.55228475 0-1-.4477153-1-1v-28c0-2.209139 1.790861-4 4-4z" fill="#60a917"/><path id="Shape" d="m14 15v29.08c-1.5478557.8855385-2.7525474 2.2663547-3.42 3.92h3c.6674526-1.6536453 1.8721443-3.0344615 3.42-3.92v-29.08z" fill="#549414"/><path id="Shape" d="m41.308 1h-17.291c-1.7855741-.00009959-3.3549671 1.18327013-3.846 2.9l-3.171 11.1000002 30-.0000002c.3139395.0001745.6097382-.1470902.7988245-.3976983.1890862-.2506081.2495089-.5754664.1631755-.8773017l-2.808-9.825c-.4910329-1.71672987-2.0604259-2.90009959-3.846-2.9z" fill="#60a917"/><path id="Shape" d="m47.961 13.725-2.807-9.825c-.4910329-1.71672987-2.0604259-2.90009959-3.846-2.9h-3c1.7855741-.00009959 3.3549671 1.18327013 3.846 2.9l2.807 9.824c.0866632.3018006.0265398.6267818-.1623612.8776014-.188901.2508197-.4846418.3983491-.7986388.3983986h3c.3137636-.0001394.6092705-.1475355.7981255-.3980976s.2491595-.5752362.1628745-.8769024z" fill="#549414"/><path id="Shape" d="m6.82 57c.12110064-.3193958.18212561-.6584234.18-1 0-1.6568542-1.34314575-3-3-3-.34157656-.0021256-.68060416.0588994-1 .18v-5.18h10.58c-.3820695.9541003-.5789105 1.9722435-.58 3-.0028714 2.2969406.9847642 4.4835878 2.71 6z" fill="#007900"/><path id="Shape" d="m13 31h4v6h-4c-.5522847 0-1-.4477153-1-1v-4c0-.5522847.4477153-1 1-1z" fill="#9e9e9e"/></g><path id="Shape" d="m54 41.88c-2.0244774-3.93181-6.605551-5.8101905-10.8075298-4.4314183-4.2019788 1.3787723-6.7796191 5.6061024-6.0810907 9.9729888s4.4662187 7.5792156 8.8886205 7.5784295c3.3137085 0 6-2.6862915 6-6s-2.6862915-6-6-6c-2.209139 0-4 1.790861-4 4s1.790861 4 4 4" stroke="#000" stroke-linecap="round" stroke-linejoin="round" stroke-width="2"/><circle id="Oval" cx="46" cy="46" fill="#ffdc00" fill-rule="nonzero" r="9"/><path id="Shape" d="m46 37c-.5028835.0032224-1.0046224.0483789-1.5.135 4.3297277.7267089 7.5010833 4.4747098 7.5010833 8.865s-3.1713556 8.1382911-7.5010833 8.865c3.3570875.5877651 6.7581917-.7711782 8.7859125-3.5104942 2.0277208-2.7393161 2.334161-6.389019.7916126-9.4281058-1.5425485-3.0390868-4.6694296-4.9461397-8.0775251-4.9264z" fill="#fec108" fill-rule="nonzero"/><path id="Shape" d="m0 56c-.00624131 1.8086432 1.20575631 3.3949141 2.95246555 3.8642072 1.74670923.4692932 3.59050012-.2959705 4.49153445-1.8642072h7.912c3.3743226 2.7374191 8.2220273 2.6752877 11.5250839-.147713s4.1195533-7.6018535 1.9411647-11.3613933c-2.1783886-3.7595397-6.7304653-5.4276822-10.8222486-3.9658937v-26.525h29c.6272939-.0003683 1.2180741-.2950271 1.5957383-.7958939s.498454-1.1499083.3262617-1.7531061l-2.807-9.824c-.6185314-2.14272712-2.5767947-3.62028509-4.807-3.627h-17.291c-2.2303521.0069368-4.1887864 1.48431637-4.808 3.627l-1.82 6.373h-6.389c-1.65685425 0-3 1.3431458-3 3v1h-2c-2.76005315.0033061-4.99669388 2.2399468-5 5v28c.002145.7113268.38324874 1.3675874 1 1.722v3.834c-1.23335224.7089761-1.99550441 2.0214021-2 3.444zm4 2c-1.1045695 0-2-.8954305-2-2s.8954305-2 2-2 2 .8954305 2 2-.8954305 2-2 2zm24-7c0 3.8659932-3.1340068 7-7 7s-7-3.1340068-7-7 3.1340068-7 7-7c3.8641657.0044086 6.9955914 3.1358343 7 7zm-12-15h-3v-4h3zm2.9-24h7.1v2h-7.674zm9.1 0h6v2h-6zm-6.868-7.824c.3723153-1.28512466 1.5470387-2.1711552 2.885-2.176h17.291c1.3380381.00395868 2.5129442.89043427 2.884 2.176l2.808 9.824h-11v-2h2c.5522847 0 1-.4477153 1-1s-.4477153-1-1-1h-2c0-.55228475-.4477153-1-1-1s-1 .44771525-1 1h-6c0-.55228475-.4477153-1-1-1s-1 .44771525-1 1h-6.532zm-11.132 8.824c0-.5522847.4477153-1 1-1h5.817l-.571 2h-6.246zm-7 6c0-1.6568542 1.34314575-3 3-3h10v14h-3c-1.1045695 0-2 .8954305-2 2v4c0 1.1045695.8954305 2 2 2h3v2h-10c-.55228475 0-1 .4477153-1 1s.44771525 1 1 1h10v1.522c-1.300799.8755353-2.3518001 2.074021-3.05 3.478h-9.95zm1 30h8.232c-.5614008 2.4112149-.0940363 4.9473014 1.29 7h-5.522c0-2.209139-1.790861-4-4-4z" fill="#000" fill-rule="nonzero"/><path id="Shape" d="m54.122 34.619.71-1.064c.306518-.4595009.1825009-1.080482-.277-1.387s-1.080482-.1825009-1.387.277l-.751 1.126c-5.6918605-2.9628531-12.6715393-1.6515821-16.9 3.175l-.984-.815c-.2735117-.2403631-.6560553-.3130622-.9986729-.1897889-.3426176.1232732-.5911512.4230328-.6488248.7825559s.0846293.7219795.3714977.946233l1.039.861c-3.9424846 6.0041403-2.6970798 14.0184081 2.8815507 18.5429819s13.6773791 4.0889245 18.7384493-1.0079819l.926.864c.2580823.2593038.6371654.3569756.9884178.2546684.3512523-.1023071.6185992-.3882606.6970779-.7455924.0784786-.3573319-.0444396-.7289969-.3204957-.969076l-.994-.929c2.2534456-3.0091863 3.1952354-6.8013031 2.6114794-10.5151216-.5837561-3.7138185-2.6435133-7.0341376-5.7114794-9.2068784zm-8.122 23.381c-6.627417 0-12-5.372583-12-12s5.372583-12 12-12 12 5.372583 12 12c-.0071648 6.624447-5.375553 11.9928352-12 12z" fill="#000" fill-rule="nonzero"/><path id="Shape" d="m21 55c2.209139 0 4-1.790861 4-4s-1.790861-4-4-4-4 1.790861-4 4 1.790861 4 4 4zm0-6c1.1045695 0 2 .8954305 2 2s-.8954305 2-2 2-2-.8954305-2-2 .8954305-2 2-2z" fill="#000" fill-rule="nonzero"/><path id="Shape" d="m46 36c-5.5228475 0-10 4.4771525-10 10s4.4771525 10 10 10c3.8659932-.0000001 6.9999998-3.1340068 6.9999998-7s-3.1340066-6.9999999-6.9999998-7c-2.7614237 0-5 2.2385763-5 5s2.2385763 5 5 5c.5522847 0 1-.4477153 1-1s-.4477153-1-1-1c-1.6568542-.0000001-2.9999999-1.3431458-2.9999999-3s1.3431457-2.9999999 2.9999999-3c2.7614237 0 5 2.2385763 5 5s-2.2385763 5-5 5c-3.9311646.0005712-7.280206-2.8551405-7.900836-6.7370053-.62063-3.8818647 1.6710871-7.6394172 5.4064667-8.8645681s7.80737.4451969 9.6063693 3.9405734c.1639849.3174305.4848603.5232634.8417557.5399636.3568953.0167001.6955896-.1582697.8885-.459.1929104-.3007304.2107292-.6815331.0467443-.9989636-1.7102947-3.3325075-5.143244-5.4261084-8.889-5.421z" fill="#000" fill-rule="nonzero"/></g></g></svg>