<svg height="60" viewBox="0 0 60 60" width="60" xmlns="http://www.w3.org/2000/svg"><g id="Page-1" fill="none" fill-rule="evenodd"><g id="064---Watering-Can" fill-rule="nonzero"><path id="Shape" d="m34.82 18.7c-5.94 3.55-11.42 5.32-12.23 3.95s3.33-5.37 9.26-8.93 11.41-5.32 12.23-3.95-3.33 5.37-9.26 8.93z" fill="#00838f"/><path id="Shape" d="m49.63 43.58c-5.94 3.55-11.41 5.33-12.23 3.95l-3.99-6.71c-.3633116-.6081183-.9356327-1.0631314-1.61-1.28l-12.13-3.42-.01-.01c.4203983-.5565358.7232031-1.1927662.89-1.87.1467901-.5914171.1907644-1.2036756.13-1.81l6.82 1.77c.3817116.1251796.8010009-.0005432 1.0508595-.3150974.2498587-.3145542.2774455-.7514165.0691405-1.0949026l-1.1-1.85c.82 1.38 6.3-.39 12.23-3.95s10.09-7.55 9.27-8.92l9.88 16.58c.81 1.38-3.34 5.37-9.27 8.93z" fill="#02a9f4"/><path id="Shape" d="m27.683 31.114c-.0640319-.0480871-.1191909-.1069685-.163-.174l.111.187z" fill="#0377bc"/><path id="Shape" d="m58.9 34.65-9.88-16.58c.339.566-.181 1.584-1.314 2.83l8.194 13.75c.81 1.38-3.34 5.37-9.27 8.93-2.8273082 1.769367-5.8773818 3.154847-9.07 4.12 1.2 1.027 6.416-.742 12.07-4.121 5.93-3.559 10.08-7.549 9.27-8.929z" fill="#0377bc"/><path id="Shape" d="m39.75 26.99c-5.93 3.56-11.41 5.33-12.23 3.95l-1.95-3.28c.89 1.31 6.32-.46 12.21-3.99 5.93-3.55 10.08-7.55 9.26-8.92l1.98 3.32c.82 1.37-3.33 5.37-9.27 8.92z" fill="#0377bc"/><path id="Shape" d="m37.78 23.67c-5.89 3.53-11.32 5.3-12.21 3.99l-.01-.02-.01-.01-2.96-4.98c.81 1.37 6.29-.4 12.23-3.95s10.08-7.55 9.26-8.93l2.96 4.98c.82 1.37-3.33 5.37-9.26 8.92z" fill="#02a9f4"/><path id="Shape" d="m20.55 34.24c-.1667969.6772338-.4696017 1.3134642-.89 1.87-1.82 2.5-5.62 3.29-7.92 2.71l-.01-.01c1.8600403-1.5480986 3.2089729-3.622039 3.87-5.95.5181913-2.3907924.3199241-4.8813062-.57-7.16h.01c2.999585.9989613 5.1809845 3.6019433 5.64 6.73.0607644.6063244.0167901 1.2185829-.13 1.81z" fill="#fec108"/><path id="Shape" d="m15.6 32.86c-.6610271 2.327961-2.0099597 4.4019014-3.87 5.95-.7948361-2.2584793-.9335251-4.6959383-.4-7.03.6509042-2.3282891 1.931148-4.4320409 3.7-6.08.8899241 2.2786938 1.0881913 4.7692076.57 7.16z" fill="#ffdc00"/><rect id="Rectangle-path" fill="#60a917" height="5" rx="1" width="58" x="1" y="54"/><path id="Shape" d="m58 54h-3c.5522847 0 1 .4477153 1 1v3c0 .5522847-.4477153 1-1 1h3c.5522847 0 1-.4477153 1-1v-3c0-.5522847-.4477153-1-1-1z" fill="#549414"/><path id="Shape" d="m21.591 31.633c-.735449-3.2528488-3.1331517-5.8759896-6.307-6.9-.3208202-.0847053-.662775-.0057639-.914.211-1.9238173 1.7816754-3.3134018 4.0639458-4.013 6.591-.58097263 2.5387244-.42731923 5.1903727.443 7.645.1060597.3075179.3670982.5358315.686.6 3.0897193.6732051 6.3092299-.2787683 8.536-2.524l11.478 3.244c.4401645.1409534.81338.4383873 1.049.836l3.992 6.71c.4815681.6770169 1.2908227 1.0416975 2.117.954 2.832 0 7.8-2.355 11.484-4.563 1.187-.711 11.543-7.045 9.615-10.3l-9.2-15.451-1.485-12.286c-.2505224-2.08305535-1.3898303-3.95592259-3.1244486-5.13616847-1.7346184-1.18024588-3.8949638-1.55248483-5.9245514-1.02083153l-11.617 3.08c-3.6831535.95546842-5.9895197 4.60896612-5.268 8.345.3949991 1.9946327.960063 3.9517811 1.689 5.85-2.25 1.965-4 4.136-3.1 5.643.613 1.031-2.23-3.731 6.023 10.071zm-9.3.39c.4385527-1.607249 1.2171-3.1015958 2.283-4.382.4061592 1.631642.4253359 3.3356306.056 4.976-.442519 1.6049966-1.2611277 3.0814405-2.388 4.307-.3382008-1.6183585-.3184051-3.2910984.058-4.901zm1.709 5.938c1.2159686-1.4038685 2.096229-3.0662407 2.574-4.861.425301-1.8200909.4382844-3.7122442.038-5.538 2.021 1.443 3.563 4.056 2.969 6.433-.599 2.405-3.114 3.751-5.581 3.966zm35.117 4.76c-5.838 3.5-10.067 4.576-10.893 4.235l-3.96-6.656c-.4951511-.8267355-1.2788559-1.4408751-2.2-1.724l-10.899-3.076c.2593656-.5650527.4281003-1.1674358.5-1.785 6.188 1.6 5.791 1.534 6.15 1.534.6924296-.0018717 1.3321569-.3700624 1.6816156-.9678423.3494587-.59778.3564526-1.3358629.0183844-1.9401577 2.9-.325 7.367-2.459 10.761-4.493.884-.53 6.852-4.176 9.044-7.347l8.68 14.592c-.079.894-3.034 4.12-8.886 7.628zm-4.745-30.511 1.774 2.978c-.069.889-3.024 4.119-8.882 7.629-5.842 3.5-10.075 4.584-10.9 4.229l-1.783-3c2.9-.331 7.357-2.461 10.746-4.491.887-.528 6.853-4.174 9.045-7.345zm3.749 6.295c-.067.888-3.022 4.119-8.882 7.63s-10.081 4.587-10.9 4.228l-.8-1.338c2.9-.329 7.359-2.462 10.748-4.493.884-.529 6.851-4.176 9.043-7.346l.79 1.314zm-23.021-7.22c-.520065-2.7018896 1.1513573-5.34217615 3.816-6.028l11.619-3.08c1.459387-.38578957 3.0142902-.1222034 4.265.723 1.2677341.85780826 2.1026957 2.22182196 2.29 3.741l.943 7.8c-.318-.533 1.149 1.928-3.105-5.2-.275144-.42904228-.7111299-.72954828-1.21-.834-2.561-.641-8.268 2-12.376 4.461-1.6836173 1.0179635-3.3116073 2.1252104-4.877 3.317-.5800985-1.5958753-1.0364475-3.2340512-1.365-4.9zm7.266 3.3c5.634-3.376 9.772-4.5 10.8-4.261-.27 1.019-3.219 4.141-8.862 7.523s-9.777 4.5-10.8 4.26c.27-1.024 3.22-4.146 8.863-7.527z" fill="#000"/><path id="Shape" d="m58 53h-56c-1.1045695 0-2 .8954305-2 2v3c0 1.1045695.8954305 2 2 2h56c1.1045695 0 2-.8954305 2-2v-3c0-1.1045695-.8954305-2-2-2zm0 5h-56v-3h56z" fill="#000"/><g fill="#00bcd4"><path id="Shape" d="m7 30.071c-.52483271-.0000353-.96033826-.4058027-.9974319-.9293229-.03709365-.5235203.33684751-.9866403.8564319-1.0606771.37793788-.0539616.75922927-.0810296 1.141-.081.55228475 0 1 .4477153 1 1s-.44771525 1-1 1c-.28711505.0001113-.57385181.0208312-.858.062-.04710363.0059129-.09452677.0089186-.142.009z"/><path id="Shape" d="m2.254 33c-.37232972-.0004666-.71356987-.2077506-.88560322-.5379539-.17203336-.3302032-.14636984-.7286413.06660322-1.0340461.28545101-.4098493.60851767-.7921728.965-1.142.25391185-.2561473.62608319-.3557194.97397903-.2605819s.61760612.370242.70583659.7199533c.08823047.3497114-.01869109.7198383-.27981562.9686286-.26806098.2628884-.51110638.5501239-.726.858-.18696076.2681036-.49314551.4279171-.82.428z"/><path id="Shape" d="m1 38c-.55228475 0-1-.4477153-1-1v-1c0-.5522847.44771525-1 1-1s1 .4477153 1 1v1c0 .5522847-.44771525 1-1 1z"/><path id="Shape" d="m1 43c-.55228475 0-1-.4477153-1-1v-1c0-.5522847.44771525-1 1-1s1 .4477153 1 1v1c0 .5522847-.44771525 1-1 1z"/><path id="Shape" d="m1 48c-.55228475 0-1-.4477153-1-1v-1c0-.5522847.44771525-1 1-1s1 .4477153 1 1v1c0 .5522847-.44771525 1-1 1z"/><path id="Shape" d="m5 41c-.55228475 0-1-.4477153-1-1v-1c0-.5522847.44771525-1 1-1s1 .4477153 1 1v1c0 .5522847-.44771525 1-1 1z"/><path id="Shape" d="m5 46c-.55228475 0-1-.4477153-1-1v-1c0-.5522847.44771525-1 1-1s1 .4477153 1 1v1c0 .5522847-.44771525 1-1 1z"/><path id="Shape" d="m5 51c-.55228475 0-1-.4477153-1-1v-1c0-.5522847.44771525-1 1-1s1 .4477153 1 1v1c0 .5522847-.44771525 1-1 1z"/><path id="Shape" d="m9 44c-.55228475 0-1-.4477153-1-1v-1c0-.5522847.44771525-1 1-1s1 .4477153 1 1v1c0 .5522847-.44771525 1-1 1z"/><path id="Shape" d="m9 49c-.55228475 0-1-.4477153-1-1v-1c0-.5522847.44771525-1 1-1s1 .4477153 1 1v1c0 .5522847-.44771525 1-1 1z"/><path id="Shape" d="m5.416 36c-.13776136.0004847-.27407098-.0281403-.4-.084-.50568966-.2211094-.73663197-.8101018-.516-1.316.18625853-.4256651.42115453-.828344.7-1.2.33137085-.4418278.9581722-.5313708 1.4-.2s.53137085.9581722.2 1.4c-.18625658.2474109-.34267116.5159337-.466.8-.15926415.3649212-.51983898.600591-.918.6z"/></g></g></g></svg>