<svg height="512" viewBox="0 0 60 60" width="512" xmlns="http://www.w3.org/2000/svg"><g id="Page-1" fill="none" fill-rule="evenodd"><g id="065---Plant-Data"><path id="Shape" d="m28 39-2.87 19.15c-.0773648.487515-.496392.8472859-.99.85h-16.28c-.49360797-.0027141-.9126352-.362485-.99-.85l-2.87-19.15z" fill="#ff5722" fill-rule="nonzero"/><path id="Shape" d="m25 39-2.87 19.15c-.0773648.487515-.496392.8472859-.99.85h3c.493608-.0027141.9126352-.362485.99-.85l2.87-19.15z" fill="#d84315" fill-rule="nonzero"/><rect id="Rectangle-path" fill="#ff9801" fill-rule="nonzero" height="6" rx="1" width="30" x="1" y="33"/><path id="Shape" d="m30 33h-3c.5522847 0 1 .4477153 1 1v4c0 .5522847-.4477153 1-1 1h3c.5522847 0 1-.4477153 1-1v-4c0-.5522847-.4477153-1-1-1z" fill="#f57c00" fill-rule="nonzero"/><path id="Shape" d="m16 33v-32" stroke="#000" stroke-linecap="round" stroke-linejoin="round" stroke-width="2"/><g fill-rule="nonzero"><path id="Shape" d="m5 24h4c3.8659932 0 7 3.1340068 7 7v2h-5c-3.86599325 0-7-3.1340068-7-7v-1c0-.5522847.44771525-1 1-1z" fill="#60a917"/><path id="Shape" d="m9 24h-3c3.86599325 0 7 3.1340068 7 7v2h3v-2c0-3.8659932-3.1340068-7-7-7z" fill="#549414"/><path id="Shape" d="m23 24h5v2c0 1.8565154-.7374979 3.6369928-2.0502525 4.9497475-1.3127547 1.3127546-3.0932321 2.0502525-4.9497475 2.0502525h-4c-.5522847 0-1-.4477153-1-1v-1c0-3.8659932 3.1340068-7 7-7z" fill="#60a917" transform="matrix(-1 0 0 -1 44 57)"/><path id="Shape" d="m27 24h-3c.5522847 0 1 .4477153 1 1v1c0 1.8565154-.7374979 3.6369928-2.0502525 4.9497475-1.3127547 1.3127546-3.0932321 2.0502525-4.9497475 2.0502525h3c1.8565154 0 3.6369928-.7374979 4.9497475-2.0502525 1.3127546-1.3127547 2.0502525-3.0932321 2.0502525-4.9497475v-1c0-.5522847-.4477153-1-1-1z" fill="#549414"/><path id="Shape" d="m23 11h4v1c0 3.8659932-3.1340068 7-7 7h-3c-.5522847 0-1-.4477153-1-1 0-3.8659932 3.1340068-7 7-7z" fill="#60a917" transform="matrix(-1 0 0 -1 43 30)"/><path id="Shape" d="m26 11h-3c.5522847 0 1 .4477153 1 1 0 3.8659932-3.1340068 7-7 7h3c3.8659932 0 7-3.1340068 7-7 0-.5522847-.4477153-1-1-1z" fill="#549414"/><path id="Shape" d="m7.875 4h2c3.3827441 0 6.125 2.74225591 6.125 6.125v.875h-2.875c-3.38274409 0-6.125-2.74225591-6.125-6.125 0-.48324916.39175084-.875.875-.875z" fill="#60a917"/><path id="Shape" d="m9.875 4h-2c-.08534011.00427068-.16958194.02111904-.25.05 3.068181.37809414 5.3734735 2.98361077 5.375 6.075v.869c.042 0 .083.006.125.006h2.875v-.875c0-3.38274409-2.7422559-6.125-6.125-6.125z" fill="#549414"/><path id="Shape" d="m59 3v32c-.0032948 1.1032019-.8967981 1.9967052-2 2h-20c-1.1032019-.0032948-1.9967052-.8967981-2-2v-32c.0032948-1.10320187.8967981-1.9967052 2-2h2l2.86 3.05c.5663757.60708315 1.3597411.95123705 2.19.95h5.9c.8302589.00123705 1.6236243-.34291685 2.19-.95l2.86-3.05h2c1.1032019.0032948 1.9967052.89679813 2 2z" fill="#02a9f4"/><path id="Shape" d="m57 1h-2l-.174.185c.7127291.32320479 1.1714696 1.03241599 1.174 1.815v32c-.0032948 1.1032019-.8967981 1.9967052-2 2h3c1.1032019-.0032948 1.9967052-.8967981 2-2v-32c-.0032948-1.10320187-.8967981-1.9967052-2-2z" fill="#0377bc"/><path id="Shape" d="m59 35v4c-.0032948 1.1032019-.8967981 1.9967052-2 2h-20c-1.1032019-.0032948-1.9967052-.8967981-2-2v-4c.0032948 1.1032019.8967981 1.9967052 2 2h20c1.1032019-.0032948 1.9967052-.8967981 2-2z" fill="#7f8e94"/><path id="Shape" d="m57 37h-1v2c-.0032948 1.1032019-.8967981 1.9967052-2 2h3c1.1032019-.0032948 1.9967052-.8967981 2-2v-4c-.0032948 1.1032019-.8967981 1.9967052-2 2z" fill="#545c60"/><path id="Shape" d="m55 1-2.86 3.05c-.5663757.60708315-1.3597411.95123705-2.19.95h-5.9c-.8302589.00123705-1.6236243-.34291685-2.19-.95l-2.86-3.05z" fill="#7f8e94"/><path id="Shape" d="m52 1-2.86 3.05c-.5663757.60708315-1.3597411.95123705-2.19.95000332l3-.00000332c.8302589.00123705 1.6236243-.34291685 2.19-.95l2.86-3.05z" fill="#545c60"/><path id="Shape" d="m50.54 17.54c-1.6008875 1.5968384-4.0742064 1.9205523-6.032127.7894994s-2.9130937-3.4353405-2.3295522-5.6198801c.5835415-2.1845395 2.5605473-3.70557374 4.8216792-3.7096193v5z" fill="#ffdc00"/><path id="Shape" d="m52 14c-.0000388 1.3265125-.5249046 2.5991323-1.46 3.54l-3.54-3.54v-5c2.7614237 0 5 2.2385763 5 5z" fill="#ef314c"/><path id="Shape" d="m2 40h1.139l2.744 18.3c.14393712.9802022.98729875 1.7050327 1.978 1.7h16.278c.9907012.0050327 1.8340629-.7197978 1.978-1.7l2.744-18.3h1.139c1.1045695 0 2-.8954305 2-2v-4c0-1.1045695-.8954305-2-2-2h-3.726c1.7310709-1.51355 2.724701-3.7005569 2.726-6v-1c0-1.1045695-.8954305-2-2-2h-4c-2.2994431.001299-4.48645.9949291-6 2.726v-5.726h3c4.4162219-.0049599 7.9950401-3.5837781 8-8 0-1.1045695-.8954305-2-2-2h-3c-2.2994431.001299-4.48645.9949291-6 2.726v-11.726c0-.55228475-.4477153-1-1-1s-1 .44771525-1 1v4.187c-1.3389478-1.3969055-3.1900255-2.18681904-5.125-2.187h-2c-1.03507697.00110232-1.87389768.83992303-1.875 1.875.0044088 3.93320121 3.19179879 7.1205912 7.125 7.125h1.875v13.726c-1.51355-1.7310709-3.7005569-2.724701-6-2.726h-4c-1.1045695 0-2 .8954305-2 2v1c.00129899 2.2994431.99492913 4.48645 2.726 6h-3.726c-1.1045695 0-2 .8954305-2 2v4c0 1.1045695.8954305 2 2 2zm11.125-30c-2.7810618-.00234555-5.05399744-2.21984378-5.125-5h1.875c2.7810618.00234555 5.0539974 2.21984378 5.125 5zm11.014 48h-16.278l-2.7-18h21.678zm-1.139-33h4v1c-.0033074 3.3123376-2.6876624 5.9966926-6 6h-4v-1c.0033074-3.3123376 2.6876624-5.9966926 6-6zm0-13h3c-.0033074 3.3123376-2.6876624 5.9966926-6 6h-3c.0033074-3.3123376 2.6876624-5.9966926 6-6zm-18 14v-1h4c3.3123376.0033074 5.9966926 2.6876624 6 6v1h-4c-3.31233757-.0033074-5.99669262-2.6876624-6-6zm-3 8h28v4h-28z" fill="#000"/><path id="Shape" d="m57 0h-20c-1.6568542 0-3 1.34314575-3 3v36c0 1.6568542 1.3431458 3 3 3h9v5c0 .5522847-.4477153 1-1 1h-12c-.5522847 0-1 .4477153-1 1s.4477153 1 1 1h12c1.6568542 0 3-1.3431458 3-3v-5h9c1.6568542 0 3-1.3431458 3-3v-36c0-1.65685425-1.3431458-3-3-3zm-4.309 2-1.282 1.368c-.3785181.40264083-.9063743.63129411-1.459.632h-5.9c-.5527743.00000995-1.0809024-.22876112-1.459-.632l-1.282-1.368zm-16.691 1c0-.55228475.4477153-1 1-1h1.567l2.564 2.735c.7571716.80580401 1.8132755 1.26348524 2.919 1.265h5.9c1.1054262-.0015523 2.1612064-.45925001 2.918-1.265l2.565-2.735h1.567c.5522847 0 1 .44771525 1 1v32c0 .5522847-.4477153 1-1 1h-20c-.5522847 0-1-.4477153-1-1zm21 37h-20c-.5522847 0-1-.4477153-1-1v-1.184c.320257.1184378.6585603.1806856 1 .184h20c.3414397-.0033144.679743-.0655622 1-.184v1.184c0 .5522847-.4477153 1-1 1z" fill="#000"/><path id="Shape" d="m47 20c1.5716052.0007433 3.0803529-.6171248 4.2-1.72.015-.014.034-.018.049-.033s.019-.034.033-.049c1.9989439-2.0412371 2.2813353-5.2088305.6749985-7.5714789-1.6063369-2.36264848-4.6558028-3.26495129-7.2891196-2.15676891s-4.1200003 3.91943921-3.5536103 6.71972991 3.0287364 4.8128123 5.8857314 4.8105179zm4-6c-.0034834.7118154-.1993989 1.4094405-.567 2.019l-2.433-2.433v-3.444c1.7606851.4545933 2.9931852 2.0395884 3 3.858zm-5-3.858v3.858c.0000566.2651948.1054506.5195073.293.707l2.726 2.726c-.6095595.3676011-1.3071846.5635166-2.019.567-2.0117689.0025048-3.7110655-1.4923684-3.9650329-3.4880439-.2539673-1.9956756 1.0167587-3.8685104 2.9650329-4.3699561z" fill="#000"/><path id="Shape" d="m41 33h13c.5522847 0 1-.4477153 1-1s-.4477153-1-1-1h-13v-2h5c.5522847 0 1-.4477153 1-1s-.4477153-1-1-1h-5v-2h9c.5522847 0 1-.4477153 1-1s-.4477153-1-1-1h-9v-2c0-.5522847-.4477153-1-1-1s-1 .4477153-1 1v10c0 1.1045695.8954305 2 2 2z" fill="#000"/><path id="Shape" d="m10.443 56c-.494373-.0009826-.91383363-.3630702-.987-.852l-1.8-12c-.06113594-.3566351.07515207-.7184768.35637312-.9461629.28122105-.227686.66350204-.2856953.99960863-.1516856.33610659.1340096.57360301.4391313.62101825.7978485l1.8 12c.0817779.5458747-.2941922 1.054777-.84 1.137-.0495982.0084242-.0997158.013436-.15.015z" fill="#f5f5f5"/></g></g></g></svg>