<svg height="512" viewBox="0 0 60 60" width="512" xmlns="http://www.w3.org/2000/svg"><g id="Page-1" fill="none" fill-rule="evenodd"><g id="066---Manure-Spreader" transform="translate(0 -1)"><path id="Shape" d="m35 37c-.0010895 1.0277565-.1979305 2.0458997-.58 3-1.2962413 3.2016236-4.4998789 5.2107551-7.9464738 4.983557s-6.3587746-2.6394816-7.2235262-5.983557c-.1648723-.6539226-.2488337-1.3256142-.25-2-.0026097-4.0403645 3.0078533-7.4484892 7.0176417-7.9446242 4.0097883-.496135 7.760129 2.0754689 8.7423583 5.9946242.1615347.6373491.2421689 1.2925027.24 1.95z" fill="#37474f" fill-rule="nonzero"/><circle id="Oval" cx="27" cy="37" fill="#cfd8dc" fill-rule="nonzero" r="3"/><path id="Shape" d="m56 27v7c0 .5522847-.4477153 1-1 1h-20l-.24.05c-.9822293-3.9191553-4.73257-6.4907592-8.7423583-5.9946242-4.0097884.496135-7.0202514 3.9042597-7.0176417 7.9446242.0011663.6743858.0851277 1.3460774.25 2h-5.25l3.57-12z" fill="#c81e1e" fill-rule="nonzero"/><path id="Shape" d="m56 22v5h-38.43l1.48-5z" fill="#f44335" fill-rule="nonzero"/><path id="Rectangle-path" d="m53 22h3v5h-3z" fill="#c81e1e" fill-rule="nonzero"/><path id="Shape" d="m20.54 17-.01.03-1.48 4.97-1.48 5-3.57 12h-3c-.6318673.0009306-1.22701248-.2967898-1.6051872-.8029924-.37817472-.5062027-.49489587-1.1613449-.3148128-1.7670076l5.36-18c.2492035-.8474157 1.0267019-1.4295219 1.91-1.43z" fill="#ff9801" fill-rule="nonzero"/><path id="Shape" d="m54 35-1 5h-18.58c.3820695-.9541003.5789105-1.9722435.58-3 .0021689-.6574973-.0784653-1.3126509-.24-1.95l.24-.05z" fill="#7f8e94" fill-rule="nonzero"/><path id="Shape" d="m51 35-1 5h3l1-5z" fill="#545c60" fill-rule="nonzero"/><path id="Shape" d="m51 21 .0000144 1h-31.9500144l1.48-4.97c.155842-.0202679.3128458-.0302894.47-.03.3374204.0019072.6733073.0455725 1 .13.5792818.1392055 1.1904258.0066683 1.66-.36.67804-.4994221 1.4978836-.7691997 2.34-.77.3374204.0019072.6733073.0455725 1 .13.5792818.1392055 1.1904258.0066683 1.66-.36 1.3911269-1.0265321 3.2888731-1.0265321 4.68 0 .4695742.3666683 1.0807182.4992055 1.66.36.3266927-.0844275.6625796-.1280928 1-.13.8421164.0008003 1.66196.2705779 2.34.77.4695742.3666683 1.0807182.4992055 1.66.36.3266927-.0844275.6625796-.1280928 1-.13.6794415.0028148 1.3470151.178311 1.94.51.6555969.3799435 1.4644031.3799435 2.12 0 1.2369117-.6935932 2.7490625-.6783556 3.9717461.0400225 1.2226835.718378 1.9720509 2.0318775 1.9682539 3.4499775z" fill="#ffdc00" fill-rule="nonzero"/><path id="Shape" d="m40 27v4" stroke="#000" stroke-linecap="round" stroke-linejoin="round" stroke-width="2"/><path id="Shape" d="m47 27v4" stroke="#000" stroke-linecap="round" stroke-linejoin="round" stroke-width="2"/><g fill-rule="nonzero"><path id="Shape" d="m1 45h58v12c0 1.6568542-1.3431458 3-3 3h-52c-1.65685425 0-3-1.3431458-3-3z" fill="#a0522d"/><path id="Shape" d="m56 45v12c0 1.6568542-1.3431458 3-3 3h3c1.6568542 0 3-1.3431458 3-3v-12z" fill="#783e22"/><path id="Shape" d="m27 33c-2.209139 0-4 1.790861-4 4s1.790861 4 4 4 4-1.790861 4-4-1.790861-4-4-4zm0 6c-1.1045695 0-2-.8954305-2-2s.8954305-2 2-2 2 .8954305 2 2-.8954305 2-2 2z" fill="#000"/><path id="Shape" d="m59 39h-4.78l.6-3h.18c1.1045695 0 2-.8954305 2-2v-19c0-.5522847-.4477153-1-1-1s-1 .4477153-1 1v6h-3c.0039841-1.774223-.9346014-3.4170743-2.4650318-4.3146632-1.5304304-.897589-3.4224148-.9148514-4.9689682-.0453368-.3528889.2091734-.7923265.2068667-1.143-.006-.7414542-.4118442-1.574853-.6299106-2.423-.634-.4289556.002702-.855906.0588001-1.271.167-.2842103.0542961-.5777933-.0216685-.8-.207-.8496367-.6228785-1.8755014-.9591127-2.929-.96-.4289556.002702-.855906.0588001-1.271.167-.2842103.0542961-.5777933-.0216685-.8-.207-1.7500368-1.2580437-4.1079632-1.2580437-5.858 0-.231809.1879342-.535965.2614018-.828.2-1.4398189-.3857237-2.9769918-.0909638-4.172.8-.2320035.1875404-.5359717.2609626-.828.2-.132-.033-.259-.039-.39-.062l4.106-13.813c.1574011-.52964107-.144359-1.08659881-.674-1.24399996-.5296411-.15740115-1.0865988.14435891-1.244.67399996l-4.247 14.285h-3.441c-1.3256293.0060289-2.4922403.8761195-2.876 2.145l-5.352 18c-.26987256.90765-.09537739 1.8894356.47072544 2.6485057.56610284.75907 1.45735336 1.2063104 2.40427456 1.2064943h7.524c.5564079 1.5687995 1.535842 2.9531586 2.83 4h-20.354c-.55228475 0-1 .4477153-1 1s.44771525 1 1 1h11.523l-5.452 13.629c-.09848963.2463783-.09502491.5217985.00963134.7656213.10465624.2438228.30192323.4360571.54836866.5343787.11793535.047355.24391332.071464.371.071.40919192.0001502.77718982-.2490109.929-.629l5.748-14.371h14.323v14c0 .5522847.4477153 1 1 1s1-.4477153 1-1v-14h6c.5522847 0 1-.4477153 1-1s-.4477153-1-1-1h-4.355c1.0054405-.816756 1.8238713-1.8397946 2.4-3h23.955c.5522847 0 1-.4477153 1-1s-.4477153-1-1-1zm-37.271-20.907c.8740904.2228026 1.8020785.0334473 2.519-.514.7134385-.5232051 1.6228858-.7013556 2.481-.486.8740904.2228026 1.8020785.0334473 2.519-.514 1.0444862-.7550996 2.4555138-.7550996 3.5 0 .7056193.5491874 1.6251252.7421655 2.492.523.8646369-.2409331 1.7921795-.0645225 2.508.477.7060084.5483476 1.6251066.7412402 2.492.523.7430169-.2032202 1.5363576-.1024786 2.205.28.9578417.5498255 2.1350337.5521076 3.095.006.9269482-.5240484 2.0626953-.5153876 2.9815437.0227362s1.4820307 1.5244413 1.4784732 2.5892638h-29.6000169l.885-2.978c.1495205.0129124.297909.0366412.444.071zm-11.529 19.507c-.1902968-.2523915-.24863201-.5804807-.157-.883l5.352-18c.1253326-.4247679.5151278-.7165039.958-.717h2.847l-5.946 20h-2.254c-.3151314.0015936-.6121961-.1469387-.8-.4zm5.141.4 2.973-10h2.686c.5522847 0 1-.4477153 1-1s-.4477153-1-1-1h-2.092l.892-3h35.2v3h-23c-.5522847 0-1 .4477153-1 1s.4477153 1 1 1h7v3c0 .5522847.4477153 1 1 1s1-.4477153 1-1v-3h5v3c0 .5522847.4477153 1 1 1s1-.4477153 1-1v-3h7v6h-19.525c-1.5131032-4.3226646-6.0339339-6.8169037-10.4975559-5.7917264-4.463622 1.0251774-7.4430884 5.2420387-6.9184441 9.7917264zm11.659 6c-3.8659932 0-7-3.1340068-7-7s3.1340068-7 7-7 7 3.1340068 7 7c-.0049584 3.8639376-3.1360624 6.9950416-7 7zm8.941-8h16.839l-.6 3h-16.412c.2320904-.9822717.2906388-1.9975605.173-3z" fill="#000"/><path id="Shape" d="m59 44h-18c-.5522847 0-1 .4477153-1 1s.4477153 1 1 1h4.323l5.748 14.371c.1518102.3799891.5198081.6291502.929.629.1270867.000464.2530647-.023645.371-.071.2464454-.0983216.4437124-.2905559.5483687-.5343787.1046562-.2438228.1081209-.519243.0096313-.7656213l-5.452-13.629h11.523c.5522847 0 1-.4477153 1-1s-.4477153-1-1-1z" fill="#000"/><path id="Shape" d="m7.779 21.024c-.37701607.0857358-.74865877.193589-1.113.323-.45807285.1631988-.73234447.6322603-.64992111 1.1115003.08242335.47924.49764549.8297172.98392111.8304997.11385901.0002361.22688648-.0193914.334-.058.2905037-.102028.5866648-.1871702.887-.255.34869122-.0789557.62877282-.3379383.73474079-.6793916s.02172325-.7135024-.221-.976c-.24272324-.2624976-.60704957-.3755641-.95574079-.2966084z" fill="#000"/><path id="Shape" d="m2.547 24.109c-.31317013.349545-.60122233.7208049-.862 1.111-.30734646.4589486-.18444863 1.0801535.2745 1.3875s1.08015354.1844486 1.3875-.2745c.20895493-.3124008.43951826-.6097941.69-.89.3621698-.4121505.3246171-1.0391465-.08415709-1.4051229-.40877419-.3659763-1.03609148-.3342398-1.40584291.0711229z" fill="#000"/><path id="Shape" d="m.061 29.668c-.04058683.368274-.06095072.7384963-.061 1.109 0 .5522847.44771525 1 1 1s1-.4477153 1-1c.00012195-.2973374.01647963-.5944463.049-.89.03912059-.355122-.11418583-.7041388-.40217021-.9155793-.28798438-.2114404-.66689505-.2531815-.99400001-.1095-.32710496.1436816-.5527092.4509573-.59182978.8060793z" fill="#000"/><path id="Shape" d="m1 36.777c.55228475 0 1-.4477153 1-1v-1c0-.5522847-.44771525-1-1-1s-1 .4477153-1 1v1c0 .5522847.44771525 1 1 1z" fill="#000"/><path id="Shape" d="m6 34.777c0-.5522847-.44771525-1-1-1s-1 .4477153-1 1v1c0 .5522847.44771525 1 1 1s1-.4477153 1-1z" fill="#000"/><path id="Shape" d="m1 41.777c.55228475 0 1-.4477153 1-1v-1c0-.5522847-.44771525-1-1-1s-1 .4477153-1 1v1c0 .5522847.44771525 1 1 1z" fill="#000"/><path id="Shape" d="m5 38.777c-.55228475 0-1 .4477153-1 1v1c0 .5522847.44771525 1 1 1s1-.4477153 1-1v-1c0-.5522847-.44771525-1-1-1z" fill="#000"/><path id="Shape" d="m7.1 25.435c-.33845172.135572-.57629642.4446005-.62070976.80648-.04441333.3618795.1116443.7192515.40726782.9326433.29562353.2133919.68395607.2489805 1.01344194.0928767.25668881-.1126612.52495923-.1968311.8-.251.54151518-.110457.89095691-.6389848.78049996-1.1805-.11045694-.5415152-.63898477-.8909569-1.18049996-.7805-.41237348.0836391-.8146491.2110264-1.2.38z" fill="#000"/><path id="Shape" d="m5.3 28.8c-.26006056-.0530738-.53055244-.0005825-.75188543.14591-.22133299.1464924-.37534783.374967-.42811457.63509-.07941288.3937234-.11960933.794348-.12 1.196 0 .5522847.44771525 1 1 1s1-.4477153 1-1c-.00073112-.2686993.02607558-.5367662.08-.8.10871062-.5402313-.24011223-1.066596-.78-1.177z" fill="#000"/></g></g></g></svg>