<svg height="60" viewBox="0 0 60 60" width="60" xmlns="http://www.w3.org/2000/svg"><g id="Page-1" fill="none" fill-rule="evenodd"><g id="067---Picking-Carrots"><g fill-rule="nonzero"><path id="Shape" d="m44.93 32.69c-.5879914.7814091-.7560912 1.8012146-.45 2.73-.1975301-.0397502-.3985101-.0598482-.6-.06-.9344114.0012814-1.814869.4378834-2.3814586 1.1809195-.5665895.7430361-.7546042 1.7076486-.5085414 2.6090805-.4491785-.2718642-.9649694-.4137933-1.49-.41-.4170458.0013899-.829195.0899509-1.21.26-.3402896.1463914-.6492375.3568834-.91.62-.95856.9560274-1.1554374 2.4367098-.48 3.61-.2538835-.0715132-.516241-.1085124-.78-.11-1.2125666.0010665-2.305263.7319802-2.7691479 1.8523059-.4638849 1.1203258-.2077333 2.4097468.6491479 3.2676941l2.75 2.76.21.21c.5167321.5127743 1.2712738.7042824 1.97.5-.66 1.04-1.44 2.22-2.17 3.29h-7.5c-.78-1.19-1.61-2.54-2.43-4-1.8691243-3.208396-3.3974435-6.6035438-4.56-10.13l3.9 2.62c.7129709.4819863 1.5995469.6320882 2.431441.4116555.831894-.2204328 1.5278117-.789859 1.908559-1.5616555l.02-.03c.5181219-1.0416882.5218183-2.2652002.01-3.31-.2892303-.6083411-.7342956-1.129309-1.29-1.51l-8.09-5.44c.2299658-1.4277326.721537-2.8007418 1.45-4.05.7365346-1.2908493 1.7142626-2.428137 2.88-3.35 2.9482305-2.3740417 6.8447698-3.2156349 10.51-2.27 1.5391361.3900341 2.9821056 1.0910995 4.24 2.06 2.6290382 1.9856471 4.3251664 4.9656248 4.69 8.24z" fill="#ff9801"/><path id="Shape" d="m44.93 32.68c-.3648336-3.2743752-2.0609618-6.2543529-4.69-8.24-1.2578944-.9689005-2.7008639-1.6699659-4.24-2.06-.9796849-.2541777-1.9878808-.3818825-3-.38-.5014614.0003285-1.0024208.0317219-1.5.094.5056414.0629053 1.0066865.1584379 1.5.286 1.5391361.3900341 2.9821056 1.0910995 4.24 2.06 2.6290382 1.9856471 4.3251664 4.9656248 4.69 8.24v.01c-.5879914.7814091-.7560912 1.8012146-.45 2.73-.1975301-.0397502-.3985101-.0598482-.6-.06-.9344114.0012814-1.814869.4378834-2.3814586 1.1809195-.5665895.7430361-.7546042 1.7076486-.5085414 2.6090805-.4491785-.2718642-.9649694-.4137933-1.49-.41-.4170458.0013899-.829195.0899509-1.21.26-.3402896.1463914-.6492375.3568834-.91.62-.95856.9560274-1.1554374 2.4367098-.48 3.61-.2538835-.0715132-.516241-.1085124-.78-.11-1.2125666.0010665-2.305263.7319802-2.7691479 1.8523059-.4638849 1.1203258-.2077333 2.4097468.6491479 3.2676941l2.75 2.76.21.21c.5167321.5127743 1.2712738.7042824 1.97.5-.66 1.04-1.44 2.22-2.17 3.29h3c.73-1.07 1.51-2.25 2.17-3.29-.6987262.2042824-1.4532679.0127743-1.97-.5l-.21-.21-2.75-2.76c-.8568812-.8579473-1.1130328-2.1473683-.6491479-3.2676941.4638849-1.1203257 1.5565813-1.8512394 2.7691479-1.8523059.263759.0014876.5261165.0384868.78.11-.6754374-1.1732902-.47856-2.6539726.48-3.61.2607625-.2631166.5697104-.4736086.91-.62.380805-.1700491.7929542-.2586101 1.21-.26.5250306-.0037933 1.0408215.1381358 1.49.41-.2460628-.9014319-.0580481-1.8660444.5085414-2.6090805.5665896-.7430361 1.4470472-1.1796381 2.3814586-1.1809195.2014899.0001518.4024699.0202498.6.06-.3060912-.9287854-.1379914-1.9485909.45-2.73z" fill="#f57c00"/><path id="Shape" d="m36 9v13.38c-1.9679105-.5066712-4.0320895-.5066712-6 0v-13.38c-.0016438-.04025966.0017152-.08056771.01-.12.1181348-1.58936633 1.4584043-2.80894876 3.0518353-2.77702694 1.5934309.03192182 2.88378 1.30420446 2.9381647 2.89702694z" fill="#60a917"/><path id="Shape" d="m30 22v.38c.4933135-.1275621.9943586-.2230947 1.5-.286-.4975792-.0622781-.9985386-.0936715-1.5-.094z" fill="#549414"/><path id="Shape" d="m35.12 6.88c-.5616324-.56342275-1.3244649-.88007021-2.12-.88-.5281596.00235768-1.0460689.14599118-1.5.416.2266965.12732385.4360801.28326922.623.464.5623224.56212462.8778653 1.32489631.877 2.12v13c1.0121192-.0018825 2.0203151.1258223 3 .38v-13.38c.0000702-.79553511-.3165773-1.55836763-.88-2.12z" fill="#549414"/><path id="Shape" d="m46.48 16.93-2.61 3.14-3.62 4.36-.01.01c-1.2578944-.9689005-2.7008639-1.6699659-4.24-2.06v-2.23l4.27-5.13 1.6-1.93c1.0645165-1.2573991 2.9438465-1.4210811 4.2097142-.3666491 1.2658676 1.0544321 1.444566 2.9323938.4002858 4.2066491z" fill="#549414"/><path id="Shape" d="m41.21 49.79c-1.4 1.4-1.639 1.76-2.28 1.92-.6987262.2042824-1.4532679.0127743-1.97-.5-.3-.3.192.194-2.96-2.97-.9514976-.9619051-1.1413798-2.4416801-.4635699-3.6126552s2.0555575-1.7433397 3.3635699-1.3973448h.01c.1236773.2327046.2821715.4451542.47.63 4.315 4.326 4.1 4.161 4.4 4.29v.01c.0723205.6022476-.1381307 1.2040642-.57 1.63z" fill="#ffe0b2"/><path id="Shape" d="m41.78 48.16v-.01c-.1649465-.0789541-.3140655-.1874043-.44-.32-4.354-4.365-4.2-4.152-4.43-4.6-.9067531-.2558788-1.8812564-.0585205-2.617.53.03.033.055.068.087.1 4.315 4.326 4.1 4.161 4.4 4.29v.01c.0723205.6022476-.1381307 1.2040642-.57 1.63l-1.335 1.335.085.085c.784164.7749833 2.045836.7749833 2.83 0l1.42-1.42c.4318693-.4259358.6423205-1.0277524.57-1.63z" fill="#dfc49c"/><path id="Shape" d="m45.59 46.41-1.42 1.42c-.6318752.6348115-1.6097432.7698309-2.39.33v-.01c-.1649465-.0789541-.3140655-.1874043-.44-.32-4.354-4.365-4.2-4.152-4.43-4.6h-.01c-.5309646-.9278761-.5280405-2.0681983.0076758-2.9933392.5357163-.9251408 1.5232706-1.4952986 2.5923242-1.4966608.5250306-.0037933 1.0408215.1381358 1.49.41.275 1.038.758 1.328 3.23 3.8.3484009.3508887.8160175.557925 1.31.58l.06.06c.3744562.3736892.5848881.8809811.5848881 1.41s-.2104319 1.0363108-.5848881 1.41z" fill="#ffe0b2"/><path id="Shape" d="m45.59 43.59-.06-.06c-.4939825-.022075-.9615991-.2291113-1.31-.58-2.356-2.356-2.95-2.743-3.23-3.8-.9243633-.5540429-2.0797245-.5498066-3 .011.278 1.032.754 1.318 3.225 3.789.3484009.3508887.8160175.557925 1.31.58l.06.06c.3744562.3736892.5848881.8809811.5848881 1.41s-.2104319 1.0363108-.5848881 1.41l-1.335 1.335c.1470936.1677542.3254024.3053066.525.405.7763114.4514022 1.7597809.3197242 2.39-.32l1.42-1.42c.3751195-.3730248.5864514-.8799438.5873894-1.408963.0009379-.5290192-.208595-1.0366843-.5823894-1.411037z" fill="#dfc49c"/><path id="Shape" d="m48.46 41.54-1.41 1.41c-.7825945.7787947-2.0474055.7787947-2.83 0l-2.46-2.46c-.932087-.9385999-1.1416153-2.375966-.5162669-3.5415969.6253483-1.1656309 1.9387955-1.7859372 3.2362669-1.5284031.285.9.7 1.161 2.69 3.15.3818797.3811817.9004462.59365 1.44.59.5122327.7309324.4499493 1.7191631-.15 2.38z" fill="#ffe0b2"/><path id="Shape" d="m48.61 39.16c-.5395538.00365-1.0581203-.2088183-1.44-.59-2.038-2.038-2.411-2.272-2.69-3.15-.9431845-.1913471-1.9206877.0850658-2.624.742.265.391.117.211 2.314 2.408.3818797.3811817.9004462.59365 1.44.59.5122327.7309324.4499493 1.7191631-.15 2.38l-1.325 1.325c.3681675.4101158.8883839.6513462 1.4392779.66741.5508941.0160638 1.0842829-.194444 1.4757221-.58241l1.41-1.41c.5999493-.6608369.6622327-1.6490676.15-2.38z" fill="#dfc49c"/><path id="Shape" d="m51.41 37.16-1.41 1.41c-.3751365.3755541-.8841815.5865733-1.415.5865733s-1.0398635-.2110192-1.415-.5865733l-1.96-1.96c-1.0553352-1.0551471-1.174651-2.7255682-.28-3.92v-.01c.5220162-.6951107 1.3198807-1.1296118 2.1870088-1.1910014.867128-.0613896 1.7182499.2563691 2.3329912.8710014l1.15 1.15v.01l.81.81c.3790282.3732815.5924538.8830212.5924538 1.415s-.2134256 1.0417185-.5924538 1.415z" fill="#ffe0b2"/><path id="Shape" d="m51.41 34.33-.81-.81v-.01c-1.067-1.067-1.766-2.03-3.27-2.03-.5283086.0041833-1.0460009.148792-1.5.419.508.3.57.411 1.77 1.611l.81.82c.3790282.3732815.5924538.8830212.5924538 1.415s-.2134256 1.0417185-.5924538 1.415l-1.325 1.325.085.085c.3751365.3755541.8841815.5865733 1.415.5865733s1.0398635-.2110192 1.415-.5865733l1.41-1.41c.3790282-.3732815.5924538-.8830212.5924538-1.415s-.2134256-1.0417185-.5924538-1.415z" fill="#dfc49c"/><path id="Shape" d="m50.6 33.51c-1.067-1.067-1.766-2.03-3.27-2.03-.9433484.0038941-1.8308757.4476578-2.4 1.2-.3609153-3.2756472-2.0578673-6.2570724-4.69-8.24.1-.1-.2.24 3.63-4.37 3.0409057 4.034125 5.3214685 8.5884733 6.73 13.44z" fill="#dfc49c"/></g><path id="Shape" d="m21.16 32.05-1.16-.78" stroke="#000" stroke-linecap="round" stroke-linejoin="round" stroke-width="2"/><path id="Shape" d="m30 20.69v1.69c-1.6488059.4242739-3.1869732 1.1984734-4.51 2.27l-.01-.01-6.41-7.71c-.6962241-.8223747-.897941-1.9549608-.5284568-2.9671414.3694843-1.0121806 1.2534102-1.7484659 2.315703-1.9289153 1.0622929-.1804494 2.1397649.2226575 2.8227538 1.0560567z" fill="#549414" fill-rule="nonzero"/><path id="Shape" d="m30.53 42.31-.02.03c-.3807473.7717965-1.076665 1.3412227-1.908559 1.5616555-.8318941.2204327-1.7184701.0703308-2.431441-.4116555l-3.9-2.62v-.01l-6.5-4.37c-2.8553881-1.9313958-4.1755162-5.458425-3.29-8.79l1.99-7.51c.340259-1.3061558.1497149-2.6938924-.53-3.86l-7.75-13.31c-.24380234-.41521075-.24628564-.9292587-.00650625-1.34680557s.68501081-.67449132 1.16650625-.67319443h16.91c.459804.00289537.8876808.23560031 1.14.62l4.61 7.26c-.0082848.03943229-.0116438.07974034-.01.12v11.69l-6.32-7.6c-1.0645165-1.2573991-2.9438465-1.4210811-4.2097142-.3666491-1.2658676 1.0544321-1.444566 2.9323938-.4002858 4.2066491l6.41 7.71.01.01c-1.1657374.921863-2.1434654 2.0591507-2.88 3.35-.728463 1.2492582-1.2200342 2.6222674-1.45 4.05l8.09 5.44c.5557044.380691 1.0007697.9016589 1.29 1.51.5118183 1.0447998.5081219 2.2683118-.01 3.31z" fill="#ffe0b2" fill-rule="nonzero"/><path id="Shape" d="m22.4 1.62 4.61 7.26c-.0082848.03943229-.0116438.07974034-.01.12v8.082l3 3.608v-11.69c-.0016438-.04025966.0017152-.08056771.01-.12l-4.61-7.26c-.2523192-.38439969-.680196-.61710463-1.14-.62h-3c.459804.00289537.8876808.23560031 1.14.62z" fill="#dfc49c" fill-rule="nonzero"/><path id="Shape" d="m30.54 39c-.2892303-.6083411-.7342956-1.129309-1.29-1.51l-8.09-5.44c.2299658-1.4277326.721537-2.8007418 1.45-4.05.7365346-1.2908493 1.7142626-2.428137 2.88-3.35l-.01-.01-6.41-7.71c-.5687922-.6757504-.808986-1.5687672-.6559273-2.438673.1530586-.8699059.6836408-1.6273058 1.4489273-2.068327-1.2559332-.7300036-2.8548393-.4516733-3.7902193.6597841-.9353801 1.1114575-.9365531 2.7344075-.0027807 3.8472159l6.41 7.71.01.01c-1.1657374.921863-2.1434654 2.0591507-2.88 3.35-.728463 1.2492582-1.2200342 2.6222674-1.45 4.05l8.09 5.44c.5557044.380691 1.0007697.9016589 1.29 1.51.5118183 1.0447998.5081219 2.2683118-.01 3.31l-.02.03c-.2594619.5194745-.6664611.950824-1.17 1.24.7109425.4188908 1.5640734.5232365 2.3550167.2880399.7909433-.2351965 1.4484411-.788746 1.8149833-1.5280399l.02-.03c.5181219-1.0416882.5218183-2.2652002.01-3.31z" fill="#dfc49c" fill-rule="nonzero"/><path id="Shape" d="m40.27 15.02-4.27 5.13v-8.58c1.5467535.9882534 2.978878 2.1453563 4.27 3.45z" fill="#dfc49c" fill-rule="nonzero"/><path id="Shape" d="m59 57c-.0032948 1.1032019-.8967981 1.9967052-2 2h-54c-.53059053.0028231-1.0395388-.2101411-1.41-.59-.3798589-.3704612-.59282307-.8794095-.59-1.41.0032948-1.1032019.89679813-1.9967052 2-2h54c1.1011688.0081672 1.9918328.8988312 2 2z" fill="#a0522d" fill-rule="nonzero"/><path id="Shape" d="m58.41 55.59c-.3704612-.3798589-.8794095-.5928231-1.41-.59l-3-.0000277c1.1011688.0081949 1.9918328.8988589 2 2.0000277-.0032948 1.1032019-.8967981 1.9967052-2 2h3c1.1032019-.0032948 1.9967052-.8967981 2-2 .0028231-.5305905-.2101411-1.0395388-.59-1.41z" fill="#783e22" fill-rule="nonzero"/><path id="Shape" d="m57 54h-18.365c.3333333-.5033333.6523333-.994.957-1.472.738-.325 1-.71 2.325-2.031.3114629-.3106668.5504861-.6862747.7-1.1 1.616.074 2.2-.8 3.683-2.281.7669547-.7711446 1.0484987-1.9011619.733-2.942.608-.32.715-.506 2.137-1.928.629155-.6328116.9050101-1.5356102.737-2.412.692-.339.874-.631 2.209-1.966.5667329-.5606881.8856332-1.3247815.8856332-2.122s-.3189003-1.5613119-.8856332-2.122l-.631-.635c-1.3811885-4.6192745-3.5239851-8.9755056-6.34-12.889l2.1-2.532c.9937365-1.1930639 1.207252-2.853426.5477015-4.2590956-.6595504-1.4056696-2.0729907-2.3026522-3.6257015-2.3009044-2.156 0-3.083 1.458-3.992 2.551-.987484-.9273983-2.049378-1.7722312-3.175-2.526v-2.033c-.0091861-1.72458399-1.1226798-3.24911137-2.7627177-3.78254379s-3.4373199.04434721-4.4592823 1.43354379l-3.537-5.563c-.4283516-.67919989-1.1760103-1.09024217-1.979-1.088h-16.914c-.83983444.00043399-1.61542991.44958108-2.03381497 1.17778162s-.41578617 1.62445646.00681497 2.35021838l7.758 13.309c.5480738.9340522.69933 2.0486668.42 3.095l-1.985 7.51c-.9967904 3.7455273.4882494 7.7113862 3.7 9.881l6.221 4.185c1.5144999 4.3821716 3.5316148 8.5741196 6.011 12.492h-24.446c-1.65685425 0-3 1.3431458-3 3s1.34314575 3 3 3h54c1.6568542 0 3-1.3431458 3-3s-1.3431458-3-3-3zm-17.917-3.5c-.1875683.187777-.4420908.2932867-.7075.2932867s-.5199317-.1055097-.7075-.2932867l-2.961-2.971c-.5960495-.5945487-.7529723-1.5000772-.3917348-2.2605182.3612376-.760441 1.1623003-1.2108909 1.9997348-1.1244818.328.441 4.331 4.4 4.432 4.49-.099.366-.114.319-1.664 1.866zm5.8-4.8-1.42 1.42c-.1875683.187777-.4420908.2932867-.7075.2932867s-.5199317-.1055097-.7075-.2932867c-4.185-4.2-4.1-4.07-4.252-4.357-.4428985-.7207207-.3756732-1.6438467.1669697-2.2927968.5426428-.6489501 1.4392899-.8785253 2.2270303-.5702032.2028379.4840252.495685.9251622.863 1.3 2.506 2.507 2.806 3.022 3.939 3.265.2613737.3853642.2158311.9013738-.109 1.235zm2.87-4.87-1.41 1.41c-.2030826.2026144-.4837997.3076099-.77.288-.5-.022-.444-.085-3.1-2.738-.5713748-.5620286-.7520543-1.4108754-.459098-2.1568793.2929563-.746004 1.0029649-1.2450769 1.804098-1.2681207.1786266.3483883.4081444.6682302.681.949 1.941 1.943 2.3 2.5 3.41 2.754.0927364.2642781.0328124.5581358-.156.765zm2.947-4.38-1.409 1.41c-.1875683.187777-.4420908.2932867-.7075.2932867s-.5199317-.1055097-.7075-.2932867l-1.959-1.96c-.5069599-.5041017-.7064751-1.2403709-.5233901-1.9314619s.7209551-1.2320108 1.411-1.419c.6900449-.1869893 1.4274302.0083601 1.9343901.5124619l1.961 1.98c.1892782.185952.2958977.4401617.2958977.7055s-.1066195.519548-.2958977.7055zm-2.093-5.72c-.9825389-.3197292-2.0493357-.258698-2.989.171-.6155104-2.5545277-1.9951703-4.860705-3.955-6.611l2.167-2.608c1.972629 2.8004305 3.5780517 5.8422309 4.777 9.051zm-3.148-17.252c.4071565.3391454.6625744.8264075.7098559 1.3541958.0472814.5277883-.1174628 1.0526903-.4578559 1.4588042l-5.645 6.8c-.9538818-.6169042-1.9847099-1.1057574-3.066-1.454v-1.125l5.64-6.783c.7229148-.8209712 1.9624109-.9313342 2.819-.251zm-6.559 1.622-1.9 2.284v-3.9c.6133333.4726667 1.2466667 1.0113333 1.9 1.616zm-5.9-8.1c1.1045695 0 2 .8954305 2 2v12.165c-1.3244165-.2180748-2.6755835-.2180748-4 0v-12.165c0-1.1045695.8954305-2 2-2zm-7.358 16.27-5.8-6.981c-.3409123-.4054358-.5051515-.930569-.456-1.458.0844086-.7989645.6358137-1.4712318 1.4028272-1.7103122.7670134-.2390804 1.6027418.0008132 2.1261728.6103122l6.085 7.321v.582c-1.1926186.3799254-2.3237523.9310078-3.358 1.636zm-12.195 4.684 1.986-7.512c.4161646-1.5594242.1911067-3.2205321-.625-4.613-8.26-14.17-7.908-13.401-7.76-13.655s-.817-.174 17.214-.174c.271 0-.1-.462 4.738 7.155v8.769l-4.551-5.473c-1.4132967-1.6979994-3.9355005-1.9287966-5.6334999-.5154999-1.6979995 1.4132966-1.9287967 3.9355004-.5155001 5.6334999l5.785 6.958c-1.7044037 1.6024518-2.9405746 3.6385386-3.576 5.89-.4604317-.2375113-1.0260204-.0840381-1.3032398.3536357s-.1742605 1.0146002.2372398 1.3293643l9.245 6.219c1.1577083.795156 1.554153 2.3208289.93 3.579-.2541318.5122833-.7168511.8900796-1.2696153 1.0366023-.5527642.1465228-1.1418658.0475356-1.6163847-.2716023l-10.4-7c-2.5050458-1.6932203-3.662919-4.7871698-2.885-7.709zm15.128 24.046h2.425c.5522847 0 1-.4477153 1-1s-.4477153-1-1-1h-3.584c-1.1937539-2.1307288-2.2508846-4.3351718-3.165-6.6l1.365.918c2.929 1.971 6.759-.493 6.243-4.321.5514563.0389361 1.0300639-.3765437 1.069-.928s-.3765437-1.0300639-.928-1.069h-.882c-.72-1.1-.579-.849-8.841-6.408.1978498-.8992599.507947-1.7700853.923-2.592h7.8c.5522847 0 1-.4477153 1-1s-.4477153-1-1-1h-6.5c2.0934812-2.5334799 5.2084845-4.0003579 8.495-4.0003579s6.4015188 1.466878 8.495 4.0003579h-6.49c-.5522847 0-1 .4477153-1 1s.4477153 1 1 1h7.806c.5520927 1.0929275.9174683 2.2705115 1.081 3.484-.3407975.5855109-.5279361 1.2477202-.544 1.925-1.7733322.2320299-3.1733599 1.6197803-3.421 3.391-.5876102-.0563518-1.1804997.0117964-1.74.2h-2.182c-.5312769-.0005168-.968844.4172249-.9929437.9479551-.0240998.5307303.3738064.9864097.9029437 1.0340449-.3241414.6754826-.45266 1.4282343-.371 2.173-1.4921261.2280688-2.730157 1.2739526-3.2043222 2.7069994s-.1042916 3.0109526.9573222 4.0840006l1.2 1.209c-.389391.2252522-.5777126.6849136-.4582957 1.1186226s.5164845.73219.9662957.7263774h1.354c.2481961.2279824.5332311.4122577.843.545-.322.491-.645.973-.971 1.455h-6.415c-.3966667-.6206667-.8086667-1.2873333-1.236-2zm28.425 6h-54c-.55228475 0-1-.4477153-1-1s.44771525-1 1-1h54c.5522847 0 1 .4477153 1 1s-.4477153 1-1 1z" fill="#000" fill-rule="nonzero"/></g></g></svg>