<svg height="512" viewBox="0 0 36 60" width="512" xmlns="http://www.w3.org/2000/svg"><g id="Page-1" fill="none" fill-rule="evenodd"><g id="068---Smart-Plant-App" fill-rule="nonzero"><path id="Shape" d="m35 51v5c0 1.6568542-1.3431458 3-3 3h-28c-1.65685425 0-3-1.3431458-3-3v-5c0 1.6568542 1.34314575 3 3 3h28c1.6568542 0 3-1.3431458 3-3z" fill="#7f8e94"/><path id="Shape" d="m32 54v2c0 1.6568542-1.3431458 3-3 3h3c1.6568542 0 3-1.3431458 3-3v-5c0 1.6568542-1.3431458 3-3 3z" fill="#545c60"/><path id="Shape" d="m35 4v47c0 1.6568542-1.3431458 3-3 3h-28c-1.65685425 0-3-1.3431458-3-3v-47c0-1.65685425 1.34314575-3 3-3h4l2.86 3.05c.5663757.60708315 1.3597411.95123705 2.19.95h9.9c.8302589.00123705 1.6236243-.34291685 2.19-.95l2.86-3.05h4c1.6568542 0 3 1.34314575 3 3z" fill="#02a9f4"/><path id="Shape" d="m32 1h-3c1.6568542 0 3 1.34314575 3 3v47c0 1.6568542-1.3431458 3-3 3h3c1.6568542 0 3-1.3431458 3-3v-47c0-1.65685425-1.3431458-3-3-3z" fill="#0377bc"/><path id="Shape" d="m28 1-2.86 3.05c-.5663757.60708315-1.3597411.95123705-2.19.95h-9.9c-.8302589.00123705-1.6236243-.34291685-2.19-.95l-2.86-3.05z" fill="#7f8e94"/><path id="Shape" d="m25 1-2.86 3.05c-.5663757.60708315-1.3597411.95123705-2.19.95000332l3-.00000332c.8302589.00123705 1.6236243-.34291685 2.19-.95l2.86-3.05z" fill="#545c60"/><path id="Shape" d="m31 37c.0034581 3.4384676-1.3599655 6.7373052-3.79 9.17-.8985119-.7563994-2.0354946-1.1708136-3.21-1.17-.3561338.0009195-.711266.0377728-1.06.11-.7998417.1790454-1.6379179.0429475-2.34-.38-1.5970033-.9722249-3.6029967-.9722249-5.2 0-.7020821.4229475-1.5401583.5590454-2.34.38-.348734-.0722272-.7038662-.1090805-1.06-.11-1.1745054-.0008136-2.31148808.4136006-3.21 1.17-4.15077454-4.1667263-4.98703207-10.6012034-2.03921739-15.6904986 2.94781467-5.0892952 8.94532169-7.5655284 14.62494539-6.0383048 5.6796237 1.5272237 9.6264172 6.6774317 9.624272 12.5588034z" fill="#00bcd4"/><path id="Shape" d="m18 24c-.5013727.0021196-1.0022053.0331712-1.5.093 4.701973.5408312 8.7371736 3.597354 10.5313071 7.9770952 1.7941334 4.3797412 1.0629419 9.3887866-1.9083071 13.0729048.7669558.172866 1.4821123.5247902 2.087 1.027 3.7042538-3.7223187 4.8051998-9.3077346 2.7905592-14.1573094-2.0146407-4.8495748-6.7491642-8.0107835-12.0005592-8.0126906z" fill="#00838f"/><path id="Shape" d="m27.21 46.17c-2.4379447 2.4514799-5.7526415 3.8298504-9.21 3.8298504s-6.7720553-1.3783705-9.21-3.8298504c.89851192-.7563994 2.0354946-1.1708136 3.21-1.17.3561338.0009195.711266.0377728 1.06.11.7998417.1790454 1.6379179.0429475 2.34-.38 1.5970033-.9722249 3.6029967-.9722249 5.2 0 .7020821.4229475 1.5401583.5590454 2.34.38.348734-.0722272.7038662-.1090805 1.06-.11 1.1745054-.0008136 2.3114881.4136006 3.21 1.17z" fill="#a0522d"/><path id="Shape" d="m24 45c-.3561338.0009195-.711266.0377728-1.06.11-.2274545.0458866-.4589641.068669-.691.068.7192632.1808297 1.3891742.5197138 1.961.992-2.0695199 2.0872206-4.7894603 3.4055627-7.71 3.737 3.9558751.4782063 7.9103271-.9016058 10.71-3.737-.8985119-.7563994-2.0354946-1.1708136-3.21-1.17z" fill="#783e22"/><path id="Shape" d="m14.789 38.96c-1.2903155.6010616-2.8240824.0528101-3.441-1.23-.65-1.23-.24-3.25.03-4.27.0429787-.1691413.156233-.3118319.3112011-.3920867s.3368581-.0904131.4997989-.0279133c.99.35 2.891 1.15 3.541 2.38.7118589 1.2381684.2917136 2.8187364-.941 3.54z" fill="#60a917"/><path id="Shape" d="m23.652 34.73c-.3678449.8607958-1.188213 1.44184-2.1222998 1.5031668-.9340869.0613268-1.8233816-.4074707-2.3006136-1.2127836-.4772321-.8053128-.4614172-1.8104824.0409134-2.6003832.65-1.23 2.551-2.03 3.541-2.38.1629408-.0624998.3448308-.0523415.4997989.0279133s.2682224.2229454.3112011.3920867c.27 1.02.678 3.04.03 4.27z" fill="#60a917"/><g fill="#000"><path id="Shape" d="m8.023 46.813c.007.008.018.011.025.019 2.6250813 2.6674618 6.2109869 4.1696408 9.9535 4.1696408s7.3284187-1.502179 9.9535-4.1696408c.006-.007.015-.009.022-.016.002939-.0065332.0062787-.0128786.01-.019 5.3959155-5.4925959 5.3437128-14.3116269-.1168472-19.7399598s-14.2797456-5.4283329-19.74030561 0c-5.46056003 5.4283329-5.51276272 14.2473639-.11684719 19.7399598.00362026.0051485.0069585.0104897.01.016zm2.451-.48c.7504801-.3185484 1.5796147-.4032393 2.379-.243 1.0497671.2335238 2.1491747.0518421 3.068-.507 1.281252-.7620519 2.876748-.7620519 4.158 0 .9189562.5574937 2.0175184.7390949 3.067.507.8000326-.1605266 1.6298898-.0758331 2.381.243-4.3876753 3.5558891-10.6653247 3.5558891-15.053 0zm7.526-21.333c4.6996439-.007111 8.9695278 2.7338781 10.9197564 7.009777 1.9502287 4.2758989 1.2206736 9.2971219-1.8657564 12.841223-1.302612-.7688073-2.8451459-1.0241134-4.326-.716-.5494267.1215282-1.1245195.0288982-1.608-.259-.6392451-.3830997-1.3454178-.6413397-2.081-.761.2156129-2.0600952.7471753-4.0747032 1.576-5.973.2175576.0477488.4393023.0738758.662.078 1.3760091-.0198322 2.6290529-.7964964 3.259-2.02.756-1.43.446-3.5.055-4.985-.1131774-.4404596-.4070293-.8126782-.8091929-1.0249947s-.8752675-.2450012-1.3028071-.0900053c-1.45.511-3.335 1.423-4.094 2.859-.7332662 1.3584963-.541225 3.0301735.481 4.187-.5973135 1.3540867-1.0696115 2.7599347-1.411 4.2-.391-.545-.791-1.028-1.128-1.41.8604143-1.159964.9719045-2.7130301.286-3.984-.757-1.433-2.642-2.345-4.076-2.85-.4271679-.1600982-.9021525-.1318302-1.3073164.077803-.4051639.2096333-.7026145.581026-.8186836 1.022197-.393 1.488-.7 3.563.053 4.991.6282509 1.2257544 1.8817715 2.0046372 3.259 2.025.3169701-.0052099.6315357-.0560658.934-.151.8554941.9171856 1.5702663 1.9561496 2.121 3.083-.6707788.1284371-1.3138466.3734797-1.9.724-.4838248.2879617-1.0592502.3805877-1.609.259-1.4806552-.3077514-3.0228629-.0520837-4.325.717-3.08509873-3.5446771-3.81357247-8.565454-1.86308844-12.840753s6.21988374-7.0159378 10.91908844-7.009247zm4.757 6.127c.3287116 1.0185692.3325558 2.1141491.011 3.135-.1978986.5473476-.6962024.929506-1.2761449.9786991s-1.1354961-.2435728-1.4227604-.749767c-.2872643-.5061941-.2537204-1.1332719.0859053-1.6059321.6630786-.8426862 1.5727451-1.457288 2.602-1.758zm-7.913 4.757c.3405349.4724559.3748145 1.0999417.0877731 1.6066821-.2870413.5067404-.8428565.7999691-1.4231688.7508142s-1.0788871-.4316948-1.2766043-.9794963c-.3216882-1.0208308-.3178439-2.1164518.011-3.135 1.0285025.3011783 1.9376254.9152994 2.601 1.757z"/><path id="Shape" d="m4 60h28c2.209139 0 4-1.790861 4-4v-52c0-2.209139-1.790861-4-4-4h-28c-2.209139 0-4 1.790861-4 4v52c0 2.209139 1.790861 4 4 4zm28-2h-28c-1.1045695 0-2-.8954305-2-2v-1.556c.60534654.3599241 1.29574677.5518554 2 .556h28c.7042532-.0041446 1.3946535-.1960759 2-.556v1.556c0 1.1045695-.8954305 2-2 2zm-6.309-56-1.283 1.368c-.3778598.40298537-.9055734.63173367-1.458.632h-9.9c-.5526257-.00070589-1.0804819-.22935917-1.459-.632l-1.282-1.368zm-23.691 2c0-1.1045695.8954305-2 2-2h3.567l2.565 2.735c.7567936.80574999 1.8125738 1.2634477 2.918 1.265h9.9c1.1055502-.00095651 2.1615565-.45875227 2.918-1.265l2.565-2.735h3.567c1.1045695 0 2 .8954305 2 2v47c0 1.1045695-.8954305 2-2 2h-28c-1.1045695 0-2-.8954305-2-2z"/><path id="Shape" d="m9.623 12.781c2.3981356-1.8464416 5.3507288-2.82664476 8.377-2.781 3.0262712-.04564476 5.9788644.9345584 8.377 2.781.4313344.3451779 1.060822.2753343 1.406-.156.3451779-.4313344.2753343-1.060822-.156-1.406-2.7538104-2.1286138-6.1466949-3.26309965-9.627-3.219-3.4803051-.04409965-6.8731896 1.0903862-9.627 3.219-.27902444.223291-.41772933.5784781-.36386587.9317659.05386345.3532877.29211211.6510033.62500001.781s.70984144.0725251.98886586-.1507659z"/><path id="Shape" d="m24 17c.4244738.0000936.8027559-.2678013.9435821-.6682335.1408261-.4004322.0135075-.8461395-.3175821-1.1117665-3.921665-2.9594135-9.330335-2.9594135-13.252 0-.4107536.3507413-.4687577.9642746-.1310132 1.3857798.3377446.4215051.9491675.4986385 1.3810132.1742202 3.1910537-2.3734529 7.5609463-2.3734529 10.752 0 .1765737.1427985.3969109.2204815.624.22z"/><path id="Shape" d="m14.375 19.219c-.2896611.219455-.4374673.578778-.3860608.9385299.0514064.3597518.2939329.6632986.6334644.7928456.3395314.129547.7226171.0647004 1.0005964-.1693755 1.4243841-1.0079573 3.3296159-1.0079573 4.754 0 .2779793.2340759.661065.2989225 1.0005964.1693755.3395315-.129547.582058-.4330938.6334644-.7928456.0514065-.3597519-.0963997-.7190749-.3860608-.9385299-2.1434528-1.6251362-5.1065472-1.6251362-7.25 0z"/></g></g></g></svg>