<svg height="512" viewBox="0 0 60 52" width="512" xmlns="http://www.w3.org/2000/svg"><g id="Page-1" fill="none" fill-rule="evenodd"><g id="072---Autonomous-Lawn-Mower" transform="translate(0 -1)"><path id="Shape" d="m52.99 33.82c.04741.5584101-.1404629 1.1112582-.5182913 1.5251607s-.9113009.651272-1.4717087.6548393h-10.83c-1.2923955-.0018905-2.4407424.8241134-2.85 2.05l-.63 1.9c-.4092576 1.2258866-1.5576045 2.0518905-2.85 2.05h-8.84c-.5522847 0-1-.4477153-1-1v-2c.0055198-2.5546905-.8823805-5.0309066-2.51-7h29.4c1.0626957-.0203758 1.9691259.7651971 2.1 1.82z" fill="#008a00" fill-rule="nonzero"/><path id="Shape" d="m34.32 38.05-.63 1.9c-.4092576 1.2258866-1.5576045 2.0518905-2.85 2.0500032l3-.0000032c1.2923955.0018905 2.4407424-.8241134 2.85-2.05l.63-1.9c.4092576-1.2258866 1.5576045-2.0518905 2.85-2.0500032l-3 .0000032c-1.2923955-.0018905-2.4407424.8241134-2.85 2.05z" fill="#007900" fill-rule="nonzero"/><path id="Shape" d="m50.89 32h-3c1.0626957-.0203758 1.9691259.7651971 2.1 1.82.04741.5584101-.1404629 1.1112582-.5182913 1.5251607s-.9113009.651272-1.4717087.6548393h3c.5604078-.0035673 1.0938803-.2409368 1.4717087-.6548393s.5657013-.9667506.5182913-1.5251607c-.1308741-1.0548029-1.0373043-1.8403758-2.1-1.82z" fill="#007900" fill-rule="nonzero"/><path id="Shape" d="m50.89 32h-29.4c-1.9916483-2.4119352-4.915124-3.8629769-8.0404642-3.9908143-3.1253403-.1278375-6.15755703 1.0795952-8.3395358 3.3208143-.17.18-.34.36-.5.55-.17272371.2000433-.4191909.3214862-.68305348.3365641-.26386259.0150778-.52255944-.0774986-.71694652-.2565641l-1.54-1.36c-.42785766-.3809655-.67180586-.9271182-.67-1.5v-1.69c-.00293692-.8461681.53111956-1.601075 1.33-1.88l10.88-3.89c1.1876937-.423221 2.4391541-.6396899 3.7-.64h25.19c2.3693453.0005764 4.5164663 1.3954214 5.48 3.56z" fill="#60a917" fill-rule="nonzero"/><path id="Shape" d="m10 28c-2.88077559.002822-5.64548362 1.1356342-7.7 3.155l.911.8c.19438708.1790655.45308393.2716419.71694652.2565641.26386258-.0150779.51032977-.1365208.68305348-.3365641.16-.19.33-.37.5-.55 1.71681717-1.7532287 3.96863095-2.8847651 6.4-3.216-.50057-.070951-1.0054293-.1073704-1.511-.109z" fill="#549414" fill-rule="nonzero"/><path id="Shape" d="m47.58 24.56c-.9635337-2.1645786-3.1106547-3.5594236-5.48-3.56h-3c2.3693453.0005764 4.5164663 1.3954214 5.48 3.56l3.31 7.44h3z" fill="#549414" fill-rule="nonzero"/><path id="Shape" d="m42 25h-22" stroke="#000" stroke-linecap="round" stroke-linejoin="round" stroke-width="2"/><path id="Shape" d="m20 39c-.0000001 3.8659932-3.1340068 6.9999999-7 6.9999999-3.86599319 0-6.99999992-3.1340067-7-6.9999999.01098565-3.8614337 3.13856631-6.9890143 7-7 3.8641657.0044086 6.9955914 3.1358343 7 7z" fill="#607d8b" fill-rule="nonzero"/><path id="Shape" d="m13 32c-.5045037.0004492-1.0074617.0557746-1.5.165 3.2187486.6973416 5.513296 3.547995 5.5067868 6.8414105-.0065092 3.2934154-2.3123069 6.1349766-5.5337868 6.8195895 2.6240479.5961776 5.3575499-.3646033 7.031524-2.4714649 1.6739741-2.1068617 1.9920447-4.986786.818189-7.4081736-1.1738558-2.4213876-3.6318077-3.955534-6.322713-3.9463615z" fill="#37474f" fill-rule="nonzero"/><circle id="Oval" cx="13" cy="39" fill="#cfd8dc" fill-rule="nonzero" r="2"/><circle id="Oval" cx="44" cy="43" fill="#7f8e94" fill-rule="nonzero" r="3"/><path id="Shape" d="m44 42v-6" stroke="#000" stroke-linecap="round" stroke-linejoin="round" stroke-width="2"/><path id="Shape" d="m24 39 .0000013 2h-4.2900013c.9466707-3.1646492-.4494794-6.5601911-3.348429-8.1436307-2.8989497-1.5834396-6.51045025-.9231341-8.661571 1.5836307l-2.59-3.11c3.12097331-3.2127063 7.8782591-4.2122283 12.0282673-2.5271799 4.1500083 1.6850483 6.863884 5.7181229 6.8617327 10.1971799z" fill="#7f8e94" fill-rule="nonzero"/><path id="Shape" d="m28 38h4" stroke="#000" stroke-linecap="round" stroke-linejoin="round" stroke-width="2"/><g fill-rule="nonzero"><path id="Shape" d="m33 19v2h-6v-2c0-1.6568542 1.3431458-3 3-3s3 1.3431458 3 3z" fill="#ef314c"/><path id="Shape" d="m1 45.778h58v5.222c0 1.1045695-.8954305 2-2 2h-54c-1.1045695 0-2-.8954305-2-2z" fill="#60a917"/><path id="Shape" d="m56 45.778v5.222c0 1.1045695-.8954305 2-2 2h3c1.1045695 0 2-.8954305 2-2v-5.222z" fill="#549414"/><path id="Shape" d="m20 26h22c.5522847 0 1-.4477153 1-1s-.4477153-1-1-1h-22c-.5522847 0-1 .4477153-1 1s.4477153 1 1 1z" fill="#000"/><path id="Shape" d="m13 36c-1.6568542 0-3 1.3431458-3 3s1.3431458 3 3 3 3-1.3431458 3-3-1.3431458-3-3-3zm0 4c-.5522847 0-1-.4477153-1-1s.4477153-1 1-1 1 .4477153 1 1-.4477153 1-1 1z" fill="#000"/><path id="Shape" d="m32 37h-4c-.5522847 0-1 .4477153-1 1s.4477153 1 1 1h4c.5522847 0 1-.4477153 1-1s-.4477153-1-1-1z" fill="#000"/><path id="Shape" d="m59 45h-.707c.2909478-.4580568.68909-.8383513 1.16-1.108.4934664-.2485281.6920281-.8500336.4435-1.3435s-.8500336-.6920281-1.3435-.4435c-1.1548023.6130823-2.0235215 1.6541095-2.42 2.9h-2.076c.0850582-1.5716828.6638702-3.0764541 1.654-4.3.3893607-.391846.387346-1.0251393-.0045-1.4145s-1.0251393-.387346-1.4145.0045c-.8781313 1.0118943-1.510277 2.2132108-1.847 3.51-.305465-.2708102-.6409924-.5056793-1-.7-.4934664-.2485281-1.0949719-.0499664-1.3435.4435s-.0499664 1.0949719.4435 1.3435c.4715671.2694859.8703959.6497804 1.162 1.108h-4.263c.6397084-1.074932.7328945-2.3892138.2512543-3.5436524-.4816401-1.1544386-1.4812651-2.0127916-2.6952543-2.3143476v-2.142h6c.7918715.0063514 1.5524793-.3086442 2.108-.873.6376908-.6235185.9611892-1.5007463.881-2.389-.1410292-1.3162834-1.1171334-2.3902406-2.414-2.656l-3.075-6.925c-1.125636-2.5275936-3.633091-4.156264-6.4-4.157h-8.1v-1c0-2.209139-1.790861-4-4-4s-4 1.790861-4 4v1h-9.095c-1.3755676-.000383-2.7409018.2364192-4.036.7l-10.878 3.885c-1.1935592.4262666-1.99048075 1.5566064-1.991 2.824v1.691c-.00051285.855216.36315354 1.6701924 1 2.241l1.537 1.368c.36866904.3255059.84319787.5057203 1.335.507.046 0 .091 0 .137-.005.37703895-.0261417.73835605-.1612881 1.04-.389l1.364 1.639c-2.31004996 3.3347663-1.74465855 7.872969 1.313 10.539h-6.726c-.55228475 0-1 .4477153-1 1s.44771525 1 1 1h58c.5522847 0 1-.4477153 1-1s-.4477153-1-1-1zm-13-2c.0048769.9718345-.6895703 1.8065122-1.6460817 1.9784772-.9565114.1719649-1.8981977-.3685631-2.2321249-1.2812397-.3339271-.9126767.0365697-1.9333019.8782066-2.4192375v.722c0 .5522847.4477153 1 1 1s1-.4477153 1-1v-.722c.6167513.3544126.997855 1.0106732 1 1.722zm5.694-8.287c-.1830903.1854514-.4334037.2889672-.694.287h-10.835c-1.7253017-.0035829-3.257876 1.1010805-3.8 2.739l-.628 1.891c-.2716816.8185751-1.0375179 1.3707833-1.9 1.37h-8.837v-2c.000513-2.1055022-.5511722-4.174322-1.6-6h27.488c.5466723-.0222991 1.0239637.3670023 1.112.907.0280012.3015136-.0849546.5990376-.306.806zm-30.763 5.287c.3024989-2.2799907-.3967352-4.5793047-1.9173479-6.3048771-1.5206128-1.7255724-3.7137205-2.7084518-6.0136521-2.6951229-1.9233492.0000553-3.78159999.6966773-5.231 1.961l-1.278-1.535c2.03452458-1.7565388 4.6915188-2.6182494 7.3697045-2.3901264 2.6781857.2281229 5.1511626 1.5267949 6.8592955 3.6021264 1.4749131 1.7920206 2.2809234 4.0410722 2.28 6.362l.0000008 1zm7.069-21c0-1.1045695.8954305-2 2-2s2 .8954305 2 2v1h-4zm-24.129 12.217-1.535-1.366c-.21392469-.190998-.33616419-.4642179-.336-.751v-1.691c.00036418-.4224284.26613054-.7990642.664-.941l10.878-3.886c1.0793113-.3854902 2.2169129-.5823633 3.363-.582h25.195c1.9757232.0005396 3.7658564 1.1644397 4.568 2.97l2.681 6.03h-27.423c-2.1943917-2.4620469-5.3085326-3.9080142-8.6054013-3.9956858-3.2968688-.0876716-6.48345753 1.1907443-8.8055987 3.5326858-.014.011-.032.013-.045.025-.04645818.0459954-.08770705.0969696-.123.152-.159.167-.326.326-.476.503zm3.129 7.783c0-3.3137085 2.6862915-6 6-6s6 2.6862915 6 6-2.6862915 6-6 6c-3.31233757-.0033074-5.99669262-2.6876624-6-6zm13.411 3h2.867c.3544126.6167513 1.0106732.997855 1.722 1h8.843c1.7246985.0017095 3.2562894-1.1022451 3.8-2.739l.627-1.891c.2716816-.8185751 1.0375179-1.3707833 1.9-1.37l2.83-.0000008v2.1420008c-1.2139892.301556-2.2136142 1.159909-2.6952543 2.3143476-.4816402 1.1544386-.3884541 2.4687204.2512543 3.5436524h-22.282c.9353746-.8207169 1.6669912-1.8477876 2.137-3z" fill="#000"/><path id="Shape" d="m39 6c-.226899.00035951-.4470919-.07691975-.624-.219-2.3978658-1.84622704-5.35007-2.82641805-8.376-2.781-3.0262712-.04564476-5.9788644.93455837-8.377 2.781-.278788.22578269-.6571601.28492703-.9915513.15499201-.3343913-.12993501-.5735586-.42903779-.6267553-.78382041s.0877292-.71087722.3693066-.9331716c2.7532776-2.12889232 6.1459502-3.26342515 9.626-3.219 3.4800498-.04442515 6.8727224 1.09010768 9.626 3.219.3319233.26542335.4598195.71165099.3188902 1.11260176-.1409294.40095078-.5198935.66902313-.9448902.66839824z" fill="#ef314c"/><path id="Shape" d="m36 10c-.2269263.000521-.4471715-.07677662-.624-.219-3.1913562-2.37477332-7.5626438-2.37477332-10.754 0-.4315746.3407114-1.0572621.2690699-1.4006534-.16037546-.3433912-.42944531-.275646-1.05556663.1516534-1.40162454 3.921665-2.95941353 9.330335-2.95941353 13.252 0 .3317791.26530889.4597225.71128175.3190546 1.1121292-.140668.40084745-.5192416.6690701-.9440546.6688708z" fill="#ef314c"/><path id="Shape" d="m33 14c-.2269263.000521-.4471715-.0767766-.624-.219-1.4236637-1.0079142-3.3283363-1.0079142-4.752 0-.4315746.3407114-1.0572621.2690699-1.4006534-.1603755-.3433912-.4294453-.275646-1.0555666.1516534-1.4016245 2.1434528-1.6251362 5.1065472-1.6251362 7.25 0 .3317791.2653089.4597225.7112818.3190546 1.1121292-.140668.4008475-.5192416.6690701-.9440546.6688708z" fill="#ef314c"/></g></g></g></svg>