<svg height="512" viewBox="0 0 60 60" width="512" xmlns="http://www.w3.org/2000/svg"><g id="Page-1" fill="none" fill-rule="evenodd"><g id="073---Free-Range"><path id="Shape" d="m59 6v6c0 2.7614237-2.2385763 5-5 5h-24c-1.5734155-.0015699-3.0546948-.7422095-4-2-.6529772-.86345-1.0043118-1.9174536-1-3v-6c0-2.76142375 2.2385763-5 5-5h24c1.3260824 0 2.597852.5267842 3.5355339 1.46446609.9376819.9376819 1.4644661 2.20945146 1.4644661 3.53553391z" fill="#f44335" fill-rule="nonzero"/><path id="Shape" d="m54 1h-3c1.3260824 0 2.597852.5267842 3.5355339 1.46446609.9376819.9376819 1.4644661 2.20945146 1.4644661 3.53553391v6c0 2.7614237-2.2385763 5-5 5h3c2.7614237 0 5-2.2385763 5-5v-6c0-1.32608245-.5267842-2.59785201-1.4644661-3.53553391-.9376819-.93768189-2.2094515-1.46446609-3.5355339-1.46446609z" fill="#c81e1e" fill-rule="nonzero"/><path id="Shape" d="m45 50v6c0 1.6568542-1.3431458 3-3 3h-38c-1.65685425 0-3-1.3431458-3-3v-6z" fill="#a0522d" fill-rule="nonzero"/><path id="Shape" d="m42 50v6c0 1.6568542-1.3431458 3-3 3h3c1.6568542 0 3-1.3431458 3-3v-6z" fill="#783e22" fill-rule="nonzero"/><path id="Shape" d="m45 18 .0000537 32h-44.0000537v-32c0-1.6568542 1.34314575-3 3-3h22c.9453052 1.2577905 2.4265845 1.9984301 4 2h14.82c.1211006.3193958.1821256.6584234.18 1z" fill="#00bcd4" fill-rule="nonzero"/><path id="Shape" d="m44.82 17h-3c.1211006.3193958.1821256.6584234.18 1v32h3v-32c.0021256-.3415766-.0588994-.6806042-.18-1z" fill="#00838f" fill-rule="nonzero"/><path id="Shape" d="m32 36.13v.87c-.0065509 4.264612-3.0052435 7.9391607-7.1819431 8.8006352-4.1766997.8614746-8.3846131-1.3266595-10.0780569-5.2406352-2.661038-1.0793953-4.184199-3.8929489-3.6332225-6.7112182.5509765-2.8182694 3.0216006-4.8510311 5.8932225-4.8487818.5522847 0 1 .4477153 1 1-.0015617 1.2430619.4621945 2.4416933 1.3 3.36.8760128-.2586929 1.7868105-.3801326 2.7-.36 1.091316-.0381655 2.1792634.1420257 3.2.53-.1710981.2258956-.2331615.5160572-.1694411.7921787.0637203.2761216.2466571.5097446.4994411.6378213 1.9263955 1.0091547 4.10576 1.4332096 6.27 1.22.0688936-.0059717.1364013-.0228486.2-.05z" fill="#ffeb3a" fill-rule="nonzero"/><path id="Shape" d="m15 30c-.0015617 1.2430619.4621945 2.4416933 1.3 3.36.8760128-.2586929 1.7868105-.3801326 2.7-.36h.028c-.6625885-.8600979-1.0238237-1.9142862-1.028-3 0-.5522847-.4477153-1-1-1-.753596.0014246-1.5000971.1456351-2.2.425.1263926.1653733.1964843.3668869.2.575z" fill="#fdd834" fill-rule="nonzero"/><path id="Shape" d="m28.8 36.18c.0688936-.0059717.1364013-.0228486.2-.05v.87c-.004447 4.3882811-3.1730939 8.1336217-7.5 8.865 2.6133517.4584974 5.2954575-.2657675 7.3227917-1.9774168 2.0273342-1.7116492 3.1910446-4.234352 3.1772083-6.8875832v-.87c-.0635987.0271514-.1311064.0440283-.2.05" fill="#fdd834" fill-rule="nonzero"/><path id="Shape" d="m14.74 40.56c-.2239363-.5017418-.3981039-1.0242448-.52-1.56" fill="#f44335" fill-rule="nonzero"/><path id="Shape" d="m31.81 31.81.82 3.18c.1299591.4874923-.1480973.9906419-.63 1.14-.0635987.0271514-.1311064.0440283-.2.05-2.16424.2132096-4.3436045-.2108453-6.27-1.22-.252784-.1280767-.4357208-.3616997-.4994411-.6378213-.0637204-.2761215-.001657-.5662831.1694411-.7921787.054634-.0811354.1262976-.1493864.21-.2.2043471-.1396534.4012806-.2898569.59-.45 1.3460808-1.2280405 2.0785388-2.9896021 2-4.81-.0018842-.3735637.0694604-.7438757.21-1.09.4045972-1.1018723 1.4104678-1.8699208 2.58-1.97.7291338-.0576227 1.453399.1600136 2.03.61.8198064.6273288 1.2594985 1.6320828 1.1640248 2.6599489s-.712701 1.9344478-1.6340248 2.4000511c-.4341106.1918811-.6634029.6716965-.54 1.13z" fill="#ffeb3a" fill-rule="nonzero"/><path id="Shape" d="m18 34c.3796488-.3084459.8240254-.5272159 1.3-.64" fill="#f44335" fill-rule="nonzero"/><path id="Shape" d="m23 50v9" stroke="#000" stroke-linecap="round" stroke-linejoin="round" stroke-width="2"/><path id="Shape" d="m16 50-2 9" stroke="#000" stroke-linecap="round" stroke-linejoin="round" stroke-width="2"/><path id="Shape" d="m10 50-4 9" stroke="#000" stroke-linecap="round" stroke-linejoin="round" stroke-width="2"/><path id="Shape" d="m30 50 2 9" stroke="#000" stroke-linecap="round" stroke-linejoin="round" stroke-width="2"/><path id="Shape" d="m36 50 4 9" stroke="#000" stroke-linecap="round" stroke-linejoin="round" stroke-width="2"/><path id="Shape" d="m23 45.998v4.002" stroke="#000" stroke-linecap="round" stroke-linejoin="round" stroke-width="2"/><g fill-rule="nonzero"><path id="Shape" d="m32.82 25.62c-.576601-.4499864-1.3008662-.6676227-2.03-.61-1.1695322.1000792-2.1754028.8681277-2.58 1.97-1.1386065-.1306461-2.0414574-1.0207551-2.1882727-2.1573898-.1468153-1.1366346.5002322-2.2269389 1.5682727-2.6426102.3325879-.1361942.69104-.1976431 1.05-.18.4610065.0240876.9142524-.1258048 1.27-.42.7152286-.6223413 1.7209503-.7865543 2.596986-.4240327.8760358.3625216 1.4716273 1.1893909 1.5379431 2.1351513.0663159.9457604-.4080562 1.8476546-1.2249291 2.3288814z" fill="#f44335"/><path id="Shape" d="m54 0h-24c-3.3123376.00330738-5.9966926 2.68766243-6 6v6c.0017308.6817505.1201056 1.3581781.35 2h-20.35c-2.209139 0-4 1.790861-4 4v38c0 2.209139 1.790861 4 4 4h38c2.209139 0 4-1.790861 4-4v-38h8c3.3123376-.0033074 5.9966926-2.6876624 6-6v-6c-.0033074-3.31233757-2.6876624-5.99669262-6-6zm-52 56v-5h6.461l-3.111 7h-1.35c-1.1045695 0-2-.8954305-2-2zm13.666-15.81c-.007-.016-.015-.031-.023-.047-.1907631-.4406862-.3407239-.897933-.448-1.366-.0584057-.2595959-.2178629-.4852105-.4430799-.6269095-.2252169-.141699-.4976202-.1877967-.7569201-.1280905-.2520401.0579414-.4715752.2118312-.612.429-1.3808319-1.44769-1.7657799-3.5791168-.978588-5.4183644.7871919-1.8392477 2.5949624-3.0321982 4.595588-3.0326356.0048772 1.0274089.2745561 2.036208.783 2.929-.1757208.1037019-.3399694.2257152-.49.364-.2796777.2867698-.3598937.7133933-.2034735 1.0821606.1564202.3687672.5189071.6076092.9194735.6058394.2471524.0006152.4861878-.0881796.673-.25.2860681-.1942539.603334-.3380045.938-.425l.018-.005c.7682272-.2160403 1.5641433-.3174673 2.362-.301.6746923-.0086633 1.3481353.0604594 2.007.206.0399834.6950821.4410308 1.3184699 1.057 1.643.6216258.3167056 1.2693477.5793408 1.936.785v.187c.0437241 1.7581958-1.0366316 3.3491773-2.687 3.957-1.9004783.664681-3.998445-.1902844-4.893-1.994l2.857-.825c.5307456-.1529829.8369829-.7072544.684-1.238s-.7072544-.8369829-1.238-.684l-2.858.825c-.5749388.1660642-1.0457787.5800323-1.2840816 1.1289801-.238303.5489478-.219206 1.1756016.0520816 1.7090199 1.0365379 2.0276485 3.1227731 3.30257 5.4 3.3.6546946.0004388 1.3050166-.1066532 1.925-.317 2.3654973-.8509522 3.963529-3.0697562 4.021-5.583.571361.0863738 1.1481623.1318228 1.726.136.094 0 .189-.011.284-.013-.1023213 3.7456637-2.7926301 6.9176203-6.4713628 7.6299351-3.6787326.7123148-7.3585816-1.226185-8.8516372-4.6629351zm11.609-14.827c-.2676958-.3748354-.3469827-.8524067-.2147706-1.2936352.1322121-.4412284.4610579-.7965047.8907706-.9623648.2012924-.0779323.4162725-.1143292.632-.107.7148506.0424171 1.4185698-.192156 1.965-.655.3907376-.3250731.9190865-.4311189 1.405-.282.4657123.1421556.8317932.5041505.9791669.9682379s.0572087.9709659-.2411669 1.3557621c-.6140955-.2971814-1.2955771-.4275458-1.976-.378-1.2162773.0983049-2.3198724.7502114-2.993 1.768-.175314-.10655-.3273436-.2473559-.447-.414zm1.725 2.72c.0013512-1.0641527.8006264-1.9580676 1.858-2.078h.15c.9254992.0042077 1.7272229.6428593 1.9382327 1.5439926.2110098.9011334-.2238183 1.8293366-1.0512327 2.2440074-.8646782.4072076-1.3070564 1.380863-1.045 2.3l.849 3.1c-1.9692994.1759946-3.9498161-.178261-5.736-1.026.2444164-.1618939.4782271-.339256.7-.531 1.5578575-1.4171526 2.4126982-3.4483596 2.337-5.553zm6.35 22.917 3.111 7h-5.661l-1.556-7zm-6.15 0 1.556 7h-6.756v-7zm-7.2 7h-6.754l1.554-7h5.2zm-8.8 0h-5.661l3.111-7h4.1zm28.8 0h-1.35l-3.111-7h6.461v5c0 1.1045695-.8954305 2-2 2zm2-9h-20v-2.053c5.1058564-.5192101 8.9925027-4.8148179 9-9.947v-.31c.5567685-.4837196.789559-1.2422285.6-1.955l-.823-3.177s.023.03.019.017c1.0338669-.5144368 1.7911738-1.455134 2.073-2.575h1.131c.5522847 0 1-.4477153 1-1s-.4477153-1-1-1h-1.143c-.1197868-.4781872-.3269335-.9301128-.611-1.333 1.1134196-1.4044275.984042-3.4234684-.2995232-4.6743002-1.2835653-1.2508317-3.3052742-1.3280202-4.6804768-.1786998-.1562407.136529-.3598709.2062014-.567.194-1.6823384-.1117755-3.2031755.9975074-3.6106554 2.6335748-.4074798 1.6360673.4154155 3.3290816 1.9536554 4.0194252-.0210195.1345149-.0350384.2700308-.042.406.0720575 1.5307427-.5337094 3.0155301-1.656 4.059-.12.1-.236.185-.352.268-.97238-.2784824-1.9806754-.4112592-2.992-.394-.7754047-.005675-1.549278.069735-2.309.225-.4476183-.6558949-.6883135-1.4309263-.691-2.225.0010373-1.0710964-.8419404-1.9528722-1.912-2-.0293137-.0015177-.0586863-.0015177-.088 0-3.2639837-.0047201-6.0965993 2.2503912-6.8235585 5.4323941-.72695914 3.1820028.8453432 6.4434601 3.7875585 7.8566059 1.4910632 3.1728537 4.5460949 5.323085 8.036 5.656v2.055h-20v-31c0-1.1045695.8954305-2 2-2h21.54c1.1341242 1.2712357 2.7563932 1.9987106 4.46 2h14zm14-37c0 2.209139-1.790861 4-4 4h-24c-2.209139 0-4-1.790861-4-4v-6c0-2.209139 1.790861-4 4-4h24c2.209139 0 4 1.790861 4 4z" fill="#000"/><path id="Shape" d="m31 11v-5c-.0000863-.4043959-.2437275-.76893405-.6173454-.92367798-.373618-.15474393-.8036603-.06922994-1.0896546.21667798l-1 1c-.2859079.28599425-.3714219.71603662-.216678 1.08965456s.5192821.61725909.923678.61734544v3c-.5522847 0-1 .4477153-1 1s.4477153 1 1 1h2c.5522847 0 1-.4477153 1-1s-.4477153-1-1-1z" fill="#f5f5f5"/><path id="Shape" d="m36 5c-1.6568542 0-3 1.34314575-3 3v2c0 1.6568542 1.3431458 3 3 3s3-1.3431458 3-3v-2c0-1.65685425-1.3431458-3-3-3zm1 5c0 .5522847-.4477153 1-1 1s-1-.4477153-1-1v-2c0-.55228475.4477153-1 1-1s1 .44771525 1 1z" fill="#f5f5f5"/><path id="Shape" d="m44 5c-1.6568542 0-3 1.34314575-3 3v2c0 1.6568542 1.3431458 3 3 3s3-1.3431458 3-3v-2c0-1.65685425-1.3431458-3-3-3zm1 5c0 .5522847-.4477153 1-1 1s-1-.4477153-1-1v-2c0-.55228475.4477153-1 1-1s1 .44771525 1 1z" fill="#f5f5f5"/><path id="Shape" d="m55.64 5.231c-.4242059-.35329793-1.0544578-.2960023-1.408.128l-5 6c-.3540145.4241547-.2971547 1.0549855.127 1.409s1.0549855.2971547 1.409-.127l5-6c.1702908-.20383087.2524965-.46703445.2284836-.7315517-.0240129-.26451726-.1522715-.50861487-.3564836-.6784483z" fill="#f5f5f5"/><circle id="Oval" cx="50" cy="6" fill="#f5f5f5" r="1"/><circle id="Oval" cx="55" cy="12" fill="#f5f5f5" r="1"/><path id="Shape" d="m40 28.25c-.5047125-.0005564-.929899-.377126-.9914367-.8780733-.0615377-.5009472.259865-.9692298.7494367-1.0919267l1-.25c.5339666-.1297214 1.072566.1957027 1.2060974.7287292.1335314.5330266-.1880381 1.0739362-.7200974 1.2112708l-1 .25c-.0798352.0197527-.1617577.0298251-.244.03z" fill="#f5f5f5"/><path id="Shape" d="m6 46c-.46842924.0057459-.87806423-.3144677-.98557503-.7704286-.10751079-.455961.11592176-.9254452.53757503-1.1295714l4-2c.4942949-.2468713 1.0951287-.0462949 1.342.448s.0462949 1.0951287-.448 1.342l-4 2c-.1381167.0707786-.29081172.1084388-.446.11z" fill="#f5f5f5"/><path id="Shape" d="m5 40c-.48962048-.0011079-.90643367-.3565688-.98483412-.8398729s.20467147-.9522988.66883412-1.1081271l3-1c.33940231-.1128959.71325224-.0361471.98072413.201336.2674719.237483.38793042.599621.316.95-.07193041.350379-.32532182.6357681-.66472413.748664l-3 1c-.10207852.032839-.20877441.0490459-.316.048z" fill="#f5f5f5"/><path id="Shape" d="m13 24c-.3346327.0003846-.6472789-.1666353-.833-.445l-2-3c-.19828242-.297245-.22292462-.6776931-.0646441-.9980332.1582805-.32034.4754371-.5319049.832-.555s.6983617.1457882.8966441.4430332l2 3c.2046328.3067094.2238907.701139.05011 1.0263244s-.5124026.5283622-.88111.5286756z" fill="#f5f5f5"/><path id="Shape" d="m9 29c-.19719163-.000153-.38993657-.0586028-.554-.168l-3-2c-.29724497-.1982824-.46612825-.5400812-.44303314-.8966441.02309512-.3565629.23465992-.6737195.555-.832.32034009-.1582805.70078817-.1336383.99803314.0646441l3 2c.36681022.2445875.5301634.700538.40212681 1.122414-.12803661.4218761-.51724987.7101263-.95812681.709586z" fill="#f5f5f5"/><path id="Shape" d="m7 34h-2c-.55228475 0-1-.4477153-1-1s.44771525-1 1-1h2c.55228475 0 1 .4477153 1 1s-.44771525 1-1 1z" fill="#f5f5f5"/><path id="Shape" d="m40 46c-.1273904.000244-.2536543-.0238547-.372-.071l-5-2c-.5130725-.2054499-.7624499-.7879275-.557-1.301.20545-.5130725.7879275-.7624499 1.301-.557l5 2c.4459179.1776349.702724.6470461.6118332 1.118359-.0908908.4713128-.5038373.811565-.9838332.810641z" fill="#f5f5f5"/><path id="Shape" d="m41 40c-.0822423-.0001749-.1641648-.0102473-.244-.03l-4-1c-.5320593-.1373346-.8536288-.6782442-.7200974-1.2112708.1335314-.5330265.6721308-.8584506 1.2060974-.7287292l4 1c.4895717.1226969.8109744.5909795.7494367 1.0919267-.0615377.5009473-.4867242.8775169-.9914367.8780733z" fill="#f5f5f5"/><path id="Shape" d="m41 34h-2c-.5522847 0-1-.4477153-1-1s.4477153-1 1-1h2c.5522847 0 1 .4477153 1 1s-.4477153 1-1 1z" fill="#f5f5f5"/><path id="Shape" d="m19 23c-.5522847 0-1-.4477153-1-1v-3c0-.5522847.4477153-1 1-1s1 .4477153 1 1v3c0 .5522847-.4477153 1-1 1z" fill="#f5f5f5"/><path id="Shape" d="m39 24c-.4043959-.0000863-.7689341-.2437275-.923678-.6173454-.1547439-.373618-.0692299-.8036603.216678-1.0896546l2-2c.3923789-.3789722 1.0160848-.3735524 1.4018186.0121814s.3911536 1.0094397.0121814 1.4018186l-2 2c-.1874927.1875494-.4418052.2929434-.707.293z" fill="#f5f5f5"/></g></g></g></svg>