<svg height="512" viewBox="0 0 60 60" width="512" xmlns="http://www.w3.org/2000/svg"><g id="Page-1" fill="none" fill-rule="evenodd"><g id="074---Farm-Shop"><g fill-rule="nonzero"><rect id="Rectangle-path" fill="#9e9e9e" height="4" rx="1" width="52" x="4" y="22"/><path id="Shape" d="m55 22h-3c.5522847 0 1 .4477153 1 1v2c0 .5522847-.4477153 1-1 1h3c.5522847 0 1-.4477153 1-1v-2c0-.5522847-.4477153-1-1-1z" fill="#707070"/><rect id="Rectangle-path" fill="#9e9e9e" height="4" rx="1" width="58" x="1" y="55"/><path id="Shape" d="m58 55h-3c.5522847 0 1 .4477153 1 1v2c0 .5522847-.4477153 1-1 1h3c.5522847 0 1-.4477153 1-1v-2c0-.5522847-.4477153-1-1-1z" fill="#707070"/><path id="Shape" d="m12 26v2c0 1.6568542-1.3431458 3-3 3-1.65434893-.0060328-2.99396717-1.3456511-3-3v-2z" fill="#f44335"/><path id="Shape" d="m54 26v2c-.0060328 1.6543489-1.3456511 2.9939672-3 3-1.6568542 0-3-1.3431458-3-3v-2z" fill="#f5f5f5"/><path id="Shape" d="m48 26v2c0 1.6568542-1.3431458 3-3 3s-3-1.3431458-3-3v-2z" fill="#f44335"/><path id="Shape" d="m26.4 22h-16.4v-10c.0032948-1.1032019.8967981-1.9967052 2-2h11.53c-1.6494511 1.3426964-2.583769 3.3738224-2.53 5.5 0 3.59 2.42 6.5 5.4 6.5z" fill="#60a917"/><path id="Shape" d="m50 12v10h-16.4c2.98 0 5.4-2.91 5.4-6.5.053769-2.1261776-.8805489-4.1573036-2.53-5.5h11.53c1.1032019.0032948 1.9967052.8967981 2 2z" fill="#60a917"/><path id="Shape" d="m48 10h-3c1.1032019.0032948 1.9967052.8967981 2 2v10h3v-10c-.0032948-1.1032019-.8967981-1.9967052-2-2z" fill="#549414"/><path id="Shape" d="m39 15.5c0 3.59-2.42 6.5-5.4 6.5h-7.2c-2.98 0-5.4-2.91-5.4-6.5-.053769-2.1261776.8805489-4.1573036 2.53-5.5.82014-.64084155 1.8292069-.9924328 2.87-1 .8459511.00159386 1.6755469.23318938 2.4.67.7395109.4399603 1.6604891.4399603 2.4 0 .7244531-.43681062 1.5540489-.66840614 2.4-.67 1.0407931.0075672 2.04986.35915845 2.87 1 1.6494511 1.3426964 2.583769 3.3738224 2.53 5.5z" fill="#f44335"/><path id="Shape" d="m36.47 10c-.82014-.64084155-1.8292069-.9924328-2.87-1-.5089994.00291622-1.0139405.09079085-1.494.26.4904071.17417821.9506151.42385117 1.364.74 1.6494511 1.3426964 2.583769 3.3738224 2.53 5.5 0 3.59-2.42 6.5-5.4 6.5h3c2.98 0 5.4-2.91 5.4-6.5.053769-2.1261776-.8805489-4.1573036-2.53-5.5z" fill="#c81e1e"/><path id="Shape" d="m37 1h2v1c0 1.65685425-1.3431458 3-3 3h-2v-1c0-1.65685425 1.3431458-3 3-3z" fill="#60a917"/><path id="Shape" d="m18 26v2c0 1.6568542-1.3431458 3-3 3s-3-1.3431458-3-3v-2z" fill="#f5f5f5"/><path id="Shape" d="m24 26v2c0 1.6568542-1.3431458 3-3 3s-3-1.3431458-3-3v-2z" fill="#f44335"/><path id="Shape" d="m30 26v2c0 1.6568542-1.3431458 3-3 3s-3-1.3431458-3-3v-2z" fill="#f5f5f5"/><path id="Shape" d="m36 26v2c0 1.6568542-1.3431458 3-3 3s-3-1.3431458-3-3v-2z" fill="#f44335"/><path id="Shape" d="m42 26v2c0 1.6568542-1.3431458 3-3 3s-3-1.3431458-3-3v-2z" fill="#f5f5f5"/><path id="Shape" d="m53 30.23v24.77h-46v-24.77c.54734498.4970501 1.26064724.7716714 2 .77 1.6568542 0 3-1.3431458 3-3 0 1.6568542 1.3431458 3 3 3s3-1.3431458 3-3c0 1.6568542 1.3431458 3 3 3s3-1.3431458 3-3c0 1.6568542 1.3431458 3 3 3s3-1.3431458 3-3c0 1.6568542 1.3431458 3 3 3s3-1.3431458 3-3c0 1.6568542 1.3431458 3 3 3s3-1.3431458 3-3c0 1.6568542 1.3431458 3 3 3s3-1.3431458 3-3c0 1.6568542 1.3431458 3 3 3 .7393528.0016714 1.452655-.2729499 2-.77z" fill="#a4c400"/><path id="Shape" d="m51 31c-.3413432-.0033915-.6795774-.0652883-1-.183v24.183h3v-24.77c-.547345.4970501-1.2606472.7716714-2 .77z" fill="#90ac00"/><path id="Shape" d="m48 49-2 6h-4l-2-6z" fill="#ff9801"/><path id="Shape" d="m45 49-2 6h3l2-6z" fill="#f57c00"/></g><path id="Shape" d="m49 49h-10" stroke="#000" stroke-linecap="round" stroke-linejoin="round" stroke-width="2"/><path id="Shape" d="m44 49v-4" stroke="#000" stroke-linecap="round" stroke-linejoin="round" stroke-width="2"/><path id="Shape" d="m47.4 37.665c-.4901218-.1876674-.8773326-.5748782-1.065-1.065-.3701702-.9677164-1.298901-1.6068175-2.335-1.6068175s-1.9648298.6391011-2.335 1.6068175c-.1876674.4901218-.5748782.8773326-1.065 1.065-.9677164.3701702-1.6068175 1.298901-1.6068175 2.335s.6391011 1.9648298 1.6068175 2.335c.4901218.1876674.8773326.5748782 1.065 1.065.3701702.9677164 1.298901 1.6068175 2.335 1.6068175s1.9648298-.6391011 2.335-1.6068175c.1876674-.4901218.5748782-.8773326 1.065-1.065.9677164-.3701702 1.6068175-1.298901 1.6068175-2.335s-.6391011-1.9648298-1.6068175-2.335z" fill="#ffdc00" fill-rule="nonzero"/><path id="Shape" d="m47.4 37.665c-.4901218-.1876674-.8773326-.5748782-1.065-1.065-.2793668-.7335388-.8878916-1.2926685-1.6424035-1.5090865s-1.566888-.0648479-2.1925965.4090865c.3756377.2814531.6649038.6625222.835 1.1.1876674.4901218.5748782.8773326 1.065 1.065.9677164.3701702 1.6068175 1.298901 1.6068175 2.335s-.6391011 1.9648298-1.6068175 2.335c-.4901218.1876674-.8773326.5748782-1.065 1.065-.1700962.4374778-.4593623.8185469-.835 1.1.6257085.4739344 1.4380846.6255045 2.1925965.4090865s1.3630367-.7755477 1.6424035-1.5090865c.1876674-.4901218.5748782-.8773326 1.065-1.065.9677164-.3701702 1.6068175-1.298901 1.6068175-2.335s-.6391011-1.9648298-1.6068175-2.335z" fill="#fec108" fill-rule="nonzero"/><circle id="Oval" cx="44" cy="40" fill="#000" fill-rule="nonzero" r="1"/><path id="Rectangle-path" d="m12 50h6v5h-6z" fill="#a0522d" fill-rule="nonzero"/><path id="Shape" d="m18 35v20h-6v-19c0-.5522847.4477153-1 1-1z" fill="#00bcd4" fill-rule="nonzero"/><path id="Rectangle-path" d="m15 35h3v20h-3z" fill="#00838f" fill-rule="nonzero"/><path id="Shape" d="m34 36v19h-6v-20h5c.5522847 0 1 .4477153 1 1z" fill="#00bcd4" fill-rule="nonzero"/><path id="Shape" d="m33 35h-3c.5522847 0 1 .4477153 1 1v19h3v-19c0-.5522847-.4477153-1-1-1z" fill="#00838f" fill-rule="nonzero"/><path id="Rectangle-path" d="m18 35h10v20h-10z" fill="#a0522d" fill-rule="nonzero"/><path id="Rectangle-path" d="m25 35h3v20h-3z" fill="#783e22" fill-rule="nonzero"/><path id="Shape" d="m58 54h-4v-23.382c.6408252-.7218919.9963733-1.6527168 1-2.618v-1c1.1045695 0 2-.8954305 2-2v-2c0-1.1045695-.8954305-2-2-2h-4v-9c0-1.6568542-1.3431458-3-3-3h-11.221c-1.7069355-1.19641437-3.9421859-1.3294696-5.779-.344v-.53c.3579519-1.33836103 1.618641-2.23176935 3-2.126h2c2.209139 0 4-1.790861 4-4v-1c0-.55228475-.4477153-1-1-1h-2c-2.209139 0-4 1.790861-4 4v.086c-.7167799.11257639-1.399771.38235789-2 .79v-3.876c0-.55228475-.4477153-1-1-1s-1 .44771525-1 1v7.656c-1.8368141-.9854696-4.0720645-.85241437-5.779.344h-11.221c-1.6568542 0-3 1.3431458-3 3v9h-4c-1.1045695 0-2 .8954305-2 2v2c0 1.1045695.8954305 2 2 2v1c.0036267.9652832.35917479 1.8961081 1 2.618v23.382h-4c-1.1045695 0-2 .8954305-2 2v2c0 1.1045695.8954305 2 2 2h56c1.1045695 0 2-.8954305 2-2v-2c0-1.1045695-.8954305-2-2-2zm-21-52h1c0 1.1045695-.8954305 2-2 2h-1c0-1.1045695.8954305-2 2-2zm16 26c0 1.1045695-.8954305 2-2 2s-2-.8954305-2-2v-1h4zm-40-1h4v1c0 1.1045695-.8954305 2-2 2s-2-.8954305-2-2zm6 0h4v1c0 1.1045695-.8954305 2-2 2s-2-.8954305-2-2zm6 0h4v1c0 1.1045695-.8954305 2-2 2s-2-.8954305-2-2zm6 0h4v1c0 1.1045695-.8954305 2-2 2s-2-.8954305-2-2zm6 0h4v1c0 1.1045695-.8954305 2-2 2s-2-.8954305-2-2zm6 0h4v1c0 1.1045695-.8954305 2-2 2s-2-.8954305-2-2zm6-15v9h-11.064c1.3519961-1.5104663 2.0884746-3.4729818 2.064-5.5.0089492-1.5927471-.4394738-3.1545921-1.292-4.5h9.292c.5522847 0 1 .4477153 1 1zm-20.719-1.47c1.060119.6274381 2.377881.6274381 3.438 0 .5665138-.3458631 1.2172542-.529219 1.881-.53 2.426 0 4.4 2.468 4.4 5.5s-1.974 5.5-4.4 5.5h-7.2c-2.426 0-4.4-2.468-4.4-5.5s1.974-5.5 4.4-5.5c.6637458.000781 1.3144862.1841369 1.881.53zm-17.281 1.47c0-.5522847.4477153-1 1-1h9.292c-.8525262 1.3454079-1.3009492 2.9072529-1.292 4.5-.0244746 2.0270182.7120039 3.9895337 2.064 5.5h-11.064zm-6 11h50v2h-50zm6 4v1c0 1.1045695-.8954305 2-2 2s-2-.8954305-2-2v-1zm-3 4.858c.32585845.0900507.66195413.1377763 1 .142 1.1487161.0006041 2.2419626-.4939077 3-1.357.7584679.862488 1.8514535 1.3568141 3 1.3568141s2.2415321-.4943261 3-1.3568141c.7584679.862488 1.8514535 1.3568141 3 1.3568141s2.2415321-.4943261 3-1.3568141c.7584679.862488 1.8514535 1.3568141 3 1.3568141s2.2415321-.4943261 3-1.3568141c.7584679.862488 1.8514535 1.3568141 3 1.3568141s2.2415321-.4943261 3-1.3568141c.7584679.862488 1.8514535 1.3568141 3 1.3568141s2.2415321-.4943261 3-1.3568141c.7584679.862488 1.8514535 1.3568141 3 1.3568141s2.2415321-.4943261 3-1.3568141c.7580374.8630923 1.8512839 1.3576041 3 1.357.3380459-.0042237.6741416-.0519493 1-.142v22.142h-4.612l1.333-4h.279c.5522847 0 1-.4477153 1-1s-.4477153-1-1-1h-4v-2.151c1.0384996-.3118275 1.8754803-1.0846237 2.269-2.095.0864737-.2225438.2624562-.3985263.485-.485 1.354803-.5182383 2.2495445-1.8184614 2.2495445-3.269s-.8947415-2.7507617-2.2495445-3.269c-.2225438-.0864737-.3985263-.2624562-.485-.485-.5182383-1.354803-1.8184614-2.2495445-3.269-2.2495445s-2.7507617.8947415-3.269 2.2495445c-.0864737.2225438-.2624562.3985263-.485.485-1.354803.5182383-2.2495445 1.8184614-2.2495445 3.269s.8947415 2.7507617 2.2495445 3.269c.2225438.0864737.3985263.2624562.485.485.3939013 1.0101161 1.2307294 1.7827713 2.269 2.095v2.151h-4c-.5522847 0-1 .4477153-1 1s.4477153 1 1 1h.279l1.333 4h-5.612v-18c0-1.1045695-.8954305-2-2-2h-20c-1.1045695 0-2 .8954305-2 2v18h-3zm34.721 22.142-1.333-4h5.224l-1.333 4zm1.279-10c-.6202275-.0027797-1.1755877-.3847881-1.4-.963-.2895932-.752626-.884374-1.3474068-1.637-1.637-.579263-.2228162-.9614835-.7793611-.9614835-1.4s.3822205-1.1771838.9614835-1.4c.752626-.2895932 1.3474068-.884374 1.637-1.637.2228162-.579263.7793611-.9614835 1.4-.9614835s1.1771838.3822205 1.4.9614835c.2895932.752626.884374 1.3474068 1.637 1.637.579263.2228162.9614835.7793611.9614835 1.4s-.3822205 1.1771838-.9614835 1.4c-.752626.2895932-1.3474068.884374-1.637 1.637-.2244123.5782119-.7797725.9602203-1.4.963zm-25 10v-18h8v18zm-6 0v-3h4v3zm4-10h-4v-3h4zm-4 2h4v3h-4zm4-7h-4v-3h4zm16-3v3h-4v-3zm0 8h-4v-3h4zm-4 2h4v3h-4zm0 5h4v3h-4zm-27 7v-2h56v2z" fill="#000" fill-rule="nonzero"/><path id="Shape" d="m25.446 18.691c.2976022.1979251.6781899.2220466.9983992.0632781s.5313929-.4763064.554-.833c.0226071-.3566937-.146797-.698353-.4443992-.8962781-.3960497-.4045897-.598016-.9605438-.554-1.525-.0055602-.3700438.0705825-.7367579.223-1.074.2220399-.4971195.005582-1.0805204-.4869755-1.3125044-.4925576-.231984-1.0801901-.0272924-1.3220245.4605044-.2773968.6039295-.418728 1.2614269-.414 1.926-.0573977 1.2339658.4803397 2.4206324 1.446 3.191z" fill="#000" fill-rule="nonzero"/><circle id="Oval" cx="44" cy="40" fill="#000" fill-rule="nonzero" r="1"/><circle id="Oval" cx="22" cy="44" fill="#000" fill-rule="nonzero" r="1"/><path id="Shape" d="m26 18.858c-.1968186.0004253-.3893153-.0577066-.553-.167-.9660347-.7701603-1.5041587-1.9568595-1.447-3.191-.004728-.6645731.1366032-1.3220705.414-1.926.2418344-.4877968.8294669-.6924884 1.3220245-.4605044.4925575.231984.7090154.8153849.4869755 1.3125044-.1524175.3372421-.2285602.7039562-.223 1.074-.044016.5644562.1579503 1.1204103.554 1.525.367452.2440589.5315832.7000576.4039624 1.1223119s-.5168438.711009-.9579624.7106881z" fill="#f5f5f5" fill-rule="nonzero"/></g></g></svg>