<svg height="512" viewBox="0 0 60 60" width="512" xmlns="http://www.w3.org/2000/svg"><g id="Page-1" fill="none" fill-rule="evenodd"><g id="075---Berry-Picking-Robot"><g fill-rule="nonzero"><path id="Shape" d="m17 56v3h-14v-3c0-.5522847.44771525-1 1-1h12c.5522847 0 1 .4477153 1 1z" fill="#3f51b5"/><path id="Shape" d="m16 55h-3c.5522847 0 1 .4477153 1 1v3h3v-3c0-.5522847-.4477153-1-1-1z" fill="#283593"/><path id="Shape" d="m14 50v5h-8v-5c.00822528-2.205723 1.79427701-3.9917747 4-4 .2484091-.001979.4963682.0214766.74.07 1.8902092.3558308 3.2595412 2.00659 3.26 3.93z" fill="#02a9f4"/><path id="Shape" d="m10.74 46.07c-.2436318-.0485234-.4915909-.071979-.74-.07-.51139646.0026772-1.01741484.1045601-1.49.3 1.50687.6101505 2.4921957 2.0742891 2.49 3.7v5h3v-5c-.0004588-1.92341-1.3697908-3.5741692-3.26-3.93z" fill="#0377bc"/><path id="Shape" d="m7 30.97v4.03c.00041109.1095007-.01994865.218086-.06.32-.13638721.4038376-.51376497.6768343-.94.68h-4c-.55228475 0-1-.4477153-1-1v-4c0-.5522847.44771525-1 1-1h4c.54077803-.0002434.98377671.4294653 1 .97z" fill="#02a9f4"/><path id="Shape" d="m6 30-3-.0000001c.54077803-.0002433.98377671.4294654 1 .9700001v4.03c.00041109.1095007-.01994865.218086-.06.32-.13638721.4038376-.51376497.6768343-.94.68h3c.42623503-.0031657.80361279-.2761624.94-.68.04005135-.101914.06041109-.2104993.06-.32v-4.03c-.01622329-.5405347-.45922197-.9702434-1-.97z" fill="#0377bc"/><path id="Shape" d="m58 59h-34c9.1-8.83 12.44-27.03 12.89-32.37v-.01c.2330069-.0931677.4572304-.2069528.67-.34.7726061-.4759621 1.7648165-.3949653 2.45.2 1.0510887.9335982 2.395006 1.4711652 3.8 1.52.475869.0144353.9511987-.042874 1.41-.17l.01.04c.66 6.38 4.28 22.9 12.77 31.13z" fill="#a0522d"/><path id="Shape" d="m45.23 27.87-.01-.04c-.4588013.127126-.934131.1844353-1.41.17-1.404994-.0488348-2.7489113-.5864018-3.8-1.52-.6851835-.5949653-1.6773939-.6759621-2.45-.2-.1572258.0920386-.3198537.1745213-.487.247 1.0407155.9036579 2.3595975 1.4235169 3.737 1.473.475869.0144353.9511987-.042874 1.41-.17l.01.04c.66 6.38 4.28 22.9 12.77 31.13h3c-8.49-8.23-12.11-24.75-12.77-31.13z" fill="#783e22"/><path id="Shape" d="m56 14c.0009529 2.9972245-1.9103478 5.6609741-4.75 6.62-.7354034.2803078-1.2316636.9734965-1.26 1.76-.1576649 1.4189266-.8173534 2.734757-1.86 3.71-.7853155.8442862-1.7945894 1.4477695-2.91 1.74-.4588013.127126-.934131.1844353-1.41.17-1.404994-.0488348-2.7489113-.5864018-3.8-1.52-.6851835-.5949653-1.6773939-.6759621-2.45-.2-.2127696.1330472-.4369931.2468323-.67.34v.01c-1.2713403.519577-2.7008172.4910466-3.9504132-.0788449-1.2495959-.5698915-2.2083623-1.6305447-2.6495868-2.9311551-.1685344-.5346752-.5580609-.9715273-1.07-1.2-2.0311182-.8748562-3.5276681-2.6602529-4.0343027-4.8129572-.5066346-2.1527042.0365577-4.4181501 1.4643027-6.1070428.3546225-.4252899.5077916-.983263.42-1.53-.2049606-1.39439998.0328827-2.81796193.68-4.07 1.4512385-2.95314269 4.7684996-4.49091826 7.96-3.69.4503861.12418327.9315146.06673509 1.34-.16 1.2012571-.69166654 2.5638521-1.05387534 3.95-1.05 3.2700046-.00195 6.2419332 1.89992806 7.61 4.87.2847167.65085536.8791885 1.11364038 1.58 1.23 3.3566566.58155377 5.8084633 3.493338 5.81 6.9z" fill="#60a917"/><path id="Shape" d="m50.19 7.1c-.7008115-.11635962-1.2952833-.57914464-1.58-1.23-1.3680668-2.97007194-4.3399954-4.87195-7.61-4.87-.5000794.00514606-.9985823.05703857-1.489.155 2.6829238.47755616 4.9617769 2.23899751 6.1 4.715.2845284.65059016.8785633 1.11332787 1.579 1.23 3.148955.54930988 5.5258091 3.1620001 5.7756561 6.3487281.249847 3.1867281-1.6907855 6.1379195-4.7156561 7.1712719-.7354034.2803078-1.2316636.9734965-1.26 1.76-.1576649 1.4189266-.8173534 2.734757-1.86 3.71-.7411975.7890106-1.6783883 1.367336-2.716 1.676.4557493.1331839.9257114.2117347 1.4.234.475869.0144353.9511987-.042874 1.41-.17 1.1154106-.2922305 2.1246845-.8957138 2.91-1.74 1.0426466-.975243 1.7023351-2.2910734 1.86-3.71.0283364-.7865035.5245966-1.4796922 1.26-1.76 3.0248821-1.0340452 4.9649466-3.9859736 4.7141441-7.1728622-.2508024-3.1868887-2.6287468-5.79899738-5.7781441-6.3471378z" fill="#549414"/><circle id="Oval" cx="20" cy="16" fill="#7f8e94" r="2"/><circle id="Oval" cx="32" cy="16" fill="#f44335" r="2"/><circle id="Oval" cx="44" cy="20" fill="#f44335" r="2"/><circle id="Oval" cx="55.999" cy="24.999" fill="#f44335" r="2"/><circle id="Oval" cx="39" cy="11" fill="#f44335" r="2"/><path id="Shape" d="m20 18h-6v-4h6c-1.1045695 0-2 .8954305-2 2s.8954305 2 2 2z" fill="#545c60"/><path id="Shape" d="m14 14v4c0 .5522847-.4477153 1-1 1h-4c-.54077803.0002434-.98377671-.4294653-1-.97v-4.03c0-.5522847.44771525-1 1-1h4c.5522847 0 1 .4477153 1 1z" fill="#02a9f4"/><path id="Shape" d="m13 13h-3c.5522847 0 1 .4477153 1 1v4c0 .5522847-.4477153 1-1 1h3c.5522847 0 1-.4477153 1-1v-4c0-.5522847-.4477153-1-1-1z" fill="#0377bc"/></g><path id="Shape" d="m1 59h58" stroke="#000" stroke-linecap="round" stroke-linejoin="round" stroke-width="2"/><path id="Shape" d="m11.93 19-4.93 11.97c-.01622329-.5405347-.45922197-.9702434-1-.97h-2.93l4.93-11.97c.01622329.5405347.45922197.9702434 1 .97z" fill="#7f8e94" fill-rule="nonzero"/><path id="Shape" d="m10.74 46.07c-.2436318-.0485234-.4915909-.071979-.74-.07-1.17248913-.0049888-2.28647302.5116945-3.04 1.41l-4.03-11.41h3.07c.42623503-.0031657.80361279-.2761624.94-.68z" fill="#7f8e94" fill-rule="nonzero"/><path id="Shape" d="m43.941 49.908c-.1930055-.5105563-.7597539-.7720349-1.2734406-.5875225-.5136867.1845123-.7845278.7468466-.6085594 1.2635225.5943906 1.6564821 1.2773755 3.279823 2.046 4.863.2468713.4942949.8477051.6948713 1.342.448s.6948713-.8477051.448-1.342c-.732507-1.51292-1.3847455-3.063405-1.954-4.645z" fill="#000" fill-rule="nonzero"/><path id="Shape" d="m40.515 30.014c-.261924-.0452701-.531059.0164691-.7470629.1713753-.2160039.1549061-.3608047.3900191-.4019371.6526247-.1026667.624-.22 1.282-.352 1.974-.1037324.5423236.2517109 1.0660876.794 1.17.0632845.0120739.1275741.0181011.192.018.4793522-.0005604.8908821-.3411948.981-.812.1333333-.708.2536667-1.3833333.361-2.026.0426933-.2619186-.0204729-.5300663-.1755873-.7453883s-.3894551-.3601585-.6514127-.4026117z" fill="#000" fill-rule="nonzero"/><path id="Shape" d="m43.97 37.5c-.0875301-.3465476-.3532921-.6200741-.6971762-.7175447-.3438841-.0974705-.713646-.004077-.97.245-.2563541.2490771-.3603539.6159971-.2728238.9625447.885773 3.5454057 2.0294863 7.0213315 3.422 10.4.1555181.3728064.5200566.6154375.924.615.131861.0002684.2624364-.0259147.384-.077.2449887-.1019017.4394355-.2969912.5405283-.5423148.1010929-.2453236.1005431-.5207671-.0015283-.7656852-1.3550953-3.2875917-2.4677346-6.6699617-3.329-10.12z" fill="#000" fill-rule="nonzero"/><path id="Shape" d="m47.325 52.454c.546 1.07 1.116 2.1 1.7 3.063.2855312.4727557.9002442.6245311 1.373.3389999.4727557-.2855312.6245312-.9002442.339-1.3729999-.554-.92-1.1-1.908-1.625-2.937-.2507373-.4923619-.8531381-.6882373-1.3455-.4375s-.6882373.8531381-.4375 1.3455z" fill="#000" fill-rule="nonzero"/><path id="Shape" d="m39.243 36.543c-.5354063-.1300379-1.0759128.1943551-1.213.728-1.4311307 6.0303818-3.7129977 11.8264654-6.777 17.214-.1363698.2275438-.1767389.4999488-.1122228.7572629.064516.2573141.22863.4784493.4562228.6147371.1546876.0937236.3321345.1431874.513.143.3513418.0002845.677059-.1838331.858-.485 3.1638887-5.5576666 5.5208461-11.5372676 7-17.759.1343135-.5350985-.1901039-1.0778824-.725-1.213z" fill="#000" fill-rule="nonzero"/><path id="Shape" d="m32 19c1.4594373.0027654 2.7080809-1.0474881 2.9553873-2.485822s-.5788398-2.8453257-1.9553873-3.330178v-2.184c0-.5522847-.4477153-1-1-1s-1 .4477153-1 1v2.184c-1.3765475.4848523-2.2026937 1.8918441-1.9553873 3.330178s1.49595 2.4885874 2.9553873 2.485822zm0-4c.5522847 0 1 .4477153 1 1s-.4477153 1-1 1-1-.4477153-1-1 .4477153-1 1-1z" fill="#000" fill-rule="nonzero"/><path id="Shape" d="m41 20c-.0063217 1.5272079 1.1356803 2.8154186 2.6526303 2.9922422 1.5169501.1768237 2.9246296-.8141827 3.2697433-2.3018992.3451137-1.4877166-.4825005-2.9972562-1.9223736-3.506343v-2.184c0-.5522847-.4477153-1-1-1s-1 .4477153-1 1v2.184c-1.1943509.4222546-1.9947486 1.5492146-2 2.816zm3 1c-.5522847 0-1-.4477153-1-1s.4477153-1 1-1 1 .4477153 1 1-.4477153 1-1 1z" fill="#000" fill-rule="nonzero"/><path id="Shape" d="m39 14c1.4594373.0027654 2.7080809-1.0474881 2.9553873-2.485822s-.5788398-2.84532567-1.9553873-3.330178v-2.184c0-.55228475-.4477153-1-1-1s-1 .44771525-1 1v2.184c-1.3765475.48485233-2.2026937 1.8918441-1.9553873 3.330178s1.49595 2.4885874 2.9553873 2.485822zm0-4c.5522847 0 1 .4477153 1 1s-.4477153 1-1 1-1-.4477153-1-1 .4477153-1 1-1z" fill="#000" fill-rule="nonzero"/><circle id="Oval" cx="10" cy="50" fill="#000" fill-rule="nonzero" r="1"/><path id="Shape" d="m59 58h-.581c-7.944-7.977-11.326-23.258-12.106-29.472.9605741-.3968196 1.8262289-.9925537 2.54-1.748 1.20226-1.1425841 1.9587136-2.6756965 2.134-4.325.0037185-.3843246.2310829-.7312312.582-.888.6843873-.2362501 1.3331082-.5653212 1.928-.978l.689 2.034c-1.1628442.8845682-1.5193372 2.4782151-.8442144 3.7739299.6751227 1.2957148 2.1855029 1.9166409 3.5767453 1.4704209 1.3912423-.44622 2.2587062-1.8298037 2.0542493-3.2764775-.204457-1.4466737-1.4213688-2.5356747-2.8817802-2.5788733l-.979-2.888c1.8506771-2.1851649 2.3868339-5.1951987 1.4044992-7.8849886-.9823347-2.68978996-3.3321492-4.64584191-6.1554992-5.1240114-.3695906-.05723225-.6840325-.29995276-.833-.643-1.5282289-3.3345461-4.8599377-5.47234044-8.528-5.472-1.5615159-.00254669-3.0962187.40578773-4.45 1.184-.182573.09656963-.3954202.118786-.594.062-1.4849174-.38106954-3.0487223-.32094993-4.5.173-2.0096835.68162766-3.6661973 2.13382013-4.605 4.037-.7334904 1.43562002-1.0035688 3.06342767-.773 4.659.0444071.2637181-.0286524.5336729-.2.739-.9957842 1.175162-1.624777 2.6167343-1.809 4.146h-1.253c-.4222546-1.1943509-1.5492146-1.9947486-2.816-2h-5.278c-.3544126-.6167513-1.0106732-.997855-1.722-1h-4c-1.1045695 0-2 .8954305-2 2v3.832l-4.6 11.168h-.4c-1.1045695 0-2 .8954305-2 2v4c0 1.1045695.8954305 2 2 2h.223l3.615 10.237c-.54621344.8179629-.8378198 1.7794287-.838 2.763v4h-1c-1.1045695 0-2 .8954305-2 2v2h-1c-.55228475 0-1 .4477153-1 1s.44771525 1 1 1h58c.5522847 0 1-.4477153 1-1s-.4477153-1-1-1zm-2.046-33.3c.1651126.5269208-.1281073 1.0879401-.6549856 1.253188-.5268784.1652479-1.087973-.1278278-1.2533562-.6546637s.1275484-1.0880058.6543418-1.2535243c.2531484-.0795393.5275305-.0552043.7627289.0676466.2351984.1228508.4119269.3341438.4912711.5873534zm-29.54-12.554c.5375792-.6455608.7727594-1.490535.646-2.321-.1696106-1.1940963.0354866-2.41140192.587-3.484.7014944-1.42450071 1.9398885-2.51218695 3.443-3.024 1.0866301-.3722444 2.2584201-.4184764 3.371-.133.7045032.18854026 1.4549043.09227052 2.089-.268 1.0496213-.60296506 2.2395194-.91889162 3.45-.916 2.8767344-.00830055 5.4943283 1.66109924 6.7 4.273.4201902.9585759 1.295702 1.64040703 2.328 1.813 2.184957.37787364 3.9828022 1.9311214 4.6739421 4.0380508.6911398 2.1069294.1626491 4.4232894-1.3739421 6.0219492-.0174173.0176897-.0337789.0363886-.049.056-.6590476.6688471-1.4660844 1.1734164-2.356 1.473-1.1151765.4050749-1.8767823 1.441727-1.93 2.627-.1466068 1.1880151-.7083484 2.2859968-1.586 3.1-.9036793 1.0187963-2.2011722 1.6007199-3.563 1.598-1.1737072-.042095-2.2960591-.4918844-3.174-1.272-.5578834-.4896792-1.2757001-.758238-2.018-.755-.5679641-.0008375-1.1251213.1552357-1.61.451-.1462351.0884042-.2978655.1675593-.454.237-.013 0-.023.013-.035.017-.489735.2138697-1.0186047.3235259-1.553.322-1.7025608-.0029882-3.2148644-1.0880851-3.763-2.7-.2589686-.8036812-.8487339-1.4585717-1.621-1.8-2.1954118-.9468519-3.6169975-3.1091089-3.616-5.5-.0052064-1.4125108.4965194-2.7800153 1.414-3.854zm-9.414 45.854v-2c0-1.1045695-.8954305-2-2-2h-1v-4c-.0078098-2.1698854-1.4170031-4.0860003-3.486-4.74l-3.539-10.012c.01342551-.0820739.02177471-.1648979.025-.248v-3.832l4.6-11.168h.4c.7113268-.002145 1.3675874-.3832487 1.722-1h5.278c1.2667854-.0052514 2.3937454-.8056491 2.816-2h1.258c.3491304 2.8076343 2.1591447 5.2203526 4.757 6.341.2471699.1197348.433126.3372272.513.6.8954654 2.6982332 3.5817207 4.3796612 6.4 4.006-.826 6.588-4.203 22.053-12.164 30.053zm3-42c0 .5522847-.4477153 1-1 1s-1-.4477153-1-1 .4477153-1 1-1 1 .4477153 1 1zm-3.816 1h-2.184v-2h2.184c-.2453699.6440893-.2453699 1.3559107 0 2zm-8.184-3h4v4h-4zm-.678 5.874c.2169175.0812363.44637953.1238797.678.126h1.437l-3.759 9.126c-.2169175-.0812363-.44637953-.1238797-.678-.126h-1.437zm-6.322 11.126h4v4h-4zm4 6c.15264691-.0012477.30464451-.0200377.453-.056l2.872 8.124c-.67229695.0893846-1.31902732.3160807-1.9.666l-3.081-8.734zm1 13c0-1.6568542 1.34314575-3 3-3 1.6568542 0 3 1.3431458 3 3v4h-6zm-3 8v-2h12v2zm22.3 0c7.786-9.112 10.923-24.861 11.53-30.737.083-.046.17-.082.251-.131.3957254-.2417917.9016379-.2039589 1.257.094 1.2297701 1.0891627 2.8002665 1.7163713 4.442 1.774h.183c.132 0 .262-.013.392-.022.815 6.215 4.024 20.483 11.337 29.022z" fill="#000" fill-rule="nonzero"/><path id="Shape" d="m39.337 49.305c-.5185487-.1862241-1.0900356.0820796-1.278.6-.5707901 1.5827124-1.2246992 3.1342027-1.959 4.648-.2468713.4942949-.0462949 1.0951287.448 1.342s1.0951287.0462949 1.342-.448c.7686245-1.583177 1.4516094-3.2065179 2.046-4.863.1869783-.5185589-.0809439-1.0906331-.599-1.279z" fill="#000" fill-rule="nonzero"/></g></g></svg>