<svg height="512" viewBox="0 0 44 60" width="512" xmlns="http://www.w3.org/2000/svg"><g id="Page-1" fill="none" fill-rule="evenodd"><g id="076---Organic-Award" fill-rule="nonzero"><path id="Shape" d="m40.48 28.66c-.48 1.16-2.74 1.36-3.43 2.39s-.03 3.21-.91 4.09c-.4062125.3298215-.9169267.5036062-1.44.49-.9034664-.0564776-1.8082739.0869259-2.65.42-1.03.69-1.23 2.95-2.39 3.43-1.14.47-2.89-.97-4.13-.73-1.2.24-2.26 2.25-3.53 2.25s-2.33-2.01-3.53-2.25c-1.24-.24-2.99 1.2-4.13.73-1.16-.48-1.36-2.74-2.39-3.43-.8417261-.3330741-1.7465336-.4764776-2.65-.42-.5230733.0136062-1.03378751-.1601785-1.44-.49-.88-.88-.21-3.05-.91-4.09s-2.95-1.23-3.43-2.39c-.47-1.14.97-2.89.73-4.13-.24-1.2-2.25-2.26-2.25-3.53s2.01-2.33 2.25-3.53c.24-1.24-1.2-2.99-.73-4.13.48-1.16 2.74-1.36 3.43-2.39s.03-3.21.91-4.09 3.05-.21 4.09-.91 1.23-2.95 2.39-3.43c1.14-.47 2.89.97 4.13.73 1.2-.24 2.26-2.25 3.53-2.25s2.33 2.01 3.53 2.25c1.24.24 2.99-1.2 4.13-.73 1.16.48 1.36 2.74 2.39 3.43s3.21.03 4.09.91.21 3.05.91 4.09 2.95 1.23 3.43 2.39c.47 1.14-.97 2.89-.73 4.13.24 1.2 2.25 2.26 2.25 3.53s-2.01 2.33-2.25 3.53c-.24 1.24 1.2 2.99.73 4.13z" fill="#f44335"/><path id="Shape" d="m39.75 24.53c.24-1.2 2.25-2.26 2.25-3.53s-2.01-2.33-2.25-3.53c-.24-1.24 1.2-2.99.73-4.13-.48-1.16-2.74-1.36-3.43-2.39s-.03-3.21-.91-4.09-3.05-.21-4.09-.91-1.23-2.95-2.39-3.43c-.681-.281-1.579.118-2.456.436.71.832 1.005 2.43 1.846 2.994 1.04.7 3.21.03 4.09.91s.21 3.05.91 4.09 2.95 1.23 3.43 2.39c.47 1.14-.97 2.89-.73 4.13.24 1.2 2.25 2.26 2.25 3.53s-2.01 2.33-2.25 3.53c-.24 1.24 1.2 2.99.73 4.13-.48 1.16-2.74 1.36-3.43 2.39s-.03 3.21-.91 4.09c-.4062125.3298215-.9169267.5036062-1.44.49-.9034664-.0564776-1.8082739.0869259-2.65.42-.841.564-1.136 2.162-1.846 2.994.877.318 1.775.717 2.456.436 1.16-.48 1.36-2.74 2.39-3.43.8417261-.3330741 1.7465336-.4764776 2.65-.42.5230733.0136062 1.0337875-.1601785 1.44-.49.88-.88.21-3.05.91-4.09s2.95-1.23 3.43-2.39c.47-1.14-.97-2.89-.73-4.13z" fill="#c81e1e"/><path id="Shape" d="m22 41-8.46 17.42c-.1661507.3455817-.5114514.5693776-.8947553.5799079-.3833038.0105303-.7403709-.1939698-.9252447-.5299079l-2.84-5.01c-.20708288-.3651539-.61322551-.5701968-1.03-.52l-5.68.72c-.38224137.0437795-.75781616-.1250019-.97886993-.4398993-.22105377-.3148973-.25218192-.7254757-.08113007-1.0701007l8.19-16.52c.9034664-.0564776 1.8082739.0869259 2.65.42 1.03.69 1.23 2.95 2.39 3.43 1.14.47 2.89-.97 4.13-.73 1.2.24 2.26 2.25 3.53 2.25z" fill="#ff9801"/><path id="Shape" d="m11.34 39.48c.681.281 1.579-.118 2.456-.436-.71-.832-1-2.43-1.846-2.994-.8417261-.3330741-1.7465336-.4764776-2.65-.42l-.253.51c.941.767 1.173 2.877 2.293 3.34z" fill="#f57c00"/><path id="Shape" d="m18.47 38.75c-.7326623-.0270377-1.4604409.1297252-2.117.456.863.667 1.696 1.794 2.647 1.794l-7.929 16.326.649 1.144c.1848738.3359381.5419409.5404382.9252447.5299079.3833039-.0105303.7286046-.2343262.8947553-.5799079l8.46-17.42c-1.27 0-2.33-2.01-3.53-2.25z" fill="#f57c00"/><path id="Shape" d="m4.85 52.94-3.509.445c.22082221.2118273.5253542.3128482.829.275l3.516-.446c-.22448583-.2103829-.53053537-.310691-.836-.274z" fill="#f57c00"/><path id="Shape" d="m41.83 53.66-5.68-.72c-.4167745-.0501968-.8229171.1548461-1.03.52l-2.84 5.01c-.1848738.3359381-.5419409.5404382-.9252447.5299079-.3833039-.0105303-.7286046-.2343262-.8947553-.5799079l-8.46-17.42c1.27 0 2.33-2.01 3.53-2.25 1.24-.24 2.99 1.2 4.13.73 1.16-.48 1.36-2.74 2.39-3.43.8417261-.3330741 1.7465336-.4764776 2.65-.42l8.19 16.52c.1710519.344625.1399237.7552034-.0811301 1.0701007-.2210537.3148974-.5966285.4836788-.9788699.4398993z" fill="#ff9801"/><path id="Shape" d="m33.15 52.94c-.4167745-.0501968-.8229171.1548461-1.03.52l-2.191 3.866.531 1.094c.1661507.3455817.5114514.5693776.8947553.5799079.3833038.0105303.7403709-.1939698.9252447-.5299079l2.84-5.01c.0521861-.0911152.11756-.1740119.194-.246z" fill="#f57c00"/><path id="Shape" d="m42.89 52.15-8.19-16.52c-.9034664-.0564776-1.8082739.0869259-2.65.42-.036.024-.063.063-.1.09l7.94 16.01c.2063538.4172105.1122011.9205808-.231 1.235l2.171.275c.3822414.0437795.7578162-.1250019.9788699-.4398993.2210538-.3148973.252182-.7254757.0811301-1.0701007z" fill="#f57c00"/><path id="Shape" d="m32.76 29.95c-2.6575325 3.1992932-6.6009189 5.0500727-10.76 5.0500727s-8.1024675-1.8507795-10.76-5.0500727c.8796642-.4108289 1.8391328-.6225266 2.81-.62.4734189.0010111.9456257.0478969 1.41.14 1.059137.2396671 2.1699235.060508 3.1-.5 2.1110018-1.2932858 4.7689982-1.2932858 6.88 0 .9300765.560508 2.040863.7396671 3.1.5.4643743-.0921031.9365811-.1389889 1.41-.14.9708672-.0025266 1.9303358.2091711 2.81.62z" fill="#a0522d"/><path id="Shape" d="m29.95 29.33c-.4734189.0010111-.9456257.0478969-1.41.14-.048.01-.095.009-.143.018.4700894.1028733.9272458.2578302 1.363.462-2.3226323 2.7973548-5.6446878 4.5785648-9.26 4.965 4.6623842.5178525 9.2717884-1.3488434 12.26-4.965-.8796642-.4108289-1.8391328-.6225266-2.81-.62z" fill="#783e22"/><path id="Shape" d="m36 21c.0019085 3.2707878-1.1447987 6.4383894-3.24 8.95-.8796642-.4108289-1.8391328-.6225266-2.81-.62-.4734189.0010111-.9456257.0478969-1.41.14-1.059137.2396671-2.1699235.060508-3.1-.5-2.1110018-1.2932858-4.7689982-1.2932858-6.88 0-.9300765.560508-2.040863.7396671-3.1.5-.4643743-.0921031-.9365811-.1389889-1.41-.14-.9708672-.0025266-1.9303358.2091711-2.81.62-3.95340957-4.7493745-4.32539972-11.5289831-.9153452-16.6823833 3.4100545-5.15340016 9.7955007-7.46154812 15.7124793-5.67959168 5.9169787 1.78195644 9.9658205 7.23249308 9.9628659 13.41197498z" fill="#00bcd4"/><path id="Shape" d="m22 7c-.501124.00084103-1.0018425.02854746-1.5.083 4.9953412.53077022 9.3216283 3.7014146 11.3320661 8.3050318 2.0104378 4.6036171 1.3957566 9.9320234-1.6100661 13.9569682.8778842.0303692 1.74082.236073 2.538.605 3.4702235-4.1741818 4.2147223-9.9781596 1.9103915-14.8930659s-7.24211-8.05477473-12.6703915-8.0569341z" fill="#00838f"/><path id="Shape" d="m27.657 17.562c-.6261218 1.2450396-2.1264883 1.769637-3.392 1.186-.5808838-.3248618-1.0065233-.8699015-1.1809254-1.5121982-.1744022-.6422967-.0828802-1.3277607.2539254-1.9018018.641-1.186 2.514-1.958 3.49-2.3.1596278-.0611006.3376525-.0518292.4900698.0255226.1524173.0773517.2650038.2155655.3099302.3804774.265.987.672 2.936.029 4.122z" fill="#60a917"/><path id="Shape" d="m14.478 22.341c1.0370697.9306689 2.6250568.8722968 3.591-.132.4220443-.5146016.6194458-1.1772911.5477873-1.8389566-.0716584-.6616656-.4063578-1.2667284-.9287873-1.6790434-1.03-.871-3.056-.906-4.088-.865-.1713156.0004545-.334407.0735187-.4487901.2010559-.1143832.1275373-.1693332.2975892-.1512099.4679441.115 1.013.448 2.975 1.478 3.846z" fill="#60a917"/><g fill="#000"><path id="Shape" d="m10.576 30.7c2.8498893 3.3714875 7.0433008 5.3122169 11.4579024 5.3027679 4.4146017-.009449 8.599667-1.9681116 11.4350976-5.3517679.02-.02.039-.041.057-.063 5.0900918-6.1064668 4.5320921-15.1235795-1.2720456-20.5558864-5.8041377-5.4323068-14.8384133-5.39295891-20.5950119.0896996-5.75659868 5.4826585-6.23603241 14.5042896-1.0929425 20.5661868zm2.507-.262c.7169545-.1250085 1.4504746-.1209447 2.166.012 1.3124663.2928401 2.6873146.067878 3.838-.628 1.7968492-1.0753978 4.0399964-1.0734756 5.835.005 1.1421851.6899887 2.5059149.9144724 3.809.627.7228461-.1384244 1.4647464-.1451997 2.19-.02-4.9949345 4.7560636-12.8430655 4.7560636-17.838 0zm8.917-22.438c4.9174501-.00938823 9.4176371 2.7619405 11.622466 7.1574078s1.7353654 9.6596434-1.212466 13.5955922c-1.3130557-.4476757-2.7216131-.5377599-4.081-.261-.8053877.1889151-1.6527205.055409-2.361-.372-.8927884-.5458316-1.8909965-.8965165-2.929-1.029.132937-2.4883069.7939108-4.9198316 1.939-7.133.1112341.0189145.2233908.0319327.336.039 1.3517134-.0155139 2.5873765-.7669566 3.223-1.96.754-1.4.446-3.411.057-4.849-.1153274-.4342746-.4073087-.8003759-.8050501-1.0094134-.3977413-.2090375-.8648642-.2418921-1.2879499-.0905866-1.431.5-3.294 1.378-4.045 2.769-.4650978.8606453-.5683702 1.8710597-.287 2.808.1803238.5766629.5155049 1.0927519.969 1.492-.6412981 1.256839-1.144245 2.5795895-1.5 3.945-.5400449-.7919684-1.2283909-1.4718246-2.027-2.002.027241-.2185794.0329351-.4393068.017-.659-.0804048-.9760135-.5460101-1.8798779-1.294-2.512-1.2-1.019-3.264-1.158-4.76-1.1-.4548733.0120691-.8839064.2140738-1.183.557-.2902208.3341182-.4282622.7739666-.381 1.214.162 1.486.609 3.473 1.821 4.5.6740819.5773857 1.5314486.8963729 2.419.9.9402595.0057248 1.8413265-.376261 2.491-1.056 1.3011371 1.0000239 2.1038959 2.5157785 2.2 4.154-1.027687.132708-2.0158458.4806081-2.9 1.021-.7178059.4305195-1.5751452.5643218-2.39.373-1.3534507-.2667299-2.7531369-.1746816-4.06.267-2.95129779-3.9358293-3.4229049-9.2022292-1.2178655-13.5998094s6.7074351-7.16991031 11.6268655-7.1591906zm4.768 6.125c.315873.9619262.3190236 1.9991727.009 2.963-.3677853.7649387-1.2726071 1.1047427-2.053.771-.3125454-.1626712-.5456743-.4452407-.646-.783-.1229149-.4242125-.0725674-.8798573.14-1.267.6558223-.8110645 1.5465672-1.3993054 2.55-1.684zm-12.715 4.69c1.0359365-.0849636 2.0739894.1365573 2.985.637.341026.2831557.5551539.6905385.595 1.132.0294165.3490795-.0826414.6953421-.311.961-.6054554.600071-1.576819.6146414-2.2.033-.6403192-.7843345-1.0146847-1.7519416-1.069-2.763z"/><path id="Shape" d="m.38 53.805c.43404708.6140782 1.17072965.9395712 1.917.847l5.714-.7 2.838 5.006c.3568179.6421994 1.0333315 1.0409138 1.768 1.042h.055c.7563561-.0216386 1.4376915-.4627522 1.767-1.144l7.561-15.567 7.562 15.572c.3308867.678681 1.0112607 1.1174952 1.766 1.139h.055c.7329593-.0005866 1.4083884-.3972004 1.766-1.037l2.874-5.03 5.686.72c.7472827.0886135 1.4830081-.2395281 1.9163825-.8547277.4333744-.6151995.4946537-1.4184514.1596175-2.0922723l-7.629-15.388c.2576565-.1123436.4925379-.2709647.693-.468.621299-.7964705.914651-1.8003068.82-2.806-.0244577-.487461.0468877-.9749883.21-1.435.3595162-.3203393.7779699-.5676074 1.232-.728.972106-.2980131 1.793057-.9572074 2.294-1.842.2671072-.9676144.1544242-2.0007206-.315-2.888-.2144033-.4459272-.3361888-.9306882-.358-1.425.2072667-.4254792.4944913-.8070873.846-1.124.789125-.6537213 1.2979649-1.5848053 1.422-2.602-.1245246-1.0164773-.6333201-1.9467645-1.422-2.6-.3517972-.3170378-.6390568-.699032-.846-1.125.0219932-.4933251.1437798-.9770696.358-1.422.4697245-.8875186.5827589-1.9209246.316-2.889-.5025275-.8858513-1.325758-1.5451515-2.3-1.842-.4540301-.1603926-.8724838-.4076607-1.232-.728-.1631244-.45964599-.234142-.94691489-.209-1.434.094604-1.00599771-.1987296-2.01012841-.82-2.807-.7964705-.62129896-1.8003068-.91465096-2.806-.82-.487461.02445773-.9749883-.04688773-1.435-.21-.3203393-.35951617-.5676074-.77796985-.728-1.232-.2974677-.97014562-.9546925-1.78979835-1.837-2.291-.9676226-.2670045-2.0006904-.15432571-2.888.315-.4464389.21298583-.9309073.33469789-1.425.358-.4266195-.20853097-.8089531-.49748824-1.126-.851-.6532355-.7886799-1.5835227-1.29747544-2.6-1.422-1.0164773.12452456-1.9467645.6333201-2.6 1.422-.3170378.35179717-.699032.63905682-1.125.846-.4931966-.02286661-.9767692-.14460992-1.422-.358-.8870626-.47120793-1.9210491-.5843058-2.889-.316-.8858513.50252754-1.5451515 1.32575797-1.842 2.3-.1603926.45403015-.4076607.87248383-.728 1.232-.459646.16312445-.9469149.23414202-1.434.209-1.00599771-.09460396-2.01012841.19872956-2.807.82-.62129896.79647053-.91465096 1.80030675-.82 2.806.02445773.48746095-.04688773.97498832-.21 1.435-.35951617.3203393-.77796985.5676074-1.232.728-.97014562.2974677-1.78979835.9546925-2.291 1.837-.26710724.9676144-.15442425 2.0007206.315 2.888.21440327.4459272.33618883.9306882.358 1.425-.20726671.4254792-.4944913.8070873-.846 1.124-.79098975.6528677-1.30167979 1.5840629-1.427 2.602.12452456 1.0164773.6333201 1.9467645 1.422 2.6.35179717.3170378.63905682.699032.846 1.125-.02185905.4936647-.14364896.9777626-.358 1.423-.47025342.8869958-.58331586 1.9203007-.316 2.888.50252754.8858513 1.32575797 1.5451515 2.3 1.842.45403015.1603926.87248383.4076607 1.232.728.16312445.459646.23414202.9469149.209 1.434-.09460396 1.0059977.19872956 2.0101284.82 2.807.20067661.1974941.43591.356463.694.469l-7.63 15.39c-.33666191.6759881-.27481801 1.4822636.161 2.099zm41.575-1.137-5.683-.72c-.8188193-.1033855-1.6186713.2995058-2.023 1.019l-2.89 5.016-7.972-16.416c.436124-.2894718.8430419-.6206996 1.215-.989.3170378-.3517972.699032-.6390568 1.125-.846.4931369.0232706.9766305.144994 1.422.358.8874581.4699216 1.920941.5829644 2.889.316.8858513-.5025275 1.5451515-1.325758 1.842-2.3.1603926-.4540301.4076607-.8724838.728-1.232.459646-.1631244.9469149-.234142 1.434-.209h.053zm-36.239-23.609c-.493-.224-1.169-.532-1.275-.787.00635451-.4932753.12322054-.9788502.342-1.421.37599287-.7806751.53060404-1.6495415.447-2.512-.2443503-.8114437-.71012616-1.5386774-1.345-2.1-.374-.402-.885-.95-.885-1.239s.511-.837.885-1.236c.63479274-.5613921 1.10055269-1.2886009 1.345-2.1.08404853-.8626951-.07021799-1.7319143-.446-2.513-.21870012-.4425348-.33555762-.9284159-.342-1.422.106-.255.782-.563 1.275-.787.80821987-.2814327 1.52311853-.7804084 2.066-1.442.40537375-.759043.59458304-1.61480854.547-2.474-.03606718-.4996125.04437904-1.00077528.235-1.464.46303611-.19004583.96373904-.27047316 1.463-.235.85828.04859675 1.7134113-.13958748 2.472-.544.6595596-.54411905 1.1567015-1.25921466 1.437-2.067.224-.493.532-1.169.787-1.275.4936137.0062053.9795466.12307524 1.422.342.7803771.3758116 1.6488723.53041828 2.511.447.8114437-.2443503 1.5386774-.71012616 2.1-1.345.406-.374.954-.885 1.243-.885s.837.511 1.236.885c.5613921.63479274 1.2886009 1.10055269 2.1 1.345.8626073.08184994 1.7312401-.07231251 2.513-.446.4427765-.21803203.9285044-.33485268 1.422-.342.255.106.563.782.787 1.275.2814327.80821987.7804084 1.52311853 1.442 2.066.759043.40537375 1.6148085.59458304 2.474.547.4996125-.03606718 1.0007753.04437904 1.464.235.1900458.46303611.2704732.96373904.235 1.463-.0487251.85980493.1401754 1.716431.546 2.476.5441191.6595596 1.2592147 1.1567015 2.067 1.437.493.224 1.169.532 1.275.787-.0064424.4935841-.1232999.9794652-.342 1.422-.3759099.7803453-.5305215 1.6488682-.447 2.511.2443503.8114437.7101262 1.5386774 1.345 2.1.374.4.885.947.885 1.236s-.511.837-.885 1.236c-.6347927.5613921-1.1005527 1.2886009-1.345 2.1-.0840485.8626951.070218 1.7319143.446 2.513.2187001.4425348.3355576.9284159.342 1.422-.106.255-.782.563-1.275.787-.8092975.2819408-1.524961.7820055-2.068 1.445-.4053738.759043-.594583 1.6148085-.547 2.474.0360672.4996125-.044379 1.0007753-.235 1.464-.2396056.1361493-.511464.2052366-.787.2h-.021c-.221.018-.451.029-.655.037-.8598049-.0487251-1.716431.1401754-2.476.546-.6595596.5441191-1.1567015 1.2592147-1.437 2.067-.224.493-.532 1.169-.787 1.275-.4933828-.00804-.9789181-.1248144-1.422-.342-.7801061-.3766497-1.6488374-.5312984-2.511-.447-.8114437.2443503-1.5386774.7101262-2.1 1.345-.4.374-.947.885-1.236.885s-.837-.511-1.236-.885c-.5613921-.6347927-1.2886009-1.1005527-2.1-1.345-.1627005-.0320109-.3281821-.0477551-.494-.047-.6967174.0445706-1.3801481.2114509-2.019.493-.4421236.2198331-.9282669.3367537-1.422.342-.255-.106-.563-.782-.787-1.275-.2816153-.8100236-.7817048-1.5264148-1.445-2.07-.759043-.4053738-1.6148085-.594583-2.474-.547-.2-.007-.436-.019-.658-.037h-.015c-.27688654.0059598-.55022176-.0631515-.791-.2-.19004583-.4630361-.27047316-.963739-.235-1.463.04872514-.8598049-.14017543-1.716431-.546-2.476-.5438296-.6585253-1.25817345-1.1549337-2.065-1.435zm4.184 7.608h.054c.487461-.0244577.9749883.0468877 1.435.21.3203393.3595162.5676074.7779699.728 1.232.2980131.972106.9572074 1.793057 1.842 2.294.9675395.2680346 2.0009936.1553136 2.888-.315.4458513-.2146131.930656-.3364096 1.425-.358.4254792.2072667.8070873.4944913 1.124.846.3717488.3674317.7779494.698286 1.213.988l-8.02 16.411-2.84-5.01c-.4065328-.7187439-1.20659261-1.1211432-2.026-1.019l-5.719.647z"/><path id="Shape" d="m8.527 48.444 2.975-6c.1719144-.3215184.1552202-.7111196-.0435674-1.0167535-.1987876-.305634-.5481605-.4788574-.9117686-.4520662s-.68381915.2493506-.835664.5808197l-2.975 6c-.17191443.3215184-.15522022.7111196.04356737 1.0167535.19878759.305634.54816052.4788574.91176863.4520662s.68381915-.2493506.835664-.5808197z"/><path id="Shape" d="m28.316 42.563c-.2413484-.4970563-.8399437-.7043484-1.337-.463s-.7043484.8399437-.463 1.337l3.584 7.376c.2410723.4970563.8394437.7045723 1.3365.4635s.7045723-.8394437.4635-1.3365z"/></g></g></g></svg>