<svg height="512" viewBox="0 0 60 60" width="512" xmlns="http://www.w3.org/2000/svg"><g id="Page-1" fill="none" fill-rule="evenodd"><g id="078---Tomato-Plant" fill-rule="nonzero" transform="translate(0 -1)"><path id="Shape" d="m23 44c0 5.52-4.92 10-11 10s-11-4.48-11-10c.09568785-4.0159106 2.59050073-7.5827442 6.33-9.05l.65.64c.11171449.1130524.16037056.2739917.13.43l-.7 3.4c-.03638438.1867657.04003815.3775222.19530862.4875055.15527047.1099832.36057755.1187851.52469138.0224945l3.62-2.13c.1547005-.0893164.3452995-.0893164.5 0l3.64 2.14c.1602092.0950802.3614555.0865582.513053-.0217258.1515976-.1082839.224928-.2958881.186947-.4782742l-.7-3.42c-.0303706-.1560083.0182855-.3169476.13-.43l.65-.64c3.7394993 1.4672558 6.2343122 5.0340894 6.33 9.05z" fill="#f44335"/><path id="Shape" d="m16.67 34.95-.65.64c-.1117145.1130524-.1603706.2739917-.13.43l.047.231c2.514288 1.7857786 4.024101 4.6653113 4.063 7.749 0 5.057-4.133 9.23-9.5 9.9.497407.0647687.9983972.0981681 1.5.1 6.08 0 11-4.48 11-10-.0956878-4.0159106-2.5905007-7.5827442-6.33-9.05z" fill="#c81e1e"/><path id="Shape" d="m59 29c0 5.52-4.92 10-11 10s-11-4.48-11-10c.0956878-4.0159106 2.5905007-7.5827442 6.33-9.05l.65.64c.1117145.1130524.1603706.2739917.13.43l-.7 3.4c-.0363844.1867657.0400381.3775222.1953086.4875055.1552705.1099832.3605776.1187851.5246914.0224945l3.62-2.13c.1547005-.0893164.3452995-.0893164.5 0l3.62 2.13c.1641138.0962906.3694209.0874887.5246914-.0224945.1552705-.1099833.231693-.3007398.1953086-.4875055l-.7-3.4c-.0303706-.1560083.0182855-.3169476.13-.43l.65-.64c3.7394993 1.4672558 6.2343122 5.0340894 6.33 9.05z" fill="#f44335"/><path id="Shape" d="m52.67 19.95-.65.64c-.1117145.1130524-.1603706.2739917-.13.43l.048.231c2.5135322 1.786324 4.0228468 4.6656147 4.062 7.749 0 5.057-4.133 9.23-9.5 9.9.497407.0647687.9983972.0981681 1.5.1 6.08 0 11-4.48 11-10-.0956878-4.0159106-2.5905007-7.5827442-6.33-9.05z" fill="#c81e1e"/><path id="Shape" d="m54.861 17.8-2.19 2.149-.65.64c-.1118836.1133629-.1605403.2746786-.13.431l.7 3.4c.0363844.1867657-.0400381.3775222-.1953086.4875055-.1552705.1099832-.3605776.1187851-.5246914.0224945l-3.62-2.13c-.1542451-.0910001-.3457549-.0910001-.5 0l-3.62 2.129c-.1641138.0962906-.3694209.0874887-.5246914-.0224945-.1552705-.1099833-.231693-.3007398-.1953086-.4875055l.7-3.4c.0305403-.1563214-.0181164-.3176371-.13-.431l-.65-.64-2.19-2.148c-.1348027-.135265-.1741298-.338757-.0994349-.5145098.074695-.1757529.2484943-.2886661.4394349-.2854902h4.519v-4c-.0017223-2.0163195-.8722014-3.93411609-2.3887826-5.26284803s-3.5321724-1.93952644-5.5312174-1.67615197c-3.5353809.5390718-6.130852 3.6041182-6.08 7.18v30.759c0 9.061 3.35 13.09 5.71 14.811.2350294.1618403.3375064.4577144.2529255.7302528-.0845808.2725383-.3365644.4584074-.6219255.4587472h-14.68c-.2855457.0000977-.5379318-.1856207-.6227765-.4582701-.0848447-.2726495.0175954-.5687848.2527765-.7307299 2.36-1.72 5.709-5.749 5.709-14.811v-16c-.0017223-2.0163195-.8722014-3.9341161-2.3887826-5.262848-1.5165812-1.328732-3.5321724-1.9395265-5.5312174-1.676152-3.5353809.5390718-6.130852 3.6041182-6.08 7.18v3.759h4.52c.1909406-.0031759.3647399.1097373.4394349.2854902.0746949.1757528.0353678.3792448-.0994349.5145098l-2.19 2.149-.65.64c-.1118836.1133629-.1605403.2746786-.13.431l.7 3.419c.037981.1823861-.0353494.3699903-.186947.4782742-.1515975.108284-.3528438.116806-.513053.0217258l-3.639-2.139c-.1542451-.0910001-.3457549-.0910001-.5 0l-3.62 2.129c-.16411383.0962906-.36942091.0874887-.52469138-.0224945-.15527047-.1099833-.231693-.3007398-.19530862-.4875055l.7-3.4c.03054027-.1563214-.01811642-.3176371-.13-.431l-.65-.64-2.19-2.148c-.1348027-.135265-.17412983-.338757-.09943487-.5145098.07469496-.1757529.24849426-.2886661.43943487-.2854902h4.519v-3.678c-.06686227-5.93731 4.506747-10.8972424 10.43-11.311 2.4161341-.1252224 4.8061572.5496076 6.8 1.92.1537501.0986442.3490582.1055895.5094268.0181157s.2602692-.2554421.2605732-.4381157v-5.511c.0011506-2.9518578 1.1880091-5.7795298 3.2940068-7.8479204s4.9545938-3.20411149 7.9059932-3.1520796c6.0814609.23994934 10.868062 5.2751878 10.8 11.361v3.639h4.52c.1911234-.0035939.365303.1091668.4402585.2850155.0749555.1758486.0356858.3795921-.0992585.5149845z" fill="#60a917"/><g fill="#549414"><path id="Shape" d="m47 13.361v3.639h3v-3.64c.0675166-6.0854258-4.7189315-11.12006011-10.8-11.36-.563781-.00481113-1.1271004.033635-1.685.115 5.5017951.89769732 9.5281714 5.67161698 9.485 11.246z"/><path id="Shape" d="m54.521 17h-3c.1909406-.0031759.3647399.1097373.4394349.2854902.0746949.1757528.0353678.3792448-.0994349.5145098l-2.19 2.149-.65.64c-.1117145.1130524-.1603706.2739917-.13.43l.505 2.454 2.475 1.456c.1641138.0962906.3694209.0874887.5246914-.0224945.1552705-.1099833.231693-.3007398.1953086-.4875055l-.7-3.4c-.0303706-.1560083.0182855-.3169476.13-.43l.65-.64 2.19-2.149c.1348027-.135265.1741298-.338757.0994349-.5145098-.074695-.1757529-.2484943-.2886661-.4394349-.2854902z"/><path id="Shape" d="m32 44v-30.759c-.0373997-3.34854586 2.2387831-6.28080982 5.492-7.075-.7922527-.17190211-1.6082367-.20573229-2.412-.1-3.5334744.53881645-6.1283338 3.60100666-6.08 7.175v30.759c0 9.061 3.35 13.09 5.71 14.811.2350294.1618403.3375064.4577144.2529255.7302528-.0845808.2725383-.3365644.4584074-.6219255.4587472h3c.2855457.0000977.5379318-.1856207.6227765-.4582701.0848447-.2726495-.0175954-.5687848-.2527765-.7307299-2.36-1.72-5.711-5.749-5.711-14.811z"/></g><path id="Shape" d="m54.367 19.686 1.189-1.167c.4295647-.4138621.5634757-1.0477606.338-1.6-.2269777-.5584845-.7711636-.9224632-1.374-.919h-3.52v-2.639c.0690541-6.63335747-5.1578532-12.11480321-11.787-12.361-3.2197411-.05852656-6.32779 1.18003248-8.6248093 3.43699072-2.2970192 2.25695824-3.5900649 5.34273687-3.5881907 8.56300928v4.6c-2.0073573-1.1609771-4.3095559-1.7117672-6.625-1.585-6.4656213.4160822-11.46884872 5.8296842-11.375 12.308v2.677h-3.52c-.60357475-.0029708-1.14797115.3623374-1.374.922-.22361784.5487824-.09232777 1.178342.332 1.592l1.194 1.172c-3.4111402 1.8706911-5.55990936 5.4242486-5.632 9.314 0 6.065 5.383 11 12 11s12-4.935 12-11c-.0720864-3.8900212-2.2213248-7.4437237-5.633-9.314l1.189-1.167c.4295647-.4138621.5634757-1.0477606.338-1.6-.2269777-.5584845-.7711636-.9224632-1.374-.919h-3.52v-2.756c-.0622283-3.0772056 2.1638216-5.7248624 5.206-6.192 1.7194916-.2349457 3.4557078.2941033 4.752 1.448 1.2954482 1.1370525 2.0393121 2.7763216 2.042 4.5v16c0 8.829-3.321 12.563-5.3 14-.5869435.4174841-.8359899 1.1669667-.6156385 1.8527078.2203515.6857411.8593684 1.1498594 1.5796385 1.1472922h14.673c.7202701.0025672 1.359287-.4615511 1.5796385-1.1472922.2203514-.6857411-.028695-1.4352237-.6156385-1.8527078-1.98-1.441-5.3-5.175-5.3-14v-30.756c-.0622283-3.0772056 2.1638216-5.72486243 5.206-6.192 1.7191507-.23450534 3.4548806.29450685 4.751 1.448 1.2954482 1.13705248 2.0393121 2.7763216 2.042 4.5v3h-3.52c-.6035747-.0029708-1.1479712.3623374-1.374.922-.2236178.5487824-.0923278 1.178342.332 1.592l1.2 1.172c-3.4136056 1.8689786-5.5649012 5.4229281-5.638 9.314 0 6.065 5.383 11 12 11s12-4.935 12-11c-.0720864-3.8900212-2.2213248-7.4437237-5.633-9.314zm-32.367 24.314c0 4.963-4.486 9-10 9s-10-4.037-10-9c.08899569-3.3383487 2.03934857-6.3459311 5.051-7.789l-.616 3.009c-.11691275.5726373.11411828 1.1604485.58964657 1.5002351s1.10648526.367905 1.61035343.0717649l3.365-1.979 3.382 1.987c.5011745.2939497 1.1283681.2655934 1.6009723-.0723824s.7021852-.9223287.5860277-1.4916176l-.62-3.029c3.0129085 1.4437207 4.9634874 4.4531964 5.051 7.793zm24-26c.5522847 0 1-.4477153 1-1v-4c-.002393-2.3037961-.9967382-4.49499167-2.7290035-6.01378704s-4.0346676-2.21808366-6.3189965-1.91921296c-4.0396643.59724671-7.0124584 4.09387182-6.952 8.177v30.756c0 8.381 2.746 12.746 5.344 15h-12.688c2.597-2.254 5.344-6.619 5.344-15v-16c-.002393-2.3037961-.9967382-4.4949917-2.7290035-6.013787-1.7322653-1.5187954-4.0346676-2.2180837-6.3189965-1.919213-4.0396643.5972467-7.0124584 4.0938718-6.952 8.177v3.756c0 .5522847.4477153 1 1 1h3.229l-1.25 1.228-.008.008-.651.639c-.3569501.3491645-.511478.8560916-.41 1.345l.462 2.257-2.633-1.549c-.4662602-.2634239-1.0372934-.259617-1.5.01l-2.611 1.539.462-2.255c.10160358-.4898256-.05286877-.9977006-.41-1.348l-.652-.64-.005-.005-1.252-1.229h3.229c.5522847 0 1-.4477153 1-1v-3.677c-.0925967-5.4126147 4.075719-9.9468731 9.477-10.309 2.1978321-.1199026 4.3734765.4916127 6.187 1.739.453317.3140328 1.0440115.3487568 1.531.09.4931277-.2601945.8012445-.7724387.8-1.33v-5.513c-.0026402-2.6848575 1.0753176-5.25781511 2.9909343-7.13900602 1.9156167-1.88119092 4.5076975-2.91231714 7.1920657-2.86099398 5.5401391.22273059 9.895282 4.81686979 9.822 10.361v3.639c0 .5522847.4477153 1 1 1h3.229l-1.251 1.229-.005.005-.658.646c-.3529732.3485766-.5054117.8521881-.405 1.338l.462 2.259-2.633-1.549c-.4662602-.2634239-1.0372934-.259617-1.5.01l-2.615 1.539.462-2.256c.1006484-.4885022-.0529173-.9947419-.408-1.345l-.655-.643-1.252-1.233zm2 20c-5.514 0-10-4.037-10-9 .0903531-3.3371128 2.0393836-6.3434604 5.049-7.788l-.614 3.008c-.1169127.5726373.1141183 1.1604485.5896466 1.5002351s1.1064852.367905 1.6103534.0717649l3.365-1.979 3.362 1.978c.5038682.2961401 1.1348251.2680217 1.6103534-.0717649s.7065593-.9275978.5896466-1.5002351l-.614-3.007c3.0107833 1.4436977 4.9610815 4.4502144 5.052 7.788 0 4.963-4.486 9-10 9z" fill="#000"/><path id="Shape" d="m10 50.75c-.08396143-.0000153-.16759786-.0104278-.249-.031-3.22247589-.670263-5.58606758-3.431691-5.751-6.719 0-.5522847.44771525-1 1-1s1 .4477153 1 1c.16852952 2.3723557 1.91194934 4.3345238 4.248 4.781.4886908.1245979.8081251.5935941.7451022 1.0939654s-.4887778.8755092-.9931022.8750346z" fill="#f5f5f5"/><path id="Shape" d="m46 35.75c-.0839614-.0000153-.1675979-.0104278-.249-.031-3.2224759-.670263-5.5860676-3.431691-5.751-6.719 0-.5522847.4477153-1 1-1s1 .4477153 1 1c.1685295 2.3723557 1.9119493 4.3345238 4.248 4.781.4886908.1245979.8081251.5935941.7451022 1.0939654s-.4887778.8755092-.9931022.8750346z" fill="#f5f5f5"/></g></g></svg>