<svg height="512" viewBox="0 0 60 60" width="512" xmlns="http://www.w3.org/2000/svg"><g id="Page-1" fill="none" fill-rule="evenodd"><g id="079---High-Quality-Produce" fill-rule="nonzero" transform="translate(0 -1)"><path id="Shape" d="m50 38v15h-40v-15c0-.5522847.4477153-1 1-1h38c.5522847 0 1 .4477153 1 1z" fill="#ff9801"/><path id="Shape" d="m49 37h-3c.5522847 0 1 .4477153 1 1v15h3v-15c0-.5522847-.4477153-1-1-1z" fill="#f57c00"/><path id="Shape" d="m19.67 59.74c-.1833983.1666976-.4221642.259353-.67.26h-17c-.37877206 0-.72503518-.2140024-.89442719-.5527864s-.13283604-.744196.09442719-1.0472136l4.35-5.8c.27004762-.3544214.27004762-.8455786 0-1.2l-4.35-5.8c-.22726323-.3030176-.2638192-.7084296-.09442719-1.0472136s.51565513-.5527864.89442719-.5527864h8v9z" fill="#f57c00"/><path id="Shape" d="m20 53v6c-.000667.2821782-.1205206.5509408-.33.74l-9.67-6.74z" fill="#d84315"/><path id="Shape" d="m58.8 58.4c.2272632.3030176.2638192.7084296.0944272 1.0472136s-.5156551.5527864-.8944272.5527864h-17c-.2478358-.000647-.4866017-.0933024-.67-.26l9.67-6.74v-9h8c.3787721 0 .7250352.2140024.8944272.5527864s.132836.744196-.0944272 1.0472136l-4.35 5.8c-.2700476.3544214-.2700476.8455786 0 1.2z" fill="#f57c00"/><path id="Shape" d="m50 53-9.67 6.74c-.2094794-.1890592-.329333-.4578218-.33-.74v-6z" fill="#d84315"/><path id="Shape" d="m30.481 41.312.945 2 2.114.321c.2064101.0382631.3747875.1874397.4376419.3877358s.0098984.4189288-.1376419.5682642l-1.529 1.557.361 2.2c.042105.2041699-.0368455.4143675-.20295.5403337-.1661045.1259661-.3898073.1452871-.57505.0496663l-1.894-1.036-1.891 1.037c-.1852427.0956208-.4089455.0762998-.57505-.0496663-.1661045-.1259662-.245055-.3361638-.20295-.5403337l.361-2.2-1.529-1.557c-.1475403-.1493354-.2004963-.3679681-.1376419-.5682642s.2312318-.3494727.4376419-.3877358l2.114-.321.945-2c.0854516-.1879131.2727487-.308633.4791785-.3088483.2064297-.0002152.3939782.1201138.4798215.3078483z" fill="#ffdc00"/><path id="Shape" d="m42.481 41.312.945 2 2.114.321c.2064101.0382631.3747875.1874397.4376419.3877358s.0098984.4189288-.1376419.5682642l-1.529 1.557.361 2.2c.042105.2041699-.0368455.4143675-.20295.5403337-.1661045.1259661-.3898073.1452871-.57505.0496663l-1.894-1.036-1.891 1.037c-.1852427.0956208-.4089455.0762998-.57505-.0496663-.1661045-.1259662-.245055-.3361638-.20295-.5403337l.361-2.2-1.529-1.557c-.1475403-.1493354-.2004963-.3679681-.1376419-.5682642s.2312318-.3494727.4376419-.3877358l2.114-.321.945-2c.0854516-.1879131.2727487-.308633.4791785-.3088483.2064297-.0002152.3939782.1201138.4798215.3078483z" fill="#ffdc00"/><path id="Shape" d="m18.481 41.312.945 2 2.114.321c.2064101.0382631.3747875.1874397.4376419.3877358s.0098984.4189288-.1376419.5682642l-1.529 1.557.361 2.2c.042105.2041699-.0368455.4143675-.20295.5403337-.1661045.1259661-.3898073.1452871-.57505.0496663l-1.894-1.036-1.891 1.037c-.1852427.0956208-.4089455.0762998-.57505-.0496663-.1661045-.1259662-.245055-.3361638-.20295-.5403337l.361-2.2-1.529-1.557c-.1475403-.1493354-.2004963-.3679681-.1376419-.5682642s.2312318-.3494727.4376419-.3877358l2.114-.321.945-2c.0854516-.1879131.2727487-.308633.4791785-.3088483.2064297-.0002152.3939782.1201138.4798215.3078483z" fill="#ffdc00"/><path id="Shape" d="m47 26c.1020286 4.0399728-1.3267839 7.9692071-4 11h-26c-2.6715717-3.031769-4.1001413-6.9603354-4-11 0-7.73 4.7-14 10.5-14 1.6579801.0116473 3.2756107.512591 4.65 1.44 1.1223465.739956 2.5776535.739956 3.7 0 1.3743893-.927409 2.9920199-1.4283527 4.65-1.44 5.8 0 10.5 6.27 10.5 14z" fill="#f44335"/><path id="Shape" d="m36.5 12c-.5039202.005151-1.0061982.0583925-1.5.159 5.089.971 9 6.79 9 13.841.1020286 4.0399728-1.3267839 7.9692071-4 11h3c2.6732161-3.0307929 4.1020286-6.9600272 4-11 0-7.73-4.7-14-10.5-14z" fill="#c81e1e"/><path id="Shape" d="m24 3h1.908c2.7614237 0 5 2.23857625 5 5v1h-2.908c-2.7614237 0-5-2.23857625-5-5 0-.55228475.4477153-1 1-1z" fill="#60a917"/><path id="Shape" d="m25.908 3h-1.908c-.1248262.00140024-.2482867.02616017-.364.073 2.4490466.35522153 4.2673638 2.45233026 4.272 4.927v.991c.031 0 .06.009.092.009h2.908v-1c0-2.76142375-2.2385763-5-5-5z" fill="#549414"/><g fill="#000"><path id="Shape" d="m59.787 44.106c-.3363764-.6789504-1.0292933-1.1078066-1.787-1.106h-7v-5c0-1.1045695-.8954305-2-2-2h-3.938c1.9592134-2.9636439 2.9827935-6.4475789 2.938-10 0-8.271-5.159-15-11.5-15-1.855067.0053563-3.666088.565728-5.2 1.609-.0650028.0338646-.1317641.064241-.2.091.287-2.311 1.369-7.147 5.451-9.868.3150851-.18983589.5005072-.53733285.4827736-.90475873-.0177337-.36742588-.2357597-.69545055-.5676624-.8540598-.3319026-.15860925-.7240879-.12219164-1.0211112.09481853-1.6730236 1.12748467-3.0653434 2.62345867-4.07 4.373-.9672751-2.15285411-3.1068313-3.53865404-5.467-3.541h-1.908c-1.1045695 0-2 .8954305-2 2 .0033074 3.31233757 2.6876624 5.99669262 6 6h1.566c-.2317035.9146597-.395483 1.8451947-.49 2.784-.1309397-.0462269-.2571768-.1048251-.377-.175-1.5336298-1.0430814-3.344274-1.6034443-5.199-1.609-6.341 0-11.5 6.729-11.5 15-.0444849 3.5523787.9790691 7.0362249 2.938 10h-3.938c-1.1045695 0-2 .8954305-2 2v5h-7c-.75754412 0-1.45007035.4280048-1.78885438 1.1055728-.33878403.6775681-.26567209 1.4883919.18885438 2.0944272l4.352 5.8-4.352 5.8c-.45452647.6060353-.52763841 1.4168591-.18885438 2.0944272.33878403.677568 1.03131026 1.1055728 1.78885438 1.1055728h17c1.1045695 0 2-.8954305 2-2v-5h18v5c0 1.1045695.8954305 2 2 2h17c.7575441 0 1.4500704-.4280048 1.7888544-1.1055728.338784-.6775681.2656721-1.4883919-.1888544-2.0944272l-4.352-5.8 4.35-5.8c.4573773-.6047644.5306981-1.4171128.189-2.094zm-35.787-40.106h1.908c2.209139 0 4 1.790861 4 4h-1.908c-2.209139 0-4-1.790861-4-4zm-10 22c0-7.168 4.262-13 9.5-13 1.4634385.0072424 2.8912751.4519613 4.1 1.277 1.4568088.9669779 3.3511912.9669779 4.808 0 1.2064682-.8235173 2.6312919-1.2681654 4.092-1.277 5.238 0 9.5 5.832 9.5 13 .0861429 3.6415448-1.1437456 7.1920312-3.464 10h-25.073c-2.3194972-2.8083334-3.5489726-6.3586524-3.463-10zm-3 12h38v14h-38zm-4.648 15.2c.53101142-.7118834.53101142-1.6881166 0-2.4l-4.352-5.8h7v8c.02386179.320552.17866354.6171348.428.82l7.431 5.18h-14.859zm12.648 4.854-5.816-4.054h5.816zm27.816-4.054-5.816 4.054v-4.054zm6.832-3.2c-.5310114.7118834-.5310114 1.6881166 0 2.4l4.352 5.8h-14.859l7.431-5.18c.2550772-.1981263.4113085-.497448.428-.82v-8h7z"/><path id="Shape" d="m26.623 46.484-.278 1.7c-.1021115.5921095.1453605 1.1901668.636 1.537.4742964.3375517 1.0999913.3736943 1.61.093l1.409-.777 1.41.775c.5096441.2807624 1.1350978.2446112 1.609-.093.4906395-.3468332.7381115-.9448905.636-1.537l-.278-1.7 1.173-1.193c.4136902-.4217285.5562075-1.0396895.369-1.6-.1794328-.5525211-.6555826-.9562805-1.23-1.043l-1.589-.246-.718-1.518c-.2504117-.5395465-.7911753-.8847364-1.386-.8847364s-1.1355883.3451899-1.386.8847364l-.71 1.518-1.587.242c-.5736584.0874188-1.0488873.4910537-1.228 1.043-.1876852.5602875-.0451096 1.1785014.369 1.6zm2.1-2.183c.3293951-.049581.6124772-.2599241.755-.561l.522-1.106.522 1.106c.1425228.3010759.4256049.511419.755.561l1.254.19-.936.953c-.2241058.2276958-.3259267.5487661-.274.864l.212 1.29-1.052-.578c-.2996025-.1643725-.6623975-.1643725-.962 0l-1.052.578.212-1.29c.0519267-.3152339-.0498942-.6363042-.274-.864l-.936-.953z"/><path id="Shape" d="m38.623 46.484-.278 1.7c-.1021115.5921095.1453605 1.1901668.636 1.537.4742964.3375517 1.0999913.3736943 1.61.093l1.409-.777 1.41.775c.5096441.2807624 1.1350978.2446112 1.609-.093.4906395-.3468332.7381115-.9448905.636-1.537l-.278-1.7 1.173-1.193c.4136902-.4217285.5562075-1.0396895.369-1.6-.1794328-.5525211-.6555826-.9562805-1.23-1.043l-1.589-.246-.718-1.518c-.2504117-.5395465-.7911753-.8847364-1.386-.8847364s-1.1355883.3451899-1.386.8847364l-.71 1.518-1.587.242c-.5736584.0874188-1.0488873.4910537-1.228 1.043-.1876852.5602875-.0451096 1.1785014.369 1.6zm2.1-2.183c.3293951-.049581.6124772-.2599241.755-.561l.522-1.106.522 1.106c.1425228.3010759.4256049.511419.755.561l1.254.19-.936.953c-.2241058.2276958-.3259267.5487661-.274.864l.212 1.29-1.052-.578c-.2996025-.1643725-.6623975-.1643725-.962 0l-1.052.578.212-1.29c.0519267-.3152339-.0498942-.6363042-.274-.864l-.936-.953z"/><path id="Shape" d="m14.623 46.484-.278 1.7c-.1021115.5921095.1453605 1.1901668.636 1.537.4742964.3375517 1.0999913.3736943 1.61.093l1.409-.777 1.41.775c.5096441.2807624 1.1350978.2446112 1.609-.093.4906395-.3468332.7381115-.9448905.636-1.537l-.278-1.7 1.173-1.193c.4136902-.4217285.5562075-1.0396895.369-1.6-.1794328-.5525211-.6555826-.9562805-1.23-1.043l-1.589-.246-.718-1.518c-.2504117-.5395465-.7911753-.8847364-1.386-.8847364s-1.1355883.3451899-1.386.8847364l-.71 1.518-1.587.242c-.5736584.0874188-1.0488873.4910537-1.228 1.043-.1876852.5602875-.0451096 1.1785014.369 1.6zm2.1-2.183c.3293951-.049581.6124772-.2599241.755-.561l.522-1.106.522 1.106c.1425228.3010759.4256049.511419.755.561l1.254.19-.936.953c-.2241058.2276958-.3259267.5487661-.274.864l.212 1.29-1.052-.578c-.2996025-.1643725-.6623975-.1643725-.962 0l-1.052.578.212-1.29c.0519267-.3152339-.0498942-.6363042-.274-.864l-.936-.953z"/></g><path id="Shape" d="m17.137 29c-.4987987-.0002156-.9211658-.3679736-.99-.862-.0976607-.7084844-.1467752-1.4228163-.147-2.138 0-4.933 2.374-9.413 5.646-10.653.3373474-.1424096.7255526-.0890502 1.0119664.1390964s.4252273.5945908.3618566.9552401-.3187903.6578216-.665823.7746635c-2.482.942-4.354 4.719-4.354 8.784-.0001299.6228692.042638 1.2450078.128 1.862.0759381.5470378-.3059625 1.0520599-.853 1.128-.0456817.0068115-.0918135.0101544-.138.01z" fill="#f5f5f5"/><circle id="Oval" cx="18" cy="32" fill="#f5f5f5" r="1"/></g></g></svg>