<svg height="512" viewBox="0 0 60 60" width="512" xmlns="http://www.w3.org/2000/svg"><g id="Page-1" fill="none" fill-rule="evenodd"><g id="080---Orange-Data" fill-rule="nonzero"><rect id="Rectangle-path" fill="#02a9f4" height="16" rx="2" width="22" x="1" y="43"/><path id="Shape" d="m21 43h-3c1.1032019.0032948 1.9967052.8967981 2 2v12c-.0032948 1.1032019-.8967981 1.9967052-2 2h3c1.1032019-.0032948 1.9967052-.8967981 2-2v-12c-.0032948-1.1032019-.8967981-1.9967052-2-2z" fill="#0377bc"/><circle id="Oval" cx="30" cy="30" fill="#ff9801" r="12"/><path id="Shape" d="m30 18c-.5016016.0018663-1.0025897.0352655-1.5.1 5.9981525.7514856 10.4985957 5.8509554 10.4985957 11.896s-4.5004432 11.1445144-10.4985957 11.896c4.4513412.6000263 8.8650932-1.3360521 11.4384127-5.0174236 2.5733196-3.6813716 2.8753186-8.4916109.7826423-12.4659255s-6.2296207-6.4472272-10.721055-6.4086509z" fill="#f57c00"/><path id="Shape" d="m30 13.33v1.6700002l-3.67-.0000002c-.8832522.0002654-1.730405-.3504877-2.3549586-.9750414-.6245537-.6245536-.9753068-1.4717064-.9750414-2.3549586v-1.67h3.33c1.9074622-.02459215 3.5096162 1.4291334 3.67 3.33z" fill="#60a917"/><rect id="Rectangle-path" fill="#02a9f4" height="16" rx="2" width="22" x="37" y="1"/><path id="Shape" d="m57 1h-3c1.1032019.0032948 1.9967052.89679813 2 2v12c-.0032948 1.1032019-.8967981 1.9967052-2 2h3c1.1032019-.0032948 1.9967052-.8967981 2-2v-12c-.0032948-1.10320187-.8967981-1.9967052-2-2z" fill="#0377bc"/><path id="Shape" d="m57 0h-18c-1.6568542 0-3 1.34314575-3 3v15.479c-1.5523739-.8106687-3.253641-1.2965506-5-1.428v-10.051c0-.55228475-.4477153-1-1-1s-1 .44771525-1 1v2.838c-.7855472-.53903019-1.7143264-.83086258-2.667-.838h-3.333c-.5522847 0-1 .44771525-1 1v1.667c.0022052 2.3921358 1.9408642 4.3307948 4.333 4.333h2.667v1.051c-5.3467642.4035349-9.8946617 4.0541619-11.4451231 9.187075-1.5504613 5.1329132.2158774 10.6908351 4.4451231 13.986925v1.959c-.320257-.1184378-.6585603-.1806856-1-.184h-18c-1.65685425 0-3 1.3431458-3 3v12c0 1.6568542 1.34314575 3 3 3h18c1.6568542 0 3-1.3431458 3-3v-15.479c5.9531757 3.1143818 13.2989806 1.1728124 16.9358723-4.4763196 3.6368918-5.649132 2.3634796-13.1397236-2.9358723-17.2696804v-1.959c.320257.1184378.6585603.1806856 1 .184h18c1.6568542 0 3-1.3431458 3-3v-12c0-1.65685425-1.3431458-3-3-3zm-35 57c0 .5522847-.4477153 1-1 1h-18c-.55228475 0-1-.4477153-1-1v-12c0-.5522847.44771525-1 1-1h18c.5522847 0 1 .4477153 1 1zm4.333-43c-1.2877951-.0016528-2.3313472-1.0452049-2.333-2.333v-.667h2.333c1.3543226-.0174814 2.5041924.9883852 2.667 2.333v.667zm14.667 16c.0052594 4.0369687-2.2039841 7.7516055-5.7536905 9.6742935-3.5497063 1.922688-7.8679498 1.7436453-11.2463095-.4662935v-3.208c0-.5522847-.4477153-1-1-1s-1 .4477153-1 1v1.526c-2.8894518-3.057169-3.7778837-7.4966314-2.2874509-11.4303095 1.4904329-3.9336782 5.0976221-6.6697929 9.2874509-7.0446905v2.034c-.4768145.0687782-.9433324.1960714-1.389.379-.4967117.2221565-.7246349.80069-.5129224 1.3019423.2117124.5012523.7853491.7412333 1.2909224.5400577 1.0353702-.4073742 2.1866298-.4073742 3.222 0 .2443957.1030496.5197191.1047864.7653953.004828.2456762-.0999583.4415781-.2934226.5446047-.537828.2140409-.5083815-.0239933-1.094071-.532-1.309-.4456676-.1829286-.9121855-.3102218-1.389-.379v-2.034c1.7842386.1614381 3.5013625.7593407 5 1.741v3.208c0 .5522847.4477153 1 1 1s1-.4477153 1-1v-1.526c1.9256095 2.0327336 2.9991959 4.7260041 3 7.526zm17-15c0 .5522847-.4477153 1-1 1h-18c-.5522847 0-1-.4477153-1-1v-12c0-.55228475.4477153-1 1-1h18c.5522847 0 1 .44771525 1 1z" fill="#000"/><g fill="#f5f5f5"><path id="Shape" d="m19 48h-14c-.55228475 0-1-.4477153-1-1s.44771525-1 1-1h14c.5522847 0 1 .4477153 1 1s-.4477153 1-1 1z"/><path id="Shape" d="m19 52h-14c-.55228475 0-1-.4477153-1-1s.44771525-1 1-1h14c.5522847 0 1 .4477153 1 1s-.4477153 1-1 1z"/><path id="Shape" d="m13 56h-8c-.55228475 0-1-.4477153-1-1s.44771525-1 1-1h8c.5522847 0 1 .4477153 1 1s-.4477153 1-1 1z"/><path id="Shape" d="m22.252 33c-.4559068-.0001121-.8540233-.3085702-.968-.75-.7057905-2.7465458-.075833-5.6651017 1.7-7.876.3497674-.41605.9678085-.4765379 1.391604-.1361966.4237956.3403412.4981397.9568691.167396 1.3881966-1.380134 1.7194445-1.8682573 3.9891991-1.317 6.124.0665067.2570039.0280929.5299056-.106776.7585636-.1348688.2286581-.3551233.3943052-.612224.4604364-.0833791.0209028-.1690413.0313166-.255.031z"/><path id="Shape" d="m55 6h-14c-.5522847 0-1-.44771525-1-1s.4477153-1 1-1h14c.5522847 0 1 .44771525 1 1s-.4477153 1-1 1z"/><path id="Shape" d="m55 10h-14c-.5522847 0-1-.44771525-1-1s.4477153-1 1-1h14c.5522847 0 1 .44771525 1 1s-.4477153 1-1 1z"/><path id="Shape" d="m49 14h-8c-.5522847 0-1-.4477153-1-1s.4477153-1 1-1h8c.5522847 0 1 .4477153 1 1s-.4477153 1-1 1z"/></g></g></g></svg>