<svg height="512" viewBox="0 0 60 60" width="512" xmlns="http://www.w3.org/2000/svg"><g id="Page-1" fill="none" fill-rule="evenodd"><g id="082---Farm-Insurance"><g fill-rule="nonzero"><path id="Shape" d="m55 15.08c.0228.1891152-.062753.3749694-.2212458.4806313-.1584929.1056619-.3629555.1131515-.5287542.0193687-1.580874-.9348633-3.3740415-1.4511304-5.21-1.5-2.048799.0677987-4.0388871.7011659-5.75 1.83-.086424.0552188-.1874884.0830987-.29.08 0-8.28-5.82-14.99-13-14.99 13.27 0 24.13 6.22 25 14.08z" fill="#02a9f4"/><path id="Shape" d="m30 1c1.0629148.00533955 2.1198451.15950327 3.14.458 10.066 1.529 17.7 6.73 18.781 13.1.8100306.2580351 1.5906617.6005877 2.329 1.022.1657987.0937828.3702613.0862932.5287542-.0193687.1584928-.1056619.2440458-.2915161.2212458-.4806313-.87-7.86-11.73-14.08-25-14.08z" fill="#0377bc"/><path id="Shape" d="m43 15.99c-.0852508.0015691-.1689601-.0228461-.24-.07-1.888714-1.1445085-4.0424299-1.7785624-6.25-1.84-2.2119708.0622329-4.3695375.6998525-6.26 1.85-.074131.0485334-.1614449.0729813-.25.07v-15c7.18 0 13 6.71 13 14.99z" fill="#0377bc"/><path id="Shape" d="m30 1c-7.18 0-13 6.71-13 14.99-.1025116.0030987-.203576-.0247812-.29-.08-1.7111129-1.1288341-3.701201-1.7622013-5.75-1.83-1.83595853.0488696-3.62912603.5651367-5.21 1.5-.16579868.0937828-.37026133.0862932-.52875418-.0193687-.15849284-.1056619-.24404584-.2915161-.22124582-.4806313.87-7.86 11.73-14.08 25-14.08z" fill="#0377bc"/><path id="Shape" d="m30 1v15c-.0885551.0029813-.175869-.0214666-.25-.07-1.8904625-1.1501475-4.0480292-1.7877671-6.26-1.85-2.2075701.0614376-4.361286.6954915-6.25 1.84-.0710399.0471539-.1547492.0715691-.24.07 0-8.28 5.82-14.99 13-14.99z" fill="#02a9f4"/><path id="Shape" d="m37.26 31-4.02-5.86c-.1596755-.2345963-.367656-.4323482-.61-.58l-8.6-5.27c-.6313068-.3899425-1.4286932-.3899425-2.06 0l-8.6 5.27c-.242344.1476518-.4503245.3454037-.61.58l-4.76 6.94v21.92h6v-10c0-.5522847.4477153-1 1-1h16c.5522847 0 1 .4477153 1 1v10h6v-21.92zm-8.26 3c0 .5522847-.4477153 1-1 1h-10c-.5522847 0-1-.4477153-1-1v-5.67c.0031474-.3341542.1716936-.6450284.45-.83l5-3.33c.3305929-.2300179.7694071-.2300179 1.1 0l5 3.33c.2783064.1849716.4468526.4958458.45.83z" fill="#f44335"/><path id="Shape" d="m37.26 31-4.02-5.86c-.1596755-.2345963-.367656-.4323482-.61-.58l-8.6-5.27c-.6313068-.3899425-1.4286932-.3899425-2.06 0l-.47.288 8.13 4.982c.242344.1476518.4503245.3454037.61.58l4.02 5.86.74 1.08v21.92h3v-21.92z" fill="#c81e1e"/><path id="Shape" d="m38 39v15h17v-15zm13 10c0 .5522847-.4477153 1-1 1h-7c-.5522847 0-1-.4477153-1-1v-5c0-.5522847.4477153-1 1-1h7c.5522847 0 1 .4477153 1 1z" fill="#ff9801"/><path id="Rectangle-path" d="m52 39h3v15h-3z" fill="#f57c00"/><rect id="Rectangle-path" fill="#02a9f4" height="7" rx="1" width="9" x="42" y="43"/><path id="Shape" d="m50 43h-3c.5522847 0 1 .4477153 1 1v5c0 .5522847-.4477153 1-1 1h3c.5522847 0 1-.4477153 1-1v-5c0-.5522847-.4477153-1-1-1z" fill="#0377bc"/><path id="Shape" d="m55 33v6h-17v-6.92l-.74-1.08h15.74c1.1032019.0032948 1.9967052.8967981 2 2z" fill="#ff5722"/><path id="Shape" d="m53 31h-3c1.1032019.0032948 1.9967052.8967981 2 2v6h3v-6c-.0032948-1.1032019-.8967981-1.9967052-2-2z" fill="#d84315"/><path id="Shape" d="m32 44v10h-4v-11h3c.5522847 0 1 .4477153 1 1z" fill="#624421"/><path id="Rectangle-path" d="m18 43h10v11h-10z" fill="#825a2c"/><path id="Shape" d="m18 43v11h-4v-10c0-.5522847.4477153-1 1-1z" fill="#624421"/><path id="Shape" d="m29 28.33v5.67c0 .5522847-.4477153 1-1 1h-10c-.5522847 0-1-.4477153-1-1v-5.67c.0031474-.3341542.1716936-.6450284.45-.83l5-3.33c.3305929-.2300179.7694071-.2300179 1.1 0l5 3.33c.2783064.1849716.4468526.4958458.45.83z" fill="#02a9f4"/><path id="Shape" d="m28.55 27.5-5-3.33c-.3305929-.2300179-.7694071-.2300179-1.1 0l-.95.633 4.05 2.7c.2783064.1849716.4468526.4958458.45.83v5.667c0 .5522847-.4477153 1-1 1h3c.5522847 0 1-.4477153 1-1v-5.67c-.0031474-.3341542-.1716936-.6450284-.45-.83z" fill="#0377bc"/></g><path id="Shape" d="m1 54h58" stroke="#000" stroke-linecap="round" stroke-linejoin="round" stroke-width="2"/><path id="Shape" d="m30 54v5" stroke="#000" stroke-linecap="round" stroke-linejoin="round" stroke-width="2"/><path id="Shape" d="m14 54-6 5" stroke="#000" stroke-linecap="round" stroke-linejoin="round" stroke-width="2"/><path id="Shape" d="m46 54 6 5" stroke="#000" stroke-linecap="round" stroke-linejoin="round" stroke-width="2"/><path id="Shape" d="m1 54h58v3c0 1.1045695-.8954305 2-2 2h-54c-1.1045695 0-2-.8954305-2-2z" fill="#a0522d" fill-rule="nonzero"/><path id="Shape" d="m56 54v3c0 1.1045695-.8954305 2-2 2h3c1.1045695 0 2-.8954305 2-2v-3z" fill="#783e22" fill-rule="nonzero"/><path id="Shape" d="m6.246 16.448c1.43139632-.8451857 3.05256852-1.3163367 4.714-1.37 1.852518.0733397 3.6501227.6496103 5.2 1.667.4820603.3201653 1.1058998.3322522 1.6.031 1.7318915-1.0494708 3.7049923-1.6349607 5.729-1.7 2.0268337.0630879 4.003004.6486708 5.737 1.7.4755814.2939364 1.0764186.2939364 1.552 0 1.7346742-1.0514502 3.7115196-1.6370291 5.739-1.7 2.023899.0657108 3.9968333.6511513 5.729 1.7.4935569.3032549 1.1185603.2911454 1.6-.031 1.5500462-1.0168988 3.3476044-1.5928088 5.2-1.666 1.6614315.0536633 3.2826037.5248143 4.714 1.37.4870478.2820036 1.0918007.2637951 1.561-.047.4790509-.3111185.7408533-.8664804.676-1.434-.931-8.394-12.348-14.968-25.997-14.968s-25.066 6.574-25.991 14.967c-.06421659.5671394.19748007 1.1218899.676 1.433.46908146.3108751 1.0737043.329467 1.561.048zm11.847-2.109c.668-6.557 5.23-11.73 10.907-12.28v12.341c-1.7195735-.8370749-3.6017593-1.2869699-5.514-1.318-1.8668664.0285646-3.705892.4572046-5.393 1.257zm12.907.061v-12.341c5.677.55 10.239 5.723 10.907 12.28-1.6867999-.8011766-3.5258394-1.2311838-5.393-1.261-1.9125419.0322779-3.7947426.4835418-5.514 1.322zm22.844-.156c-3.124564-1.6012032-6.8406447-1.5446093-9.915.151-.3325968-4.53062327-2.516101-8.72438363-6.037-11.595 8.394 1.717 14.742 6.086 15.952 11.44zm-31.736-11.444c-3.5219246 2.87193681-5.7055102 7.06766191-6.037 11.6-1.5783947-.8292573-3.328366-1.2791619-5.111-1.314-1.66547369.0335872-3.30356604.430142-4.8 1.162 1.206-5.362 7.554-9.731 15.948-11.448z" fill="#000" fill-rule="nonzero"/><path id="Shape" d="m50 42h-7c-1.1045695 0-2 .8954305-2 2v5c0 1.1045695.8954305 2 2 2h7c1.1045695 0 2-.8954305 2-2v-5c0-1.1045695-.8954305-2-2-2zm-7 2h3.484l-2.143 5h-1.341zm7 5h-3.484l2.143-5h1.341z" fill="#000" fill-rule="nonzero"/><path id="Shape" d="m44 36h7c.5522847 0 1-.4477153 1-1s-.4477153-1-1-1h-7c-.5522847 0-1 .4477153-1 1s.4477153 1 1 1z" fill="#000" fill-rule="nonzero"/><circle id="Oval" cx="22" cy="48" fill="#000" fill-rule="nonzero" r="1"/><path id="Shape" d="m18 36h10c1.1045695 0 2-.8954305 2-2v-5.667c-.0001229-.6687467-.3344799-1.29318-.891-1.664l-5-3.333c-.6711241-.4491298-1.5468759-.4491298-2.218 0l-5 3.333c-.5565201.37082-.8908771.9952533-.891 1.664v5.667c0 1.1045695.8954305 2 2 2zm0-5h4v3h-4zm6 3v-3h4v3zm4-5.667v.667h-4v-3.333zm-6-2.666v3.333h-4v-.667z" fill="#000" fill-rule="nonzero"/><path id="Shape" d="m11 39c0 .5522847.4477153 1 1 1h22c.5522847 0 1-.4477153 1-1s-.4477153-1-1-1h-22c-.5522847 0-1 .4477153-1 1z" fill="#000" fill-rule="nonzero"/><path id="Shape" d="m59 53h-3v-20c0-1.6568542-1.3431458-3-3-3h-15.215l-3.716-5.42c-.2388535-.3508635-.5497638-.6467737-.912-.868l-8.606-5.274c-.9507818-.5841342-2.1492182-.5841342-3.1 0l-8.606 5.274c-.3618734.2212772-.6727103.5167766-.912.867l-6.758 9.856c-.20714377.2946595-.23982185.67795-.08554849 1.0034227.15427335.3254727.471659.5428338.8308892.5690332s.70479477-.1428112.90465929-.4424559l.175-.255v17.69h-6c-.55228475 0-1 .4477153-1 1s.44771525 1 1 1h10.238l-3.878 3.231c-.27473724.22865-.40662161.5865018-.34597354.9387563.06064807.3522544.3046147.6453955.64.769.33538531.1236044.7112363.0588937.98597354-.1697563l5.722-4.769h14.638v4c0 .5522847.4477153 1 1 1s1-.4477153 1-1v-4h14.638l5.722 4.769c.424707.3534622 1.0555377.2957069 1.4089999-.129.3534623-.424707.295707-1.0555377-.1289999-1.409l-3.878-3.231h10.238c.5522847 0 1-.4477153 1-1s-.4477153-1-1-1zm-6-21c.5522847 0 1 .4477153 1 1v5h-15v-2.69l.175.255c.3148744.447905.9313943.5593221 1.3831221.249957.4517277-.3093651.5706873-.9244742.2668779-1.379957l-1.669-2.435zm-16 13v3h-4v-3zm-4 5h4v3h-4zm-19.419-24.291c.0807216-.1177873.1853201-.217275.307-.292l8.6-5.273c.3103887-.1919465.7026113-.1919465 1.013 0l8.606 5.273c.1219474.0747985.2265951.174674.307.293l1.575 2.29h-.989c-.5522847 0-1 .4477153-1 1s.4477153 1 1 1h2.36l1.64 2.392v.608h-4c-.5522847 0-1 .4477153-1 1s.4477153 1 1 1h4v8h-4.278c-.3544126-.6167513-1.0106732-.997855-1.722-1h-16c-.7113268.002145-1.3675874.3832487-1.722 1h-4.278v-8h4c.5522847 0 1-.4477153 1-1s-.4477153-1-1-1h-4v-.608l1.64-2.392h2.36c.5522847 0 1-.4477153 1-1s-.4477153-1-1-1h-.989zm13.419 18.291v9h-8v-9zm-18 1h4v3h-4zm0 5h4v3h-4zm6-6h2v9h-2zm14 9v-9h2v9zm10 0v-13h15v13z" fill="#000" fill-rule="nonzero"/></g></g></svg>