<svg height="512" viewBox="0 0 60 60" width="512" xmlns="http://www.w3.org/2000/svg"><g id="Page-1" fill="none" fill-rule="evenodd"><g id="084---Indoor-Farming" fill-rule="nonzero"><path id="Shape" d="m6 6h-3c-1.10320187-.0032948-1.9967052-.89679813-2-2-.00282307-.53059053.2101411-1.0395388.59-1.41.3704612-.3798589.87940947-.59282307 1.41-.59l3-.00002771z" fill="#9e9e9e"/><path id="Rectangle-path" d="m14 2h12v4h-12z" fill="#9e9e9e"/><path id="Rectangle-path" d="m34 2h12v4h-12z" fill="#9e9e9e"/><path id="Shape" d="m54 2h3c1.1032019.0032948 1.9967052.89679813 2 2-.0081672 1.10116878-.8988312 1.99183278-2 2h-3z" fill="#9e9e9e"/><rect id="Rectangle-path" fill="#02a9f4" height="6" rx="1" width="8" x="6" y="1"/><rect id="Rectangle-path" fill="#02a9f4" height="6" rx="1" width="8" x="26" y="1"/><rect id="Rectangle-path" fill="#02a9f4" height="6" rx="1" width="8" x="46" y="1"/><rect id="Rectangle-path" fill="#a0522d" height="4" rx="1" width="58" x="1" y="42"/><path id="Shape" d="m58 42h-3c.5522847 0 1 .4477153 1 1v2c0 .5522847-.4477153 1-1 1h3c.5522847 0 1-.4477153 1-1v-2c0-.5522847-.4477153-1-1-1z" fill="#783e22"/><path id="Shape" d="m10 46v12c0 .5522847-.44771525 1-1 1h-2c-.55228475 0-1-.4477153-1-1v-12z" fill="#ff9801"/><path id="Shape" d="m54 46v12c0 .5522847-.4477153 1-1 1h-2c-.5522847 0-1-.4477153-1-1v-12z" fill="#ff9801"/><path id="Rectangle-path" d="m10 46h40v6h-40z" fill="#ff5722"/><path id="Shape" d="m23 36h3c2.209139 0 4 1.790861 4 4v2h-4c-2.209139 0-4-1.790861-4-4v-1c0-.5522847.4477153-1 1-1z" fill="#60a917"/><path id="Shape" d="m34 36h4v2c0 2.209139-1.790861 4-4 4h-3c-.5522847 0-1-.4477153-1-1v-1c0-2.209139 1.790861-4 4-4z" fill="#549414" transform="matrix(-1 0 0 -1 68 78)"/><path id="Shape" d="m3 36h3c2.209139 0 4 1.790861 4 4v2h-4c-2.209139 0-4-1.790861-4-4v-1c0-.5522847.44771525-1 1-1z" fill="#60a917"/><path id="Shape" d="m14 36h4v2c0 2.209139-1.790861 4-4 4h-3c-.5522847 0-1-.4477153-1-1v-1c0-2.209139 1.790861-4 4-4z" fill="#549414" transform="matrix(-1 0 0 -1 28 78)"/><path id="Shape" d="m43 36h3c2.209139 0 4 1.790861 4 4v2h-4c-2.209139 0-4-1.790861-4-4v-1c0-.5522847.4477153-1 1-1z" fill="#60a917"/><path id="Shape" d="m54 36h4v2c0 2.209139-1.790861 4-4 4h-3c-.5522847 0-1-.4477153-1-1v-1c0-2.209139 1.790861-4 4-4z" fill="#549414" transform="matrix(-1 0 0 -1 108 78)"/><path id="Shape" d="m57 1h-2.278c-.3544126-.61675126-1.0106732-.997855-1.722-1h-6c-.7113268.002145-1.3675874.38324874-1.722 1h-10.556c-.3544126-.61675126-1.0106732-.997855-1.722-1h-6c-.7113268.002145-1.3675874.38324874-1.722 1h-10.556c-.3544126-.61675126-1.0106732-.997855-1.722-1h-6c-.71132678.002145-1.36758742.38324874-1.722 1h-2.278c-.79208511-.00643329-1.55284344.30898549-2.108.874-.57399851.55792893-.89606134 1.32553608-.892 2.126 0 1.65685425 1.34314575 3 3 3h2.278c.35441258.61675126 1.01067322.997855 1.722 1h6c.7113268-.002145 1.3675874-.38324874 1.722-1h10.556c.3544126.61675126 1.0106732.997855 1.722 1h6c.7113268-.002145 1.3675874-.38324874 1.722-1h10.556c.3544126.61675126 1.0106732.997855 1.722 1h6c.7113268-.002145 1.3675874-.38324874 1.722-1h2.278c.7920851.00643329 1.5528434-.30898549 2.108-.874.5739985-.55792893.8960613-1.32553608.892-2.126 0-1.65685425-1.3431458-3-3-3zm-22 2h10v2h-10zm-20 0h10v2h-10zm-13 1c-.00067119-.26969182.11005477-.52769054.306-.713.18309032-.18545144.4334037-.2889672.694-.287h2v2h-2c-.55228475 0-1-.44771525-1-1zm5 2v-4h6v4zm20 0v-4h6v4zm20 0v-4h6v4zm10.694-1.287c-.1830903.18545144-.4334037.2889672-.694.287h-2v-2h2c.5522847 0 1 .44771525 1 1 .0006712.26969182-.1100548.52769054-.306.713z" fill="#000"/><path id="Shape" d="m58 41h-.026c.6618067-.8603889 1.0223232-1.9145307 1.026-3v-1c0-1.1045695-.8954305-2-2-2h-3c-1.0854693.0036768-2.1396111.3641933-3 1.026v-4.026c0-.5522847-.4477153-1-1-1s-1 .4477153-1 1v4.026c-.8603889-.6618067-1.9145307-1.0223232-3-1.026h-3c-1.1045695 0-2 .8954305-2 2v1c.0036768 1.0854693.3641933 2.1396111 1.026 3h-4.052c.6618067-.8603889 1.0223232-1.9145307 1.026-3v-1c0-1.1045695-.8954305-2-2-2h-3c-1.0854693.0036768-2.1396111.3641933-3 1.026v-4.026c0-.5522847-.4477153-1-1-1s-1 .4477153-1 1v4.026c-.8603889-.6618067-1.9145307-1.0223232-3-1.026h-3c-1.1045695 0-2 .8954305-2 2v1c.0036768 1.0854693.3641933 2.1396111 1.026 3h-4.052c.6618067-.8603889 1.0223232-1.9145307 1.026-3v-1c0-1.1045695-.8954305-2-2-2h-3c-1.0854693.0036768-2.1396111.3641933-3 1.026v-4.026c0-.5522847-.4477153-1-1-1-.55228475 0-1 .4477153-1 1v4.026c-.86038886-.6618067-1.91453073-1.0223232-3-1.026h-3c-1.1045695 0-2 .8954305-2 2v1c.00367682 1.0854693.36419333 2.1396111 1.026 3h-.026c-1.1045695 0-2 .8954305-2 2v2c0 1.1045695.8954305 2 2 2h3v11c0 1.1045695.8954305 2 2 2h2c1.1045695 0 2-.8954305 2-2v-5h38v5c0 1.1045695.8954305 2 2 2h2c1.1045695 0 2-.8954305 2-2v-11h3c1.1045695 0 2-.8954305 2-2v-2c0-1.1045695-.8954305-2-2-2zm-4-4h3v1c0 1.6568542-1.3431458 3-3 3h-3v-1c0-1.6568542 1.3431458-3 3-3zm-11 1v-1h3c1.6568542 0 3 1.3431458 3 3v1h-3c-1.6568542 0-3-1.3431458-3-3zm-9-1h3v1c0 1.6568542-1.3431458 3-3 3h-3v-1c0-1.6568542 1.3431458-3 3-3zm-11 1v-1h3c1.6568542 0 3 1.3431458 3 3v1h-3c-1.6568542 0-3-1.3431458-3-3zm-9-1h3v1c0 1.6568542-1.3431458 3-3 3h-3v-1c0-1.6568542 1.3431458-3 3-3zm-11 1v-1h3c1.65685425 0 3 1.3431458 3 3v1h-3c-1.65685425 0-3-1.3431458-3-3zm4 20v-11h2v11zm4-7v-4h38v4zm42 7h-2v-11h2zm1-13h-52v-2h56v2z" fill="#000"/><g fill="#00bcd4"><path id="Shape" d="m30 13c-.5522847 0-1-.4477153-1-1v-1c0-.5522847.4477153-1 1-1s1 .4477153 1 1v1c0 .5522847-.4477153 1-1 1z"/><path id="Shape" d="m30 18c-.5522847 0-1-.4477153-1-1v-1c0-.5522847.4477153-1 1-1s1 .4477153 1 1v1c0 .5522847-.4477153 1-1 1z"/><path id="Shape" d="m30 23c-.5522847 0-1-.4477153-1-1v-1c0-.5522847.4477153-1 1-1s1 .4477153 1 1v1c0 .5522847-.4477153 1-1 1z"/><path id="Shape" d="m30 28c-.5522847 0-1-.4477153-1-1v-1c0-.5522847.4477153-1 1-1s1 .4477153 1 1v1c0 .5522847-.4477153 1-1 1z"/><path id="Shape" d="m23 28c-.0620995-.0000887-.1240482-.0061162-.185-.018-.2609012-.0485511-.4918042-.1988173-.641855-.4177039-.1500509-.2188867-.2069425-.4884409-.158145-.7492961l.188-1c.1121832-.5321517.6290813-.8770891 1.1635371-.7764536.5344557.1006354.8905034.6099443.8014629 1.1464536l-.187 1c-.0888526.4719977-.5007127.8141649-.981.815z"/><path id="Shape" d="m23.938 23c-.0620995-.0000887-.1240482-.0061162-.185-.018-.2609012-.0485511-.4918042-.1988173-.641855-.4177039-.1500509-.2188867-.2069425-.4884409-.158145-.7492961l.187-1c.0660941-.3511921.3145264-.6404461.6517147-.758803.3371883-.1183568.7119058-.0478352.983.185.2710942.2328353.3973794.5926109.3312853.943803l-.188 1c-.088782.4716285-.5000896.8136854-.98.815z"/><path id="Shape" d="m24.876 18c-.0620995-.0000887-.1240482-.0061162-.185-.018-.2609012-.0485511-.4918042-.1988173-.641855-.4177039-.1500509-.2188867-.2069425-.4884409-.158145-.7492961l.188-1c.1121832-.5321517.6290813-.8770891 1.1635371-.7764536.5344557.1006354.8905034.6099443.8014629 1.1464536l-.187 1c-.0888526.4719977-.5007127.8141649-.981.815z"/><path id="Shape" d="m25.813 13c-.0620995-.0000887-.1240482-.0061162-.185-.018-.2609012-.0485511-.4918042-.1988173-.641855-.4177039-.1500509-.2188867-.2069425-.4884409-.158145-.7492961l.187-1c.1021727-.5428959.6251041-.90017266 1.168-.798.5428959.1021727.9001727.6251041.798 1.168l-.188 1c-.088782.4716285-.5000896.8136854-.98.815z"/><path id="Shape" d="m37 28c-.4806641-.000355-.8930772-.3426327-.982-.815l-.187-1c-.0890405-.5365093.2670072-1.0458182.8014629-1.1464536.5344558-.1006355 1.0513539.2443019 1.1635371.7764536l.188 1c.0487975.2608552-.0080941.5304094-.158145.7492961-.1500508.2188866-.3809538.3691528-.641855.4177039-.0606239.0118205-.1222347.0178477-.184.018z"/><path id="Shape" d="m36.062 23c-.4806641-.000355-.8930772-.3426327-.982-.815l-.188-1c-.1021727-.5428959.2551041-1.0658273.798-1.168s1.0658273.2551041 1.168.798l.187 1c.0487975.2608552-.0080941.5304094-.158145.7492961-.1500508.2188866-.3809538.3691528-.641855.4177039-.0602959.0117576-.1215689.0177845-.183.018z"/><path id="Shape" d="m35.124 18c-.4806641-.000355-.8930772-.3426327-.982-.815l-.187-1c-.0890405-.5365093.2670072-1.0458182.8014629-1.1464536.5344558-.1006355 1.0513539.2443019 1.1635371.7764536l.188 1c.0487975.2608552-.0080941.5304094-.158145.7492961-.1500508.2188866-.3809538.3691528-.641855.4177039-.0606239.0118205-.1222347.0178477-.184.018z"/><path id="Shape" d="m34.187 13c-.4806641-.000355-.8930772-.3426327-.982-.815l-.188-1c-.1021727-.5428959.2551041-1.0658273.798-1.168.5428959-.10217266 1.0658273.2551041 1.168.798l.187 1c.0487975.2608552-.0080941.5304094-.158145.7492961-.1500508.2188866-.3809538.3691528-.641855.4177039-.0602959.0117576-.1215689.0177845-.183.018z"/><path id="Shape" d="m10 13c-.55228475 0-1-.4477153-1-1v-1c0-.5522847.44771525-1 1-1 .5522847 0 1 .4477153 1 1v1c0 .5522847-.4477153 1-1 1z"/><path id="Shape" d="m10 18c-.55228475 0-1-.4477153-1-1v-1c0-.5522847.44771525-1 1-1 .5522847 0 1 .4477153 1 1v1c0 .5522847-.4477153 1-1 1z"/><path id="Shape" d="m10 23c-.55228475 0-1-.4477153-1-1v-1c0-.5522847.44771525-1 1-1 .5522847 0 1 .4477153 1 1v1c0 .5522847-.4477153 1-1 1z"/><path id="Shape" d="m10 28c-.55228475 0-1-.4477153-1-1v-1c0-.5522847.44771525-1 1-1 .5522847 0 1 .4477153 1 1v1c0 .5522847-.4477153 1-1 1z"/><path id="Shape" d="m3 28c-.06209948-.0000887-.12404815-.0061162-.185-.018-.26090115-.0485511-.49180422-.1988173-.64185505-.4177039-.15005083-.2188867-.20694242-.4884409-.15814495-.7492961l.188-1c.11218315-.5321517.6290813-.8770891 1.16353707-.7764536.53445576.1006354.89050347.6099443.80146293 1.1464536l-.187 1c-.08885256.4719977-.50071271.8141649-.981.815z"/><path id="Shape" d="m3.938 23c-.06209948-.0000887-.12404815-.0061162-.185-.018-.26090115-.0485511-.49180422-.1988173-.64185505-.4177039-.15005083-.2188867-.20694242-.4884409-.15814495-.7492961l.187-1c.10217268-.5428959.62510409-.9001727 1.168-.798s.90017268.6251041.798 1.168l-.188 1c-.08878195.4716285-.50008963.8136854-.98.815z"/><path id="Shape" d="m4.876 18c-.06209948-.0000887-.12404815-.0061162-.185-.018-.26090115-.0485511-.49180422-.1988173-.64185505-.4177039-.15005083-.2188867-.20694242-.4884409-.15814495-.7492961l.188-1c.11218315-.5321517.6290813-.8770891 1.16353707-.7764536.53445576.1006354.89050347.6099443.80146293 1.1464536l-.187 1c-.08885256.4719977-.50071271.8141649-.981.815z"/><path id="Shape" d="m5.813 13c-.06209948-.0000887-.12404815-.0061162-.185-.018-.26090115-.0485511-.49180422-.1988173-.64185505-.4177039-.15005083-.2188867-.20694242-.4884409-.15814495-.7492961l.187-1c.10217269-.5428959.62510409-.90017266 1.168-.798.5428959.1021727.90017267.6251041.798 1.168l-.188 1c-.08878195.4716285-.50008963.8136854-.98.815z"/><path id="Shape" d="m17 28c-.4806641-.000355-.8930772-.3426327-.982-.815l-.187-1c-.0890405-.5365093.2670072-1.0458182.8014629-1.1464536.5344558-.1006355 1.0513539.2443019 1.1635371.7764536l.188 1c.0487975.2608552-.0080941.5304094-.158145.7492961-.1500508.2188866-.3809538.3691528-.641855.4177039-.0606239.0118205-.1222347.0178477-.184.018z"/><path id="Shape" d="m16.062 23c-.4806641-.000355-.8930772-.3426327-.982-.815l-.188-1c-.1021727-.5428959.2551041-1.0658273.798-1.168s1.0658273.2551041 1.168.798l.187 1c.0487975.2608552-.0080941.5304094-.158145.7492961-.1500508.2188866-.3809538.3691528-.641855.4177039-.0602959.0117576-.1215689.0177845-.183.018z"/><path id="Shape" d="m15.124 18c-.4806641-.000355-.8930772-.3426327-.982-.815l-.187-1c-.0890405-.5365093.2670072-1.0458182.8014629-1.1464536.5344558-.1006355 1.0513539.2443019 1.1635371.7764536l.188 1c.0487975.2608552-.0080941.5304094-.158145.7492961-.1500508.2188866-.3809538.3691528-.641855.4177039-.0606239.0118205-.1222347.0178477-.184.018z"/><path id="Shape" d="m14.187 13c-.4806641-.000355-.8930772-.3426327-.982-.815l-.188-1c-.1021727-.5428959.2551041-1.0658273.798-1.168.5428959-.10217266 1.0658273.2551041 1.168.798l.187 1c.0487975.2608552-.0080941.5304094-.158145.7492961-.1500508.2188866-.3809538.3691528-.641855.4177039-.0602959.0117576-.1215689.0177845-.183.018z"/><path id="Shape" d="m50 13c-.5522847 0-1-.4477153-1-1v-1c0-.5522847.4477153-1 1-1s1 .4477153 1 1v1c0 .5522847-.4477153 1-1 1z"/><path id="Shape" d="m50 18c-.5522847 0-1-.4477153-1-1v-1c0-.5522847.4477153-1 1-1s1 .4477153 1 1v1c0 .5522847-.4477153 1-1 1z"/><path id="Shape" d="m50 23c-.5522847 0-1-.4477153-1-1v-1c0-.5522847.4477153-1 1-1s1 .4477153 1 1v1c0 .5522847-.4477153 1-1 1z"/><path id="Shape" d="m50 28c-.5522847 0-1-.4477153-1-1v-1c0-.5522847.4477153-1 1-1s1 .4477153 1 1v1c0 .5522847-.4477153 1-1 1z"/><path id="Shape" d="m43 28c-.0620995-.0000887-.1240482-.0061162-.185-.018-.2609012-.0485511-.4918042-.1988173-.641855-.4177039-.1500509-.2188867-.2069425-.4884409-.158145-.7492961l.188-1c.1121832-.5321517.6290813-.8770891 1.1635371-.7764536.5344557.1006354.8905034.6099443.8014629 1.1464536l-.187 1c-.0888526.4719977-.5007127.8141649-.981.815z"/><path id="Shape" d="m43.938 23c-.0620995-.0000887-.1240482-.0061162-.185-.018-.2609012-.0485511-.4918042-.1988173-.641855-.4177039-.1500509-.2188867-.2069425-.4884409-.158145-.7492961l.187-1c.0660941-.3511921.3145264-.6404461.6517147-.758803.3371883-.1183568.7119058-.0478352.983.185.2710942.2328353.3973794.5926109.3312853.943803l-.188 1c-.088782.4716285-.5000896.8136854-.98.815z"/><path id="Shape" d="m44.876 18c-.0620995-.0000887-.1240482-.0061162-.185-.018-.2609012-.0485511-.4918042-.1988173-.641855-.4177039-.1500509-.2188867-.2069425-.4884409-.158145-.7492961l.188-1c.1121832-.5321517.6290813-.8770891 1.1635371-.7764536.5344557.1006354.8905034.6099443.8014629 1.1464536l-.187 1c-.0888526.4719977-.5007127.8141649-.981.815z"/><path id="Shape" d="m45.813 13c-.0620995-.0000887-.1240482-.0061162-.185-.018-.2609012-.0485511-.4918042-.1988173-.641855-.4177039-.1500509-.2188867-.2069425-.4884409-.158145-.7492961l.187-1c.1021727-.5428959.6251041-.90017266 1.168-.798.5428959.1021727.9001727.6251041.798 1.168l-.188 1c-.088782.4716285-.5000896.8136854-.98.815z"/><path id="Shape" d="m57 28c-.4806641-.000355-.8930772-.3426327-.982-.815l-.187-1c-.0890405-.5365093.2670072-1.0458182.8014629-1.1464536.5344558-.1006355 1.0513539.2443019 1.1635371.7764536l.188 1c.0487975.2608552-.0080941.5304094-.158145.7492961-.1500508.2188866-.3809538.3691528-.641855.4177039-.0606239.0118205-.1222347.0178477-.184.018z"/><path id="Shape" d="m56.062 23c-.4806641-.000355-.8930772-.3426327-.982-.815l-.188-1c-.1021727-.5428959.2551041-1.0658273.798-1.168s1.0658273.2551041 1.168.798l.187 1c.0487975.2608552-.0080941.5304094-.158145.7492961-.1500508.2188866-.3809538.3691528-.641855.4177039-.0602959.0117576-.1215689.0177845-.183.018z"/><path id="Shape" d="m55.124 18c-.4806641-.000355-.8930772-.3426327-.982-.815l-.187-1c-.0890405-.5365093.2670072-1.0458182.8014629-1.1464536.5344558-.1006355 1.0513539.2443019 1.1635371.7764536l.188 1c.0487975.2608552-.0080941.5304094-.158145.7492961-.1500508.2188866-.3809538.3691528-.641855.4177039-.0606239.0118205-.1222347.0178477-.184.018z"/><path id="Shape" d="m54.187 13c-.4806641-.000355-.8930772-.3426327-.982-.815l-.188-1c-.1021727-.5428959.2551041-1.0658273.798-1.168.5428959-.10217266 1.0658273.2551041 1.168.798l.187 1c.0487975.2608552-.0080941.5304094-.158145.7492961-.1500508.2188866-.3809538.3691528-.641855.4177039-.0602959.0117576-.1215689.0177845-.183.018z"/></g></g></g></svg>