<svg height="512" viewBox="0 0 60 61" width="512" xmlns="http://www.w3.org/2000/svg"><g id="Page-1" fill="none" fill-rule="evenodd"><g id="085---Electric-Fence" fill-rule="nonzero"><g fill="#606060"><rect id="Rectangle-path" height="42" rx="1" width="4" x="1" y="18"/><path id="Shape" d="m23 32.39v26.61c0 .5522847-.4477153 1-1 1h-2c-.5522847 0-1-.4477153-1-1v-29.38c1.1823982 1.1242209 2.53171 2.0586193 4 2.77z"/><path id="Shape" d="m41 29.62v29.38c0 .5522847-.4477153 1-1 1h-2c-.5522847 0-1-.4477153-1-1v-26.61c1.46829-.7113807 2.8176018-1.6457791 4-2.77z"/><rect id="Rectangle-path" height="42" rx="1" width="4" x="55" y="18"/></g><path id="Shape" d="m46 18c0 8.836556-7.163444 16-16 16s-16-7.163444-16-16 7.163444-16 16-16c4.2486005-.01682845 8.328048 1.66347645 11.3322858 4.66771421 3.0042377 3.00423776 4.6845427 7.08368529 4.6677142 11.33228579z" fill="#02a9f4"/><path id="Shape" d="m30 2c-.506 0-1.006.03-1.5.076 6.2484809.59008988 11.5749054 4.77896973 13.6213133 10.7122601 2.0464079 5.9332903.4348258 12.5151074-4.1213133 16.8317399-2.5913828 2.4623476-5.9395076 3.9757-9.5 4.294.5.046.993.086 1.5.086 8.8365559-.0000002 15.9999997-7.1634441 15.9999997-16 0-8.83655587-7.1634438-15.99999981-15.9999997-16z" fill="#0377bc"/><path id="Shape" d="m35 8h-6.674c-.4298711.00075645-.8111612.27615501-.947.684l-3.327 10c-.1015206.3048053-.0504155.6398255.1373651.9004999s.4893677.4152562.8106349.4155001h2.685c.3113351.000559.6046481.1460919.7934195.3936707.1887714.2475787.2514623.5689541.1695805.8693293l-1.968 7.23c-.0542995.1990585.043667.4081354.2313766.4937965.1877095.0856611.4098388.0226596.5246234-.1487965l8.332-11.283c.2047322-.3068587.2239019-.7015085.049874-1.026765-.174028-.3252566-.5129871-.5282902-.881874-.528235h-2.536c-.1183417-.001101-.2269733-.0656774-.2844827-.1691116-.0575095-.1034342-.055034-.2297862.0064827-.3308884l3.725-5.97c.1925741-.30811726.2028676-.69644536.0268872-1.01433201s-.5105404-.51530561-.8738872-.51566799z" fill="#ffdc00"/><path id="Shape" d="m34.936 16h-2.536c-.1183417-.001101-.2269733-.0656774-.2844827-.1691116-.0575095-.1034342-.055034-.2297862.0064827-.3308884l3.725-5.97c.1925741-.30811726.2028676-.69644536.0268872-1.01433201s-.5105404-.51530561-.8738872-.51566799h-3c.3633468.00036238.6979068.19778134.8738872.51566799s.1656869.70621475-.0268872 1.01433201l-3.723 5.97c-.0615167.1011022-.0639922.2274542-.0064827.3308884.0575094.1034342.166141.1680106.2844827.1691116h2.534c.3687074.0003134.7073293.2034902.88111.5286756s.1545228.719615-.05011 1.0263244l-4.927 6.672-1.161 4.266c-.0542995.1990585.043667.4081354.2313766.4937965.1877095.0856611.4098388.0226596.5246234-.1487965l8.332-11.283c.2046328-.3067094.2238907-.701139.05011-1.0263244s-.5124026-.5283622-.88111-.5286756z" fill="#fec108"/><path id="Shape" d="m25 21h2.683l-1.968 7.23c-.1867699.6741502.146743 1.3836618.785 1.67.1884464.085495.3930671.1294884.6.129.4581362.0046737.8881054-.2206377 1.145-.6l8.355-11.32c.4089096-.6136843.4469396-1.4025952.0989549-2.052766-.3479846-.6501709-1.0255165-1.0560985-1.7629549-1.056234h-1.323l3.087-4.94c.3857192-.61714573.4057578-1.39510506.0523218-2.03128988-.353436-.63618481-1.024554-1.03016829-1.7523218-1.02871012h-6.674c-.8619508-.0010693-1.627624.55021537-1.9 1.368l-3.327 10c-.2033207.6104475-.1005376 1.2814348.2761914 1.8030291.376729.5215944.9813926.8300913 1.6248086.8289709zm3.326-12h6.674l-3.725 5.969c-.2546053.409275-.2676541.9243228-.0341003 1.3459654.2335539.4216426.6770958.6837783 1.1591003.6850346l2.56-.039-6.507 8.813 1.156-4.249c.1633467-.600444.0379073-1.242709-.3393605-1.7375667-.3772678-.4948578-.9633752-.7859205-1.5856395-.7874333h-2.684z" fill="#000"/><path id="Shape" d="m58 17h-2c-1.1045695 0-2 .8954305-2 2v3h-7.495c1.6971037-6.8599821-1.0266814-14.05447231-6.8413822-18.07053625-5.8147008-4.01606393-13.5075348-4.01606393-19.3222356 0-5.8147008 4.01606394-8.5384859 11.21055415-6.8413822 18.07053625h-7.5v-3c0-1.1045695-.8954305-2-2-2h-2c-1.1045695 0-2 .8954305-2 2v40c0 1.1045695.8954305 2 2 2h2c1.1045695 0 2-.8954305 2-2v-3h12v3c0 1.1045695.8954305 2 2 2h2c1.1045695 0 2-.8954305 2-2v-3h12v3c0 1.1045695.8954305 2 2 2h2c1.1045695 0 2-.8954305 2-2v-3h12v3c0 1.1045695.8954305 2 2 2h2c1.1045695 0 2-.8954305 2-2v-40c0-1.1045695-.8954305-2-2-2zm-4 7v14h-12v-7.971c1.7086683-1.7109923 3.0333809-3.76624 3.886-6.029zm-24-21c8.2842712 0 15 6.71572875 15 15 0 8.2842712-6.7157288 15-15 15s-15-6.7157288-15-15c.0093685-8.28038757 6.7196124-14.99063148 15-15zm6 35h-12v-4.114c3.8621117 1.4853323 8.1378883 1.4853323 12 0zm-21.886-14c.8526191 2.26276 2.1773317 4.3180077 3.886 6.029v7.971h-12v-14zm-12.114 35v-40h2v4 36zm4-5v-14h12v14zm16 5h-2v-27.283c.6362762.4708899 1.3045579.8969195 2 1.275zm2-5v-14h12v14zm16 5h-2v-26.008c.6954421-.3780805 1.3637238-.8041101 2-1.275zm2-5v-14h12v14zm14 5v-40h2v40z" fill="#000"/></g></g></svg>