<svg height="512" viewBox="0 0 60 60" width="512" xmlns="http://www.w3.org/2000/svg"><g id="Page-1" fill="none" fill-rule="evenodd"><g id="086---Solar-Pannel-Farm" fill-rule="nonzero"><path id="Shape" d="m37 55h-14c-.322248.0001877-.6248391-.1549273-.8128165-.4166681-.1879775-.2617408-.2383029-.5980285-.1351835-.9033319l2.7-8c.1373377-.4066133.5188194-.68025.948-.68h8.6c.4291806-.00025.8106623.2733867.948.68l2.7 8c.1031194.3053034.052794.6415911-.1351835.9033319-.1879774.2617408-.4905685.4168558-.8128165.4166681z" fill="#02a9f4"/><path id="Shape" d="m37.947 53.68-2.7-8c-.1372201-.4062648-.5181873-.6798209-.947-.68l-3-.0000002c.4291806-.0002498.8106623.2733869.948.6800002l2.7 8c.1031194.3053034.052794.6415911-.1351835.9033319-.1879774.2617408-.4905685.4168558-.8128165.4166681h3c.3220716-.0001345.6243643-.1553829.8121081-.4170744.1877437-.2616914.2379548-.5977893.1348919-.9029256z" fill="#0377bc"/><path id="Rectangle-path" d="m28 55h4v4h-4z" fill="#607d8b"/><path id="Shape" d="m16 55h-14c-.32224797.0001877-.62483905-.1549273-.81281654-.4166681s-.23830288-.5980285-.13518346-.9033319l2.7-8c.13733773-.4066133.51881942-.68025.948-.68h8.6c.4291806-.00025.8106623.2733867.948.68l2.7 8c.1031194.3053034.052794.6415911-.1351835.9033319-.1879774.2617408-.4905685.4168558-.8128165.4166681z" fill="#02a9f4"/><path id="Shape" d="m16.947 53.68-2.7-8c-.1372201-.4062648-.5181873-.6798209-.947-.68l-3-.0000002c.4291806-.0002498.8106623.2733869.948.6800002l2.7 8c.1031194.3053034.052794.6415911-.1351835.9033319-.1879774.2617408-.4905685.4168558-.8128165.4166681h3c.3220716-.0001345.6243643-.1553829.8121081-.4170744.1877437-.2616914.2379548-.5977893.1348919-.9029256z" fill="#0377bc"/><path id="Rectangle-path" d="m7 55h4v4h-4z" fill="#607d8b"/><path id="Shape" d="m58 55h-14c-.322248.0001877-.6248391-.1549273-.8128165-.4166681-.1879775-.2617408-.2383029-.5980285-.1351835-.9033319l2.7-8c.1373377-.4066133.5188194-.68025.948-.68h8.6c.4291806-.00025.8106623.2733867.948.68l2.7 8c.1031194.3053034.052794.6415911-.1351835.9033319-.1879774.2617408-.4905685.4168558-.8128165.4166681z" fill="#02a9f4"/><path id="Shape" d="m58.947 53.68-2.7-8c-.1372201-.4062648-.5181873-.6798209-.947-.68l-3-.0000002c.4291806-.0002498.8106623.2733869.948.6800002l2.7 8c.1031194.3053034.052794.6415911-.1351835.9033319-.1879774.2617408-.4905685.4168558-.8128165.4166681h3c.3220716-.0001345.6243643-.1553829.8121081-.4170744.1877437-.2616914.2379548-.5977893.1348919-.9029256z" fill="#0377bc"/><path id="Rectangle-path" d="m49 55h4v4h-4z" fill="#607d8b"/><path id="Shape" d="m47 37h-14c-.322248.0001877-.6248391-.1549273-.8128165-.4166681-.1879775-.2617408-.2383029-.5980285-.1351835-.9033319l2.7-8c.1373377-.4066133.5188194-.68025.948-.68h8.6c.4291806-.00025.8106623.2733867.948.68l2.7 8c.1031194.3053034.052794.6415911-.1351835.9033319-.1879774.2617408-.4905685.4168558-.8128165.4166681z" fill="#02a9f4"/><path id="Shape" d="m47.947 35.68-2.7-8c-.1372201-.4062648-.5181873-.6798209-.947-.68l-3-.0000002c.4291806-.0002498.8106623.2733869.948.6800002l2.7 8c.1031194.3053034.052794.6415911-.1351835.9033319-.1879774.2617408-.4905685.4168558-.8128165.4166681h3c.3220716-.0001345.6243643-.1553829.8121081-.4170744.1877437-.2616914.2379548-.5977893.1348919-.9029256z" fill="#0377bc"/><path id="Rectangle-path" d="m38 37h4v4h-4z" fill="#607d8b"/><path id="Shape" d="m27 37h-14c-.322248.0001877-.6248391-.1549273-.8128165-.4166681-.1879775-.2617408-.2383029-.5980285-.1351835-.9033319l2.7-8c.1373377-.4066133.5188194-.68025.948-.68h8.6c.4291806-.00025.8106623.2733867.948.68l2.7 8c.1031194.3053034.052794.6415911-.1351835.9033319-.1879774.2617408-.4905685.4168558-.8128165.4166681z" fill="#02a9f4"/><path id="Shape" d="m27.947 35.68-2.7-8c-.1372201-.4062648-.5181873-.6798209-.947-.68l-3-.0000002c.4291806-.0002498.8106623.2733869.948.6800002l2.7 8c.1031194.3053034.052794.6415911-.1351835.9033319-.1879774.2617408-.4905685.4168558-.8128165.4166681h3c.3220716-.0001345.6243643-.1553829.8121081-.4170744.1877437-.2616914.2379548-.5977893.1348919-.9029256z" fill="#0377bc"/><path id="Rectangle-path" d="m18 37h4v4h-4z" fill="#607d8b"/><path id="Shape" d="m37 19h-14c-.322248.0001877-.6248391-.1549273-.8128165-.4166681-.1879775-.2617408-.2383029-.5980285-.1351835-.9033319l2.7-8c.1373377-.4066133.5188194-.68024995.948-.68h8.6c.4291806-.00024995.8106623.2733867.948.68l2.7 8c.1031194.3053034.052794.6415911-.1351835.9033319-.1879774.2617408-.4905685.4168558-.8128165.4166681z" fill="#02a9f4"/><path id="Shape" d="m37.947 17.68-2.7-8c-.1372201-.40626477-.5181873-.67982094-.947-.68l-3-.00000017c.4291806-.00024978.8106623.27338687.948.68000017l2.7 8c.1031194.3053034.052794.6415911-.1351835.9033319-.1879774.2617408-.4905685.4168558-.8128165.4166681h3c.3220716-.0001345.6243643-.1553829.8121081-.4170744.1877437-.2616914.2379548-.5977893.1348919-.9029256z" fill="#0377bc"/><path id="Rectangle-path" d="m28 19h4v4h-4z" fill="#607d8b"/><circle id="Oval" cx="10" cy="10" fill="#ffeb3a" r="4"/><path id="Shape" d="m10 6c-.51468434.00216946-1.02407235.10404706-1.5.3 1.5110147.60851068 2.5007405 2.07405844 2.5007405 3.703 0 1.6289416-.9897258 3.0944893-2.5007405 3.703 1.49641401.6077595 3.211506.2559465 4.3478056-.8918556s1.4708211-2.86635044.8480212-4.35656747-2.0807039-2.45966481-3.6958268-2.45757693z" fill="#fdd834"/><g fill="#000"><path id="Shape" d="m59 58h-5v-2h4c.6440739-.0000556 1.2487058-.3102858 1.6243777-.833451s.4764039-1.1952334.2706223-1.805549l-2.7-8c-.2742133-.813273-1.0367426-1.360926-1.895-1.361h-8.6c-.8600962-.0020752-1.625201.5459815-1.9 1.361l-2.7 8c-.2060657.6111521-.1047626 1.2841703.2720786 1.8075829.3768411.5234125.982966.8329745 1.6279214.8314171h4v2h-15v-2h4c.6440739-.0000556 1.2487058-.3102858 1.6243777-.833451s.4764039-1.1952334.2706223-1.805549l-2.7-8c-.2742133-.813273-1.0367426-1.360926-1.895-1.361h-8.6c-.8582574.000074-1.6207867.547727-1.895 1.361l-2.7 8c-.2057816.6103156-.1050496 1.2823838.2706223 1.805549s.9803038.8333954 1.6243777.833451h4v2h-15v-2h4c.6440739-.0000556 1.2487058-.3102858 1.6243777-.833451s.4764039-1.1952334.2706223-1.805549l-2.7-8c-.2742133-.813273-1.0367426-1.360926-1.895-1.361h-8.6c-.85825745.000074-1.62078675.547727-1.895 1.361l-2.7 8c-.20578161.6103156-.10504956 1.2823838.2706223 1.805549s.98030382.8333954 1.6243777.833451h4v2h-5c-.55228475 0-1 .4477153-1 1s.44771525 1 1 1h58c.5522847 0 1-.4477153 1-1s-.4477153-1-1-1zm-9.595-7h3.195l.3 3h-3.79zm.2-2 .3-3h2.195l.3 3zm5.3 5-.3-3h2.384l1.011 3zm.395-8 1.013 3h-1.908l-.3-3zm-7.4 0-.3 3h-1.911l1.011-3zm-2.881 5h2.381l-.3 3h-3.1zm-16.614 0h3.195l.3 3h-3.79zm.2-2 .3-3h2.195l.3 3zm5.3 5-.3-3h2.384l1.011 3zm.395-8 1.013 3h-1.908l-.3-3zm-7.4 0-.3 3h-1.911l1.011-3zm-2.881 5h2.381l-.3 3h-3.1zm-16.614 0h3.195l.3 3h-3.795zm.2-2 .3-3h2.195l.3 3zm5.3 5-.3-3h2.384l1.011 3zm.4-8 1.013 3h-1.913l-.3-3zm-7.405 0-.3 3h-1.911l1.011-3zm-2.886 5h2.386l-.3 3h-3.1zm4.986 7v-2h2v2zm21 0v-2h2v2zm21 0v-2h2v2z"/><path id="Shape" d="m5 41c0 .5522847.44771525 1 1 1h48c.5522847 0 1-.4477153 1-1s-.4477153-1-1-1h-11v-2h4c.6440739-.0000556 1.2487058-.3102858 1.6243777-.833451s.4764039-1.1952334.2706223-1.805549l-2.7-8c-.2742133-.813273-1.0367426-1.360926-1.895-1.361h-8.6c-.8600962-.0020752-1.625201.5459815-1.9 1.361l-2.7 8c-.2060657.6111521-.1047626 1.2841703.2720786 1.8075829.3768411.5234125.982966.8329745 1.6279214.8314171h4v2h-14v-2h4c.6440739-.0000556 1.2487058-.3102858 1.6243777-.833451s.4764039-1.1952334.2706223-1.805549l-2.7-8c-.2742133-.813273-1.0367426-1.360926-1.895-1.361h-8.6c-.8600962-.0020752-1.625201.5459815-1.9 1.361l-2.7 8c-.2060657.6111521-.1047626 1.2841703.2720786 1.8075829.3768411.5234125.982966.8329745 1.6279214.8314171h4v2h-11c-.55228475 0-1 .4477153-1 1zm33.405-8h3.195l.3 3h-3.8zm.2-2 .3-3h2.195l.3 3zm5.3 5-.3-3h2.384l1.011 3zm.395-8 1.013 3h-1.908l-.3-3zm-7.4 0-.3 3h-1.911l1.011-3zm-2.881 5h2.381l-.3 3h-3.1zm4.981 5h2v2h-2zm-20.595-5h3.195l.3 3h-3.79zm.2-2 .3-3h2.195l.3 3zm5.3 5-.3-3h2.384l1.011 3zm.395-8 1.013 3h-1.908l-.3-3zm-7.4 0-.3 3h-1.911l1.011-3zm-2.881 5h2.381l-.3 3h-3.1zm4.981 5h2v2h-2z"/><path id="Shape" d="m17 22c-.5522847 0-1 .4477153-1 1s.4477153 1 1 1h26c.5522847 0 1-.4477153 1-1s-.4477153-1-1-1h-10v-2h4c.6440739-.0000556 1.2487058-.3102858 1.6243777-.833451s.4764039-1.1952334.2706223-1.805549l-2.7-8c-.2742133-.81327298-1.0367426-1.36092595-1.895-1.361h-8.6c-.8582574.00007405-1.6207867.54772702-1.895 1.361l-2.7 8c-.2057816.6103156-.1050496 1.2823838.2706223 1.805549s.9803038.8333954 1.6243777.833451h4v2zm11.405-7h3.195l.3 3h-3.79zm.2-2 .3-3h2.195l.3 3zm5.3 5-.3-3h2.384l1.011 3zm.395-8 1.013 3h-1.908l-.3-3zm-7.4 0-.3 3h-1.911l1.011-3zm-2.881 5h2.381l-.3 3h-3.1zm4.981 5h2v2h-2z"/><path id="Shape" d="m5 10c0 2.7614237 2.23857625 5 5 5 2.7614237 0 5-2.2385763 5-5 0-2.76142375-2.2385763-5-5-5-2.76005315.00330612-4.99669388 2.23994685-5 5zm5-3c1.6568542 0 3 1.34314575 3 3 0 1.6568542-1.3431458 3-3 3-1.65685425 0-3-1.3431458-3-3 0-1.65685425 1.34314575-3 3-3z"/><path id="Shape" d="m9 1v1c0 .55228475.44771525 1 1 1 .5522847 0 1-.44771525 1-1v-1c0-.55228475-.4477153-1-1-1-.55228475 0-1 .44771525-1 1z"/><path id="Shape" d="m6.366 1.706c-.17736158-.31195078-.50827321-.50495322-.8671183-.5057421-.35884509-.00078889-.69060211.19075673-.86933356.50192468s-.17703252.694247.00445186 1.00381742l.5.866c.17736158.31195078.50827321.50495322.8671183.5057421.35884509.00078889.69060211-.19075673.86933356-.50192468s.17703252-.694247-.00445186-1.00381742z"/><path id="Shape" d="m3.572 5.134-.866-.5c-.47785996-.27169029-1.08542045-.10674157-1.36027453.3693057-.27485408.47604726-.11393908 1.08468853.36027453 1.3626943l.866.5c.30957042.18148438.69264947.18318331 1.00381742.00445186s.50271357-.51048847.50192468-.86933356c-.00078888-.35884509-.19379132-.68975672-.5057421-.8671183z"/><path id="Shape" d="m0 10c0 .5522847.44771525 1 1 1h1c.55228475 0 1-.4477153 1-1 0-.55228475-.44771525-1-1-1h-1c-.55228475 0-1 .44771525-1 1z"/><path id="Shape" d="m2.572 13.134-.866.5c-.31195078.1773616-.50495322.5082732-.5057421.8671183-.00078889.3588451.19075673.6906021.50192468.8693336.31116795.1787314.694247.1770325 1.00381742-.0044519l.866-.5c.47421361-.2780058.63512861-.886647.36027453-1.3626943s-.88241457-.640996-1.36027453-.3693057z"/><path id="Shape" d="m5 18.66c.47828031.2761293 1.08984962.1122682 1.366-.366l.5-.866c.27169029-.47786.10674157-1.0854205-.3693057-1.3602745-.47604726-.2748541-1.08468853-.1139391-1.3626943.3602745l-.5.866c-.27612934.4782803-.11226816 1.0898496.366 1.366z"/><path id="Shape" d="m11 19v-1c0-.5522847-.4477153-1-1-1-.55228475 0-1 .4477153-1 1v1c0 .5522847.44771525 1 1 1 .5522847 0 1-.4477153 1-1z"/><path id="Shape" d="m13.5 16.062c-.4782682.2761504-.6421293.8877197-.366 1.366l.5.866c.1773616.3119508.5082732.5049532.8671183.5057421s.6906021-.1907567.8693336-.5019247c.1787314-.3111679.1770325-.694247-.0044519-1.0038174l-.5-.866c-.2761504-.4782682-.8877197-.6421293-1.366-.366z"/><path id="Shape" d="m16.428 14.866.866.5c.3095704.1814844.6926495.1831833 1.0038174.0044519.311168-.1787315.5027136-.5104885.5019247-.8693336s-.1937913-.6897567-.5057421-.8671183l-.866-.5c-.47786-.2716903-1.0854205-.1067416-1.3602745.3693057-.2748541.4760473-.1139391 1.0846885.3602745 1.3626943z"/><path id="Shape" d="m19 9h-1c-.5522847 0-1 .44771525-1 1 0 .5522847.4477153 1 1 1h1c.5522847 0 1-.4477153 1-1 0-.55228475-.4477153-1-1-1z"/><path id="Shape" d="m17.294 4.634-.866.5c-.3119508.17736158-.5049532.50827321-.5057421.8671183s.1907567.69060211.5019247.86933356c.3111679.17873145.694247.17703252 1.0038174-.00445186l.866-.5c.3119508-.17736158.5049532-.50827321.5057421-.8671183s-.1907567-.69060211-.5019247-.86933356c-.3111679-.17873145-.694247-.17703252-1.0038174.00445186z"/><path id="Shape" d="m15 1.34c-.4782803-.27612934-1.0898496-.11226816-1.366.366l-.5.866c-.1814844.30957042-.1831833.69264947-.0044519 1.00381742.1787315.31116795.5104885.50271357.8693336.50192468.3588451-.00078888.6897567-.19379132.8671183-.5057421l.5-.866c.2761293-.47828031.1122682-1.08984962-.366-1.366z"/></g></g></g></svg>