<svg height="512" viewBox="0 0 60 60" width="512" xmlns="http://www.w3.org/2000/svg"><g id="Page-1" fill="none" fill-rule="evenodd"><g id="088---Crop-Date" fill-rule="nonzero"><path id="Shape" d="m59 11v40c0 2.209139-1.790861 4-4 4h-50c-2.209139 0-4-1.790861-4-4v-40z" fill="#f5f5f5"/><path id="Shape" d="m56 11v40c0 2.209139-1.790861 4-4 4h3c2.209139 0 4-1.790861 4-4v-40z" fill="#cfd8dc"/><path id="Shape" d="m59 8v3h-58v-3c0-2.209139 1.790861-4 4-4h50c2.209139 0 4 1.790861 4 4z" fill="#f44335"/><path id="Shape" d="m55 4h-3c2.209139 0 4 1.790861 4 4v3h3v-3c0-2.209139-1.790861-4-4-4z" fill="#c81e1e"/><path id="Shape" d="m59 51v4c0 2.209139-1.790861 4-4 4h-50c-2.209139 0-4-1.790861-4-4v-4c0 2.209139 1.790861 4 4 4h50c2.209139 0 4-1.790861 4-4z" fill="#cfd8dc"/><path id="Shape" d="m56 54.859v.141c0 2.209139-1.790861 4-4 4h3c2.209139 0 4-1.790861 4-4v-4c-.0024887 1.8201177-1.2367089 3.4077362-3 3.859z" fill="#9e9e9e"/><path id="Shape" d="m23 39h2c.5522847 0 1 .4477153 1 1 0 2.7614237-2.2385763 5-5 5h-3v-1c0-2.7614237 2.2385763-5 5-5z" fill="#549414"/><path id="Shape" d="m10 39h3c2.7614237 0 5 2.2385763 5 5 0 .5522847-.4477153 1-1 1h-2c-2.7614237 0-5-2.2385763-5-5z" fill="#a4c400" transform="matrix(-1 0 0 -1 28 84)"/><path id="Shape" d="m23 29h1c.5522847 0 1 .4477153 1 1 0 2.7614237-2.2385763 5-5 5h-2v-1c0-2.7614237 2.2385763-5 5-5z" fill="#549414"/><path id="Shape" d="m11 29h2c2.7614237 0 5 2.2385763 5 5 0 .5522847-.4477153 1-1 1h-1c-2.7614237 0-5-2.2385763-5-5z" fill="#a4c400" transform="matrix(-1 0 0 -1 29 64)"/><path id="Shape" d="m22.167 20h2c.4600532 0 .833.3729468.833.833 0 1.1051571-.439022 2.1650499-1.220486 2.946514-.7814641.781464-1.8413569 1.220486-2.946514 1.220486h-2.833v-.833c0-1.1051571.439022-2.1650499 1.220486-2.946514.7814641-.781464 1.8413569-1.220486 2.946514-1.220486z" fill="#549414"/><path id="Shape" d="m11 20h2.833c1.1051571 0 2.1650499.439022 2.946514 1.220486.781464.7814641 1.220486 1.8413569 1.220486 2.946514 0 .4600532-.3729468.833-.833.833h-2c-1.1051571 0-2.1650499-.439022-2.946514-1.220486-.781464-.7814641-1.220486-1.8413569-1.220486-2.946514z" fill="#a4c400" transform="matrix(-1 0 0 -1 29 45)"/><path id="Shape" d="m47 39h2c.5522847 0 1 .4477153 1 1 0 2.7614237-2.2385763 5-5 5h-3v-1c0-2.7614237 2.2385763-5 5-5z" fill="#549414"/><path id="Shape" d="m34 39h3c2.7614237 0 5 2.2385763 5 5 0 .5522847-.4477153 1-1 1h-2c-2.7614237 0-5-2.2385763-5-5z" fill="#a4c400" transform="matrix(-1 0 0 -1 76 84)"/><path id="Shape" d="m47 29h1c.5522847 0 1 .4477153 1 1 0 2.7614237-2.2385763 5-5 5h-2v-1c0-2.7614237 2.2385763-5 5-5z" fill="#549414"/><path id="Shape" d="m35 29h2c2.7614237 0 5 2.2385763 5 5 0 .5522847-.4477153 1-1 1h-1c-2.7614237 0-5-2.2385763-5-5z" fill="#a4c400" transform="matrix(-1 0 0 -1 77 64)"/><path id="Shape" d="m46.167 20h2c.4600532 0 .833.3729468.833.833 0 2.3013706-1.8656294 4.167-4.167 4.167h-2.833v-.833c0-1.1051571.439022-2.1650499 1.220486-2.946514.7814641-.781464 1.8413569-1.220486 2.946514-1.220486z" fill="#549414"/><path id="Shape" d="m35 20h2.833c1.1051571 0 2.1650499.439022 2.946514 1.220486.781464.7814641 1.220486 1.8413569 1.220486 2.946514 0 .4600532-.3729468.833-.833.833h-2c-1.1051571 0-2.1650499-.439022-2.946514-1.220486-.781464-.7814641-1.220486-1.8413569-1.220486-2.946514z" fill="#a4c400" transform="matrix(-1 0 0 -1 77 45)"/><g fill="#000"><path id="Shape" d="m55 3v-2c0-.55228475-.4477153-1-1-1s-1 .44771525-1 1v2h-4v-2c0-.55228475-.4477153-1-1-1s-1 .44771525-1 1v2h-4v-2c0-.55228475-.4477153-1-1-1s-1 .44771525-1 1v2h-4v-2c0-.55228475-.4477153-1-1-1s-1 .44771525-1 1v2h-4v-2c0-.55228475-.4477153-1-1-1s-1 .44771525-1 1v2h-4v-2c0-.55228475-.4477153-1-1-1s-1 .44771525-1 1v2h-4v-2c0-.55228475-.4477153-1-1-1s-1 .44771525-1 1v2h-4v-2c0-.55228475-.4477153-1-1-1s-1 .44771525-1 1v2h-4v-2c0-.55228475-.44771525-1-1-1s-1 .44771525-1 1v2c-2.76005315.00330612-4.99669388 2.23994685-5 5v47c.00330612 2.7600532 2.23994685 4.9966939 5 5h50c2.7600532-.0033061 4.9966939-2.2399468 5-5v-47c-.0033061-2.76005315-2.2399468-4.99669388-5-5zm-53 9h56v39c0 1.6568542-1.3431458 3-3 3h-50c-1.65685425 0-3-1.3431458-3-3zm3-7v2c0 .55228475.44771525 1 1 1s1-.44771525 1-1v-2h4v2c0 .55228475.4477153 1 1 1s1-.44771525 1-1v-2h4v2c0 .55228475.4477153 1 1 1s1-.44771525 1-1v-2h4v2c0 .55228475.4477153 1 1 1s1-.44771525 1-1v-2h4v2c0 .55228475.4477153 1 1 1s1-.44771525 1-1v-2h4v2c0 .55228475.4477153 1 1 1s1-.44771525 1-1v-2h4v2c0 .55228475.4477153 1 1 1s1-.44771525 1-1v-2h4v2c0 .55228475.4477153 1 1 1s1-.44771525 1-1v-2h4v2c0 .55228475.4477153 1 1 1s1-.44771525 1-1v-2c1.6568542 0 3 1.34314575 3 3v2h-56v-2c0-1.65685425 1.34314575-3 3-3zm50 53h-50c-1.65685425 0-3-1.3431458-3-3v-.026c.86038886.6618067 1.91453073 1.0223232 3 1.026h50c1.0854693-.0036768 2.1396111-.3641933 3-1.026v.026c0 .7956495-.3160705 1.5587112-.8786797 2.1213203-.5626091.5626092-1.3256708.8786797-2.1213203.8786797z"/><path id="Shape" d="m6 51h48c.5522847 0 1-.4477153 1-1s-.4477153-1-1-1h-11v-3h2c3.3123376-.0033074 5.9966926-2.6876624 6-6 0-1.1045695-.8954305-2-2-2h-2c-1.4782155.0002927-2.9036672.5494479-4 1.541v-3.541h1c3.3123376-.0033074 5.9966926-2.6876624 6-6 0-1.1045695-.8954305-2-2-2h-1c-1.4782155.0002927-2.9036672.5494479-4 1.541v-3.541h1.833c2.8522846-.0033064 5.1636936-2.3147154 5.167-5.167-.0011023-1.011881-.821119-1.8318977-1.833-1.833h-2c-1.1510666.0046556-2.2669013.3975056-3.167 1.115v-4.115c0-.5522847-.4477153-1-1-1s-1 .4477153-1 1v4.116c-.8999667-.7178534-2.015814-1.1110601-3.167-1.116h-2c-1.011881.0011023-1.8318977.821119-1.833 1.833.0033064 2.8522846 2.3147154 5.1636936 5.167 5.167h1.833v3.541c-1.0963328-.9915521-2.5217845-1.5407073-4-1.541h-1c-1.1045695 0-2 .8954305-2 2 .0033074 3.3123376 2.6876624 5.9966926 6 6h1v3.541c-1.0963328-.9915521-2.5217845-1.5407073-4-1.541h-2c-1.1045695 0-2 .8954305-2 2 .0033074 3.3123376 2.6876624 5.9966926 6 6h2v3h-22v-3h2c3.3123376-.0033074 5.9966926-2.6876624 6-6 0-1.1045695-.8954305-2-2-2h-2c-1.4782155.0002927-2.9036672.5494479-4 1.541v-3.541h1c3.3123376-.0033074 5.9966926-2.6876624 6-6 0-1.1045695-.8954305-2-2-2h-1c-1.4782155.0002927-2.9036672.5494479-4 1.541v-3.541h1.833c2.8522846-.0033064 5.1636936-2.3147154 5.167-5.167-.0011023-1.011881-.821119-1.8318977-1.833-1.833h-2c-1.1510666.0046556-2.2669013.3975056-3.167 1.115v-4.115c0-.5522847-.4477153-1-1-1s-1 .4477153-1 1v4.116c-.8999667-.7178534-2.015814-1.1110601-3.167-1.116h-2c-1.011881.0011023-1.8318977.821119-1.833 1.833.0033064 2.8522846 2.3147154 5.1636936 5.167 5.167h1.833v3.541c-1.0963328-.9915521-2.5217845-1.5407073-4-1.541h-1c-1.1045695 0-2 .8954305-2 2 .0033074 3.3123376 2.6876624 5.9966926 6 6h1v3.541c-1.0963328-.9915521-2.5217845-1.5407073-4-1.541h-2c-1.1045695 0-2 .8954305-2 2 .00330738 3.3123376 2.6876624 5.9966926 6 6h2v3h-11c-.55228475 0-1 .4477153-1 1s.44771525 1 1 1zm41-11h2c0 2.209139-1.790861 4-4 4h-2c0-2.209139 1.790861-4 4-4zm0-10h1c0 2.209139-1.790861 4-4 4h-1c0-2.209139 1.790861-4 4-4zm-.833-9h1.833c-.0912768 1.6808666-1.4796585 2.9977003-3.163 3h-1.837c.0913621-1.6824079 1.4821133-2.999823 3.167-3zm-7 3c-1.6848867-.000177-3.0756379-1.3175921-3.167-3.0000022l1.829.0000022c1.6864315-.0019494 3.0795552 1.3160484 3.171 3zm-3.167 6h1c2.209139 0 4 1.790861 4 4h-1c-2.209139 0-4-1.790861-4-4zm-1 10h2c2.209139 0 4 1.790861 4 4h-2c-2.209139 0-4-1.790861-4-4zm-12 0h2c0 2.209139-1.790861 4-4 4h-2c0-2.209139 1.790861-4 4-4zm0-10h1c0 2.209139-1.790861 4-4 4h-1c0-2.209139 1.790861-4 4-4zm-.833-9h1.833c-.0912768 1.6808666-1.4796585 2.9977003-3.163 3h-1.837c.0913621-1.6824079 1.4821133-2.999823 3.167-3zm-7 3c-1.6848867-.000177-3.0756379-1.3175921-3.167-3.0000022l1.829.0000022c1.6864315-.0019494 3.0795552 1.3160484 3.171 3zm-3.167 6h1c2.209139 0 4 1.790861 4 4h-1c-2.209139 0-4-1.790861-4-4zm-1 10h2c2.209139 0 4 1.790861 4 4h-2c-2.209139 0-4-1.790861-4-4z"/></g></g></g></svg>