<svg height="512" viewBox="0 0 41 60" width="512" xmlns="http://www.w3.org/2000/svg"><g id="Page-1" fill="none" fill-rule="evenodd"><g id="090---Milk-Bottle" fill-rule="nonzero"><ellipse id="Oval" cx="16" cy="4" fill="#cfd8dc" rx="11" ry="3"/><path id="Shape" d="m27 4v4c0 .45-.36.87-1 1.25-1.74 1.04-5.57 1.75-10 1.75s-8.26-.71-10-1.75c-.64-.38-1-.8-1-1.25v-4c0 1.66 4.92 3 11 3s11-1.34 11-3z" fill="#9e9e9e"/><path id="Shape" d="m31 20.07v33.93c0 2.21-6.72 5-15 5s-15-2.79-15-5v-33.93c.00028119-1.3235245.52531046-2.5929446 1.46-3.53l2.08-2.08c.93468954-.9370554 1.45971881-2.2064755 1.46-3.53v-1.68c1.74 1.04 5.56 1.75 10 1.75s8.26-.71 10-1.75v1.68c.0002812 1.3235245.5253105 2.5929446 1.46 3.53l2.08 2.08c.9346895.9370554 1.4597188 2.2064755 1.46 3.53z" fill="#cfd8dc"/><path id="Shape" d="m29.54 16.54-2.08-2.08c-.9346895-.9370554-1.4597188-2.2064755-1.46-3.53v-1.68c-.9417832.50041747-1.9528906.8576754-3 1.06v.62c.0002812 1.3235245.5253105 2.5929446 1.46 3.53l2.08 2.08c.9346895.9370554 1.4597188 2.2064755 1.46 3.53v33.93c0 2.075-5.924 4.66-13.5 4.969.494.0206667.994.031 1.5.031 8.28 0 15-2.79 15-5v-33.93c-.0002812-1.3235245-.5253105-2.5929446-1.46-3.53z" fill="#9e9e9e"/><path id="Shape" d="m31 29.5c-.8525097.0002332-1.6114578-.5399522-1.8904312-1.3455244-.2789733-.8055722-.0166414-1.6994316.6534312-2.2264756l5.091-4c.5598299-.4624057 1.3263004-.5850692 2.0024779-.3204703.6761775.264599 1.155831.8748906 1.2531409 1.5944456.09731.719555-.2030115 1.4353276-.7846188 1.8700247l-5.091 4c-.3514666.2774352-.7862289.4282279-1.234.428z" fill="#02a9f4"/><g fill="#000"><path id="Shape" d="m13.067 22.9c-2.6291699-.1375121-5.22849422-.623078-7.73-1.444-.51997609-.1866722-1.09282775.0835239-1.2795.6035s.08352391 1.0928278.6035 1.2795c2.67462398.889822 5.4570315 1.4148871 8.272 1.561h.068c.5522847.0182254 1.0147746-.4147153 1.033-.967s-.4147153-1.0147746-.967-1.033z"/><path id="Shape" d="m23 24.423c.0587024.0000849.1172863-.0052713.175-.016 1.4155273-.2375108 2.8084745-.5941107 4.164-1.066.5199761-.1866723.7901722-.7595239.6035-1.2795-.1866723-.5199761-.7595239-.7901722-1.2795-.6035-1.2486855.4344475-2.5319443.7622873-3.836.98-.5110218.0895216-.8687147.55498-.8236698 1.0718246.0450448.5168446.477866.9134069.9966698.9131754z"/><path id="Shape" d="m3.833 13.753-2.08 2.08c-1.11974369 1.1262113-1.74972132 2.6488668-1.753 4.237v33.93c0 3.434 8.447 6 16 6s16-2.566 16-6v-23.672c.3081387-.108709.5965643-.2667689.854-.468l5.089-4c.9159501-.7084434 1.3325264-1.8873739 1.065-3.014l1.014-.8c.6272909-.4902527.9871065-1.2472712.9711711-2.0432534-.0159353-.7959822-.4057612-1.5379931-1.0521711-2.0027466l-12.341-8.838c.2552822-.33399386.3956083-.7416411.4-1.162v-4c0-3.157-7.543-4-12-4s-12 .843-12 4v4c.03507863.71213709.40620323 1.36531639 1 1.76v1.17c-.00272135 1.0578323-.42197924 2.0720268-1.167 2.823zm12.167 44.247c-8.42 0-14-2.847-14-4v-33.93c.00185652-1.058005.42124492-2.0725152 1.167-2.823l2.08-2.08c.15192143-.1528493.29514655-.3141028.429-.483l1.542 1.274c-.17422823.2176167-.36016981.4255908-.557.623l-.712.712c-.25995658.2510745-.3642126.6228779-.27269716.9725073.09151544.3496295.3645604.6226744.71418984.7141899.34962943.0915154.72143285-.0127406.97250732-.2726972l.712-.707c.24152045-.2425808.46984877-.4979479.684-.765l16.649 13.742c.4534664.3771975 1.0251642.5828672 1.615.581.5665755.000378 1.1172952-.1870636 1.566-.533l1.069-.842c.1112041.0500758.2254263.0931596.342.129v23.688c0 1.153-5.58 4-14 4zm20.708-33.712-5.091 4c-.1739079.1377094-.3891718.2127522-.611.213h-.006c-.4247172-.0027477-.8013637-.2734819-.939314-.6751807-.1379504-.4016988-.0071048-.8467146.326314-1.1098193l5.091-4c.2082303-.1637639.4729329-.2382115.736-.207.4017065.0478217.7350292.3329619.8444876.7224152.1094585.3894533-.0265121.8064916-.3444876 1.0565848zm2.292-4.24c.0039676.1675851-.0740352.3265765-.209.426l-.856.673c-1.0830792-.8609609-2.6169208-.8609609-3.7 0l-2.235 1.753v-2.83c-.0038199-1.588025-.6337157-3.1104829-1.753-4.237l-2.08-2.08c-.6705118-.6823707-1.0742556-1.5824569-1.138-2.537l11.744 8.4c.1415353.0984118.2262416.2596151.227.432zm-32.684-11.734c-.13117088-.07498128-.24018741-.18330783-.316-.314v-1.623c2.547 1.233 6.979 1.623 10 1.623s7.457-.39 10-1.624v1.582c-.0890178.15472349-.2191657.28175616-.376.367-2.324.925-4.345 1.675-9.624 1.675-7.118 0-9.578-1.65-9.684-1.686zm9.684-6.314c5.927 0 9.583 1.278 9.986 2-.4.722-4.059 2-9.986 2-6.02 0-9.695-1.318-10-1.95v-.017c.305-.715 3.98-2.033 10-2.033zm0 10c3.0439472.0484958 6.0778783-.3610849 9-1.215v.145c.0032787 1.5881332.6332563 3.1107887 1.753 4.237l2.08 2.08c.7450208.7509732 1.1642786 1.7651677 1.167 2.823v4.4l-.853.67c-1.0885513.8474516-1.4505494 2.3327208-.874 3.586l-.914.719c-.1982753.1557176-.4784459.1515484-.672-.01l-16.831-13.9c.2058103-.3877361.3858664-.7886033.539-1.2.1763752-.5153851-.092197-1.0771292-.6040664-1.2634616-.5118694-.1863325-1.07871395.0713003-1.2749336.5794616-.072.2-.159.385-.245.575l-1.614-1.326c.22399938-.6327852.33995072-1.2987448.343-1.97v-.145c2.92212173.8539151 5.9560528 1.2634958 9 1.215z"/></g><path id="Shape" d="m10 55.434c-.06513111-.0000005-.13010638-.0063641-.194-.019-1.32387768-.2511617-2.6234308-.6168702-3.884-1.093-1.16033837-.4437291-1.92542417-1.5587163-1.922-2.801v-6.521c0-.5522847.44771525-1 1-1s1 .4477153 1 1v6.521c-.00099059.4169801.25686212.7908068.647.938 1.15040386.4338797 2.33660451.7661498 3.545.993.5068548.0974763.8562522.5646875.8064855 1.0784254-.0497668.513738-.4823452.9051978-.9984855.9035746z" fill="#f5f5f5"/><circle id="Oval" cx="5" cy="41" fill="#f5f5f5" r="1"/><path id="Shape" d="m5 38c-.55228475 0-1-.4477153-1-1v-10c0-.5522847.44771525-1 1-1s1 .4477153 1 1v10c0 .5522847-.44771525 1-1 1z" fill="#f5f5f5"/></g></g></svg>