<svg height="512" viewBox="0 0 60 60" width="512" xmlns="http://www.w3.org/2000/svg"><g id="Page-1" fill="none" fill-rule="evenodd"><g id="091---Deliver-Produce"><g fill-rule="nonzero"><path id="Shape" d="m20 44c-.0000001 3.8659932-3.1340068 6.9999999-7 6.9999999-3.86599319 0-6.99999992-3.1340067-7-6.9999999-.00399817-.3350794.02278092-.669818.08-1 .49429504-3.441787 3.44289982-5.9971786 6.92-5.9971786 3.4771002 0 6.425705 2.5553916 6.92 5.9971786.0572191.330182.0839982.6649206.08 1z" fill="#37474f"/><circle id="Oval" cx="13" cy="44" fill="#cfd8dc" r="2"/><path id="Shape" d="m54 44c0 3.8659932-3.1340068 7-7 7s-7-3.1340068-7-7c-.0039982-.3350794.0227809-.669818.08-1 .494295-3.441787 3.4428998-5.9971786 6.92-5.9971786s6.425705 2.5553916 6.92 5.9971786c.0572191.330182.0839982.6649206.08 1z" fill="#37474f"/><circle id="Oval" cx="47" cy="44" fill="#cfd8dc" r="2"/><path id="Shape" d="m59 40c0 1.6568542-1.3431458 3-3 3h-2.08c-.4881592-3.4455585-3.4400362-6.0049894-6.92-6.0000073l9 .0000073c1.6568542 0 3 1.3431458 3 3z" fill="#9e9e9e"/><path id="Shape" d="m56 37h-3c1.4857051-.0117693 2.754519 1.06951 2.9785133 2.5382798s-.6648374 2.8791002-2.0865133 3.3107202c.008.051.021.1.028.151h2.08c1.6568542 0 3-1.3431458 3-3s-1.3431458-3-3-3z" fill="#707070"/><path id="Shape" d="m13 36.9999927c-3.4799638-.0049821-6.43184079 2.5544488-6.92 6.0000073h-1.08c-1.65685425 0-3-1.3431458-3-3s1.34314575-3 3-3z" fill="#9e9e9e"/><path id="Shape" d="m47 36.9999927c-3.4799638-.0049821-6.4318408 2.5544488-6.92 6.0000073h-5.08c-.0032948-1.1032019-.8967981-1.9967052-2-2h-6c-1.1011688.0081672-1.9918328.8988312-2 2h-5.08c-.4881592-3.4455585-3.4400362-6.0049894-6.92-6.0000073z" fill="#9e9e9e"/><path id="Shape" d="m39 3v34h-36c-1.10320187-.0032948-1.9967052-.8967981-2-2v-32c.0032948-1.10320187.89679813-1.9967052 2-2h34c1.1032019.0032948 1.9967052.89679813 2 2z" fill="#60a917"/><path id="Shape" d="m37 1h-3c1.1032019.0032948 1.9967052.89679813 2 2v34h3v-34c-.0032948-1.10320187-.8967981-1.9967052-2-2z" fill="#549414"/><path id="Shape" d="m56 21v16h-17v-26h6v8c.0032948 1.1032019.8967981 1.9967052 2 2z" fill="#f44335"/><path id="Rectangle-path" d="m53 21h3v16h-3z" fill="#c81e1e"/><path id="Shape" d="m56 18v3h-9c-1.1032019-.0032948-1.9967052-.8967981-2-2v-8h4c3.8659932 0 7 3.1340068 7 7z" fill="#00bcd4"/><path id="Shape" d="m49 11h-3c3.8659932 0 7 3.1340068 7 7v3h3v-3c0-3.8659932-3.1340068-7-7-7z" fill="#00838f"/><path id="Shape" d="m54 29h2v4h-2c-1.1045695 0-2-.8954305-2-2s.8954305-2 2-2z" fill="#ffeb3a"/><path id="Shape" d="m35 43c-.0081672 1.1011688-.8988312 1.9918328-2 2h-6c-1.1032019-.0032948-1.9967052-.8967981-2-2 .0081672-1.1011688.8988312-1.9918328 2-2h6c1.1032019.0032948 1.9967052.8967981 2 2z" fill="#cfd8dc"/><rect id="Rectangle-path" fill="#ff9801" height="5" rx="1" width="22" x="9" y="26"/><path id="Shape" d="m30 26h-3c.5522847 0 1 .4477153 1 1v3c0 .5522847-.4477153 1-1 1h3c.5522847 0 1-.4477153 1-1v-3c0-.5522847-.4477153-1-1-1z" fill="#f57c00"/><rect id="Rectangle-path" fill="#ff9801" height="5" rx="1" width="22" x="9" y="21"/><path id="Shape" d="m30 21h-3c.5522847 0 1 .4477153 1 1v3c0 .5522847-.4477153 1-1 1h3c.5522847 0 1-.4477153 1-1v-3c0-.5522847-.4477153-1-1-1z" fill="#f57c00"/><rect id="Rectangle-path" fill="#ff9801" height="5" rx="1" width="22" x="9" y="16"/><path id="Shape" d="m30 16h-3c.5522847 0 1 .4477153 1 1v3c0 .5522847-.4477153 1-1 1h3c.5522847 0 1-.4477153 1-1v-3c0-.5522847-.4477153-1-1-1z" fill="#f57c00"/><path id="Shape" d="m21 13.5c.0123312.9147728-.3074278 1.8029924-.9 2.5h-8.2c-.5925722-.6970076-.9123312-1.5852272-.9-2.5-.1271713-1.7913447 1.2102802-3.3517048 3-3.5.3767156-.00257932.7492057.0794368 1.09.24.5766273.2699919 1.2433727.2699919 1.82 0 .3407943-.1605632.7132844-.24257932 1.09-.24.5361243.0007242 1.0593221.1646595 1.5.47.9673208.7023228 1.5280196 1.8349345 1.5 3.03z" fill="#f44335"/><path id="Shape" d="m28 13.5c.0123312.9147728-.3074278 1.8029924-.9 2.5h-7c.5925722-.6970076.9123312-1.5852272.9-2.5.0280196-1.1950655-.5326792-2.3276772-1.5-3.03.4406779-.3053405.9638757-.4692758 1.5-.47.3767156-.00257932.7492057.0794368 1.09.24.5773552.2667005 1.2426448.2667005 1.82 0 .3407943-.1605632.7132844-.24257932 1.09-.24 1.7897198.1482952 3.1271713 1.7086553 3 3.5z" fill="#c81e1e"/></g><path id="Shape" d="m43.4 50h-26.8" stroke="#000" stroke-linecap="round" stroke-linejoin="round" stroke-width="2"/><path id="Shape" d="m50.6 50h7.4c.5522847 0 1 .4477153 1 1v7c0 .5522847-.4477153 1-1 1h-56c-.55228475 0-1-.4477153-1-1v-7c0-.5522847.44771525-1 1-1h7.4" fill="#607d8b" fill-rule="nonzero"/><path id="Shape" d="m58 50h-3c.5522847 0 1 .4477153 1 1v7c0 .5522847-.4477153 1-1 1h3c.5522847 0 1-.4477153 1-1v-7c0-.5522847-.4477153-1-1-1z" fill="#37474f" fill-rule="nonzero"/><path id="Shape" d="m16 44c0-1.6568542-1.3431458-3-3-3s-3 1.3431458-3 3 1.3431458 3 3 3 3-1.3431458 3-3zm-4 0c0-.5522847.4477153-1 1-1s1 .4477153 1 1-.4477153 1-1 1-1-.4477153-1-1z" fill="#000" fill-rule="nonzero"/><path id="Shape" d="m47 47c1.6568542 0 3-1.3431458 3-3s-1.3431458-3-3-3-3 1.3431458-3 3 1.3431458 3 3 3zm0-4c.5522847 0 1 .4477153 1 1s-.4477153 1-1 1-1-.4477153-1-1 .4477153-1 1-1z" fill="#000" fill-rule="nonzero"/><path id="Shape" d="m56 44c2.0117689.0025048 3.7110655-1.4923684 3.9650329-3.4880439.2539673-1.9956756-1.0167587-3.8685104-2.9650329-4.3699561v-18.142c-.0049599-4.4162219-3.5837781-7.9950401-8-8h-9v-7c0-1.65685425-1.3431458-3-3-3h-34c-1.65685425 0-3 1.34314575-3 3v32c.00382125 1.1622697.6786435 2.2177509 1.732 2.709-.47567324.6692806-.73148083 1.4699024-.732 2.291 0 2.209139 1.790861 4 4 4-.00069858 1.819455.62225014 3.5841823 1.765 5h-4.765c-1.1045695 0-2 .8954305-2 2v7c0 1.1045695.8954305 2 2 2h56c1.1045695 0 2-.8954305 2-2v-7c0-1.1045695-.8954305-2-2-2h-4.765c1.1427499-1.4158177 1.7656986-3.180545 1.765-5zm-1-12h-1c-.5522847 0-1-.4477153-1-1s.4477153-1 1-1h1zm0-14v2h-8c-.5522847 0-1-.4477153-1-1v-7h3c3.3123376.0033074 5.9966926 2.6876624 6 6zm-11-6v7c0 1.6568542 1.3431458 3 3 3h8v6h-1c-1.6568542 0-3 1.3431458-3 3s1.3431458 3 3 3h1v2h-15v-24zm9 32c0 2.4267735-1.4618531 4.6145912-3.7038994 5.5432772s-4.8227533.4153515-6.5387413-1.3006365-2.2293225-4.296695-1.3006365-6.5387413 3.1165037-3.7038994 5.5432772-3.7038994c3.3123376.0033074 5.9966926 2.6876624 6 6zm-46 0c0-2.4267735 1.46185307-4.6145912 3.7038994-5.5432772 2.2420463-.928686 4.8227533-.4153515 6.5387413 1.3006365s2.2293225 4.296695 1.3006365 6.5387413-3.1165037 3.7038994-5.5432772 3.7038994c-3.31233757-.0033074-5.99669262-2.6876624-6-6zm34.726-6c-1.202779 1.0568211-2.0607752 2.4502376-2.463 4h-3.447c-.4222546-1.1943509-1.5492146-1.9947486-2.816-2h-6c-1.2667854.0052514-2.3937454.8056491-2.816 2h-3.447c-.4022248-1.5497624-1.260221-2.9431789-2.463-4zm-7.726 5c0 .5522847-.4477153 1-1 1h-6c-.5522847 0-1-.4477153-1-1s.4477153-1 1-1h6c.5522847 0 1 .4477153 1 1zm-13 1h3.184c.4222546 1.1943509 1.5492146 1.9947486 2.816 2h6c1.2667854-.0052514 2.3937454-.8056491 2.816-2h3.184c-.0006986 1.819455.6222501 3.5841823 1.765 5h-21.53c1.1427499-1.4158177 1.7656986-3.180545 1.765-5zm-19-41c0-.55228475.44771525-1 1-1h34c.5522847 0 1 .44771525 1 1v33h-35c-.55228475 0-1-.4477153-1-1zm3 39c-1.1045695 0-2-.8954305-2-2s.8954305-2 2-2h2.726c-1.20277901 1.0568211-2.06077521 2.4502376-2.463 4zm53 16h-56v-7h7.136c2.4034549 1.3333808 5.3245451 1.3333808 7.728 0h26.272c2.4034549 1.3333808 5.3245451 1.3333808 7.728 0h7.136zm-5.726-20h3.726c1.1045695 0 2 .8954305 2 2s-.8954305 2-2 2h-1.263c-.4022248-1.5497624-1.260221-2.9431789-2.463-4z" fill="#000" fill-rule="nonzero"/><path id="Shape" d="m46 28h3c.5522847 0 1-.4477153 1-1s-.4477153-1-1-1h-3c-.5522847 0-1 .4477153-1 1s.4477153 1 1 1z" fill="#000" fill-rule="nonzero"/><path id="Shape" d="m17 54h-12c-.55228475 0-1 .4477153-1 1s.44771525 1 1 1h12c.5522847 0 1-.4477153 1-1s-.4477153-1-1-1z" fill="#000" fill-rule="nonzero"/><path id="Shape" d="m37 54h-14c-.5522847 0-1 .4477153-1 1s.4477153 1 1 1h14c.5522847 0 1-.4477153 1-1s-.4477153-1-1-1z" fill="#000" fill-rule="nonzero"/><path id="Shape" d="m43 54c-.5522847 0-1 .4477153-1 1s.4477153 1 1 1h12c.5522847 0 1-.4477153 1-1s-.4477153-1-1-1z" fill="#000" fill-rule="nonzero"/><path id="Shape" d="m10 32h20c1.1045695 0 2-.8954305 2-2v-3c-.0019998-.3521367-.0979706-.6973555-.278-1 .1800294-.3026445.2760002-.6478633.278-1v-3c-.0019998-.3521367-.0979706-.6973555-.278-1 .1800294-.3026445.2760002-.6478633.278-1v-3c0-1.1045695-.8954305-2-2-2h-1.241c.1564227-.4847686.2376978-.9906301.241-1.5.1270679-2.3433786-1.657885-4.35145063-4-4.5-.3392812.00510379-.6760639.05898902-1 .16v-2.16c0-.55228475-.4477153-1-1-1s-1 .44771525-1 1v2.147c-.8297506-.23173325-1.7145191-.16484475-2.5.189-.7803629-.37545918-1.6747302-.43842264-2.5-.176v-2.16c0-.55228475-.4477153-1-1-1s-1 .44771525-1 1v2.161c-.3239812-.10094738-.6607065-.15516017-1-.161-2.342115.14854937-4.1270679 2.1566214-4 4.5.0033022.5093699.0845773 1.0152314.241 1.5h-.241c-1.1045695 0-2 .8954305-2 2v3c.00199983.3521367.09797065.6973555.278 1-.18002935.3026445-.27600017.6478633-.278 1v3c.00199983.3521367.09797065.6973555.278 1-.18002935.3026445-.27600017.6478633-.278 1v3c0 1.1045695.8954305 2 2 2zm0-2v-3h2c0 .5522847.4477153 1 1 1s1-.4477153 1-1h12c0 .5522847.4477153 1 1 1s1-.4477153 1-1h2v3zm0-8h2v3h-2zm20 3h-2v-3h2zm-4 0h-12v-3h12zm-3.025-13.565c.0083267.0004717.0166733.0004717.025 0h.021c.4543623.000541.9032891-.0988033 1.315-.291.2077544-.0971263.434675-.146338.664-.144 1.2324358.1564335 2.1179166 1.2632846 2 2.5.0042152.5279655-.1369377 1.04691-.408 1.5h-4.833c.1564227-.4847686.2376978-.9906301.241-1.5.0022758-.8618141-.2237182-1.7088601-.655-2.455.1070392.0217549.2113411.0552925.311.1.4131277.1920827.8634025.2910818 1.319.29zm-10.975 2.065c-.1179166-1.2367154.7675642-2.3435665 2-2.5.2321818.0001007.4615351.0509544.672.149.8413796.3945311 1.8146204.3945311 2.656 0 .2106092-.0976193.4398675-.1484519.672-.149 1.2324358.1564335 2.1179166 1.2632846 2 2.5.0040681.5280807-.1374437 1.0470729-.409 1.5h-7.182c-.2715563-.4529271-.4130681-.9719193-.409-1.5zm-2 3.5h20v3h-2c0-.5522847-.4477153-1-1-1s-1 .4477153-1 1h-12c0-.5522847-.4477153-1-1-1s-1 .4477153-1 1h-2z" fill="#000" fill-rule="nonzero"/></g></g></svg>