<svg height="512" viewBox="0 0 60 60" width="512" xmlns="http://www.w3.org/2000/svg"><g id="Page-1" fill="none" fill-rule="evenodd"><g id="092---Sell-Cheese" fill-rule="nonzero"><path id="Shape" d="m48 23c-.0365093 1.3837864.9169524 2.5976649 2.27 2.89.4331425.1294819.7299369.5279181.73.98v8.13h-42v-6.13c.00006313-.4520819.29685746-.8505181.73-.98 1.3319053-.3254011 2.268937-1.518921 2.268937-2.89s-.9370317-2.5645989-2.268937-2.89c-.43314254-.1294819-.72993687-.5279181-.73-.98v-5.13h42v3.13c-.0000631.4520819-.2968575.8505181-.73.98-1.3483714.2997875-2.2981613 1.5089914-2.27 2.89z" fill="#ffdc00"/><path id="Shape" d="m50.27 20.11c.4331425-.1294819.7299369-.5279181.73-.98v-3.13h-3v3.13c-.0000631.4520819-.2968575.8505181-.73.98-1.3319053.3254011-2.268937 1.518921-2.268937 2.89s.9370317 2.5645989 2.268937 2.89c.4331425.1294819.7299369.5279181.73.98v8.13h3v-8.13c-.0000631-.4520819-.2968575-.8505181-.73-.98-1.3319053-.3254011-2.268937-1.518921-2.268937-2.89s.9370317-2.5645989 2.268937-2.89z" fill="#fec108"/><path id="Shape" d="m51 16h-42l15.66-7.1c.2054981-.09186463.4391112-.09815142.6492527-.01747212.2101414.08067931.379525.24168807.4707473.44747212.4954432 1.0901065 1.6571119 1.7159351 2.84 1.53 1.1715669-.2656545 2.0606033-1.22216238 2.24-2.41.0825709-.46114105.0689528-.93437042-.04-1.39-.120412-.47413704.1038787-.96840748.54-1.19l10.52-4.78c.5332516-.22897265 1.1520695.00529413 1.4.53z" fill="#ffeb3a"/><path id="Shape" d="m43.28 1.62c-.2479305-.52470587-.8667484-.75897265-1.4-.53l-1.515.688 7.635 14.222h3z" fill="#fdd834"/><circle id="Oval" cx="41" cy="23" fill="#ff9801" r="3"/><circle id="Oval" cx="42" cy="10" fill="#ff9801" r="2"/><circle id="Oval" cx="33" cy="28" fill="#ff9801" r="2"/><circle id="Oval" cx="23" cy="22" fill="#ff9801" r="2"/><path id="Shape" d="m5 3v54c0 1.1045695-.8954305 2-2 2s-2-.8954305-2-2v-54c.0032948-1.10320187.89679813-1.9967052 2-2 .53059053-.00282307 1.0395388.2101411 1.41.59.3798589.3704612.59282307.87940947.59 1.41z" fill="#a0522d"/><path id="Shape" d="m59 3v54c0 1.1045695-.8954305 2-2 2s-2-.8954305-2-2v-54c.0032948-1.10320187.8967981-1.9967052 2-2 .5305905-.00282307 1.0395388.2101411 1.41.59.3798589.3704612.5928231.87940947.59 1.41z" fill="#a0522d"/><path id="Shape" d="m55 35v6h-9v-1c0-.5522847-.4477153-1-1-1h-28c-.5522847 0-1 .4477153-1 1v1h-11v-6z" fill="#783e22"/><rect id="Rectangle-path" fill="#f44335" height="16" rx="1" width="30" x="16" y="39"/><path id="Shape" d="m45 39h-3c.5522847 0 1 .4477153 1 1v14c0 .5522847-.4477153 1-1 1h3c.5522847 0 1-.4477153 1-1v-14c0-.5522847-.4477153-1-1-1z" fill="#c81e1e"/><g fill="#000"><path id="Shape" d="m41 19c-2.209139 0-4 1.790861-4 4s1.790861 4 4 4 4-1.790861 4-4-1.790861-4-4-4zm0 6c-1.1045695 0-2-.8954305-2-2s.8954305-2 2-2 2 .8954305 2 2-.8954305 2-2 2z"/><path id="Shape" d="m42 13c1.6568542 0 3-1.3431458 3-3 0-1.65685425-1.3431458-3-3-3s-3 1.34314575-3 3c0 1.6568542 1.3431458 3 3 3zm0-4c.5522847 0 1 .44771525 1 1 0 .5522847-.4477153 1-1 1s-1-.4477153-1-1c0-.55228475.4477153-1 1-1z"/><path id="Shape" d="m33 25c-1.6568542 0-3 1.3431458-3 3s1.3431458 3 3 3 3-1.3431458 3-3-1.3431458-3-3-3zm0 4c-.5522847 0-1-.4477153-1-1s.4477153-1 1-1 1 .4477153 1 1-.4477153 1-1 1z"/><path id="Shape" d="m23 19c-1.6568542 0-3 1.3431458-3 3s1.3431458 3 3 3 3-1.3431458 3-3-1.3431458-3-3-3zm0 4c-.5522847 0-1-.4477153-1-1s.4477153-1 1-1 1 .4477153 1 1-.4477153 1-1 1z"/><circle id="Oval" cx="16" cy="24" r="1"/><circle id="Oval" cx="31" cy="22" r="1"/><circle id="Oval" cx="21" cy="29" r="1"/><circle id="Oval" cx="35" cy="11" r="1"/><circle id="Oval" cx="45" cy="30" r="1"/><path id="Shape" d="m57 0c-1.6568542 0-3 1.34314575-3 3v31h-2v-7.129c.0033194-.8938716-.5837786-1.6826445-1.441-1.936-.9100152-.198477-1.5588617-1.0040921-1.5588617-1.9355s.6488465-1.737023 1.5588617-1.9355c.8570658-.2529636 1.4442078-1.0413882 1.441-1.935v-3.129c-.0240349-.1611925-.0638942-.3196245-.119-.473l-7.715-14.38c-.4983722-.99057742-1.6872477-1.41460968-2.7-.963l-10.517 4.772c-.873088.41620844-1.3328478 1.38922742-1.1 2.328.0754479.32631536.0829366.66466607.022.994-.1104621.77072914-.673886 1.39925452-1.428 1.593-.7432987.10509211-1.4653733-.29869695-1.765-.987-.4334605-.90936322-1.512094-1.30836453-2.433-.9l-15.66 7.1c-.34650642.1768487-.57028958.527251-.585.916v5.129c-.00318923.8941486.58438227 1.6830103 1.442 1.936.9100152.198477 1.5588617 1.0040921 1.5588617 1.9355s-.6488465 1.737023-1.5588617 1.9355c-.85746217.2525977-1.44507783 1.041111-1.442 1.935v5.129h-2v-31c0-1.65685425-1.34314575-3-3-3s-3 1.34314575-3 3v54c0 1.6568542 1.34314575 3 3 3s3-1.3431458 3-3v-15h9v12c0 1.1045695.8954305 2 2 2h28c1.1045695 0 2-.8954305 2-2v-12h7v15c0 1.6568542 1.3431458 3 3 3s3-1.3431458 3-3v-54c0-1.65685425-1.3431458-3-3-3zm-32.061 9.872c.7183242 1.4220303 2.2722586 2.2179873 3.846 1.97 1.5848089-.3378098 2.7993953-1.6143568 3.058-3.214.1102336-.61503056.0873873-1.24654266-.067-1.852l10.517-4.776c.04-.016.087.045.11.088l6.926 12.912h-35.7zm-14.922 18.979c1.7604961-.4575368 2.9881252-2.0486131 2.9841207-3.8675883-.0040045-1.8189751-1.2386271-3.4046307-3.0011207-3.8544117v-4.129h40l-.011 2.149c-1.7608407.4561764-2.9896949 2.0462934-2.9871038 3.865263.0025911 1.8189695 1.2359706 3.4055791 2.9981038 3.856737v7.129h-40zm-6.017 28.149c0 .5522847-.44771525 1-1 1s-1-.4477153-1-1v-54c0-.55228475.44771525-1 1-1s1 .44771525 1 1zm13-3v-14h28v1 13zm30-14c0-1.1045695-.8954305-2-2-2h-28c-1.1045695 0-2 .8954305-2 2h-9v-4h48v4zm11 17c0 .5522847-.4477153 1-1 1s-1-.4477153-1-1v-54c0-.55228475.4477153-1 1-1s1 .44771525 1 1z"/></g><circle id="Oval" cx="26" cy="44" fill="#f5f5f5" r="1"/><circle id="Oval" cx="34" cy="50" fill="#f5f5f5" r="1"/><path id="Shape" d="m26 52c-.4043959-.0000863-.7689341-.2437275-.923678-.6173454-.1547439-.373618-.0692299-.8036603.216678-1.0896546l8-8c.3923789-.3789722 1.0160848-.3735524 1.4018186.0121814s.3911536 1.0094397.0121814 1.4018186l-8 8c-.1874927.1875494-.4418052.2929434-.707.293z" fill="#f5f5f5"/></g></g></svg>