<svg height="512" viewBox="0 0 60 60" width="512" xmlns="http://www.w3.org/2000/svg"><g id="Page-1" fill="none" fill-rule="evenodd"><g id="093---Crop-Rotation" fill-rule="nonzero"><path id="Shape" d="m39.97 42.52c-5.8369111 4.6399033-14.1030889 4.6399033-19.94 0 .6006688-.340729 1.279421-.519892 1.97-.52.1774627.0067417.3544074.0234346.53.05.5160446-.935146 1.3874611-1.6226194 2.4170347-1.9068344 1.0295737-.2842151 2.130263-.1411439 3.0529653.3968344 1.2361501-.7199379 2.7638499-.7199379 4 0 .9227023-.5379783 2.0233916-.6810495 3.0529653-.3968344 1.0295736.284215 1.9009901.9716884 2.4170347 1.9068344.1755926-.0265654.3525373-.0432583.53-.05.690579.000108 1.3693312.179271 1.97.52z" fill="#a0522d"/><path id="Shape" d="m36.97 42.52c-2.4298451 1.9387742-5.3744449 3.1232195-8.47 3.407.494.046.994.073 1.5.073 3.6223751.0075236 7.1391043-1.2199806 9.97-3.48-.6006688-.340729-1.279421-.519892-1.97-.52-.1774627.0067417-.3544074.0234346-.53.05z" fill="#783e22"/><path id="Shape" d="m46 30c.0080292 4.8753407-2.2130293 9.4868917-6.03 12.52-.6006688-.340729-1.279421-.519892-1.97-.52-.1774627.0067417-.3544074.0234346-.53.05-.5160446-.935146-1.3874611-1.6226194-2.4170347-1.9068344-1.0295737-.2842151-2.130263-.1411439-3.0529653.3968344-1.2361501-.7199379-2.7638499-.7199379-4 0-.9227023-.5379783-2.0233916-.6810495-3.0529653-.3968344-1.0295736.284215-1.9009901.9716884-2.4170347 1.9068344-.1755926-.0265654-.3525373-.0432583-.53-.05-.690579.000108-1.3693312.179271-1.97.52-5.8385681-4.6516492-7.68455-12.7226199-4.4485322-19.4497966 3.2360178-6.7271768 10.6939689-10.3226157 17.972514-8.6644543 7.2785451 1.6581615 12.443198 8.1292184 12.4460182 15.5942509z" fill="#00bcd4"/><path id="Shape" d="m30 14c-.506 0-1.006.03-1.5.076 6.3692916.592199 11.7715175 4.9260634 13.7308249 11.0153729 1.9593073 6.0893096.0980218 12.7602946-4.7308249 16.9556271.1655826-.0256046.3325464-.0412992.5-.047.690579.000108 1.3693312.179271 1.97.52 5.3242024-4.2365706 7.3866339-11.3770058 5.1413071-17.7999468-2.2453268-6.4229409-8.3072163-10.7232821-15.1113071-10.7200532z" fill="#00838f"/><path id="Shape" d="m35 21h1c.5522847 0 1 .4477153 1 1 0 2.7614237-2.2385763 5-5 5h-2v-1c0-2.7614237 2.2385763-5 5-5z" fill="#549414"/><path id="Shape" d="m23 21h2c2.7614237 0 5 2.2385763 5 5 0 .5522847-.4477153 1-1 1h-1c-2.7614237 0-5-2.2385763-5-5z" fill="#60a917" transform="matrix(-1 0 0 -1 53 48)"/><path id="Shape" d="m35 30h1c.5522847 0 1 .4477153 1 1 0 2.7614237-2.2385763 5-5 5h-2v-1c0-2.7614237 2.2385763-5 5-5z" fill="#549414"/><path id="Shape" d="m23 29.998h2c2.7614237 0 5 2.2385763 5 5 0 .5522847-.4477153 1-1 1h-1c-2.7614237 0-5-2.2385763-5-5z" fill="#60a917" transform="matrix(-1 0 0 -1 53 65.996)"/><g fill="#000"><path id="Shape" d="m30 13c-9.3888407 0-17 7.6111593-17 17s7.6111593 17 17 17 17-7.6111593 17-17c-.010471-9.3845001-7.6154999-16.989529-17-17zm-7.393 30.035c.333467-.022504.6336457-.2101156.8-.5.8287424-1.4330608 2.653744-1.9364942 4.1-1.131.3094011.1786328.6905989.1786328 1 0 .9275912-.5381777 2.0724088-.5381777 3 0 .3094011.1786328.6905989.1786328 1 0 1.4463941-.8043427 3.2705487-.301143 4.1 1.131.1663543.2898844.466533.477496.8.5-4.5804795 2.6199987-10.2055205 2.6199987-14.786 0zm5.393-17.035c-2.209139 0-4-1.790861-4-4h1c2.209139 0 4 1.790861 4 4zm0 9c-2.209139 0-4-1.790861-4-4h1c2.209139 0 4 1.790861 4 4zm11.792 6.339c-.5715553-.2217091-1.1789546-.3366133-1.792-.339h-.021c-1.3802093-1.8573276-3.8620054-2.5123325-5.979-1.578-.3211937-.1399969-.6564312-.2452615-1-.314v-2.108h1c3.3123376-.0033074 5.9966926-2.6876624 6-6 0-1.1045695-.8954305-2-2-2h-1c-1.4782155.0002927-2.9036672.5494479-4 1.541v-2.541h1c3.3123376-.0033074 5.9966926-2.6876624 6-6 0-1.1045695-.8954305-2-2-2h-1c-1.4782155.0002927-2.9036672.5494479-4 1.541v-3.541c0-.5522847-.4477153-1-1-1s-1 .4477153-1 1v3.541c-1.0963328-.9915521-2.5217845-1.5407073-4-1.541h-1c-1.1045695 0-2 .8954305-2 2 .0033074 3.3123376 2.6876624 5.9966926 6 6h1v2.54c-1.0964822-.9911889-2.5219173-1.5399814-4-1.54h-1c-1.1045695 0-2 .8954305-2 2 .0033074 3.3123376 2.6876624 5.9966926 6 6h1v2.109c-.3435688.0687385-.6788063.1740031-1 .314-2.1167675-.9345444-4.598512-.2799682-5.979 1.577h-.021c-.6129831.0020677-1.2203804.1166326-1.792.338-4.7496167-4.0929713-6.4524644-10.7082423-4.2693712-16.5857738 2.1830933-5.8775315 7.791501-9.7771807 14.0613712-9.7771807s11.8782779 3.8996492 14.0613712 9.7771807c2.1830932 5.8775315.4802455 12.4928025-4.2693712 16.5857738zm-8.792-6.339c0-2.209139 1.790861-4 4-4h1c0 2.209139-1.790861 4-4 4zm0-9c0-2.209139 1.790861-4 4-4h1c0 2.209139-1.790861 4-4 4z"/><path id="Shape" d="m47.056 52.207c-10.1574634 7.8010614-24.3132202 7.7158205-34.376-.207h2.32c.5522847 0 1-.4477153 1-1s-.4477153-1-1-1h-5c-.55228475 0-1 .4477153-1 1v5c0 .5522847.44771525 1 1 1 .5522847 0 1-.4477153 1-1v-2.792c10.779789 8.8322294 26.2233593 9.0746033 37.275.585.4379618-.3366176.5201175-.9645382.1835-1.4025-.3366176-.4379618-.9645382-.5201175-1.4025-.1835z"/><path id="Shape" d="m53.792 11.725c-.211287-.3007467-.5705257-.4613482-.935536-.4182415-.3650104.0431067-.6769549.2829731-.8123717.6246646-.1354168.3416914-.0724775.7301292.1639077 1.0115769 7.8007691 10.1576915 7.7151164 24.3134496-.208 34.376v-2.319c0-.5522847-.4477153-1-1-1s-1 .4477153-1 1v5c0 .5522847.4477153 1 1 1h5c.5522847 0 1-.4477153 1-1s-.4477153-1-1-1h-2.792c8.8326653-10.7797545 9.0746329-26.2238356.584-37.275z"/><path id="Shape" d="m10 15v-5c0-.55228475-.44771525-1-1-1h-5c-.55228475 0-1 .44771525-1 1 0 .5522847.44771525 1 1 1h2.792c-8.83266529 10.7797545-9.07463292 26.2238356-.584 37.275.21128697.3007467.57052566.4613482.93553602.4182415s.67695489-.2829731.81237169-.6246646c.1354168-.3416914.07247749-.7301292-.16390771-1.0115769-7.80076907-10.1576915-7.71511636-24.3134496.208-34.376v2.319c.00000002.5522847.44771526 1 1 1s.99999998-.4477153 1-1z"/><path id="Shape" d="m51 9v-5c0-.55228475-.4477153-1-1-1s-1 .44771525-1 1v2.792c-10.779789-8.83222938-26.2233593-9.07460332-37.275-.585-.2833116.21775338-.4289323.57011074-.3820081.92434248.0469241.35423175.2792642.65652164.6095.793.3302357.13647837.7081965.0864109.9915081-.13134248 10.1574634-7.80106142 24.3132202-7.71582051 34.376.207h-2.32c-.5522847 0-1 .44771525-1 1s.4477153 1 1 1h5c.2652165 0 .5195704-.10535684.7071068-.29289322s.2928932-.44189029.2928932-.70710678z"/></g></g></g></svg>