<svg height="512" viewBox="0 0 60 60" width="512" xmlns="http://www.w3.org/2000/svg"><g id="Page-1" fill="none" fill-rule="evenodd"><g id="096---NPK-Balance" transform="translate(-1)"><circle id="Oval" cx="31" cy="9" fill="#ff9801" fill-rule="nonzero" r="8"/><path id="Shape" d="m31 1c-.5034323.00135829-1.005629.04990397-1.5.145 3.7641632.72658994 6.4837629 4.0213519 6.4837629 7.855s-2.7195997 7.1284101-6.4837629 7.855c2.9873733.5766142 6.0432406-.5912461 7.8846263-3.0132663s2.1495108-5.67890239.795012-8.40327682-4.1371319-4.44459995-7.1796383-4.43845688z" fill="#f57c00" fill-rule="nonzero"/><circle id="Oval" cx="31" cy="34" fill="#60a917" fill-rule="nonzero" r="12"/><path id="Shape" d="m31 22c-.5016016.0018663-1.0025897.0352655-1.5.1 5.9981525.7514856 10.4985957 5.8509554 10.4985957 11.896s-4.5004432 11.1445144-10.4985957 11.896c4.4513412.6000263 8.8650932-1.3360521 11.4384127-5.0174236 2.5733196-3.6813716 2.8753186-8.4916109.7826423-12.4659255s-6.2296207-6.4472272-10.721055-6.4086509z" fill="#549414" fill-rule="nonzero"/><path id="Shape" d="m15.02 53.23c9.264352 7.693447 22.695648 7.693447 31.96 0" stroke="#000" stroke-linecap="round" stroke-linejoin="round" stroke-width="2"/><path id="Shape" d="m6.67 39.73c-.44711356-1.8771435-.67199034-3.8003434-.67-5.73-.00416681-10.764548 6.8858581-20.3219393 17.1-23.72" stroke="#000" stroke-linecap="round" stroke-linejoin="round" stroke-width="2"/><path id="Shape" d="m38.9 10.28c10.2141419 3.3980607 17.1041668 12.955452 17.1 23.72.0019903 1.9296566-.2228864 3.8528565-.67 5.73" stroke="#000" stroke-linecap="round" stroke-linejoin="round" stroke-width="2"/><g fill-rule="nonzero"><circle id="Oval" cx="10" cy="47" fill="#02a9f4" r="8"/><path id="Shape" d="m10 39c-.50343231.0013583-1.005629.049904-1.5.145 3.7641632.7265899 6.4837629 4.0213519 6.4837629 7.855s-2.7195997 7.1284101-6.4837629 7.855c2.9873733.5766142 6.0432406-.5912461 7.8846263-3.0132663s2.1495108-5.6789024.795012-8.4032768-4.1371319-4.4446-7.1796383-4.4384569z" fill="#0377bc"/><circle id="Oval" cx="52" cy="47" fill="#ef314c" r="8"/><path id="Shape" d="m52 39c-.5034323.0013583-1.005629.049904-1.5.145 3.7641632.7265899 6.4837629 4.0213519 6.4837629 7.855s-2.7195997 7.1284101-6.4837629 7.855c2.9873733.5766142 6.0432406-.5912461 7.8846263-3.0132663s2.1495108-5.6789024.795012-8.4032768-4.1371319-4.4446-7.1796383-4.4384569z" fill="#bb193b"/><path id="Shape" d="m31 21c-7.1797017 0-13 5.8202983-13 13s5.8202983 13 13 13 13-5.8202983 13-13c-.008266-7.1762751-5.8237249-12.991734-13-13zm0 24c-6.0751322 0-11-4.9248678-11-11s4.9248678-11 11-11 11 4.9248678 11 11c-.0071635 6.0721626-4.9278374 10.9928365-11 11z" fill="#000"/><path id="Shape" d="m56.462 39.2c2.6098353-12.5887118-4.4127202-25.1857108-16.493-29.585.014-.2.031-.407.031-.615 0-4.97056275-4.0294373-9-9-9s-9 4.02943725-9 9c0 .208.017.411.031.615-12.08027984 4.3992892-19.10283533 16.9962882-16.493 29.585-2.86169741 1.6292624-4.60421164 4.6921772-4.54249195 7.9845925s1.91780426 6.2878708 4.83855401 7.8087353 6.43913404 1.3239503 9.17193794-.5133278c9.3903448 7.3665035 22.5976552 7.3665035 31.988 0 2.7328039 1.8372781 6.2511882 2.0341923 9.1719379.5133278 2.9207498-1.5208645 4.7768344-4.51632 4.838554-7.8087353.0617197-3.2924153-1.6807945-6.3553301-4.5424919-7.9845925zm-25.462-37.2c3.8659932 0 7 3.13400675 7 7 0 3.8659932-3.1340068 7-7 7s-7-3.1340068-7-7c.0049584-3.86393756 3.1360624-6.99504164 7-7zm-28 45c0-3.8659932 3.13400675-7 7-7 3.8659932 0 7 3.1340068 7 7s-3.1340068 7-7 7c-3.86393756-.0049584-6.99504164-3.1360624-7-7zm13.558 6.145c2.7875957-2.9646091 3.2355737-7.4322589 1.0920885-10.8913149-2.1434852-3.4590559-6.3435898-5.0464123-10.2390885-3.8696851-2.13526069-11.3708741 4.1709654-22.6407431 14.979-26.769 1.1534237 3.7894836 4.6488673 6.3793321 8.61 6.3793321s7.4565763-2.5898485 8.61-6.3793321c10.8080346 4.1282569 17.1142607 15.3981259 14.979 26.769-3.8959064-1.1786203-8.0975509.4083188-10.2415302 3.8681721s-1.6949422 7.9286963 1.0945302 10.8928279c-8.5399729 6.4731832-20.3440271 6.4731832-28.884 0zm35.442.855c-2.8312357 0-5.3836897-1.7054952-6.4671567-4.321216-1.083467-2.6157207-.4845767-5.6265455 1.5174092-7.6285315 2.001986-2.0019859 5.0128108-2.6008762 7.6285315-1.5174092 2.6157208 1.083467 4.321216 3.635921 4.321216 6.4671567-.0049584 3.8639376-3.1360624 6.9950416-7 7z" fill="#000"/><path id="Shape" d="m33 13c-.3342785.00005-.6464754-.1669303-.832-.445l-2.168-3.255v2.7c0 .5522847-.4477153 1-1 1s-1-.4477153-1-1v-6c-.0000989-.44069193.2883025-.8294988.7100651-.95727078.4217626-.12777197.8774498.03561507 1.1219349.40227078l2.168 3.255v-2.7c0-.55228475.4477153-1 1-1s1 .44771525 1 1v6c0 .5522847-.4477153 1-1 1z" fill="#f5f5f5"/><path id="Shape" d="m53 43h-2c-.5522847 0-1 .4477153-1 1v6c0 .5522847.4477153 1 1 1s1-.4477153 1-1v-1h1c1.6568542 0 3-1.3431458 3-3s-1.3431458-3-3-3zm0 4h-1v-2h1c.5522847 0 1 .4477153 1 1s-.4477153 1-1 1z" fill="#f5f5f5"/><path id="Shape" d="m10.414 47 2.293-2.293c.3789722-.3923789.3735524-1.0160848-.0121814-1.4018186s-1.0094397-.3911536-1.4018186-.0121814l-1.293 1.293v-.586c0-.5522847-.44771525-1-1-1s-1 .4477153-1 1v6c0 .5522847.44771525 1 1 1s1-.4477153 1-1v-.586l1.293 1.293c.3923789.3789722 1.0160848.3735524 1.4018186-.0121814s.3911536-1.0094397.0121814-1.4018186z" fill="#f5f5f5"/><path id="Shape" d="m28 40c-.2653486.0007185-.5199469-.1047939-.707-.293l-2-2c-.3789722-.3923789-.3735524-1.0160848.0121814-1.4018186s1.0094397-.3911536 1.4018186-.0121814l1.21 1.21 7.3-9.128c.223291-.2790244.5784781-.4177293.9317659-.3638658.3532877.0538634.6510032.2921121.781.625.1299967.3328878.0725251.7098414-.1507659.9888658l-8 10c-.1777062.2216796-.4413189.3573038-.725.373z" fill="#f5f5f5"/></g></g></g></svg>