<svg height="512" viewBox="0 0 44 60" width="512" xmlns="http://www.w3.org/2000/svg"><g id="Page-1" fill="none" fill-rule="evenodd"><g id="097---Farm-Location" fill-rule="nonzero" transform="translate(-1 -1)"><path id="Shape" d="m44 22.75c.098617 7.7812072-4.1157794 14.9783955-10.95 18.7l-9.3 18.09c-.1448331.2806215-.4342073.4569134-.75.4569134s-.6051669-.1762919-.75-.4569134l-9.3-18.09c-8.98180336-4.8917368-13.13477222-15.5415757-9.83560737-25.22235s13.09135587-15.57816471 23.19115547-13.96697604c10.0997995 1.61118868 17.5710725 10.26256424 17.6944519 20.48932604z" fill="#ff5722"/><path id="Shape" d="m24.16 2.03c-.8997675-.04662566-1.8015903-.03593739-2.7.032 9.3066536.64875395 17.0695411 7.35952333 19.0574001 16.4745165 1.987859 9.1149931-2.275957 18.4486269-10.4674001 22.9134835l-8.55 16.631.75 1.459c.1448331.2806215.4342073.4569134.75.4569134s.6051669-.1762919.75-.4569134l9.3-18.09c8.2413731-4.4935966 12.5015846-13.9092175 10.436528-23.0660828-2.0650567-9.15686523-9.9541839-15.83256684-19.326528-16.3539172z" fill="#d84315"/><path id="Shape" d="m32.19 16.16c-.0930434-.159761-.2278766-.291137-.39-.38l-8.32-4.65c-.2974068-.1700566-.6625932-.1700566-.96 0l-8.32 4.65c-.1621234.088863-.2969566.220239-.39.38l-1.81 3.25v16.53c1.202925 1.0364034 2.5504051 1.8920532 4 2.54v-9.48c-.0023372-.2778373.1140945-.5434472.32-.73.1837073-.1737904.427114-.2704372.68-.27h12c.2661179-.0029767.522205.101424.7103905.2896095s.2925862.4442726.2896095.7103905v9.48c1.4495949-.6479468 2.797075-1.5035966 4-2.54v-16.53zm-5.19 6.83c.0026696.2669449-.1015076.5238754-.2893341.7135801-.1878265.1897048-.4437077.2964332-.7106659.2964199h-6c-.2669582.0000133-.5228394-.1067151-.7106659-.2964199-.1878265-.1897047-.2920037-.4466352-.2893341-.7135801v-4.45c-.0048078-.3832903.2084109-.7360704.55-.91l3-1.52c.2820552-.1467437.6179448-.1467437.9 0l3 1.52c.3415891.1739296.5548078.5267097.55.91z" fill="#f44335"/><path id="Shape" d="m32.19 16.16c-.0930434-.159761-.2278766-.291137-.39-.38l-8.32-4.65c-.2974068-.1700566-.6625932-.1700566-.96 0l-1.02.57 7.3 4.08c.1621234.088863.2969566.220239.39.38l1.81 3.25v16.53c-.323.277-.657.539-1 .791v1.749c1.4495949-.6479468 2.797075-1.5035966 4-2.54v-16.53z" fill="#c81e1e"/><path id="Shape" d="m30 29v9.48c-.39.18-.79.35-1.19.5-3.7539513 1.3600091-7.8660487 1.3600091-11.62 0-.4-.15-.8-.32-1.19-.5v-9.48c-.0023372-.2778373.1140945-.5434472.32-.73.1837073-.1737904.427114-.2704372.68-.27h12c.2661179-.0029767.522205.101424.7103905.2896095s.2925862.4442726.2896095.7103905z" fill="#ff9801"/><path id="Shape" d="m29.69 28.27c-.1890529-.1716578-.4346524-.267762-.69-.27h-3c.2661179-.0029767.522205.101424.7103905.2896095s.2925862.4442726.2896095.7103905v9.48c-.39.18-.79.35-1.19.5-1.3891239.5038803-2.8379908.8245808-4.31.954.494.043.994.066 1.5.066 1.9813389.001518 3.9476605-.3436882 5.81-1.02.4-.15.8-.32 1.19-.5v-9.48c-.0025253-.2747965-.1140225-.5373544-.31-.73z" fill="#f57c00"/><path id="Shape" d="m40 23c.0035017 4.9865175-2.1917371 9.7209159-6 12.94v-16.53l-1.81-3.25c-.0930434-.159761-.2278766-.291137-.39-.38l-8.32-4.65c-.2974068-.1700566-.6625932-.1700566-.96 0l-8.32 4.65c-.1621234.088863-.2969566.220239-.39.38l-1.81 3.25v16.53c-5.9900947-5.0927852-7.70429467-13.6298353-4.14445676-20.6402026 3.55983796-7.01036737 11.46403126-10.66323385 19.11013176-8.83161093 7.6461005 1.83162291 13.037263 8.66939103 13.034325 16.53181353z" fill="#00bcd4"/><path id="Shape" d="m23 6c-.506 0-1 .032-1.5.076 6.0175036.51535974 11.3059322 4.1944101 13.8816347 9.657166s2.0493469 11.8834909-1.3816347 16.853834v3.353c5.4362451-4.6093476 7.4165298-12.1224058 4.9585802-18.8124977-2.4579496-6.690092-8.8312522-11.13402988-15.9585802-11.1275023z" fill="#00838f"/><path id="Shape" d="m27 18.54v4.45c.0026696.2669449-.1015076.5238754-.2893341.7135801-.1878265.1897048-.4437077.2964332-.7106659.2964199h-6c-.2669582.0000133-.5228394-.1067151-.7106659-.2964199-.1878265-.1897047-.2920037-.4466352-.2893341-.7135801v-4.45c-.0048078-.3832903.2084109-.7360704.55-.91l3-1.52c.2820552-.1467437.6179448-.1467437.9 0l3 1.52c.3415891.1739296.5548078.5267097.55.91z" fill="#02a9f4"/><path id="Shape" d="m26.45 17.63-3-1.52c-.2820552-.1467437-.6179448-.1467437-.9 0l-1.05.532 1.95.988c.3415891.1739296.5548078.5267097.55.91v4.45c.0026696.2669449-.1015076.5238754-.2893341.7135801-.1878265.1897048-.4437077.2964332-.7106659.2964199h3c.2669582.0000133.5228394-.1067151.7106659-.2964199.1878265-.1897047.2920037-.4466352.2893341-.7135801v-4.45c.0048078-.3832903-.2084109-.7360704-.55-.91z" fill="#0377bc"/><g fill="#000"><path id="Shape" d="m24.212 1.032c-10.212116-.55795241-19.46304331 5.99199352-22.32894499 15.8095916-2.86590169 9.8175981 1.40842959 20.3157665 10.31694499 25.3394084l8.644 16.819h-11.844c-.55228475 0-1 .4477153-1 1s.44771525 1 1 1h28c.5522847 0 1-.4477153 1-1s-.4477153-1-1-1h-11.844l8.644-16.819c8.5152673-4.802455 12.8425393-14.6458953 10.6240535-24.1670125-2.2184857-9.52111723-10.4510359-16.43803256-20.2120535-16.9819875zm8.422 39.508c-.0240711.0059581-.0477774.0133037-.071.022-1.2232294.668883-2.5132996 1.2075015-3.849 1.607-.4753265.1422839-.7744453.6115785-.7027327 1.102534s.4925675.8550853.9887327.855466c.0968479-.0002972.1931557-.0144403.286-.042.529-.158 1.049-.343 1.565-.541l-7.851 15.275-7.851-15.275c.516.2 1.036.383 1.565.541.0928443.0275597.1891521.0417028.286.042.4961652-.0003807.9170201-.3645105.9887327-.855466s-.2274062-.9602501-.7027327-1.102534c-1.3357004-.3994985-2.6257706-.938117-3.849-1.607-.0232226-.0086963-.0469289-.0160419-.071-.022-5.59744829-3.0800075-9.38818168-8.6471797-10.20268421-14.9839344-.81450254-6.3367546 1.44510316-12.6816146 6.08168421-17.0770656 3.7021391-3.53165065 8.6265425-5.49489058 13.743-5.479.37 0 .743.01 1.116.03 8.9126605.49658442 16.4183607 6.83686809 18.3977612 15.541125 1.9794004 8.7042568-2.0463316 17.6668577-9.8677612 21.968875z"/><path id="Shape" d="m23 5c-7.5297928-.00856408-14.26736273 4.67571381-16.88182807 11.7370468-2.61446534 7.0613329-.55197524 15.0038416 5.16782807 19.9009532l.022.02c1.2875973 1.1024755 2.7240348 2.0181329 4.267 2.72.02.01.039.02.06.029 4.6802967 2.1239993 10.0497033 2.1239993 14.73 0 .021-.009.04-.02.06-.029 1.5429652-.7018671 2.9794027-1.6175245 4.267-2.72l.022-.02c5.7198033-4.8971116 7.7822934-12.8396203 5.1678281-19.9009532-2.6144654-7.06133299-9.3520353-11.74561088-16.8818281-11.7370468zm-8.313 11.649 8.313-4.649 8.319 4.652 1.681 3.022v15.8c-.6314574.5045587-1.3000144.9608489-2 1.365v-7.839c0-1.1045695-.8954305-2-2-2h-12c-1.1045695 0-2 .8954305-2 2v7.835c-.6999856-.4041511-1.3685426-.8604413-2-1.365v-15.795zm14.313 21.174-4.461-3.823 4.461-3.822v7.644zm-12 0v-7.653l4.466 3.83-4.461 3.824zm1.708-8.823h8.592l-4.3 3.683zm.537 9.536 3.755-3.219 3.754 3.219c-2.4654477.6186683-5.0455523.6186683-7.511 0zm15.755-4.989v-10.287l.127.227c.276477.4661396.873962.6271976 1.3472633.3631681s.6501332-.8570374.3987367-1.3371681l-3.811-6.835c-.1811356-.3247743-.4486948-.5930258-.773-.775l-8.318-4.65c-.6030391-.34002215-1.3399609-.34002215-1.943 0l-8.313 4.647c-.3256722.1816354-.5943646.4503278-.776.776l-3.812 6.836c-.18547841.3127161-.18661132.7014634-.00295871 1.0152553.1836526.3137919.52314962.5031791.88663291.4946051.3634833-.008574.693673-.2137582.8623258-.5358604l.127-.226v10.287c-5.67291322-6.432479-5.26488156-16.1939405.9250628-22.1305489 6.1899443-5.93660844 15.9599301-5.93660844 22.1498744 0 6.1899444 5.9366084 6.597976 15.6980699.9250628 22.1305489z"/><path id="Shape" d="m20 25h6c1.1083689-.0049604 2.0033213-.9066249 2-2.015v-4.448c.0052913-.7603137-.4209924-1.4578689-1.1-1.8l-3-1.521c-.2786959-.1421634-.5871394-.2161898-.9-.216-.3107604.000371-.6170521.0740318-.894.215l-3 1.522c-.6790076.3421311-1.1052913 1.0396863-1.1 1.8v4.448c-.0033341 1.1060473.8879785 2.0067468 1.994 2.015zm5.994-2h-1.994v-5.487l2 1.024zm-5.989-4.479 2-1.015v5.484h-2z"/></g></g></g></svg>