<svg height="512" viewBox="0 0 44 60" width="512" xmlns="http://www.w3.org/2000/svg"><g id="Page-1" fill="none" fill-rule="evenodd"><g id="099---Udder-Milk" fill-rule="nonzero"><path id="Shape" d="m34 40-1.717 16.314c-.1606735 1.5266653-1.447903 2.6857328-2.983 2.686h-14.6c-1.5354795.0002446-2.8232865-1.1589543-2.984-2.686l-1.716-16.314" fill="#9e9e9e"/><path id="Shape" d="m31 40-1.717 16.314c-.1606735 1.5266653-1.447903 2.6857328-2.983 2.686h3c1.5354795.0002446 2.8232865-1.1589543 2.984-2.686l1.716-16.314z" fill="#707070"/><path id="Shape" d="m43 2c.0091624 4.96077595-1.7452667 9.763304-4.95 13.55-1.7906728 2.1186055-3.9827452 3.8620677-6.45 5.13-1.7622641.9136713-3.6490108 1.563925-5.6 1.93v4.39c0 2.209139-1.790861 4-4 4s-4-1.790861-4-4v-4.39c-1.9509892-.366075-3.8377359-1.0163287-5.6-1.93-2.46725479-1.2679323-4.65932717-3.0113945-6.45-5.13-3.2001552-3.7893541-4.95394893-8.59014296-4.95-13.55 0-.55228475.44771525-1 1-1h40c.5522847 0 1 .44771525 1 1z" fill="#ef314c"/><path id="Shape" d="m42 1h-3c.5522847 0 1 .44771525 1 1 .0091624 4.96077595-1.7452667 9.763304-4.95 13.55-1.7906728 2.1186055-3.9827452 3.8620677-6.45 5.13-.9337038.4837407-1.9032295.8949533-2.9 1.23-1.6175165.5464598-2.7046841 2.0656758-2.7 3.773v1.317c-.0032957 1.6269922-.9917334 3.08988-2.5 3.7.6956964.2875025 1.4595146.3683977 2.2.233 1.9515859-.416405 3.3348391-2.156789 3.3-4.152v-4.171c1.9509892-.366075 3.8377359-1.0163287 5.6-1.93 2.4672548-1.2679323 4.6593272-3.0113945 6.45-5.13 3.2093326-3.7926421 4.9640381-8.60372537 4.95-13.572-.0119637-.54367446-.4561939-.97813162-1-.978z" fill="#bb193b"/><path id="Shape" d="m12.4 20.68-2.77 5.99c-.56779714 1.345719-1.82394889 2.2749661-3.2769136 2.4241199-1.4529647.1491537-2.87171166-.5055022-3.70107449-1.7077961s-.93746753-2.7610532-.28201191-4.0663238l3.58-7.77c1.79067283 2.1186055 3.98274521 3.8620677 6.45 5.13z" fill="#bb193b"/><path id="Shape" d="m42 25c-.004774 1.8757607-1.3123518 3.4962591-3.1447413 3.8973195-1.8323896.4010603-3.6973521-.5250551-4.4852587-2.2273195l-2.77-5.99c2.4672548-1.2679323 4.6593272-3.0113945 6.45-5.13l3.58 7.77c.243232.5267012.3694609 1.0998485.37 1.68z" fill="#bb193b"/><g fill="#000"><path id="Shape" d="m36 39h-28c-.55228475 0-1 .4477153-1 1s.44771525 1 1 1h1.1l1.623 15.42c.2108833 2.0369198 1.9291963 3.5837038 3.977 3.58h14.6c2.0487091.0046298 3.7679992-1.5430771 3.978-3.581l1.622-15.419h1.1c.5522847 0 1-.4477153 1-1s-.4477153-1-1-1zm-4.711 17.209c-.1069704 1.0180357-.9653597 1.7909745-1.989 1.791h-14.6c-1.0236784.0005403-1.8825139-.7719801-1.99-1.79l-1.6-15.21h21.78z"/><path id="Shape" d="m42 0h-40c-1.1045695 0-2 .8954305-2 2 .00708621 4.96972811 1.69487072 9.7909626 4.789 13.68l-3.326 7.22c-.55820633 1.2040328-.61410106 2.5807593-.1553379 3.8260808.45876317 1.2453215 1.39443445 2.2567656 2.6003379 2.8109192 1.20319417.5572073 2.57875572.6123145 3.82266771.1531423 1.243912-.4591722 2.25375201-1.3948161 2.80633229-2.6001423l2.348-5.076c1.3204334.6045404 2.6992882 1.0723123 4.115 1.396v3.59c.0000001 2.7614237 2.2385763 4.9999999 5 4.9999999s4.9999999-2.2385762 5-4.9999999v-3.59c1.4159931-.3245076 2.7948993-.7936373 4.115-1.4l2.346 5.072c.5485972 1.2077113 1.5568645 2.1462676 2.8007203 2.6070801s2.6202474.4057032 3.8232797-.1530801c1.2070702-.5526885 2.1443347-1.5633383 2.6046357-2.8085716s.4057357-2.6225134-.1516357-3.8274284l-3.327-7.22c3.0942689-3.8889603 4.782071-8.71024504 4.789-13.68 0-1.1045695-.8954305-2-2-2zm-33.279 26.254c-.59202597 1.2751004-1.990108 1.9680713-3.36334254 1.6670687-1.37323453-.3010026-2.35327106-1.5152393-2.35765746-2.9210687.00090311-.4357561.09572308-.8661979.278-1.262l2.958-6.419c1.43815508 1.4808945 3.07918062 2.7502147 4.874 3.77zm32.279-1.254c-.0019907 1.1719627-.6862563 2.2354645-1.752 2.723-.7216271.3334307-1.546397.3654589-2.2917081.0889937s-1.3496766-.8386159-1.6792919-1.5619937l-2.386-5.161c1.7944592-1.0198754 3.4351423-2.2891911 4.873-3.77l2.959 6.421c.1816817.395256.2761547.8249887.277 1.26zm-3.713-10.1c-1.7049615 2.0207167-3.7944103 3.6825542-6.147 4.889-1.31523.6806034-2.7043515 1.2077313-4.14 1.571v-4.36c0-.5522847-.4477153-1-1-1s-1 .4477153-1 1v10c0 1.6568542-1.3431458 3-3 3s-3-1.3431458-3-3v-10c0-.5522847-.4477153-1-1-1s-1 .4477153-1 1v4.36c-1.4369783-.3631127-2.8274422-.8902408-4.144-1.571-2.3511868-1.2063938-4.43900665-2.8682875-6.142-4.889-3.04298139-3.6098008-4.71258835-8.17872946-4.714-12.9h40c-.0011318 4.72114502-1.6703794 9.2900594-4.713 12.9z"/><path id="Shape" d="m23 36v-1c0-.5522847-.4477153-1-1-1s-1 .4477153-1 1v1c0 .5522847.4477153 1 1 1s1-.4477153 1-1z"/><path id="Shape" d="m18 49h8c2.209139 0 4-1.790861 4-4v-1c0-.5522847-.4477153-1-1-1s-1 .4477153-1 1v1c0 1.1045695-.8954305 2-2 2h-8c-1.1045695 0-2-.8954305-2-2v-1c0-.5522847-.4477153-1-1-1s-1 .4477153-1 1v1c0 2.209139 1.790861 4 4 4z"/></g><path id="Shape" d="m9.008 13.97c-.29486756.000241-.57481046-.1296672-.765-.355-2.0368676-2.4170158-3.40281592-5.32685466-3.961-8.438-.0977544-.54372434.26377566-1.0637456.8075-1.1615s1.0637456.26377566 1.1615.8075c.49544346 2.76538796 1.7093676 5.3518741 3.52 7.5.3561442.4219709.3028715 1.0527381-.119 1.409-.17940434.1536129-.40781609.2380259-.644.238z" fill="#f5f5f5"/></g></g></svg>