<svg height="512" viewBox="0 0 60 61" width="512" xmlns="http://www.w3.org/2000/svg"><g id="Page-1" fill="none" fill-rule="evenodd"><g id="100---Hay-Bale-Trailer" transform="translate(-1 -1)"><g fill-rule="nonzero"><path id="Rectangle-path" d="m2 28h48v17h-48z" fill="#3f51b5"/><path id="Rectangle-path" d="m47 28h3v17h-3z" fill="#283593"/><path id="Shape" d="m50 45v5h-47c-.55228475 0-1-.4477153-1-1v-4z" fill="#02a9f4"/><path id="Rectangle-path" d="m47 45h3v5h-3z" fill="#0377bc"/><path id="Shape" d="m7.414 50c1.33812168-4.7385039 5.6621815-8.0105847 10.586-8.0105847s9.2478783 3.2720808 10.586 8.0105847z" fill="#607d8b"/><path id="Shape" d="m46.37 24c4.9310722-5.1273699 4.8251935-13.2659065-.237597-18.26326063-5.0627904-4.99735418-13.2020156-4.99735418-18.264806 0-5.0627905 4.99735413-5.1686692 13.13589073-.237597 18.26326063" fill="#ffdc00"/><path id="Shape" d="m37 2c-.5013727.00211961-1.0022053.03317123-1.5.093 4.9051793.56556611 9.0653117 3.86382364 10.7346962 8.510737 1.6693846 4.6469133.559198 9.8385114-2.8646962 13.396263h3c3.6128279-3.7548248 4.6327767-9.3049201 2.5909754-14.09890405-2.0418014-4.79398397-6.7502917-7.90428496-11.9609754-7.90109595z" fill="#fec108"/><circle id="Oval" cx="37" cy="15" fill="#ffeb3a" r="9"/><path id="Shape" d="m37 6c-.5028835.00322243-1.0046224.04837892-1.5.135 4.3297277.72670886 7.5010833 4.4747098 7.5010833 8.865s-3.1713556 8.1382911-7.5010833 8.865c3.3570875.5877651 6.7581917-.7711782 8.7859125-3.5104942 2.0277208-2.7393161 2.334161-6.389019.7916126-9.4281058-1.5425485-3.0390868-4.6694296-4.94613967-8.0775251-4.9264z" fill="#fdd834"/><path id="Shape" d="m50 25v3h-48v-3c0-.5522847.44771525-1 1-1h46c.5522847 0 1 .4477153 1 1z" fill="#02a9f4"/><path id="Shape" d="m49 24h-3c.5522847 0 1 .4477153 1 1v3h3v-3c0-.5522847-.4477153-1-1-1z" fill="#0377bc"/><circle id="Oval" cx="18" cy="53" fill="#37474f" r="7"/><circle id="Oval" cx="18" cy="53" fill="#cfd8dc" r="3"/><path id="Shape" d="m24.37 24c4.057742-4.2192785 4.7949756-10.630193 1.8008942-15.66040747-2.9940814-5.03021446-8.9808839-7.43885202-14.624398-5.88375425-5.64351418 1.55509778-9.55157157 6.69031211-9.5464962 12.54416172-.00703736 3.3580233 1.29513298 6.5865448 3.63 9" fill="#ffdc00"/><path id="Shape" d="m15 2c-.5013727.00211961-1.0022053.03317123-1.5.093 4.9051793.56556611 9.0653117 3.86382364 10.7346962 8.510737 1.6693846 4.6469133.559198 9.8385114-2.8646962 13.396263h3c3.6128279-3.7548248 4.6327767-9.3049201 2.5909754-14.09890405-2.0418014-4.79398397-6.7502917-7.90428496-11.9609754-7.90109595z" fill="#fec108"/></g><path id="Shape" d="m23 10.88c-2.0244774-3.93181001-6.605551-5.81019052-10.8075298-4.43141825-4.20197879 1.37877226-6.77961909 5.60610235-6.08109071 9.97298875s4.46621871 7.5792156 8.88862051 7.5784295c3.3137085 0 5.9999999-2.6862915 5.9999999-6s-2.6862914-6-5.9999999-6c-2.209139 0-4 1.790861-4 4s1.790861 4 4 4" stroke="#000" stroke-linecap="round" stroke-linejoin="round" stroke-width="2"/><path id="Shape" d="m15 6c-.5028835.00322243-1.0046224.04837892-1.5.135 4.3297277.72670886 7.5010833 4.4747098 7.5010833 8.865s-3.1713556 8.1382911-7.5010833 8.865c3.3570875.5877651 6.7581917-.7711782 8.7859125-3.5104942 2.0277208-2.7393161 2.334161-6.389019.7916126-9.4281058-1.5425485-3.0390868-4.6694296-4.94613967-8.0775251-4.9264z" fill="#fdd834" fill-rule="nonzero"/><path id="Shape" d="m60 53h-2v-1c0-.5522847-.4477153-1-1-1s-1 .4477153-1 1v1h-4c-.5522847 0-1-.4477153-1-1v-27c0-1.1045695-.8954305-2-2-2h-.531c.9229132-1.3113898 1.6101975-2.7736031 2.031-4.321l1.231.294c.0767418.01774.1552347.0267968.234.027.5073737.0000989.9344101-.3797821.9934107-.8837137s-.268736-.9721819-.7624107-1.0892863l-1.313-.313c.0737115-.5684331.1127836-1.1408231.117-1.714-.0037833-4.5207115-2.1932055-8.76059826-5.877-11.381l.709-1.064c.306518-.45950091.1825009-1.08048196-.277-1.387s-1.080482-.18250091-1.387.277l-.751 1.126c-5.9611124-3.09512337-13.2815976-1.50173993-17.417 3.791-.8233456-1.04505342-1.7902378-1.96851624-2.872-2.743l.709-1.064c.306518-.46088162.1813816-1.08298196-.2795-1.3895s-1.082982-.18138162-1.3895.2795l-.751 1.126c-5.6918605-2.96285306-12.67153926-1.65158205-16.9 3.175l-.984-.815c-.27125089-.25684755-.66304558-.34109199-1.01589715-.21844013-.35285158.12265185-.6079206.4317473-.66137674.80146361-.05345614.36971632.10361463.73840179.40727389.95597652l1.037.861c-3.149743 4.7743527-3.05811522 10.9895721.231 15.669h-.531c-1.1045695 0-2 .8954305-2 2v24c0 1.1045695.8954305 2 2 2h7.263c-.85294081 3.2437893.40813 6.6752459 3.1586041 8.5947692 2.750474 1.9195233 6.4063178 1.9195233 9.1567918 0 2.7504741-1.9195233 4.0115449-5.3509799 3.1586041-8.5947692h23.263v1c0 1.6568542 1.3431458 3 3 3h4v3c0 .5522847.4477153 1 1 1s1-.4477153 1-1v-3h2c.5522847 0 1-.4477153 1-1s-.4477153-1-1-1zm-23-50c6.624447.00716485 11.9928352 5.37555305 12 12-.0009743.7454814-.0706016 1.4892891-.208 2.222 0 .007-.007.012-.009.018s0 .035 0 .052c-.4149036 2.1289127-1.4058607 4.1032175-2.865 5.708h-4.029c2.0376263-1.9866736 2.6680905-5.0099921 1.5943438-7.6454923-1.0737467-2.6355001-3.6375075-4.3574381-6.4833438-4.3545077-2.7614237 0-5 2.2385763-5 5s2.2385763 5 5 5c.5522847 0 1-.4477153 1-1s-.4477153-1-1-1c-1.6568542 0-3-1.3431458-3-3s1.3431458-3 3-3c2.7614237 0 5 2.2385763 5 5s-2.2385763 5-5 5c-3.9312907.0010625-7.2807572-2.8544092-7.9017306-6.7363467-.6209735-3.8819376 1.6705961-7.63977662 5.4060445-8.86512253s7.807629.44498058 9.6066861 3.94046923c.1639849.3176091.4849556.5236072.8420057.5403966.35705.0167895.6959349-.1581803.889-.459s.2109792-.6817875.0469943-.9993966c-1.7029578-3.30835937-5.1027307-5.39686267-8.8235846-5.42038712s-7.1467624 2.02182467-8.8914154 5.30838712c-.2653179-.75095612-.5948709-1.47764567-.985-2.172 2.228474-3.21939307 5.8955713-5.13947043 9.811-5.137zm-5.974 20h-4.557c.7154171-1.0180203 1.2899514-2.128069 1.708-3.3.6972203 1.2948977 1.669688 2.4213082 2.849 3.3zm-28.026-8c.0000001-6.62741693 5.37258307-11.99999982 12-11.99999982 6.6274169 0 11.9999999 5.37258289 12 11.99999982.0037267 2.9572318-1.0951611 5.8096337-3.082 8h-4.029c2.0376263-1.9866736 2.6680905-5.0099921 1.5943438-7.6454923-1.0737467-2.6355001-3.6375075-4.3574381-6.4833438-4.3545077-2.7614237 0-5 2.2385763-5 5s2.2385763 5 5 5c.5522847 0 1-.4477153 1-1s-.4477153-1-1-1c-1.6568542 0-2.9999999-1.3431458-2.9999999-3s1.3431457-3 2.9999999-3c2.7614237.0000001 4.9999999 2.2385763 4.9999999 5s-2.2385762 4.9999999-4.9999999 5c-3.9312907.0010625-7.28075724-2.8544092-7.90173065-6.7363467-.6209734-3.8819376 1.6705962-7.63977662 5.40604455-8.86512253 3.7354484-1.22534591 7.807629.44498058 9.6066861 3.94046923.2534987.4909811.8570189.6834987 1.348.43s.6834987-.8570189.43-1.348c-1.8764569-3.67617233-5.8186765-5.82181698-9.9246287-5.40170979-4.10595214.42010719-7.53196575 3.31964465-8.62506807 7.29965229-1.09310232 3.9800076.37131201 8.2226928 3.68669677 10.6810575h-2.944c-1.98683891-2.1903663-3.08572675-5.0427682-3.082-8zm2.611 10h43.389v2h-46v-2zm-2.611 21h3c.55228475 0 1-.4477153 1-1s-.44771525-1-1-1h-3v-15h46v15h-18c-.5522847 0-1 .4477153-1 1s.4477153 1 1 1h18v3h-19.691c-1.6925682-4.7945267-6.2244869-8.0006864-11.309-8.0006864s-9.61643175 3.2061597-11.309 8.0006864h-3.691zm15 13c-3.3137085 0-6-2.6862915-6-6s2.6862915-6 6-6 6 2.6862915 6 6c-.0033074 3.3123376-2.6876624 5.9966926-6 6zm0-14c-2.8541214.0039985-5.4899407 1.5282543-6.917 4h-2.243c1.5880191-3.6440344 5.1849791-6.0002004 9.16-6.0002004s7.5719809 2.356166 9.16 6.0002004h-2.243c-1.4270593-2.4717457-4.0628786-3.9960015-6.917-4z" fill="#000" fill-rule="nonzero"/><path id="Shape" d="m18 49c-2.209139 0-4 1.790861-4 4s1.790861 4 4 4 4-1.790861 4-4-1.790861-4-4-4zm0 6c-1.1045695 0-2-.8954305-2-2s.8954305-2 2-2 2 .8954305 2 2-.8954305 2-2 2z" fill="#000" fill-rule="nonzero"/><circle id="Oval" cx="9" cy="32" fill="#000" fill-rule="nonzero" r="1"/><circle id="Oval" cx="16" cy="32" fill="#000" fill-rule="nonzero" r="1"/><circle id="Oval" cx="23" cy="32" fill="#000" fill-rule="nonzero" r="1"/><circle id="Oval" cx="30" cy="32" fill="#000" fill-rule="nonzero" r="1"/><circle id="Oval" cx="37" cy="32" fill="#000" fill-rule="nonzero" r="1"/><circle id="Oval" cx="44" cy="32" fill="#000" fill-rule="nonzero" r="1"/></g></g></svg>